<svg xmlns="http://www.w3.org/2000/svg" xml:space="preserve" id="Layer_1" x="0" y="0" style="enable-background:new 0 0 1100.6 522.7" version="1.1" viewBox="0 0 1100.6 522.7"><style>.alldevices0{stroke:gray;fill:none;stroke-linecap:round;stroke-linejoin:round;stroke-miterlimit:10}.alldevices0,.alldevices1{stroke-width:3}.alldevices1,.alldevices3{fill:none;stroke-linecap:round;stroke-linejoin:round;stroke-miterlimit:10}.alldevices1,.alldevices3{stroke:#ee5586}.alldevices3{stroke-width:3}.alldevices4{fill:#ee5586}</style><path d="M807.5 83.9c0-.3.2-.5.5-.5h80.2c.3 0 .5.2.5.5v1.6s0 2-4.1 2h-73c-4.1 0-4.1-2-4.1-2v-1.6h0zm72.4-.6V41.5c0-1.2-.9-2.1-2.1-2.1H819c-1.2 0-2.1 1-2.1 2.1v41.8h63z" class="alldevices0"/><path id="svg-concept" d="M823.6 46.5h49.2v31.8h-49.2V46.5z" class="alldevices1"/><path d="M1037.8 203.1h-49.1c-2.9 0-5.3 2.4-5.3 5.3v91.3c0 2.9 2.4 5.3 5.3 5.3h49.1c2.9 0 5.3-2.4 5.3-5.3v-91.3a5.4 5.4 0 0 0-5.3-5.3z" class="alldevices0"/><path id="svg-concept" d="M991.6 213.6h43.2v73.7h-43.2v-73.7z" class="alldevices0"/><path id="svg-concept" d="M228.8 308.2c-11.6 6.7-22.9.9-22.9-12.5v-78.2c0-13.4 11.4-19.2 23-12.5l67.9 39.4c11.6 6.7 11.6 17.7 0 24.4l-68 39.4h0z" class="alldevices3"/><circle id="svg-concept" cx="1013.2" cy="256.6" r="82.2" class="alldevices3"/><circle cx="847.3" cy="66.9" r="59.2" class="alldevices0"/><circle cx="847.3" cy="453.7" r="59.2" class="alldevices0"/><path d="M387.6 469.7a248.7 248.7 0 0 1-131.8 37.5C117.4 507.2 5.2 395 5.2 256.6S117.3 6 255.6 6C293.3 6 329 14.3 361 29.3m452.3 433.4h67.9m-33.9 15.9v9.6m15.1 0h-30.2" class="alldevices0"/><path id="svg-concept" d="M812.6 425.7h69.2v52.9h-69.2v-52.9z" class="alldevices1"/><path d="M847.3 126.1S802.5 257 525.6 257m-.1 0c287.1-.4 321.7 137.5 321.7 137.5" class="alldevices0"/><g><path id="svg-concept_6_" d="M402 53.2c63.1 45.4 104.2 119.6 104.2 203.4 0 68.6-27.6 130.7-72.3 176.1" class="alldevices0"/><animate fill="remove" accumulate="none" additive="replace" attributeName="opacity" begin="1s" calcMode="linear" dur="2s" repeatCount="indefinite" restart="always" values="0;3;0"/></g><g><path id="svg-concept_7_" d="M349.9 102.6c55.7 30.3 93.6 89.3 93.6 157.2 0 51.8-22 98.3-57.2 131" class="alldevices0"/><animate fill="remove" accumulate="none" additive="replace" attributeName="opacity" begin="2s" calcMode="linear" dur="2s" repeatCount="indefinite" restart="always" values="0;3;0"/></g><g><path id="svg-concept_8_" d="M316.7 149.8c37.3 22.5 62.1 63.3 62.1 110 0 39.8-18.2 75.5-46.6 99.1" class="alldevices0"/><animate fill="remove" accumulate="none" additive="replace" attributeName="opacity" begin="3s" calcMode="linear" dur="2s" repeatCount="indefinite" restart="always" values="0;3;0"/></g><path id="svg-concept" d="M525.5 256.6H931" class="alldevices3"/><g><path id="svg-ico" d="M535.2 257c0 3.3-2.6 6-6 6-3.3 0-6-2.6-6-6s2.6-6 6-6c3.3 0 6 2.6 6 6z" class="alldevices4"/><animateMotion fill="remove" accumulate="none" additive="replace" begin="0s" calcMode="paced" dur="5s" path="M0, 0 390 0 0 0" repeatCount="indefinite" restart="always"/></g></svg>