<svg version="1.1" id="Layer_1" xmlns="http://www.w3.org/2000/svg" x="0" y="0" viewBox="0 0 643.4 642" style="enable-background:new 0 0 643.4 642" xml:space="preserve"><style>.api0,.api1,.api2{stroke-linecap:round;stroke-linejoin:round}.api0{fill:none;stroke:gray;stroke-miterlimit:10}.api1,.api2{stroke:#ee5586}.api1{fill:none;stroke-width:2;stroke-miterlimit:10}.api2{stroke-width:3}.api2,.api3,.api4,.api5{fill:none;stroke-miterlimit:10}.api3{stroke:gray}.api4,.api5{stroke-width:2}.api4{stroke:gray;stroke-linecap:round;stroke-linejoin:round}.api5{stroke:#ee5586}</style><g><path class="api0" d="M321 112v35M330 83v5h-18v-5h18zM323 103v8h-4v-8h4z"/><path id="svg-concept" class="api1" d="M309 102V89l2-1h20l1 1v13l-1 1h-20l-2-1z"/><animateMotion accumulate="none" additive="replace" begin="0s" calcMode="paced" dur="1s" fill="freeze" path="M0, 0 0 0 0 -35" restart="always"/></g><g><path class="api0" d="m469 173-25 25M497 158l-5 5-13-13 5-4 13 12zM477 168l-6 6-3-2 6-6 3 2z"/><path id="svg-concept" class="api1" d="m468 158 9-9h2l14 15v2l-9 8h-1l-15-14v-2z"/><animateMotion accumulate="none" additive="replace" begin="0.5s" calcMode="paced" dur="1s" fill="freeze" path="M0 0 25 -25" restart="always"/></g><g><path class="api0" d="M531 322h-35M560 331h-6v-18h6v18zM540 323h-9v-3h9v3z"/><path id="svg-concept" class="api1" d="M541 310h12l1 1v21l-1 1h-12l-2-1v-21l2-1z"/><animateMotion accumulate="none" additive="replace" begin="1s" calcMode="paced" dur="1s" fill="freeze" path="M0, 0 35 0 0" restart="always"/></g><g><path class="api0" d="m469 470-25-25M484 497l-5-4 13-13 5 5-13 12zM474 477l-6-6 2-2 6 6-2 2z"/><path id="svg-concept" class="api1" d="m484 469 9 9v1l-15 15h-1l-9-9v-2l14-14h2z"/><animateMotion accumulate="none" additive="replace" begin="1.5s" calcMode="paced" dur="1s" fill="freeze" path="M0 0 25 25" restart="always"/></g><g><path class="api0" d="M321 532v-35M312 561v-6h18v6h-18zM319 540v-8h4v8h-4z"/><path id="svg-concept" class="api1" d="M332 542v12l-1 1h-20l-2-1v-13l1-1h21l1 2z"/><animateMotion accumulate="none" additive="replace" begin="2s" calcMode="paced" dur="1s" fill="freeze" path="M0, 0 0 0 0 35" restart="always"/></g><g><path class="api0" d="m172 470 25-25M145 485l4-5 13 13-4 5-13-13zM165 475l6-6 2 3-6 6-2-3z"/><path id="svg-concept" class="api1" d="m174 485-9 9h-2l-14-14v-2l8-9h2l15 15v1z"/><animateMotion accumulate="none" additive="replace" begin="2.5s" calcMode="paced" dur="1s" fill="freeze" path="M0 0 -25 25" restart="always"/></g><g><path class="api0" d="M111 322h35m-64-9h5v18h-5v-18zm20 7h9v3h-9v-3z"/><path id="svg-concept" class="api1" d="M101 333H89l-2-1v-21l2-1h12l1 1v21l-1 1z"/><animateMotion accumulate="none" additive="replace" begin="3s" calcMode="paced" dur="1s" fill="freeze" path="M0, 0 -35 0 0" restart="always"/></g><g><path class="api0" d="m173 173 24 25M158 146l4 4-12 13-5-4 13-13zM168 166l6 6-3 2-6-6 3-2z"/><path id="svg-concept" class="api1" d="m157 174-8-8v-2l14-15h2l9 9v2l-15 14h-2z"/><animateMotion accumulate="none" additive="replace" begin="3.5s" calcMode="paced" dur="1s" fill="freeze" path="M0 0 -25 -25" restart="always"/></g><path id="svg-concept" class="api2" d="M466 473a209 209 0 0 1-291 0M135 421a210 210 0 0 1 186-310 210 210 0 0 1 186 309"/><path class="api3" d="M286 608c-53-8-100-30-140-62M503 554c-42 31-92 51-147 56M618 357c-7 56-30 107-64 148M554 138c34 41 57 92 64 148M356 32c55 5 106 25 147 57M146 97c39-32 87-54 139-62M42 287c6-52 26-100 55-139M98 495c-30-39-50-87-56-139M286 58V5l1-1h68l1 1v53l-1 1h-20v-5h-29v5h-19l-1-1z"/><path class="api3" d="m482 110 38-37h1l48 48v2l-37 37h-2l-13-14 3-3-20-21-4 4-14-14v-2zM585 286h52l1 2v67l-1 2h-52l-2-2v-19h5v-29h-5v-19l2-2zM532 483l37 37v2l-48 48h-1l-38-37v-2l14-14 4 4 20-20-4-4 14-14h2zM356 585v53l-1 1h-68l-1-1v-53l1-1h19v5h29v-5h20l1 1zM159 533l-37 37h-2l-48-48v-1l38-38h1l14 14-4 4 21 20 4-3 13 13v2zM57 357H5l-2-2v-67l2-2h52l1 2v19h-5v29h5v19l-1 2zM110 160l-37-37v-2l47-48h2l37 38v1l-13 14-4-4-20 21 3 3-13 14h-2z"/><path class="api0" d="m146 253 53-55c2-3 7-5 15-5h219c9 0 12 2 15 5l47 55M226 202h-12M223 205h-11M220 209h-11M217 213h-11M214 216h-12"/><path class="api0" d="M382 213h46c3 0 6-2 5-4l-2-3c-1-3-3-4-6-4h-43c-3 0-5 2-5 4v3c0 2 2 4 5 4z"/><path class="api4" d="M506 302c0 6-5 11-11 11H145c-6 0-10-5-10-11v-38c1-6 5-11 10-11h350c6 0 11 5 11 11v38h0z"/><circle id="svg-concept" class="api1" cx="454.3" cy="283" r="15.4"/><circle id="svg-concept" class="api1" cx="393.3" cy="282.8" r="3.8"/><circle class="api4" cx="377.3" cy="282.8" r="3.8"/><circle id="svg-concept" class="api5" cx="454.5" cy="282.8" r="6.2"/><path class="api0" d="M411 283h0c0 6-4 10-10 10H179c-6 0-10-4-10-10h1c0-6 4-10 9-10h222c6 0 10 4 10 10h0zM483 313l12 20M146 333l14-20"/><path class="api4" d="M506 382c0 6-5 11-11 11H145c-5 0-9-5-9-11v-38c0-6 4-11 9-11h350c6 0 11 5 11 11v38h0z"/><circle id="svg-concept" class="api1" cx="454.5" cy="363" r="15.4"/><circle id="svg-concept" class="api1" cx="393.6" cy="362.8" r="3.8"/><circle class="api4" cx="377.5" cy="362.8" r="3.8"/><circle id="svg-concept" class="api5" cx="454.8" cy="362.8" r="6.2"/><path class="api0" d="M411 363h0c0 6-4 10-10 10H180c-6 0-10-4-10-10h0c0-6 4-10 10-10h221c6 0 10 4 10 10h0zM483 393l12 20M146 413l14-20"/><path class="api4" d="M506 462c0 6-5 11-11 11H145c-5 0-9-5-9-11v-38c0-6 4-11 9-11h350c6 0 11 5 11 11v38h0z"/><circle id="svg-concept" class="api1" cx="454.5" cy="443.2" r="15.4"/><circle id="svg-concept" class="api1" cx="393.6" cy="443" r="3.8"/><circle class="api4" cx="377.5" cy="443" r="3.8"/><circle id="svg-concept" class="api5" cx="454.8" cy="443" r="6.2"/><path class="api0" d="M411 443h0c0 6-4 10-10 10H180c-6 0-10-4-10-10h0c0-6 4-10 10-10h221c6 0 10 5 10 10h0z"/></svg>