<svg version="1.1" id="animaclock" xmlns="http://www.w3.org/2000/svg" x="0" y="0" viewBox="0 0 716.6 630.5" style="enable-background:new 0 0 716.6 630.5" xml:space="preserve"><style>.backups0,.backups1{fill:none;stroke:gray;stroke-miterlimit:10}.backups1{stroke:#ee5586;stroke-width:3;stroke-linecap:round;stroke-linejoin:round}.backups2,.backups3,.backups4{fill:#ee5586}.backups3,.backups4{stroke:gray;stroke-miterlimit:10}.backups4{fill:none;stroke:#ee5586;stroke-width:2;stroke-linecap:round;stroke-linejoin:round}</style><path class="backups0" d="M665.3 371.2a300 300 0 0 1-588.6.1M77.5 250.3a300.2 300.2 0 0 1 587 0"/><path id="svg-concept" class="backups1" d="M597.6 313.3a227.1 227.1 0 1 1-454.3 0 227.1 227.1 0 0 1 454.3 0z"/><g><path id="svg-ico" class="backups2" d="M669.6 250.3c0 3.4-2.6 6-6 6s-6-2.6-6-6 2.6-6 6-6a6 6 0 0 1 6 6z"/><animateTransform accumulate="none" additive="replace" attributeName="transform" calcMode="linear" dur="2s" fill="remove" from="0 370 315" repeatCount="indefinite" restart="always" to="-155 370 315" type="rotate"/></g><path class="backups3" d="M371.7 104.1v20.7M370.5 521.4v-19.7M579.7 313.4H559M162.3 312.1H182"/><g><path id="svg-concept" class="backups1" d="M462.3 313.3H371"/><animateTransform accumulate="none" additive="replace" attributeName="transform" calcMode="linear" dur="8s" fill="remove" from="0 370 315" repeatCount="indefinite" restart="always" to="-360 371 311" type="rotate"/></g><g id="anima"><path id="svg-concept" class="backups1" d="m371.6 148.1-.6 165.2"/><animateTransform accumulate="none" additive="replace" attributeName="transform" calcMode="linear" dur="1s" fill="remove" from="0 370 315" repeatCount="indefinite" restart="always" to="-360 371 311" type="rotate"/></g><path id="svg-concept" class="backups4" d="M51.4 311.4a22.5 22.5 0 1 1 43 0"/><path id="svg-concept" class="backups4" d="M73 301v10.4m-10.7-32.8v-6.9c0-3.8 3-6.9 6.9-6.9h7.6c3.9 0 6.9 3.1 6.9 6.9v6.9"/><circle id="svg-concept" class="backups4" cx="72.4" cy="348.1" r="3.6"/><path id="svg-concept" class="backups4" d="M72.4 338.2v6.2m-28.3 3.7h24.7m7.3 0h24.7"/><path id="svg-concept" class="backups4" d="M130.5 332.8c0 1.8-1.4 3.4-3.1 3.4h-110c-1.7 0-3.1-1.6-3.1-3.4v-12.1c0-1.8 1.4-3.4 3.1-3.4h110c1.7 0 3.1 1.6 3.1 3.4v12.1h0z"/><path id="svg-concept" class="backups4" d="M115.9 326.8c0 2.2-1.8 4-4 4s-4-1.8-4-4 1.8-4 4-4 4 1.8 4 4z"/><path id="svg-concept" class="backups4" d="M701.8 282.6v41.6c0 5.7-13.9 10.3-31.2 10.3-17.2 0-31.2-4.6-31.2-10.3v-41.6"/><path id="svg-concept" class="backups4" d="M701.8 282.6c0 5.7-13.9 10.3-31.2 10.3-17.2 0-31.2-4.6-31.2-10.3 0-5.7 13.9-10.3 31.2-10.3 17.2 0 31.2 4.6 31.2 10.3z"/><path id="svg-concept" class="backups4" d="M701.8 303.4c0 5.7-13.9 10.3-31.2 10.3-17.2 0-31.2-4.6-31.2-10.3"/><path id="svg-concept" class="backups4" d="M673.1 348.5c0 1.8-1.4 3.2-3.2 3.2s-3.2-1.4-3.2-3.2c0-1.8 1.4-3.2 3.2-3.2 1.7 0 3.2 1.4 3.2 3.2zm-3.2-9.7v6.5m-21.2 3.2h17.9m6.5 0H691"/><path id="svg-ico" class="backups2" d="M378.6 313.3c0 4.2-3.3 7.5-7.5 7.5s-7.5-3.3-7.5-7.5 3.3-7.5 7.5-7.5c4 0 7.5 3.3 7.5 7.5z"/></svg>