<svg xmlns="http://www.w3.org/2000/svg" xml:space="preserve" id="Layer_1" x="0" y="0" style="enable-background:new 0 0 1063.1 259" version="1.1" viewBox="0 0 1063 259"><style>.balancing0,.balancing1{fill:none;stroke:gray;stroke-linecap:round;stroke-linejoin:round;stroke-miterlimit:10}.balancing1{fill:#fff;stroke:#ee5586;stroke-width:2}.balancing2,.balancing3{fill:none;stroke:gray;stroke-miterlimit:10}.balancing3{stroke:#ee5586;stroke-width:2;stroke-linecap:round;stroke-linejoin:round}.balancing4{fill:#ee5586}</style><path d="M113 42h55v37h-55V42zm-5 45h65" class="balancing0"/><path id="svg-concept" d="M122 55h13m-13 10h26m93-10h13m-13 10h18M9 55h13M9 65h18" class="balancing1"/><circle cx="514.2" cy="83.8" r="3.7" class="balancing0"/><path d="M514 74v6m-29 4h25m8 0h25" class="balancing0"/><circle cx="779.2" cy="83.8" r="3.7" class="balancing0"/><path d="M779 74v6m-29 4h25m8 0h25m-47-50v-2c1-13 12-23 25-23h-1a24 24 0 0 1 17 43" class="balancing0"/><path d="M785 19c-7 0-14 6-15 14v1m-16-10a17 17 0 0 0-14 28M37 75H1V37h36M26 75v6m11 0H14m43-53H40c-2 0-3 1-3 2v55l3 3h18l3-3V31c0-2-2-3-4-3z" class="balancing0"/><path d="M50 37a4 4 0 1 1-2 8 4 4 0 1 1 2-8zm185 50V37l1-1h29l1 1v50h-31m13-46h5" class="balancing0"/><path d="M253 81c0 1-1 2-3 2l-2-2c0-1 1-2 3-2l2 2z" class="balancing0"/><path d="M141 212h747M141 99v69" class="balancing2"/><path d="M130 256v-21m0 0h5m-5 21h5m12-21h4m0 0v21m0 0h-4" class="balancing0"/><path id="svg-concept" d="M141 251v-13m0 0h-4" class="balancing3"/><path d="M877 256v-21m0 0h5m-5 21h5m12-21h5m0 0v21m0 0h-5" class="balancing0"/><path id="svg-concept" d="M891 252v-13m-6 7h6m0-7h-6m0 13h6" class="balancing3"/><path d="M503 256v-21m0 0h5m-5 21h5m12-21h5m0 0v21m0 0h-5" class="balancing0"/><path id="svg-concept" d="M517 246v-7m-6 7h6m0-7h-6m0 7v6m0 0h6" class="balancing3"/><path d="M141 168v44M251 99l-110 69m373-69v113m374-44v44M31 99l110 69m857-69-110 69M779 99l109 69" class="balancing2"/><path d="M574 17c0 2-2 3-3 3H458c-2 0-3-1-3-3V4c0-2 1-3 3-3h113c1 0 3 1 3 3v13h0zM461 1v19M567 1v19" class="balancing0"/><path id="svg-concept" d="M559 11c0 2-2 4-4 4-3 0-4-2-4-4s1-5 4-5 4 2 4 5z" class="balancing3"/><path d="M574 42c0 2-2 4-3 4H458c-2 0-3-2-3-4V30c0-2 1-3 3-3h113c1 0 3 1 3 3v12h0zM461 27v19m106-19v19" class="balancing0"/><path id="svg-concept" d="M559 36c0 3-2 4-4 4-3 0-4-2-4-4s1-4 4-4 4 2 4 4z" class="balancing3"/><path d="M574 68c0 2-2 4-3 4H458c-2 0-3-2-3-4V56c0-2 1-4 3-4h113c1 0 3 2 3 4v12h0zM461 52v19m106-19v20" class="balancing0"/><path id="svg-concept" d="M559 62c0 2-2 4-4 4-3 0-4-2-4-4 0-3 1-4 4-4s4 2 4 4z" class="balancing3"/><path d="M839 68c0 2-2 4-3 4H723c-2 0-3-2-3-4V56c0-2 1-4 3-4h113c1 0 3 2 3 4v12zM726 52v19" class="balancing0"/><path id="svg-concept" d="M824 62c0 2-2 4-4 4-3 0-4-2-4-4 0-3 1-4 4-4 2 0 4 2 4 4z" class="balancing3"/><circle cx="998.1" cy="83.8" r="3.7" class="balancing0"/><path d="M998 74v6m-29 4h25m8 0h25m-47-50v-2c1-13 12-23 25-23h-1a24 24 0 0 1 17 43" class="balancing0"/><path d="M1004 19c-7 0-14 6-15 14v1m-17-10a17 17 0 0 0-13 28m99 16c0 2-2 4-4 4H942c-2 0-3-2-3-4V56c0-2 1-4 3-4h113c1 0 3 2 3 4v12h0zM945 52v19" class="balancing0"/><path id="svg-concept" d="M1043 62c0 2-2 4-5 4-2 0-4-2-4-4 0-3 2-4 5-4s4 2 4 4z" class="balancing3"/><circle id="svg-ico" cx="140.7" cy="211.8" r="3" class="balancing4"/><circle id="svg-ico" cx="888.1" cy="211.8" r="3" class="balancing4"/><g><path id="svg-ico" d="M36 99c0 3-2 5-5 5s-5-2-5-5 2-5 5-5 5 2 5 5z" class="balancing4"/><animateMotion fill="remove" accumulate="none" additive="replace" begin="0s" calcMode="paced" dur="4s" path="M0 0 105 66 0 0" repeatCount="indefinite" restart="always"/></g><g><path id="svg-ico" d="M146 137c0 3-3 5-5 5s-5-2-5-5 2-5 5-5 5 2 5 5z" class="balancing4"/><animateMotion fill="remove" accumulate="none" additive="replace" begin="0s" calcMode="paced" dur="3s" path="M0, 67 0 -35 0 67" repeatCount="indefinite" restart="always"/></g><g><path id="svg-ico" d="M256 99c0 3-2 5-5 5s-5-2-5-5 2-5 5-5 5 2 5 5z" class="balancing4"/><animateMotion fill="remove" accumulate="none" additive="replace" begin="0s" calcMode="paced" dur="3s" path="M0 0 -105 66 0 0" repeatCount="indefinite" restart="always"/></g><g><path id="svg-ico" d="M318 212c0 3-2 5-5 5s-5-2-5-5 2-5 5-5 5 2 5 5z" class="balancing4"/><animateMotion fill="remove" accumulate="none" additive="replace" begin="0s" calcMode="paced" dur="12s" path="M570, 0 -165 0 570 0" repeatCount="indefinite" restart="always"/></g><g><path id="svg-ico" d="M519 140c0 3-2 5-5 5s-5-2-5-5 2-5 5-5 5 2 5 5z" class="balancing4"/><animateMotion fill="remove" accumulate="none" additive="replace" begin="0s" calcMode="paced" dur="4s" path="M0, 67 0 -35 0 67" repeatCount="indefinite" restart="always"/></g><g><path id="svg-ico" d="M784 99c0 3-2 5-5 5s-5-2-5-5 2-5 5-5 5 2 5 5z" class="balancing4"/><animateMotion fill="remove" accumulate="none" additive="replace" begin="0s" calcMode="paced" dur="3s" path="M0 0 105 66 0 0" repeatCount="indefinite" restart="always"/></g><g><path id="svg-ico" d="M1003 99c0 3-2 5-5 5s-5-2-5-5 2-5 5-5 5 2 5 5z" class="balancing4"/><animateMotion fill="remove" accumulate="none" additive="replace" begin="0s" calcMode="paced" dur="4s" path="M0 0 -105 66 0 0" repeatCount="indefinite" restart="always"/></g></svg>