<svg xmlns="http://www.w3.org/2000/svg" xml:space="preserve" id="Layer_1" x="0" y="0" style="enable-background:new 0 0 1063.1 259" version="1.1" viewBox="0 0 1063 259"><style>.balancingrtl0,.balancingrtl1{fill:none;stroke:gray;stroke-linecap:round;stroke-linejoin:round;stroke-miterlimit:10}.balancingrtl1{fill:#fff;stroke:#ee5586;stroke-width:2}.balancingrtl2,.balancingrtl3,.balancingrtl4{fill:none;stroke:gray;stroke-miterlimit:10}.balancingrtl3,.balancingrtl4{stroke:#ee5586;stroke-linecap:round;stroke-linejoin:round}.balancingrtl4{stroke-width:2}.balancingrtl5{fill:#ee5586}</style><path d="M899 42h56v37h-56V42zm-5 45h65" class="balancingrtl0"/><path id="svg-concept" d="M908 55h13m-13 10h26m93-10h13m-13 10h18M795 55h13m-13 10h18" class="balancingrtl1"/><circle cx="553.2" cy="83.8" r="3.7" class="balancingrtl0"/><path d="M553 74v6m-29 4h25m8 0h25" class="balancingrtl0"/><circle cx="70.8" cy="83.8" r="3.7" class="balancingrtl0"/><path d="M71 74v6m-29 4h25m8 0h25M52 34v-2c2-13 13-22 25-22h0a24 24 0 0 1 16 42" class="balancingrtl0"/><path d="M77 19c-8 0-14 6-15 14v1M45 24a17 17 0 0 0-13 28m791 23h-36V37h36m-11 38v6m11 0h-23m44-53h-17l-4 2v55c0 1 2 3 4 3h17c2 0 3-2 3-3V31c0-2-1-3-3-3z" class="balancingrtl0"/><path d="M836 37a4 4 0 1 1-1 8 4 4 0 1 1 1-8zm186 50V37l1-1h28l1 1v50h-30m13-46h4" class="balancingrtl0"/><path d="m1039 81-2 2-2-2 2-2 2 2z" class="balancingrtl0"/><path d="M180 212h747m0-113v69" class="balancingrtl2"/><path d="M916 256v-21m0 0h5m-5 21h5m12-21h4m0 0v21m0 0h-4" class="balancingrtl0"/><path id="svg-concept" d="M927 251v-13m0 0h-4" class="balancingrtl3"/><path d="M168 256v-21m0 0h5m-5 21h5m12-21h4m0 0v21m0 0h-5" class="balancingrtl0"/><path id="svg-concept" d="M182 252v-13m-7 7h7m0-7h-7m0 13h7" class="balancingrtl3"/><path d="M542 256v-21m0 0h5m-5 21h5m12-21h5m0 0v21m0 0h-5" class="balancingrtl0"/><path id="svg-concept" d="M556 246v-7m-6 7h6m0-7h-6m0 7v6m0 0h6" class="balancingrtl3"/><path d="M180 168v44m857-113-110 69M553 99v113m374-44v44M817 99l110 69M290 99l-110 69M70 99l110 69" class="balancingrtl2"/><path d="M613 17c0 2-2 3-3 3H497c-2 0-3-1-3-3V4c0-2 1-3 3-3h113c1 0 3 1 3 3v13h0zM500 1v19M606 1v19" class="balancingrtl0"/><path id="svg-concept" d="M598 11c0 2-2 4-4 4-3 0-4-2-4-4s1-5 4-5 4 2 4 5z" class="balancingrtl4"/><path d="M613 42c0 2-2 4-3 4H497c-2 0-3-2-3-4V30c0-2 1-3 3-3h113c1 0 3 1 3 3v12h0zM500 27v19m106-19v19" class="balancingrtl0"/><path id="svg-concept" d="M598 36c0 3-2 4-4 4-3 0-4-2-4-4s1-4 4-4 4 2 4 4z" class="balancingrtl4"/><path d="M613 68c0 2-2 4-3 4H497c-2 0-3-2-3-4V56c0-2 1-4 3-4h113c1 0 3 2 3 4v12h0zM500 52v19m106-19v20" class="balancingrtl0"/><path id="svg-concept" d="M598 62c0 2-2 4-4 4-3 0-4-2-4-4 0-3 1-4 4-4s4 2 4 4z" class="balancingrtl4"/><path d="M130 68c0 2-1 4-3 4H14c-1 0-3-2-3-4V56c0-2 2-4 3-4h113c2 0 3 2 3 4v12h0zM18 52v19" class="balancingrtl0"/><path id="svg-concept" d="M115 62c0 2-1 4-4 4-2 0-4-2-4-4 0-3 2-4 4-4 3 0 4 2 4 4z" class="balancingrtl4"/><circle cx="289.7" cy="83.8" r="3.7" class="balancingrtl0"/><path d="M290 74v6m-29 4h25m8 0h25m-48-50v-2c2-13 12-23 25-23h0a24 24 0 0 1 16 43" class="balancingrtl0"/><path d="M296 19c-8 0-14 6-15 14v1m-17-10a17 17 0 0 0-13 28m98 16c0 2-1 4-3 4H233c-1 0-3-2-3-4V56c0-2 2-4 3-4h113c2 0 3 2 3 4v12h0zM237 52v19" class="balancingrtl0"/><path id="svg-concept" d="M334 62c0 2-2 4-4 4s-4-2-4-4c0-3 2-4 4-4s4 2 4 4z" class="balancingrtl4"/><circle id="svg-ico" cx="179.7" cy="211.8" r="3" class="balancingrtl5"/><circle id="svg-ico" cx="927.1" cy="211.8" r="3" class="balancingrtl5"/><g><path id="svg-ico" d="M822 99c0 3-2 5-5 5s-5-2-5-5 3-5 5-5 5 2 5 5z" class="balancingrtl5"/><animateMotion fill="remove" accumulate="none" additive="replace" begin="0s" calcMode="paced" dur="4s" path="M0 0 105 66 0 0" repeatCount="indefinite" restart="always"/></g><g><path id="svg-ico" d="M932 137c0 3-2 5-5 5s-5-2-5-5 2-5 5-5 5 2 5 5z" class="balancingrtl5"/><animateMotion fill="remove" accumulate="none" additive="replace" begin="0s" calcMode="paced" dur="3s" path="M0, 67 0 -35 0 67" repeatCount="indefinite" restart="always"/></g><g><path id="svg-ico" d="M1042 99c0 3-2 5-5 5s-5-2-5-5 2-5 5-5 5 2 5 5z" class="balancingrtl5"/><animateMotion fill="remove" accumulate="none" additive="replace" begin="0s" calcMode="paced" dur="3s" path="M0 0 -105 66 0 0" repeatCount="indefinite" restart="always"/></g><g><path id="svg-ico" d="M356 212c0 2-2 4-4 4s-4-2-4-4 2-4 4-4 4 2 4 4z" class="balancingrtl5"/><animateMotion fill="remove" accumulate="none" additive="replace" begin="0s" calcMode="paced" dur="12s" path="M570, 0 -165 0 570 0" repeatCount="indefinite" restart="always"/></g><g><path id="svg-ico" d="M558 140c0 3-2 5-5 5s-5-2-5-5 2-5 5-5 5 2 5 5z" class="balancingrtl5"/><animateMotion fill="remove" accumulate="none" additive="replace" begin="0s" calcMode="paced" dur="4s" path="M0, 67 0 -35 0 67" repeatCount="indefinite" restart="always"/></g><g><path id="svg-ico" d="M76 99c0 3-2 5-5 5s-5-2-5-5 2-5 5-5 5 2 5 5z" class="balancingrtl5"/><animateMotion fill="remove" accumulate="none" additive="replace" begin="0s" calcMode="paced" dur="3s" path="M0 0 105 66 0 0" repeatCount="indefinite" restart="always"/></g><g><path id="svg-ico" d="M295 99c0 3-3 5-5 5s-5-2-5-5 2-5 5-5 5 2 5 5z" class="balancingrtl5"/><animateMotion fill="remove" accumulate="none" additive="replace" begin="0s" calcMode="paced" dur="4s" path="M0 0 -105 66 0 0" repeatCount="indefinite" restart="always"/></g></svg>