<svg xmlns="http://www.w3.org/2000/svg" xml:space="preserve" id="Layer_1" x="0" y="0" style="enable-background:new 0 0 1920 1200" version="1.1" viewBox="0 0 1920 1200"><style>.blackfriday0{fill:none;stroke:gray;stroke-linecap:round;stroke-linejoin:round;stroke-miterlimit:10;stroke-opacity:.15}.blackfriday1{fill:gray}.blackfriday2,.blackfriday3{fill:none;stroke-miterlimit:10}.blackfriday2{stroke:gray;stroke-width:3}.blackfriday3{stroke:#ee5586}.blackfriday3,.blackfriday4{stroke-width:2}.blackfriday4,.blackfriday5,.blackfriday6{fill:none;stroke:gray;stroke-miterlimit:10}.blackfriday6{fill:gray;stroke-linecap:round;stroke-linejoin:round}.blackfriday7{fill:#ee5586}.blackfriday9{fill:none;stroke-linecap:round;stroke-linejoin:round;stroke-miterlimit:10;stroke:#ee5586;stroke-opacity:.5}</style><path d="m40 394 46 46-46 46M0 428l34-34m0 92L0 452m37 41c-2 0-4-2-4-4s2-4 4-4 4 2 4 4-2 4-4 4zm0-98c-2 0-4-2-4-4s2-4 4-4 4 2 4 4-2 4-4 4zm-4 192c0-2 2-4 4-4s4 2 4 4M0 330l34-34m0 92L0 355m40-59 46 46-46 46m0-189 46 46-46 46M0 232l34-33m0 92L0 257" class="blackfriday0"/><path d="M37 298c-2 0-4-2-4-4s2-4 4-4 4 1 4 4-2 4-4 4zM0 526l34-34m0 92L0 550m40-58 46 46-46 46m-3-384c-2 0-4-2-4-4s2-4 4-4 4 1 4 4-2 4-4 4zM0 135l34-34m0 92L0 159" class="blackfriday0"/><path d="m40 101 46 46-46 46M40 3l46 46-46 46M0 37 34 3m0 92L0 61m37 41c-2 0-4-2-4-4s2-4 4-4 4 2 4 4-2 4-4 4zM41 0c0 2-2 4-4 4s-4-2-4-4m104 394 47 46-47 46m-39-58 34-34m0 92-34-34" class="blackfriday0"/><path d="M135 493c-3 0-4-2-4-4s1-4 4-4 4 2 4 4-2 4-4 4zm0-98c-3 0-4-2-4-4s1-4 4-4 4 2 4 4-2 4-4 4zm-4 192c0-2 1-4 4-4s4 2 4 4M98 330l34-34m0 92-34-33" class="blackfriday0"/><path d="m137 296 47 46-47 46m0-189 47 46-47 46m-39-59 34-33m0 92-34-34" class="blackfriday0"/><path d="M135 298c-3 0-4-2-4-4s1-4 4-4 4 1 4 4-2 4-4 4zM98 526l34-34m0 92-34-34m39-58 47 46-47 46m-2-384c-3 0-4-2-4-4s1-4 4-4 4 1 4 4-2 4-4 4zm-37-65 34-34m0 92-34-34" class="blackfriday0"/><path d="m137 101 47 46-47 46m0-190 47 46-47 46M98 37l34-34m0 92L98 61" class="blackfriday0"/><path d="M135 102c-3 0-4-2-4-4s1-4 4-4 4 2 4 4-2 4-4 4zm4-102c0 2-2 4-4 4s-4-2-4-4m104 394 46 46-46 46m-39-58 33-34m1 92-34-34" class="blackfriday0"/><path d="M232 493c-2 0-4-2-4-4s2-4 4-4 4 2 4 4-1 4-4 4zm0-98c-2 0-4-2-4-4s2-4 4-4 4 2 4 4-1 4-4 4zm-4 192c0-2 2-4 4-4s4 2 4 4m-40-257 33-34m1 92-34-33m39-59 46 46-46 46m0-189 46 46-46 46m-39-59 33-33m1 92-34-34" class="blackfriday0"/><path d="M232 298c-2 0-4-2-4-4s2-4 4-4 4 1 4 4-1 4-4 4zm-36 228 34-34m0 92-34-34m39-58 46 46-46 46m-3-384c-2 0-4-2-4-4s2-4 4-4 4 1 4 4-1 4-4 4zm-36-65 33-34m1 92-34-34" class="blackfriday0"/><path d="m235 101 46 46-46 46m0-190 46 46-46 46m-39-58 33-34m1 92-34-34" class="blackfriday0"/><path d="M232 102c-2 0-4-2-4-4s2-4 4-4 4 2 4 4-1 4-4 4zm4-102c0 2-1 4-4 4s-4-2-4-4m105 394 46 46-46 46m-39-58 33-34m0 92-33-34m36 41c-2 0-4-2-4-4s2-4 4-4 4 2 4 4-2 4-4 4zm0-98c-2 0-4-2-4-4s2-4 4-4 4 2 4 4-2 4-4 4zm-4 192c0-2 2-4 4-4s4 2 4 4m-40-257 33-34m0 92-33-33m39-59 46 46-46 46m0-189 46 46-46 46m-39-59 33-33m0 92-33-34" class="blackfriday0"/><path d="M330 298c-2 0-4-2-4-4s2-4 4-4 4 1 4 4-2 4-4 4zm-37 228 34-34m0 92-34-34m40-58 46 46-46 46m-3-384c-2 0-4-2-4-4s2-4 4-4 4 1 4 4-2 4-4 4zm-36-65 33-34m0 92-33-34" class="blackfriday0"/><path d="m333 101 46 46-46 46m0-190 46 46-46 46m-40-58 34-34m0 92-33-34m36 41c-2 0-4-2-4-4s2-4 4-4 4 2 4 4-2 4-4 4zm4-102c0 2-2 4-4 4s-4-2-4-4m105 394 46 46-46 46m-40-58 34-34m0 92-34-34m37 41c-2 0-4-2-4-4s2-4 4-4 4 2 4 4-2 4-4 4zm0-98c-2 0-4-2-4-4s2-4 4-4 4 2 4 4-2 4-4 4zm-4 192c0-2 2-4 4-4s4 2 4 4m-41-257 34-34m0 92-34-33m40-59 46 46-46 46m0-189 46 46-46 46m-40-59 34-33m0 92-34-34" class="blackfriday0"/><path d="M428 298c-2 0-4-2-4-4s2-4 4-4 4 1 4 4-2 4-4 4zm-37 228 34-34m0 92-34-34m40-58 46 46-46 46m-3-384c-2 0-4-2-4-4s2-4 4-4 4 1 4 4-2 4-4 4zm-37-65 34-34m0 92-34-34" class="blackfriday0"/><path d="m431 101 46 46-46 46m0-190 46 46-46 46m-40-58 34-34m0 92-34-34m37 41c-2 0-4-2-4-4s2-4 4-4 4 2 4 4-2 4-4 4zm4-102c0 2-2 4-4 4s-4-2-4-4m105 394 46 46-46 46m-40-58 34-34m0 92-34-34" class="blackfriday0"/><path d="M526 493c-3 0-4-2-4-4s1-4 4-4 4 2 4 4-2 4-4 4zm0-98c-3 0-4-2-4-4s1-4 4-4 4 2 4 4-2 4-4 4zm-4 192c0-2 1-4 4-4s4 2 4 4m-41-257 34-34m0 92-34-33" class="blackfriday0"/><path d="m528 296 46 46-45 46m0-189 46 46-46 46m-40-59 34-33m0 92-34-34" class="blackfriday0"/><path d="M526 298c-3 0-4-2-4-4s1-4 4-4 4 1 4 4-2 4-4 4zm-37 228 34-34m0 92-34-34m39-58 46 46-45 46m-3-384c-3 0-4-2-4-4s1-4 4-4 4 1 4 4-2 4-4 4zm-37-65 34-34m0 92-34-34" class="blackfriday0"/><path d="m528 101 46 46-45 46m0-190 46 46-46 46m-40-58 34-34m0 92-34-34" class="blackfriday0"/><path d="M526 102c-3 0-4-2-4-4s1-4 4-4 4 2 4 4-2 4-4 4zm4-102c0 2-2 4-4 4s-4-2-4-4m104 394 46 46-46 46m-39-58 34-34m0 92-34-34" class="blackfriday0"/><path d="M623 493c-2 0-4-2-4-4s2-4 4-4 4 2 4 4-1 4-4 4zm0-98c-2 0-4-2-4-4s2-4 4-4 4 2 4 4-1 4-4 4zm-4 192c0-2 2-4 4-4s4 2 4 4m-40-257 34-34m0 92-34-33m39-59 46 46-46 46m0-189 46 46-46 46m-39-59 34-33m0 92-34-34" class="blackfriday0"/><path d="M623 298c-2 0-4-2-4-4s2-4 4-4 4 1 4 4-1 4-4 4zm-36 228 34-34m0 92-34-34m39-58 46 46-46 46m-3-384c-2 0-4-2-4-4s2-4 4-4 4 1 4 4-1 4-4 4zm-36-65 34-34m0 92-34-34" class="blackfriday0"/><path d="m626 101 46 46-46 46m0-190 46 46-46 46m-39-58 34-34m0 92-34-34" class="blackfriday0"/><path d="M623 102c-2 0-4-2-4-4s2-4 4-4 4 2 4 4-1 4-4 4zm4-102c0 2-1 4-4 4s-4-2-4-4m105 394 46 46-46 46m-39-58 33-34m0 92-33-34m36 41c-2 0-4-2-4-4s2-4 4-4 4 2 4 4-2 4-4 4zm0-98c-2 0-4-2-4-4s2-4 4-4 4 2 4 4-2 4-4 4zm-4 192c0-2 2-4 4-4s4 2 4 4m-40-257 33-34m0 92-33-33m39-59 46 46-46 46m0-189 46 46-46 46m-39-59 33-33m0 92-33-34" class="blackfriday0"/><path d="M721 298c-2 0-4-2-4-4s2-4 4-4 4 1 4 4-2 4-4 4zm-37 228 34-34m0 92-34-34m40-58 46 46-46 46m-3-384c-2 0-4-2-4-4s2-4 4-4 4 1 4 4-2 4-4 4zm-36-65 33-34m0 92-33-34" class="blackfriday0"/><path d="m724 101 46 46-46 46m0-190 46 46-46 46m-39-58 33-34m0 92-33-34m36 41c-2 0-4-2-4-4s2-4 4-4 4 2 4 4-2 4-4 4zm4-102c0 2-2 4-4 4s-4-2-4-4m105 394 46 46-46 46m-40-58 34-34m0 92-34-34m37 41c-2 0-4-2-4-4s2-4 4-4 4 2 4 4-2 4-4 4zm0-98c-2 0-4-2-4-4s2-4 4-4 4 2 4 4-2 4-4 4zm-4 192c0-2 2-4 4-4s4 2 4 4m-41-257 34-34m0 92-34-33m40-59 46 46-46 46m0-189 46 46-46 46m-40-59 34-33m0 92-34-34" class="blackfriday0"/><path d="M819 298c-2 0-4-2-4-4s2-4 4-4 4 1 4 4-2 4-4 4zm-37 228 34-34m0 92-34-34m40-58 46 46-46 46m-3-384c-2 0-4-2-4-4s2-4 4-4 4 1 4 4-2 4-4 4zm-37-65 34-34m0 92-34-34" class="blackfriday0"/><path d="m822 101 46 46-46 46m0-190 46 46-46 46m-40-58 34-34m0 92-34-34m37 41c-2 0-4-2-4-4s2-4 4-4 4 2 4 4-2 4-4 4zm4-102c0 2-2 4-4 4s-4-2-4-4M517 60h-2l-1-1v-4m20 5h-10m-18-27h7" class="blackfriday0"/><path d="m542 52-28 4v-1l-3-18v-1h34v1l-3 14v1m-23-11v8m6-8v8m6-8v8m5-8v8m-12 13a4 4 0 1 1-4-4c3 0 4 1 4 4m17 0a4 4 0 1 1-4-4c2 0 4 1 4 4M370 206h-2s0 0 0 0l-1-4m20 4h-10m-18-26h7m30 18-29 4s0 0 0 0l-3-19h35l-3 15s0 0 0 0m-23-10v7m5-7v7m6-7v7m6-7v7m-12 13a4 4 0 1 1-8 0 4 4 0 0 1 8 0m16 0a4 4 0 1 1-7 0 4 4 0 0 1 7 0M54 42l2 2v23l-2 2H19l-1-2V44l1-2" class="blackfriday0"/><path d="M54 42 37 55 19 42m35 0L37 29 19 42m12 9L18 68m24-17 13 17m488 72 2 2v23l-2 2h-35l-2-2v-23l2-2" class="blackfriday0"/><path d="m543 140-17 13-18-13m35 0-17-13-18 13m12 9-13 17m24-17 13 17M299 91l1 2v23c1 1 0 2-1 2h-35l-2-2V93l2-2" class="blackfriday0"/><path d="m299 91-18 13-17-13m35 0-18-13-17 13m12 9-13 17m24-17 13 17m-99 72 2 2v23l-2 1h-35l-2-1v-23l2-2" class="blackfriday0"/><path d="m201 189-17 13-18-13m35 0-17-13-18 13m12 9-13 17m24-17 13 17M311 43c0-9 4-11 10-11 4 0 7 2 9 5 2-3 5-5 9-5 6 0 11 2 11 11s-20 23-20 23-19-14-19-23zM17 140c0-9 5-10 11-10 4 0 7 2 9 5 2-3 5-5 9-5 6 0 11 2 11 10s-20 24-20 24-20-15-20-24zm734-48c0-9 4-11 10-11 4 0 7 2 9 5 2-3 5-5 9-5 6 0 11 2 11 10s-20 24-20 24-19-14-19-23h0zm81-39-2 2-1-2 1-1 2 1z" class="blackfriday0"/><circle cx="818.9" cy="67.3" r="1.6" class="blackfriday0"/><path d="m839 59-2 1h-36c-1 0-2 0-2-2v-9l2-2h35c2 0 3 1 3 2v11zm-7-23-2 2-1-2 1-1 2 1z" class="blackfriday0"/><path d="m839 42-2 2h-36l-2-2V31l2-2h35c2 0 3 1 3 2v11zm-20 21v3m-13 1h11m4 0h11m-225 1-2 1-1-1 1-2 2 2zm16-19v4m0 7v6m-2-27h-2m9 0h-2" class="blackfriday0"/><circle cx="623.4" cy="37.6" r="8.7" class="blackfriday0"/><path d="M634 53v4h-21v-4c0-2 1-4 4-4h13c2 0 4 2 4 4h0zm-18-19 13-3m-23 36 7-7m27 8 1 1 2-1-2-2-1 2zm-18 0 1 1 2-1-2-2-1 2zm18-1-7-7M216 165l-2 2-1-2 1-1 2 1zm16-18v4m0 6v7m-2-28h-2m9 0h-2" class="blackfriday0"/><circle cx="232.4" cy="135.4" r="8.7" class="blackfriday0"/><path d="M243 150v4h-21v-4c0-2 1-3 4-3h13c2 0 4 1 4 3h0zm-18-18 13-3m-23 35 7-7m27 8 1 2 2-2-2-1-1 1zm-18 0 1 2 2-2-2-1-1 1zm18-1-7-7m121-40-2 1-2-1 2-2 2 2zm16-19v4m0 6v7m-2-27h-2m9 0h-3" class="blackfriday0"/><circle cx="379.1" cy="86.5" r="8.7" class="blackfriday0"/><path d="M390 102v3h-21v-3c0-3 1-4 3-4h14c2 0 4 1 4 4zm-19-19 14-3m-23 35 7-6m27 8 1 1 2-1-2-2-1 2zm-18 0 1 1 2-1-2-2-1 2zm18-2-7-6m338-48-2 1-1-1 1-2 2 2zm7 0-2 1-1-1 1-2 2 2zm-7-13-2 1-1-1 1-2 2 2zm7 0-2 1-1-1 1-2 2 2zm-7-14-2 2-1-2 1-1 2 1zm7 0-2 2-1-2 1-1 2 1z" class="blackfriday0"/><path d="m739 30-2-2h-32l-2 2v35l2 2h32l2-2V30h0zm-31 11h27m-27 13h27m-21 13v3h-6v-3m26 0v3h-6v-3m-294 92-2 1-2-2 2-1 2 2zm7 0-2 1-2-2 2-1 2 2zm-7-14-2 2-2-2 2-1 2 1zm7 0-2 2-2-2 2-1 2 1zm-7-13-2 2-2-2 2-2 2 2zm7 0-2 2-2-2 2-2 2 2z" class="blackfriday0"/><path d="m446 127-2-1h-32l-2 1v36l2 2h32l2-2v-36zm-32 12h27m-27 13h27m-20 13v3h-6v-3m26 0v3h-6v-3m-7-135-2 2c-2 1 0 2 0 2l-2 2-3 1h-3v-2l2-1v-2h0m-5 3v5h-1v5l-3 1-3 1m1 6 3-1 2 2h-1l2 3h1l2 1h1v1l-1 1v2l1 2h1l2 1 3 3m13-35-2 3v2l-2 1-2 1-1 2-2 1-1 4-2 3v2l2 2 2-1 1 1v2l1 1v1l-1 2h0v2l2 2 2-1 1-3 2-3 2-2 1-2-1-2v-2h2v2h2v-1l3-1" class="blackfriday0"/><path d="M428 30c11 0 19 9 19 19 0 11-8 19-19 19s-19-8-19-19c0-10 8-19 19-19zM281 177l-2 2v1l-2 2-2 2-4-1 1-1 1-1 1-2-1-1m-5 4v5h0l-1 5-2 1-3 1m0 6 3-1 2 2h0l2 2h0l2 2h1v4l1 1v1l3 1 2 3m13-36-2 3 1 2h-1l-2 1-1 1-2 2-1 2-2 3-2 4v2l2 2 2-1 2 1v2l1 1-1 1v2h-1l1 2 1 2 2-1 1-3 3-3 1-2 1-2v-2l-1-1 1-1 1-1 1 3 2-1h0l2-1" class="blackfriday0"/><path d="M281 177c11 0 19 9 19 19 1 11-8 19-19 19s-19-8-19-19 9-19 19-19zm-146-49-3 2c-2 1 0 1 0 1l-2 2-2 2h-3v-2l2-1v-3m-5 4v5h-1l-1 5-2 1-3 1m1 6 2-1 2 2h0l2 2h1l2 2h1v1l-1 1v2l1 1 1 1 2 1 2 3m14-35-3 3 1 1h0l-2 1-2 1-1 2-2 2-1 3-2 4v2l1 2 2-1 2 1v2l1 1v1l-1 2h-1l1 2 2 2 1-1 2-3 2-3 2-2 1-2-1-2-1-1 1-1 1-1 1 3 2-1h0l3-1" class="blackfriday0"/><path d="M135 128a19 19 0 1 1 0 38c-10 0-20-8-20-19s9-19 20-19zm498 12-1 2-1-2 1-1 1 1zm0 11-1 1-1-1 1-1 1 1zm6-21c0 3-7 6-16 6s-16-3-16-6 8-5 16-5c9 0 16 3 16 5z" class="blackfriday0"/><path d="M639 141c0 3-7 5-16 5s-16-2-16-5m32 11c0 2-7 5-16 5s-16-2-16-5m1 0v-22m31 22v-22m-14 34-2 2-2-2 2-2 2 2zm-2-5v3m-11 2h9m4 0h9m-147 27-2 1-1-1 1-2 2 2zm0 10-2 2-1-2 1-1 2 1zm6-20c0 3-7 5-16 5s-16-2-16-5 7-5 16-5 16 2 16 5z" class="blackfriday0"/><path d="M493 191c0 3-7 6-16 6s-16-3-16-6m32 11c0 3-7 5-16 5s-16-2-16-5m0 0v-21m32 21v-21m-15 33-2 2-1-2 1-1 2 1zm-2-5v4m-10 1h9m3 0h9M682 93l-1 1-1-1 1-1 1 1zm0 11-1 1-1-1 1-2 1 2zm6-21c0 3-7 5-16 5s-16-2-16-5 7-5 16-5 16 2 16 5z" class="blackfriday0"/><path d="M688 94c0 2-7 5-16 5s-16-3-16-5m32 10c0 3-7 6-16 6s-16-3-16-6m0 0V83m32 21V83m-14 34-2 1-2-2 2-1 2 2zm-2-5v3m-11 2h9m4 0h9M83 97v-5H72v5m0-7h11V79l-11 2v9zm13-11v11h14V77l-14 2zm14 18v-5H85v5m12 6-1 2-2-2 2-1 1 1z" class="blackfriday0"/><path d="m103 108-2 2H70l-2-2v-9l2-2h31l2 2v9zm-16 9-1 2-2-2 2-2 1 2zm-1-5v4m-11 1h9m3 0h10m56-72h-37l-1 1v2l1 1h1v19l1 1h32l1-1V49h2l1-1v-2l-1-1zm-26 0 5-15m4 0 6 15m-15 9v11m15-11v11m207 78h-37l-1 1v2l1 1h1v18l1 1h33v-19h2l1-1v-2l-1-1zm-26 0 5-16m4 0 6 16m-15 9v11m15-11v11M239 47c-4 0-8 3-8 8" class="blackfriday0"/><path d="M222 50c-5 0-9 4-9 9s4 9 9 9h17c8 0 13-6 13-13s-5-13-13-13h1c-7 0-14 4-14 13" class="blackfriday0"/><circle cx="222.6" cy="35.6" r="1.6" class="blackfriday0"/><path d="m221 50-1-3c1-3 2-5 5-5 2 0 4 2 4 4" class="blackfriday0"/><circle cx="227.1" cy="35.6" r="1.6" class="blackfriday0"/><path d="m223 39 2 1 2-1" class="blackfriday0"/><path d="m234 43-4-7v0c0-3-2-6-5-6s-6 3-6 6v0c0 4-8 12-7 14M40 1176l23 24m-53 0 24-24m7-3c0 3-2 4-4 4s-4-1-4-4m104 3 24 24m-53 0 24-24m7-3c0 3-2 4-4 4s-4-1-4-4m104 3 24 24m-53 0 24-24m6-3c0 3-1 4-4 4s-4-1-4-4m105 3 24 24m-53 0 23-24m7-3c0 3-2 4-4 4s-4-1-4-4m105 3 23 24m-53 0 24-24m7-3c0 3-2 4-4 4s-4-1-4-4m105 3 23 24m-53 0 24-24m7-3c0 3-2 4-4 4s-4-1-4-4m104 3 24 24m-53 0 24-24m6-3c0 3-1 4-4 4s-4-1-4-4m105 3 24 24m-53 0 23-24m7-3c0 3-2 4-4 4s-4-1-4-4m105 3 23 24m-53 0 24-24m7-3c0 3-2 4-4 4s-4-1-4-4M484 96c-4 0-8 3-8 8" class="blackfriday0"/><path d="M467 99c-5 0-9 4-9 9s4 9 9 9h17c7 0 13-6 13-13s-6-13-13-13h0c-7 0-13 4-13 13" class="blackfriday0"/><circle cx="467.1" cy="84.5" r="1.6" class="blackfriday0"/><path d="m466 99-1-3c0-3 2-5 4-5 3 0 4 2 5 4" class="blackfriday0"/><circle cx="471.5" cy="84.5" r="1.6" class="blackfriday0"/><path d="m467 88 2 1 3-1" class="blackfriday0"/><path d="m478 92-3-7v-1c0-3-3-5-6-5s-5 2-5 5v1c0 3-8 12-7 13m360 37h-4c-2-2-6-3-10-2h-1l1 1c2 2 2 4 2 6l-3 4h-1l-2 2v6l2 2h3l2 2v7l2 2h3l3-2v-2c4 1 9 1 14-1v3l2 3h3l2-3v-7c3-2 4-5 4-8 0-5-4-10-10-12" class="blackfriday0"/><circle cx="823.7" cy="132.4" r="4.4" class="blackfriday0"/><path d="m573 86-4 1c-3-3-6-4-10-3l-1 1s0 0 0 0l3 6-3 4h-1l-3 2v6c0 2 2 3 3 3h3l1 2v6c0 2 1 3 3 3h3c1 0 2-1 2-3v-2h14v2c0 2 1 3 3 3h2c2 0 3-1 3-3v-7c2-2 4-5 4-8 0-5-4-9-10-12" class="blackfriday0"/><circle cx="579.4" cy="83.6" r="4.4" class="blackfriday0"/><path d="M517 253h-3v-4m20 4h-10m-18-26h7m29 18-28 4s0 0 0 0l-3-19s0 0 0 0h34s0 0 0 0l-3 15c1 0 0 0 0 0m-23-10v7m6-7v7m6-7v7m5-7v7m-12 13a4 4 0 1 1-7 0 4 4 0 0 1 7 0m17 0a4 4 0 1 1-8 0 4 4 0 0 1 8 0m171 96h-2s0 0 0 0l-1-4m20 4h-9m-19-27h7m30 19-28 4h-1l-3-19h35s0 0 0 0l-3 15s0 0 0 0m-23-11v8m6-8v8m5-8v8m6-8v8m-12 13a4 4 0 1 1-8 0 4 4 0 0 1 8 0m17 0a4 4 0 1 1-8 0 4 4 0 0 1 8 0M54 236l2 2v23l-2 2H19l-2-2v-23l2-2" class="blackfriday0"/><path d="m54 236-17 13-18-13m35 0-17-13-18 13m12 9-13 17m24-17 13 17m488 72 2 1v23l-2 2h-35l-2-2v-23l2-1" class="blackfriday0"/><path d="m543 334-17 13-18-13m35 0-17-13-18 13m12 9-13 16m24-16 13 16m-245-74 1 1v24c1 1 0 1-1 1h-35l-2-1v-23l2-2" class="blackfriday0"/><path d="m299 285-18 13-17-13m35 0-18-13-17 13m12 9-13 16m24-16 13 16m488-121 2 2v23l-2 1h-35l-2-1v-23l2-2" class="blackfriday0"/><path d="m788 189-18 13-17-13m35 0-18-13-17 13m12 9-13 17m24-17 13 17m-136-26c0-9 5-10 10-10 4 0 7 2 9 4 2-2 6-4 9-4 6 0 11 2 11 10s-20 24-20 24-19-15-19-24h0zM17 334c0-9 5-11 11-11 4 0 7 2 9 5 2-3 5-5 9-5 6 0 10 2 10 11s-19 24-19 24-20-15-20-24zm734-49c0-9 4-11 10-11 4 1 7 2 9 5 2-3 5-4 9-4 6 0 11 2 11 10s-20 24-20 24-19-15-19-24h0zm81-38-2 2-1-2 1-2 2 2z" class="blackfriday0"/><circle cx="818.9" cy="261" r="1.6" class="blackfriday0"/><path d="m839 252-2 2h-36l-2-2v-10l2-2h35c2 0 3 1 3 2v10zm-7-22-2 2-1-2 1-2 2 2z" class="blackfriday0"/><path d="m839 235-2 2h-36l-2-2v-10l2-2h35c2 0 3 1 3 2v10zm-20 21v3m-13 2h11m4 0h11m-245-61-1 2-2-2 2-2 1 2z" class="blackfriday0"/><circle cx="574.5" cy="213.9" r="1.6" class="blackfriday0"/><path d="m594 205-2 2h-35l-2-2v-10l2-2h35l2 2v10h0zm-7-22-1 2-2-2 2-2 1 2z" class="blackfriday0"/><path d="m594 188-2 2h-35l-2-2v-10l2-2h35l2 2v10h0zm-19 21v3m-13 2h11m3 0h12m19 47-2 2-1-2 1-1 2 1zm16-19v5m0 6v7m-2-28h-2m9 0h-2" class="blackfriday0"/><circle cx="623.4" cy="231.3" r="8.7" class="blackfriday0"/><path d="M634 246v4h-21v-4c0-2 1-4 4-4h13c2 0 4 2 4 4h0zm-18-18 13-3m-23 35 7-7m27 8 1 2 2-2-2-1-1 1zm-18 0 1 2 2-2-2-1-1 1zm18-1-7-7M216 359l-2 2-1-2 1-2 2 2zm16-19v4m0 7v6m-2-27h-2m9 0h-2" class="blackfriday0"/><circle cx="232.4" cy="329" r="8.7" class="blackfriday0"/><path d="M243 344v4h-21v-4c0-2 1-4 4-4h13c2 0 4 2 4 4h0zm-18-18 13-4m-23 36 7-7m27 8 1 2 2-2-2-2-1 2zm-18 0 1 2 2-2-2-2-1 2zm18-1-7-7m121-41-2 2-2-2 2-1 2 1zm16-19v5m0 6v7m-2-28h-2m9 0h-3" class="blackfriday0"/><circle cx="379.1" cy="280.2" r="8.7" class="blackfriday0"/><path d="M390 295v4h-21v-4c0-2 1-4 3-4h14c2 0 4 2 4 4zm-19-18 14-4m-23 36 7-7m27 8 1 2 2-2-2-1-1 1zm-18 0 1 2 2-2-2-1-1 1zm18-1-7-7m338-48-2 2-1-2 1-1 2 1h0zm7 0-2 2-1-2 1-1 2 1h0zm-7-13-2 2-1-2 1-2 2 2zm7 0-2 2-1-2 1-2 2 2zm-7-13-2 1-1-1 1-2 2 2zm7 0-2 1-1-1 1-2 2 2z" class="blackfriday0"/><path d="m739 223-2-2h-32l-2 2v36l2 2h32l2-2v-36h0zm-31 12h27m-27 13h27m-21 13v3h-6v-3m26 0v3h-6v-3m-294 91-2 2-2-2 2-1 2 1zm7 0-2 2-2-2 2-1 2 1zm-7-13-2 1-2-1 2-2 2 2zm7 0-2 1-2-1 2-2 2 2zm-7-13-2 1-2-1 2-2 2 2zm7 0-2 1-2-1 2-2 2 2z" class="blackfriday0"/><path d="m446 321-2-2h-32l-2 2v36l2 1h32l2-1v-36zm-32 12h27m-27 12h27m-20 14v3h-6v-4m26 1v3h-6v-4m-7-134-2 2c-2 0 0 1 0 1l-2 2-3 2-3-1v-1l2-1v-3m-5 4v5h-1v5l-3 1-3 1m1 6 3-1 2 2h-1l2 2h1l2 2h1v1l-1 1v2l1 1 1 1 2 1 3 3m13-36-2 3v2h0l-2 1-2 1-1 2-2 2-1 3-2 4v2l2 2 2-1 1 1v2l1 1v1l-1 2h0v2l2 2 2-1 1-3 2-3 2-2 1-2-1-2v-2l2-1v3l2-1h0l3-1" class="blackfriday0"/><path d="M428 224c11 0 19 9 19 19 0 11-8 19-19 19s-19-8-19-19 8-19 19-19zm-293 97s-1 2-3 2 0 2 0 2l-2 2-2 1h-3v-2l2-1v-2m-5 3v5l-1 1-1 5-2 1-3 1m1 6 2-1 2 1v1l2 2h1l2 1 1 1v1l-1 1v1l1 2 1 1 2 1 2 3m14-36-3 3 1 2h0l-2 1-2 1-1 2-2 1-1 4-2 4v2l1 2 2-1h2v3l1 1v1l-1 1-1 1 1 2 2 1 1-1 2-3 2-2 2-2 1-3-1-1-1-1 1-1 1-1 1 3 2-1v-1h3" class="blackfriday0"/><path d="M135 321c11 0 19 10 19 19 0 11-9 20-19 20s-20-9-20-19c0-11 9-20 20-20zm498 13-1 1-1-1 1-1 1 1zm0 11-1 1-1-1 1-2 1 2zm6-21c0 3-7 5-16 5s-16-2-16-5 8-5 16-5 16 2 16 5z" class="blackfriday0"/><path d="M639 335c0 3-7 5-16 5s-16-2-16-5m32 10c0 3-7 5-16 5s-16-2-16-5m1 0v-21m31 21v-21m-14 34-2 1-2-1 2-2 2 2zm-2-5v3m-11 2h9m4 0h9m48-71-1 1-1-1 1-2 1 2zm0 10-1 1c-1 1-1 0-1-1l1-1 1 1zm6-20c0 3-7 5-16 5s-16-2-16-5 7-6 16-6 16 3 16 6z" class="blackfriday0"/><path d="M688 287c0 3-7 5-16 5s-16-2-16-5m32 11c0 3-7 5-16 5s-16-2-16-5m0 0v-21m32 21v-21m-14 33-2 2-2-2 2-1 2 1zm-2-5v3m-11 2h9m4 0h9M83 291v-5H72v5m0-7h11v-11l-11 2v9zm13-11v11h14v-13l-14 2zm14 18v-5H85v5m12 6-1 2-2-2 2-2 1 2z" class="blackfriday0"/><path d="m103 302-2 1H70l-2-1v-9l2-2h31l2 1v10zm-16 9-1 1-2-1 2-2 1 2zm-1-5v3m-11 2h9m3 0h10m56-72h-38v3l1 1h1v18l1 1h32l1-1v-18h2l1-1v-3h-1 0zm-26 0 5-16m4 0 6 16m-15 9v10m15-10v10m207 78h-37l-1 1v3l1 1h1v18l1 1h32l1-1v-18h2l1-1v-3l-1-1zm-26 0 5-15m4 0 6 15m-15 9v11m15-11v11m-99-115c-4 0-8 3-8 7" class="blackfriday0"/><path d="M222 243c-5 0-9 4-9 9s4 10 9 10h17c8 0 13-6 13-14 0-7-5-13-13-13h1c-7 0-14 5-14 13" class="blackfriday0"/><circle cx="222.6" cy="229.2" r="1.6" class="blackfriday0"/><path d="m221 243-1-2c1-3 2-6 5-6 2 0 4 2 4 5" class="blackfriday0"/><circle cx="227.1" cy="229.2" r="1.6" class="blackfriday0"/><path d="m223 232 2 1 2-1" class="blackfriday0"/><path d="m234 236-4-6v-1c0-3-2-5-5-5s-6 2-6 5v0c0 4-8 12-7 14M93 194c-4 0-8 3-8 8" class="blackfriday0"/><path d="M76 197c-5 0-9 4-9 9s4 9 9 9h17c7 0 13-6 13-13s-6-13-13-13h0c-7 0-13 4-13 13" class="blackfriday0"/><circle cx="76" cy="182.7" r="1.6" class="blackfriday0"/><path d="m75 197-1-3c0-3 2-5 4-5s4 2 5 4" class="blackfriday0"/><circle cx="80.4" cy="182.7" r="1.6" class="blackfriday0"/><path d="m76 186 2 1 2-1" class="blackfriday0"/><path d="m87 190-3-7v0c0-3-3-6-6-6s-5 3-5 6v0c0 3-8 12-7 14m418 93c-4 0-8 3-8 7" class="blackfriday0"/><path d="M467 292c-5 0-9 4-9 9s4 10 9 10h17c7 0 13-6 13-14s-6-13-13-13h0c-7 0-13 5-13 13" class="blackfriday0"/><circle cx="467.1" cy="278.1" r="1.6" class="blackfriday0"/><path d="m466 292-1-2c0-3 2-6 4-6 3 0 4 2 5 5" class="blackfriday0"/><circle cx="471.5" cy="278.1" r="1.6" class="blackfriday0"/><path d="m467 281 2 1 3-1" class="blackfriday0"/><path d="M478 285c-2-2-3-5-3-7v0c0-3-3-5-6-5s-5 2-5 5v0c0 4-8 12-7 14m360 36-4 1c-2-3-6-4-10-3l-1 1 1 1c2 2 2 4 2 6l-3 3h-1l-2 3v6l2 2h3l2 2v7l2 2h3l3-2v-3c4 2 9 1 14 0v3l2 2h3l2-2v-7c3-3 4-6 4-8 0-5-4-10-10-12" class="blackfriday0"/><circle cx="823.7" cy="326.1" r="4.4" class="blackfriday0"/><path d="M184 279v4m-15 5h29v23h-29v-23zm15 0v23m-15-11h29m-22-17-2-3c1-3 3-5 5-5s5 2 5 5m0-1c0-4 2-6 5-6s6 2 6 6l-2 4m-27 0h35m316 165h-2l-1-1v-4m20 5h-10m-18-27h7" class="blackfriday0"/><path d="m542 440-28 4s0 0 0 0l-3-19v-1h34v1l-3 15c1 0 0 0 0 0m-23-11v8m6-8v8m6-8v8m5-8v8m-12 13a4 4 0 1 1-7 0 4 4 0 0 1 7 0m17 0a4 4 0 1 1-8 0 4 4 0 0 1 8 0m171 96h-2v-1l-1-4m20 5h-9m-19-27h7" class="blackfriday0"/><path d="m738 538-28 4h-1l-3-19 1-1h34v1l-3 14v1m-23-11v8m6-8v8m5-8v8m6-8v8m-12 13a4 4 0 1 1-8 0 4 4 0 0 1 8 0m17 0a4 4 0 1 1-8 0 4 4 0 0 1 8 0M54 431l2 1v23l-2 2H19l-2-2v-23l2-1" class="blackfriday0"/><path d="m54 431-17 13-18-13m35 0-17-13-18 13m12 9-13 16m24-16 13 16m488 72 2 2v23l-2 2h-35l-2-2v-23l2-2" class="blackfriday0"/><path d="m543 528-17 13-18-13m35 0-17-13-18 13m12 10-13 16m24-16 13 16M311 431c0-9 4-11 10-11 4 0 7 2 9 5 2-3 5-5 9-5 6 0 11 3 11 11s-20 24-20 24-19-15-19-24zM17 529c0-9 5-11 11-11 4 0 7 2 9 5 2-3 5-5 9-5 6 0 11 2 11 11s-20 23-20 23-20-14-20-23zm734-49c0-9 4-11 10-11 4 0 7 2 9 5 2-3 5-5 9-5 6 0 11 2 11 11s-20 23-20 23-19-14-19-23h0zm81-38-2 1-1-1 1-2 2 2z" class="blackfriday0"/><circle cx="818.9" cy="455.7" r="1.6" class="blackfriday0"/><path d="m839 447-2 2h-36l-2-2v-11l2-1h35c2 0 3 0 3 2v10zm-7-22-2 1-1-1 1-2 2 2z" class="blackfriday0"/><path d="m839 430-2 2h-36l-2-2v-11l2-1h35c2 0 3 0 3 2v10zm-20 21v3m-13 2h11m4 0h11m-225 0-2 2-1-2 1-2 2 2zm16-19v5m0 6v6m-2-27h-2m9 0h-2" class="blackfriday0"/><circle cx="623.4" cy="426" r="8.7" class="blackfriday0"/><path d="M634 441v4h-21v-4c0-2 1-4 4-4h13c2 0 4 2 4 4h0zm-18-18 13-4m-23 36 7-7m27 8 1 2 2-2-2-2-1 2zm-18 0 1 2 2-2-2-2-1 2zm18-1-7-7M216 554l-2 1-1-1 1-2 2 2zm16-19v4m0 7v6m-2-27h-2m9 0h-2" class="blackfriday0"/><circle cx="232.4" cy="523.7" r="8.7" class="blackfriday0"/><path d="M243 539v4h-21v-4c0-2 1-4 4-4h13c2 0 4 2 4 4h0zm-18-19 13-3m-23 36 7-7m27 8 1 1 2-1-2-2-1 2zm-18 0 1 1 2-1-2-2-1 2zm18-1-7-7m121-41-2 1c-1 1-2 0-2-1l2-2 2 2zm16-19v4m0 7v6m-2-27h-2m9 0h-3" class="blackfriday0"/><circle cx="379.1" cy="474.9" r="8.7" class="blackfriday0"/><path d="M390 490v4h-21v-4c0-2 1-4 3-4h14c2 0 4 2 4 4zm-19-19 14-3m-23 36 7-7m27 8 1 1c1 1 2 0 2-1l-2-2-1 2zm-18 0 1 1c1 1 2 0 2-1l-2-2-1 2zm18-1-7-7m338-48-2 2-1-2 1-1 2 1zm7 0-2 2-1-2 1-1 2 1zm-7-13-2 1-1-1 1-2 2 2zm7 0-2 1-1-1 1-2 2 2zm-7-13-2 1-1-1 1-2 2 2zm7 0-2 1-1-1 1-2 2 2z" class="blackfriday0"/><path d="m739 418-2-2h-32l-2 2v36l2 1h32l2-1v-36h0zm-31 11h27m-27 13h27m-21 13v4h-6v-4m26 0v4h-6v-4m-294 92-2 1c-1 1-2 0-2-1l2-2 2 2zm7 0-2 1c-1 1-2 0-2-1l2-2 2 2zm-7-13-2 1-2-1 2-2 2 2zm7 0-2 1-2-1 2-2 2 2zm-7-14-2 2-2-2 2-1 2 1zm7 0-2 2-2-2 2-1 2 1z" class="blackfriday0"/><path d="m446 516-2-2h-32l-2 2v36l2 1h32l2-1v-36zm-32 11h27m-27 13h27m-20 13v4h-6v-4m26 0v4h-6v-4m-7-135-2 2c-2 1 0 2 0 2l-2 2-3 1h-3v-2l2-1v-2m-5 3v5l-1 1v5l-3 1-3 1m1 6 3-1 2 1-1 1 2 2h1l2 1 1 1v1l-1 1v1l1 2 1 1 2 1 3 3m13-36-2 3v2h0l-2 1-2 1-1 2-2 1-1 4-2 4v2l2 2 2-1h1v3l1 1v1l-1 1v3l2 1 2-1 1-3 2-2 2-2 1-3-1-1v-2l2-1v3l2-1v-1h3" class="blackfriday0"/><path d="M428 418c11 0 19 10 19 19 0 11-8 20-19 20s-19-9-19-19c0-11 8-20 19-20zm-293 98-3 2c-2 1 0 2 0 2l-2 2-2 1h-3v-2l2-1v-2m-5 3v5h-1l-1 6h-2l-3 2m1 5 2-1 2 2h0l2 3h1l2 1h1v1l-1 2v1l1 2h1l2 1 2 3m14-35-3 3 1 1v1l-2 1-2 1-1 2-2 1-1 4-2 3v2l1 2 2-1 2 1v2l1 2s0 0 0 0l-1 2h-1l1 2 2 2 1-1 2-3 2-2 2-2 1-3-1-2-1-1h1l1-1 1 2h2v-1l3-1" class="blackfriday0"/><path d="M135 516a19 19 0 1 1 0 38c-10 0-20-8-20-19s9-19 20-19zm498 13-1 1-1-1 1-2 1 2zm0 10-1 2-1-2 1-1 1 1zm6-20c0 3-7 5-16 5s-16-2-16-5 8-6 16-6 16 3 16 6z" class="blackfriday0"/><path d="M639 529c0 3-7 6-16 6s-16-3-16-6m32 11c0 3-7 5-16 5s-16-2-16-5m1 0v-21m31 21v-21m-14 33-2 2-2-2 2-1 2 1zm-2-5v4m-11 1h9m4 0h9m48-71-1 2-1-2 1-1 1 1zm0 11-1 1-1-1 1-1 1 1zm6-21c0 3-7 6-16 6s-16-3-16-6 7-5 16-5 16 3 16 5z" class="blackfriday0"/><path d="M688 482c0 3-7 5-16 5s-16-2-16-5m32 11c0 2-7 5-16 5s-16-3-16-5m0 0v-22m32 22v-22m-14 34-2 1c-1 1-2 0-2-1l2-2 2 2zm-2-5v3m-11 2h9m4 0h9M83 486v-6H72v6m0-8h11v-10l-11 1v9zm13-10v10h14v-13l-14 3zm14 18v-6H85v6m12 6-1 1-2-1 2-2 1 2z" class="blackfriday0"/><path d="m103 496-2 2H70l-2-2v-9l2-1h31l2 1v9zm-16 10-1 1-2-1 2-2 1 2zm-1-5v3m-11 2h9m3 0h10m56-73h-37l-1 1v3l1 1h1v18l1 1h32l1-1v-18h2l1-1v-3l-1-1zm-26 0 5-15m4 0 6 15m-15 9v11m15-11v11m207 78h-37l-1 1v3l1 1h1v18l1 1h32l1-1v-19h3v-3l-1-1zm-26 0 5-15m4 0 6 15m-15 9v11m15-11v11m-99-116c-4 0-8 4-8 8" class="blackfriday0"/><path d="M222 438c-5 0-9 4-9 9s4 9 9 9h17c8 0 13-6 13-13s-5-13-13-13h1c-7 0-14 5-14 13" class="blackfriday0"/><circle cx="222.6" cy="424" r="1.6" class="blackfriday0"/><path d="m221 438-1-3c1-3 2-5 5-5 2 0 4 2 4 5" class="blackfriday0"/><circle cx="227.1" cy="424" r="1.6" class="blackfriday0"/><path d="m223 427 2 1 2-1" class="blackfriday0"/><path d="m234 431-4-7v0c0-3-2-5-5-5s-6 2-6 5v0c0 4-8 12-7 14m272 46c-4 0-8 3-8 8" class="blackfriday0"/><path d="M467 487c-5 0-9 4-9 9s4 9 9 9h17c7 0 13-6 13-13s-6-13-13-13h0c-7 0-13 5-13 13" class="blackfriday0"/><circle cx="467.1" cy="472.8" r="1.6" class="blackfriday0"/><path d="m466 487-1-3c0-3 2-5 4-5 3 0 4 2 5 5" class="blackfriday0"/><circle cx="471.5" cy="472.8" r="1.6" class="blackfriday0"/><path d="m467 476 2 1 3-1" class="blackfriday0"/><path d="M478 480c-2-2-3-5-3-7v0c0-3-3-5-6-5s-5 2-5 5v0c0 4-8 12-7 14m360 36-4 1c-2-3-6-4-10-3l-1 1 1 1c2 2 2 3 2 5l-3 4h-1c-1 0-2 1-2 3v5c0 2 1 3 2 3h3l2 2v6c0 2 1 3 2 3h3c1 0 3-1 3-3v-2h14v2c0 2 1 3 2 3h3c1 0 2-1 2-3v-7c3-2 4-5 4-8 0-5-4-9-10-12" class="blackfriday0"/><circle cx="823.7" cy="520.8" r="4.4" class="blackfriday0"/><path d="m573 474-4 1c-3-3-6-4-10-3l-1 1v1c2 2 3 3 3 5l-3 4h-1c-1 0-3 1-3 3v5c0 2 2 3 3 3h3l1 2v6c0 2 1 3 3 3h3c1 0 2-1 2-3v-2h14v3c0 1 1 2 3 2h2c2 0 3-1 3-3v-7c2-2 4-5 4-8 0-5-4-9-10-11" class="blackfriday0"/><circle cx="579.4" cy="471.9" r="4.4" class="blackfriday0"/><path d="M184 473v5m-15 5h29v22h-29v-22zm15 0v22m-15-11h29m-22-16-2-4c1-2 3-4 5-4s5 2 5 4m0-1c0-3 2-6 5-6s6 3 6 6l-2 4m-27 1h35m169-78h-2s0 0 0 0l-1-4m20 4h-10m-18-27h7m30 19-29 4s0 0 0 0l-3-19h35l-3 15s0 0 0 0m-23-11v8m5-8v8m6-8v8m6-8v8m-12 13a4 4 0 1 1-8 0 4 4 0 0 1 8 0m16 0a4 4 0 1 1-7 0 4 4 0 0 1 7 0m-193-19 2 1v23l-2 2h-35l-2-2v-23l2-1" class="blackfriday0"/><path d="m201 383-17 13-18-13m35 0-17-13-18 13m12 9-13 16m24-16 13 16m79-38-2 3v1l-2 2-2 2-4-1 1-2 1-1 1-1-1-1m-5 3v6l-1 5-2 1-3 1m0 6 3-1 2 1v1l2 2h0l2 1 1 1v4l1 1v1l3 1 2 3m13-36-2 3 1 2h-1l-2 1-1 1-2 2-1 2-2 3-2 4v2l2 2 2-1h2v3l1 1-1 1v1l-1 1 1 2 1 1 2-1 1-2 3-3 1-2 1-3v-1l-1-1 1-1 1-1 1 3 2-1v-1h2" class="blackfriday0"/><path d="M281 370c11 0 19 10 19 20 1 10-8 19-19 19s-19-9-19-19c0-11 9-20 19-20zm206 15-2 1-1-1 1-2 2 2zm0 10-2 1-1-1 1-1 2 1zm6-20c0 3-7 5-16 5s-16-2-16-5 7-6 16-6 16 3 16 6z" class="blackfriday0"/><path d="M493 385c0 3-7 5-16 5s-16-2-16-5m32 11c0 3-7 5-16 5s-16-2-16-5m0 0v-21m32 21v-21m-15 33-2 2-1-2 1-1 2 1zm-2-5v3m-10 2h9m3 0h9m301-25 2 1v23l-2 2h-35l-2-2v-23l2-1" class="blackfriday0"/><path d="m788 383-18 13-17-13m35 0-18-13-17 13m12 9-13 16m24-16 13 16m-136-25c0-9 5-11 10-11 4 0 7 2 9 5 2-3 6-5 9-5 6 0 11 3 11 11s-20 24-20 24-19-15-19-24h0zm-66 11-1 1-2-1 2-2 1 2z" class="blackfriday0"/><circle cx="574.5" cy="407.7" r="1.6" class="blackfriday0"/><path d="m594 399-2 2h-35l-2-2v-10l2-2h35l2 2v10h0zm-7-22-1 1-2-1 2-2 1 2z" class="blackfriday0"/><path d="m594 382-2 2h-35l-2-2v-10l2-2h35l2 2v10h0zm-19 21v3m-13 2h11m3 0h12M370 594h-2v-1l-1-4m20 5h-10m-18-27h7" class="blackfriday0"/><path d="m396 586-29 4s0 0 0 0l-3-19 1-1h33l1 1-3 15s0 0 0 0m-23-11v8m5-8v8m6-8v8m6-8v8m-12 13a4 4 0 1 1-8 0 4 4 0 0 1 8 0m16 0a4 4 0 1 1-7 0 4 4 0 0 1 7 0m-193-20 2 2v23l-2 2h-35l-2-2v-23l2-2" class="blackfriday0"/><path d="m201 576-17 13-18-13m35 0-17-13-18 13m12 10-13 16m24-16 13 16m79-38-2 2v2l-2 2-2 1h-4l1-2 1-1 1-1-1-1m-5 3v6l-1 5-2 1-3 1m0 6 3-1 2 1v1l2 2h0l2 1 1 1v3l1 2h0l3 2 2 3m13-36-2 3 1 2h-1l-2 1-1 1-2 2-1 1-2 4-2 4v2l2 2 2-1h2v3l1 1-1 1v1h-1l1 2 1 2 2-1 1-3 3-2 1-2 1-3v-1l-1-1 1-1 1-1 1 2h2v-1h2" class="blackfriday0"/><path d="M281 564c11 0 19 10 19 19 1 11-8 20-19 20s-19-9-19-20c0-10 9-19 19-19zm206 14-2 2-1-2 1-1 2 1zm0 11-2 1-1-1 1-1 2 1zm6-21c0 3-7 6-16 6s-16-3-16-6 7-5 16-5 16 3 16 5z" class="blackfriday0"/><path d="M493 579c0 3-7 5-16 5s-16-2-16-5m32 11c0 2-7 5-16 5s-16-3-16-6m0 1v-22m32 22v-22m-15 34-2 1c-1 1-1 0-1-1l1-2 2 2zm-2-5v3m-10 2h9m3 0h9m301-26 2 2v23l-2 2h-35l-2-2v-23l2-2" class="blackfriday0"/><path d="m788 576-18 13-17-13m35 0-18-13-17 13m12 10-13 16m24-16 13 16m-136-25c0-9 5-11 10-11 4 0 7 2 9 5 2-3 6-5 9-5 6 0 11 2 11 11s-20 23-20 23-19-14-19-23h0zm-560 5c-4 0-8 3-8 8" class="blackfriday0"/><path d="M76 584c-5 0-9 4-9 9s4 10 9 10h17c7 0 13-6 13-13 0-8-6-13-13-13h0c-7 0-13 4-13 13" class="blackfriday0"/><circle cx="76" cy="570.3" r="1.6" class="blackfriday0"/><path d="m75 584-1-2c0-3 2-6 4-6s4 2 5 5" class="blackfriday0"/><circle cx="80.4" cy="570.3" r="1.6" class="blackfriday0"/><path d="m76 573 2 1 2-1" class="blackfriday0"/><path d="M87 577c-2-2-3-5-3-7v0c0-3-3-5-6-5s-5 2-5 5v0c0 4-8 12-7 14M40 981l46 46-46 46m-40-59 34-33m0 92-34-34" class="blackfriday0"/><path d="M37 1080c-2 0-4-2-4-4s2-4 4-4 4 1 4 4-2 4-4 4zm0-98c-2 0-4-2-4-4s2-4 4-4 4 2 4 4-2 4-4 4zm-4 191c0-2 2-4 4-4s4 2 4 4M0 917l34-34m0 92L0 941m40-58 46 46-46 46m0-190 46 46-46 46M0 819l34-34m0 92L0 843" class="blackfriday0"/><path d="M37 884c-2 0-4-2-4-4s2-4 4-4 4 2 4 4-2 4-4 4zM0 1112l34-34m0 92-34-34m40-58 46 46-46 46m-3-384c-2 0-4-2-4-4s2-4 4-4 4 2 4 4-2 4-4 4zM0 721l34-34m0 92L0 746m40-59 46 46-46 46m0-189 46 46-46 46M0 623l34-33m0 92L0 648" class="blackfriday0"/><path d="M37 689c-2 0-4-2-4-4s2-4 4-4 4 1 4 4-2 4-4 4zm4-102c0 2-2 4-4 4s-4-2-4-4m104 394 47 46-47 46m-39-59 34-33m0 92-34-34" class="blackfriday0"/><path d="M135 1080c-3 0-4-2-4-4s1-4 4-4 4 1 4 4-2 4-4 4zm0-98c-3 0-4-2-4-4s1-4 4-4 4 2 4 4-2 4-4 4zm-4 191c0-2 1-4 4-4s4 2 4 4M98 917l34-34m0 92-34-34" class="blackfriday0"/><path d="m137 883 47 46-47 46m0-190 47 46-47 46m-39-58 34-34m0 92-34-34" class="blackfriday0"/><path d="M135 884c-3 0-4-2-4-4s1-4 4-4 4 2 4 4-2 4-4 4zm-37 228 34-34m0 92-34-34m39-58 47 46-47 46m-2-384c-3 0-4-2-4-4s1-4 4-4 4 2 4 4-2 4-4 4zm-37-65 34-34m0 92-34-33" class="blackfriday0"/><path d="m137 687 47 46-47 46m0-189 47 46-47 46m-39-59 34-33m0 92-34-34" class="blackfriday0"/><path d="M135 689c-3 0-4-2-4-4s1-4 4-4 4 1 4 4-2 4-4 4zm4-102c0 2-2 4-4 4s-4-2-4-4m104 394 46 46-46 46m-39-59 33-33m1 92-34-34" class="blackfriday0"/><path d="M232 1080c-2 0-4-2-4-4s2-4 4-4 4 1 4 4-1 4-4 4zm0-98c-2 0-4-2-4-4s2-4 4-4 4 2 4 4-1 4-4 4zm-4 191c0-2 2-4 4-4s4 2 4 4m-40-256 33-34m1 92-34-34m39-58 46 46-46 46m0-190 46 46-46 46m-39-58 33-34m1 92-34-34" class="blackfriday0"/><path d="M232 884c-2 0-4-2-4-4s2-4 4-4 4 2 4 4-1 4-4 4zm-36 228 34-34m0 92-34-34m39-58 46 46-46 46m-3-384c-2 0-4-2-4-4s2-4 4-4 4 2 4 4-1 4-4 4zm-36-65 33-34m1 92-34-33m39-59 46 46-46 46m0-189 46 46-46 46m-39-59 33-33m1 92-34-34" class="blackfriday0"/><path d="M232 689c-2 0-4-2-4-4s2-4 4-4 4 1 4 4-1 4-4 4zm4-102c0 2-1 4-4 4s-4-2-4-4m105 394 46 46-46 46m-39-59 33-33m0 92-33-34" class="blackfriday0"/><path d="M330 1080c-2 0-4-2-4-4s2-4 4-4 4 1 4 4-2 4-4 4zm0-98c-2 0-4-2-4-4s2-4 4-4 4 2 4 4-2 4-4 4zm-4 191c0-2 2-4 4-4s4 2 4 4m-40-256 33-34m0 92-33-34m39-58 46 46-46 46m0-190 46 46-46 46m-39-58 33-34m0 92-33-34" class="blackfriday0"/><path d="M330 884c-2 0-4-2-4-4s2-4 4-4 4 2 4 4-2 4-4 4zm-37 228 34-34m0 92-34-34m40-58 46 46-46 46m-3-384c-2 0-4-2-4-4s2-4 4-4 4 2 4 4-2 4-4 4zm-36-65 33-34m0 92-33-33m39-59 46 46-46 46m0-189 46 46-46 46m-40-59 34-33m0 92-33-34" class="blackfriday0"/><path d="M330 689c-2 0-4-2-4-4s2-4 4-4 4 1 4 4-2 4-4 4zm4-102c0 2-2 4-4 4s-4-2-4-4m105 394 46 46-46 46m-40-59 34-33m0 92-34-34" class="blackfriday0"/><path d="M428 1080c-2 0-4-2-4-4s2-4 4-4 4 1 4 4-2 4-4 4zm0-98c-2 0-4-2-4-4s2-4 4-4 4 2 4 4-2 4-4 4zm-4 191c0-2 2-4 4-4s4 2 4 4m-41-256 34-34m0 92-34-34m40-58 46 46-46 46m0-190 46 46-46 46m-40-58 34-34m0 92-34-34" class="blackfriday0"/><path d="M428 884c-2 0-4-2-4-4s2-4 4-4 4 2 4 4-2 4-4 4zm-37 228 34-34m0 92-34-34m40-58 46 46-46 46m-3-384c-2 0-4-2-4-4s2-4 4-4 4 2 4 4-2 4-4 4zm-37-65 34-34m0 92-34-33m40-59 46 46-46 46m0-189 46 46-46 46m-40-59 34-33m0 92-34-34" class="blackfriday0"/><path d="M428 689c-2 0-4-2-4-4s2-4 4-4 4 1 4 4-2 4-4 4zm4-102c0 2-2 4-4 4s-4-2-4-4m105 394 46 46-46 46m-40-59 34-33m0 92-34-34" class="blackfriday0"/><path d="M526 1080c-3 0-4-2-4-4s1-4 4-4 4 1 4 4-2 4-4 4zm0-98c-3 0-4-2-4-4s1-4 4-4 4 2 4 4-2 4-4 4zm-4 191c0-2 1-4 4-4s4 2 4 4m-41-256 34-34m0 92-34-34" class="blackfriday0"/><path d="m528 883 46 46-45 46m0-190 46 46-46 46m-40-58 34-34m0 92-34-34" class="blackfriday0"/><path d="M526 884c-3 0-4-2-4-4s1-4 4-4 4 2 4 4-2 4-4 4zm-37 228 34-34m0 92-34-34m39-58 46 46-45 46m-3-384c-3 0-4-2-4-4s1-4 4-4 4 2 4 4-2 4-4 4zm-37-65 34-34m0 92-34-33" class="blackfriday0"/><path d="m528 687 46 46-45 46m0-189 46 46-46 46m-40-59 34-33m0 92-34-34" class="blackfriday0"/><path d="M526 689c-3 0-4-2-4-4s1-4 4-4 4 1 4 4-2 4-4 4zm4-102c0 2-2 4-4 4s-4-2-4-4m104 394 46 46-46 46m-39-59 34-33m0 92-34-34" class="blackfriday0"/><path d="M623 1080c-2 0-4-2-4-4s2-4 4-4 4 1 4 4-1 4-4 4zm0-98c-2 0-4-2-4-4s2-4 4-4 4 2 4 4-1 4-4 4zm-4 191c0-2 2-4 4-4s4 2 4 4m-40-256 34-34m0 92-34-34m39-58 46 46-46 46m0-190 46 46-46 46m-39-58 34-34m0 92-34-34" class="blackfriday0"/><path d="M623 884c-2 0-4-2-4-4s2-4 4-4 4 2 4 4-1 4-4 4zm-36 228 34-34m0 92-34-34m39-58 46 46-46 46m-3-384c-2 0-4-2-4-4s2-4 4-4 4 2 4 4-1 4-4 4zm-36-65 34-34m0 92-34-33m39-59 46 46-46 46m0-189 46 46-46 46m-39-59 34-33m0 92-34-34" class="blackfriday0"/><path d="M623 689c-2 0-4-2-4-4s2-4 4-4 4 1 4 4-1 4-4 4zm4-102c0 2-1 4-4 4s-4-2-4-4m105 394 46 46-46 46m-39-59 33-33m0 92-33-34" class="blackfriday0"/><path d="M721 1080c-2 0-4-2-4-4s2-4 4-4 4 1 4 4-2 4-4 4zm0-98c-2 0-4-2-4-4s2-4 4-4 4 2 4 4-2 4-4 4zm-4 191c0-2 2-4 4-4s4 2 4 4m-40-256 33-34m0 92-33-34m39-58 46 46-46 46m0-190 46 46-46 46m-39-58 33-34m0 92-33-34" class="blackfriday0"/><path d="M721 884c-2 0-4-2-4-4s2-4 4-4 4 2 4 4-2 4-4 4zm-37 228 34-34m0 92-34-34m40-58 46 46-46 46m-3-384c-2 0-4-2-4-4s2-4 4-4 4 2 4 4-2 4-4 4zm-36-65 33-34m0 92-33-33m39-59 46 46-46 46m0-189 46 46-46 46m-39-59 33-33m0 92-33-34" class="blackfriday0"/><path d="M721 689c-2 0-4-2-4-4s2-4 4-4 4 1 4 4-2 4-4 4zm4-102c0 2-2 4-4 4s-4-2-4-4m105 394 46 46-46 46m-40-59 34-33m0 92-34-34" class="blackfriday0"/><path d="M819 1080c-2 0-4-2-4-4s2-4 4-4 4 1 4 4-2 4-4 4zm0-98c-2 0-4-2-4-4s2-4 4-4 4 2 4 4-2 4-4 4zm-4 191c0-2 2-4 4-4s4 2 4 4m-41-256 34-34m0 92-34-34m40-58 46 46-46 46m0-190 46 46-46 46m-40-58 34-34m0 92-34-34" class="blackfriday0"/><path d="M819 884c-2 0-4-2-4-4s2-4 4-4 4 2 4 4-2 4-4 4zm-37 228 34-34m0 92-34-34m40-58 46 46-46 46m-3-384c-2 0-4-2-4-4s2-4 4-4 4 2 4 4-2 4-4 4zm-37-65 34-34m0 92-34-33m40-59 46 46-46 46m0-189 46 46-46 46m-40-59 34-33m0 92-34-34" class="blackfriday0"/><path d="M819 689c-2 0-4-2-4-4s2-4 4-4 4 1 4 4-2 4-4 4zm4-102c0 2-2 4-4 4s-4-2-4-4m-298 59h-3v-4m20 4h-10m-18-27h7m29 19-28 4s0 0 0 0l-3-19s0 0 0 0h34s0 0 0 0l-3 15c1 0 0 0 0 0m-23-10v7m6-7v7m6-7v7m5-7v7m-12 13a4 4 0 1 1-7 0 4 4 0 0 1 7 0m17 0a4 4 0 1 1-8 0 4 4 0 0 1 8 0M370 793h-2v-1l-1-4m20 5h-10m-18-27h7" class="blackfriday0"/><path d="m396 785-29 4s0 0 0 0l-3-19 1-1h33l1 1-3 15s0 0 0 0m-23-11v8m5-8v8m6-8v8m6-8v8m-12 13a4 4 0 1 1-8 0 4 4 0 0 1 8 0m16 0a4 4 0 1 1-7 0 4 4 0 0 1 7 0m318-51h-2v-1l-1-4m20 5h-9m-19-27h7" class="blackfriday0"/><path d="m738 736-28 4h-1l-3-19h35s0 0 0 0l-3 15s0 0 0 0m-23-11v8m6-8v8m5-8v8m6-8v8m-12 13a4 4 0 1 1-4-4c2 0 4 2 4 4m17 0a4 4 0 1 1-4-4c2 0 4 2 4 4M54 629l2 2v23l-2 1H19l-2-1v-23l2-2" class="blackfriday0"/><path d="m54 629-17 13-18-13m35 0-17-13-18 13m12 9-13 17m24-17 13 17m488 72 2 1v23l-2 2h-35l-2-2v-23l2-2" class="blackfriday0"/><path d="m543 727-17 12-18-13m35 1-17-13-18 13m12 9-13 16m24-16 13 16m-245-74 1 1v23c1 1 0 2-1 2h-35l-2-2v-23l2-1" class="blackfriday0"/><path d="m299 678-18 13-17-13m35 0-18-13-17 13m12 9-13 16m24-16 13 16m-99 72 2 2v23l-2 2h-35l-2-2v-23l2-2" class="blackfriday0"/><path d="m201 775-17 13-18-13m35 0-17-13-18 13m12 10-13 16m24-16 13 16m109-172c0-9 4-10 10-10 4 0 7 1 9 4 2-3 5-5 9-5 6 1 11 3 11 11s-20 24-20 24-19-15-19-24zM17 727c0-9 5-11 11-11 4 0 7 2 9 5 2-3 5-5 9-5 6 0 11 2 11 11s-20 23-20 23-20-14-20-23zm734-49c0-9 4-11 10-11 4 0 7 2 9 5 2-3 5-5 9-5 6 0 11 2 11 11s-20 24-20 24-19-15-19-24h0zm81-38-2 1-1-1 1-2 2 2z" class="blackfriday0"/><circle cx="818.9" cy="653.8" r="1.6" class="blackfriday0"/><path d="m839 645-2 2h-36l-2-2v-10l2-2h35c2 0 3 1 3 2v10zm-7-22-2 1c-1 1-1 0-1-1l1-2 2 2z" class="blackfriday0"/><path d="m839 628-2 2h-36l-2-2v-10l2-2h35c2 0 3 1 3 2v10zm-20 21v3m-13 2h11m4 0h11m-225 0-2 2-1-2 1-1 2 1zm16-19v5m0 6v7m-2-28h-2m9 0h-2" class="blackfriday0"/><circle cx="623.4" cy="624.2" r="8.7" class="blackfriday0"/><path d="M634 639v4h-21v-4c0-2 1-4 4-4h13c2 0 4 2 4 4h0zm-18-18 13-3m-23 35 7-7m27 8 1 2 2-2-2-1-1 1zm-18 0 1 2 2-2-2-1-1 1zm18-1-7-7M216 752l-2 1c-1 1-1 0-1-1l1-2 2 2zm16-19v4m0 7v6m-2-27h-2m9 0h-2" class="blackfriday0"/><circle cx="232.4" cy="721.9" r="8.7" class="blackfriday0"/><path d="M243 737v4h-21v-4c0-2 1-4 4-4h13c2 0 4 2 4 4h0zm-18-19 13-3m-23 36 7-7m27 8 1 1c1 1 2 0 2-1l-2-2-1 2zm-18 0 1 1c1 1 2 0 2-1l-2-2-1 2zm18-1-7-7m121-41-2 2-2-2 2-1c1-1 2 0 2 1zm16-19v5m0 6v6m-2-27h-2m9 0h-3" class="blackfriday0"/><circle cx="379.1" cy="673.1" r="8.7" class="blackfriday0"/><path d="M390 688v4h-21v-4c0-2 1-4 3-4h14c2 0 4 2 4 4zm-19-18 14-4m-23 36 7-7m27 8 1 2 2-2-2-1c-1-1-1 0-1 1zm-18 0 1 2 2-2-2-1c-1-1-1 0-1 1zm18-1-7-7m338-48-2 2-1-2 1-1 2 1zm7 0-2 2-1-2 1-1 2 1zm-7-13-2 2-1-2 1-2 2 2zm7 0-2 2-1-2 1-2 2 2zm-7-13-2 1-1-1 1-2 2 2zm7 0-2 1-1-1 1-2 2 2z" class="blackfriday0"/><path d="m739 616-2-2h-32l-2 2v36l2 2h32l2-2v-36h0zm-31 12h27m-27 12h27m-21 14v3h-6v-3m26 0v3h-6v-3m-294 91-2 2-2-2 2-2 2 2zm7 0-2 2-2-2 2-2 2 2zm-7-13-2 1-2-1 2-2 2 2zm7 0-2 1-2-1 2-2 2 2zm-7-14-2 2-2-2 2-1 2 1zm7 0-2 2-2-2 2-1 2 1z" class="blackfriday0"/><path d="m446 714-2-2h-32l-2 2v36l2 1h32l2-1v-36zm-32 11h27m-27 13h27m-20 13v4h-6v-4m26 0v4h-6v-4m-7-135-2 3c-2 0 0 1 0 1l-2 2-3 2-3-1v-1l2-1v-3m-5 3v5l-1 1v5l-3 1-3 1m1 6 3-1 2 1-1 1 2 2h1l2 1 1 1v1l-1 1v2l1 1 1 1 2 1 3 3m13-36-2 3v2h0l-2 1-2 1-1 2-2 2-1 3-2 4v2l2 2 2-1 1 1v2l1 1v1l-1 1v3l2 2 2-2 1-2 2-3 2-2 1-3-1-1v-2l2-1v3l2-1h0l3-1" class="blackfriday0"/><path d="M428 616c11 0 19 10 19 20a19 19 0 1 1-38 0c0-10 8-20 19-20zM281 763l-2 2v2l-2 2-2 1h-4l1-2 1-1 1-1-1-1m-5 3v6l-1 5-2 1-3 1m0 6 3-1 2 1v1l2 2h0l2 1 1 1s0 0 0 0v3l1 2h0l3 1 2 4m13-36-2 3 1 2h-1l-2 1-1 1-2 2-1 1-2 4-2 4v2l2 2 2-1h2v3l1 1-1 1v1h-1l1 2 1 2 2-1 1-3 3-2 1-2 1-3v-1l-1-1 1-1 1-1 1 2h2v-1h2" class="blackfriday0"/><path d="M281 763c11 0 19 10 19 19 1 11-8 20-19 20s-19-9-19-20 9-19 19-19zm-146-49s-1 2-3 2 0 2 0 2l-2 2-2 1h-3v-2l2-1v-2m-5 3v5l-1 1-1 5-2 1-3 1m1 6 2-1 2 1v1l2 2h1l2 1 1 1s0 0 0 0l-1 2v1l1 2h1l2 1 2 4m14-36-3 3 1 2h0l-2 1-2 1-1 2-2 1-1 4-2 4v2l1 2 2-1h2v3l1 1v1l-1 1h-1l1 2 2 2 1-1 2-3 2-2 2-2 1-3-1-1-1-1 1-1 1-1 1 2h2v-1h3" class="blackfriday0"/><path d="M135 714c11 0 19 10 19 19 0 11-9 20-19 20s-20-9-20-20 9-19 20-19zm498 13-1 1-1-1 1-1 1 1zm0 11-1 1-1-2 1-1 1 2zm6-21c0 3-7 5-16 5s-16-2-16-5 8-5 16-5c9 0 16 2 16 5z" class="blackfriday0"/><path d="M639 728c0 2-7 5-16 5s-16-3-16-6m32 11c0 3-7 5-16 5s-16-2-16-5m1 0v-21m31 21v-21m-14 34-2 1-2-1 2-2 2 2zm-2-5v3m-11 2h9m4 0h9m-147 26-2 2-1-2 1-1 2 1zm0 11-2 1-1-1 1-1 2 1zm6-21c0 3-7 6-16 6s-16-3-16-6 7-5 16-5 16 2 16 5z" class="blackfriday0"/><path d="M493 778c0 3-7 5-16 5s-16-2-16-5m32 11c0 2-7 5-16 5s-16-3-16-6m0 1v-22m32 22v-22m-15 34-2 1-1-1 1-2 2 2zm-2-5v3m-10 2h9m3 0h9m195-121-1 1-1-2 1-1 1 2zm0 10-1 1-1-1 1-1 1 1zm6-20c0 2-7 5-16 5s-16-3-16-6 7-5 16-5 16 3 16 6z" class="blackfriday0"/><path d="M688 680c0 3-7 5-16 5s-16-2-16-5m32 11c0 3-7 5-16 5s-16-2-16-5m0 0v-21m32 21v-21m-14 33-2 2-2-2 2-1 2 1zm-2-5v3m-11 2h9m4 0h9M83 684v-6H72v6m0-7h11v-11l-11 1v10zm13-11v11h14v-13l-14 2zm14 18v-6H85v6m12 6-1 1c-1 1-2 0-2-1l2-2 1 2z" class="blackfriday0"/><path d="m103 695-2 1H70l-2-1v-10l2-1h31l2 1v10zm-16 9-1 1-2-1 2-2 1 2zm-1-5v3m-11 2h9m3 0h10m56-72h-38v3l1 1h1v18l1 1h32l1-1v-18h2l1-1v-3h-1zm-26 0 5-16m4 0 6 16m-15 8v11m15-11v11m207 78h-37l-1 1v3l1 1h1v18l1 1h32l1-1v-18h2l1-1v-3l-1-1h0zm-26 0 5-15m4 0 6 15m-15 9v11m15-11v11m-99-115c-4 0-8 3-8 7" class="blackfriday0"/><path d="M222 636c-5 0-9 4-9 9s4 10 9 10h17c8 0 13-6 13-14 0-7-5-13-13-13h1c-7 0-14 5-14 13" class="blackfriday0"/><circle cx="222.6" cy="622.1" r="1.6" class="blackfriday0"/><path d="m221 636-1-2c1-3 2-6 5-6 2 0 4 2 4 5" class="blackfriday0"/><circle cx="227.1" cy="622.1" r="1.6" class="blackfriday0"/><path d="m223 625 2 1 2-1" class="blackfriday0"/><path d="m234 629-4-7v0c0-3-2-5-5-5s-6 2-6 5v0c0 4-8 12-7 14m272 46c-4 0-8 4-8 8" class="blackfriday0"/><path d="M467 685c-5 0-9 4-9 9s4 9 9 9h17c7 0 13-5 13-13 0-7-6-13-13-13h0c-7 0-13 5-13 13" class="blackfriday0"/><circle cx="467.1" cy="671" r="1.6" class="blackfriday0"/><path d="m466 685-1-3c0-3 2-5 4-5 3 0 4 2 5 5" class="blackfriday0"/><circle cx="471.5" cy="671" r="1.6" class="blackfriday0"/><path d="m467 674 2 1 3-1" class="blackfriday0"/><path d="M478 678c-2-2-3-5-3-7v0c0-3-3-5-6-5s-5 2-5 5v0c0 4-8 12-7 14m360 36-4 1c-2-3-6-4-10-3l-1 1 1 1c2 2 2 4 2 6l-3 3h-1l-2 3v6l2 2h3l2 2v7l2 2h3l3-2v-3c4 2 9 1 14 0v3l2 2h3l2-2v-8c3-2 4-5 4-8 0-5-4-9-10-11" class="blackfriday0"/><circle cx="823.7" cy="719" r="4.4" class="blackfriday0"/><path d="m573 672-4 1c-3-3-6-4-10-3l-1 1v1l3 6-3 3h-1l-3 3v6l3 2h3l1 2v7c0 1 1 2 3 2h3l2-2v-3c5 2 10 2 14 0v3c0 1 1 2 3 2h2c2 0 3-1 3-2v-7l4-8c0-5-4-10-10-12" class="blackfriday0"/><circle cx="579.4" cy="670.1" r="4.4" class="blackfriday0"/><path d="M184 671v5m-15 5h29v23h-29v-23zm15 0v23m-15-12h29m-22-16-2-4c1-2 3-4 5-4s5 2 5 5m0-2c0-3 2-6 5-6 3 1 6 3 6 6l-2 5m-27 0h35m316 164h-2l-1-1v-4m20 5h-10m-18-27h7" class="blackfriday0"/><path d="m542 832-28 4s0 0 0 0l-3-19v-1h34v1l-3 14v1m-23-11v8m6-8v8m6-8v8m5-8v8m-12 13a4 4 0 1 1-7 0 4 4 0 0 1 7 0m17 0a4 4 0 1 1-8 0 4 4 0 0 1 8 0m171 96h-2v-1l-1-4m20 5h-9m-19-27h7" class="blackfriday0"/><path d="m738 930-28 4-1-1-3-18 1-1h34v1l-3 14v1m-23-11v7m6-7v7m5-7v7m6-7v7m-12 13a4 4 0 1 1-8 0 4 4 0 0 1 8 0m17 0a4 4 0 1 1-8 0 4 4 0 0 1 8 0M54 822l2 2v23l-2 2H19l-2-2v-23l2-2" class="blackfriday0"/><path d="m54 822-17 13-18-13m35 0-17-13-18 13m12 10-13 16m24-16 13 16m488 72 2 2v23l-2 2h-35l-2-2v-23l2-2" class="blackfriday0"/><path d="m543 920-17 13-18-13m35 0-17-13-18 13m12 9-13 17m24-17 13 17m-245-75 1 2v23c1 1 0 2-1 2h-35l-2-2v-23l2-2" class="blackfriday0"/><path d="m299 871-18 13-17-13m35 0-18-13-17 13m12 9-13 17m24-17 13 17m11-74c0-9 4-11 10-11 4 0 7 2 9 5 2-3 5-5 9-5 6 0 11 2 11 11s-20 23-20 23-19-14-19-23zm342-47c0-9 5-11 10-11 4 0 7 2 9 5 2-3 6-5 9-5 6 0 11 2 11 11s-20 23-20 23-19-14-19-23h0zM17 921c0-9 5-11 11-11 4 0 7 2 9 5 2-3 5-5 9-5 6 0 10 2 10 11s-19 23-19 23-20-14-20-23zm734-49c0-9 4-11 10-11 4 0 7 2 9 5 2-3 5-5 9-5 6 0 11 2 11 11s-20 23-20 23-19-14-19-23h0zm81-38-2 1-1-1 1-2 2 2z" class="blackfriday0"/><circle cx="818.9" cy="847.5" r="1.6" class="blackfriday0"/><path d="m839 839-2 2h-36l-2-2v-11l2-2h35c2 0 3 1 3 2v11zm-7-22-2 1-1-1 1-2 2 2z" class="blackfriday0"/><path d="m839 822-2 2h-36l-2-2v-11l2-2h35c2 0 3 1 3 2v11zm-20 21v3m-13 2h11m4 0h11m-245-61-1 1-2-1 2-2 1 2z" class="blackfriday0"/><circle cx="574.5" cy="800.5" r="1.6" class="blackfriday0"/><path d="m594 792-2 2h-35l-2-2v-11l2-2h35l2 2v11h0zm-7-22-1 1-2-1 2-2 1 2z" class="blackfriday0"/><path d="m594 775-2 2h-35l-2-2v-11l2-2h35l2 2v11h0zm-19 21v3m-13 2h11m3 0h12m19 47-2 1-1-1 1-2 2 2zm16-19v4m0 7v6m-2-27h-2m9 0h-2" class="blackfriday0"/><circle cx="623.4" cy="817.8" r="8.7" class="blackfriday0"/><path d="M634 833v4h-21v-4c0-2 1-4 4-4h13c2 0 4 2 4 4h0zm-18-19 13-3m-23 36 7-7m27 8 1 1 2-1-2-2-1 2zm-18 0 1 1 2-1-2-2-1 2zm18-1-7-7M216 946l-2 1-1-1 1-2 2 2zm16-19v4m0 6v7m-2-27h-2m9 0h-2" class="blackfriday0"/><circle cx="232.4" cy="915.5" r="8.7" class="blackfriday0"/><path d="M243 931v4h-21v-4c0-2 1-4 4-4h13c2 0 4 1 4 4h0zm-18-19 13-3m-23 35 7-6m27 8 1 1 2-1-2-2-1 2zm-18 0 1 1 2-1-2-2-1 2zm18-2-7-6m121-41-2 1-2-1 2-2 2 2zm16-19v4m0 7v6m-2-27h-2m9 0h-3" class="blackfriday0"/><circle cx="379.1" cy="866.7" r="8.7" class="blackfriday0"/><path d="M390 882v4h-21v-4c0-2 1-4 3-4h14c2 0 4 2 4 4zm-19-19 14-3m-23 36 7-7m27 8 1 1 2-1-2-2-1 2zm-18 0 1 1 2-1-2-2-1 2zm18-1-7-7m338-48-2 1c-1 1-1 0-1-1l1-2 2 2zm7 0-2 1c-1 1-1 0-1-1l1-2 2 2zm-7-13-2 1-1-1 1-2 2 2zm7 0-2 1-1-1 1-2 2 2zm-7-14-2 2-1-2 1-1 2 1zm7 0-2 2-1-2 1-1 2 1z" class="blackfriday0"/><path d="m739 810-2-2h-32l-2 2v36l2 1h32l2-1v-36h0zm-31 11h27m-27 13h27m-21 13v4h-6v-4m26 0v4h-6v-4m-294 92-2 1-2-1 2-2 2 2zm7 0-2 1-2-1 2-2 2 2zm-7-14-2 2-2-2 2-1 2 1zm7 0-2 2-2-2 2-1 2 1zm-7-13-2 2-2-2 2-1c1-1 2 0 2 1zm7 0-2 2-2-2 2-1c1-1 2 0 2 1z" class="blackfriday0"/><path d="m446 908-2-2h-32l-2 1v36l2 2h32l2-2v-35zm-32 11h27m-27 13h27m-20 13v3h-6v-3m26 0v3h-6v-3m-7-135-2 2c-2 1 0 2 0 2l-2 2-3 1h-3v-2l2-1v-2m-5 3v5h-1v6h-3l-3 2m1 6 3-2 2 2-1 1 2 2h1l2 1 1 1s0 0 0 0l-1 2v1l1 2h1l2 1 3 4m13-36-2 3v2h0l-2 1-2 1-1 2-2 1-1 4-2 4v2l2 2 2-2 1 1v3l1 1v1l-1 1h0v2l2 2 2-1 1-3 2-2 2-2 1-3-1-2h0v-1l2-1v2h2v-1h3" class="blackfriday0"/><path d="M428 810c11 0 19 9 19 19 0 11-8 20-19 20s-19-9-19-20 8-19 19-19zm205 111-1 1-1-2 1-1 1 2zm0 10-1 2-1-2 1-1 1 1zm6-20c0 3-7 5-16 5s-16-3-16-5 8-6 16-6 16 3 16 6z" class="blackfriday0"/><path d="M639 921c0 3-7 6-16 6s-16-3-16-6m32 11c0 3-7 5-16 5s-16-2-16-5m1 0v-21m31 21v-21m-14 33-2 2-2-2 2-1 2 1zm-2-5v4m-11 1h9m4 0h9m48-71-1 1-1-1 1-1 1 1zm0 11-1 1-1-1 1-2 1 2zm6-21c0 3-7 6-16 6s-16-3-16-6 7-5 16-5 16 2 16 5z" class="blackfriday0"/><path d="M688 874c0 3-7 5-16 5s-16-2-16-5m32 10c0 3-7 6-16 6s-16-3-16-6m0 0v-21m32 21v-21m-14 34-2 1-2-1 2-2 2 2zm-2-5v3m-11 2h9m4 0h9M83 877v-5H72v5m0-7h11v-10l-11 1v9zm13-11v11h14v-13l-14 2zm14 18v-5H85v5m12 7-1 1-2-1 2-2 1 2z" class="blackfriday0"/><path d="m103 888-2 2H70l-2-2v-9l2-2h31l2 2v9zm-16 9-1 2-2-2 2-1 1 1zm-1-5v4m-11 1h9m3 0h10m56-72h-37l-1 1v3l1 1h1v18l1 1h32l1-1v-18h2l1-1v-3l-1-1h0zm-26 0 5-15m4 0 6 15m-15 9v11m15-11v11m207 78h-37l-1 1v2l1 1h1v19l1 1h32l1-1v-19h2l1-1v-2l-1-1zm-26 0 5-16m4 1 6 15m-15 9v11m15-11v11m-99-116c-4 0-8 3-8 8" class="blackfriday0"/><path d="M222 830c-5 0-9 4-9 9s4 9 9 9h17c8 0 13-6 13-13s-5-13-13-13h1c-7 0-14 5-14 13" class="blackfriday0"/><circle cx="222.6" cy="815.8" r="1.6" class="blackfriday0"/><path d="m221 830-1-3c1-3 2-5 5-5 2 0 4 2 4 5" class="blackfriday0"/><circle cx="227.1" cy="815.8" r="1.6" class="blackfriday0"/><path d="m223 819 2 1 2-1" class="blackfriday0"/><path d="m234 823-4-7v0c0-3-2-6-5-6s-6 3-6 6v0c0 4-8 12-7 14M93 781c-4 0-8 3-8 8" class="blackfriday0"/><path d="M76 783c-5 0-9 4-9 9s4 10 9 10h17c7 0 13-6 13-13 0-8-6-14-13-14h0c-7 0-13 5-13 14" class="blackfriday0"/><circle cx="76" cy="769.2" r="1.6" class="blackfriday0"/><path d="m75 783-1-2c0-3 2-6 4-6s4 2 5 5" class="blackfriday0"/><circle cx="80.4" cy="769.2" r="1.6" class="blackfriday0"/><path d="m76 772 2 1 2-1" class="blackfriday0"/><path d="M87 776c-2-2-3-5-3-7v0c0-3-3-5-6-5s-5 2-5 5v0c0 4-8 12-7 14m418 93c-4 0-8 3-8 8" class="blackfriday0"/><path d="M467 879c-5 0-9 4-9 9s4 9 9 9h17c7 0 13-6 13-13s-6-13-13-13h0c-7 0-13 4-13 13" class="blackfriday0"/><circle cx="467.1" cy="864.6" r="1.6" class="blackfriday0"/><path d="m466 879-1-3c0-3 2-5 4-5 3 0 4 2 5 4" class="blackfriday0"/><circle cx="471.5" cy="864.6" r="1.6" class="blackfriday0"/><path d="m467 868 2 1 3-1" class="blackfriday0"/><path d="m478 872-3-7v0c0-3-3-6-6-6s-5 3-5 6v0c0 4-8 12-7 14m360 36-4 1c-2-3-6-4-10-3l-1 1h1c2 2 2 4 2 6l-3 4h-1l-2 2v6c0 2 1 3 2 3h3l2 2v6c0 2 1 3 2 3h3c1 0 3-1 3-3v-2h14v2c0 2 1 3 2 3h3c1 0 2-1 2-3v-7c3-2 4-5 4-8 0-5-4-9-10-12" class="blackfriday0"/><circle cx="823.7" cy="912.6" r="4.4" class="blackfriday0"/><path d="m573 866-4 1c-3-3-6-4-10-3l-1 1v1c2 1 3 3 3 5l-3 4h-1c-1 0-3 1-3 3v5c0 2 2 3 3 3h3l1 2v6c0 2 1 3 3 3h3c1 0 2-1 2-3v-2h14v2c0 2 1 3 3 3h2c2 0 3-1 3-3v-7c2-2 4-5 4-8 0-5-4-9-10-12" class="blackfriday0"/><circle cx="579.4" cy="863.7" r="4.4" class="blackfriday0"/><path d="M184 865v5m-15 5h29v22h-29v-22zm15 0v22m-15-11h29m-22-16-2-4c1-2 3-4 5-4s5 2 5 4m0-1c0-3 2-6 5-6s6 3 6 6l-2 4m-27 0h35m511 263h-2s0 0 0 0l-1-4m20 4h-9m-19-26h7m30 18-28 4h-1l-3-19h35s0 0 0 0l-3 15s0 0 0 0m-23-10v7m6-7v7m5-7v7m6-7v7m-12 13a4 4 0 1 1-8 0 4 4 0 0 1 8 0m17 0a4 4 0 1 1-8 0 4 4 0 0 1 8 0M54 1017l2 2v23l-2 2H19l-2-2v-23l2-2" class="blackfriday0"/><path d="m54 1017-17 13-18-13m35 0-17-13-18 13m12 9-13 17m24-17 13 17m488 72 2 2v23l-2 1h-35l-2-1v-23l2-2" class="blackfriday0"/><path d="m543 1115-17 13-18-13m35 0-17-13-18 13m12 9-13 17m24-17 13 17m-245-75 1 2v23c1 1 0 2-1 2h-35l-2-2v-23l2-2" class="blackfriday0"/><path d="m299 1066-18 13-17-13m35 0-18-13-17 13m12 9-13 17m24-17 13 17m11-74c0-9 4-11 10-11 4 0 7 2 9 5 2-3 5-5 9-5 6 0 11 2 11 11 0 8-20 23-20 23s-19-14-19-23zm-294 97c0-9 5-10 11-10 4 0 7 1 9 4 2-3 5-4 9-4 6 0 11 2 11 10s-20 24-20 24-20-15-20-24zm734-49c0-9 4-10 10-10 4 0 7 2 9 5 2-3 5-5 9-5 6 0 11 2 11 10s-20 24-20 24-19-15-19-24h0zm81-38-2 2-1-2 1-1 2 1z" class="blackfriday0"/><circle cx="818.9" cy="1042.2" r="1.6" class="blackfriday0"/><path d="m839 1033-2 2h-36c-1 0-2 0-2-2v-10l2-2h35c2 0 3 1 3 2v10zm-7-22-2 2-1-2 1-1 2 1z" class="blackfriday0"/><path d="m839 1016-2 2h-36l-2-2v-10l2-2h35c2 0 3 1 3 2v10zm-20 22v2m-13 2h11m4 0h11m-225 1-2 1-1-2 1-1 2 2zm16-19v4m0 6v7m-2-27h-2m9 0h-2" class="blackfriday0"/><circle cx="623.4" cy="1012.5" r="8.7" class="blackfriday0"/><path d="M634 1028v3h-21v-3c0-3 1-4 4-4h13c2 0 4 1 4 4h0zm-18-19 13-3m-23 35 7-6m27 8 1 1 2-2-2-1-1 2zm-18 0 1 1 2-2-2-1-1 2zm18-2-7-6m-417 105-2 2-1-2 1-1 2 1zm16-19v5m0 6v7m-2-28h-2m9 0h-2" class="blackfriday0"/><circle cx="232.4" cy="1110.3" r="8.7" class="blackfriday0"/><path d="M243 1125v4h-21v-4c0-2 1-4 4-4h13c2 0 4 2 4 4h0zm-18-18 13-3m-23 35 7-7m27 8 1 2 2-2-2-1-1 1zm-18 0 1 2 2-2-2-1-1 1zm18-1-7-7m121-41-2 2-2-2 2-1 2 1zm16-18v4m0 6v7m-2-28h-2m9 0h-3" class="blackfriday0"/><circle cx="379.1" cy="1061.4" r="8.7" class="blackfriday0"/><path d="M390 1076v4h-21v-4c0-2 1-3 3-3h14c2 0 4 1 4 3zm-19-18 14-3m-23 35 7-7m27 8 1 2 2-2-2-1-1 1zm-18 0 1 2 2-2-2-1-1 1zm18-1-7-7m338-47-2 1-1-1 1-2 2 2zm7 0-2 1-1-1 1-2 2 2zm-7-14-2 2-1-2 1-1 2 1zm7 0-2 2-1-2 1-1 2 1zm-7-13-2 2-1-2 1-2 2 2zm7 0-2 2-1-2 1-2 2 2z" class="blackfriday0"/><path d="m739 1004-2-1h-32l-2 1v36l2 2h32l2-2v-36h0zm-31 12h27m-27 13h27m-21 13v3h-6v-3m26 0v3h-6v-3m-294 91-2 2-2-2 2-1 2 1zm7 0-2 2-2-2 2-1 2 1zm-7-13-2 2-2-2 2-2 2 2zm7 0-2 2-2-2 2-2 2 2zm-7-13-2 1-2-1 2-2 2 2zm7 0-2 1-2-1 2-2 2 2z" class="blackfriday0"/><path d="m446 1102-2-1h-32l-2 1v36l2 2h32l2-2v-36zm-32 12h27m-27 13h27m-20 13v3h-6v-3m26 0v3h-6v-3m-7-135-2 2c-2 1 0 2 0 2l-2 2-3 1h-3v-2l2-1v-3m-5 4v5h-1v5l-3 1-3 1m1 6 3-1 2 2h-1l2 3h1l2 1h1v1l-1 1v2l1 1 1 1 2 1 3 3m13-35-2 3v2h-2l-2 1-1 2-2 2-1 3-2 4v2l2 2 2-1 1 1v2l1 1v1l-1 2h0v2l2 2 2-1 1-3 2-3 2-2 1-2-1-2v-2h2v2h2v-1l3-1" class="blackfriday0"/><path d="M428 1005c11 0 19 9 19 19 0 11-8 19-19 19s-19-8-19-19 8-19 19-19zm-293 97-3 3c-2 1 0 1 0 1l-2 2-2 2-3-1v-1l2-1v-3m-5 4v5h-1l-1 5-2 1-3 1m1 6 2-1 2 1v1l2 2h1l2 1 1 1v1l-1 1v2l1 1 1 1 2 1 2 3m14-36-3 3 1 2h0l-2 1-2 1-1 2-2 2-1 3-2 4v2l1 2 2-1 2 1v2l1 1v1l-1 2h-1l1 2 2 2 1-2 2-2 2-3 2-2 1-2-1-2-1-1 1-1 1-1 1 3 2-1h0l3-1" class="blackfriday0"/><path d="M135 1102c11 0 19 10 19 20s-9 19-19 19-20-9-20-19c0-11 9-20 20-20zm498 13-1 2-1-2 1-1 1 1zm0 11-1 1-1-1 1-1 1 1zm6-21c0 3-7 6-16 6s-16-3-16-6 8-5 16-5 16 2 16 5z" class="blackfriday0"/><path d="M639 1116c0 3-7 5-16 5s-16-2-16-5m32 11c0 2-7 5-16 5s-16-3-16-6m1 1v-22m31 22v-22m-14 34-2 1-2-1 2-2 2 2zm-2-5v3m-11 2h9m4 0h9m48-71-1 1-1-1 1-2 1 2zm0 11-1 1-1-2 1-1 1 2zm6-21c0 3-7 5-16 5s-16-2-16-5 7-5 16-5 16 2 16 5z" class="blackfriday0"/><path d="M688 1069c0 2-7 5-16 5s-16-3-16-6m32 11c0 3-7 5-16 5s-16-2-16-5m0 0v-21m32 21v-21m-14 33-2 2-2-2 2-1 2 1zm-2-4v3m-11 1h9m4 0h9m-600-19v-5H72v5m0-7h11v-11l-11 2v9zm13-11v11h14v-13l-14 2zm14 18v-5H85v5m12 6-1 2-2-2 2-1 1 1z" class="blackfriday0"/><path d="m103 1083-2 1H70l-2-1v-9l2-2h31l2 2v9zm-16 9-1 2-2-2 2-2 1 2zm-1-5v3m-11 2h9m3 0h10m56-72h-37l-1 1v2l1 1h1v19l1 1h32l1-1v-19h2l1-1v-2l-1-1zm-26 0 5-16m4 1 6 15m-15 9v11m15-11v11m97-18c-4 0-8 3-8 8" class="blackfriday0"/><path d="M222 1024c-5 0-9 5-9 10s4 9 9 9h17c8 0 13-6 13-13s-5-13-13-13h1c-7 0-14 4-14 13" class="blackfriday0"/><circle cx="222.6" cy="1010.5" r="1.6" class="blackfriday0"/><path d="m221 1024-1-2c1-3 2-5 5-5 2 0 4 2 4 4" class="blackfriday0"/><circle cx="227.1" cy="1010.5" r="1.6" class="blackfriday0"/><path d="m223 1014 2 1 2-1" class="blackfriday0"/><path d="m234 1018-4-7v-1c0-2-2-5-5-5s-6 3-6 5v1c0 3-8 12-7 14m272 46c-4 0-8 3-8 8" class="blackfriday0"/><path d="M467 1073c-5 0-9 4-9 9s4 10 9 10h17c7 0 13-6 13-13s-6-13-13-13h0c-7 0-13 4-13 13" class="blackfriday0"/><circle cx="467.1" cy="1059.4" r="1.6" class="blackfriday0"/><path d="m466 1073-1-2c0-3 2-6 4-6 3 0 4 2 5 5" class="blackfriday0"/><circle cx="471.5" cy="1059.4" r="1.6" class="blackfriday0"/><path d="m467 1062 2 1 3-1" class="blackfriday0"/><path d="m478 1067-3-7v-1c0-3-3-5-6-5s-5 2-5 5v0c0 4-8 13-7 14m360 36-4 1c-2-3-6-4-10-2h-1l1 1c2 2 2 4 2 6l-3 4h-1l-2 2v6l2 2h3l2 2v7l2 2h3l3-2v-2c4 1 9 1 14-1v3l2 3h3l2-3v-7c3-3 4-5 4-8 0-5-4-10-10-12" class="blackfriday0"/><circle cx="823.7" cy="1107.3" r="4.4" class="blackfriday0"/><path d="M573 1061h-4c-3-2-6-3-10-2h-1v1l3 6-3 4h-1l-3 2v6l3 3h3l1 1v7c0 1 1 3 3 3h3l2-3v-2h14v2c0 1 1 3 3 3h2c2 0 3-2 3-3v-7c2-3 4-5 4-8 0-5-4-10-10-12" class="blackfriday0"/><circle cx="579.4" cy="1058.4" r="4.4" class="blackfriday0"/><path d="M184 1060v4m-15 6h29v22h-29v-22zm15 0v22m-15-11h29m-22-17-2-3c1-3 3-5 5-5s5 2 5 5m0-1c0-4 2-6 5-6s6 2 6 6l-2 4m-27 0h35m169-77h-2v-1l-1-4m20 5h-10m-18-27h7" class="blackfriday0"/><path d="m396 979-29 4v-1l-3-18 1-1h33l1 1-3 14v1m-23-11v8m5-8v8m6-8v8m6-8v8m-12 12a4 4 0 1 1-8 0 4 4 0 0 1 8 0m16 0a4 4 0 1 1-7 0 4 4 0 0 1 7 0m-193-19 2 2v23l-2 2h-35l-2-2v-23l2-2" class="blackfriday0"/><path d="m201 969-17 13-18-13m35 0-17-13-18 13m12 9-13 17m24-17 13 17m79-38-2 2v2l-2 2-2 1h-4l1-2 1-1 1-1-1-1m-5 3v5h0l-1 6h-2l-3 2m0 5 3-1 2 2h0l2 3h0l2 1h1v4l1 2h0l3 1 2 3m13-35-2 3 1 1-1 1-2 1-1 1-2 2-1 1-2 4-2 3v2l2 2 2-1 2 1v2l1 2h-1v2h-1l1 2 1 2 2-1 1-3 3-2 1-2 1-3v-2l-1-1h1l1-1 1 2h2v-1l2-1" class="blackfriday0"/><path d="M281 957c11 0 19 9 19 19 1 11-8 19-19 19s-19-8-19-19 9-19 19-19zm206 14-2 1-1-1 1-1 2 1zm0 11-2 1-1-1 1-2 2 2zm6-21c0 3-7 5-16 5s-16-2-16-5 7-5 16-5 16 2 16 5z" class="blackfriday0"/><path d="M493 972c0 3-7 5-16 5s-16-2-16-5m32 10c0 3-7 6-16 6s-16-3-16-6m0 0v-21m32 21v-21m-15 34-2 1-1-1 1-2 2 2zm-2-5v3m-10 2h9m3 0h9m301-26 2 2v23l-2 2h-35l-2-2v-23l2-2" class="blackfriday0"/><path d="m788 969-18 13-17-13m35 0-18-13-17 13m12 9-13 17m24-17 13 17m-136-25c0-9 5-11 10-11 4 0 7 2 9 5 2-3 6-5 9-5 6 0 11 2 11 11s-20 23-20 23-19-14-19-23h0zm-66 10-1 2-2-2 2-1 1 1z" class="blackfriday0"/><circle cx="574.5" cy="994.3" r="1.6" class="blackfriday0"/><path d="m594 986-2 1h-35c-1 0-2 0-2-2v-10l2-2h35l2 2v11h0zm-7-23-1 2-2-2 2-1 1 1z" class="blackfriday0"/><path d="m594 969-2 1h-35c-1 0-2 0-2-2v-10l2-2h35l2 2v11h0zm-19 21v3m-13 1h11m3 0h12M93 974c-4 0-8 4-8 8" class="blackfriday0"/><path d="M76 977c-5 0-9 4-9 9s4 9 9 9h17c7 0 13-5 13-13 0-7-6-13-13-13h0c-7 0-13 5-13 13" class="blackfriday0"/><circle cx="76" cy="963" r="1.6" class="blackfriday0"/><path d="m75 977-1-3c0-3 2-5 4-5s4 2 5 5" class="blackfriday0"/><circle cx="80.4" cy="963" r="1.6" class="blackfriday0"/><path d="m76 966 2 1 2-1" class="blackfriday0"/><path d="M87 970c-2-2-3-5-3-7v0c0-3-3-5-6-5s-5 2-5 5v0c0 4-8 12-7 14m304 203h-2s0 0 0 0l-1-4m20 4h-10m-18-26h7" class="blackfriday0"/><path d="m396 1172-29 5v-1l-3-19h35l-3 15s0 0 0 0m-23-10v7m5-7v7m6-7v7m6-7v7m-12 13a4 4 0 1 1-8 0 4 4 0 0 1 8 0m16 0a4 4 0 1 1-7 0 4 4 0 0 1 7 0m-193-19 2 2v23l-2 2h-35l-2-2v-23l2-2" class="blackfriday0"/><path d="m201 1163-17 13-18-13m35 0-17-13-18 13m12 9-13 17m24-17 13 17m79-38-2 2v2l-2 2-2 1h-4l1-2 1-1 1-2-1-1m-5 4v5h0l-1 5-2 1-3 1m0 6 3-1 2 2h0l2 3h0l2 1h1v4l1 1v1l3 1 2 3m13-35-2 3 1 1-1 1h-2l-1 1-2 2-1 2-2 3-2 4v2l2 2 2-1 2 1v2l1 1-1 1v2h-1l1 2 1 2 2-1 1-3 3-3 1-2 1-2v-2l-1-1 1-1h1l1 2 2-1h0l2-1" class="blackfriday0"/><path d="M281 1151c11 0 19 9 19 19 1 11-8 19-19 19s-19-8-19-19 9-19 19-19zm206 14-2 1-1-1 1-2 2 2zm0 11-2 1-1-2 1-1 2 2zm6-21c0 3-7 5-16 5s-16-2-16-5 7-5 16-5 16 2 16 5z" class="blackfriday0"/><path d="M493 1166c0 2-7 5-16 5s-16-3-16-6m32 11c0 3-7 5-16 5s-16-2-16-5m0 0v-21m32 21v-21m-15 33-2 2-1-2 1-1 2 1zm-2-4v3m-10 1h9m3 0h9m301-25 2 2v23l-2 2h-35l-2-2v-23l2-2" class="blackfriday0"/><path d="m788 1163-18 13-17-13m35 0-18-13-17 13m12 9-13 17m24-17 13 17m-136-26c0-9 5-10 10-10 4 0 7 2 9 5 2-3 6-5 9-5 6 0 11 2 11 10s-20 24-20 24-19-15-19-24h0zm-66 11-1 2-2-2 2-2 1 2z" class="blackfriday0"/><circle cx="574.5" cy="1188.1" r="1.6" class="blackfriday0"/><path d="m594 1179-2 2h-35l-2-2v-10l2-2h35l2 2v10h0zm-7-22-1 2-2-2 2-2 1 2z" class="blackfriday0"/><path d="m594 1162-2 2h-35l-2-2v-10l2-2h35l2 2v10h0zm-19 22v2m-13 2h11m3 0h12m-495-20c-4 0-8 3-8 8" class="blackfriday0"/><path d="M76 1171c-5 0-9 4-9 9s4 9 9 9h17c7 0 13-6 13-13s-6-13-13-13h0c-7 0-13 5-13 13" class="blackfriday0"/><circle cx="76" cy="1156.8" r="1.6" class="blackfriday0"/><path d="m75 1171-1-3c0-3 2-5 4-5s4 2 5 5" class="blackfriday0"/><circle cx="80.4" cy="1156.8" r="1.6" class="blackfriday0"/><path d="m76 1160 2 1 2-1" class="blackfriday0"/><path d="M87 1164c-2-2-3-5-3-7v0c0-3-3-6-6-6s-5 3-5 6v0c0 4-8 12-7 14" class="blackfriday0"/><path d="M1205 311v13l1 4 4 1c2 0 4 0 5-2l2-5v-11h2v19h-2v-2c-2 2-4 3-7 3-5 0-7-3-7-7v-13h2zm29 20c-4 0-6-1-7-4v13h-2v-29h2v3c2-3 4-4 7-4l6 3 2 8-2 7-6 3zm0-2c2 0 3 0 4-2l2-6c0-6-2-9-6-9-3 0-4 1-5 2l-2 6v1l2 6c1 2 2 2 5 2zm28 0h3v1l-3 1-4-1-1-5v-13h-3v-1l3-1 1-4h1v5h6v1h-6v13l1 3 2 1zm24-8-2 7c-1 2-4 3-7 3l-4-1c-1 0-3-2-3-4l-1-5c0-4 0-6 2-8 1-2 4-3 6-3 3 0 5 1 7 3l2 8zm-16 0 2 6c1 2 3 2 5 2s4 0 5-2l2-6-2-7-5-2-5 2-2 7zm281 98v-4h5v-5l2-7c1-2 3-3 6-3l2 1h1v4l-2-1-3 1-1 1v2l-1 3v4h7v3h-7v32h-4v-32l-5 1zm23 0v-4h5v-5l2-7c1-2 3-3 6-3l2 1h1v4l-2-1-3 1-1 1-1 2v7h7v3h-7v32h-4v-32l-5 1zm-74-39-1 7a17 17 0 0 1-9 9 16 16 0 0 1-19-4l-3-5a16 16 0 0 1 3-19l6-3 6-2 7 2c2 0 4 2 5 3l4 6 1 6zm-17 11 4-1a11 11 0 0 0 6-6l1-4-1-4-2-4-4-2-4-1-4 1a11 11 0 0 0-6 6l-1 4 1 4 2 4 4 2 4 1zm4 45h-5l40-74h6l-41 74zm40-35 6 1a17 17 0 0 1 10 16l-1 6-4 6c-1 2-3 2-5 3l-6 2-7-2c-2 0-4-2-5-3l-4-6-1-6 1-7 4-6 5-3 7-1zm0 6a10 10 0 0 0-8 3l-3 3v9l3 3c0 2 2 2 3 2l5 1 4-1 3-2 2-3 1-5-1-4a11 11 0 0 0-5-6h-4z" class="blackfriday1"/><circle cx="1447.2" cy="489.2" r="176" class="blackfriday2"/><path id="svg-concept" d="M1435 316a28 28 0 1 1-56 0 28 28 0 1 1 56 0zm-33 521a20 20 0 1 1-40 0 20 20 0 0 1 40 0z" class="blackfriday3"/><path d="M1424 631c0 5-5 10-10 10s-10-5-10-10 4-10 10-10c5 0 10 5 10 10z" class="blackfriday4"/><g><path d="M1690 296c0 5-4 9-10 9-5 0-9-4-9-9s4-10 9-10c6 0 10 4 10 10z" class="blackfriday4"/><animateMotion fill="remove" accumulate="none" additive="replace" begin="0s" calcMode="paced" dur="5s" path="M0, 30 0 0 0 30" repeatCount="indefinite" restart="always"/></g><g><path d="M1141 393a25 25 0 1 1-51 0 25 25 0 0 1 51 0z" class="blackfriday5"/><animateMotion fill="remove" accumulate="none" additive="replace" begin="0s" calcMode="paced" dur="7s" path="M0, 30 0 0 0 30" repeatCount="indefinite" restart="always"/></g><path d="M1525 673c0 2-2 4-4 4s-5-2-5-4 2-5 5-5 4 2 4 5zm-96 114c0 2-2 4-5 4s-4-2-4-4 2-5 4-5 5 2 5 5zm-390-348 2-4v-1l6-1v-1l-4-4v-1l1-5-1-1-5 3h-1l-5-3-1 1 1 5v1l-4 4v1l6 1v1l2 4h3zm468-168 2-4 4-1 1-1-3-3h-1l1-4-1-1-3 2h-1l-3-2-1 1 1 4h-1l-2 3v1l4 1h1l1 4h1zm-103 230 1-3h1l3-1 1-1-3-3 1-4-1-1-4 2-4-2-1 1 1 4-3 3v1l4 1h1l1 3h2zm-264 72 2-3 3-1v-1l-2-1v-4l-3 1-3-1s-1 0 0 0v4l-2 1v1l3 1 2 3zm292 141 1-3h3l1-1-2-2-1-1 1-2-1-1-2 1h-1l-2-1-1 1 1 2-1 1-2 2 1 1h3l1 3h1zm-114 36 1-2v-1h3l1-1-2-2h-1l1-3-1-1-2 2h-1l-2-2-1 1 1 3h-1l-2 2 1 1h2l1 1 1 2h1zm-181-260c-2 0-3-1-3-3s1-4 3-4 4 1 4 3c0 3-2 4-4 4zm189 169c-2 0-3-1-3-3s1-4 3-4 4 2 4 4-2 3-4 3zm50 131c-2 0-3-2-3-4s1-3 3-3 4 1 4 3-2 4-4 4zm-129-394c-2 0-3-1-3-3s1-4 3-4 4 2 4 4-2 3-4 3z" class="blackfriday1"/><path d="M1639 417c-2 0-4-2-4-4s2-3 4-3 4 1 4 3-2 4-4 4z" class="blackfriday6"/><path d="M1389 675c-2 0-4-1-4-3s2-4 4-4 4 2 4 4-2 3-4 3z" class="blackfriday1"/><path id="svg-ico" d="M1252 608c0 2-2 4-4 4s-5-2-5-4 2-5 5-5c2 0 4 2 4 5z" class="blackfriday7"/><g><path id="svg-ico" d="M1354 707c0 2-2 4-4 4s-5-2-5-4 2-5 5-5 4 2 4 5z" class="blackfriday7"/><animate fill="remove" accumulate="none" additive="replace" attributeName="opacity" calcMode="linear" dur="1s" repeatCount="indefinite" restart="always" values="0;1;0"/></g><g><path id="svg-ico" d="M1736 482c0 2-2 4-4 4s-5-2-5-4 3-5 5-5 4 2 4 5z" class="blackfriday7"/><animate fill="remove" accumulate="none" additive="replace" attributeName="opacity" calcMode="linear" dur="2s" repeatCount="indefinite" restart="always" values="0;1;0"/></g><g><path id="svg-ico" d="M1629 489c0 4-3 6-6 6s-6-2-6-6c0-3 3-6 6-6s6 3 6 6z" class="blackfriday7"/><animateTransform fill="remove" accumulate="none" additive="replace" attributeName="transform" calcMode="linear" dur="5s" from="0 1463 497" repeatCount="indefinite" restart="always" to="360 1433 495" type="rotate"/></g><g><path id="svg-ico" d="M1242 521c0 2-2 4-5 4-2 0-4-2-4-4s2-5 4-5c3 1 5 2 5 5z" class="blackfriday7"/><animate fill="remove" accumulate="none" additive="replace" attributeName="opacity" calcMode="linear" dur="1s" repeatCount="indefinite" restart="always" values="0;1;0"/></g><g><circle cx="1149.6" cy="621.6" r="17" class="blackfriday4"/><animate fill="remove" accumulate="none" additive="replace" attributeName="opacity" calcMode="linear" dur="3s" repeatCount="indefinite" restart="always" values="0;1;0"/></g><path d="M1230 439c22 0 40 5 52 16 13 10 20 25 20 44 0 22-7 38-20 50s-32 18-56 18c-10 0-20-1-29-3s-17-5-24-9v-15c11 5 20 9 28 11s16 3 25 3c19 0 33-5 44-14 11-10 17-23 17-40 0-15-5-27-16-36s-26-13-44-13c-12 0-25 1-39 5l-8-5 8-96h100v14h-87l-6 73 35-3zm302 21a93 93 0 1 1-93-93v-13a106 106 0 1 0 106 106h-13zm-323-237-1-2 1-2v-2l3-1v2l-1 1v3l2 4a9 9 0 0 0 5 5h4l3-1 3-2 2-1 2-1 1-3 1-2v-3a111 111 0 0 0-1-7l-2-3-1-4-1-3 2-4 2-3 4-2 3-2 3 1 1 1v3l-2-2h-2l-2 2-3 2-1 2-1 1 1 4 1 3 1 3 1 3v8l-3 6a18 18 0 0 1-12 7h-5l-4-3a14 14 0 0 1-4-8zm31 24v-3l1-2 1-5 1-4 2-5 1-4 1-3a31 31 0 0 1 4-7l3-4 3-3 3-3 3-1h3l2 3v5l-2 5a23 23 0 0 1-7 8l-5 3h-5l-1 1-4 20h-1l-1 1h-2v-2zm22-31 3-5v-3h-2l-3 1-3 3-3 3-1 2-1 2-1 2v2l6-2 5-5zm11 7-2-4 1-4a15 15 0 0 1 7-9l2-1h2l1 3-1 4-2 3-3 3-1 2 1 1h4a63 63 0 0 1 11-3v1l-3 2-4 2-5 1h-5l-3-1zm8-15-2 1a9 9 0 0 0-3 5v2l2-1 1-2 1-3 1-2z" class="blackfriday1"/><path d="m1303 200-3 2-2 4-2 5-1 5 1 2h6l3-2 3-1 3-1v2l-6 4-6 2h-2l-3-1-1-1-1-2v-5a21 21 0 0 1 3-9l4-4 2-2h3l1 2 1 1-1 2-1 1-1-4zm8 16v-1l1-2 1-2 1-4 2-4 1-2 1-1h2l1 1-2 4-2 3-1 4-1 4h4l1-1h2l1-1 1-1 1 1-1 2-2 2-3 1h-6l-1-1-1-2zm12-35 1-1h1l1 1v3l-1 1-1-1-1-1v-2zm2 33 1-6 3-5c0-2 2-3 3-4l4-3h4l3 2v2l-1 3-1 3v2l1 3h2l3-1 2-1h2l-2 2-2 2-2 1h-4l-2-1-1-1v-2l-2 2-2 2-2 2-2 1h-3l-2-3zm4-2v1h1l3-2 3-3 2-4v-4l-4 1-3 3-2 3v5z" class="blackfriday1"/><path d="M1349 209v-5l7-23v-1l2-2 1-2 1-1h1v3c0 1 1 0 0 0l-1 4-2 5-2 5-2 6-2 5v4l1 2 1 1h2l1 2h-1l-1 1-4-1c-1 0-2-1-2-3zm48-2-2-1-2-1v-5a258 258 0 0 1 6-27l4-7 4-3h3l3 1 2 2 2 2-1 11a42 42 0 0 1-10 21c-2 3-5 5-9 7zm9-38-2 2-2 6-2 7-2 8-2 7v4c1 0 3 0 4-2l5-3 3-5 2-4-1-1a20 20 0 0 1-4-9 18 18 0 0 1 1-10zm7-3-4 4-1 5 1 6 2 5c3-5 5-11 4-17v-2l-1-1h-1zm-2 57 6-3 4-5c2-2 2-4 2-6a44 44 0 0 0 2-9l1-4v-3l1-1v-1h-2l-2 1h-3v-2l2-1 1-1 2-1h2v-2l4-14 2-3 2-3 4-2 3-1 4 1 1 4v1l-1 2-1 1-1 1v-3l1-1v-2l-1-1-1-1-3 2-3 2-3 4-1 4-1 4-1 3 1 1 2-1 3-1 3-1 2-1v2l-2 1-3 2-3 2-3 1-1 1v5l-2 7-2 8a39 39 0 0 1-7 13l-5 2h-3v-1zm26-4 6-3 4-5 2-6a44 44 0 0 0 3-9v-4l1-3v-2h-2l-2 1h-3l1-2 1-1 1-1 2-1 2-1 1-1 3-14 2-3 3-3 3-2 3-1 4 1 1 3v2l-1 2-1 1-1 1v-3l1-2v-2l-2-1-3 2-3 2-2 4-2 4-1 4v4l2-1 3-1 3-2h3l-1 2-2 1-3 2-3 1-2 2-2 1v5l-1 7-3 8a39 39 0 0 1-7 13l-5 2h-3v-1zm37-27-1-4v-4l2-4 2-3 3-2 2-1h2l1 3c1 1 0 3-1 4l-2 3-3 3-1 2 1 1h4a63 63 0 0 1 11-3v1l-3 2-4 2-5 1h-5l-3-1zm8-14-2 1a9 9 0 0 0-3 4v2l2-1 1-2 2-2v-2z" class="blackfriday1"/><path d="M1505 186v-4l2-3 1-2v-5l-1-1h-1l-1 3-2 3-2 3-2 2-2 2-2 3-1 2-1 1-3-2 1-1h1l5-6 4-7 1-1v-2l1-3 1-2v-2h2l2 2a24 24 0 0 1 2 4l1 3-1 4-1 4-1 3 1 2 3 1 5-2 1 1-3 1-3 2h-5l-1-1-1-1v-1z" class="blackfriday1"/><path id="svg-concept" d="M712 157h-2s0 0 0 0l-1-4m20 4h-9m-19-26h7m30 18-28 5-1-1-3-19h35s0 0 0 0l-3 15s0 0 0 0m-23-10v7m6-7v7m5-7v7m6-7v7m-12 13a4 4 0 1 1-8 0 4 4 0 0 1 8 0m17 0a4 4 0 1 1-8 0 4 4 0 0 1 8 0M184 85v4m-15 6h29v22h-29V95zm15 0v22m-15-11h29m-22-17-2-3c1-3 3-5 5-5s5 2 5 5m0-1c0-4 2-6 5-6s6 2 6 6l-2 4m-27 0h35m372 190-4 1c-3-3-6-4-10-3l-1 1v1l3 6-3 3h-1l-3 3v6l3 2h3l1 2v7c0 1 1 2 3 2h3l2-2v-3c5 2 10 2 14 0v3c0 1 1 2 3 2h2c2 0 3-1 3-2v-7l4-8c0-5-4-10-10-12" class="blackfriday9"/><circle id="svg-concept" cx="579.4" cy="277.2" r="4.4" class="blackfriday9"/><path id="svg-concept" d="m299 479 1 2v23c1 1 0 2-1 2h-35l-2-2v-23l2-2" class="blackfriday9"/><path id="svg-concept" d="m299 479-18 13-17-13m35 0-18-13-17 13m12 10-13 16m24-16 13 16M93 388c-4 0-8 3-8 8" class="blackfriday9"/><path id="svg-concept" d="M76 391c-5 0-9 4-9 9s4 9 9 9h17c7 0 13-6 13-13s-6-13-13-13h0c-7 0-13 4-13 13" class="blackfriday9"/><circle id="svg-concept" cx="76" cy="376.5" r="1.6" class="blackfriday9"/><path id="svg-concept" d="m75 391-1-3c0-3 2-5 4-5s4 2 5 4" class="blackfriday9"/><circle id="svg-concept" cx="80.4" cy="376.5" r="1.6" class="blackfriday9"/><path id="svg-concept" d="m76 380 2 1 2-1" class="blackfriday9"/><path id="svg-concept" d="m87 384-3-7v-1c0-2-3-5-6-5s-5 3-5 5v1c0 3-8 12-7 13m521 198-1 1-2-1 2-2 1 2z" class="blackfriday9"/><circle id="svg-concept" cx="574.5" cy="601.6" r="1.6" class="blackfriday9"/><path id="svg-concept" d="m594 593-2 2h-35l-2-2v-11l2-2h35l2 2v11h0zm-7-22-1 1-2-1 2-2 1 2z" class="blackfriday9"/><path id="svg-concept" d="m594 576-2 2h-35l-2-2v-11l2-2h35l2 2v11h0zm-19 21v3m-13 2h11m3 0h12m200 173 2 2v23l-2 2h-35l-2-2v-23l2-2" class="blackfriday9"/><path id="svg-concept" d="m788 775-18 13-17-13m35 0-18-13-17 13m12 10-13 16m24-16 13 16M135 908l-3 2c-2 1 0 2 0 2l-2 2-2 1h-3v-2l2-1v-3m-5 4v5h-1l-1 5-2 1-3 1m1 6 2-1 2 2h0l2 3h1l2 1h1v1l-1 1v2l1 1 1 1 2 1 2 3m14-35-3 3 1 1v1h-2l-2 1-1 2-2 2-1 3-2 4v2l1 2 2-1 2 1v2l1 1v1l-1 2h-1l1 2 2 2 1-1 2-3 2-3 2-2 1-2-1-2-1-1 1-1 1-1 1 3 2-1h0l3-1" class="blackfriday9"/><path id="svg-concept" d="M135 908a19 19 0 1 1 0 38c-10 0-20-8-20-19s9-19 20-19zm382 126h-3v-4m20 4h-10m-18-26h7" class="blackfriday9"/><path id="svg-concept" d="m542 1027-28 4v-1l-3-19s0 0 0 0h34v1l-3 14v1m-23-11v7m6-7v7m6-7v7m5-7v7m-12 13a4 4 0 1 1-7 0 4 4 0 0 1 7 0m17 0a4 4 0 1 1-8 0 4 4 0 0 1 8 0m-192 82h-38v3l1 1h1v18l1 1h32l1-1v-18h2l1-1v-3h-1 0zm-26 0 5-16m4 0 6 16m-15 9v10m15-10v10m-27-901c0-9 4-10 10-10 4 0 7 1 9 4 2-3 5-4 9-4 6 0 11 2 11 10s-20 24-20 24-19-15-19-24z" class="blackfriday9"/></svg>