<svg xmlns="http://www.w3.org/2000/svg" xml:space="preserve" id="Layer_1" x="0" y="0" version="1.1" viewBox="0 0 920 464"><style>.vps0{stroke:gray}.vps0,.vps1,.vps2,.vps3,.vps4{fill:none;stroke-linecap:round;stroke-linejoin:round;stroke-miterlimit:10}.vps1{stroke:#ee5586}.vps2{stroke:gray}.vps3,.vps4{stroke:gray;stroke-width:3}.vps4{stroke:#ee5586}</style><path d="M310 202v85m-141 21v119m540-119v120M308 308v120m136-120v120m136-120v120" class="vps0"/><path id="svg-concept" d="m440 227-3 3-3-3c0-1 1-3 3-3 1 0 3 1 3 3z" class="vps1"/><path d="M440 218c0 2-2 3-3 3s-3-1-3-3 1-3 3-3 3 1 3 3z" class="vps2"/><path id="svg-concept" d="M807 262c0 11-10 21-21 21s-21-10-21-21a21 21 0 1 1 42 0z" class="vps1"/><path id="svg-concept" d="M793 262a8 8 0 1 1-15-1 8 8 0 0 1 15 1z" class="vps1"/><path d="M280 287v-70c0-8 7-16 16-16h60m321 1h187c8 0 16 7 16 15v92c0 8-8 15-16 15H761M541 202h89m-227 0h91" class="vps3"/><path d="M850 202v123" class="vps0"/><path d="M442 258H324c-2 0-3-1-3-3v-15c0-2 1-3 3-3h118c1 0 3 1 3 3v15c0 2-2 3-3 3zm-115-26h-4l-2-2v-4l2-2h4l2 2v4l-2 2zm0-11h-4l-2-2v-4l2-2h4l2 2v4l-2 2zm11 11h-4l-2-2v-4l2-2h4l2 2v4l-2 2zm0-11h-4l-2-2v-4l2-2h4l2 2v4l-2 2zm11 11h-4l-2-2v-4l2-2h4l2 2v4l-2 2zm0-11h-4l-2-2v-4l2-2h4l2 2v4l-2 2zm11 11h-4l-2-2v-4l2-2h4l2 2v4l-2 2zm0-11h-4l-2-2v-4l2-2h4l2 2v4l-2 2zm11 0h-4l-2-2v-4l2-2h4l2 2v4l-2 2zm11 11h-4l-2-2v-4l2-2h4l2 2v4l-2 2zm0-11h-4l-2-2v-4l2-2h4l2 2v4l-2 2zm11 11h-4c-2 0-2-1-2-2v-4c0-1 0-2 2-2h4l2 2v4l-2 2zm32-11h-36c-2 0-2-1-2-2v-4c0-1 0-2 2-2h36l2 2v4l-2 2zm-22 11h-4l-2-2v-4l2-2h4l2 2v4l-2 2zm11 0h-4l-2-2v-4l2-2h4l2 2v4l-2 2zm11 0h-4l-2-2v-4l2-2h4l2 2v4l-2 2zm15 46-3 3-3-3c0-1 1-3 3-3s3 1 3 3zm0-9c0 2-2 3-3 3s-3-1-3-3 1-3 3-3 3 1 3 3zm-113 14h-4l-2-2v-4l2-2h4l2 2v4l-2 2zm11-11h-15l-2-2v-4l2-2h15l2 2v4l-2 2zm0 11h-4l-2-2v-4l2-2h4l2 2v4l-2 2zm11 0h-4l-2-2v-4l2-2h4l2 2v4l-2 2zm0-11h-4l-2-2v-4l2-2h4l2 2v4l-2 2zm11 11h-4l-2-2v-4l2-2h4l2 2v4l-2 2zm0-11h-4l-2-2v-4l2-2h4l2 2v4l-2 2zm11 11h-4l-2-2v-4l2-2h4l2 2v4l-2 2zm0-11h-4l-2-2v-4l2-2h4l2 2v4l-2 2zm11 11h-4l-2-2v-4l2-2h4l2 2v4l-2 2zm0-11h-4l-2-2v-4l2-2h4l2 2v4l-2 2zm11 11h-4c-2 0-2-1-2-2v-4c0-1 0-2 2-2h4l2 2v4l-2 2zm10-11h-4l-2-2v-4l2-2h4l2 2v4l-2 2zm11 11h-4l-2-2v-4l2-2h4l2 2v4l-2 2zm0-11h-4l-2-2v-4l2-2h4l2 2v4l-2 2zm11 11h-4l-2-2v-4l2-2h4l2 2v4l-2 2zm0-11h-4l-2-2v-4l2-2h4l2 2v4l-2 2zm150-45-3 3-3-3c0-1 1-3 3-3 1 0 3 1 3 3zm0-9c0 2-2 3-3 3s-3-1-3-3 1-3 3-3 3 1 3 3zm2 40H459c-2 0-3-1-3-3v-15c0-2 1-3 3-3h118c1 0 3 1 3 3v15c0 2-2 3-3 3zm-115-26h-4l-2-2v-4l2-2h4l2 2v4l-2 2zm0-11h-4l-2-2v-4l2-2h4l2 2v4l-2 2zm11 11h-4l-2-2v-4l2-2h4l2 2v4l-2 2zm0-11h-4l-2-2v-4l2-2h4l2 2v4l-2 2zm44 11h-37l-2-2v-4l2-2h37l2 2v4l-2 2zm-33-11h-4l-2-2v-4l2-2h4l2 2v4l-2 2zm11 0h-4l-2-2v-4l2-2h4l2 2v4l-2 2zm11 0h-4l-2-2v-4l2-2h4l2 2v4l-2 2zm11 0h-4l-2-2v-4l2-2h4l2 2v4l-2 2zm11 11h-4c-2 0-2-1-2-2v-4c0-1 0-2 2-2h4l2 2v4l-2 2zm0-11h-4c-2 0-2-1-2-2v-4c0-1 0-2 2-2h4l2 2v4l-2 2zm11 11h-4c-2 0-2-1-2-2v-4c0-1 0-2 2-2h4l2 2v4l-2 2zm10 0h-4l-2-2v-4l2-2h4l2 2v4l-2 2zm0-11h-4l-2-2v-4l2-2h4l2 2v4l-2 2zm11 11h-4l-2-2v-4l2-2h4l2 2v4l-2 2zm0-11h-4l-2-2v-4l2-2h4l2 2v4l-2 2z" class="vps2"/><path id="svg-concept" d="m575 278-3 3-3-3c0-1 1-3 3-3s3 1 3 3z" class="vps1"/><path d="M575 269c0 2-2 3-3 3s-3-1-3-3 1-3 3-3 3 1 3 3zm-113 14h-4l-2-2v-4l2-2h4l2 2v4l-2 2zm0-11h-4l-2-2v-4l2-2h4l2 2v4l-2 2zm11 11h-4l-2-2v-4l2-2h4l2 2v4l-2 2zm11 0h-4l-2-2v-4l2-2h4l2 2v4l-2 2zm0-11h-4l-2-2v-4l2-2h4l2 2v4l-2 2zm11 11h-4l-2-2v-4l2-2h4l2 2v4l-2 2zm0-11h-4l-2-2v-4l2-2h4l2 2v4l-2 2zm11 11h-4l-2-2v-4l2-2h4l2 2v4l-2 2zm0-11h-4l-2-2v-4l2-2h4l2 2v4l-2 2zm11 11h-4l-2-2v-4l2-2h4l2 2v4l-2 2zm0-11h-4l-2-2v-4l2-2h4l2 2v4l-2 2zm43 11h-37l-1-2v-4c0-1 0-2 2-2h36l2 2v4l-2 2zm-32-11h-4c-2 0-2-1-2-2v-4c0-1 0-2 2-2h4l2 2v4l-2 2zm11 0h-4c-2 0-2-1-2-2v-4c0-1 0-2 2-2h4l2 2v4l-2 2zm10 0h-4l-2-2v-4l2-2h4l2 2v4l-2 2zm11 0h-4l-2-2v-4l2-2h4l2 2v4l-2 2z" class="vps2"/><path id="svg-concept" d="m710 227-3 3-3-3c0-1 1-3 3-3 1 0 3 1 3 3zm120 42c-2 0-3-1-3-3s1-3 3-3 3 1 3 3-2 3-3 3zm0 11c-2 0-3-1-3-3s1-3 3-3 3 2 3 3l-3 3z" class="vps1"/><path d="M710 218c0 2-2 3-3 3s-3-1-3-3 1-3 3-3 3 1 3 3zm2 40H594c-2 0-3-1-3-3v-15c0-2 1-3 3-3h118c1 0 3 1 3 3v15c0 2-2 3-3 3zm-115-26h-4l-2-2v-4l2-2h4l2 2v4l-2 2zm0-11h-4l-2-2v-4l2-2h4l2 2v4l-2 2zm11 11h-4l-2-2v-4l2-2h4l2 2v4l-2 2zm0-11h-4l-2-2v-4l2-2h4l2 2v4l-2 2zm11 11h-4l-2-2v-4l2-2h4l2 2v4l-2 2zm22-11h-26l-2-2v-4l2-2h26l2 2v4l-2 2zm-11 11h-4l-2-2v-4l2-2h4l2 2v4l-2 2zm11 0h-4l-2-2v-4l2-2h4l2 2v4l-2 2zm11 0h-4l-2-2v-4l2-2h4l2 2v4l-2 2zm0-11h-4l-2-2v-4l2-2h4l2 2v4l-2 2zm11 0h-4c-2 0-2-1-2-2v-4c0-1 0-2 2-2h4l2 2v4l-2 2zm11 11h-4c-2 0-2-1-2-2v-4c0-1 0-2 2-2h4l2 2v4l-2 2zm0-11h-4c-2 0-2-1-2-2v-4c0-1 0-2 2-2h4l2 2v4l-2 2zm10 11h-4l-2-2v-4l2-2h4l2 2v4l-2 2zm11 0h-4l-2-2v-4l2-2h4l2 2v4l-2 2zm0-11h-4l-2-2v-4l2-2h4l2 2v4l-2 2zm15 57-3 3-3-3c0-1 1-3 3-3s3 1 3 3zm0-9c0 2-2 3-3 3s-3-1-3-3 1-3 3-3 3 1 3 3zm-113 14h-4l-2-2v-4l2-2h4l2 2v4l-2 2zm11-11h-4l-2-2v-4l2-2h4l2 2v4l-2 2zm11 11h-4l-2-2v-4l2-2h4l2 2v4l-2 2zm0-11h-4l-2-2v-4l2-2h4l2 2v4l-2 2zm11 11h-4l-2-2v-4l2-2h4l2 2v4l-2 2zm0-11h-4l-2-2v-4l2-2h4l2 2v4l-2 2zm11 11h-4l-2-2v-4l2-2h4l2 2v4l-2 2zm32-11h-36l-2-2v-4l2-2h36l2 2v4l-2 2zm-21 11h-4l-2-2v-4l2-2h4l2 2v4l-2 2zm11 0h-4c-2 0-2-1-2-2v-4c0-1 0-2 2-2h4l2 2v4l-2 2zm11 0h-4c-2 0-2-1-2-2v-4c0-1 0-2 2-2h4l2 2v4l-2 2zm10 0h-4l-2-2v-4l2-2h4l2 2v4l-2 2zm0-11h-4l-2-2v-4l2-2h4l2 2v4l-2 2zm11 11h-4l-2-2v-4l2-2h4l2 2v4l-2 2zm-333-46v21m41-21v21m94-21v21m41-21v21m94-21v21m41-21v21m-252-3h-11l-2-2v-11l2-2h11l2 2v11l-2 2zm18 0h-11l-2-2v-11l2-2h11l2 2v11l-2 2zm116 0h-11l-2-2v-11l2-2h11l2 2v11l-2 2zm19 0h-11l-2-2v-11l2-2h11l2 2v11l-2 2z" class="vps2"/><path d="M691 255h-11l-2-2v-11l2-2h11l2 2v11l-2 2zm18 0h-11l-2-2v-11l2-2h11l2 2v11l-2 2z" class="vps2"/><path d="M449 202v85" class="vps0"/><path d="M295 222v29m569-29v29" class="vps2"/><path id="svg-concept" d="M807 262h-14m-15 0h-14" class="vps1"/><path d="M585 202v85m137-85v85" class="vps0"/><path id="svg-concept" d="m299 333-3 3-3-3c0-1 1-3 3-3s3 1 3 3z" class="vps1"/><path d="M299 324c0 2-2 3-3 3s-3-1-3-3 1-3 3-3 3 1 3 3z" class="vps0"/><path id="svg-concept" d="M665 368c0 11-9 21-21 21s-21-10-21-21a21 21 0 1 1 42 0z" class="vps1"/><path id="svg-concept" d="M652 368a8 8 0 1 1-16-1 8 8 0 0 1 16 1z" class="vps1"/><path id="svg-concept" d="M536 308h187c8 0 16 7 16 15v89c0 8-8 15-16 15H155c-9 0-16-7-16-15v-89c0-8 7-15 16-15h60m185 0h89m-227 0h91" class="vps4"/><path d="M300 415H183c-2 0-3-1-3-3v-15c0-2 1-3 3-3h117c2 0 3 1 3 3v15c0 2-1 3-3 3zm0-51H183c-2 0-3-1-3-3v-15c0-2 1-3 3-3h117c2 0 3 1 3 3v15c0 2-1 3-3 3zm-114-26h-4l-2-2v-4l2-2h4l2 2v4l-2 2zm0-11h-4l-2-2v-4l2-2h4l2 2v4l-2 2zm11 11h-4l-2-2v-4l2-2h4l2 2v4l-2 2zm0-11h-4l-2-2v-4l2-2h4l2 2v4l-2 2zm11 11h-4c-2 0-2-1-2-2v-4c0-1 0-2 2-2h4l2 2v4l-2 2zm0-11h-4c-2 0-2-1-2-2v-4c0-1 0-2 2-2h4l2 2v4l-2 2zm11 11h-4c-2 0-2-1-2-2v-4c0-1 0-2 2-2h4l2 2v4l-2 2zm0-11h-4c-2 0-2-1-2-2v-4c0-1 0-2 2-2h4l2 2v4l-2 2zm11 0h-4c-2 0-2-1-2-2v-4c0-1 0-2 2-2h4l2 2v4l-2 2zm10 11h-4l-2-2v-4l2-2h4c2 0 2 1 2 2v4c0 1 0 2-2 2zm0-11h-4l-2-2v-4l2-2h4c2 0 2 1 2 2v4c0 1 0 2-2 2zm11 11h-4l-2-2v-4l2-2h4l2 2v4l-2 2zm33-11h-37l-2-2v-4l2-2h37l2 2v4l-2 2zm-22 11h-4l-2-2v-4l2-2h4l2 2v4l-2 2zm11 0h-4l-2-2v-4l2-2h4l2 2v4l-2 2zm11 0h-4l-2-2v-4l2-2h4l2 2v4l-2 2zm15 46-3 3-3-3c0-1 1-3 3-3s3 1 3 3zm0-9c0 2-2 3-3 3s-3-1-3-3 1-3 3-3 3 1 3 3zm-113 14h-4l-2-2v-4l2-2h4l2 2v4l-2 2zm11-11h-15l-2-2v-4l2-2h15l2 2v4l-2 2zm0 11h-4l-2-2v-4l2-2h4l2 2v4l-2 2zm11 0h-4c-2 0-2-1-2-2v-4c0-1 0-2 2-2h4l2 2v4l-2 2zm0-11h-4c-2 0-2-1-2-2v-4c0-1 0-2 2-2h4l2 2v4l-2 2zm11 11h-4c-2 0-2-1-2-2v-4c0-1 0-2 2-2h4l2 2v4l-2 2zm0-11h-4c-2 0-2-1-2-2v-4c0-1 0-2 2-2h4l2 2v4l-2 2zm11 11h-4c-2 0-2-1-2-2v-4c0-1 0-2 2-2h4l2 2v4l-2 2zm0-11h-4c-2 0-2-1-2-2v-4c0-1 0-2 2-2h4l2 2v4l-2 2zm10 11h-4l-2-2v-4l2-2h4c2 0 2 1 2 2v4c0 1 0 2-2 2zm0-11h-4l-2-2v-4l2-2h4c2 0 2 1 2 2v4c0 1 0 2-2 2zm11 11h-4l-2-2v-4l2-2h4l2 2v4l-2 2zm11-11h-4l-2-2v-4l2-2h4l2 2v4l-2 2zm11 11h-4l-2-2v-4l2-2h4l2 2v4l-2 2zm0-11h-4l-2-2v-4l2-2h4l2 2v4l-2 2zm11 11h-4l-2-2v-4l2-2h4l2 2v4l-2 2zm0-11h-4l-2-2v-4l2-2h4l2 2v4l-2 2zm150-45-3 3-3-3c0-1 1-3 3-3 1 0 3 1 3 3zm0-9c0 2-2 3-3 3s-3-1-3-3 1-3 3-3c1 0 3 1 3 3zm2 91H318c-2 0-3-1-3-3v-15c0-2 1-3 3-3h118c1 0 3 1 3 3v15c0 2-2 3-3 3zm0-51H318c-2 0-3-1-3-3v-15c0-2 1-3 3-3h118c1 0 3 1 3 3v15c0 2-2 3-3 3zm-115-26h-4l-2-2v-4l2-2h4l2 2v4l-2 2zm0-11h-4l-2-2v-4l2-2h4l2 2v4l-2 2zm11 11h-4l-2-2v-4l2-2h4l2 2v4l-2 2zm0-11h-4l-2-2v-4l2-2h4l2 2v4l-2 2zm43 11h-36c-2 0-2-1-2-2v-4c0-1 0-2 2-2h36l2 2v4l-2 2zm-32-11h-4l-2-2v-4l2-2h4l2 2v4l-2 2zm11 0h-4l-2-2v-4l2-2h4l2 2v4l-2 2zm11 0h-4c-2 0-2-1-2-2v-4c0-1 0-2 2-2h4l2 2v4l-2 2zm10 0h-4l-2-2v-4l2-2h4l2 2v4l-2 2zm11 11h-4l-2-2v-4l2-2h4l2 2v4l-2 2zm0-11h-4l-2-2v-4l2-2h4l2 2v4l-2 2zm11 11h-4l-2-2v-4l2-2h4l2 2v4l-2 2zm11 0h-4l-2-2v-4l2-2h4l2 2v4l-2 2zm0-11h-4l-2-2v-4l2-2h4l2 2v4l-2 2zm11 11h-4l-2-2v-4l2-2h4l2 2v4l-2 2zm0-11h-4l-2-2v-4l2-2h4l2 2v4l-2 2z" class="vps0"/><path id="svg-concept" d="m434 384-3 3-3-3c0-1 1-3 3-3 1 0 3 1 3 3z" class="vps1"/><path d="M434 375c0 2-2 3-3 3s-3-1-3-3 1-3 3-3c1 0 3 1 3 3zm-113 14h-4l-2-2v-4l2-2h4l2 2v4l-2 2zm0-11h-4l-2-2v-4l2-2h4l2 2v4l-2 2zm11 11h-4l-2-2v-4l2-2h4l2 2v4l-2 2zm11 0h-4l-2-2v-4l2-2h4l2 2v4l-2 2zm0-11h-4l-2-2v-4l2-2h4l2 2v4l-2 2zm11 11h-4l-2-2v-4l2-2h4l2 2v4l-2 2zm0-11h-4l-2-2v-4l2-2h4l2 2v4l-2 2zm11 11h-4c-2 0-2-1-2-2v-4c0-1 0-2 2-2h4l2 2v4l-2 2zm0-11h-4c-2 0-2-1-2-2v-4c0-1 0-2 2-2h4l2 2v4l-2 2zm10 11h-4l-2-2v-4l2-2h4l2 2v4l-2 2zm0-11h-4l-2-2v-4l2-2h4l2 2v4l-2 2zm44 11h-37l-2-2v-4l2-2h37l2 2v4l-2 2zm-33-11h-4l-2-2v-4l2-2h4l2 2v4l-2 2zm11 0h-4l-2-2v-4l2-2h4l2 2v4l-2 2zm11 0h-4l-2-2v-4l2-2h4l2 2v4l-2 2zm11 0h-4l-2-2v-4l2-2h4l2 2v4l-2 2z" class="vps0"/><path id="svg-concept" d="m569 333-3 3-3-3c0-1 1-3 3-3 1 0 3 1 3 3zm120 42c-2 0-3-1-3-3s1-3 3-3 3 1 3 3-2 3-3 3zm0 11c-2 0-3-1-3-3s1-3 3-3 3 2 3 3c0 2-2 3-3 3z" class="vps1"/><path d="M695 406c0 3-3 6-6 6-4 0-7-3-7-6s3-7 7-7c3 0 6 3 6 7z" class="vps0"/><path d="M836 301c0 4-3 7-6 7-4 0-6-3-6-7s2-6 6-6c3 0 6 3 6 6z" class="vps2"/><path d="M569 324c0 2-2 3-3 3s-3-1-3-3 1-3 3-3c1 0 3 1 3 3zm2 91H453c-2 0-3-1-3-3v-15c0-2 1-3 3-3h118c1 0 3 1 3 3v15c0 2-2 3-3 3zm0-51H453c-2 0-3-1-3-3v-15c0-2 1-3 3-3h118c1 0 3 1 3 3v15c0 2-2 3-3 3zm-115-26h-4l-2-2v-4l2-2h4l2 2v4l-2 2zm0-11h-4l-2-2v-4l2-2h4l2 2v4l-2 2zm11 11h-4l-2-2v-4l2-2h4l2 2v4l-2 2zm0-11h-4l-2-2v-4l2-2h4l2 2v4l-2 2zm11 11h-4l-2-2v-4l2-2h4l2 2v4l-2 2zm22-11h-26l-2-2v-4l2-2h26l2 2v4l-2 2zm-11 11h-4l-2-2v-4l2-2h4l2 2v4l-2 2zm11 0h-4c-2 0-2-1-2-2v-4c0-1 0-2 2-2h4l2 2v4l-2 2zm10 0h-4l-2-2v-4l2-2h4l2 2v4l-2 2zm0-11h-4l-2-2v-4l2-2h4l2 2v4l-2 2zm11 0h-4l-2-2v-4l2-2h4l2 2v4l-2 2zm11 11h-4l-2-2v-4l2-2h4l2 2v4l-2 2zm0-11h-4l-2-2v-4l2-2h4l2 2v4l-2 2zm11 11h-4l-2-2v-4l2-2h4l2 2v4l-2 2zm11 0h-4l-2-2v-4l2-2h4l2 2v4l-2 2zm0-11h-4l-2-2v-4l2-2h4l2 2v4l-2 2zm15 57-3 3-3-3c0-1 1-3 3-3 1 0 3 1 3 3zm0-9c0 2-2 3-3 3s-3-1-3-3 1-3 3-3c1 0 3 1 3 3zm-113 14h-4l-2-2v-4l2-2h4l2 2v4l-2 2zm11-11h-4l-2-2v-4l2-2h4l2 2v4l-2 2zm11 11h-4l-2-2v-4l2-2h4l2 2v4l-2 2zm0-11h-4l-2-2v-4l2-2h4l2 2v4l-2 2zm11 11h-4l-2-2v-4l2-2h4l2 2v4l-2 2zm0-11h-4l-2-2v-4l2-2h4l2 2v4l-2 2zm11 11h-4c-2 0-2-1-2-2v-4c0-1 0-2 2-2h4l2 2v4l-2 2zm32-11h-37l-2-2v-4l2-2h37l2 2v4l-2 2zm-22 11h-4l-2-2v-4l2-2h4l2 2v4l-2 2zm11 0h-4l-2-2v-4l2-2h4l2 2v4l-2 2zm11 0h-4l-2-2v-4l2-2h4l2 2v4l-2 2zm11 0h-4l-2-2v-4l2-2h4l2 2v4l-2 2zm0-11h-4l-2-2v-4l2-2h4l2 2v4l-2 2zm11 11h-4l-2-2v-4l2-2h4l2 2v4l-2 2zm-333-46v21m41-21v21m94-21v21m41-21v21m94-21v21m41-21v21m-176 30v21m41-21v21m94-21v21m41-21v22m-311-22v21m41-21v21m18-54h-11c-2 0-2-1-2-2v-11c0-1 0-2 2-2h11l2 2v11l-2 2zm18 0h-11l-2-2v-11l2-2h11l2 2v11l-2 2zm-18 51h-11c-2 0-2-1-2-2v-11c0-1 0-2 2-2h11l2 2v11l-2 2z" class="vps0"/><path id="svg-concept" d="M298 412h-11l-2-2v-11l2-2h11l2 2v11l-2 2z" class="vps1"/><path d="M414 361h-11l-2-2v-11l2-2h11l2 2v11l-2 2zm19 0h-11l-2-2v-11l2-2h11l2 2v11l-2 2zm-19 51h-11l-2-2v-11l2-2h11l2 2v11l-2 2z" class="vps0"/><path id="svg-concept" d="M433 412h-11l-2-2v-11l2-2h11l2 2v11l-2 2z" class="vps1"/><path d="M550 361h-11l-2-2v-11l2-2h11l2 2v11l-2 2zm18 0h-11l-2-2v-11l2-2h11l2 2v11l-2 2zm-18 51h-11l-2-2v-11l2-2h11l2 2v11l-2 2z" class="vps0"/><path id="svg-concept" d="M568 412h-11l-2-2v-11l2-2h11l2 2v11l-2 2z" class="vps1"/><path d="M154 328v29m569-29v29" class="vps0"/><path id="svg-concept" d="M665 368h-13m-15 0h-14" class="vps1"/><path d="M411 169c-23-39-65-64-112-64h2c-69 0-134 46-134 132m-39-53a92 92 0 0 0-12 184" class="vps3"/><path d="M300 158c-40 0-76 32-80 71v8" class="vps0"/><path d="M407 88c37-36 88-58 143-58h-3c88 0 171 48 199 138" class="vps3"/><path d="M548 113c42 1 81 23 104 56" class="vps0"/></svg>