<svg xmlns="http://www.w3.org/2000/svg" xml:space="preserve" id="Layer_1" x="0" y="0" version="1.1" viewBox="0 0 409 420"><style>.cock0,.cock1{fill:none;stroke:gray;stroke-linecap:round;stroke-linejoin:round;stroke-miterlimit:10}.cock1{stroke:#ee5586;stroke-width:2}</style><circle cx="198.1" cy="236.6" r="34.9" class="cock0"/><circle cx="293" cy="236.6" r="34.9" class="cock0"/><path d="m221 235 2 7a17 17 0 1 1-33 0c0-7 3-12 9-15m94 0c6 2 10 8 10 15a17 17 0 1 1-33 0l1-8m-102-17 64 21m25 0 64-21" class="cock0"/><circle cx="207.4" cy="241.7" r="7.9" class="cock0"/><circle cx="286.2" cy="241.7" r="7.9" class="cock0"/><path d="M246 325c7-22 61-42 0-84h0c-61 42-5 63 0 85v-1z" class="cock0"/><path id="svg-concept" d="M220 288c-16 5-16 39-62 35 1 8 46 35 76-15m39-20c15 5 16 39 62 35-2 8-47 35-77-15" class="cock1"/><path id="svg-concept" d="M276 328c3 7 4 15 4 23 0 27-15 49-33 49s-33-22-33-49c0-8 1-16 4-23" class="cock1"/><path d="M177 265c-6 40-49 112-52 117-2 5 2 6 7 0 44-38 9 43 25 23 11-16 35-58 33-38-1 21-16 58-3 46 12-12 20-33 30-41m99-107c7 40 49 112 52 117s-1 6-6 0c-44-38-10 43-25 23-12-16-35-58-34-38 2 21 17 58 4 46s-21-33-30-41m-57-84c-9-4-17-9-23-16m99 0c-6 6-14 12-23 15m25-109c7 9 13 19 15 30" class="cock0"/><path id="svg-concept" fill="none" stroke="#ee5586" stroke-linecap="round" stroke-linejoin="round" stroke-miterlimit="10" stroke-width="3" d="M298 178a61 61 0 0 0-67-101h-2c-5-42-41-74-84-74a86 86 0 0 0-84 101v0a40 40 0 1 0 23 76h0c-19 9-30 27-30 49a55 55 0 0 0 109 8v0c0-13 6-23 16-30h0a69 69 0 0 1 118-29h1z"/></svg>