<svg xmlns="http://www.w3.org/2000/svg" xml:space="preserve" id="Layer_1" x="0" y="0" version="1.1" viewBox="0 0 650 650"><style>.st0,.st1,.st2{fill:none;stroke:#ee5586;stroke-width:3;stroke-linecap:round;stroke-linejoin:round;stroke-miterlimit:10}.st1,.st2{stroke:gray;stroke-width:2}.st2{stroke:#ee5586}</style><path id="svg-concept" d="M572.7 642.6H67.5a15 15 0 0 1-15-15V269.4a15 15 0 0 1 15-15h505.2a15 15 0 0 1 15 15v358.1a15 15 0 0 1-14.9 15.1h-.1zm17.5-437.9c0 7.8-6.3 14.2-14.2 14.2H69.1c-7.8 0-14.2-6.3-14.2-14.2v-184c0-7.8 6.3-14.2 14.2-14.2H576c7.8 0 14.2 6.3 14.2 14.2v184z" class="st0"/><path d="M173.3 35.2h347.9c4.8 0 8.6 4.3 8.6 9.5v46.9h0c0 5.3-3.8 9.5-8.6 9.5h-402c-4.8 0-8.6-4.3-8.6-9.5V44.7c0-5.3 3.8-9.5 8.6-9.5h54.1" class="st1"/><path d="M174.3 56.8h243.6c6.3 0 11.3 5.1 11.3 11.3v0c0 6.3-5.1 11.3-11.3 11.3H174.3c-6.3 0-11.3-5.1-11.3-11.3v0c-.1-6.2 5-11.3 11.3-11.3z" class="st1"/><circle id="svg-concept" cx="407.3" cy="68.2" r="4.3" class="st2"/><circle cx="390.5" cy="68.2" r="4.3" class="st1"/><path d="M174.3 144.8h243.6c6.3 0 11.3 5.1 11.3 11.3v0c0 6.3-5.1 11.3-11.3 11.3H174.3c-6.3 0-11.3-5.1-11.3-11.3v0c-.1-6.2 5-11.3 11.3-11.3z" class="st1"/><circle id="svg-concept" cx="407.3" cy="156.1" r="4.3" class="st2"/><circle cx="390.5" cy="156.1" r="4.3" class="st1"/><path d="M173.3 123.2h347.9c4.8 0 8.6 4.3 8.6 9.5v46.9h0c0 5.3-3.8 9.5-8.6 9.5h-402c-4.8 0-8.6-4.3-8.6-9.5v-46.9c0-5.3 3.8-9.5 8.6-9.5h54.1" class="st1"/><circle id="svg-concept" cx="482.2" cy="156.1" r="17" class="st0"/><path id="svg-concept" d="M488.6 156.1c0 3.5-2.8 6.3-6.3 6.3a6.3 6.3 0 0 1-6.3-6.3c0-3.6 2.8-6.3 6.3-6.3 3.4 0 6.3 2.8 6.3 6.3z" class="st2"/><circle id="svg-concept" cx="482.2" cy="68.1" r="17" class="st0"/><path id="svg-concept" d="M488.6 68.1c0 3.5-2.8 6.3-6.3 6.3a6.3 6.3 0 0 1-6.3-6.3c0-3.6 2.8-6.3 6.3-6.3 3.4 0 6.3 2.8 6.3 6.3z" class="st2"/><path d="M173.3 283h347.9c4.8 0 8.6 4.3 8.6 9.5v46.9h0c0 5.3-3.8 9.5-8.6 9.5h-402c-4.8 0-8.6-4.3-8.6-9.5v-46.9c0-5.3 3.8-9.5 8.6-9.5h54.1" class="st1"/><path d="M174.3 304.6h243.6c6.3 0 11.3 5.1 11.3 11.3v0c0 6.3-5.1 11.3-11.3 11.3H174.3c-6.3 0-11.3-5.1-11.3-11.3v0c-.1-6.2 5-11.3 11.3-11.3z" class="st1"/><circle id="svg-concept" cx="407.3" cy="316" r="4.3" class="st2"/><circle cx="390.5" cy="316" r="4.3" class="st1"/><path d="M174.3 392.6h243.6c6.3 0 11.3 5.1 11.3 11.3v0c0 6.3-5.1 11.3-11.3 11.3H174.3c-6.3 0-11.3-5.1-11.3-11.3v0c-.1-6.2 5-11.3 11.3-11.3z" class="st1"/><circle id="svg-concept" cx="407.3" cy="403.9" r="4.3" class="st2"/><circle cx="390.5" cy="403.9" r="4.3" class="st1"/><path d="M173.3 371h347.9c4.8 0 8.6 4.3 8.6 9.5v46.9h0c0 5.3-3.8 9.5-8.6 9.5h-402c-4.8 0-8.6-4.3-8.6-9.5v-46.9c0-5.3 3.8-9.5 8.6-9.5h54.1" class="st1"/><circle id="svg-concept" cx="482.2" cy="403.9" r="17" class="st0"/><path id="svg-concept" d="M488.6 403.9c0 3.5-2.8 6.3-6.3 6.3a6.3 6.3 0 0 1-6.3-6.3c0-3.6 2.8-6.3 6.3-6.3 3.4 0 6.3 2.8 6.3 6.3z" class="st2"/><circle id="svg-concept" cx="482.2" cy="315.9" r="17" class="st0"/><path id="svg-concept" d="M488.6 315.9c0 3.5-2.8 6.3-6.3 6.3a6.3 6.3 0 0 1-6.3-6.3c0-3.6 2.8-6.3 6.3-6.3 3.4 0 6.3 2.8 6.3 6.3z" class="st2"/><path d="M173.3 460.8h347.9c4.8 0 8.6 4.3 8.6 9.5v46.9h0c0 5.3-3.8 9.5-8.6 9.5h-402c-4.8 0-8.6-4.3-8.6-9.5v-46.9c0-5.3 3.8-9.5 8.6-9.5h54.1" class="st1"/><path d="M174.3 482.4h243.6c6.3 0 11.3 5.1 11.3 11.3v0c0 6.3-5.1 11.3-11.3 11.3H174.3c-6.3 0-11.3-5.1-11.3-11.3v0c-.1-6.2 5-11.3 11.3-11.3z" class="st1"/><circle id="svg-concept" cx="407.3" cy="493.8" r="4.3" class="st2"/><circle cx="390.5" cy="493.8" r="4.3" class="st1"/><path d="M174.3 570.4h243.6c6.3 0 11.3 5.1 11.3 11.3h0c0 6.3-5.1 11.3-11.3 11.3H174.3c-6.3 0-11.3-5.1-11.3-11.3h0c-.1-6.2 5-11.3 11.3-11.3z" class="st1"/><circle id="svg-concept" cx="407.3" cy="581.7" r="4.3" class="st2"/><circle cx="390.5" cy="581.7" r="4.3" class="st1"/><path d="M173.3 548.8h347.9c4.8 0 8.6 4.3 8.6 9.5v46.9h0c0 5.3-3.8 9.5-8.6 9.5h-402c-4.8 0-8.6-4.3-8.6-9.5v-46.9c0-5.3 3.8-9.5 8.6-9.5h54.1" class="st1"/><circle id="svg-concept" cx="482.2" cy="581.7" r="17" class="st0"/><path id="svg-concept" d="M488.6 581.7c0 3.5-2.8 6.3-6.3 6.3a6.3 6.3 0 0 1-6.3-6.3c0-3.6 2.8-6.3 6.3-6.3 3.4 0 6.3 2.8 6.3 6.3z" class="st2"/><circle id="svg-concept" cx="482.2" cy="493.7" r="17" class="st0"/><path id="svg-concept" d="M488.6 493.7c0 3.5-2.8 6.3-6.3 6.3a6.3 6.3 0 0 1-6.3-6.3c0-3.6 2.8-6.3 6.3-6.3 3.4 0 6.3 2.8 6.3 6.3z" class="st2"/></svg>