<svg xmlns="http://www.w3.org/2000/svg" xml:space="preserve" id="Layer_1" x="0" y="0" version="1.1" viewBox="0 0 650 650"><style>.colocation0{stroke-width:2}.colocation0,.colocation1,.colocation2,.colocation3{fill:none;stroke:gray;stroke-linecap:round;stroke-linejoin:round;stroke-miterlimit:10}.colocation2,.colocation3{stroke:#ee5586;stroke-width:3}.colocation3{stroke-width:2}</style><path d="M173.3 543.4h347.9c4.8 0 8.6 4.3 8.6 9.5v46.9h0c0 5.3-3.8 9.5-8.6 9.5h-402c-4.8 0-8.6-4.3-8.6-9.5v-46.9c0-5.3 3.8-9.5 8.6-9.5h54.1" class="colocation0"/><path d="M148.3 543.4V609M487 543.4v66m-266.6-11.8h-49.3c-3.7 0-6.6-3-6.6-6.6v-.7c0-3.7 3-6.6 6.6-6.6h49.3c3.7 0 6.6 3 6.6 6.6v.7c0 3.6-2.9 6.6-6.6 6.6zm-48.7-26.8h-.2c-1.2 0-2-.8-2-2v-.2c0-1.2.8-2 2-2h.2c1.2 0 2 .8 2 2v.2c0 1.2-.8 2-2 2zm8.5 0h-.2c-1.2 0-2-.8-2-2v-.2c0-1.2.8-2 2-2h.2c1.2 0 2 .8 2 2v.2c.2 1.2-.8 2-2 2zm12.1 0h-.2c-1.2 0-2-.8-2-2v-.2c0-1.2.8-2 2-2h.2c1.2 0 2 .8 2 2v.2c0 1.2-.8 2-2 2zm-20.6-9.3h-.2c-1.2 0-2-.8-2-2v-.2c0-1.2.8-2 2-2h.2c1.2 0 2 .8 2 2v.2c0 1.2-.8 2-2 2zm8.5 0h-.2c-1.2 0-2-.8-2-2v-.2c0-1.2.8-2 2-2h.2c1.2 0 2 .8 2 2v.2c.2 1.2-.8 2-2 2zm44.7 0h-.2c-1.2 0-2-.8-2-2v-.2c0-1.2.8-2 2-2h.2c1.2 0 2 .8 2 2v.2c0 1.2-1 2-2 2zm-23.9 9.3h-.2c-1.2 0-2-.8-2-2v-.2c0-1.2.8-2 2-2h.2c1.2 0 2 .8 2 2v.2a2 2 0 0 1-2 2zm8.4 0h-.2c-1.2 0-2-.8-2-2v-.2c0-1.2.8-2 2-2h.2c1.2 0 2 .8 2 2v.2c0 1.2-1 2-2 2z" class="colocation1"/><path d="M209.4 570.8h-.2c-1.2 0-2-.8-2-2v-.2c0-1.2.8-2 2-2h.2c1.2 0 2 .8 2 2v.2c.2 1.2-.8 2-2 2zm0-9.3h-16.6c-1.2 0-2-.8-2-2v-.2c0-1.2.8-2 2-2h16.6c1.2 0 2 .8 2 2v.2c.2 1.2-.8 2-2 2zm-23.1 22.1v14m22.1-4h-.3a2.9 2.9 0 0 1-2.8-2.8v-.3c0-1.5 1.3-2.8 2.8-2.8h.3c1.5 0 2.8 1.3 2.8 2.8v.3c-.1 1.5-1.3 2.8-2.8 2.8zm100.3 4h-49.3c-3.7 0-6.6-3-6.6-6.6v-.7c0-3.7 3-6.6 6.6-6.6h49.3c3.7 0 6.6 3 6.6 6.6v.7c0 3.6-3 6.6-6.6 6.6zM260 570.8h-.3c-1.2 0-2-.8-2-2v-.2c0-1.2.8-2 2-2h.2c1.2 0 2 .8 2 2v.2c.1 1.2-.9 2-1.9 2zm8.5 0h0c-1.3 0-2.2-.8-2.2-2v-.2c0-1.2.8-2 2-2h.2c1.2 0 2 .8 2 2v.2a2 2 0 0 1-2 2zm11.9 0h0c-1.3 0-2.2-.8-2.2-2v-.2c0-1.2.8-2 2-2h.2c1.2 0 2 .8 2 2v.2c.2 1.2-.6 2-2 2zm-20.4-9.3h-.3c-1.2 0-2-.8-2-2v-.2c0-1.2.8-2 2-2h.2c1.2 0 2 .8 2 2v.2c.1 1.2-.9 2-1.9 2zm8.5 0h0c-1.3 0-2.2-.8-2.2-2v-.2c0-1.2.8-2 2-2h.2c1.2 0 2 .8 2 2v.2a2 2 0 0 1-2 2zm44.7 0h-.3c-1.2 0-2-.8-2-2v-.2c0-1.2.8-2 2-2h.2c1.2 0 2 .8 2 2v.2c-.1 1.2-.9 2-1.9 2zm-24 9.3h0c-1.3 0-2.2-.8-2.2-2v-.2c0-1.2.8-2 2-2h.2c1.2 0 2 .8 2 2v.2c0 1.2-1 2-2 2zm8.5 0h0c-1.3 0-2.2-.8-2.2-2v-.2c0-1.2.8-2 2-2h.2c1.2 0 2 .8 2 2v.2c0 1.2-1 2-2 2z" class="colocation1"/><path d="M297.7 570.8h0c-1.3 0-2.2-.8-2.2-2v-.2c0-1.2.8-2 2-2h.2c1.2 0 2 .8 2 2v.2c.2 1.2-.8 2-2 2zm0-9.3h-16.6c-1.2 0-2-.8-2-2v-.2c0-1.2.8-2 2-2h16.6c1.2 0 2 .8 2 2v.2c.2 1.2-.8 2-2 2zm-23.1 22.1v14m22.1-4h-.3a2.9 2.9 0 0 1-2.8-2.8v-.3c0-1.5 1.3-2.8 2.8-2.8h.3c1.5 0 2.8 1.3 2.8 2.8v.3c-.1 1.5-1.3 2.8-2.8 2.8zm100.1 4h-49.3c-3.7 0-6.6-3-6.6-6.6v-.7c0-3.7 3-6.6 6.6-6.6h49.3c3.7 0 6.6 3 6.6 6.6v.7c0 3.6-2.8 6.6-6.6 6.6zm-48.5-26.8h0c-1.3 0-2.2-.8-2.2-2v-.2c0-1.2.8-2 2-2h.2c1.2 0 2 .8 2 2v.2c0 1.2-1 2-2 2zm8.4 0h0c-1.3 0-2.2-.8-2.2-2v-.2c0-1.2.8-2 2-2h.2c1.2 0 2 .8 2 2v.2c.2 1.2-.8 2-2 2zm12.2 0h0c-1.3 0-2.2-.8-2.2-2v-.2c0-1.2.8-2 2-2h.2c1.2 0 2 .8 2 2v.2a2 2 0 0 1-2 2zm-20.6-9.3h0c-1.3 0-2.2-.8-2.2-2v-.2c0-1.2.8-2 2-2h.2c1.2 0 2 .8 2 2v.2c0 1.2-1 2-2 2zm8.4 0h0c-1.3 0-2.2-.8-2.2-2v-.2c0-1.2.8-2 2-2h.2c1.2 0 2 .8 2 2v.2c.2 1.2-.8 2-2 2zm44.7 0h0c-1.3 0-2.2-.8-2.2-2v-.2c0-1.2.8-2 2-2h.2c1.2 0 2 .8 2 2v.2c0 1.2-1 2-2 2zm-23.9 9.3h0c-1.3 0-2.2-.8-2.2-2v-.2c0-1.2.8-2 2-2h.2c1.2 0 2 .8 2 2v.2c0 1.2-1 2-2 2zm8.5 0h0c-1.3 0-2.2-.8-2.2-2v-.2c0-1.2.8-2 2-2h.2c1.2 0 2 .8 2 2v.2c0 1.2-1 2-2 2z" class="colocation1"/><path d="M386 570.8h0c-1.3 0-2.2-.8-2.2-2v-.2c0-1.2.8-2 2-2h.2c1.2 0 2 .8 2 2v.2c.1 1.2-.9 2-2 2zm0-9.3h-16.6c-1.2 0-2-.8-2-2v-.2c0-1.2.8-2 2-2H386c1.2 0 2 .8 2 2v.2c.1 1.2-.9 2-2 2zm-23.3 22.1v14m22.3-4h-.3a2.9 2.9 0 0 1-2.8-2.8v-.3c0-1.5 1.3-2.8 2.8-2.8h.3c1.5 0 2.8 1.3 2.8 2.8v.3c-.2 1.5-1.3 2.8-2.8 2.8zm-145-50.2v66M120.6 561v28.9M519.8 561v28.9m-191-46.5v66m89.6-66v66" class="colocation1"/><path d="M173.3 458.1h347.9c4.8 0 8.6 4.3 8.6 9.5v46.9h0c0 5.3-3.8 9.5-8.6 9.5h-402c-4.8 0-8.6-4.3-8.6-9.5v-46.9c0-5.3 3.8-9.5 8.6-9.5h54.1" class="colocation0"/><path d="M148.3 458.1v65.7M487 458.1v66m-266.6-11.8h-49.3c-3.7 0-6.6-3-6.6-6.6v-.7c0-3.7 3-6.6 6.6-6.6h49.3c3.7 0 6.6 3 6.6 6.6v.7c0 3.6-2.9 6.6-6.6 6.6zm-48.7-26.7h-.2c-1.2 0-2-.8-2-2v-.2c0-1.2.8-2 2-2h.2c1.2 0 2 .8 2 2v.2a2 2 0 0 1-2 2zm8.5 0h-.2c-1.2 0-2-.8-2-2v-.2c0-1.2.8-2 2-2h.2c1.2 0 2 .8 2 2v.2c.2 1.1-.8 2-2 2zm12.1 0h-.2c-1.2 0-2-.8-2-2v-.2c0-1.2.8-2 2-2h.2c1.2 0 2 .8 2 2v.2a2 2 0 0 1-2 2zm-20.6-9.3h-.2c-1.2 0-2-.8-2-2v-.2c0-1.2.8-2 2-2h.2c1.2 0 2 .8 2 2v.2a2 2 0 0 1-2 2zm8.5 0h-.2c-1.2 0-2-.8-2-2v-.2c0-1.2.8-2 2-2h.2c1.2 0 2 .8 2 2v.2c.2 1.1-.8 2-2 2zm44.7 0h-.2c-1.2 0-2-.8-2-2v-.2c0-1.2.8-2 2-2h.2c1.2 0 2 .8 2 2v.2c0 1.1-1 2-2 2zm-23.9 9.3h-.2c-1.2 0-2-.8-2-2v-.2c0-1.2.8-2 2-2h.2c1.2 0 2 .8 2 2v.2a2 2 0 0 1-2 2zm8.4 0h-.2c-1.2 0-2-.8-2-2v-.2c0-1.2.8-2 2-2h.2c1.2 0 2 .8 2 2v.2c0 1.1-1 2-2 2z" class="colocation1"/><path d="M209.4 485.6h-.2c-1.2 0-2-.8-2-2v-.2c0-1.2.8-2 2-2h.2c1.2 0 2 .8 2 2v.2c.2 1.1-.8 2-2 2zm0-9.3h-16.6c-1.2 0-2-.8-2-2v-.2c0-1.2.8-2 2-2h16.6c1.2 0 2 .8 2 2v.2c.2 1.1-.8 2-2 2zm-23.1 22.1v13.9m22.1-4h-.3a2.9 2.9 0 0 1-2.8-2.8v-.3c0-1.5 1.3-2.8 2.8-2.8h.3c1.5 0 2.8 1.3 2.8 2.8v.3c-.1 1.5-1.3 2.8-2.8 2.8zm100.3 4h-49.3c-3.7 0-6.6-3-6.6-6.6v-.7c0-3.7 3-6.6 6.6-6.6h49.3c3.7 0 6.6 3 6.6 6.6v.7c0 3.6-3 6.6-6.6 6.6zM260 485.6h-.3c-1.2 0-2-.8-2-2v-.2c0-1.2.8-2 2-2h.2c1.2 0 2 .8 2 2v.2c.1 1.1-.9 2-1.9 2zm8.5 0h0c-1.3 0-2.2-.8-2.2-2v-.2c0-1.2.8-2 2-2h.2c1.2 0 2 .8 2 2v.2a2 2 0 0 1-2 2zm11.9 0h0c-1.3 0-2.2-.8-2.2-2v-.2c0-1.2.8-2 2-2h.2c1.2 0 2 .8 2 2v.2c.2 1.1-.6 2-2 2zm-20.4-9.3h-.3c-1.2 0-2-.8-2-2v-.2c0-1.2.8-2 2-2h.2c1.2 0 2 .8 2 2v.2c.1 1.1-.9 2-1.9 2zm8.5 0h0c-1.3 0-2.2-.8-2.2-2v-.2c0-1.2.8-2 2-2h.2c1.2 0 2 .8 2 2v.2a2 2 0 0 1-2 2zm44.7 0h-.3c-1.2 0-2-.8-2-2v-.2c0-1.2.8-2 2-2h.2c1.2 0 2 .8 2 2v.2c-.1 1.1-.9 2-1.9 2zm-24 9.3h0c-1.3 0-2.2-.8-2.2-2v-.2c0-1.2.8-2 2-2h.2c1.2 0 2 .8 2 2v.2c0 1.1-1 2-2 2zm8.5 0h0c-1.3 0-2.2-.8-2.2-2v-.2c0-1.2.8-2 2-2h.2c1.2 0 2 .8 2 2v.2c0 1.1-1 2-2 2z" class="colocation1"/><path d="M297.7 485.6h0c-1.3 0-2.2-.8-2.2-2v-.2c0-1.2.8-2 2-2h.2c1.2 0 2 .8 2 2v.2c.2 1.1-.8 2-2 2zm0-9.3h-16.6c-1.2 0-2-.8-2-2v-.2c0-1.2.8-2 2-2h16.6c1.2 0 2 .8 2 2v.2c.2 1.1-.8 2-2 2zm-23.1 22.1v13.9m22.1-4h-.3a2.9 2.9 0 0 1-2.8-2.8v-.3c0-1.5 1.3-2.8 2.8-2.8h.3c1.5 0 2.8 1.3 2.8 2.8v.3c-.1 1.5-1.3 2.8-2.8 2.8zm100.1 4h-49.3c-3.7 0-6.6-3-6.6-6.6v-.7c0-3.7 3-6.6 6.6-6.6h49.3c3.7 0 6.6 3 6.6 6.6v.7c0 3.6-2.8 6.6-6.6 6.6zm-48.5-26.7h0c-1.3 0-2.2-.8-2.2-2v-.2c0-1.2.8-2 2-2h.2c1.2 0 2 .8 2 2v.2c0 1.1-1 2-2 2zm8.4 0h0c-1.3 0-2.2-.8-2.2-2v-.2c0-1.2.8-2 2-2h.2c1.2 0 2 .8 2 2v.2c.2 1.1-.8 2-2 2zm12.2 0h0c-1.3 0-2.2-.8-2.2-2v-.2c0-1.2.8-2 2-2h.2c1.2 0 2 .8 2 2v.2a2 2 0 0 1-2 2zm-20.6-9.3h0c-1.3 0-2.2-.8-2.2-2v-.2c0-1.2.8-2 2-2h.2c1.2 0 2 .8 2 2v.2c0 1.1-1 2-2 2zm8.4 0h0c-1.3 0-2.2-.8-2.2-2v-.2c0-1.2.8-2 2-2h.2c1.2 0 2 .8 2 2v.2c.2 1.1-.8 2-2 2zm44.7 0h0c-1.3 0-2.2-.8-2.2-2v-.2c0-1.2.8-2 2-2h.2c1.2 0 2 .8 2 2v.2c0 1.1-1 2-2 2zm-23.9 9.3h0c-1.3 0-2.2-.8-2.2-2v-.2c0-1.2.8-2 2-2h.2c1.2 0 2 .8 2 2v.2c0 1.1-1 2-2 2zm8.5 0h0c-1.3 0-2.2-.8-2.2-2v-.2c0-1.2.8-2 2-2h.2c1.2 0 2 .8 2 2v.2c0 1.1-1 2-2 2z" class="colocation1"/><path d="M386 485.6h0c-1.3 0-2.2-.8-2.2-2v-.2c0-1.2.8-2 2-2h.2c1.2 0 2 .8 2 2v.2c.1 1.1-.9 2-2 2zm0-9.3h-16.6c-1.2 0-2-.8-2-2v-.2c0-1.2.8-2 2-2H386c1.2 0 2 .8 2 2v.2c.1 1.1-.9 2-2 2zm-23.3 22.1v13.9m22.3-4h-.3a2.9 2.9 0 0 1-2.8-2.8v-.3c0-1.5 1.3-2.8 2.8-2.8h.3c1.5 0 2.8 1.3 2.8 2.8v.3c-.2 1.5-1.3 2.8-2.8 2.8zm-145-50.2v66m-119.4-48.3v28.9m399.2-28.9v28.9m-191-46.6v66m89.6-66v66" class="colocation1"/><path d="M173.3 372.9h347.9c4.8 0 8.6 4.3 8.6 9.5v46.9h0c0 5.3-3.8 9.5-8.6 9.5h-402c-4.8 0-8.6-4.3-8.6-9.5v-46.9c0-5.3 3.8-9.5 8.6-9.5h54.1" class="colocation0"/><path d="M148.3 372.9v65.6M487 372.9v65.9M220.4 427h-49.3c-3.7 0-6.6-3-6.6-6.6v-.7c0-3.7 3-6.6 6.6-6.6h49.3c3.7 0 6.6 3 6.6 6.6v.7c0 3.6-2.9 6.6-6.6 6.6zm-48.7-26.7h-.2c-1.2 0-2-.8-2-2v-.2c0-1.2.8-2 2-2h.2c1.2 0 2 .8 2 2v.2c0 1.2-.8 2-2 2zm8.5 0h-.2c-1.2 0-2-.8-2-2v-.2c0-1.2.8-2 2-2h.2c1.2 0 2 .8 2 2v.2c.2 1.2-.8 2-2 2zm12.1 0h-.2c-1.2 0-2-.8-2-2v-.2c0-1.2.8-2 2-2h.2c1.2 0 2 .8 2 2v.2c0 1.2-.8 2-2 2zm-20.6-9.3h-.2c-1.2 0-2-.8-2-2v-.2c0-1.2.8-2 2-2h.2c1.2 0 2 .8 2 2v.2c0 1.2-.8 2-2 2zm8.5 0h-.2c-1.2 0-2-.8-2-2v-.2c0-1.2.8-2 2-2h.2c1.2 0 2 .8 2 2v.2c.2 1.2-.8 2-2 2zm44.7 0h-.2c-1.2 0-2-.8-2-2v-.2c0-1.2.8-2 2-2h.2c1.2 0 2 .8 2 2v.2c0 1.2-1 2-2 2zm-23.9 9.3h-.2c-1.2 0-2-.8-2-2v-.2c0-1.2.8-2 2-2h.2c1.2 0 2 .8 2 2v.2a2 2 0 0 1-2 2zm8.4 0h-.2c-1.2 0-2-.8-2-2v-.2c0-1.2.8-2 2-2h.2c1.2 0 2 .8 2 2v.2c0 1.2-1 2-2 2z" class="colocation1"/><path d="M209.4 400.3h-.2c-1.2 0-2-.8-2-2v-.2c0-1.2.8-2 2-2h.2c1.2 0 2 .8 2 2v.2c.2 1.2-.8 2-2 2zm0-9.3h-16.6c-1.2 0-2-.8-2-2v-.2c0-1.2.8-2 2-2h16.6c1.2 0 2 .8 2 2v.2c.2 1.2-.8 2-2 2zm-23.1 22.1V427m22.1-4h-.3a2.9 2.9 0 0 1-2.8-2.8v-.3c0-1.5 1.3-2.8 2.8-2.8h.3c1.5 0 2.8 1.3 2.8 2.8v.3c-.1 1.5-1.3 2.8-2.8 2.8zm100.3 4h-49.3c-3.7 0-6.6-3-6.6-6.6v-.7c0-3.7 3-6.6 6.6-6.6h49.3c3.7 0 6.6 3 6.6 6.6v.7c0 3.6-3 6.6-6.6 6.6zM260 400.3h-.3c-1.2 0-2-.8-2-2v-.2c0-1.2.8-2 2-2h.2c1.2 0 2 .8 2 2v.2c.1 1.2-.9 2-1.9 2zm8.5 0h0c-1.3 0-2.2-.8-2.2-2v-.2c0-1.2.8-2 2-2h.2c1.2 0 2 .8 2 2v.2a2 2 0 0 1-2 2zm11.9 0h0c-1.3 0-2.2-.8-2.2-2v-.2c0-1.2.8-2 2-2h.2c1.2 0 2 .8 2 2v.2c.2 1.2-.6 2-2 2zM260 391h-.3c-1.2 0-2-.8-2-2v-.2c0-1.2.8-2 2-2h.2c1.2 0 2 .8 2 2v.2c.1 1.2-.9 2-1.9 2zm8.5 0h0c-1.3 0-2.2-.8-2.2-2v-.2c0-1.2.8-2 2-2h.2c1.2 0 2 .8 2 2v.2a2 2 0 0 1-2 2zm44.7 0h-.3c-1.2 0-2-.8-2-2v-.2c0-1.2.8-2 2-2h.2c1.2 0 2 .8 2 2v.2c-.1 1.2-.9 2-1.9 2zm-24 9.3h0c-1.3 0-2.2-.8-2.2-2v-.2c0-1.2.8-2 2-2h.2c1.2 0 2 .8 2 2v.2c0 1.2-1 2-2 2zm8.5 0h0c-1.3 0-2.2-.8-2.2-2v-.2c0-1.2.8-2 2-2h.2c1.2 0 2 .8 2 2v.2c0 1.2-1 2-2 2z" class="colocation1"/><path d="M297.7 400.3h0c-1.3 0-2.2-.8-2.2-2v-.2c0-1.2.8-2 2-2h.2c1.2 0 2 .8 2 2v.2c.2 1.2-.8 2-2 2zm0-9.3h-16.6c-1.2 0-2-.8-2-2v-.2c0-1.2.8-2 2-2h16.6c1.2 0 2 .8 2 2v.2c.2 1.2-.8 2-2 2zm-23.1 22.1V427m22.1-4h-.3a2.9 2.9 0 0 1-2.8-2.8v-.3c0-1.5 1.3-2.8 2.8-2.8h.3c1.5 0 2.8 1.3 2.8 2.8v.3c-.1 1.5-1.3 2.8-2.8 2.8zm100.1 4h-49.3c-3.7 0-6.6-3-6.6-6.6v-.7c0-3.7 3-6.6 6.6-6.6h49.3c3.7 0 6.6 3 6.6 6.6v.7c0 3.6-2.8 6.6-6.6 6.6zm-48.5-26.7h0c-1.3 0-2.2-.8-2.2-2v-.2c0-1.2.8-2 2-2h.2c1.2 0 2 .8 2 2v.2c0 1.2-1 2-2 2zm8.4 0h0c-1.3 0-2.2-.8-2.2-2v-.2c0-1.2.8-2 2-2h.2c1.2 0 2 .8 2 2v.2c.2 1.2-.8 2-2 2zm12.2 0h0c-1.3 0-2.2-.8-2.2-2v-.2c0-1.2.8-2 2-2h.2c1.2 0 2 .8 2 2v.2a2 2 0 0 1-2 2zm-20.6-9.3h0c-1.3 0-2.2-.8-2.2-2v-.2c0-1.2.8-2 2-2h.2c1.2 0 2 .8 2 2v.2c0 1.2-1 2-2 2zm8.4 0h0c-1.3 0-2.2-.8-2.2-2v-.2c0-1.2.8-2 2-2h.2c1.2 0 2 .8 2 2v.2c.2 1.2-.8 2-2 2zm44.7 0h0c-1.3 0-2.2-.8-2.2-2v-.2c0-1.2.8-2 2-2h.2c1.2 0 2 .8 2 2v.2c0 1.2-1 2-2 2zm-23.9 9.3h0c-1.3 0-2.2-.8-2.2-2v-.2c0-1.2.8-2 2-2h.2c1.2 0 2 .8 2 2v.2c0 1.2-1 2-2 2zm8.5 0h0c-1.3 0-2.2-.8-2.2-2v-.2c0-1.2.8-2 2-2h.2c1.2 0 2 .8 2 2v.2c0 1.2-1 2-2 2z" class="colocation1"/><path d="M386 400.3h0c-1.3 0-2.2-.8-2.2-2v-.2c0-1.2.8-2 2-2h.2c1.2 0 2 .8 2 2v.2c.1 1.2-.9 2-2 2zm0-9.3h-16.6c-1.2 0-2-.8-2-2v-.2c0-1.2.8-2 2-2H386c1.2 0 2 .8 2 2v.2c.1 1.2-.9 2-2 2zm-23.3 22.1V427m22.3-4h-.3a2.9 2.9 0 0 1-2.8-2.8v-.3c0-1.5 1.3-2.8 2.8-2.8h.3c1.5 0 2.8 1.3 2.8 2.8v.3c-.2 1.5-1.3 2.8-2.8 2.8zm-145-50.1v65.9m-119.4-48.3v28.9m399.2-28.9v28.9m-191-46.5v65.9m89.6-65.9v65.9" class="colocation1"/><path d="M173.3 287.6h347.9c4.8 0 8.6 4.3 8.6 9.5V344h0c0 5.3-3.8 9.5-8.6 9.5h-402c-4.8 0-8.6-4.3-8.6-9.5v-46.9c0-5.3 3.8-9.5 8.6-9.5h54.1" class="colocation0"/><path d="M148.3 287.6v65.6M487 287.6v66m-266.6-11.8h-49.3c-3.7 0-6.6-3-6.6-6.6v-.7c0-3.7 3-6.6 6.6-6.6h49.3c3.7 0 6.6 3 6.6 6.6v.7c0 3.6-2.9 6.6-6.6 6.6zM171.7 315h-.2c-1.2 0-2-.8-2-2v-.2c0-1.2.8-2 2-2h.2c1.2 0 2 .8 2 2v.2c0 1.2-.8 2-2 2zm8.5 0h-.2c-1.2 0-2-.8-2-2v-.2c0-1.2.8-2 2-2h.2c1.2 0 2 .8 2 2v.2c.2 1.2-.8 2-2 2zm12.1 0h-.2c-1.2 0-2-.8-2-2v-.2c0-1.2.8-2 2-2h.2c1.2 0 2 .8 2 2v.2c0 1.2-.8 2-2 2zm-20.6-9.3h-.2c-1.2 0-2-.8-2-2v-.2c0-1.2.8-2 2-2h.2c1.2 0 2 .8 2 2v.2c0 1.2-.8 2-2 2zm8.5 0h-.2c-1.2 0-2-.8-2-2v-.2c0-1.2.8-2 2-2h.2c1.2 0 2 .8 2 2v.2c.2 1.2-.8 2-2 2zm44.7 0h-.2c-1.2 0-2-.8-2-2v-.2c0-1.2.8-2 2-2h.2c1.2 0 2 .8 2 2v.2c0 1.2-1 2-2 2zM201 315h-.2c-1.2 0-2-.8-2-2v-.2c0-1.2.8-2 2-2h.2c1.2 0 2 .8 2 2v.2a2 2 0 0 1-2 2zm8.4 0h-.2c-1.2 0-2-.8-2-2v-.2c0-1.2.8-2 2-2h.2c1.2 0 2 .8 2 2v.2c0 1.2-1 2-2 2z" class="colocation1"/><path d="M209.4 315h-.2c-1.2 0-2-.8-2-2v-.2c0-1.2.8-2 2-2h.2c1.2 0 2 .8 2 2v.2c.2 1.2-.8 2-2 2zm0-9.3h-16.6c-1.2 0-2-.8-2-2v-.2c0-1.2.8-2 2-2h16.6c1.2 0 2 .8 2 2v.2c.2 1.2-.8 2-2 2zm-23.1 22.1v14m22.1-4h-.3a2.9 2.9 0 0 1-2.8-2.8v-.3c0-1.5 1.3-2.8 2.8-2.8h.3c1.5 0 2.8 1.3 2.8 2.8v.3c-.1 1.4-1.3 2.8-2.8 2.8zm100.3 4h-49.3c-3.7 0-6.6-3-6.6-6.6v-.7c0-3.7 3-6.6 6.6-6.6h49.3c3.7 0 6.6 3 6.6 6.6v.7c0 3.6-3 6.6-6.6 6.6zM260 315h-.3c-1.2 0-2-.8-2-2v-.2c0-1.2.8-2 2-2h.2c1.2 0 2 .8 2 2v.2c.1 1.2-.9 2-1.9 2zm8.5 0h0c-1.3 0-2.2-.8-2.2-2v-.2c0-1.2.8-2 2-2h.2c1.2 0 2 .8 2 2v.2a2 2 0 0 1-2 2zm11.9 0h0c-1.3 0-2.2-.8-2.2-2v-.2c0-1.2.8-2 2-2h.2c1.2 0 2 .8 2 2v.2c.2 1.2-.6 2-2 2zm-20.4-9.3h-.3c-1.2 0-2-.8-2-2v-.2c0-1.2.8-2 2-2h.2c1.2 0 2 .8 2 2v.2c.1 1.2-.9 2-1.9 2zm8.5 0h0c-1.3 0-2.2-.8-2.2-2v-.2c0-1.2.8-2 2-2h.2c1.2 0 2 .8 2 2v.2a2 2 0 0 1-2 2zm44.7 0h-.3c-1.2 0-2-.8-2-2v-.2c0-1.2.8-2 2-2h.2c1.2 0 2 .8 2 2v.2c-.1 1.2-.9 2-1.9 2zm-24 9.3h0c-1.3 0-2.2-.8-2.2-2v-.2c0-1.2.8-2 2-2h.2c1.2 0 2 .8 2 2v.2c0 1.2-1 2-2 2zm8.5 0h0c-1.3 0-2.2-.8-2.2-2v-.2c0-1.2.8-2 2-2h.2c1.2 0 2 .8 2 2v.2c0 1.2-1 2-2 2z" class="colocation1"/><path d="M297.7 315h0c-1.3 0-2.2-.8-2.2-2v-.2c0-1.2.8-2 2-2h.2c1.2 0 2 .8 2 2v.2c.2 1.2-.8 2-2 2zm0-9.3h-16.6c-1.2 0-2-.8-2-2v-.2c0-1.2.8-2 2-2h16.6c1.2 0 2 .8 2 2v.2c.2 1.2-.8 2-2 2zm-23.1 22.1v14m22.1-4h-.3a2.9 2.9 0 0 1-2.8-2.8v-.3c0-1.5 1.3-2.8 2.8-2.8h.3c1.5 0 2.8 1.3 2.8 2.8v.3c-.1 1.4-1.3 2.8-2.8 2.8zm100.1 4h-49.3c-3.7 0-6.6-3-6.6-6.6v-.7c0-3.7 3-6.6 6.6-6.6h49.3c3.7 0 6.6 3 6.6 6.6v.7c0 3.6-2.8 6.6-6.6 6.6zM348.3 315h0c-1.3 0-2.2-.8-2.2-2v-.2c0-1.2.8-2 2-2h.2c1.2 0 2 .8 2 2v.2c0 1.2-1 2-2 2zm8.4 0h0c-1.3 0-2.2-.8-2.2-2v-.2c0-1.2.8-2 2-2h.2c1.2 0 2 .8 2 2v.2c.2 1.2-.8 2-2 2zm12.2 0h0c-1.3 0-2.2-.8-2.2-2v-.2c0-1.2.8-2 2-2h.2c1.2 0 2 .8 2 2v.2a2 2 0 0 1-2 2zm-20.6-9.3h0c-1.3 0-2.2-.8-2.2-2v-.2c0-1.2.8-2 2-2h.2c1.2 0 2 .8 2 2v.2c0 1.2-1 2-2 2zm8.4 0h0c-1.3 0-2.2-.8-2.2-2v-.2c0-1.2.8-2 2-2h.2c1.2 0 2 .8 2 2v.2c.2 1.2-.8 2-2 2zm44.7 0h0c-1.3 0-2.2-.8-2.2-2v-.2c0-1.2.8-2 2-2h.2c1.2 0 2 .8 2 2v.2c0 1.2-1 2-2 2zm-23.9 9.3h0c-1.3 0-2.2-.8-2.2-2v-.2c0-1.2.8-2 2-2h.2c1.2 0 2 .8 2 2v.2c0 1.2-1 2-2 2zm8.5 0h0c-1.3 0-2.2-.8-2.2-2v-.2c0-1.2.8-2 2-2h.2c1.2 0 2 .8 2 2v.2c0 1.2-1 2-2 2z" class="colocation1"/><path d="M386 315h0c-1.3 0-2.2-.8-2.2-2v-.2c0-1.2.8-2 2-2h.2c1.2 0 2 .8 2 2v.2c.1 1.2-.9 2-2 2zm0-9.3h-16.6c-1.2 0-2-.8-2-2v-.2c0-1.2.8-2 2-2H386c1.2 0 2 .8 2 2v.2c.1 1.2-.9 2-2 2zm-23.3 22.1v14m22.3-4h-.3a2.9 2.9 0 0 1-2.8-2.8v-.3c0-1.5 1.3-2.8 2.8-2.8h.3c1.5 0 2.8 1.3 2.8 2.8v.3c-.2 1.4-1.3 2.8-2.8 2.8zm-145-50.2v66m-119.4-48.4v28.9m399.2-28.9v28.9m-191-46.5v66m89.6-66v66" class="colocation1"/><path id="svg-concept" d="M572.7 642.6H67.5a15 15 0 0 1-15-15V269.4a15 15 0 0 1 15-15h505.2a15 15 0 0 1 15 15v358.1a15 15 0 0 1-15 15.1z" class="colocation2"/><path d="M175.7 122.3h347.9c4.8 0 8.6 4.3 8.6 9.5v46.9h0c0 5.3-3.8 9.5-8.6 9.5h-402c-4.8 0-8.6-4.3-8.6-9.5v-46.9c0-5.3 3.8-9.5 8.6-9.5h54.1" class="colocation0"/><path d="M150.7 122.3v65.6m338.8-65.6v66m-266.7-11.8h-49.3c-3.7 0-6.6-3-6.6-6.6v-.7c0-3.7 3-6.6 6.6-6.6h49.3c3.7 0 6.6 3 6.6 6.6v.7a6.5 6.5 0 0 1-6.6 6.6zm-48.6-26.8h-.2c-1.2 0-2-.8-2-2v-.2c0-1.2.8-2 2-2h.2c1.2 0 2 .8 2 2v.2c-.1 1.2-.9 2-2 2zm8.4 0h-.2c-1.2 0-2-.8-2-2v-.2c0-1.2.8-2 2-2h.2c1.2 0 2 .8 2 2v.2c.2 1.2-.8 2-2 2zm12.2 0h-.2c-1.2 0-2-.8-2-2v-.2c0-1.2.8-2 2-2h.2c1.2 0 2 .8 2 2v.2c-.1 1.2-.9 2-2 2zm-20.6-9.3h-.2c-1.2 0-2-.8-2-2v-.2c0-1.2.8-2 2-2h.2c1.2 0 2 .8 2 2v.2c-.1 1.2-.9 2-2 2zm8.4 0h-.2c-1.2 0-2-.8-2-2v-.2c0-1.2.8-2 2-2h.2c1.2 0 2 .8 2 2v.2c.2 1.2-.8 2-2 2zm44.7 0h-.2c-1.2 0-2-.8-2-2v-.2c0-1.2.8-2 2-2h.2c1.2 0 2 .8 2 2v.2c0 1.2-1 2-2 2zm-23.9 9.3h-.2c-1.2 0-2-.8-2-2v-.2c0-1.2.8-2 2-2h.2c1.2 0 2 .8 2 2v.2c0 1.2-.8 2-2 2zm8.5 0h-.2c-1.2 0-2-.8-2-2v-.2c0-1.2.8-2 2-2h.2c1.2 0 2 .8 2 2v.2c0 1.2-1 2-2 2z" class="colocation1"/><path d="M211.9 149.7h-.2c-1.2 0-2-.8-2-2v-.2c0-1.2.8-2 2-2h.2c1.2 0 2 .8 2 2v.2c.1 1.2-.9 2-2 2zm0-9.3h-16.6c-1.2 0-2-.8-2-2v-.2c0-1.2.8-2 2-2h16.6c1.2 0 2 .8 2 2v.2c.1 1.2-.9 2-2 2zm-23.1 22.1v14m22.1-4h-.3a2.9 2.9 0 0 1-2.8-2.8v-.3c0-1.5 1.3-2.8 2.8-2.8h.3c1.5 0 2.8 1.3 2.8 2.8v.3c-.2 1.5-1.3 2.8-2.8 2.8zm100.2 4h-49.3c-3.7 0-6.6-3-6.6-6.6v-.7c0-3.7 3-6.6 6.6-6.6h49.3c3.7 0 6.6 3 6.6 6.6v.7c0 3.6-2.9 6.6-6.6 6.6zm-48.7-26.8h-.3c-1.2 0-2-.8-2-2v-.2c0-1.2.8-2 2-2h.2c1.2 0 2 .8 2 2v.2c.1 1.2-.9 2-1.9 2zm8.5 0h0c-1.3 0-2.2-.8-2.2-2v-.2c0-1.2.8-2 2-2h.2c1.2 0 2 .8 2 2v.2c0 1.2-.8 2-2 2zm12 0h0c-1.3 0-2.2-.8-2.2-2v-.2c0-1.2.8-2 2-2h.2c1.2 0 2 .8 2 2v.2c.1 1.2-.7 2-2 2zm-20.5-9.3h-.3c-1.2 0-2-.8-2-2v-.2c0-1.2.8-2 2-2h.2c1.2 0 2 .8 2 2v.2c.1 1.2-.9 2-1.9 2zm8.5 0h0c-1.3 0-2.2-.8-2.2-2v-.2c0-1.2.8-2 2-2h.2c1.2 0 2 .8 2 2v.2c0 1.2-.8 2-2 2zm44.7 0h-.3c-1.2 0-2-.8-2-2v-.2c0-1.2.8-2 2-2h.2c1.2 0 2 .8 2 2v.2c-.1 1.2-.9 2-1.9 2zm-23.9 9.3h0c-1.3 0-2.2-.8-2.2-2v-.2c0-1.2.8-2 2-2h.2c1.2 0 2 .8 2 2v.2c0 1.2-1 2-2 2zm8.4 0h0c-1.3 0-2.2-.8-2.2-2v-.2c0-1.2.8-2 2-2h.2c1.2 0 2 .8 2 2v.2c0 1.2-1 2-2 2z" class="colocation1"/><path d="M300.1 149.7h0c-1.3 0-2.2-.8-2.2-2v-.2c0-1.2.8-2 2-2h.2c1.2 0 2 .8 2 2v.2c.2 1.2-.8 2-2 2zm0-9.3h-16.6c-1.2 0-2-.8-2-2v-.2c0-1.2.8-2 2-2h16.6c1.2 0 2 .8 2 2v.2c.2 1.2-.8 2-2 2zM277 162.5v14m22.1-4h-.3a2.9 2.9 0 0 1-2.8-2.8v-.3c0-1.5 1.3-2.8 2.8-2.8h.3c1.5 0 2.8 1.3 2.8 2.8v.3c-.1 1.5-1.3 2.8-2.8 2.8zm100.1 4h-49.3c-3.7 0-6.6-3-6.6-6.6v-.7c0-3.7 3-6.6 6.6-6.6h49.3c3.7 0 6.6 3 6.6 6.6v.7c0 3.6-2.8 6.6-6.6 6.6zm-48.5-26.8h0c-1.3 0-2.2-.8-2.2-2v-.2c0-1.2.8-2 2-2h.2c1.2 0 2 .8 2 2v.2c0 1.2-1 2-2 2zm8.5 0h0c-1.3 0-2.2-.8-2.2-2v-.2c0-1.2.8-2 2-2h.2c1.2 0 2 .8 2 2v.2c.1 1.2-.9 2-2 2zm12.1 0h0c-1.3 0-2.2-.8-2.2-2v-.2c0-1.2.8-2 2-2h.2c1.2 0 2 .8 2 2v.2c0 1.2-.8 2-2 2zm-20.6-9.3h0c-1.3 0-2.2-.8-2.2-2v-.2c0-1.2.8-2 2-2h.2c1.2 0 2 .8 2 2v.2c0 1.2-1 2-2 2zm8.5 0h0c-1.3 0-2.2-.8-2.2-2v-.2c0-1.2.8-2 2-2h.2c1.2 0 2 .8 2 2v.2c.1 1.2-.9 2-2 2zm44.7 0h0c-1.3 0-2.2-.8-2.2-2v-.2c0-1.2.8-2 2-2h.2c1.2 0 2 .8 2 2v.2c-.1 1.2-1 2-2 2zm-24 9.3h0c-1.3 0-2.2-.8-2.2-2v-.2c0-1.2.8-2 2-2h.2c1.2 0 2 .8 2 2v.2c0 1.2-1 2-2 2zm8.5 0h0c-1.3 0-2.2-.8-2.2-2v-.2c0-1.2.8-2 2-2h.2c1.2 0 2 .8 2 2v.2c0 1.2-1 2-2 2z" class="colocation1"/><path d="M388.4 149.7h0c-1.3 0-2.2-.8-2.2-2v-.2c0-1.2.8-2 2-2h.2c1.2 0 2 .8 2 2v.2c.2 1.2-.8 2-2 2zm0-9.3h-16.6c-1.2 0-2-.8-2-2v-.2c0-1.2.8-2 2-2h16.6c1.2 0 2 .8 2 2v.2c.2 1.2-.8 2-2 2zm-23.3 22.1v14m22.3-4h-.3a2.9 2.9 0 0 1-2.8-2.8v-.3c0-1.5 1.3-2.8 2.8-2.8h.3c1.5 0 2.8 1.3 2.8 2.8v.3c-.1 1.5-1.3 2.8-2.8 2.8zm-144.9-50.2v66m-119.4-48.4v28.9m399.2-28.9v28.9m-191.1-46.5v66m89.6-66v66" class="colocation1"/><path d="M175.7 37h347.9c4.8 0 8.6 4.3 8.6 9.5v46.9h0c0 5.3-3.8 9.5-8.6 9.5h-402c-4.8 0-8.6-4.3-8.6-9.5V46.5c0-5.3 3.8-9.5 8.6-9.5h54.1" class="colocation0"/><path d="M150.7 37v65.7M489.5 37v66M222.8 91.2h-49.3c-3.7 0-6.6-3-6.6-6.6v-.7c0-3.7 3-6.6 6.6-6.6h49.3c3.7 0 6.6 3 6.6 6.6v.7a6.5 6.5 0 0 1-6.6 6.6zm-48.6-26.7h-.2c-1.2 0-2-.8-2-2v-.2c0-1.2.8-2 2-2h.2c1.2 0 2 .8 2 2v.2c-.1 1.1-.9 2-2 2zm8.4 0h-.2c-1.2 0-2-.8-2-2v-.2c0-1.2.8-2 2-2h.2c1.2 0 2 .8 2 2v.2c.2 1.1-.8 2-2 2zm12.2 0h-.2c-1.2 0-2-.8-2-2v-.2c0-1.2.8-2 2-2h.2c1.2 0 2 .8 2 2v.2c-.1 1.1-.9 2-2 2zm-20.6-9.3h-.2c-1.2 0-2-.8-2-2V53c0-1.2.8-2 2-2h.2c1.2 0 2 .8 2 2v.2c-.1 1.1-.9 2-2 2zm8.4 0h-.2c-1.2 0-2-.8-2-2V53c0-1.2.8-2 2-2h.2c1.2 0 2 .8 2 2v.2c.2 1.1-.8 2-2 2zm44.7 0h-.2c-1.2 0-2-.8-2-2V53c0-1.2.8-2 2-2h.2c1.2 0 2 .8 2 2v.2c0 1.1-1 2-2 2zm-23.9 9.3h-.2c-1.2 0-2-.8-2-2v-.2c0-1.2.8-2 2-2h.2c1.2 0 2 .8 2 2v.2a2 2 0 0 1-2 2zm8.5 0h-.2c-1.2 0-2-.8-2-2v-.2c0-1.2.8-2 2-2h.2c1.2 0 2 .8 2 2v.2c0 1.1-1 2-2 2z" class="colocation1"/><path d="M211.9 64.5h-.2c-1.2 0-2-.8-2-2v-.2c0-1.2.8-2 2-2h.2c1.2 0 2 .8 2 2v.2c.1 1.1-.9 2-2 2zm0-9.3h-16.6c-1.2 0-2-.8-2-2V53c0-1.2.8-2 2-2h16.6c1.2 0 2 .8 2 2v.2c.1 1.1-.9 2-2 2zm-23.1 22.1v13.9m22.1-4h-.3a2.9 2.9 0 0 1-2.8-2.8v-.3c0-1.5 1.3-2.8 2.8-2.8h.3c1.5 0 2.8 1.3 2.8 2.8v.3c-.2 1.5-1.3 2.8-2.8 2.8zm100.2 4h-49.3c-3.7 0-6.6-3-6.6-6.6v-.7c0-3.7 3-6.6 6.6-6.6h49.3c3.7 0 6.6 3 6.6 6.6v.7c0 3.6-2.9 6.6-6.6 6.6zm-48.7-26.7h-.3c-1.2 0-2-.8-2-2v-.2c0-1.2.8-2 2-2h.2c1.2 0 2 .8 2 2v.2c.1 1.1-.9 2-1.9 2zm8.5 0h0c-1.3 0-2.2-.8-2.2-2v-.2c0-1.2.8-2 2-2h.2c1.2 0 2 .8 2 2v.2a2 2 0 0 1-2 2zm12 0h0c-1.3 0-2.2-.8-2.2-2v-.2c0-1.2.8-2 2-2h.2c1.2 0 2 .8 2 2v.2c.1 1.1-.7 2-2 2zm-20.5-9.3h-.3c-1.2 0-2-.8-2-2V53c0-1.2.8-2 2-2h.2c1.2 0 2 .8 2 2v.2c.1 1.1-.9 2-1.9 2zm8.5 0h0c-1.3 0-2.2-.8-2.2-2V53c0-1.2.8-2 2-2h.2c1.2 0 2 .8 2 2v.2a2 2 0 0 1-2 2zm44.7 0h-.3c-1.2 0-2-.8-2-2V53c0-1.2.8-2 2-2h.2c1.2 0 2 .8 2 2v.2c-.1 1.1-.9 2-1.9 2zm-23.9 9.3h0c-1.3 0-2.2-.8-2.2-2v-.2c0-1.2.8-2 2-2h.2c1.2 0 2 .8 2 2v.2c0 1.1-1 2-2 2zm8.4 0h0c-1.3 0-2.2-.8-2.2-2v-.2c0-1.2.8-2 2-2h.2c1.2 0 2 .8 2 2v.2c0 1.1-1 2-2 2z" class="colocation1"/><path d="M300.1 64.5h0c-1.3 0-2.2-.8-2.2-2v-.2c0-1.2.8-2 2-2h.2c1.2 0 2 .8 2 2v.2c.2 1.1-.8 2-2 2zm0-9.3h-16.6c-1.2 0-2-.8-2-2V53c0-1.2.8-2 2-2h16.6c1.2 0 2 .8 2 2v.2c.2 1.1-.8 2-2 2zM277 77.3v13.9m22.1-4h-.3a2.9 2.9 0 0 1-2.8-2.8v-.3c0-1.5 1.3-2.8 2.8-2.8h.3c1.5 0 2.8 1.3 2.8 2.8v.3c-.1 1.5-1.3 2.8-2.8 2.8zm100.1 4h-49.3c-3.7 0-6.6-3-6.6-6.6v-.7c0-3.7 3-6.6 6.6-6.6h49.3c3.7 0 6.6 3 6.6 6.6v.7c0 3.6-2.8 6.6-6.6 6.6zm-48.5-26.7h0c-1.3 0-2.2-.8-2.2-2v-.2c0-1.2.8-2 2-2h.2c1.2 0 2 .8 2 2v.2c0 1.1-1 2-2 2zm8.5 0h0c-1.3 0-2.2-.8-2.2-2v-.2c0-1.2.8-2 2-2h.2c1.2 0 2 .8 2 2v.2c.1 1.1-.9 2-2 2zm12.1 0h0c-1.3 0-2.2-.8-2.2-2v-.2c0-1.2.8-2 2-2h.2c1.2 0 2 .8 2 2v.2a2 2 0 0 1-2 2zm-20.6-9.3h0c-1.3 0-2.2-.8-2.2-2V53c0-1.2.8-2 2-2h.2c1.2 0 2 .8 2 2v.2c0 1.1-1 2-2 2zm8.5 0h0c-1.3 0-2.2-.8-2.2-2V53c0-1.2.8-2 2-2h.2c1.2 0 2 .8 2 2v.2c.1 1.1-.9 2-2 2zm44.7 0h0c-1.3 0-2.2-.8-2.2-2V53c0-1.2.8-2 2-2h.2c1.2 0 2 .8 2 2v.2c-.1 1.1-1 2-2 2zm-24 9.3h0c-1.3 0-2.2-.8-2.2-2v-.2c0-1.2.8-2 2-2h.2c1.2 0 2 .8 2 2v.2c0 1.1-1 2-2 2zm8.5 0h0c-1.3 0-2.2-.8-2.2-2v-.2c0-1.2.8-2 2-2h.2c1.2 0 2 .8 2 2v.2c0 1.1-1 2-2 2z" class="colocation1"/><path d="M388.4 64.5h0c-1.3 0-2.2-.8-2.2-2v-.2c0-1.2.8-2 2-2h.2c1.2 0 2 .8 2 2v.2c.2 1.1-.8 2-2 2zm0-9.3h-16.6c-1.2 0-2-.8-2-2V53c0-1.2.8-2 2-2h16.6c1.2 0 2 .8 2 2v.2c.2 1.1-.8 2-2 2zm-23.3 22.1v13.9m22.3-4h-.3a2.9 2.9 0 0 1-2.8-2.8v-.3c0-1.5 1.3-2.8 2.8-2.8h.3c1.5 0 2.8 1.3 2.8 2.8v.3c-.1 1.5-1.3 2.8-2.8 2.8zM242.5 37v66M123.1 54.7v28.9m399.2-28.9v28.9M331.2 37v66m89.6-66v66" class="colocation1"/><path id="svg-concept" d="M590.2 204.7c0 7.8-6.3 14.2-14.2 14.2H69.1c-7.8 0-14.2-6.3-14.2-14.2v-184c0-7.8 6.3-14.2 14.2-14.2H576c7.8 0 14.2 6.3 14.2 14.2v184z" class="colocation2"/><g><path id="svg-concept" d="M224.9 570.8h-.2c-1.2 0-2-.8-2-2v-.2c0-1.2.8-2 2-2h.2c1.2 0 2 .8 2 2v.2c.1 1.2-.8 2-2 2z" class="colocation3"/><animate fill="remove" accumulate="none" additive="replace" attributeName="opacity" calcMode="linear" dur="1s" repeatCount="indefinite" restart="always" values="0;1;0"/></g><path id="svg-concept" d="M219.2 593.6h-.3a2.9 2.9 0 0 1-2.8-2.8v-.3c0-1.5 1.3-2.8 2.8-2.8h.3c1.5 0 2.8 1.3 2.8 2.8v.3c.1 1.5-1.3 2.8-2.8 2.8z" class="colocation3"/><g><path id="svg-concept" d="M313.2 570.8h0c-1.3 0-2.2-.8-2.2-2v-.2c0-1.2.8-2 2-2h.2c1.2 0 2 .8 2 2v.2c.1 1.2-.9 2-2 2z" class="colocation3"/><animate fill="remove" accumulate="none" additive="replace" attributeName="opacity" calcMode="linear" dur="1s" repeatCount="indefinite" restart="always" values="0;1;0"/></g><path id="svg-concept" d="M307.5 593.6h-.3a2.9 2.9 0 0 1-2.8-2.8v-.3c0-1.5 1.3-2.8 2.8-2.8h.3c1.5 0 2.8 1.3 2.8 2.8v.3c0 1.5-1.3 2.8-2.8 2.8z" class="colocation3"/><g><path id="svg-concept" d="M401.4 570.8h0c-1.3 0-2.2-.8-2.2-2v-.2c0-1.2.8-2 2-2h.2c1.2 0 2 .8 2 2v.2c0 1.2-.8 2-2 2z" class="colocation3"/><animate fill="remove" accumulate="none" additive="replace" attributeName="opacity" calcMode="linear" dur="1s" repeatCount="indefinite" restart="always" values="0;1;0"/></g><path id="svg-concept" d="M395.8 593.6h-.3a2.9 2.9 0 0 1-2.8-2.8v-.3c0-1.5 1.3-2.8 2.8-2.8h.3c1.5 0 2.8 1.3 2.8 2.8v.3c0 1.5-1.3 2.8-2.8 2.8z" class="colocation3"/><g><path id="svg-concept" d="M224.9 485.6h-.2c-1.2 0-2-.8-2-2v-.2c0-1.2.8-2 2-2h.2c1.2 0 2 .8 2 2v.2c.1 1.1-.8 2-2 2z" class="colocation3"/><animate fill="remove" accumulate="none" additive="replace" attributeName="opacity" calcMode="linear" dur="1s" repeatCount="indefinite" restart="always" values="0;1;0"/></g><path id="svg-concept" d="M219.2 508.3h-.3a2.9 2.9 0 0 1-2.8-2.8v-.3c0-1.5 1.3-2.8 2.8-2.8h.3c1.5 0 2.8 1.3 2.8 2.8v.3c.1 1.5-1.3 2.8-2.8 2.8zm94-22.7h0c-1.3 0-2.2-.8-2.2-2v-.2c0-1.2.8-2 2-2h.2c1.2 0 2 .8 2 2v.2c.1 1.1-.9 2-2 2zm-5.7 22.7h-.3a2.9 2.9 0 0 1-2.8-2.8v-.3c0-1.5 1.3-2.8 2.8-2.8h.3c1.5 0 2.8 1.3 2.8 2.8v.3c0 1.5-1.3 2.8-2.8 2.8z" class="colocation3"/><g><path id="svg-concept" d="M401.4 485.6h0c-1.3 0-2.2-.8-2.2-2v-.2c0-1.2.8-2 2-2h.2c1.2 0 2 .8 2 2v.2a2 2 0 0 1-2 2z" class="colocation3"/><animate fill="remove" accumulate="none" additive="replace" attributeName="opacity" calcMode="linear" dur="1s" repeatCount="indefinite" restart="always" values="0;1;0"/></g><path id="svg-concept" d="M395.8 508.3h-.3a2.9 2.9 0 0 1-2.8-2.8v-.3c0-1.5 1.3-2.8 2.8-2.8h.3c1.5 0 2.8 1.3 2.8 2.8v.3c0 1.5-1.3 2.8-2.8 2.8zm-170.9-108h-.2c-1.2 0-2-.8-2-2v-.2c0-1.2.8-2 2-2h.2c1.2 0 2 .8 2 2v.2c.1 1.2-.8 2-2 2zm-5.7 22.7h-.3a2.9 2.9 0 0 1-2.8-2.8v-.3c0-1.5 1.3-2.8 2.8-2.8h.3c1.5 0 2.8 1.3 2.8 2.8v.3c.1 1.5-1.3 2.8-2.8 2.8zm94-22.7h0c-1.3 0-2.2-.8-2.2-2v-.2c0-1.2.8-2 2-2h.2c1.2 0 2 .8 2 2v.2c.1 1.2-.9 2-2 2zm-5.7 22.7h-.3a2.9 2.9 0 0 1-2.8-2.8v-.3c0-1.5 1.3-2.8 2.8-2.8h.3c1.5 0 2.8 1.3 2.8 2.8v.3c0 1.5-1.3 2.8-2.8 2.8zm93.9-22.7h0c-1.3 0-2.2-.8-2.2-2v-.2c0-1.2.8-2 2-2h.2c1.2 0 2 .8 2 2v.2c0 1.2-.8 2-2 2z" class="colocation3"/><g><path id="svg-concept" d="M395.8 423h-.3a2.9 2.9 0 0 1-2.8-2.8v-.3c0-1.5 1.3-2.8 2.8-2.8h.3c1.5 0 2.8 1.3 2.8 2.8v.3c0 1.5-1.3 2.8-2.8 2.8z" class="colocation3"/><animate fill="remove" accumulate="none" additive="replace" attributeName="opacity" calcMode="linear" dur="1s" repeatCount="indefinite" restart="always" values="0;1;0"/></g><path id="svg-concept" d="M224.9 315h-.2c-1.2 0-2-.8-2-2v-.2c0-1.2.8-2 2-2h.2c1.2 0 2 .8 2 2v.2c.1 1.2-.8 2-2 2zm-5.7 22.8h-.3a2.9 2.9 0 0 1-2.8-2.8v-.3c0-1.5 1.3-2.8 2.8-2.8h.3c1.5 0 2.8 1.3 2.8 2.8v.3c.1 1.4-1.3 2.8-2.8 2.8z" class="colocation3"/><g><path id="svg-concept" d="M313.2 315h0c-1.3 0-2.2-.8-2.2-2v-.2c0-1.2.8-2 2-2h.2c1.2 0 2 .8 2 2v.2c.1 1.2-.9 2-2 2z" class="colocation3"/><animate fill="remove" accumulate="none" additive="replace" attributeName="opacity" calcMode="linear" dur="1s" repeatCount="indefinite" restart="always" values="0;1;0"/></g><path id="svg-concept" d="M307.5 337.8h-.3a2.9 2.9 0 0 1-2.8-2.8v-.3c0-1.5 1.3-2.8 2.8-2.8h.3c1.5 0 2.8 1.3 2.8 2.8v.3a3 3 0 0 1-2.8 2.8zm93.9-22.8h0c-1.3 0-2.2-.8-2.2-2v-.2c0-1.2.8-2 2-2h.2c1.2 0 2 .8 2 2v.2c0 1.2-.8 2-2 2z" class="colocation3"/><g><path id="svg-concept" d="M395.8 337.8h-.3a2.9 2.9 0 0 1-2.8-2.8v-.3c0-1.5 1.3-2.8 2.8-2.8h.3c1.5 0 2.8 1.3 2.8 2.8v.3a3 3 0 0 1-2.8 2.8z" class="colocation3"/><animate fill="remove" accumulate="none" additive="replace" attributeName="opacity" calcMode="linear" dur="1s" repeatCount="indefinite" restart="always" values="0;1;0"/></g><g><path id="svg-concept" d="M227.3 149.7h-.2c-1.2 0-2-.8-2-2v-.2c0-1.2.8-2 2-2h.2c1.2 0 2 .8 2 2v.2c.2 1.2-.8 2-2 2z" class="colocation3"/><animate fill="remove" accumulate="none" additive="replace" attributeName="opacity" calcMode="linear" dur="1s" repeatCount="indefinite" restart="always" values="0;1;0"/></g><path id="svg-concept" d="M221.7 172.5h-.3a2.9 2.9 0 0 1-2.8-2.8v-.3c0-1.5 1.3-2.8 2.8-2.8h.3c1.5 0 2.8 1.3 2.8 2.8v.3c0 1.5-1.3 2.8-2.8 2.8z" class="colocation3"/><g><path id="svg-concept" d="M315.6 149.7h0c-1.3 0-2.2-.8-2.2-2v-.2c0-1.2.8-2 2-2h.2c1.2 0 2 .8 2 2v.2c.1 1.2-.9 2-2 2z" class="colocation3"/><animate fill="remove" accumulate="none" additive="replace" attributeName="opacity" calcMode="linear" dur="1s" repeatCount="indefinite" restart="always" values="0;1;0"/></g><path id="svg-concept" d="M309.9 172.5h-.3a2.9 2.9 0 0 1-2.8-2.8v-.3c0-1.5 1.3-2.8 2.8-2.8h.3c1.5 0 2.8 1.3 2.8 2.8v.3c.1 1.5-1.3 2.8-2.8 2.8z" class="colocation3"/><g><path id="svg-concept" d="M403.9 149.7h0c-1.3 0-2.2-.8-2.2-2v-.2c0-1.2.8-2 2-2h.2c1.2 0 2 .8 2 2v.2c-.1 1.2-.9 2-2 2z" class="colocation3"/><animate fill="remove" accumulate="none" additive="replace" attributeName="opacity" calcMode="linear" dur="1s" repeatCount="indefinite" restart="always" values="0;1;0"/></g><path id="svg-concept" d="M398.2 172.5h-.3a2.9 2.9 0 0 1-2.8-2.8v-.3c0-1.5 1.3-2.8 2.8-2.8h.3c1.5 0 2.8 1.3 2.8 2.8v.3c0 1.5-1.3 2.8-2.8 2.8z" class="colocation3"/><g><path id="svg-concept" d="M227.3 64.5h-.2c-1.2 0-2-.8-2-2v-.2c0-1.2.8-2 2-2h.2c1.2 0 2 .8 2 2v.2c.2 1.1-.8 2-2 2z" class="colocation3"/><animate fill="remove" accumulate="none" additive="replace" attributeName="opacity" calcMode="linear" dur="1s" repeatCount="indefinite" restart="always" values="0;1;0"/></g><path id="svg-concept" d="M221.7 87.2h-.3a2.9 2.9 0 0 1-2.8-2.8v-.3c0-1.5 1.3-2.8 2.8-2.8h.3c1.5 0 2.8 1.3 2.8 2.8v.3c0 1.5-1.3 2.8-2.8 2.8zm93.9-22.7h0c-1.3 0-2.2-.8-2.2-2v-.2c0-1.2.8-2 2-2h.2c1.2 0 2 .8 2 2v.2c.1 1.1-.9 2-2 2zm-5.7 22.7h-.3a2.9 2.9 0 0 1-2.8-2.8v-.3c0-1.5 1.3-2.8 2.8-2.8h.3c1.5 0 2.8 1.3 2.8 2.8v.3c.1 1.5-1.3 2.8-2.8 2.8zm94-22.7h0c-1.3 0-2.2-.8-2.2-2v-.2c0-1.2.8-2 2-2h.2c1.2 0 2 .8 2 2v.2c-.1 1.1-.9 2-2 2zm-5.7 22.7h-.3a2.9 2.9 0 0 1-2.8-2.8v-.3c0-1.5 1.3-2.8 2.8-2.8h.3c1.5 0 2.8 1.3 2.8 2.8v.3c0 1.5-1.3 2.8-2.8 2.8z" class="colocation3"/><circle id="svg-concept" cx="453.4" cy="576.4" r="16.9" class="colocation3"/><path id="svg-concept" d="M459.8 576.4c0 3.5-2.8 6.3-6.3 6.3a6.3 6.3 0 0 1-6.3-6.3c0-3.6 2.8-6.3 6.3-6.3 3.4 0 6.3 2.8 6.3 6.3zm10.7 0h-10.7m-12.7 0h-10.7" class="colocation3"/><circle id="svg-concept" cx="453.4" cy="491.1" r="16.9" class="colocation3"/><path id="svg-concept" d="M459.8 491.1c0 3.5-2.8 6.3-6.3 6.3a6.3 6.3 0 0 1-6.3-6.3c0-3.6 2.8-6.3 6.3-6.3 3.4 0 6.3 2.8 6.3 6.3zm10.7 0h-10.7m-12.7 0h-10.7" class="colocation3"/><circle id="svg-concept" cx="453.4" cy="407.2" r="16.9" class="colocation3"/><path id="svg-concept" d="M459.8 407.2c0 3.5-2.8 6.3-6.3 6.3a6.3 6.3 0 0 1-6.3-6.3c0-3.6 2.8-6.3 6.3-6.3 3.4.1 6.3 2.9 6.3 6.3zm10.7 0h-10.7m-12.7 0h-10.7" class="colocation3"/><circle id="svg-concept" cx="453.4" cy="323.3" r="16.9" class="colocation3"/><path id="svg-concept" d="M459.8 323.3c0 3.5-2.8 6.3-6.3 6.3a6.3 6.3 0 0 1-6.3-6.3c0-3.6 2.8-6.3 6.3-6.3 3.4 0 6.3 2.8 6.3 6.3zm10.7 0h-10.7m-12.7 0h-10.7" class="colocation3"/><circle id="svg-concept" cx="453.4" cy="157.2" r="16.9" class="colocation3"/><path id="svg-concept" d="M459.8 157.2c0 3.5-2.8 6.3-6.3 6.3a6.3 6.3 0 0 1-6.3-6.3c0-3.6 2.8-6.3 6.3-6.3 3.4.1 6.3 2.9 6.3 6.3zm10.7 0h-10.7m-12.7 0h-10.7" class="colocation3"/><circle id="svg-concept" cx="453.4" cy="71.4" r="16.9" class="colocation3"/><path id="svg-concept" d="M459.8 71.4c0 3.5-2.8 6.3-6.3 6.3a6.3 6.3 0 0 1-6.3-6.3c0-3.6 2.8-6.3 6.3-6.3 3.4 0 6.3 2.8 6.3 6.3zm10.7 0h-10.7m-12.7 0h-10.7" class="colocation3"/></svg>