<svg version="1.1" id="Layer_1" xmlns="http://www.w3.org/2000/svg" x="0" y="0" viewBox="0 0 595.3 595.3" style="enable-background:new 0 0 595.3 595.3" xml:space="preserve"><style>.commercialman0{fill:none;stroke:#ee5586;stroke-width:3;stroke-linecap:round;stroke-linejoin:round;stroke-miterlimit:10}</style><path id="svg-concept" class="commercialman0" d="M389.5 466.1c-13.3-14.7-41.6-34.3-62.6-37.5l5.1-32.1c3.7-3.5 7.5-7 11.2-10.5 7.9-7.5 15.4-15.2 20.5-25 3.5-6.6 4.9-13.8 5-21.2 9.9-.9 15.3-6.5 18.4-14.8 2.8-7.2 3.6-14.7 3.1-22.4-.6-11.1-4.9-14.4-15.9-12.4 4.7-17.7 3.5-35.4-.3-53.3 21.7-.9 39.3-8.2 49.5-28.4 3.7-5.8 5.6-12.2 6.9-20.3-8.2 8.1-17.4 11.4-26.8 14.3-1.2.4-2.2 1.4-3.2 2.2-2.9.6-5.7 1.1-8.6 1.7-.6.1-1.8.2-1.8.1-.3-1 .7-.7 1.2-.9 8.9-8.1 14.1-18.1 16.2-29.8 2.1-5.4 2.7-11 3.2-17.4-11 12-15.5 14.5-32.4 18.2-2-.1-4.1.9-6.4-.1 3.1-3.3 6-6.3 6.4-10.7 2.4-11.4-2-20.9-8.4-30.3-3.7 5.1-6.8 9.7-10.2 14-8.3 10.6-19.3 15.8-32.8 15.6-5.1-.1-10.3-.5-15.4-1.2-16.6-2.1-33.2-4.5-50.1-2.8-14.5 1.4-25.6 8.3-32 21.7-4.8 10-6.3 20.7-5 31.7-.2 4 .8 7.9-.3 11.9-4.5 14.8-6.2 29.9-5.1 45.4-.1 6.8 1.8 13.2 3.2 19.8-2.9-.7-5.9-1.8-8.8-2-5.3-.3-8.4 2.8-9.9 7.7-5.6 18 3.9 37.9 20.9 43.3-.2 15.5 7.7 27.4 17.9 38 5.7 5.9 11.8 11.3 17.8 16.9 1.2 7.7 2.1 15.5 4.7 22.9l1.5 10.3c-17.3 2.7-40.7 11.5-53.2 19.9-19.3 13-63.7 51.8-43.1 62 109.7 54 179.2 37.2 242.4-.2 11.5-7-13.7-34.3-22.8-44.3h0z"/><g><path d="M210.8 82.7c27.2 47.1 87.5 63.3 134.7 36A97.82 97.82 0 0 0 393 51.6 263.86 263.86 0 0 1 526.1 166c31.3 54.2 41.4 115 32.6 172.4-26.2-9.1-56-7.3-81.8 7.7-47.1 27.2-63.3 87.5-36 134.7 5.7 9.9 12.9 18.4 21.1 25.4-10.2 8.2-21.2 15.7-32.9 22.4-97.3 56.2-215.5 43.8-298.4-22.2 35.3-30.3 45.2-82.3 21.1-124.1s-74.2-59.1-118-43.7C17.9 233.9 66.2 125.3 163.5 69.1c11.7-6.7 23.6-12.5 35.8-17.3 2 10.6 5.8 21 11.5 30.9z" style="fill:none;stroke:gray;stroke-linecap:round;stroke-linejoin:round;stroke-miterlimit:10"/><animateTransform accumulate="none" additive="replace" attributeName="transform" begin="0s" calcMode="linear" dur="3s" fill="remove" from="0 298 298" repeatCount="indefinite" restart="always" to="-360 298 298" type="rotate"/></g><path id="svg-concept" class="commercialman0" d="M550.7 151.8C470.1 12.2 291.5-35.6 151.9 45.1 12.2 125.8-35.5 304.4 45.2 444s259.3 187.4 398.9 106.7 187.3-259.3 106.6-398.9z"/></svg>