<svg version="1.1" id="Layer_1" xmlns="http://www.w3.org/2000/svg" x="0" y="0" viewBox="0 0 608.9 468" style="enable-background:new 0 0 608.9 468" xml:space="preserve"><style>.controlpanel0,.controlpanel1{fill:none;stroke:gray;stroke-linecap:round;stroke-linejoin:round;stroke-miterlimit:10}.controlpanel1{stroke:#ee5586;stroke-width:2}</style><path class="controlpanel0" d="M48 54.6V18.1C48 9 55.4 1.7 64.4 1.7h518c9.1 0 16.4 7.4 16.4 16.4V397c0 9.1-7.4 16.4-16.4 16.4h-29.9"/><path class="controlpanel0" d="M18.1 54.6h518c9.1 0 16.4 7.4 16.4 16.4v378.9c0 9.1-7.4 16.4-16.4 16.4h-518c-9.1 0-16.4-7.4-16.4-16.4V71C1.6 62 9 54.6 18.1 54.6z"/><path id="svg-concept" class="controlpanel1" d="M61.8 80.4c0 2.4-2 4.4-4.4 4.4s-4.4-2-4.4-4.4 2-4.4 4.4-4.4c2.5 0 4.4 2 4.4 4.4z"/><path class="controlpanel0" d="M82.7 80.4c0 2.4-2 4.4-4.4 4.4s-4.4-2-4.4-4.4 2-4.4 4.4-4.4 4.4 2 4.4 4.4zm20.8 0c0 2.4-2 4.4-4.4 4.4s-4.4-2-4.4-4.4 2-4.4 4.4-4.4c2.5 0 4.4 2 4.4 4.4zM2.9 100.9h548.2"/><path id="svg-concept" class="controlpanel0" d="M46.9 126.7h464.4v47.7H46.9v-47.7z"/><path id="svg-concept" class="controlpanel1" d="M149.4 234.4h33.3v29h-33.3v-29z"/><path class="controlpanel0" d="M269.7 234.4H303v29h-33.3v-29z"/><g><path id="svg-concept" class="controlpanel1" d="M389.8 234.4h33.3v29h-33.3v-29z"/><animate accumulate="none" additive="replace" attributeName="opacity" calcMode="linear" dur="1s" fill="remove" repeatCount="indefinite" restart="always" values="0;1;0"/><animate accumulate="none" additive="replace" attributeName="fill" begin="0s" calcMode="linear" dur="1s" fill="freeze" from="#ffffff" restart="always" to="#ee5486"/></g><path class="controlpanel0" d="M149.4 273.5h33.3v29h-33.3v-29z"/><path id="svg-concept" class="controlpanel1" d="M269.7 273.5H303v29h-33.3v-29z"/><path class="controlpanel0" d="M389.7 273.5H423v29h-33.3zM46.9 233h82.8M46.9 205.3h82.8M149.9 205.3h361.4M149.9 327.6h361.4M199.8 244.7h52.4M199.8 255.1h43.6M318.5 244.7h52.4M318.5 255.1h43.6M437.2 244.7h52.4M437.2 255.1h43.6M199.8 281.9h52.4M199.8 292.4h43.6M318.5 281.9h52.4M318.5 292.4h43.6M437.2 281.9h52.4M437.2 292.4h43.6M149.4 356.3h33.3v29h-33.3z"/><g><path id="svg-concept" class="controlpanel1" d="M269.7 356.3H303v29h-33.3v-29z"/><animate accumulate="none" additive="replace" attributeName="opacity" calcMode="linear" dur="1s" fill="remove" repeatCount="indefinite" restart="always" values="0;1;0"/><animate accumulate="none" additive="replace" attributeName="fill" begin="0.5s" calcMode="linear" dur="1s" fill="freeze" from="#ffffff" restart="always" to="#ee5486"/></g><path class="controlpanel0" d="M389.8 356.3h33.3v29h-33.3v-29z"/><path id="svg-concept" class="controlpanel1" d="M149.4 395.4h33.3v29h-33.3v-29z"/><path class="controlpanel0" d="M269.7 395.4H303v29h-33.3v-29z"/><path id="svg-concept" class="controlpanel1" d="M389.7 395.4H423v29h-33.3v-29z"/><path class="controlpanel0" d="M199.8 366.6h52.4m-52.4 10.5h43.6m75.1-10.5h52.4m-52.4 10.5h43.6m75.1-10.5h52.4m-52.4 10.5h43.6m-281 26.7h52.4m-52.4 10.5h43.6m75.1-10.5h52.4m-52.4 10.5h43.6m75.1-10.5h52.4m-52.4 10.5h43.6M46.9 254h82.8M46.9 275h82.8M46.9 327.6h82.8M46.9 348.6h82.8M46.9 369.6h82.8M46.9 398.6h36.3M46.9 419.6h36.3M93.6 398.6h36.3M414.9 160.5c0 .3-.3.6-.7.6h-72.4c-.4 0-.7-.3-.7-.6v-18.7c0-.3.3-.6.7-.6h72.4c.4 0 .7.3.7.6v18.7zm72.9 0c0 .3-.3.6-.6.6h-55.7a.6.6 0 0 1-.6-.6v-18.7c0-.3.2-.6.6-.6h55.7c.3 0 .6.3.6.6v18.7z"/><path d="m103.3 150.8.1-.3-.1-.3-.3-.1h-8.1l-.9-.2c-.3-.1-.5-.3-.7-.6l-.4-.8v-1l.5-1.9h11c.7 0 1.3.1 1.9.5a4.5 4.5 0 0 1 2.2 2.9 6 6 0 0 1 0 1.9l-2 7.3c-.2.7-.6 1.4-1.2 1.8-.6.5-1.3.7-2.1.7h-8.1a4.6 4.6 0 0 1-3.5-1.7c-.4-.5-.7-1.1-.8-1.8-.2-.7-.1-1.3 0-2l.1-.4c.1-.5.3-.9.6-1.3l1-1 1.2-.7c.5-.2.9-.2 1.4-.2h6.8l-.5 1.9c-.1.4-.4.8-.8 1.1s-.8.4-1.3.4h-3c-.3 0-.5.1-.6.4-.1.2 0 .3.1.5l.4.2h4.9l.5-.1.2-.4.1-.2 1.4-4.6zm-34-5.2H75l-.9 3.3c-.1.5-.4.8-.7 1.1a2 2 0 0 1-1.3.4h-2.6c-.6 0-1.1.2-1.6.5s-.8.8-1 1.4v1.3l.5 1.1c.2.3.5.6.9.7l1.2.3H71c.3 0 .5.1.7.4.2.2.2.5.2.8l-1 3.7h-1.7a7.3 7.3 0 0 1-5.8-2.9 8.3 8.3 0 0 1-1.4-3c-.2-1.1-.2-2.2.1-3.4l.1-.4c.2-.8.6-1.5 1-2.2a7 7 0 0 1 3.7-2.8l2.4-.3m2.9 15.1 4.9-18.5c.1-.5.4-.8.8-1.1s.8-.4 1.3-.4h5.2a7.3 7.3 0 0 1 5.8 2.9c.7.9 1.1 1.9 1.4 3s.2 2.2-.1 3.4l-.1.4c-.2.8-.5 1.5-1 2.2-.4.7-1 1.3-1.6 1.7-.6.5-1.3.9-2.1 1.1-.8.3-1.6.4-2.4.4h-4.5l.9-3.4c.1-.5.4-.8.8-1.1s.8-.4 1.3-.4h1.4c.6 0 1.1-.2 1.6-.6.5-.4.8-.8.9-1.4v-1.2l-.5-1.1c-.2-.3-.5-.6-.9-.8l-1.2-.3h-2.8l-3.6 13.6c-.1.5-.4.8-.8 1.1s-.8.4-1.3.4h-3.4v.1zm45.7-15.1a7.3 7.3 0 0 1 5.8 2.9c.7.9 1.1 1.9 1.4 3 .2 1.1.2 2.3-.1 3.4l-1.3 4.7-.5.8-.9.3h-2.7a1 1 0 0 1-.8-.4c-.2-.2-.2-.5-.1-.8l1.5-5.7v-1.2l-.5-1.1c-.2-.3-.5-.6-.9-.7l-1.2-.3h-2.8l-2.4 9.1-.5.8-.9.3h-2.7c-.3 0-.5-.1-.7-.4-.2-.2-.2-.5-.2-.8l3.7-13.9h6.8zm14.7 4.8-.4.6-1.1 4.3c-.1.2 0 .4.1.7l.6.3h10.4l-.8 3c-.1.5-.4.8-.8 1.1a2 2 0 0 1-1.3.4h-9.4a4 4 0 0 1-1.9-.4 4.5 4.5 0 0 1-2.2-2.9 4 4 0 0 1 .1-1.9l1.5-5.7c.2-.6.4-1.2.8-1.7.3-.5.8-1 1.2-1.3.5-.4 1-.7 1.6-.9l1.8-.3h6.7c.7 0 1.3.2 1.9.4a4.5 4.5 0 0 1 2.2 2.9 4 4 0 0 1-.1 1.9l-.5 1.7a3 3 0 0 1-1.2 1.8c-.6.5-1.3.7-2.1.7h-7.5l.5-1.9c.1-.4.4-.8.7-1.1a2 2 0 0 1 1.3-.4h3.1c.3 0 .5-.1.6-.4l.1-.4c.1-.2 0-.4-.1-.5-.1-.2-.3-.2-.5-.2h-4.6c-.3-.1-.5 0-.7.2m9.5 10.3 5-18.9.5-.8.9-.3h2.7c.3 0 .6.1.8.4.2.2.2.5.2.8l-3.7 13.9c-.2.7-.5 1.4-.9 2s-.9 1.1-1.5 1.5-1.2.8-1.9 1c-.6.2-1.3.4-2.1.4" style="fill:gray"/><g><path id="svg-ico" d="M504.4 100.9c0 2.2-1.8 4-4 4s-4-1.8-4-4 1.8-4 4-4 4 1.7 4 4z"/><animateMotion accumulate="none" additive="replace" begin="0s" calcMode="paced" dur="12s" fill="remove" path="M40, 0 -495 0 45 0" repeatCount="indefinite" restart="always"/></g></svg>