<svg xmlns="http://www.w3.org/2000/svg" xml:space="preserve" id="Layer_1" x="0" y="0" style="enable-background:new 0 0 608.9 468" version="1.1" viewBox="0 0 609 468"><style>.controlplesk0,.controlplesk1{fill:none;stroke:gray;stroke-linecap:round;stroke-linejoin:round;stroke-miterlimit:10}.controlplesk1{stroke:#ee5586}.controlplesk2{fill:gray}.controlplesk3{fill:#ee5586}</style><path d="M55 57V22c0-9 7-16 16-16h512c9 0 16 7 16 16v375c0 9-7 16-16 16h-29" class="controlplesk0"/><path d="M25 58h512c9 0 16 8 16 16v375c1 9-7 16-16 16H25c-9 0-16-7-16-16V74c0-8 7-16 16-16z" class="controlplesk0"/><path id="svg-concept" d="M54 130h459v47H54v-47zm15-46c0 2-2 4-5 4s-4-2-4-4 2-5 4-5c3 0 5 2 5 5z" class="controlplesk1"/><path d="M89 84c0 2-2 4-4 4s-4-2-4-4 2-5 4-5 4 2 4 5zm21 0c0 2-2 4-4 4s-5-2-5-4 2-5 5-5c2 0 4 2 4 5zM10 104h542M54 194h82v13H54v-13zm118 59h134v12H172v-12zm-17-59h357v13H155v-13zM54 228h82m36 0h95m-112-20v229M54 251h82m206-103h149m-117 10h117" class="controlplesk0"/><path id="svg-concept" d="M173 320h33v29h-33v-29z" class="controlplesk1"/><path d="M292 320h33v29h-33v-29zm119 0h33v29h-33v-29zm-238 41h33v29h-33v-29zm59-41h33v29h-33v-29z" class="controlplesk0"/><g><path id="svg-concept" d="M232 361h33v29h-33v-29z" class="controlplesk1"/><animate fill="remove" accumulate="none" additive="replace" attributeName="opacity" calcMode="linear" dur="1s" repeatCount="indefinite" restart="always" values="0;1;0"/><animate fill="freeze" accumulate="none" additive="replace" attributeName="fill" begin="0s" calcMode="linear" dur="1s" from="#ffffff" restart="always" to="#ee5486"/></g><g><path id="svg-concept" d="M353 320h33v29h-33v-29z" class="controlplesk1"/><animate fill="remove" accumulate="none" additive="replace" attributeName="opacity" calcMode="linear" dur="1s" repeatCount="indefinite" restart="always" values="0;1;0"/><animate fill="freeze" accumulate="none" additive="replace" attributeName="fill" begin="0.5s" calcMode="linear" dur="1s" from="#ffffff" restart="always" to="#ee5486"/></g><path d="M292 361h33v29h-33v-29zm61 0h33v29h-33v-29z" class="controlplesk0"/><path id="svg-concept" d="M411 361h33v29h-33v-29z" class="controlplesk1"/><path d="M475 320h33v29h-33v-29zm-302 84h33v28h-33v-28zm119 0h33v28h-33v-28zm119 0h33v28h-33v-28zm-179 0h33v28h-33v-28z" class="controlplesk0"/><path id="svg-concept" d="M353 404h33v28h-33v-28z" class="controlplesk1"/><path d="M475 404h33v28h-33v-28zm0-43h33v29h-33v-29zM54 274h82m-82 23h82m-82 24h82m-82 23h82m-82 23h82m36-87h157m-157 10h239M54 398h36m-36 11h36m-36 10h36m-36 10h36m10-31h36m-36 11h36m-36 10h36m-36 10h36" class="controlplesk0"/><path d="M74 169h-2v-24l6-1 3 1 3 2 2 2 1 4-1 4a8 8 0 0 1-5 4h-7v8zm10-16-2-5-4-2h-2l-2 1v12h3l5-2 2-4m7-15h3v23h-3v-23zm22 21-3 2h-4a8 8 0 0 1-6-2l-1-3-1-3 1-4 1-3 3-1 3-1 5 2 2 7h-13l2 4 4 2h3l2-2 2 2zm-2-8-1-2v-1l-2-1-2-1-2 1-2 1-1 1v2h10zm17-3-2-1-2-1-3 1v3h1l1 1 2 1h2a6 6 0 0 1 3 2v4l-2 2-2 1h-6l-3-3 2-1 5 2 3-1 1-1-1-2h-1l-1-1-1-1h-2l-2-1-1-1-1-2 2-4 4-1 3 1 3 2-2 1zm6-10h3v23h-3v-23zm3 15 8-8h3l-8 8 8 8h-4l-7-8zm-52 14h14v2H85v-2z" class="controlplesk2"/><g><path id="svg-ico" d="M506 104c0 2-2 4-4 4s-4-2-4-4 2-4 4-4 4 2 4 4z" class="controlplesk3"/><animateMotion fill="remove" accumulate="none" additive="replace" begin="0s" calcMode="paced" dur="12s" path="M40, 0 -490 0 45 0" repeatCount="indefinite" restart="always"/></g></svg>