<svg xmlns="http://www.w3.org/2000/svg" xml:space="preserve" id="Layer_1" x="0" y="0" version="1.1" viewBox="0 0 1478 615"><style>.st0{opacity:.5;fill:none;stroke:gray;stroke-linecap:round;stroke-linejoin:round;stroke-miterlimit:10;stroke-opacity:.3}.st2{opacity:.5;fill:gray;enable-background:new}</style><path d="M150 370h-3v-3h3v3zm-25 25h-3v-3h3v3z" class="st0"/><path d="m87 368 36-36 36 36-36 37z" class="st0"/><path d="m76 368 47-46 47 46-47 47z" class="st0"/><path d="m109 368 14-14 15 14-15 15z" class="st0"/><path d="M100 370h-4v-3h4v3zm25-25h-3v-4h3v4zm-11 24h-2v-1h2v1zm2-3h-1v-1h1v1zm3-2h-2v-1h2v1zm2-3h-1v-1h1v1zm3-2h-1v-2h1v2zm-8 13h-1v-2h1v2zm3-3h-2v-1h2v1zm2-3h-1v-1h1v1zm3-2h-1v-1h1v1zm3-3h-2v-1h2v1zm-8 13h-2v-1h2v1zm2-2h-1v-2h1v2zm3-3h-1v-1h1v1zm3-2h-2v-2h2v1zm2-3h-1v-1h1v1zm-8 13h-1v-1h1v1zm3-3h-1v-1h1v1zm3-2h-2v-2h2v2zm2-3h-1v-1h1v1zm3-2h-1v-2h1v1zm-8 13h-1v-2h1v1zm3-3h-2v-1h2v1zm2-3h-1v-1h1v1zm3-2h-1v-2h1v2zm2-3h-1v-1h1v1zm139 1h-3v-3h3v3zm-25 25h-3v-3h3v3z" class="st0"/><path d="m210 368 36-36 36 36-36 37z" class="st0"/><path d="m199 369 47-47 47 47-47 46z" class="st0"/><path d="m232 368 14-14 15 14-15 15z" class="st0"/><path d="M223 370h-4v-3h4v3zm25-25h-3v-4h3v4zm-11 24h-2v-1h2v1zm2-3h-1v-1h1v1zm3-2h-1v-1h1v1zm2-3h-1v-1h1v1zm3-2h-1v-2h1v2zm-8 13h-1v-2h1v2zm3-3h-1v-1h1v1zm3-3h-2v-1h1l1 1zm2-2h-1v-1h1v1zm3-3h-2v-1h2v1zm-8 13h-1v-1h1v1zm3-2h-2v-2h1l1 2zm2-3h-1v-1h1v1zm3-2h-2v-2h2v1zm2-3h-1v-1h1v1zm-7 13h-2v-1h1l1 1zm2-3h-1v-1h1v1zm3-2h-2v-2h2v2zm2-3h-1v-1h1v1zm3-2h-1v-2h1v1zm-8 13h-1v-2h1v1zm3-3h-2v-1h2v1zm2-3h-1v-1h1v1zm3-2h-1v-2h1v2zm3-3h-2v-1h1l1 1zm-46 63h-4v-4h4v4zm-26 25h-3v-4h3v4z" class="st0"/><path d="m149 430 36-36 36 36-36 36z" class="st0"/><path d="m138 430 46-47 47 47-47 47z" class="st0"/><path d="m170 430 15-15 14 15-14 14z" class="st0"/><path d="M161 432h-3v-4h3v4zm25-26h-3v-3h3v3zm-11 24h-1v-1h1v1zm3-2h-2v-1h1l1 1zm2-3h-1v-1h1v1zm3-2h-2v-2h2v2zm2-3h-1v-1h1v1zm-7 13h-2v-1h1l1 1zm2-3h-1v-1h1v1zm3-2h-2v-1h2v1zm2-3h-1v-1h1v1zm3-2h-1v-2h1v2zm-8 13h-1v-2h1v2zm3-3h-2v-1h2v1zm2-3h-1v-1h1v1zm3-2h-1v-1h1v1zm3-3h-2v-1h1l1 1zm-8 13h-2v-1h2v1zm2-2h-1v-2h1v2zm3-3h-1v-1h1v1zm3-3h-2v-1h1l1 1zm2-2h-1v-1h1v1zm-8 13h-1v-1h1v1zm3-3h-1v-1h1v1zm3-2h-2v-2h1l1 2zm2-3h-1v-1h1v1zm3-3h-1v-1h1v1zm16-121h-4v-4h4v4zm-26 25h-3v-3h3v3z" class="st0"/><path d="m149 307 36-36 36 36-36 36z" class="st0"/><path d="m138 307 47-47 47 47-47 47z" class="st0"/><path d="m170 307 15-14 14 14-14 14z" class="st0"/><path d="M161 309h-3v-4h3v4zm25-26h-3v-3h3v3zm-11 25h-1v-2h1v2zm3-3h-2v-1h1l1 1zm2-3h-1v-1h1v1zm3-2h-2v-1h2v1zm2-3h-1v-1h1v1zm-7 13h-2v-1h1l1 1zm2-2h-1v-2h1v2zm3-3h-2v-1h2v1zm2-3h-1v-1h1v1zm3-2h-1v-1h1v1zm-8 13h-1v-1h1v1zm3-3h-2v-1h2v1zm2-2h-1v-2h1v2zm3-3h-1v-1h1v1zm3-3h-2v-1h1l1 1zm-8 14h-2v-2h2v1zm2-3h-1v-1h1v1zm3-3h-1v-1h1v1zm3-2h-2v-2h1l1 2zm2-3h-1v-1h1v1zm-8 13h-1v-1h1v1zm3-2h-1v-2h1v1zm3-3h-2v-1h1l1 1zm2-3h-1v-1h1v1zm3-2h-1v-2h1v2zm-11 63v2m0 3v4m0 1v2m0-29v1m0 3v5m0 1v2m-15 2h2m3 0h4m1 0h2m5 0h2m3 0h5m1 0h2m197 2h-4v-3h4v3zm-26 25h-3v-3h3v3z" class="st0"/><path d="m333 368 36-36 37 36-37 37z" class="st0"/><path d="m323 368 46-47 47 47-47 47z" class="st0"/><path d="m355 368 15-14 14 14-14 15z" class="st0"/><path d="M346 370h-3v-3h3v3zm25-25h-3v-4h3v4zm-11 24h-1v-1h1v1zm2-3h-1v-1h1v1zm3-2h-1v-1h1v1zm3-3h-2v-1h2v1zm2-2h-1v-2h1v2zm-8 13h-1v-2h1v2zm3-3h-1v-1h1v1zm3-3h-2v-1h2v1zm2-2h-1v-1h1v1zm3-3h-1v-1h1v1zm-8 13h-1v-1h1v1zm3-2h-2v-2h2v2zm2-3h-1v-1h1v1zm3-2h-1v-2h1v1zm2-3h-1v-1h1v1zm-7 13h-2v-1h2v1zm2-3h-1v-1h1v1zm3-2h-1v-2h1v2zm2-3h-1v-1h1v1zm3-2h-1v-2h1v1zm-8 13h-1v-2h1v1zm3-3h-1v-1h1v1zm2-3h-1v-1h1v1zm3-2h-1v-2h1v2zm3-3h-2v-1h2v1zm139 1h-4v-3h4v3zm-26 25h-3v-3h3v3z" class="st0"/><path d="m456 368 37-36 36 36-36 36z" class="st0"/><path d="m446 369 47-47 47 47-47 46z" class="st0"/><path d="m478 368 15-14 14 14-14 15z" class="st0"/><path d="M469 370h-3v-3h3v3zm25-25h-3v-4h3v4zm-11 24h-1v-1h1v1zm3-3h-2v-1h1l1 1zm2-2h-1v-1h1v1zm3-3h-2v-1h2v1zm2-2h-1v-2h1v2zm-7 13h-2v-2h1l1 2zm2-3h-1v-1h1v1zm3-3h-2v-1h2v1zm2-2h-1v-1h1v1zm3-3h-1v-1h1v1zm-8 13h-1v-1h1v1zm3-2h-2v-2h2v2zm2-3h-1v-1h1v1zm3-2h-1v-2h1v1zm3-3h-2v-1h2v1zm-8 13h-1v-1h1v1zm2-3h-1v-1h1v1zm3-2h-1v-2h1v2zm3-3h-2v-1h2v1zm2-2h-1v-2h1v1zm-8 13h-1v-2h1v1zm3-3h-1v-1h1v1zm3-3h-2v-1h2v1zm2-2h-1v-2h1v2zm3-3h-1v-1h1v1zm-46 63h-4v-4h4v4zm-25 25h-4v-4h4v4z" class="st0"/><path d="m395 430 36-36 36 36-36 36z" class="st0"/><path d="m384 430 47-47 47 47-47 47z" class="st0"/><path d="m416 430 15-15 14 15-14 14z" class="st0"/><path d="M407 432h-3v-4h3v4zm26-26h-4v-3h4v3zm-12 24h-1v-1h1v1zm3-2h-1v-1h1v1zm2-3h-1v-1h1v1zm3-2h-1v-2h1v2zm3-3h-2v-1h2v1zm-8 13h-1v-1h1v1zm2-3h-1v-1h1v1zm3-2h-1v-1h1v1zm3-3h-2v-1h2v1zm2-2h-1v-2h1v2zm-8 13h-1v-2h1v2zm3-3h-1v-1h1v1zm3-3h-2v-1h2v1zm2-2h-1v-1h1v1zm3-3h-1v-1h1v1zm-8 13h-1v-1h1v1zm3-2h-2v-2h2v2zm2-3h-1v-1h1v1zm3-3h-1v-1h1v1zm2-2h-1v-1h1v1zm-7 13h-2v-1h2v1zm2-3h-1v-1h1v1zm3-2h-1v-2h1v2zm2-3h-1v-1h1v1zm3-3h-1v-1h1v1zm16-121h-4v-4h4v4zm-25 25h-4v-3h4v3z" class="st0"/><path d="m395 307 36-36 36 36-36 36z" class="st0"/><path d="m384 307 47-47 47 47-47 47z" class="st0"/><path d="m416 307 15-14 14 14-14 14z" class="st0"/><path d="M407 309h-3v-4h3v4zm26-26h-4v-3h4v3zm-12 25h-1v-2h1v2zm3-3h-1v-1h1v1zm2-3h-1v-1h1v1zm3-2h-1v-1h1v1zm3-3h-2v-1h2v1zm-8 13h-1v-1h1v1zm2-2h-1v-2h1v2zm3-3h-1v-1h1v1zm3-3h-2v-1h2v1zm2-2h-1v-1h1v1zm-8 13h-1v-1h1v1zm3-3h-1v-1h1v1zm3-2h-2v-2h2v2zm2-3h-1v-1h1v1zm3-3h-1v-1h1v1zm-8 14h-1v-2h1v1zm3-3h-2v-1h2v1zm2-3h-1v-1h1v1zm3-2h-1v-2h1v2zm2-3h-1v-1h1v1zm-7 13h-2v-1h2v1zm2-2h-1v-2h1v1zm3-3h-1v-1h1v1zm2-3h-1v-1h1v1zm3-2h-1v-2h1v2zm-11 63v2m0 3v4m0 1v2m0-29v1m0 3v5m0 1v2m-14 2h1m3 0h4m2 0h1m6 0h1m3 0h5m1 0h2M273 247h-3v-3h3v3zm-25 26h-3v-4h3v4z" class="st0"/><path d="m210 246 36-37 36 37-36 36z" class="st0"/><path d="m199 246 47-47 47 47-47 47z" class="st0"/><path d="m232 246 14-15 15 15-15 14z" class="st0"/><path d="M223 247h-4v-3h4v3zm25-25h-3v-3h3v3zm-11 24h-2v-1h2v1zm2-2h-1v-2h1v2zm3-3h-1v-1h1v1zm2-3h-1v-1h1v1zm3-2h-1v-1h1v1zm-8 13h-1v-1h1v1zm3-3h-1v-1h1v1zm3-2h-2v-2h1l1 2zm2-3h-1v-1h1v1zm3-3h-2v-1h2v1zm-8 14h-1v-2h1v1zm3-3h-2v-1h1l1 1zm2-3h-1v-1h1v1zm3-2h-2v-2h2v2zm2-3h-1v-1h1v1zm-7 13h-2v-1h1l1 1zm2-2h-1v-2h1v1zm3-3h-2v-1h2v1zm2-3h-1v-1h1v1zm3-2h-1v-2h1v2zm-8 13h-1v-2h1v2zm3-3h-2v-1h2v1zm2-2h-1v-2h1v1zm3-3h-1v-1h1v1zm3-3h-2v-1h1l1 1zm139 1h-4v-3h4v3zm-26 26h-3v-4h3v4z" class="st0"/><path d="m333 246 36-36 37 36-37 36z" class="st0"/><path d="m323 246 46-47 47 47-47 47z" class="st0"/><path d="m355 246 15-15 14 15-14 14z" class="st0"/><path d="M346 247h-3v-3h3v3zm25-25h-3v-3h3v3zm-11 24h-1v-1h1v1zm2-2h-1v-2h1v2zm3-3h-1v-1h1v1zm3-3h-2v-1h2v1zm2-2h-1v-1h1v1zm-8 13h-1v-1h1v1zm3-3h-1v-1h1v1zm3-2h-2v-2h2v2zm2-3h-1v-1h1v1zm3-3h-1v-1h1v1zm-8 14h-1v-2h1v1zm3-3h-2v-1h2v1zm2-3h-1v-1h1v1zm3-2h-1v-2h1v2zm2-3h-1v-1h1v1zm-7 13h-2v-1h2v1zm2-2h-1v-2h1v1zm3-3h-1v-1h1v1zm2-3h-1v-1h1v1zm3-2h-1v-2h1v2zm-8 13h-1v-2h1v2zm3-3h-1v-1h1v1zm2-2h-1v-2h1v1zm3-3h-1v-1h1v1zm3-3h-2v-1h2v1zm-46 63h-4v-4h4v4zm-25 25h-4v-3h4v3z" class="st0"/><path d="m272 307 36-36 36 36-36 36z" class="st0"/><path d="m261 307 47-47 47 47-47 47z" class="st0"/><path d="m293 307 15-14 14 14-14 14z" class="st0"/><path d="M284 309h-3v-4h3v4zm26-26h-4v-3h4v3zm-12 25h-1v-2h1v2zm3-3h-2v-1h2v1zm2-3h-1v-1h1v1zm3-2h-1v-1h1v1zm2-3h-1v-1h1v1zm-7 13h-2v-1h2v1zm2-2h-1v-2h1v2zm3-3h-1v-1h1v1zm2-3h-1v-1h1v1zm3-2h-1v-1h1v1zm-8 13h-1v-1h1v1zm3-3h-1v-1h1v1zm3-2h-2v-2h1l1 2zm2-3h-1v-1h1v1zm3-3h-2v-1h2v1zm-8 14h-1v-2h1v1zm3-3h-2v-1h1l1 1zm2-3h-1v-1h1v1zm3-2h-2v-2h2v2zm2-3h-1v-1h1v1zm-7 13h-2v-1h1l1 1zm2-2h-1v-2h1v1zm3-3h-2v-1h2v1zm2-3h-1v-1h1v1zm3-2h-1v-2h1v2zm16-122h-4v-4h4v4zm-25 25h-4v-3h4v3z" class="st0"/><path d="m272 184 36-36 36 36-36 36z" class="st0"/><path d="m261 184 47-47 47 47-47 47z" class="st0"/><path d="m293 184 15-14 14 14-14 15z" class="st0"/><path d="M284 186h-3v-4h3v4zm26-25h-4v-4h4v4zm-12 24h-1v-1h1v1zm3-3h-2v-1h2v1zm2-2h-1v-2h1v2zm3-3h-1v-1h1v1zm2-3h-1v-1h1v1zm-7 13h-2v-1h2v1zm2-2h-1v-1h1v1zm3-3h-1v-1h1v1zm2-2h-1v-2h1v2zm3-3h-1v-1h1v1zm-8 13h-1v-1h1v1zm3-2h-1v-2h1v1zm3-3h-2v-1h1l1 1zm2-3h-1v-1h1v1zm3-2h-2v-2h2v2zm-8 13h-1v-2h1v2zm3-3h-2v-1h1l1 1zm2-2h-1v-2h1v1zm3-3h-2v-1h2v1zm2-3h-1v-1h1v1zm-7 13h-2v-1h1l1 1zm2-2h-1v-2h1v2zm3-3h-2v-1h2v1zm2-2h-1v-2h1v1zm3-3h-1v-1h1v1zm-11 63v2m0 3v4m0 2v1m0-29v2m0 3v4m0 1v2m-15 3h2m3 0h4m1 0h2m6 0h1m3 0h5m1 0h2m-50 247h-3v-4h3v4zm-25 25h-3v-3h3v3z" class="st0"/><path d="m210 491 36-36 36 36-36 36z" class="st0"/><path d="m199 491 47-47 47 47-47 47z" class="st0"/><path d="m232 491 14-14 15 14-15 15z" class="st0"/><path d="M223 493h-4v-4h4v4zm25-25h-3v-4h3v4zm-11 24h-2v-1h2v1zm2-3h-1v-1h1v1zm3-2h-1v-2h1v2zm2-3h-1v-1h1v1zm3-3h-1v-1h1v1zm-8 14h-1v-2h1v1zm3-3h-1v-1h1v1zm3-3h-2v-1h1l1 1zm2-2h-1v-2h1v2zm3-3h-2v-1h2v1zm-8 13h-1v-1h1v1zm3-2h-2v-2h1l1 1zm2-3h-1v-1h1v1zm3-3h-2v-1h2v1zm2-2h-1v-2h1v2zm-7 13h-2v-2h1l1 2zm2-3h-1v-1h1v1zm3-2h-2v-2h2v1zm2-3h-1v-1h1v1zm3-3h-1v-1h1v1zm-8 13h-1v-1h1v1zm3-2h-2v-2h2v2zm2-3h-1v-1h1v1zm3-2h-1v-2h1v1zm3-3h-2v-1h1l1 1zm139 1h-4v-4h4v4zm-26 25h-3v-3h3v3z" class="st0"/><path d="m333 491 36-36 37 36-37 36z" class="st0"/><path d="m323 491 46-47 47 47-47 47z" class="st0"/><path d="m355 491 14-14 15 14-15 15z" class="st0"/><path d="M346 493h-3v-4h3v4zm25-25h-3v-4h3v4zm-11 24h-1v-1h1v1zm2-3h-1v-1h1v1zm3-2h-1v-2h1v2zm3-3h-2v-1h2v1zm2-3h-1v-1h1v1zm-8 14h-1v-2h1v1zm3-3h-1v-1h1v1zm3-3h-2v-1h2v1zm2-2h-1v-2h1v2zm3-3h-1v-1h1v1zm-8 13h-1v-1h1v1zm3-2h-2v-2h2v1zm2-3h-1v-1h1v1zm3-3h-1v-1h1v1zm2-2h-1v-2h1v2zm-7 13h-2v-2h2v2zm2-3h-1v-1h1v1zm3-2h-1v-2h1v1zm2-3h-1v-1h1v1zm3-3h-1v-1h1v1zm-8 13h-1v-1h1v1zm3-2h-1v-2h1v2zm2-3h-1v-1h1v1zm3-2h-1v-2h1v1zm3-3h-2v-1h2v1zm-46 62h-4v-3h4v3zm-25 26h-4v-4h4v4z" class="st0"/><path d="m272 553 36-37 36 37-36 36z" class="st0"/><path d="m355 553-47-47-47 47 47 47z" class="st0"/><path d="m293 552 15-14 14 14-14 15z" class="st0"/><path d="M284 554h-3v-3h3v3zm26-25h-4v-3h4v3zm-12 24h-1v-1h1v1zm3-2h-2v-2h2v2zm2-3h-1v-1h1v1zm3-3h-1v-1h1v1zm2-2h-1v-2l1 1v1zm-7 13h-2v-2l2 1v1zm2-3h-1v-1h1v1zm3-2h-1v-2h1v2zm2-3h-1v-1h1v1zm3-3h-1v-1h1v1zm-8 13h-1v-1h1v1zm3-2h-1v-2l1 1v1zm3-3h-2v-1h1l1 1zm2-2h-1v-2h1v2zm3-3h-2v-1h2v1zm-8 13h-1v-1h1v1zm3-3h-2v-1h1l1 1zm2-2h-1v-2l1 1v1zm3-3h-2v-1h2v1zm2-2h-1v-2h1v2zm-7 13h-2v-2h1l1 2zm2-3h-1v-1h1v1zm3-3h-2v-1h2v1zm2-2h-1v-2l1 1v1zm3-3h-1v-1h1v1zm16-121h-4v-4h4v4zm-25 25h-4v-4h4v4z" class="st0"/><path d="m272 430 36-36 36 36-36 36z" class="st0"/><path d="m261 430 47-47 47 47-47 47z" class="st0"/><path d="m293 430 15-15 14 15-14 14z" class="st0"/><path d="M284 432h-3v-4h3v4zm26-26h-4v-3h4v3zm-12 24h-1v-1h1v1zm3-2h-2v-1h2v1zm2-3h-1v-1h1v1zm3-2h-1v-2h1v2zm2-3h-1v-1h1v1zm-7 13h-2v-1h2v1zm2-3h-1v-1h1v1zm3-2h-1v-1h1v1zm2-3h-1v-1h1v1zm3-2h-1v-2h1v2zm-8 13h-1v-2h1v2zm3-3h-1v-1h1v1zm3-3h-2v-1h1l1 1zm2-2h-1v-1h1v1zm3-3h-2v-1h2v1zm-8 13h-1v-1h1v1zm3-2h-2v-2h1l1 2zm2-3h-1v-1h1v1zm3-3h-2v-1h2v1zm2-2h-1v-1h1v1zm-7 13h-2v-1h1l1 1zm2-3h-1v-1h1v1zm3-2h-2v-2h2v2zm2-3h-1v-1h1v1zm3-3h-1v-1h1v1zm-11 64v2m0 2v5m0 1v2m0-29v1m0 3v4m0 2v1m-15 3h2m3 0h4m1 0h2m6 0h1m3 0h5m1 0h2M150 125h-3v-4h3v4zm-25 25h-3v-4h3v4z" class="st0"/><path d="m87 123 36-36 36 36-36 36z" class="st0"/><path d="m76 123 47-47 47 47-47 47z" class="st0"/><path d="m109 123 14-15 15 15-15 14z" class="st0"/><path d="M100 125h-4v-4h4v4zm25-26h-3v-3h3v3zm-11 25h-2v-2h2v2zm2-3h-1v-1h1v1zm3-3h-2v-1h2v1zm2-2h-1v-2h1v2zm3-3h-1v-1h1v1zm-8 13h-1v-1h1v1zm3-2h-2v-2h2v2zm2-3h-1v-1h1v1zm3-3h-1v-1h1v1zm3-2h-2v-2h2v2zm-8 13h-2v-2h2v2zm2-3h-1v-1h1v1zm3-2h-1v-2h1v2zm3-3h-2v-1h2v1zm2-3h-1v-1h1v1zm-8 13h-1v-1h1v1zm3-2h-1v-2h1v2zm3-3h-2v-1h2v1zm2-2h-1v-2h1v2zm3-3h-1v-1h1v1zm-8 13h-1v-1h1v1zm3-3h-2v-1h2v1zm2-2h-1v-2h1v2zm3-3h-1v-1h1v1zm2-2h-1v-2h1v2zm139 1h-3v-4h3v4zm-25 25h-3v-4h3v4z" class="st0"/><path d="m210 123 36-36 36 36-36 36z" class="st0"/><path d="m199 123 47-47 47 47-47 47z" class="st0"/><path d="m232 123 14-15 15 15-15 14z" class="st0"/><path d="M223 125h-4v-4h4v4zm25-26h-3v-3h3v3zm-11 25h-2v-2h2v2zm2-3h-1v-1h1v1zm3-3h-1v-1h1v1zm2-2h-1v-2h1v2zm3-3h-1v-1h1v1zm-8 13h-1v-1h1v1zm3-2h-1v-2h1v2zm3-3h-2v-1h1l1 1zm2-3h-1v-1h1v1zm3-2h-2v-2h2v2zm-8 13h-1v-2h1v2zm3-3h-2v-1h1l1 1zm2-2h-1v-2h1v2zm3-3h-2v-1h2v1zm2-3h-1v-1h1v1zm-7 13h-2v-1h1l1 1zm2-2h-1v-2h1v2zm3-3h-2v-1h2v1zm2-2h-1v-2h1v2zm3-3h-1v-1h1v1zm-8 13h-1v-1h1v1zm3-3h-2v-1h2v1zm2-2h-1v-2h1v2zm3-3h-1v-1h1v1zm3-2h-2v-2h1l1 2zm-46 62h-4v-4h4v4zm-26 25h-3v-3h3v3z" class="st0"/><path d="m149 184 36-36 36 36-36 36z" class="st0"/><path d="m138 184 47-47 47 47-47 47z" class="st0"/><path d="m170 184 15-14 14 14-14 15z" class="st0"/><path d="M161 186h-3v-4h3v4zm25-25h-3v-4h3v4zm-11 24h-1v-1h1v1zm3-3h-2v-1h1l1 1zm2-2h-1v-2h1v2zm3-3h-2v-1h2v1zm2-3h-1v-1h1v1zm-7 13h-2v-1h1l1 1zm2-2h-1v-1h1v1zm3-3h-2v-1h2v1zm2-2h-1v-2h1v2zm3-3h-1v-1h1v1zm-8 13h-1v-1h1v1zm3-2h-2v-2h2v1zm2-3h-1v-1h1v1zm3-3h-1v-1h1v1zm3-2h-2v-2h1l1 2zm-8 13h-2v-2h2v2zm2-3h-1v-1h1v1zm3-2h-1v-2h1v1zm3-3h-2v-1h1l1 1zm2-3h-1v-1h1v1zm-8 13h-1v-1h1v1zm3-2h-1v-2h1v2zm3-3h-2v-1h1l1 1zm2-2h-1v-2h1v1zm3-3h-1v-1h1v1zm16-122h-4v-3h4v3zm-26 25h-3v-3h3v3z" class="st0"/><path d="m148 61 37-36 36 36-36 37z" class="st0"/><path d="m138 61 47-46 47 46-47 47z" class="st0"/><path d="m170 61 15-14 14 14-14 15z" class="st0"/><path d="M161 63h-3v-3h3v3zm25-25h-3v-4h3v4zm-11 24h-1v-1h1v1zm3-3h-2v-1h1l1 1zm2-2h-1v-2l1 1v1zm3-3h-2v-1h2v1zm2-2h-1v-2h1v2zm-7 13h-2v-2h1l1 2zm2-3h-1v-1h1v1zm3-3h-2v-1h2v1zm2-2h-1v-2l1 1v1zm3-3h-1v-1h1v1zm-8 13h-1v-1h1v1zm3-2h-2v-2h2v2zm2-3h-1v-1h1v1zm3-2h-1v-2h1v2zm3-3h-2v-2l1 1 1 1zm-8 13h-2v-1h2v1zm2-3h-1v-1h1v1zm3-2h-1v-2h1v2zm3-3h-2v-1h1l1 1zm2-2h-1v-2h1v2zm-8 13h-1v-2h1v2zm3-3h-1v-1h1v1zm3-3h-2v-1h1l1 1zm2-2h-1v-2h1v2zm3-3h-1v-1h1v1zm-11 64v1m0 3v4m0 2v1m0-29v2m0 3v4m0 1v2m-15 3h2m3 0h4m1 0h2m5 0h2m3 0h5m1 0h2M89 63h-4v-3h4v3zM63 88h-3v-3h3v3z" class="st0"/><path d="m25 61 36-36 36 36-36 37z" class="st0"/><path d="m15 61 46-47 47 47-47 47z" class="st0"/><path d="m47 61 15-14 14 14-14 15z" class="st0"/><path d="M38 63h-3v-3h3v3zm25-25h-3v-4h3v4zM52 62h-2v-1h2v1zm2-3h-1v-1h1v1zm3-2h-1v-2l1 1v1zm3-3h-2v-1h2v1zm2-2h-1v-2h1v2zm-8 13h-1v-2h1v2zm3-3h-1v-1h1v1zm3-3h-2v-1h2v1zm2-2h-1v-2l1 1v1zm3-3h-2l1-1h1v1zm-8 13h-1v-1h1v1zm3-2h-2v-2h2v2zm2-3h-1v-1h1v1zm3-2h-2l1-2h1v2zm2-3h-1v-2l1 1v1zm-7 13h-2v-1h2v1zm2-3h-1v-1h1v1zm3-2h-2l1-2h1v2zm2-3h-1v-1h1v1zm3-2h-1v-2h1v2zm-8 13h-1v-2h1v2zm3-3h-2l1-1h1v1zm2-3h-1v-1h1v1zm3-2h-1v-2h1v2zm3-3h-2v-1h2v1zm77 185h-3v-3h3v3zm-25 26h-3v-4h3v4z" class="st0"/><path d="m87 246 36-36 36 36-36 36z" class="st0"/><path d="m76 246 47-47 47 47-47 47z" class="st0"/><path d="m109 246 14-15 15 15-15 14z" class="st0"/><path d="M100 247h-4v-3h4v3zm25-25h-3v-3h3v3zm-11 24h-2v-1h2v1zm2-2h-1v-2h1v2zm3-3h-2v-1h2v1zm2-3h-1v-1h1v1zm3-2h-1v-1h1v1zm-8 13h-1v-1h1v1zm3-3h-2v-1h2v1zm2-2h-1v-2h1v2zm3-3h-1v-1h1v1zm3-3h-2v-1h2v1zm-8 14h-2v-2h2v1zm2-3h-1v-1h1v1zm3-3h-1v-1h1v1zm3-2h-2v-2h2v2zm2-3h-1v-1h1v1zm-8 13h-1v-1h1v1zm3-2h-1v-2h1v1zm3-3h-2v-1h2v1zm2-3h-1v-1h1v1zm3-2h-1v-2h1v2zm-8 13h-1v-2h1v2zm3-3h-2v-1h2v1zm2-2h-1v-2h1v1zm3-3h-1v-1h1v1zm2-3h-1v-1h1v1zm-45 63h-4v-4h4v4zm-26 25h-3v-3h3v3z" class="st0"/><path d="m25 307 36-36 37 36-37 36z" class="st0"/><path d="m15 307 47-47 46 47-46 47z" class="st0"/><path d="m47 307 14-14 15 14-15 14z" class="st0"/><path d="M38 309h-3v-4h3v4zm25-26h-3v-3h3v3zm-11 25h-2v-2h2v2zm2-3h-1v-1h1v1zm3-3h-1v-1h1v1zm3-2h-2v-1h2v1zm2-3h-1v-1h1v1zm-8 13h-1v-1h1v1zm3-2h-1v-2h1v2zm3-3h-2v-1h2v1zm2-3h-1v-1h1v1zm3-2h-2l1-1h1v1zm-8 13h-1v-1h1v1zm3-3h-2v-1h2v1zm2-2h-1v-2h1v2zm3-3h-2l1-1h1v1zm2-3h-1v-1h1v1zm-7 14h-2v-2h2v1zm2-3h-1v-1h1v1zm3-3h-2l1-1h1v1zm2-2h-1v-2h1v2zm3-3h-1v-1h1v1zm-8 13h-1v-1h1v1zm3-2h-2l1-2h1v1zm2-3h-1v-1h1v1zm3-3h-1v-1h1v1zm3-2h-2v-2h2v2zm16-122h-4v-4h4v4zm-26 25h-3v-3h3v3z" class="st0"/><path d="m25 184 36-36 37 36-37 36z" class="st0"/><path d="m15 184 47-47 46 47-46 47z" class="st0"/><path d="m47 184 14-14 15 14-15 15z" class="st0"/><path d="M38 186h-3v-4h3v4zm25-25h-3v-4h3v4zm-11 24h-2v-1h2v1zm2-3h-1v-1h1v1zm3-2h-1v-2h1v2zm3-3h-2v-1h2v1zm2-3h-1v-1h1v1zm-8 13h-1v-1h1v1zm3-2h-1v-1h1v1zm3-3h-2v-1h2v1zm2-2h-1v-2h1v2zm3-3h-2l1-1h1v1zm-8 13h-1v-1h1v1zm3-2h-2v-2h2v1zm2-3h-1v-1h1v1zm3-3h-2l1-1h1v1zm2-2h-1v-2h1v2zm-7 13h-2v-2h2v2zm2-3h-1v-1h1v1zm3-2h-2l1-2h1v1zm2-3h-1v-1h1v1zm3-3h-1v-1h1v1zm-8 13h-1v-1h1v1zm3-2h-2l1-2h1v2zm2-3h-1v-1h1v1zm3-2h-1v-2h1v1zm3-3h-2v-1h2v1zm-11 63v2m0 3v4m0 2v1m0-29v2m0 3v4m0 1v2m-15 3h2m2 0h5m1 0h2m5 0h2m3 0h4m2 0h1m136 308h-4v-3h4v3zm-26 26h-3v-4h3v4z" class="st0"/><path d="m149 553 36-37 36 37-36 36z" class="st0"/><path d="m232 553-47-47-47 47 47 47z" class="st0"/><path d="m170 553 15-15 14 15-14 14z" class="st0"/><path d="M161 554h-3v-3h3v3zm25-25h-3v-3h3v3zm-11 24h-1v-1h1v1zm3-2h-2v-2h1l1 2zm2-3h-1v-1h1v1zm3-3h-2v-1h2v1zm2-2h-1v-2l1 1v1zm-7 13h-2v-2l1 1 1 1zm2-3h-1v-1h1v1zm3-2h-2v-2h2v2zm2-3h-1v-1h1v1zm3-3h-1v-1h1v1zm-8 13h-1v-1h1v1zm3-2h-2v-2l2 1v1zm2-3h-1v-1h1v1zm3-2h-1v-2h1v2zm3-3h-2v-1h1l1 1zm-8 13h-2v-1h2v1zm2-3h-1v-1h1v1zm3-2h-1v-2l1 1v1zm3-3h-2v-1h1l1 1zm2-2h-1v-2h1v2zm-8 13h-1v-2h1v2zm3-3h-1v-1h1v1zm3-3h-2v-1h1l1 1zm2-2h-1v-2l1 1v1zm3-3h-1v-1h1v1zm-46-60h-3v-4h3v4zm-25 25h-3v-3h3v3z" class="st0"/><path d="m87 491 36-36 36 36-36 36z" class="st0"/><path d="m76 491 47-47 47 47-47 47z" class="st0"/><path d="m109 491 14-14 15 14-15 15z" class="st0"/><path d="M100 493h-4v-4h4v4zm25-25h-3v-4h3v4zm-11 24h-2v-1h2v1zm2-3h-1v-1h1v1zm3-2h-2v-2h2v2zm2-3h-1v-1h1v1zm3-3h-1v-1h1v1zm-8 14h-1v-2h1v1zm3-3h-2v-1h2v1zm2-3h-1v-1h1v1zm3-2h-1v-2h1v2zm3-3h-2v-1h2v1zm-8 13h-2v-1h2v1zm2-2h-1v-2h1v1zm3-3h-1v-1h1v1zm3-3h-2v-1h2v1zm2-2h-1v-2h1v2zm-8 13h-1v-2h1v2zm3-3h-1v-1h1v1zm3-2h-2v-2h2v1zm2-3h-1v-1h1v1zm3-3h-1v-1h1v1zm-8 13h-1v-1h1v1zm3-2h-2v-2h2v2zm2-3h-1v-1h1v1zm3-2h-1v-2h1v1zm2-3h-1v-1h1v1zm-45 62h-4v-3h4v3zm-26 26h-3v-4h3v4z" class="st0"/><path d="m25 553 36-36 37 36-37 36z" class="st0"/><path d="m109 553-47-47-47 47 47 47z" class="st0"/><path d="m47 553 14-15 15 15-15 14z" class="st0"/><path d="M38 554h-3v-3h3v3zm25-25h-3v-3h3v3zm-11 24h-2v-1h2v1zm2-2h-1v-2h1v2zm3-3h-1v-1h1v1zm3-3h-2v-1h2v1zm2-2h-1v-2l1 1v1zm-8 13h-1v-2l1 1v1zm3-3h-1v-1h1v1zm3-2h-2v-2h2v2zm2-3h-1v-1h1v1zm3-3h-2l1-1h1v1zm-8 13h-1v-1h1v1zm3-2h-2v-2l2 1v1zm2-3h-1v-1h1v1zm3-2h-2l1-2h1v2zm2-3h-1v-1h1v1zm-7 13h-2v-1h2v1zm2-3h-1v-1h1v1zm3-2h-2l1-2 1 1v1zm2-3h-1v-1h1v1zm3-2h-1v-2h1v2zm-8 13h-1v-2h1v2zm3-3h-2l1-1h1v1zm2-3h-1v-1h1v1zm3-2h-1v-2l1 1v1zm3-3h-2v-1h2v1zm16-121h-4v-4h4v4zm-26 25h-3v-4h3v4z" class="st0"/><path d="m25 430 36-36 37 36-37 36z" class="st0"/><path d="m14 430 47-47 47 47-47 47z" class="st0"/><path d="m47 430 14-15 15 15-15 14z" class="st0"/><path d="M38 432h-3v-4h3v4zm25-26h-3v-3h3v3zm-11 24h-2v-1h2v1zm2-2h-1v-1h1v1zm3-3h-1v-1h1v1zm3-2h-2v-2h2v2zm2-3h-1v-1h1v1zm-8 13h-1v-1h1v1zm3-3h-1v-1h1v1zm3-2h-2v-1h2v1zm2-3h-1v-1h1v1zm3-2h-2l1-2h1v2zm-8 13h-1v-2h1v2zm3-3h-2v-1h2v1zm2-3h-1v-1h1v1zm3-2h-2l1-1h1v1zm2-3h-1v-1h1v1zm-7 13h-2v-1h2v1zm2-2h-1v-2h1v2zm3-3h-2l1-1h1v1zm2-3h-1v-1h1v1zm3-2h-1v-1h1v1zm-8 13h-1v-1h1v1zm3-3h-2l1-1h1v1zm2-2h-1v-2h1v2zm3-3h-1v-1h1v1zm3-3h-2v-1h2v1zm-11 64v2m0 2v5m0 1v2m0-29v1m0 3v4m0 2v1m-15 3h2m2 0h5m1 0h2m5 0h2m3 0h4m2 0h1m567-121h-4v-3h4v3zm-25 25h-4v-3h4v3z" class="st0"/><path d="m580 368 36-36 36 36-36 37z" class="st0"/><path d="m569 368 47-47 47 47-47 47z" class="st0"/><path d="m601 368 15-14 14 14-14 15z" class="st0"/><path d="M592 370h-3v-3h3v3zm26-25h-4v-4h4v4zm-12 24h-1v-1h1v1zm3-3h-2v-1h2v1zm2-2h-1v-1h1v1zm3-3h-1v-1h1v1zm3-2h-2v-2h2v2zm-8 13h-2v-2h2v2zm2-3h-1v-1h1v1zm3-3h-1v-1h1v1zm3-2h-2v-1h2v1zm2-3h-1v-1h1v1zm-8 13h-1v-1h1v1zm3-2h-1v-2h1v2zm3-3h-2v-1h2v1zm2-2h-1v-2h1v1zm3-3h-2v-1h2v1zm-8 13h-1v-1h1v1zm3-3h-2v-1h2v1zm2-2h-1v-2h1v2zm3-3h-2v-1h2v1zm2-2h-1v-2h1v1zm-7 13h-2v-2h2v1zm2-3h-1v-1h1v1zm3-3h-2v-1h2v1zm2-2h-1v-2h1v2zm3-3h-1v-1h1v1zm139 1h-4v-3h4v3zm-25 25h-4v-3h4v3z" class="st0"/><path d="m703 368 36-36 36 36-36 37z" class="st0"/><path d="m692 369 47-47 47 47-47 46z" class="st0"/><path d="m724 368 15-14 14 14-14 15z" class="st0"/><path d="M715 370h-3v-3h3v3zm26-25h-4v-4h4v4zm-12 24h-1v-1h1v1zm3-3h-2l1-1h1v1zm2-2h-1v-1h1v1zm3-3h-1v-1h1v1zm3-2h-2v-2h2v2zm-8 13h-2l1-2h1v2zm2-3h-1v-1h1v1zm3-3h-1v-1h1v1zm3-2h-2v-1h2v1zm2-3h-1v-1h1v1zm-8 13h-1v-1h1v1zm3-2h-1v-2h1v2zm3-3h-2v-1h2v1zm2-2h-1v-2h1v1zm3-3h-1v-1h1v1zm-8 13h-1v-1h1v1zm3-3h-2v-1h2v1zm2-2h-1v-2h1v2zm3-3h-1v-1h1v1zm3-2h-2v-2h2v1zm-8 13h-2v-2h2v1zm2-3h-1v-1h1v1zm3-3h-1v-1h1v1zm3-2h-2v-2h2v2zm2-3h-1v-1h1v1zm-46 63h-3v-4h3v4zm-25 25h-4v-4h4v4z" class="st0"/><path d="m641 430 36-36 36 36-36 36z" class="st0"/><path d="m630 430 47-47 47 47-47 47z" class="st0"/><path d="m663 430 14-15 15 15-15 14z" class="st0"/><path d="M654 432h-4v-4h4v4zm25-26h-4v-3h4v3zm-12 24h-1v-1h1v1zm3-2h-1v-1h1v1zm3-3h-2v-1h2v1zm2-2h-1v-2h1v2zm3-3h-1v-1h1v1zm-8 13h-1v-1h1v1zm3-3h-2v-1h2v1zm2-2h-1v-1h1v1zm3-3h-1v-1h1v1zm3-2h-2v-2h2v2zm-8 13h-2v-2h2v2zm2-3h-1v-1h1v1zm3-3h-1v-1h1v1zm3-2h-2v-1h2v1zm2-3h-1v-1h1v1zm-8 13h-1v-1h1v1zm3-2h-1v-2h1v2zm3-3h-2v-1h2v1zm2-3h-1v-1h1v1zm3-2h-2v-1h2v1zm-8 13h-1v-1h1v1zm3-3h-2v-1h2v1zm2-2h-1v-2h1v2zm3-3h-2v-1h2v1zm2-3h-1v-1h1v1zm16-121h-3v-4h3v4zm-25 25h-4v-3h4v3z" class="st0"/><path d="m641 307 36-36 36 36-36 36z" class="st0"/><path d="m630 307 47-47 47 47-47 47z" class="st0"/><path d="m663 307 14-14 15 14-15 14z" class="st0"/><path d="M654 309h-4v-4h4v4zm25-26h-4v-3h4v3zm-12 25h-1v-2h1v2zm3-3h-1v-1h1v1zm3-3h-2v-1h2v1zm2-2h-1v-1h1v1zm3-3h-1v-1h1v1zm-8 13h-1v-1h1v1zm3-2h-2v-2h2v2zm2-3h-1v-1h1v1zm3-3h-1v-1h1v1zm3-2h-2v-1h2v1zm-8 13h-2v-1h2v1zm2-3h-1v-1h1v1zm3-2h-1v-2h1v2zm3-3h-2v-1h2v1zm2-3h-1v-1h1v1zm-8 14h-1v-2h1v1zm3-3h-1v-1h1v1zm3-3h-2v-1h2v1zm2-2h-1v-2h1v2zm3-3h-2v-1h2v1zm-8 13h-1v-1h1v1zm3-2h-2v-2h2v1zm2-3h-1v-1h1v1zm3-3h-2v-1h2v1zm2-2h-1v-2h1v2zm-11 63v2m0 3v4m0 1v2m0-29v1m0 3v5m0 1v2m-14 2h1m3 0h4m2 0h1m6 0h2m3 0h4m2 0h1m197 2h-3v-3h3v3zm-25 25h-4v-3h4v3z" class="st0"/><path d="m826 368 36-36 36 36-36 37z" class="st0"/><path d="m815 368 47-47 47 47-47 47z" class="st0"/><path d="m848 368 14-14 14 14-14 15z" class="st0"/><path d="M839 370h-4v-3h4v3zm25-25h-4v-4h4v4zm-12 24h-1v-1h1v1zm3-3h-1v-1h1v1zm3-2h-2v-1h2v1zm2-3h-1v-1h1v1zm3-2h-2l1-2h1v2zm-8 13h-1v-2h1v2zm3-3h-2v-1h2v1zm2-3h-1v-1h1v1zm3-2h-2l1-1h1v1zm2-3h-1v-1h1v1zm-7 13h-2v-1h2v1zm2-2h-1v-2h1v2zm3-3h-2l1-1h1v1zm2-2h-1v-2h1v1zm3-3h-1v-1h1v1zm-8 13h-1v-1h1v1zm3-3h-2l1-1h1v1zm2-2h-1v-2h1v2zm3-3h-1v-1h1v1zm3-2h-2v-2h2v1zm-8 13h-2l1-2h1v1zm2-3h-1v-1h1v1zm3-3h-1v-1h1v1zm3-2h-2v-2h2v2zm2-3h-1v-1h1v1zm139 1h-3v-3h3v3zm-25 25h-4v-3h4v3z" class="st0"/><path d="m949 368 36-36 36 36-36 37z" class="st0"/><path d="m938 369 47-47 47 47-47 46z" class="st0"/><path d="m971 368 14-14 15 14-15 15z" class="st0"/><path d="M962 370h-4v-3h4v3zm25-25h-3v-4h3v4zm-11 24h-2v-1h2v1zm2-3h-1v-1h1v1zm3-2h-2v-1h2v1zm2-3h-1v-1h1v1zm3-2h-1v-2h1v2zm-8 13h-1v-2h1v2zm3-3h-2v-1h2v1zm2-3h-1v-1h1v1zm3-2h-1v-1h1v1zm3-3h-2v-1h2v1zm-8 13h-2v-1h2v1zm2-2h-1v-2h1v2zm3-3h-1v-1h1v1zm3-2h-2v-2h2v1zm2-3h-1v-1h1v1zm-8 13h-1v-1h1v1zm3-3h-1v-1h1v1zm3-2h-2v-2h2v2zm2-3h-1v-1h1v1zm3-2h-2l1-2h1v1zm-8 13h-1v-2h1v1zm3-3h-2v-1h2v1zm2-3h-1v-1h1v1zm3-2h-2l1-2h1v2zm2-3h-1v-1h1v1zm-45 63h-4v-4h4v4zm-26 25h-3v-4h3v4z" class="st0"/><path d="m887 430 36-36 37 36-37 36z" class="st0"/><path d="m876 430 47-47 47 47-47 47z" class="st0"/><path d="m909 430 14-15 15 15-15 14z" class="st0"/><path d="M900 432h-4v-4h4v4zm25-26h-3v-3h3v3zm-11 24h-2v-1h2v1zm2-2h-1v-1h1v1zm3-3h-1v-1h1v1zm3-2h-2v-2h2v2zm2-3h-1v-1h1v1zm-8 13h-1v-1h1v1zm3-3h-1v-1h1v1zm3-2h-2v-1h2v1zm2-3h-1v-1h1v1zm3-2h-2l1-2h1v2zm-8 13h-1v-2h1v2zm3-3h-2v-1h2v1zm2-3h-1v-1h1v1zm3-2h-2l1-1h1v1zm2-3h-1v-1h1v1zm-7 13h-2v-1h2v1zm2-2h-1v-2h1v2zm3-3h-2l1-1h1v1zm2-3h-1v-1h1v1zm3-2h-1v-1h1v1zm-8 13h-1v-1h1v1zm3-3h-2l1-1h1v1zm2-2h-1v-2h1v2zm3-3h-1v-1h1v1zm3-3h-2v-1h2v1zm16-121h-4v-4h4v4zm-26 25h-3v-3h3v3z" class="st0"/><path d="m887 307 36-36 37 36-37 36z" class="st0"/><path d="m876 307 47-47 47 47-47 47z" class="st0"/><path d="m909 307 14-14 15 14-15 14z" class="st0"/><path d="M900 309h-4v-4h4v4zm25-26h-3v-3h3v3zm-11 25h-2v-2h2v2zm2-3h-1v-1h1v1zm3-3h-1v-1h1v1zm3-2h-2v-1h2v1zm2-3h-1v-1h1v1zm-8 13h-1v-1h1v1zm3-2h-1v-2h1v2zm3-3h-2v-1h2v1zm2-3h-1v-1h1v1zm3-2h-2l1-1h1v1zm-8 13h-1v-1h1v1zm3-3h-2v-1h2v1zm2-2h-1v-2h1v2zm3-3h-2l1-1h1v1zm2-3h-1v-1h1v1zm-7 14h-2v-2h2v1zm2-3h-1v-1h1v1zm3-3h-2l1-1h1v1zm2-2h-1v-2h1v2zm3-3h-1v-1h1v1zm-8 13h-1v-1h1v1zm3-2h-2l1-2h1v1zm2-3h-1v-1h1v1zm3-3h-1v-1h1v1zm3-2h-2v-2h2v2zm-11 63v2m0 3v4m0 1v2m0-29v1m0 3v5m0 1v2m-15 2h2m2 0h5m1 0h2m5 0h2m3 0h4m2 0h1M766 247h-4v-3h4v3zm-25 26h-4v-4h4v4z" class="st0"/><path d="m703 246 36-36 36 36-36 36z" class="st0"/><path d="m692 246 47-47 47 47-47 47z" class="st0"/><path d="m724 246 15-15 14 15-14 14z" class="st0"/><path d="M715 247h-3v-3h3v3zm26-25h-4v-3h4v3zm-12 24h-1v-1h1v1zm3-2h-2l1-2h1v2zm2-3h-1v-1h1v1zm3-3h-1v-1h1v1zm3-2h-2v-1h2v1zm-8 13h-2l1-1h1v1zm2-3h-1v-1h1v1zm3-2h-1v-2h1v2zm3-3h-2v-1h2v1zm2-3h-1v-1h1v1zm-8 14h-1v-2h1v1zm3-3h-1v-1h1v1zm3-3h-2v-1h2v1zm2-2h-1v-2h1v2zm3-3h-1v-1h1v1zm-8 13h-1v-1h1v1zm3-2h-2v-2h2v1zm2-3h-1v-1h1v1zm3-3h-1v-1h1v1zm3-2h-2v-2h2v2zm-8 13h-2v-2h2v2zm2-3h-1v-1h1v1zm3-2h-1v-2h1v1zm3-3h-2v-1h2v1zm2-3h-1v-1h1v1zm139 1h-3v-3h3v3zm-25 26h-4v-4h4v4z" class="st0"/><path d="m826 246 36-36 36 36-36 36z" class="st0"/><path d="m815 246 47-47 47 47-47 47z" class="st0"/><path d="m848 246 14-15 14 15-14 14z" class="st0"/><path d="M839 247h-4v-3h4v3zm25-25h-4v-3h4v3zm-12 24h-1v-1h1v1zm3-2h-1v-2h1v2zm3-3h-2v-1h2v1zm2-3h-1v-1h1v1zm3-2h-2l1-1h1v1zm-8 13h-1v-1h1v1zm3-3h-2v-1h2v1zm2-2h-1v-2h1v2zm3-3h-2l1-1h1v1zm2-3h-1v-1h1v1zm-7 14h-2v-2h2v1zm2-3h-1v-1h1v1zm3-3h-2l1-1h1v1zm2-2h-1v-2h1v2zm3-3h-1v-1h1v1zm-8 13h-1v-1h1v1zm3-2h-2l1-2h1v1zm2-3h-1v-1h1v1zm3-3h-1v-1h1v1zm3-2h-2v-2h2v2zm-8 13h-2l1-2h1v2zm2-3h-1v-1h1v1zm3-2h-1v-2h1v1zm3-3h-2v-1h2v1zm2-3h-1v-1h1v1zm-46 63h-3v-4h3v4zm-25 25h-3v-3h3v3z" class="st0"/><path d="m764 307 36-36 36 36-36 36z" class="st0"/><path d="m753 307 47-47 47 47-47 47z" class="st0"/><path d="m786 307 14-14 15 14-15 14z" class="st0"/><path d="M777 309h-4v-4h4v4zm25-26h-3v-3h3v3zm-11 25h-2v-2h2v2zm2-3h-1v-1h1v1zm3-3h-2l1-1h1v1zm2-2h-1v-1h1v1zm3-3h-1v-1h1v1zm-8 13h-1v-1h1v1zm3-2h-2l1-2h1v2zm2-3h-1v-1h1v1zm3-3h-1v-1h1v1zm3-2h-2v-1h2v1zm-8 13h-2l1-1h1v1zm2-3h-1v-1h1v1zm3-2h-1v-2h1v2zm3-3h-2v-1h2v1zm2-3h-1v-1h1v1zm-8 14h-1v-2h1v1zm3-3h-1v-1h1v1zm3-3h-2v-1h2v1zm2-2h-1v-2h1v2zm3-3h-1v-1h1v1zm-8 13h-1v-1h1v1zm3-2h-2v-2h2v1zm2-3h-1v-1h1v1zm3-3h-1v-1h1v1zm3-2h-2v-2h2v2zm15-122h-3v-4h3v4zm-25 25h-3v-3h3v3z" class="st0"/><path d="m764 184 36-36 36 36-36 36z" class="st0"/><path d="m753 184 47-47 47 47-47 47z" class="st0"/><path d="m786 184 14-14 15 14-15 15z" class="st0"/><path d="M777 186h-4v-4h4v4zm25-25h-3v-4h3v4zm-11 24h-2v-1h2v1zm2-3h-1v-1h1v1zm3-2h-2l1-2h1v2zm2-3h-1v-1h1v1zm3-3h-1v-1h1v1zm-8 13h-1v-1h1v1zm3-2h-2l1-1h1v1zm2-3h-1v-1h1v1zm3-2h-1v-2h1v2zm3-3h-2v-1h2v1zm-8 13h-2l1-1h1v1zm2-2h-1v-2h1v1zm3-3h-1v-1h1v1zm3-3h-2v-1h2v1zm2-2h-1v-2h1v2zm-8 13h-1v-2h1v2zm3-3h-1v-1h1v1zm3-2h-2v-2h2v1zm2-3h-1v-1h1v1zm3-3h-1v-1h1v1zm-8 13h-1v-1h1v1zm3-2h-2v-2h2v2zm2-3h-1v-1h1v1zm3-2h-1v-2h1v1zm3-3h-2v-1h2v1zm-12 63v2m0 3v4m0 2v1m0-29v2m0 3v4m0 1v2m-14 3h1m3 0h4m2 0h1m6 0h2m3 0h4m2 0h1m232 2v2m0 3v4m0 2v1m0-29v2m0 3v4m0 1v2m-15 3h2m3 0h4m1 0h2m5 0h2m3 0h4m2 0h1m232 2v2m0 3v4m0 2v1m0-29v2m0 3v4m0 1v2m-15 3h2m3 0h4m1 0h2m6 0h1m3 0h5m1 0h2M766 493h-4v-4h4v4zm-25 25h-4v-3h4v3z" class="st0"/><path d="m703 491 36-36 36 36-36 36z" class="st0"/><path d="m692 491 47-47 47 47-47 47z" class="st0"/><path d="m725 491 14-14 14 14-14 15z" class="st0"/><path d="M715 493h-3v-4h3v4zm26-25h-4v-4h4v4zm-12 24h-1v-1h1v1zm3-3h-2l1-1h1v1zm2-2h-1v-2h1v2zm3-3h-1v-1h1v1zm3-3h-2v-1h2v1zm-8 14h-2l1-2h1v1zm2-3h-1v-1h1v1zm3-3h-1v-1h1v1zm3-2h-2v-2h2v2zm2-3h-1v-1h1v1zm-8 13h-1v-1h1v1zm3-2h-1v-2h1v1zm3-3h-2v-1h2v1zm2-3h-1v-1h1v1zm3-2h-1v-2h1v2zm-8 13h-1v-2h1v2zm3-3h-2v-1h2v1zm2-2h-1v-2h1v1zm3-3h-1v-1h1v1zm3-3h-2v-1h2v1zm-8 13h-2v-1h2v1zm2-2h-1v-2h1v2zm3-3h-1v-1h1v1zm3-2h-2v-2h2v1zm2-3h-1v-1h1v1zm139 1h-3v-4h3v4zm-25 25h-4v-3h4v3z" class="st0"/><path d="m826 491 36-36 36 36-36 36z" class="st0"/><path d="m815 491 47-47 47 47-47 47z" class="st0"/><path d="m848 491 14-14 14 14-14 15z" class="st0"/><path d="M839 493h-4v-4h4v4zm25-25h-4v-4h4v4zm-12 24h-1v-1h1v1zm3-3h-1v-1h1v1zm3-2h-2v-2h2v2zm2-3h-1v-1h1v1zm3-3h-2l1-1h1v1zm-8 14h-1v-2h1v1zm3-3h-2v-1h2v1zm2-3h-1v-1h1v1zm3-2h-2l1-2h1v2zm2-3h-1v-1h1v1zm-7 13h-2v-1h2v1zm2-2h-1v-2h1v1zm3-3h-2l1-1h1v1zm2-3h-1v-1h1v1zm3-2h-1v-2h1v2zm-8 13h-1v-2h1v2zm3-3h-2l1-1h1v1zm2-2h-1v-2h1v1zm3-3h-1v-1h1v1zm3-3h-2v-1h2v1zm-8 13h-2l1-1h1v1zm2-2h-1v-2h1v2zm3-3h-1v-1h1v1zm3-2h-2v-2h2v1zm2-3h-1v-1h1v1zm-46 62h-3v-3h3v3zm-25 26h-3v-4h3v4z" class="st0"/><path d="m764 553 36-37 36 37-36 36z" class="st0"/><path d="m847 553-47-47-47 47 47 47z" class="st0"/><path d="m786 552 14-14 15 14-15 15z" class="st0"/><path d="M777 554h-4v-3h4v3zm25-25h-3v-3h3v3zm-11 24h-2v-1h2v1zm2-2h-1v-2h1v2zm3-3h-2l1-1h1v1zm2-3h-1v-1h1v1zm3-2h-1v-2l1 1v1zm-8 13h-1v-2l1 1v1zm3-3h-2l1-1h1v1zm2-2h-1v-2h1v2zm3-3h-1v-1h1v1zm3-3h-2v-1h2v1zm-8 13h-2l1-1h1v1zm2-2h-1v-2l1 1v1zm3-3h-1v-1h1v1zm3-2h-2v-2h2v2zm2-3h-1v-1h1v1zm-8 13h-1v-1h1v1zm3-3h-1v-1h1v1zm3-2h-2v-2l2 1v1zm2-3h-1v-1h1v1zm3-2h-1v-2h1v2zm-8 13h-1v-2h1v2zm3-3h-2v-1h2v1zm2-3h-1v-1h1v1zm3-2h-1v-2l1 1v1zm3-3h-2v-1h2v1zm15-121h-3v-4h3v4zm-25 25h-3v-4h3v4z" class="st0"/><path d="m764 430 36-36 36 36-36 36z" class="st0"/><path d="m753 430 47-47 47 47-47 47z" class="st0"/><path d="m786 430 14-15 15 15-15 14z" class="st0"/><path d="M777 432h-4v-4h4v4zm25-26h-3v-3h3v3zm-11 24h-2v-1h2v1zm2-2h-1v-1h1v1zm3-3h-2l1-1h1v1zm2-2h-1v-2h1v2zm3-3h-1v-1h1v1zm-8 13h-1v-1h1v1zm3-3h-2l1-1h1v1zm2-2h-1v-1h1v1zm3-3h-1v-1h1v1zm3-2h-2v-2h2v2zm-8 13h-2l1-2h1v2zm2-3h-1v-1h1v1zm3-3h-1v-1h1v1zm3-2h-2v-1h2v1zm2-3h-1v-1h1v1zm-8 13h-1v-1h1v1zm3-2h-1v-2h1v2zm3-3h-2v-1h2v1zm2-3h-1v-1h1v1zm3-2h-1v-1h1v1zm-8 13h-1v-1h1v1zm3-3h-2v-1h2v1zm2-2h-1v-2h1v2zm3-3h-1v-1h1v1zm3-3h-2v-1h2v1zm-12 64v2m0 2v5m0 1v2m0-29v1m0 3v4m0 2v1m-14 3h1m3 0h4m2 0h1m6 0h2m3 0h4m2 0h1m232 3v2m0 2v5m0 1v2m0-29v1m0 3v4m0 2v1m-15 3h2m2 0h5m1 0h2m5 0h2m3 0h4m2 0h1m232 3v2m0 2v5m0 1v2m0-29v1m0 3v4m0 2v1m-15 3h2m3 0h4m1 0h2m6 0h1m3 0h5m1 0h2M889 125h-4v-4h4v4zm-25 25h-4v-4h4v4z" class="st0"/><path d="m826 123 36-36 36 36-36 36z" class="st0"/><path d="m815 123 47-47 47 47-47 47z" class="st0"/><path d="m847 123 15-15 14 15-14 14z" class="st0"/><path d="M838 125h-3v-4h3v4zm26-26h-4v-3h4v3zm-12 25h-1v-2h1v2zm3-3h-2l1-1h1v1zm2-3h-1v-1h1v1zm3-2h-1v-2h1v2zm3-3h-2v-1h2v1zm-8 13h-2l1-1h1v1zm2-2h-1v-2h1v2zm3-3h-1v-1h1v1zm3-3h-2v-1h2v1zm2-2h-1v-2h1v2zm-8 13h-1v-2h1v2zm3-3h-1v-1h1v1zm3-2h-2v-2h2v2zm2-3h-1v-1h1v1zm3-3h-1v-1h1v1zm-8 13h-1v-1h1v1zm3-2h-2v-2h2v2zm2-3h-1v-1h1v1zm3-2h-1v-2h1v2zm3-3h-2v-1h2v1zm-8 13h-2v-1h2v1zm2-3h-1v-1h1v1zm3-2h-1v-2h1v2zm3-3h-2v-1h2v1zm2-2h-1v-2h1v2zm139 1h-3v-4h3v4zm-25 25h-4v-4h4v4z" class="st0"/><path d="m949 123 36-36 36 36-36 36z" class="st0"/><path d="m938 123 47-47 47 47-47 47z" class="st0"/><path d="m971 123 14-15 14 15-14 14z" class="st0"/><path d="M962 125h-4v-4h4v4zm25-26h-4v-3h4v3zm-12 25h-1v-2h1v2zm3-3h-1v-1h1v1zm3-3h-2v-1h2v1zm2-2h-1v-2h1v2zm3-3h-2l1-1h1v1zm-8 13h-1v-1h1v1zm3-2h-2v-2h2v2zm2-3h-1v-1h1v1zm3-3h-2l1-1h1v1zm2-2h-1v-2h1v2zm-7 13h-2v-2h2v2zm2-3h-1v-1h1v1zm3-2h-2l1-2h1v2zm2-3h-1v-1h1v1zm3-3h-1v-1h1v1zm-8 13h-1v-1h1v1zm3-2h-2l1-2h1v2zm2-3h-1v-1h1v1zm3-2h-1v-2h1v2zm3-3h-2v-1h2v1zm-8 13h-2l1-1h1v1zm2-3h-1v-1h1v1zm3-2h-1v-2h1v2zm3-3h-2v-1h2v1zm2-2h-1v-2h1v2zm-46 62h-3v-4h3v4zm-25 25h-3v-3h3v3z" class="st0"/><path d="m887 184 36-36 36 36-36 36z" class="st0"/><path d="m876 184 47-47 47 47-47 47z" class="st0"/><path d="m909 184 14-14 15 14-15 15z" class="st0"/><path d="M900 186h-4v-4h4v4zm25-25h-3v-4h3v4zm-11 24h-2v-1h2v1zm2-3h-1v-1h1v1zm3-2h-2l1-2h1v2zm2-3h-1v-1h1v1zm3-3h-1v-1h1v1zm-8 13h-1v-1h1v1zm3-2h-2l1-1h1v1zm2-3h-1v-1h1v1zm3-2h-1v-2h1v2zm3-3h-2v-1h2v1zm-8 13h-2l1-1h1v1zm2-2h-1v-2h1v1zm3-3h-1v-1h1v1zm3-3h-2v-1h2v1zm2-2h-1v-2h1v2zm-8 13h-1v-2h1v2zm3-3h-1v-1h1v1zm3-2h-2v-2h2v1zm2-3h-1v-1h1v1zm3-3h-1v-1h1v1zm-8 13h-1v-1h1v1zm3-2h-2v-2h2v2zm2-3h-1v-1h1v1zm3-2h-1v-2h1v1zm3-3h-2v-1h2v1zm15-122h-3v-3h3v3zm-25 25h-3v-3h3v3z" class="st0"/><path d="m887 61 36-36 36 36-36 37z" class="st0"/><path d="m876 62 47-47 47 47-47 46z" class="st0"/><path d="m909 61 14-14 15 14-15 15z" class="st0"/><path d="M900 63h-4v-3h4v3zm25-25h-3v-4h3v4zm-11 24h-2v-1h2v1zm2-3h-1v-1h1v1zm3-2h-2l1-2 1 1v1zm2-3h-1v-1h1v1zm3-2h-1v-2h1v2zm-8 13h-1v-2h1v2zm3-3h-2l1-1h1v1zm2-3h-1v-1h1v1zm3-2h-1v-2l1 1v1zm3-3h-2v-1h2v1zm-8 13h-2l1-1h1v1zm2-2h-1v-2h1v2zm3-3h-1v-1h1v1zm3-2h-2v-2h2v2zm2-3h-1v-2l1 1v1zm-8 13h-1v-1h1v1zm3-3h-1v-1h1v1zm3-2h-2v-2h2v2zm2-3h-1v-1h1v1zm3-2h-1v-2h1v2zm-8 13h-1v-2h1v2zm3-3h-2v-1h2v1zm2-3h-1v-1h1v1zm3-2h-1v-2h1v2zm3-3h-2v-1h2v1zm-12 64v1m0 3v4m0 2v1m0-29v2m0 3v4m0 1v2m-14 3h1m3 0h4m2 0h1m6 0h2m3 0h4m2 0h1m74 124h-3v-3h3v3zm-25 26h-4v-4h4v4z" class="st0"/><path d="m949 246 36-36 36 36-36 36z" class="st0"/><path d="m938 246 47-47 47 47-47 47z" class="st0"/><path d="m971 246 14-15 14 15-14 14z" class="st0"/><path d="M962 247h-4v-3h4v3zm25-25h-4v-3h4v3zm-12 24h-1v-1h1v1zm3-2h-1v-2h1v2zm3-3h-2v-1h2v1zm2-3h-1v-1h1v1zm3-2h-2l1-1h1v1zm-8 13h-1v-1h1v1zm3-3h-2v-1h2v1zm2-2h-1v-2h1v2zm3-3h-2l1-1h1v1zm2-3h-1v-1h1v1zm-7 14h-2v-2h2v1zm2-3h-1v-1h1v1zm3-3h-2l1-1h1v1zm2-2h-1v-2h1v2zm3-3h-1v-1h1v1zm-8 13h-1v-1h1v1zm3-2h-2l1-2h1v1zm2-3h-1v-1h1v1zm3-3h-1v-1h1v1zm3-2h-2v-2h2v2zm-8 13h-2l1-2h1v2zm2-3h-1v-1h1v1zm3-2h-1v-2h1v1zm3-3h-2v-1h2v1zm2-3h-1v-1h1v1zm-46 308h-3v-3h3v3zm-25 26h-3v-4h3v4z" class="st0"/><path d="m887 553 36-37 36 37-36 36z" class="st0"/><path d="m970 553-47-47-47 47 47 47z" class="st0"/><path d="m909 552 14-14 15 14-15 15z" class="st0"/><path d="M900 554h-4v-3h4v3zm25-25h-3v-3h3v3zm-11 24h-2v-1h2v1zm2-2h-1v-2h1v2zm3-3h-2l1-1h1v1zm2-3h-1v-1h1v1zm3-2h-1v-2l1 1v1zm-8 13h-1v-2l1 1v1zm3-3h-2l1-1h1v1zm2-2h-1v-2h1v2zm3-3h-1v-1h1v1zm3-3h-2v-1h2v1zm-8 13h-2l1-1h1v1zm2-2h-1v-2l1 1v1zm3-3h-1v-1h1v1zm3-2h-2v-2h2v2zm2-3h-1v-1h1v1zm-8 13h-1v-1h1v1zm3-3h-1v-1h1v1zm3-2h-2v-2l2 1v1zm2-3h-1v-1h1v1zm3-2h-1v-2h1v2zm-8 13h-1v-2h1v2zm3-3h-2v-1h2v1zm2-3h-1v-1h1v1zm3-2h-1v-2l1 1v1zm3-3h-2v-1h2v1zm77-60h-3v-4h3v4zm-25 25h-4v-3h4v3z" class="st0"/><path d="m949 491 36-36 36 36-36 36z" class="st0"/><path d="m938 491 47-47 47 47-47 47z" class="st0"/><path d="m971 491 14-14 15 14-15 15z" class="st0"/><path d="M962 493h-4v-4h4v4zm25-25h-4v-4h4v4zm-12 24h-1v-1h1v1zm3-3h-1v-1h1v1zm3-2h-2v-2h2v2zm2-3h-1v-1h1v1zm3-3h-2l1-1h1v1zm-8 14h-1v-2h1v1zm3-3h-2v-1h2v1zm2-3h-1v-1h1v1zm3-2h-2l1-2h1v2zm2-3h-1v-1h1v1zm-7 13h-2v-1h2v1zm2-2h-1v-2h1v1zm3-3h-2l1-1h1v1zm2-3h-1v-1h1v1zm3-2h-1v-2h1v2zm-8 13h-1v-2h1v2zm3-3h-2l1-1h1v1zm2-2h-1v-2h1v1zm3-3h-1v-1h1v1zm3-3h-2v-1h2v1zm-8 13h-2l1-1h1v1zm2-2h-1v-2h1v2zm3-3h-1v-1h1v1zm3-2h-2v-2h2v1zm2-3h-1v-1h1v1zm139-122h-3v-3h3v3zm-25 25h-3v-3h3v3z" class="st0"/><path d="m1072 368 36-36 36 36-36 37z" class="st0"/><path d="m1061 369 47-47 47 47-47 46z" class="st0"/><path d="m1094 368 14-14 15 14-15 15z" class="st0"/><path d="M1085 370h-4v-3h4v3zm25-25h-3v-4h3v4zm-11 24h-2v-1h2v1zm2-3h-1v-1h1v1zm3-2h-2l1-1h1v1zm2-3h-1v-1h1v1zm3-2h-1v-2h1v2zm-8 13h-1v-2h1v2zm3-3h-2l1-1h1v1zm2-3h-1v-1h1v1zm3-2h-1v-1h1v1zm3-3h-2v-1h2v1zm-8 13h-2l1-1h1v1zm3-2h-2v-2h2v2zm2-3h-1v-1h1v1zm3-2h-2v-2h2v1zm2-3h-1v-1h1v1zm-7 13h-2v-1h2v1zm2-3h-1v-1h1v1zm3-2h-2v-2h2v2zm2-3h-1v-1h1v1zm3-2h-1v-2h1v1zm-8 13h-1v-2h1v1zm3-3h-2v-1h2v1zm2-3h-1v-1h1v1zm3-2h-1v-2h1v2zm3-3h-2v-1h2v1zm-46 63h-4v-4h4v4zm-26 25h-3v-4h3v4z" class="st0"/><path d="m1011 430 36-36 36 36-36 36z" class="st0"/><path d="m1000 430 47-47 47 47-47 47z" class="st0"/><path d="m1032 430 15-15 14 15-14 14z" class="st0"/><path d="M1023 432h-3v-4h3v4zm25-26h-3v-3h3v3zm-11 24h-1v-1h1v1zm3-2h-2v-1h2v1zm2-3h-1v-1h1v1zm3-2h-2v-2h2v2zm2-3h-1v-1h1v1zm-7 13h-2v-1h2v1zm2-3h-1v-1h1v1zm3-2h-2v-1h2v1zm2-3h-1v-1h1v1zm3-2h-1v-2h1v2zm-8 13h-1v-2h1v2zm3-3h-2v-1h2v1zm2-3h-1v-1h1v1zm3-2h-1v-1h1v1zm3-3h-2v-1h2v1zm-8 13h-2v-1h2v1zm2-2h-1v-2h1v2zm3-3h-1v-1h1v1zm3-3h-2v-1h2v1zm2-2h-1v-1h1v1zm-8 13h-1v-1h1v1zm3-3h-1v-1h1v1zm3-2h-2v-2h2v2zm2-3h-1v-1h1v1zm3-3h-2l1-1h1v1zm16-121h-4v-4h4v4zm-26 25h-3v-3h3v3z" class="st0"/><path d="m1011 307 36-36 36 36-36 36z" class="st0"/><path d="m1000 307 47-47 47 47-47 47z" class="st0"/><path d="m1032 307 15-14 14 14-14 14z" class="st0"/><path d="M1023 309h-3v-4h3v4zm25-26h-3v-3h3v3zm-11 25h-1v-2h1v2zm3-3h-2v-1h2v1zm2-3h-1v-1h1v1zm3-2h-2v-1h2v1zm2-3h-1v-1h1v1zm-7 13h-2v-1h2v1zm2-2h-1v-2h1v2zm3-3h-2v-1h2v1zm2-3h-1v-1h1v1zm3-2h-1v-1h1v1zm-8 13h-1v-1h1v1zm3-3h-2v-1h2v1zm2-2h-1v-2h1v2zm3-3h-1v-1h1v1zm3-3h-2v-1h2v1zm-8 14h-2v-2h2v1zm2-3h-1v-1h1v1zm3-3h-1v-1h1v1zm3-2h-2v-2h2v2zm2-3h-1v-1h1v1zm-8 13h-1v-1h1v1zm3-2h-1v-2h1v1zm3-3h-2v-1h2v1zm2-3h-1v-1h1v1zm3-2h-2l1-2h1v2zm77-183h-3v-4h3v4zm-25 25h-4v-4h4v4z" class="st0"/><path d="m1072 123 36-36 36 36-36 36z" class="st0"/><path d="m1061 123 47-47 47 47-47 47z" class="st0"/><path d="m1094 123 14-15 15 15-15 14z" class="st0"/><path d="M1085 125h-4v-4h4v4zm25-26h-3v-3h3v3zm-11 25h-2v-2h2v2zm2-3h-1v-1h1v1zm3-3h-2v-1h2v1zm2-2h-1v-2h1v2zm3-3h-1v-1h1v1zm-8 13h-1v-1h1v1zm3-2h-2v-2h2v2zm2-3h-1v-1h1v1zm3-3h-1v-1h1v1zm3-2h-2v-2h2v2zm-8 13h-2v-2h2v2zm2-3h-1v-1h1v1zm3-2h-1v-2h1v2zm3-3h-2v-1h2v1zm2-3h-1v-1h1v1zm-8 13h-1v-1h1v1zm3-2h-1v-2h1v2zm3-3h-2v-1h2v1zm2-2h-1v-2h1v2zm3-3h-2l1-1h1v1zm-8 13h-1v-1h1v1zm3-3h-2v-1h2v1zm2-2h-1v-2h1v2zm3-3h-2l1-1h1v1zm2-2h-1v-2h1v2zm-45 62h-4v-4h4v4zm-26 25h-3v-3h3v3z" class="st0"/><path d="m1010 184 36-36 37 36-37 36z" class="st0"/><path d="m1000 184 46-47 47 47-47 47z" class="st0"/><path d="m1032 184 14-14 15 14-15 15z" class="st0"/><path d="M1023 186h-4v-4h4v4zm25-25h-3v-4h3v4zm-11 24h-2v-1h2v1zm2-3h-1v-1h1v1zm3-2h-1v-2h1v2zm3-3h-2v-1h2v1zm2-3h-1v-1h1v1zm-8 13h-1v-1h1v1zm3-2h-1v-1h1v1zm3-3h-2v-1h2v1zm2-2h-1v-2h1v2zm3-3h-2l1-1h1v1zm-8 13h-1v-1h1v1zm3-2h-2v-2h2v1zm2-3h-1v-1h1v1zm3-3h-2l1-1h1v1zm2-2h-1v-2h1v2zm-7 13h-2v-2h2v2zm2-3h-1v-1h1v1zm3-2h-2l1-2h1v1zm2-3h-1v-1h1v1zm3-3h-1v-1h1v1zm-8 13h-1v-1h1v1zm3-2h-2l1-2h1v2zm2-3h-1v-1h1v1zm3-2h-1v-2h1v1zm3-3h-2v-1h2v1zm16-122h-4v-3h4v3zm-26 25h-3v-3h3v3z" class="st0"/><path d="m1010 61 36-36 36 36-36 37z" class="st0"/><path d="m1000 61 46-47 47 47-47 47z" class="st0"/><path d="m1032 62 15-15 14 15-14 14z" class="st0"/><path d="M1023 63h-4v-3h4v3zm25-25h-3v-4h3v4zm-11 24h-2v-1h2v1zm2-3h-1v-1h1v1zm3-2h-1v-2l1 1v1zm3-3h-2v-1h2v1zm2-2h-1v-2h1v2zm-8 13h-1v-2h1v2zm3-3h-1v-1h1v1zm3-3h-2v-1h2v1zm2-2h-1v-2l1 1v1zm3-3h-2l1-1h1v1zm-8 13h-1v-1h1v1zm3-2h-2v-2h2v2zm2-3h-1v-1h1v1zm3-2h-2l1-2h1v2zm2-3h-1v-2l1 1v1zm-7 13h-2v-1h2v1zm2-3h-1v-1h1v1zm3-2h-2l1-2h1v2zm2-3h-1v-1h1v1zm3-2h-1v-2h1v2zm-8 13h-1v-2h1v2zm3-3h-2l1-1h1v1zm2-3h-1v-1h1v1zm3-2h-1v-2h1v2zm3-3h-2v-1h2v1zm77 185h-3v-3h3v3zm-25 26h-4v-4h4v4z" class="st0"/><path d="m1072 246 36-36 36 36-36 36z" class="st0"/><path d="m1061 246 47-47 47 47-47 47z" class="st0"/><path d="m1094 246 14-15 15 15-15 14z" class="st0"/><path d="M1085 247h-4v-3h4v3zm25-25h-3v-3h3v3zm-11 24h-2v-1h2v1zm2-2h-1v-2h1v2zm3-3h-2v-1h2v1zm2-3h-1v-1h1v1zm3-2h-1v-1h1v1zm-8 13h-1v-1h1v1zm3-3h-2v-1h2v1zm2-2h-1v-2h1v2zm3-3h-1v-1h1v1zm3-3h-2v-1h2v1zm-8 14h-2v-2h2v1zm2-3h-1v-1h1v1zm3-3h-1v-1h1v1zm3-2h-2v-2h2v2zm2-3h-1v-1h1v1zm-8 13h-1v-1h1v1zm3-2h-1v-2h1v1zm3-3h-2v-1h2v1zm2-3h-1v-1h1v1zm3-2h-2l1-2h1v2zm-8 13h-1v-2h1v2zm3-3h-2v-1h2v1zm2-2h-1v-2h1v1zm3-3h-2l1-1h1v1zm2-3h-1v-1h1v1zm-45 308h-4v-3h4v3zm0 0-2-1m-24 27h-3v-4h3v4z" class="st0"/><path d="m1010 553 36-36 37 36-37 36z" class="st0"/><path d="m1094 553-47-47-47 47 47 47z" class="st0"/><path d="m1032 553 14-15 15 15-15 14z" class="st0"/><path d="M1023 554h-4v-3h4v3zm25-25h-3v-3h3v3zm-11 24h-2v-1h2v1zm2-2h-1v-2h1v2zm3-3h-1v-1h1v1zm3-3h-2v-1h2v1zm2-2h-1v-2l1 1v1zm-8 13h-1v-2l1 1v1zm3-3h-1v-1h1v1zm3-2h-2v-2h2v2zm2-3h-1v-1h1v1zm3-3h-2l1-1h1v1zm-8 13h-1v-1h1v1zm3-2h-2v-2l2 1v1zm2-3h-1v-1h1v1zm3-2h-2l1-2h1v2zm2-3h-1v-1h1v1zm-7 13h-2v-1h2v1zm2-3h-1v-1h1v1zm3-2h-2l1-2 1 1v1zm2-3h-1v-1h1v1zm3-2h-1v-2h1v2zm-8 13h-1v-2h1v2zm3-3h-2l1-1h1v1zm2-3h-1v-1h1v1zm3-2h-1v-2l1 1v1zm3-3h-2v-1h2v1zm77-60h-3v-4h3v4zm-25 25h-4v-3h4v3z" class="st0"/><path d="m1072 491 36-36 36 36-36 36z" class="st0"/><path d="m1061 491 47-47 47 47-47 47z" class="st0"/><path d="m1094 491 14-14 15 14-15 15z" class="st0"/><path d="M1085 493h-4v-4h4v4zm25-25h-3v-4h3v4zm-11 24h-2v-1h2v1zm2-3h-1v-1h1v1zm3-2h-2v-2h2v2zm2-3h-1v-1h1v1zm3-3h-1v-1h1v1zm-8 14h-1v-2h1v1zm3-3h-2v-1h2v1zm2-3h-1v-1h1v1zm3-2h-1v-2h1v2zm3-3h-2v-1h2v1zm-8 13h-2v-1h2v1zm2-2h-1v-2h1v1zm3-3h-1v-1h1v1zm3-3h-2v-1h2v1zm2-2h-1v-2h1v2zm-8 13h-1v-2h1v2zm3-3h-1v-1h1v1zm3-2h-2v-2h2v1zm2-3h-1v-1h1v1zm3-3h-2l1-1h1v1zm-8 13h-1v-1h1v1zm3-2h-2v-2h2v2zm2-3h-1v-1h1v1zm3-2h-2l1-2h1v1zm2-3h-1v-1h1v1zm140-122h-4v-3h4v3zm-26 25h-3v-3h3v3z" class="st0"/><path d="m1195 368 36-36 37 36-37 37z" class="st0"/><path d="m1185 368 46-47 47 47-47 47z" class="st0"/><path d="m1217 368 14-14 15 14-15 15z" class="st0"/><path d="M1208 370h-3v-3h3v3zm25-25h-3v-4h3v4zm-11 24h-2v-1h2v1zm2-3h-1v-1h1v1zm3-2h-1v-1h1v1zm3-3h-2v-1h2v1zm2-2h-1v-2h1v2zm-8 13h-1v-2h1v2zm3-3h-1v-1h1v1zm3-3h-2v-1h2v1zm2-2h-1v-1h1v1zm3-3h-2l1-1h1v1zm-8 13h-1v-1h1v1zm3-2h-2v-2h2v2zm2-3h-1v-1h1v1zm3-2h-2l1-2h1v1zm2-3h-1v-1h1v1zm-7 13h-2v-1h2v1zm2-3h-1v-1h1v1zm3-2h-2l1-2h1v2zm2-3h-1v-1h1v1zm3-2h-1v-2h1v1zm-8 13h-1v-2h1v1zm3-3h-2l1-1h1v1zm2-3h-1v-1h1v1zm3-2h-1v-2h1v2zm3-3h-2v-1h2v1zm-46 63h-4v-4h4v4zm-25 25h-4v-4h4v4z" class="st0"/><path d="m1134 430 36-36 36 36-36 36z" class="st0"/><path d="m1123 430 47-47 47 47-47 47z" class="st0"/><path d="m1155 430 15-15 14 15-14 14z" class="st0"/><path d="M1146 432h-3v-4h3v4zm26-26h-4v-3h4v3zm-12 24h-1v-1h1v1zm3-2h-2v-1h2v1zm2-3h-1v-1h1v1zm3-2h-2l1-2h1v2zm2-3h-1v-1h1v1zm-7 13h-2v-1h2v1zm2-3h-1v-1h1v1zm3-2h-2l1-1h1v1zm2-3h-1v-1h1v1zm3-2h-1v-2h1v2zm-8 13h-1v-2h1v2zm3-3h-2l1-1h1v1zm2-3h-1v-1h1v1zm3-2h-1v-1h1v1zm3-3h-2v-1h2v1zm-8 13h-2l1-1h1v1zm3-2h-2v-2h2v2zm2-3h-1v-1h1v1zm3-3h-2v-1h2v1zm2-2h-1v-1h1v1zm-7 13h-2v-1h2v1zm2-3h-1v-1h1v1zm3-2h-2v-2h2v2zm2-3h-1v-1h1v1zm3-3h-1v-1h1v1zm16-121h-4v-4h4v4zm-25 25h-4v-3h4v3z" class="st0"/><path d="m1134 307 36-36 36 36-36 36z" class="st0"/><path d="m1123 307 47-47 47 47-47 47z" class="st0"/><path d="m1155 307 15-14 14 14-14 14z" class="st0"/><path d="M1146 309h-3v-4h3v4zm26-26h-4v-3h4v3zm-12 25h-1v-2h1v2zm3-3h-2v-1h2v1zm2-3h-1v-1h1v1zm3-2h-2l1-1h1v1zm2-3h-1v-1h1v1zm-7 13h-2v-1h2v1zm2-2h-1v-2h1v2zm3-3h-2l1-1h1v1zm2-3h-1v-1h1v1zm3-2h-1v-1h1v1zm-8 13h-1v-1h1v1zm3-3h-2l1-1h1v1zm2-2h-1v-2h1v2zm3-3h-1v-1h1v1zm3-3h-2v-1h2v1zm-8 14h-2l1-2h1v1zm3-3h-2v-1h2v1zm2-3h-1v-1h1v1zm3-2h-2v-2h2v2zm2-3h-1v-1h1v1zm-7 13h-2v-1h2v1zm2-2h-1v-2h1v1zm3-3h-2v-1h2v1zm2-3h-1v-1h1v1zm3-2h-1v-2h1v2zm-11 63v2m0 3v4m0 1v2m0-29v1m0 3v5m0 1v2m-15 2h2m3 0h4m1 0h2m6 0h1m3 0h5m1 0h2m231 3v2m0 3v4m0 1v2m0-29v1m0 3v5m0 1v2m-14 2h1m3 0h4m2 0h1m6 0h1m3 0h5m1 0h2m-173-243h-3v-4h3v4zm-25 25h-3v-4h3v4z" class="st0"/><path d="m1195 123 36-36 36 36-36 36z" class="st0"/><path d="m1184 123 47-47 47 47-47 47z" class="st0"/><path d="m1217 123 14-15 15 15-15 14z" class="st0"/><path d="M1208 125h-4v-4h4v4zm25-26h-3v-3h3v3zm-11 25h-2v-2h2v2zm2-3h-1v-1h1v1zm3-3h-2l1-1h1v1zm2-2h-1v-2h1v2zm3-3h-1v-1h1v1zm-8 13h-1v-1h1v1zm3-2h-2l1-2h1v2zm2-3h-1v-1h1v1zm3-3h-1v-1h1v1zm3-2h-2v-2h2v2zm-8 13h-2l1-2h1v2zm2-3h-1v-1h1v1zm3-2h-1v-2h1v2zm3-3h-2v-1h2v1zm2-3h-1v-1h1v1zm-7 13h-2v-1h2v1zm2-2h-1v-2h1v2zm3-3h-2v-1h2v1zm2-2h-1v-2h1v2zm3-3h-1v-1h1v1zm-8 13h-1v-1h1v1zm3-3h-2v-1h2v1zm2-2h-1v-2h1v2zm3-3h-1v-1h1v1zm3-2h-2v-2h2v2zm-46 62h-4v-4h4v4zm-26 25h-3v-3h3v3z" class="st0"/><path d="m1134 184 36-36 36 36-36 36z" class="st0"/><path d="m1123 184 47-47 47 47-47 47z" class="st0"/><path d="m1155 184 15-14 14 14-14 15z" class="st0"/><path d="M1146 186h-3v-4h3v4zm25-25h-3v-4h3v4zm-11 24h-1v-1h1v1zm3-3h-2v-1h2v1zm2-2h-1v-2h1v2zm3-3h-2v-1h2v1zm2-3h-1v-1h1v1zm-7 13h-2v-1h2v1zm2-2h-1v-1h1v1zm3-3h-2v-1h2v1zm2-2h-1v-2h1v2zm3-3h-1v-1h1v1zm-8 13h-1v-1h1v1zm3-2h-2v-2h2v1zm2-3h-1v-1h1v1zm3-3h-1v-1h1v1zm3-2h-2v-2h2v2zm-8 13h-2v-2h2v2zm2-3h-1v-1h1v1zm3-2h-1v-2h1v1zm3-3h-2v-1h2v1zm2-3h-1v-1h1v1zm-8 13h-1v-1h1v1zm3-2h-1v-2h1v2zm3-3h-2v-1h2v1zm2-2h-1v-2h1v1zm3-3h-2l1-1h1v1zm16-122h-4v-3h4v3zm-26 25h-3v-3h3v3z" class="st0"/><path d="m1133 61 37-36 36 36-36 37z" class="st0"/><path d="m1123 61 47-47 47 47-47 47z" class="st0"/><path d="m1155 61 15-14 14 14-14 15z" class="st0"/><path d="M1146 63h-3v-3h3v3zm25-25h-3v-4h3v4zm-11 24h-1v-1h1v1zm3-3h-2v-1h2v1zm2-2h-1v-2l1 1v1zm3-3h-2v-1h2v1zm2-2h-1v-2h1v2zm-7 13h-2v-2h2v2zm2-3h-1v-1h1v1zm3-3h-2v-1h2v1zm2-2h-1v-2l1 1v1zm3-3h-1v-1h1v1zm-8 13h-1v-1h1v1zm3-2h-2v-2h2v2zm2-3h-1v-1h1v1zm3-2h-1v-2h1v2zm3-3h-2v-2l2 1v1zm-8 13h-2v-1h2v1zm2-3h-1v-1h1v1zm3-2h-1v-2h1v2zm3-3h-2v-1h2v1zm2-2h-1v-2h1v2zm-8 13h-1v-2h1v2zm3-3h-1v-1h1v1zm3-3h-2v-1h2v1zm2-2h-1v-2h1v2zm3-3h-2l1-1h1v1zm-11 64v1m0 3v4m0 2v1m0-29v2m0 3v4m0 1v2m-15 3h2m3 0h4m1 0h2m5 0h2m3 0h4m2 0h1m232 3v1m0 3v4m0 2v1m0-29v2m0 3v4m0 1v2m-14 3h1m3 0h4m2 0h1m6 0h1m3 0h5m1 0h2m-173 124h-3v-3h3v3zm-25 26h-3v-4h3v4z" class="st0"/><path d="m1195 246 36-36 36 36-36 36z" class="st0"/><path d="m1184 246 47-47 47 47-47 47z" class="st0"/><path d="m1217 246 14-15 15 15-15 14z" class="st0"/><path d="M1208 247h-4v-3h4v3zm25-25h-3v-3h3v3zm-11 24h-2v-1h2v1zm2-2h-1v-2h1v2zm3-3h-2l1-1h1v1zm2-3h-1v-1h1v1zm3-2h-1v-1h1v1zm-8 13h-1v-1h1v1zm3-3h-2l1-1h1v1zm2-2h-1v-2h1v2zm3-3h-1v-1h1v1zm3-3h-2v-1h2v1zm-8 14h-2l1-2h1v1zm2-3h-1v-1h1v1zm3-3h-1v-1h1v1zm3-2h-2v-2h2v2zm2-3h-1v-1h1v1zm-7 13h-2v-1h2v1zm2-2h-1v-2h1v1zm3-3h-2v-1h2v1zm2-3h-1v-1h1v1zm3-2h-1v-2h1v2zm-8 13h-1v-2h1v2zm3-3h-2v-1h2v1zm2-2h-1v-2h1v1zm3-3h-1v-1h1v1zm3-3h-2v-1h2v1zm-46 308h-4v-3h4v3zm-26 26h-3v-4h3v4z" class="st0"/><path d="m1133 553 37-37 36 37-36 36z" class="st0"/><path d="m1217 553-47-47-47 47 47 47z" class="st0"/><path d="m1155 553 15-15 14 15-14 14z" class="st0"/><path d="M1146 554h-3v-3h3v3zm25-25h-3v-3h3v3zm-11 24h-1v-1h1v1zm3-2h-2v-2h2v2zm2-3h-1v-1h1v1zm3-3h-2v-1h2v1zm2-2h-1v-2l1 1v1zm-7 13h-2v-2l2 1v1zm2-3h-1v-1h1v1zm3-2h-2v-2h2v2zm2-3h-1v-1h1v1zm3-3h-1v-1h1v1zm-8 13h-1v-1h1v1zm3-2h-2v-2l2 1v1zm2-3h-1v-1h1v1zm3-2h-1v-2h1v2zm3-3h-2v-1h2v1zm-8 13h-2v-1h2v1zm2-3h-1v-1h1v1zm3-2h-1v-2l1 1v1zm3-3h-2v-1h2v1zm2-2h-1v-2h1v2zm-8 13h-1v-2h1v2zm3-3h-1v-1h1v1zm3-3h-2v-1h2v1zm2-2h-1v-2l1 1v1zm3-3h-2l1-1h1v1zm77-60h-3v-4h3v4zm-25 25h-3v-3h3v3z" class="st0"/><path d="m1195 491 36-36 36 36-36 36z" class="st0"/><path d="m1184 491 47-47 47 47-47 47z" class="st0"/><path d="m1217 491 14-14 15 14-15 15z" class="st0"/><path d="M1208 493h-4v-4h4v4zm25-25h-3v-4h3v4zm-11 24h-2v-1h2v1zm2-3h-1v-1h1v1zm3-2h-2l1-2h1v2zm2-3h-1v-1h1v1zm3-3h-1v-1h1v1zm-8 14h-1v-2h1v1zm3-3h-2l1-1h1v1zm2-3h-1v-1h1v1zm3-2h-1v-2h1v2zm3-3h-2v-1h2v1zm-8 13h-2l1-1h1v1zm2-2h-1v-2h1v1zm3-3h-1v-1h1v1zm3-3h-2v-1h2v1zm2-2h-1v-2h1v2zm-7 13h-2v-2h2v2zm2-3h-1v-1h1v1zm3-2h-2v-2h2v1zm2-3h-1v-1h1v1zm3-3h-1v-1h1v1zm-8 13h-1v-1h1v1zm3-2h-2v-2h2v2zm2-3h-1v-1h1v1zm3-2h-1v-2h1v1zm3-3h-2v-1h2v1zm139-122h-4v-3h4v3zm-26 25h-3v-3h3v3z" class="st0"/><path d="m1318 368 37-36 36 36-36 37z" class="st0"/><path d="m1308 369 47-47 47 47-47 46z" class="st0"/><path d="m1340 368 15-14 14 14-14 15z" class="st0"/><path d="M1331 370h-3v-3h3v3zm25-25h-3v-4h3v4zm-11 24h-1v-1h1v1zm3-3h-2v-1h2v1zm2-2h-1v-1h1v1zm3-3h-2v-1h2v1zm2-2h-1v-2h1v2zm-7 13h-2v-2h2v2zm2-3h-1v-1h1v1zm3-3h-2v-1h2v1zm2-2h-1v-1h1v1zm3-3h-1v-1h1v1zm-8 13h-1v-1h1v1zm3-2h-2v-2h2v2zm2-3h-1v-1h1v1zm3-2h-1v-2h1v1zm3-3h-2v-1h2v1zm-8 13h-2v-1h2v1zm2-3h-1v-1h1v1zm3-2h-1v-2h1v2zm3-3h-2v-1h2v1zm2-2h-1v-2h1v1zm-8 13h-1v-2h1v1zm3-3h-1v-1h1v1zm3-3h-2v-1h2v1zm2-2h-1v-2h1v2zm3-3h-2l1-1h1v1zm-46 63h-4v-4h4v4zm-25 25h-4v-4h4v4z" class="st0"/><path d="m1257 430 36-36 36 36-36 36z" class="st0"/><path d="m1246 430 47-47 47 47-47 47z" class="st0"/><path d="m1278 430 15-15 14 15-14 14z" class="st0"/><path d="M1269 432h-3v-4h3v4zm26-26h-4v-3h4v3zm-12 24h-1v-1h1v1zm3-2h-2v-1h2v1zm2-3h-1v-1h1v1zm3-2h-1v-2h1v2zm3-3h-2v-1h2v1zm-8 13h-2v-1h2v1zm2-3h-1v-1h1v1zm3-2h-1v-1h1v1zm3-3h-2v-1h2v1zm2-2h-1v-2h1v2zm-8 13h-1v-2h1v2zm3-3h-1v-1h1v1zm3-3h-2v-1h2v1zm2-2h-1v-1h1v1zm3-3h-2l1-1h1v1zm-8 13h-1v-1h1v1zm3-2h-2v-2h2v2zm2-3h-1v-1h1v1zm3-3h-2l1-1h1v1zm2-2h-1v-1h1v1zm-7 13h-2v-1h2v1zm2-3h-1v-1h1v1zm3-2h-2l1-2h1v2zm2-3h-1v-1h1v1zm3-3h-1v-1h1v1zm16-121h-4v-4h4v4zm-25 25h-4v-3h4v3z" class="st0"/><path d="m1257 307 36-36 36 36-36 36z" class="st0"/><path d="m1246 307 47-47 47 47-47 47z" class="st0"/><path d="m1278 307 15-14 14 14-14 14z" class="st0"/><path d="M1269 309h-3v-4h3v4zm26-26h-4v-3h4v3zm-12 25h-1v-2h1v2zm3-3h-2v-1h2v1zm2-3h-1v-1h1v1zm3-2h-1v-1h1v1zm3-3h-2v-1h2v1zm-8 13h-2v-1h2v1zm2-2h-1v-2h1v2zm3-3h-1v-1h1v1zm3-3h-2v-1h2v1zm2-2h-1v-1h1v1zm-8 13h-1v-1h1v1zm3-3h-1v-1h1v1zm3-2h-2v-2h2v2zm2-3h-1v-1h1v1zm3-3h-2l1-1h1v1zm-8 14h-1v-2h1v1zm3-3h-2v-1h2v1zm2-3h-1v-1h1v1zm3-2h-2l1-2h1v2zm2-3h-1v-1h1v1zm-7 13h-2v-1h2v1zm2-2h-1v-2h1v1zm3-3h-2l1-1h1v1zm2-3h-1v-1h1v1zm3-2h-1v-2h1v2zm78-183h-4v-4h4v4zm-26 25h-3v-4h3v4z" class="st0"/><path d="m1318 123 36-36 37 36-37 36z" class="st0"/><path d="m1308 123 46-47 47 47-47 47z" class="st0"/><path d="m1340 123 14-15 15 15-15 14z" class="st0"/><path d="M1331 125h-3v-4h3v4zm25-26h-3v-3h3v3zm-11 25h-2v-2h2v2zm2-3h-1v-1h1v1zm3-3h-1v-1h1v1zm3-2h-2v-2h2v2zm2-3h-1v-1h1v1zm-8 13h-1v-1h1v1zm3-2h-1v-2h1v2zm3-3h-2v-1h2v1zm2-3h-1v-1h1v1zm3-2h-2l1-2h1v2zm-8 13h-1v-2h1v2zm3-3h-2v-1h2v1zm2-2h-1v-2h1v2zm3-3h-2l1-1h1v1zm2-3h-1v-1h1v1zm-7 13h-2v-1h2v1zm2-2h-1v-2h1v2zm3-3h-2l1-1h1v1zm2-2h-1v-2h1v2zm3-3h-1v-1h1v1zm-8 13h-1v-1h1v1zm3-3h-2l1-1h1v1zm2-2h-1v-2h1v2zm3-3h-1v-1h1v1zm3-2h-2v-2h2v2zm-39 490v-2h4l1 2" class="st0"/><path d="m1318 614 37-36 36 36" class="st0"/><path d="m1308 614 46-47 48 47" class="st0"/><path d="m1340 614 15-15 14 15m-16-24v-3h3v3h-3zm24 24 1-2h4v2" class="st0"/><path d="M1354 604v-1h1v1h-1zm2 3v-2l2 1v1h-2zm3 2v-1h1v1h-1zm3 3v-1h1v1h-1zm2 2v-1h2v1m-15-7v-2l2 1v1h-2zm3 2v-1h1v1h-1zm2 3v-1h2v1h-2zm3 2v-1h1l1 1m-12-5v-1h1v1h-1zm2 3v-1h2v1h-2zm3 2v-1h1v1m-9-2v-1h1v1h-1zm2 2 1-1h1v1m-7 0v-1h2v1m-141 0v-2h4v2" class="st0"/><path d="m1195 614 36-36 36 36" class="st0"/><path d="m1184 614 47-47 47 47" class="st0"/><path d="m1217 614 14-15 15 15m-16-24v-3h3v3h-3zm24 24 1-2h3l1 2" class="st0"/><path d="M1231 604v-1h1v1h-1zm2 3v-2l2 1v1h-2zm3 2v-1h1v1h-1zm3 3v-1h1v1h-1zm2 2v-1h2v1m-15-7v-2l1 1v1h-1zm3 2v-1h1v1h-1zm2 3v-1h2v1h-2zm3 2v-1h1v1m-11-5v-1h1v1h-2zm2 3v-1h1v1h-1zm2 2 1-1h1v1m-9-2v-1h1v1h-1zm2 2 1-1h1v1m-7 0v-1h2v1m-141 0v-2h4v2" class="st0"/><path d="m1072 614 36-36 36 36" class="st0"/><path d="m1061 614 47-47 47 47" class="st0"/><path d="m1094 614 14-15 15 15m-17-24v-3h4v3h-4zm25 24 1-2h3l1 2" class="st0"/><path d="M1108 604v-1h1v1h-2zm2 3v-2l1 1v1h-1zm3 2v-1h1v1h-1zm2 3v-1h2v1h-2zm3 2v-1h1l1 1m-15-7v-2l1 1v1h-1zm3 2v-1h1v1h-2zm2 3v-1h1v1h-1zm2 2 1-1h1v1m-12-5v-1h2v1h-2zm3 3v-1h1v1h-1zm2 2 1-1h1v1m-9-2v-1h1v1h-1zm2 2v-1h2v1m-7 0v-1h1l1 1m-142 0 1-2h4v2" class="st0"/><path d="m949 614 36-36 36 36" class="st0"/><path d="m938 614 47-47 47 47" class="st0"/><path d="m971 614 14-15 15 15m-17-24v-3h4v3h-4zm25 24 1-2h3l1 2" class="st0"/><path d="M984 604v-1h2v1h-2zm3 3v-2l1 1v1h-1zm3 2v-1h1v1h-1zm2 3v-1h2v1h-2zm3 2v-1h1v1m-14-7v-2l1 1v1h-1zm2 2v-1h2v1h-2zm3 3v-1h1v1h-1zm2 2 1-1h1v1m-12-5v-1h2v1h-2zm3 3v-1h1v1h-1zm2 2v-1h2v1m-9-2v-1h1v1h-1zm2 2v-1h1l1 1m-7 0v-1h1l1 1m-142 0 1-2h4v2" class="st0"/><path d="m826 614 36-36 36 36" class="st0"/><path d="m815 614 47-47 47 47" class="st0"/><path d="m848 614 14-15 15 15m-17-24v-3h4v3h-4zm25 24v-2h4l1 2" class="st0"/><path d="M861 604v-1h2v1h-2zm3 3v-2l1 1v1h-1zm3 2v-1h1v1h-1zm2 3v-1h2v1h-2zm3 2v-1h1v1m-14-7v-2l1 1v1h-1zm2 2v-1h2v1h-2zm3 3v-1h1v1h-1zm2 2 1-1h1v1m-12-5v-1h2v1h-2zm3 3v-1h1v1h-1zm2 2v-1h2v1m-9-2v-1h1v1h-1zm2 2v-1h1l1 1m-7 0v-1h1l1 1m-142 0 1-2h3l1 2" class="st0"/><path d="m703 614 36-36 36 36" class="st0"/><path d="m692 614 47-47 47 47" class="st0"/><path d="m725 614 14-15 14 15m-16-24v-3h4v3h-4zm25 24v-2h4l1 2" class="st0"/><path d="M738 604v-1h2v1h-2zm3 3v-2l1 1v1h-1zm2 2v-1h2v1h-2zm3 3v-1h1v1h-1zm2 2 1-1h1v1m-14-7v-2l1 1v1h-1zm2 2v-1h2v1h-2zm3 3v-1h1v1h-1zm2 2v-1h2v1m-12-5v-1h1v1h-1zm3 3v-1h1v1h-1zm2 2v-1h1l1 1m-10-2v-1h2v1h-2zm3 2v-1h1l1 1m-7 0v-1h1v1m-141 0 1-2h3l1 2" class="st0"/><path d="m580 614 36-36 36 36" class="st0"/><path d="m569 614 47-47 47 47" class="st0"/><path d="m601 614 15-15 14 15m-16-24v-3h4v3h-4zm25 24v-2h4l1 2" class="st0"/><path d="M615 604v-1h1v1h-1zm3 3v-2l1 1v1h-1zm2 2v-1h2v1h-2zm3 3v-1h1v1h-1zm2 2 1-1h1v1m-14-7v-2l1 1v1h-2zm2 2v-1h1v1h-1zm3 3v-1h1v1h-1zm2 2v-1h2v1m-12-5v-1h1v1h-1zm3 3v-1h1v1h-2zm2 2v-1h1l1 1m-10-2v-1h2v1h-2zm3 2v-1h1v1m-7 0 1-1h1v1m-141 0 1-2h3l1 2" class="st0"/><path d="m457 614 36-36 36 36" class="st0"/><path d="m446 614 47-47 47 47" class="st0"/><path d="m478 614 15-15 14 15m-16-24v-3h3v3h-3zm24 24 1-2h4v2" class="st0"/><path d="M492 604v-1h1v1h-1zm3 3v-2l1 1v1h-1zm2 2v-1h1v1h-1zm3 3v-1h1v1h-1zm2 2v-1h2v1m-15-7v-2l2 1v1h-2zm3 2v-1h1v1h-1zm3 3v-1h1v1h-1zm2 2v-1h1l1 1m-12-5v-1h1v1h-1zm2 3v-1h2v1h-2zm3 2v-1h1l1 1m-10-2v-1h1v1h-1zm3 2v-1h1v1m-7 0 1-1h1v1m-141 0 1-2h3l1 2" class="st0"/><path d="m333 614 36-36 37 36" class="st0"/><path d="m323 614 47-47 47 47" class="st0"/><path d="m355 614 15-15 14 15m-16-24v-3h3v3h-3zm24 24 1-2h4v2" class="st0"/><path d="M369 604v-1h1v1h-1zm2 3v-2l2 1v1h-2zm3 2v-1h1v1h-1zm3 3v-1h1v1h-1zm2 2v-1h2v1m-15-7v-2l1 1 1 1h-2zm3 2v-1h1v1h-1zm2 3v-1h2v1h-2zm3 2v-1h1l1 1m-12-5v-1h1v1h-1zm2 3v-1h1l1 1h-2zm3 2v-1h1v1m-9-2v-1h1v1h-1zm2 2 1-1h1v1m-7 0v-1h2v1m-141 0v-2h4v2" class="st0"/><path d="m210 614 36-36 36 36" class="st0"/><path d="m199 614 47-47 47 47" class="st0"/><path d="m232 614 14-15 15 15m-16-24v-3h3v3h-3zm24 24 1-2h3l1 2" class="st0"/><path d="M246 604v-1h1v1h-1zm2 3v-2l2 1v1h-2zm3 2v-1h1v1h-1zm3 3v-1h1v1h-1zm2 2v-1h1l1 1m-15-7v-2l1 1v1h-1zm3 2v-1h1v1h-1zm2 3v-1h2v1h-2zm3 2v-1h1l1 1m-12-5v-1h1v1h-1zm2 3v-1h1v1h-1zm2 2 1-1h1v1m-9-2v-1h1v1h-1zm2 2v-1h2v1m-7 0v-1h2v1m-141 0v-2h4v2" class="st0"/><path d="m87 614 36-36 36 36" class="st0"/><path d="m76 614 47-47 47 47" class="st0"/><path d="m109 614 14-15 15 15m-17-24v-3h4v3h-4zm25 24 1-2h3l1 2" class="st0"/><path d="M123 604v-1h1v1h-2zm2 3v-2l1 1v1h-1zm3 2v-1h1v1h-1zm2 3v-1h2v1h-2zm3 2v-1h1l1 1m-15-7v-2l1 1v1h-1zm3 2v-1h1v1h-2zm2 3v-1h1v1h-1zm2 2 1-1h1v1m-12-5v-1h2v1h-2zm3 3v-1h1v1h-1zm2 2 1-1h1v1m-9-2v-1h1v1h-1zm2 2v-1h2v1m-7 0v-1h1l1 1M1353 27v-3h3v3h-3zm-21-27-1 2h-3l-1-2" class="st0"/><path d="m1391 0-37 36-36-36" class="st0"/><path d="m1402 0-47 47-47-47" class="st0"/><path d="m1369 0-14 14-15-14m42 0-1 2h-3l-1-2" class="st0"/><path d="M1366 0v1h-2V0m-3 0-1 1h-1V0m3 3V2h1v1h-1zm-7-3v1h-1V0m2 3V2h2v1h-2zm3 3V5h1v1h-1zm-9-6v1h-1l-1-1m3 3V2h2v1h-2zm3 3V5h1v1h-1zm2 3V7h2v2h-2zm-11-9v1h-2V0m3 3V2h1v1h-1zm3 3V5h1v1h-1zm2 3V7h2v2h-2zm3 2v-1h1v1h-1zm-124 16v-3h3v3h-3zm-21-27-1 2h-4V0" class="st0"/><path d="m1268 0-37 36-36-36" class="st0"/><path d="m1278 0-47 47-47-47" class="st0"/><path d="m1246 0-15 14-14-14m42 0-1 2h-3l-1-2" class="st0"/><path d="m1243 0-1 1h-1V0m-3 0-1 1h-1V0m3 3V2h1v1h-2zm-7-3v1h-1l-1-1m3 3V2h2v1h-2zm3 3V5h1v1h-1zm-9-6v1h-2V0m3 3V2h1v1h-1zm3 3V5h1v1h-1zm2 3V7h2v2h-2zm-11-9v1h-2V0m3 3V2h1v1h-1zm3 3V5h1v1h-2zm2 3V7h1v2h-1zm3 2v-1h1v1h-1zm-124 16v-3h3v3h-3zm-21-27-1 2h-4V0" class="st0"/><path d="m1144 0-36 36-36-36" class="st0"/><path d="m1155 0-47 47-47-47" class="st0"/><path d="m1123 0-15 14-14-14m42 0-1 2h-3l-1-2" class="st0"/><path d="m1120 0-1 1h-1V0m-4 0v1h-1l-1-1m3 3V2h2v1h-2zm-6-3v1h-2V0m3 3V2h1v1h-1zm3 3V5h1v1h-1zm-9-6v1h-2V0m3 3V2h1v1h-1zm3 3V5h1v1h-2zm2 3V7h1v2h-1zm-11-9-1 1h-1V0m3 3V2h1v1h-1zm2 3V5h2v1h-2zm3 3V7h1v2h-1zm3 2v-1h1v1h-2zM983 27v-3h4v3h-4zM962 0v2h-4l-1-2" class="st0"/><path d="m1021 0-36 36-36-36" class="st0"/><path d="m1032 0-47 47-47-47" class="st0"/><path d="m1000 0-15 14-14-14m42 0-1 2h-3l-1-2" class="st0"/><path d="m997 0-1 1h-1V0m-4 0v1h-1l-1-1m3 3V2h2v1h-2zm-6-3v1h-2V0m3 3V2h1v1h-1zm3 3V5h1v1h-1zm-9-6-1 1h-1V0m3 3V2h1v1h-1zm2 3V5h2v1h-2zm3 3V7h1v2h-1zm-11-9-1 1h-1V0m3 3V2h1v1h-1zm2 3V5h2v1h-2zm3 3V7h1v2h-1zm2 2v-1h2v1h-2zM860 27v-3h4v3h-4zM839 0v2h-4l-1-2" class="st0"/><path d="m898 0-36 36-36-36" class="st0"/><path d="m909 0-47 47-47-47" class="st0"/><path d="m877 0-15 14-14-14m42 0-1 2h-3l-1-2" class="st0"/><path d="m874 0-1 1h-1V0m-4 0v1h-1l-1-1m3 3V2h2v1h-2zm-6-3v1h-2V0m3 3V2h1v1h-1zm3 3V5h1v1h-1zm-9-6-1 1h-1V0m3 3V2h1v1h-1zm2 3V5h2v1h-2zm3 3V7h1v2h-1zm-11-9-1 1h-1V0m3 3V2h1v1h-1zm2 3V5h2v1h-2zm3 3V7h1v2h-1zm2 2v-1h2v1h-2zM737 27v-3h4v3h-4zM716 0v2h-4l-1-2" class="st0"/><path d="m775 0-36 36-36-36" class="st0"/><path d="m786 0-47 47-47-47" class="st0"/><path d="m753 0-14 14-14-14m42 0-1 2h-4V0" class="st0"/><path d="M750 0v1h-1l-1-1m-3 0v1h-2V0m3 3V2h1v1h-1zm-6-3-1 1h-1V0m3 3V2h1v1h-1zm2 3V5h2v1h-2zm-8-6-1 1h-1V0m3 3V2h1v1h-1zm2 3V5h2v1h-2zm3 3V7h1v2h-1zm-12-9v1h-1V0m2 3V2h2v1h-2zm3 3V5h1v1h-1zm3 3V7h1v2h-1zm2 2v-1h2v1h-2zM614 27v-3h4v3h-4zM593 0l-1 2h-3l-1-2" class="st0"/><path d="m652 0-36 36-36-36" class="st0"/><path d="m663 0-47 47-47-47" class="st0"/><path d="m630 0-14 14-15-14m43 0-1 2h-4V0" class="st0"/><path d="M627 0v1h-1l-1-1m-3 0v1h-2V0m3 3V2h1v1h-1zm-6-3-1 1h-1V0m3 3V2h1v1h-1zm2 3V5h2v1h-2zm-8-6-1 1h-1V0m3 3V2h1v1h-2zm2 3V5h1v1h-1zm3 3V7h1v2h-1zm-12-9v1h-1l-1-1m3 3V2h2v1h-2zm3 3V5h1v1h-1zm3 3V7h1v2h-2zm2 2v-1h1v1h-1zM491 27v-3h3v3h-3zM470 0l-1 2h-3l-1-2" class="st0"/><path d="m529 0-36 36-36-36" class="st0"/><path d="m540 0-47 47-47-47" class="st0"/><path d="m507 0-14 14-15-14m42 0v2h-4l-1-2" class="st0"/><path d="M504 0v1h-2V0m-3 0-1 1h-1V0m3 3V2h1v1h-1zm-6-3-1 1h-1V0m3 3V2h1v1h-1zm2 3V5h1v1h-1zm-9-6v1h-1l-1-1m3 3V2h2v1h-2zm3 3V5h1v1h-1zm3 3V7h1v2h-1zm-12-9v1h-1l-1-1m3 3V2h1v1h-1zm3 3V5h1v1h-1zm2 3V7h2v2h-2zm3 2v-1h1v1h-1zM368 27v-3h3v3h-3zM347 0l-1 2h-3l-1-2" class="st0"/><path d="m406 0-37 36-36-36" class="st0"/><path d="m417 0-47 47-47-47" class="st0"/><path d="m384 0-14 14-15-14m42 0v2h-4l-1-2" class="st0"/><path d="M381 0v1h-2V0m-3 0-1 1h-1V0m3 3V2h1v1h-1zm-7-3v1h-1l-1-1m3 3V2h2v1h-2zm3 3V5h1v1h-1zm-9-6v1h-1l-1-1m3 3V2h1l1 1h-2zm3 3V5h1v1h-1zm2 3V7h2v2h-2zm-11-9v1h-2V0m3 3V2h1v1h-1zm3 3V5h1v1h-1zm2 3V7h1l1 2h-2zm3 2v-1h1v1h-1zM245 27v-3h3v3h-3zM224 0l-1 2h-4V0" class="st0"/><path d="m283 0-37 36-36-36" class="st0"/><path d="m293 0-47 47-47-47" class="st0"/><path d="m261 0-15 14-14-14m42 0-1 2h-3l-1-2" class="st0"/><path d="M258 0v1h-2V0m-3 0-1 1h-1V0m3 3V2h1v1h-1zm-7-3v1h-1l-1-1m3 3V2h2v1h-2zm3 3V5h1v1h-1zm-9-6v1h-2V0m3 3V2h1v1h-1zm3 3V5h1v1h-1zm2 3V7h2v2h-2zm-11-9v1h-2V0m3 3V2h1v1h-1zm3 3V5h1v1h-1zm2 3V7h1v2h-1zm3 2v-1h1v1h-1zM122 27v-3h3v3h-3zM100 0v2h-4V0" class="st0"/><path d="m159 0-36 36L87 0" class="st0"/><path d="m170 0-47 47L76 0" class="st0"/><path d="m138 0-15 14-14-14m42 0-1 2h-3l-1-2" class="st0"/><path d="m135 0-1 1h-1V0m-4 0v1h-1l-1-1m3 3V2h2v1h-2zm-6-3v1h-2V0m3 3V2h1v1h-1zm3 3V5h1v1h-1zm-9-6v1h-2V0m3 3V2h1v1h-1zm3 3V5h1v1h-2zm2 3V7h1v2h-1zm-11-9-1 1h-1V0m3 3V2h1v1h-1zm2 3V5h2v1h-2zm3 3V7h1v2h-1zm3 2v-1h1v1h-2zM28 0l-1 2h-4V0M0 23l2 1v3l-2 1M36 0 0 36M47 0 0 47M15 0 0 15M1 0v1H0m0 3 1 1v1H0m3-3H2V2h1v1zm3-3v1H5L4 0M0 10h1v1l-1 1m3-3H2V7h1v2zm3-3H5V5h1v1zm3-3H7V2h2v1zm2-3v1h-1L9 0m18 125h-3v-4h3v4zM0 146h2v4H0" class="st0"/><path d="m0 87 36 36-36 36" class="st0"/><path d="m0 76 47 47-47 47" class="st0"/><path d="m0 108 15 15-15 14m0-42 2 1v3l-2 1" class="st0"/><path d="m0 111 1 1v1H0m0 4h1v1l-1 1m3-3H2v-2h1v2zm-3 6h1v2H0m3-3H2v-1h1v1zm3-3H5v-1h1v1zm-6 9h1v2H0m3-3H2v-1h1v1zm3-2H5v-2h1v2zm3-3H7v-1h2v1zm-9 11 1 1v1H0m3-3H2v-1h1v1zm3-2H5v-2h1v2zm3-3H7v-1h2v1zm2-2h-1v-2h1v2zm16 123h-3v-3h3v3zM0 268l2 1v4H0" class="st0"/><path d="m0 210 36 36-36 36" class="st0"/><path d="m0 199 47 47-47 47" class="st0"/><path d="m0 231 15 15-15 14m0-42 2 1v3l-2 1" class="st0"/><path d="M0 234h1v2H0m0 4h1v1H0m3-2H2v-2h1v1zm-3 6h1v1l-1 1m3-3H2v-2h1v2zm3-3H5v-1h1v1zm-6 9h1v2H0m3-3H2v-1h1v1zm3-3H5v-1h1v1zm3-2H7v-2h2v2zm-9 11h1v2H0m3-3H2v-1h1v1zm3-2H5v-2h1v1zm3-3H7v-1h2v1zm2-3h-1v-1h1v1zm16 124h-3v-3h3v3zM0 391l2 1v3l-2 1" class="st0"/><path d="m0 332 36 36-36 37" class="st0"/><path d="m0 322 47 46-47 47" class="st0"/><path d="m0 354 15 14-15 15m0-42h2v4l-2 1" class="st0"/><path d="M0 357h1v2H0m0 3 1 1v1H0m3-3H2v-1h1v1zm-3 7h1v1H0m3-2H2v-2h1v1zm3-3H5v-1h1v1zm-6 9h1v1l-1 1m3-3H2v-2h1v2zm3-3H5v-1h1v1zm3-2H7v-2h2v1zm-9 11h1v1l-1 1m3-3H2v-1h1v1zm3-3H5v-1h1v1zm3-2H7v-2h2v2zm2-3h-1v-1h1v1zm16 124h-3v-4h3v4zM0 514l2 1v3l-2 1" class="st0"/><path d="m0 455 36 36-36 36" class="st0"/><path d="m0 444 47 47-47 47" class="st0"/><path d="m0 477 15 14-15 15m0-42h2v4l-2 1" class="st0"/><path d="M0 480h1v1l-1 1m0 3h1v2H0m3-3H2v-1h1v1zm-3 6 1 1v1H0m3-3H2v-1h1v1zm3-2H5v-2h1v2zm-6 9h1v1H0m3-2H2v-2h1v1zm3-3H5v-1h1v1zm3-3H7v-1h2v1zm-9 12h1v1l-1 1m3-3H2v-2h1v2zm3-3H5v-1h1v1zm3-2H7v-2h2v1zm2-3h-1v-1h1v1zm1309-306h-4v-4h4v4zm-25 25h-4v-3h4v3z" class="st0"/><path d="m1257 184 36-36 36 36-36 36z" class="st0"/><path d="m1246 184 47-47 47 47-47 47z" class="st0"/><path d="m1278 184 15-14 14 14-14 15z" class="st0"/><path d="M1269 186h-3v-4h3v4zm0 0-1-1m27-24h-4v-4h4v4zm-12 24h-1v-1h1v1zm3-3h-2v-1h2v1zm2-2h-1v-2h1v2zm3-3h-2l1-1h1v1zm2-3h-1v-1h1v1zm-7 13h-2v-1h2v1zm2-2h-1v-1h1v1zm3-3h-2l1-1h1v1zm2-2h-1v-2h1v2zm3-3h-1v-1h1v1zm-8 13h-1v-1h1v1zm3-2h-2l1-2h1v1zm2-3h-1v-1h1v1zm3-3h-1v-1h1v1zm3-2h-2v-2h2v2zm-8 13h-2l1-2h1v2zm3-3h-2v-1h2v1zm2-2h-1v-2h1v1zm3-3h-2v-1h2v1zm2-3h-1v-1h1v1zm-7 13h-2v-1h2v1zm2-2h-1v-2h1v2zm3-3h-2v-1h2v1zm2-2h-1v-2h1v1zm3-3h-1v-1h1v1zm16-122h-4v-3h4v3zm-25 25h-4v-3h4v3z" class="st0"/><path d="m1257 61 36-36 36 36-36 36z" class="st0"/><path d="m1246 62 47-47 47 47-47 46z" class="st0"/><path d="m1278 61 15-14 14 14-14 15z" class="st0"/><path d="M1269 63h-3v-3h3v3zm26-25h-4v-4h4v4zm-12 24h-1v-1h1v1zm3-3h-2v-1h2v1zm2-2h-1v-2l1 1v1zm3-3h-2l1-1h1v1zm2-2h-1v-2h1v2zm-7 13h-2v-2h2v2zm2-3h-1v-1h1v1zm3-3h-2l1-1h1v1zm2-2h-1v-2l1 1v1zm3-3h-1v-1h1v1zm-8 13h-1v-1h1v1zm3-2h-2l1-2h1v2zm2-3h-1v-1h1v1zm3-2h-1v-2h1v2zm3-3h-2v-2l2 1v1zm-8 13h-2l1-1h1v1zm3-3h-2v-1h2v1zm2-2h-1v-2h1v2zm3-3h-2v-1h2v1zm2-2h-1v-2h1v2zm-7 13h-2v-2h2v2zm2-3h-1v-1h1v1zm3-3h-2v-1h2v1zm2-2h-1v-2h1v2zm3-3h-1v-1h1v1zm78 185h-4v-3h4v3z" class="st0"/><path d="M1380 246h-1v-1h1v1zm2 1-2-1m-1-1-1-1m-22 29h-3v-4h3v4z" class="st0"/><path d="m1318 246 36-36 37 36-37 36z" class="st0"/><path d="m1307 246 47-47 47 47-47 47z" class="st0"/><path d="m1340 246 14-15 15 15-15 14z" class="st0"/><path d="M1331 247h-3v-3h3v3zm25-25h-3v-3h3v3zm-11 24h-2v-1h2v1zm2-2h-1v-2h1v2zm3-3h-1v-1h1v1zm3-3h-2v-1h2v1zm2-2h-1v-1h1v1zm-8 13h-1v-1h1v1zm3-3h-1v-1h1v1zm3-2h-2v-2h2v2zm2-3h-1v-1h1v1zm3-3h-2l1-1h1v1zm-8 14h-1v-2h1v1zm3-3h-2v-1h2v1zm2-3h-1v-1h1v1zm3-2h-2l1-2h1v2zm2-3h-1v-1h1v1zm-7 13h-2v-1h2v1zm2-2h-1v-2h1v1zm3-3h-2l1-1h1v1zm2-3h-1v-1h1v1zm3-2h-1v-2h1v2zm-8 13h-1v-2h1v2zm3-3h-2l1-1h1v1zm2-2h-1v-2h1v1zm3-3h-1v-1h1v1zm3-3h-2v-1h2v1zm-46 308h-4v-3h4v3zm-25 26h-4v-4h4v4z" class="st0"/><path d="m1257 553 36-37 36 37-36 36z" class="st0"/><path d="m1340 553-47-47-47 47 47 47z" class="st0"/><path d="m1278 552 15-14 14 14-14 15z" class="st0"/><path d="M1269 554h-3v-3h3v3zm26-25h-4v-3h4v3zm-12 24h-1v-1h1v1zm3-2h-2v-2h2v2zm2-3h-1v-1h1v1zm3-3h-2l1-1h1v1zm2-2h-1v-2l1 1v1zm-7 13h-2v-2l2 1v1zm2-3h-1v-1h1v1zm3-2h-2l1-2h1v2zm2-3h-1v-1h1v1zm3-3h-1v-1h1v1zm-8 13h-1v-1h1v1zm3-2h-2l1-2 1 1v1zm2-3h-1v-1h1v1zm3-2h-1v-2h1v2zm3-3h-2v-1h2v1zm-8 13h-2l1-1h1v1zm3-3h-2v-1h2v1zm2-2h-1v-2l1 1v1zm3-3h-2v-1h2v1zm2-2h-1v-2h1v2zm-7 13h-2v-2h2v2zm2-3h-1v-1h1v1zm3-3h-2v-1h2v1zm2-2h-1v-2l1 1v1zm3-3h-1v-1h1v1zm78-60h-4v-4h4v4zm-26 25h-3v-3h3v3z" class="st0"/><path d="m1318 491 36-36 37 36-37 36z" class="st0"/><path d="m1308 491 46-47 47 47-47 47z" class="st0"/><path d="m1340 491 14-14 15 14-15 15z" class="st0"/><path d="M1331 493h-3v-4h3v4zm25-25h-3v-4h3v4zm-11 24h-2v-1h2v1zm2-3h-1v-1h1v1zm3-2h-1v-2h1v2zm3-3h-2v-1h2v1zm2-3h-1v-1h1v1zm-8 14h-1v-2h1v1zm3-3h-1v-1h1v1zm3-3h-2v-1h2v1zm2-2h-1v-2h1v2zm3-3h-2l1-1h1v1zm-8 13h-1v-1h1v1zm3-2h-2v-2h2v1zm2-3h-1v-1h1v1zm3-3h-2l1-1h1v1zm2-2h-1v-2h1v2zm-7 13h-2v-2h2v2zm2-3h-1v-1h1v1zm3-2h-2l1-2h1v1zm2-3h-1v-1h1v1zm3-3h-1v-1h1v1zm-8 13h-1v-1h1v1zm3-2h-2l1-2h1v2zm2-3h-1v-1h1v1zm3-2h-1v-2h1v1zm3-3h-2v-1h2v1zm77-60h-3v-4h3v4zm-25 25h-4v-4h4v4z" class="st0"/><path d="m1380 430 36-36 36 36-36 36z" class="st0"/><path d="m1369 430 47-47 47 47-47 47z" class="st0"/><path d="m1402 430 14-15 14 15-14 14z" class="st0"/><path d="M1393 432h-4v-4h4v4zm25-26h-4v-3h4v3zm-12 24h-1v-1h1v1zm3-2h-2l1-1h1v1zm2-3h-1v-1h1v1zm3-2h-1v-2h1v2zm3-3h-2v-1h2v1zm-8 13h-2l1-1h1v1zm3-3h-2v-1h2v1zm2-2h-1v-1h1v1zm3-3h-2v-1h2v1zm2-2h-1v-2h1v2zm-7 13h-2v-2h2v2zm2-3h-1v-1h1v1zm3-3h-2v-1h2v1zm2-2h-1v-1h1v1zm3-3h-1v-1h1v1zm-8 13h-1v-1h1v1zm3-2h-2v-2h2v2zm2-3h-1v-1h1v1zm3-3h-1v-1h1v1zm3-2h-2v-1h2v1zm-8 13h-2v-1h2v1zm2-3h-1v-1h1v1zm3-2h-1v-2h1v2zm3-3h-2v-1h2v1zm2-3h-1v-1h1v1zm16-121h-3v-4h3v4zm-25 25h-4v-3h4v3z" class="st0"/><path d="m1380 307 36-36 36 36-36 36z" class="st0"/><path d="m1369 307 47-47 47 47-47 47z" class="st0"/><path d="m1402 307 14-14 14 14-14 14z" class="st0"/><path d="M1393 309h-4v-4h4v4zm25-26h-4v-3h4v3zm-12 25h-1v-2h1v2zm3-3h-2l1-1h1v1zm2-3h-1v-1h1v1zm3-2h-1v-1h1v1zm3-3h-2v-1h2v1zm-8 13h-2l1-1h1v1zm3-2h-2v-2h2v2zm2-3h-1v-1h1v1zm3-3h-2v-1h2v1zm2-2h-1v-1h1v1zm-7 13h-2v-1h2v1zm2-3h-1v-1h1v1zm3-2h-2v-2h2v2zm2-3h-1v-1h1v1zm3-3h-1v-1h1v1zm-8 14h-1v-2h1v1zm3-3h-2v-1h2v1zm2-3h-1v-1h1v1zm3-2h-1v-2h1v2zm3-3h-2v-1h2v1zm-8 13h-2v-1h2v1zm2-2h-1v-2h1v1zm3-3h-1v-1h1v1zm3-3h-2v-1h2v1zm2-2h-1v-2h1v2zm16-122h-4v-4h4v4zm-25 25h-4v-3h4v3z" class="st0"/><path d="m1380 184 36-36 36 36-36 36z" class="st0"/><path d="m1369 184 47-47 47 47-47 47z" class="st0"/><path d="m1401 184 15-14 14 14-14 15z" class="st0"/><path d="M1392 186h-3v-4h3v4zm26-25h-4v-4h4v4zm-12 24h-1v-1h1v1zm3-3h-2v-1h2v1zm2-2h-1v-2h1v2zm3-3h-1v-1h1v1zm3-3h-2v-1h2v1zm-8 13h-2v-1h2v1zm2-2h-1v-1h1v1zm3-3h-1v-1h1v1zm3-2h-2v-2h2v2zm2-3h-1v-1h1v1zm-8 13h-1v-1h1v1zm3-2h-1v-2h1v1zm3-3h-2v-1h2v1zm2-3h-1v-1h1v1zm3-2h-2l1-2h1v2zm-8 13h-1v-2h1v2zm3-3h-2v-1h2v1zm2-2h-1v-2h1v1zm3-3h-2l1-1h1v1zm2-3h-1v-1h1v1zm-7 13h-2v-1h2v1zm2-2h-1v-2h1v2zm3-3h-2l1-1h1v1zm2-2h-1v-2h1v1zm3-3h-1v-1h1v1zm16-122h-4v-3h4v3zm-25 25h-4v-3h4v3z" class="st0"/><path d="m1380 61 36-36 36 36-36 36z" class="st0"/><path d="m1369 62 47-47 47 47-47 46z" class="st0"/><path d="m1401 61 15-14 14 14-14 15z" class="st0"/><path d="M1392 63h-3v-3h3v3zm26-25h-4v-4h4v4zm-12 24h-1v-1h1v1zm3-3h-2v-1h2v1zm2-2h-1v-2l1 1v1zm3-3h-1v-1h1v1zm3-2h-2v-2h2v2zm-8 13h-2v-2h2v2zm2-3h-1v-1h1v1zm3-3h-1v-1h1v1zm3-2h-2v-2l2 1v1zm2-3h-1v-1h1v1zm-8 13h-1v-1h1v1zm3-2h-1v-2h1v2zm3-3h-2v-1h2v1zm2-2h-1v-2h1v2zm3-3h-2l1-2 1 1v1zm-8 13h-1v-1h1v1zm3-3h-2v-1h2v1zm2-2h-1v-2h1v2zm3-3h-2l1-1h1v1zm2-2h-1v-2h1v2zm-7 13h-2v-2h2v2zm2-3h-1v-1h1v1zm3-3h-2l1-1h1v1zm2-2h-1v-2h1v2zm3-3h-1v-1h1v1zm16 492h-4v-3h4v3zm-25 26h-4v-4h4v4z" class="st0"/><path d="m1380 553 36-37 36 37-36 36z" class="st0"/><path d="m1463 553-47-47-47 47 47 47z" class="st0"/><path d="m1401 552 15-14 14 14-14 15z" class="st0"/><path d="M1392 554h-3v-3h3v3zm26-25h-4v-3h4v3zm-12 24h-1v-1h1v1zm3-2h-2v-2h2v2zm2-3h-1v-1h1v1zm3-3h-1v-1h1v1zm3-2h-2v-2l2 1v1zm-8 13h-2v-2l2 1v1zm2-3h-1v-1h1v1zm3-2h-1v-2h1v2zm3-3h-2v-1h2v1zm2-3h-1v-1h1v1zm-8 13h-1v-1h1v1zm3-2h-1v-2l1 1v1zm3-3h-2v-1h2v1zm2-2h-1v-2h1v2zm3-3h-2l1-1h1v1zm-8 13h-1v-1h1v1zm3-3h-2v-1h2v1zm2-2h-1v-2l1 1v1zm3-3h-2l1-1h1v1zm2-2h-1v-2h1v2zm-7 13h-2v-2h2v2zm2-3h-1v-1h1v1zm3-3h-2l1-1h1v1zm2-2h-1v-2l1 1v1zm3-3h-1v-1h1v1zM335 63h-4v-3h4v3zm-25 25h-4v-3h4v3z" class="st0"/><path d="m272 61 36-36 36 36-36 37z" class="st0"/><path d="m261 61 47-47 47 47-47 47z" class="st0"/><path d="m293 61 15-14 14 14-14 15z" class="st0"/><path d="M284 63h-3v-3h3v3zm26-25h-4v-4h4v4zm-12 24h-1v-1h1v1zm3-3h-1v-1h1v1zm2-2h-1v-2l1 1v1zm3-3h-1v-1h1v1zm3-2h-2v-2h2v2zm-8 13h-1v-2h1v2zm2-3h-1v-1h1v1zm3-3h-1v-1h1v1zm3-2h-2v-2l2 1v1zm2-3h-1v-1h1v1zm-8 13h-1v-1h1v1zm3-2h-1v-2h1v2zm3-3h-2v-1h2v1zm2-2h-1v-2h1v2zm3-3h-1v-2l1 1v1zm-8 13h-1v-1h1v1zm3-3h-2v-1h2v1zm2-2h-1v-2h1v2zm3-3h-1v-1h1v1zm2-2h-1v-2h1v2zm-7 13h-2v-2h2v2zm2-3h-1v-1h1v1zm3-3h-1v-1h1v1zm2-2h-1v-2h1v2zm3-3h-1v-1h1v1zm508 1h-3v-3h3v3zm-25 25h-3v-3h3v3z" class="st0"/><path d="m764 61 36-36 36 36-36 36z" class="st0"/><path d="m753 62 47-47 47 47-47 46z" class="st0"/><path d="m786 61 14-14 15 14-15 15z" class="st0"/><path d="M777 63h-4v-3h4v3zm25-25h-3v-4h3v4zm-11 24h-2v-1h2v1zm2-3h-1v-1h1v1zm3-2h-2l1-2 1 1v1zm2-3h-1v-1h1v1zm3-2h-1v-2h1v2zm-8 13h-1v-2h1v2zm3-3h-2l1-1h1v1zm2-3h-1v-1h1v1zm3-2h-1v-2l1 1v1zm3-3h-2v-1h2v1zm-8 13h-2l1-1h1v1zm2-2h-1v-2h1v2zm3-3h-1v-1h1v1zm3-2h-2v-2h2v2zm2-3h-1v-2l1 1v1zm-8 13h-1v-1h1v1zm3-3h-1v-1h1v1zm3-2h-2v-2h2v2zm2-3h-1v-1h1v1zm3-2h-1v-2h1v2zm-8 13h-1v-2h1v2zm3-3h-2v-1h2v1zm2-3h-1v-1h1v1zm3-2h-1v-2h1v2zm3-3h-2v-1h2v1zm-415 63h-4v-4h4v4zm-26 25h-3v-4h3v4z" class="st0"/><path d="m333 123 36-36 37 36-37 36z" class="st0"/><path d="m323 123 47-47 47 47-47 47z" class="st0"/><path d="m355 123 14-15 15 15-15 14z" class="st0"/><path d="M346 125h-3v-4h3v4zm25-26h-3v-3h3v3zm-11 25h-1v-2h1v2zm2-3h-1v-1h1v1zm3-3h-1v-1h1v1zm3-2h-2v-2h2v2zm2-3h-1v-1h1v1zm-8 13h-1v-1h1v1zm3-2h-1v-2h1v2zm3-3h-2v-1h2v1zm2-3h-1v-1h1v1zm3-2h-1v-2h1v2zm-8 13h-1v-2h1v2zm3-3h-2v-1h2v1zm2-2h-1v-2h1v2zm3-3h-1v-1h1v1zm2-3h-1v-1h1v1zm-7 13h-2v-1h2v1zm2-2h-1v-2h1v2zm3-3h-1v-1h1v1zm2-2h-1v-2h1v2zm3-3h-1v-1h1v1zm-8 13h-1v-1h1v1zm3-3h-1v-1h1v1zm2-2h-1v-2h1v2zm3-3h-1v-1h1v1zm3-2h-2v-2h2v2zm139 1h-4v-4h4v4zm-26 25h-3v-4h3v4z" class="st0"/><path d="m457 123 36-36 36 36-36 36z" class="st0"/><path d="m446 123 47-47 47 47-47 47z" class="st0"/><path d="m478 123 15-15 14 15-14 14z" class="st0"/><path d="M469 125h-3v-4h3v4zm25-26h-3v-3h3v3zm-11 25h-1v-2h1v2zm3-3h-2v-1h1l1 1zm2-3h-1v-1h1v1zm3-2h-2v-2h2v2zm2-3h-1v-1h1v1zm-7 13h-2v-1h1l1 1zm2-2h-1v-2h1v2zm3-3h-2v-1h2v1zm2-3h-1v-1h1v1zm3-2h-1v-2h1v2zm-8 13h-1v-2h1v2zm3-3h-2v-1h2v1zm2-2h-1v-2h1v2zm3-3h-1v-1h1v1zm3-3h-2v-1h2v1zm-8 13h-1v-1h1v1zm2-2h-1v-2h1v2zm3-3h-1v-1h1v1zm3-2h-2v-2h2v2zm2-3h-1v-1h1v1zm-8 13h-1v-1h1v1zm3-3h-1v-1h1v1zm3-2h-2v-2h2v2zm2-3h-1v-1h1v1zm3-2h-1v-2h1v2zm-46 62h-4v-4h4v4zm-25 25h-4v-3h4v3z" class="st0"/><path d="m395 184 36-36 36 36-36 36z" class="st0"/><path d="m384 184 47-47 47 47-47 47z" class="st0"/><path d="m416 184 15-14 14 14-14 15z" class="st0"/><path d="M407 186h-3v-4h3v4zm26-25h-4v-4h4v4zm-12 24h-1v-1h1v1zm3-3h-1v-1h1v1zm2-2h-1v-2h1v2zm3-3h-1v-1h1v1zm3-3h-2v-1h2v1zm-8 13h-1v-1h1v1zm2-2h-1v-1h1v1zm3-3h-1v-1h1v1zm3-2h-2v-2h2v2zm2-3h-1v-1h1v1zm-8 13h-1v-1h1v1zm3-2h-1v-2h1v1zm3-3h-2v-1h2v1zm2-3h-1v-1h1v1zm3-2h-1v-2h1v2zm-8 13h-1v-2h1v2zm3-3h-2v-1h2v1zm2-2h-1v-2h1v1zm3-3h-1v-1h1v1zm2-3h-1v-1h1v1zm-7 13h-2v-1h2v1zm2-2h-1v-2h1v2zm3-3h-1v-1h1v1zm2-2h-1v-2h1v1zm3-3h-1v-1h1v1zm16-122h-4v-3h4v3zm-25 25h-4v-3h4v3z" class="st0"/><path d="m395 61 36-36 36 36-36 37z" class="st0"/><path d="m384 61 47-47 47 47-47 47z" class="st0"/><path d="m416 61 15-14 14 14-14 15z" class="st0"/><path d="M407 63h-3v-3h3v3zm26-25h-4v-4h4v4zm-12 24h-1v-1h1v1zm3-3h-1v-1h1v1zm2-2h-1v-2l1 1v1zm3-3h-1v-1h1v1zm3-2h-2v-2h2v2zm-8 13h-1v-2h1v2zm2-3h-1v-1h1v1zm3-3h-1v-1h1v1zm3-2h-2v-2l2 1v1zm2-3h-1v-1h1v1zm-8 13h-1v-1h1v1zm3-2h-1v-2h1v2zm3-3h-2v-1h2v1zm2-2h-1v-2h1v2zm3-3h-1v-2l1 1v1zm-8 13h-1v-1h1v1zm3-3h-2v-1h2v1zm2-2h-1v-2h1v2zm3-3h-1v-1h1v1zm2-2h-1v-2h1v2zm-7 13h-2v-2h2v2zm2-3h-1v-1h1v1zm3-3h-1v-1h1v1zm2-2h-1v-2h1v2zm3-3h-1v-1h1v1zm-11 64v1m0 3v4m0 2v1m0-29v2m0 3v4m0 1v2m-14 3h1m3 0h4m2 0h1m6 0h1m3 0h5m1 0h2m197 2h-4v-4h4v4zm-25 25h-4v-4h4v4z" class="st0"/><path d="m580 123 36-36 36 36-36 36z" class="st0"/><path d="m569 123 47-47 47 47-47 47z" class="st0"/><path d="m601 123 15-15 14 15-14 14z" class="st0"/><path d="M592 125h-3v-4h3v4zm26-26h-4v-3h4v3zm-12 25h-1v-2h1v2zm3-3h-2v-1h2v1zm2-3h-1v-1h1v1zm3-2h-1v-2h1v2zm3-3h-2v-1h2v1zm-8 13h-2v-1h2v1zm2-2h-1v-2h1v2zm3-3h-1v-1h1v1zm3-3h-2v-1h2v1zm2-2h-1v-2h1v2zm-8 13h-1v-2h1v2zm3-3h-1v-1h1v1zm3-2h-2v-2h2v2zm2-3h-1v-1h1v1zm3-3h-2v-1h2v1zm-8 13h-1v-1h1v1zm3-2h-2v-2h2v2zm2-3h-1v-1h1v1zm3-2h-2v-2h2v2zm2-3h-1v-1h1v1zm-7 13h-2v-1h2v1zm2-3h-1v-1h1v1zm3-2h-2v-2h2v2zm2-3h-1v-1h1v1zm3-2h-1v-2h1v2zm139 1h-4v-4h4v4zm-25 25h-4v-4h4v4z" class="st0"/><path d="m703 123 36-36 36 36-36 36z" class="st0"/><path d="m692 123 47-47 47 47-47 47z" class="st0"/><path d="m724 123 15-15 14 15-14 14z" class="st0"/><path d="M715 125h-3v-4h3v4zm26-26h-4v-3h4v3zm-12 25h-1v-2h1v2zm3-3h-2l1-1h1v1zm2-3h-1v-1h1v1zm3-2h-1v-2h1v2zm3-3h-2v-1h2v1zm-8 13h-2l1-1h1v1zm2-2h-1v-2h1v2zm3-3h-1v-1h1v1zm3-3h-2v-1h2v1zm2-2h-1v-2h1v2zm-8 13h-1v-2h1v2zm3-3h-1v-1h1v1zm3-2h-2v-2h2v2zm2-3h-1v-1h1v1zm3-3h-1v-1h1v1zm-8 13h-1v-1h1v1zm3-2h-2v-2h2v2zm2-3h-1v-1h1v1zm3-2h-1v-2h1v2zm3-3h-2v-1h2v1zm-8 13h-2v-1h2v1zm2-3h-1v-1h1v1zm3-2h-1v-2h1v2zm3-3h-2v-1h2v1zm2-2h-1v-2h1v2zm-46 62h-3v-4h3v4zm-25 25h-4v-3h4v3z" class="st0"/><path d="m641 184 36-36 36 36-36 36z" class="st0"/><path d="m630 184 47-47 47 47-47 47z" class="st0"/><path d="m663 184 14-14 15 14-15 15z" class="st0"/><path d="M654 186h-4v-4h4v4zm25-25h-4v-4h4v4zm-12 24h-1v-1h1v1zm3-3h-1v-1h1v1zm3-2h-2v-2h2v2zm2-3h-1v-1h1v1zm3-3h-1v-1h1v1zm-8 13h-1v-1h1v1zm3-2h-2v-1h2v1zm2-3h-1v-1h1v1zm3-2h-1v-2h1v2zm3-3h-2v-1h2v1zm-8 13h-2v-1h2v1zm2-2h-1v-2h1v1zm3-3h-1v-1h1v1zm3-3h-2v-1h2v1zm2-2h-1v-2h1v2zm-8 13h-1v-2h1v2zm3-3h-1v-1h1v1zm3-2h-2v-2h2v1zm2-3h-1v-1h1v1zm3-3h-2v-1h2v1zm-8 13h-1v-1h1v1zm3-2h-2v-2h2v2zm2-3h-1v-1h1v1zm3-2h-2v-2h2v1zm2-3h-1v-1h1v1zm16-122h-3v-3h3v3zm-25 25h-4v-3h4v3z" class="st0"/><path d="m641 61 36-36 36 36-36 37z" class="st0"/><path d="m630 61 47-47 47 47-47 47z" class="st0"/><path d="m663 62 14-15 15 15-15 14z" class="st0"/><path d="M654 63h-4v-3h4v3zm25-25h-4v-4h4v4zm-12 24h-1v-1h1v1zm3-3h-1v-1h1v1zm3-2h-2v-2l2 1v1zm2-3h-1v-1h1v1zm3-2h-1v-2h1v2zm-8 13h-1v-2h1v2zm3-3h-2v-1h2v1zm2-3h-1v-1h1v1zm3-2h-1v-2l1 1v1zm3-3h-2v-1h2v1zm-8 13h-2v-1h2v1zm2-2h-1v-2h1v2zm3-3h-1v-1h1v1zm3-2h-2v-2h2v2zm2-3h-1v-2l1 1v1zm-8 13h-1v-1h1v1zm3-3h-1v-1h1v1zm3-2h-2v-2h2v2zm2-3h-1v-1h1v1zm3-2h-2v-2h2v2zm-8 13h-1v-2h1v2zm3-3h-2v-1h2v1zm2-3h-1v-1h1v1zm3-2h-2v-2h2v2zm2-3h-1v-1h1v1zm-11 64v1m0 3v4m0 2v1m0-29v2m0 3v4m0 1v2m-14 3h1m3 0h4m2 0h1m6 0h2m3 0h4m2 0h1M581 63h-3v-3h3v3zm-25 25h-4v-3h4v3z" class="st0"/><path d="m518 61 36-36 36 36-36 36z" class="st0"/><path d="m507 62 47-47 47 47-47 46z" class="st0"/><path d="m540 61 14-14 15 14-15 15z" class="st0"/><path d="M531 63h-4v-3h4v3zm25-25h-4v-4h4v4zm-12 24h-1v-1h1v1zm3-3h-1v-1h1v1zm3-2h-2v-2l2 1v1zm2-3h-1v-1h1v1zm3-2h-2v-2h2v2zm-8 13h-1v-2h1v2zm3-3h-2v-1h2v1zm2-3h-1v-1h1v1zm3-2h-2v-2l2 1v1zm2-3h-1v-1h1v1zm-7 13h-2v-1h2v1zm2-2h-1v-2h1v2zm3-3h-2v-1h2v1zm2-2h-1v-2h1v2zm3-3h-1v-2l1 1v1zm-8 13h-1v-1h1v1zm3-3h-2v-1h2v1zm2-2h-1v-2h1v2zm3-3h-1v-1h1v1zm3-2h-2v-2h2v2zm-8 13h-2l1-2h1v2zm2-3h-1v-1h1v1zm3-3h-1v-1h1v1zm3-2h-2v-2h2v2zm2-3h-1v-1h1v1zm-45 185h-4v-3h4v3zm-26 26h-3v-4h3v4z" class="st0"/><path d="m457 246 36-36 36 36-36 36z" class="st0"/><path d="m446 246 47-47 47 47-47 47z" class="st0"/><path d="m478 246 15-15 14 15-14 14z" class="st0"/><path d="M469 247h-3v-3h3v3zm25-25h-3v-3h3v3zm-11 24h-1v-1h1v1zm3-2h-2v-2h1l1 2zm2-3h-1v-1h1v1zm3-3h-2v-1h2v1zm2-2h-1v-1h1v1zm-7 13h-2v-1h1l1 1zm2-3h-1v-1h1v1zm3-2h-2v-2h2v2zm2-3h-1v-1h1v1zm3-3h-1v-1h1v1zm-8 14h-1v-2h1v1zm3-3h-2v-1h2v1zm2-3h-1v-1h1v1zm3-2h-1v-2h1v2zm3-3h-2v-1h2v1zm-8 13h-1v-1h1v1zm2-2h-1v-2h1v1zm3-3h-1v-1h1v1zm3-3h-2v-1h2v1zm2-2h-1v-2h1v2zm-8 13h-1v-2h1v2zm3-3h-1v-1h1v1zm3-2h-2v-2h2v1zm2-3h-1v-1h1v1zm3-3h-1v-1h1v1zm139 1h-4v-3h4v3zm-25 26h-4v-4h4v4z" class="st0"/><path d="m580 246 36-36 36 36-36 36z" class="st0"/><path d="m569 246 47-47 47 47-47 47z" class="st0"/><path d="m601 246 15-15 14 15-14 14z" class="st0"/><path d="M592 247h-3v-3h3v3zm26-25h-4v-3h4v3zm-12 24h-1v-1h1v1zm3-2h-2v-2h2v2zm2-3h-1v-1h1v1zm3-3h-1v-1h1v1zm3-2h-2v-1h2v1zm-8 13h-2v-1h2v1zm2-3h-1v-1h1v1zm3-2h-1v-2h1v2zm3-3h-2v-1h2v1zm2-3h-1v-1h1v1zm-8 14h-1v-2h1v1zm3-3h-1v-1h1v1zm3-3h-2v-1h2v1zm2-2h-1v-2h1v2zm3-3h-2v-1h2v1zm-8 13h-1v-1h1v1zm3-2h-2v-2h2v1zm2-3h-1v-1h1v1zm3-3h-2v-1h2v1zm2-2h-1v-2h1v2zm-7 13h-2v-2h2v2zm2-3h-1v-1h1v1zm3-2h-2v-2h2v1zm2-3h-1v-1h1v1zm3-3h-1v-1h1v1zm-46 63h-3v-4h3v4zm-25 25h-4v-3h4v3z" class="st0"/><path d="m518 307 36-36 36 36-36 36z" class="st0"/><path d="m507 307 47-47 47 47-47 47z" class="st0"/><path d="m540 307 14-14 15 14-15 14z" class="st0"/><path d="M531 309h-4v-4h4v4zm25-26h-4v-3h4v3zm-12 25h-1v-2h1v2zm3-3h-1v-1h1v1zm3-3h-2v-1h2v1zm2-2h-1v-1h1v1zm3-3h-2v-1h2v1zm-8 13h-1v-1h1v1zm3-2h-2v-2h2v2zm2-3h-1v-1h1v1zm3-3h-2v-1h2v1zm2-2h-1v-1h1v1zm-7 13h-2v-1h2v1zm2-3h-1v-1h1v1zm3-2h-2v-2h2v2zm2-3h-1v-1h1v1zm3-3h-1v-1h1v1zm-8 14h-1v-2h1v1zm3-3h-2v-1h2v1zm2-3h-1v-1h1v1zm3-2h-1v-2h1v2zm3-3h-2v-1h2v1zm-8 13h-2l1-1h1v1zm2-2h-1v-2h1v1zm3-3h-1v-1h1v1zm3-3h-2v-1h2v1zm2-2h-1v-2h1v2zm16-122h-3v-4h3v4zm-25 25h-4v-3h4v3z" class="st0"/><path d="m518 184 36-36 36 36-36 36z" class="st0"/><path d="m507 184 47-47 47 47-47 47z" class="st0"/><path d="m540 184 14-14 15 14-15 15z" class="st0"/><path d="M531 186h-4v-4h4v4zm25-25h-4v-4h4v4zm-12 24h-1v-1h1v1zm3-3h-1v-1h1v1zm3-2h-2v-2h2v2zm2-3h-1v-1h1v1zm3-3h-2v-1h2v1zm-8 13h-1v-1h1v1zm3-2h-2v-1h2v1zm2-3h-1v-1h1v1zm3-2h-2v-2h2v2zm2-3h-1v-1h1v1zm-7 13h-2v-1h2v1zm2-2h-1v-2h1v1zm3-3h-2v-1h2v1zm2-3h-1v-1h1v1zm3-2h-1v-2h1v2zm-8 13h-1v-2h1v2zm3-3h-2v-1h2v1zm2-2h-1v-2h1v1zm3-3h-1v-1h1v1zm3-3h-2v-1h2v1zm-8 13h-2l1-1h1v1zm2-2h-1v-2h1v2zm3-3h-1v-1h1v1zm3-2h-2v-2h2v1zm2-3h-1v-1h1v1zm-11 63v2m0 3v4m0 2v1m0-29v2m0 3v4m0 1v2m-14 3h1m3 0h4m2 0h1m6 0h1m3 0h5m1 0h2M458 554h-4v-3h4v3zm-25 26h-4v-4h4v4z" class="st0"/><path d="m395 553 36-36 36 36-36 36z" class="st0"/><path d="m478 553-47-47-47 47 47 47z" class="st0"/><path d="m416 553 15-15 14 15-14 14z" class="st0"/><path d="M407 554h-3v-3h3v3zm26-25h-4v-3h4v3zm-12 24h-1v-1h1v1zm3-2h-1v-2h1v2zm2-3h-1v-1h1v1zm3-3h-1v-1h1v1zm3-2h-2v-2l2 1v1zm-8 13h-1v-2l1 1v1zm2-3h-1v-1h1v1zm3-2h-1v-2h1v2zm3-3h-2v-1h2v1zm2-3h-1v-1h1v1zm-8 13h-1v-1h1v1zm3-2h-1v-2l1 1v1zm3-3h-2v-1h2v1zm2-2h-1v-2h1v2zm3-3h-1v-1h1v1zm-8 13h-1v-1h1v1zm3-3h-2v-1h2v1zm2-2h-1v-2l1 1v1zm3-3h-1v-1h1v1zm2-2h-1v-2h1v2zm-7 13h-2v-2h2v2zm2-3h-1v-1h1v1zm3-3h-1v-1h1v1zm2-2h-1v-2l1 1v1zm3-3h-1v-1h1v1zm262 1h-3v-3h3v3zm-25 26h-4v-4h4v4z" class="st0"/><path d="m641 553 36-36 36 36-36 36z" class="st0"/><path d="m724 553-47-47-47 47 47 47z" class="st0"/><path d="m663 553 14-15 15 15-15 14z" class="st0"/><path d="M654 554h-4v-3h4v3zm25-25h-4v-3h4v3zm-12 24h-1v-1h1v1zm3-2h-1v-2h1v2zm3-3h-2v-1h2v1zm2-3h-1v-1h1v1zm3-2h-1v-2l1 1v1zm-8 13h-1v-2l1 1v1zm3-3h-2v-1h2v1zm2-2h-1v-2h1v2zm3-3h-1v-1h1v1zm3-3h-2v-1h2v1zm-8 13h-2v-1h2v1zm2-2h-1v-2l1 1v1zm3-3h-1v-1h1v1zm3-2h-2v-2h2v2zm2-3h-1v-1h1v1zm-8 13h-1v-1h1v1zm3-3h-1v-1h1v1zm3-2h-2v-2l2 1v1zm2-3h-1v-1h1v1zm3-2h-2v-2h2v2zm-8 13h-1v-2h1v2zm3-3h-2v-1h2v1zm2-3h-1v-1h1v1zm3-2h-2v-2l2 1v1zm2-3h-1v-1h1v1zm-168-60h-4v-4h4v4zm-26 25h-3v-3h3v3z" class="st0"/><path d="m457 491 36-36 36 36-36 36z" class="st0"/><path d="m446 491 47-47 47 47-47 47z" class="st0"/><path d="m478 491 15-14 14 14-14 15z" class="st0"/><path d="M469 493h-3v-4h3v4zm25-25h-3v-4h3v4zm-11 24h-1v-1h1v1zm3-3h-2v-1h1l1 1zm2-2h-1v-2h1v2zm3-3h-2v-1h2v1zm2-3h-1v-1h1v1zm-7 14h-2v-2h1l1 1zm2-3h-1v-1h1v1zm3-3h-2v-1h2v1zm2-2h-1v-2h1v2zm3-3h-1v-1h1v1zm-8 13h-1v-1h1v1zm3-2h-2v-2h2v1zm2-3h-1v-1h1v1zm3-3h-1v-1h1v1zm3-2h-2v-2h2v2zm-8 13h-1v-2h1v2zm2-3h-1v-1h1v1zm3-2h-1v-2h1v1zm3-3h-2v-1h2v1zm2-3h-1v-1h1v1zm-8 13h-1v-1h1v1zm3-2h-1v-2h1v2zm3-3h-2v-1h2v1zm2-2h-1v-2h1v1zm3-3h-1v-1h1v1zm139 1h-4v-4h4v4zm-25 25h-4v-3h4v3z" class="st0"/><path d="m580 491 36-36 36 36-36 36z" class="st0"/><path d="m569 491 47-47 47 47-47 47z" class="st0"/><path d="m601 491 15-14 14 14-14 15z" class="st0"/><path d="M592 493h-3v-4h3v4zm26-25h-4v-4h4v4zm-12 24h-1v-1h1v1zm3-3h-2v-1h2v1zm2-2h-1v-2h1v2zm3-3h-1v-1h1v1zm3-3h-2v-1h2v1zm-8 14h-2v-2h2v1zm2-3h-1v-1h1v1zm3-3h-1v-1h1v1zm3-2h-2v-2h2v2zm2-3h-1v-1h1v1zm-8 13h-1v-1h1v1zm3-2h-1v-2h1v1zm3-3h-2v-1h2v1zm2-3h-1v-1h1v1zm3-2h-2v-2h2v2zm-8 13h-1v-2h1v2zm3-3h-2v-1h2v1zm2-2h-1v-2h1v1zm3-3h-2v-1h2v1zm2-3h-1v-1h1v1zm-7 13h-2v-1h2v1zm2-2h-1v-2h1v2zm3-3h-2v-1h2v1zm2-2h-1v-2h1v1zm3-3h-1v-1h1v1zm-46 62h-3v-3h3v3zm-25 26h-4v-4h4v4z" class="st0"/><path d="m518 553 36-37 36 37-36 36z" class="st0"/><path d="m601 553-47-47-47 47 47 47z" class="st0"/><path d="m540 553 14-15 14 15-14 14z" class="st0"/><path d="M531 554h-4v-3h4v3zm25-25h-4v-3h4v3zm-12 24h-1v-1h1v1zm3-2h-1v-2h1v2zm3-3h-2v-1h2v1zm2-3h-1v-1h1v1zm3-2h-2v-2l2 1v1zm-8 13h-1v-2l1 1v1zm3-3h-2v-1h2v1zm2-2h-1v-2h1v2zm3-3h-2v-1h2v1zm2-3h-1v-1h1v1zm-7 13h-2v-1h2v1zm2-2h-1v-2l1 1v1zm3-3h-2v-1h2v1zm2-2h-1v-2h1v2zm3-3h-1v-1h1v1zm-8 13h-1v-1h1v1zm3-3h-2v-1h2v1zm2-2h-1v-2l1 1v1zm3-3h-1v-1h1v1zm3-2h-2v-2h2v2zm-8 13h-2l1-2h1v2zm2-3h-1v-1h1v1zm3-3h-1v-1h1v1zm3-2h-2v-2l2 1v1zm2-3h-1v-1h1v1zm16-121h-3v-4h3v4zm-25 25h-4v-4h4v4z" class="st0"/><path d="m518 430 36-36 36 36-36 36z" class="st0"/><path d="m507 430 47-47 47 47-47 47z" class="st0"/><path d="m540 430 14-15 15 15-15 14z" class="st0"/><path d="M531 432h-4v-4h4v4zm25-26h-4v-3h4v3zm-12 24h-1v-1h1v1zm3-2h-1v-1h1v1zm3-3h-2v-1h2v1zm2-2h-1v-2h1v2zm3-3h-2v-1h2v1zm-8 13h-1v-1h1v1zm3-3h-2v-1h2v1zm2-2h-1v-1h1v1zm3-3h-2v-1h2v1zm2-2h-1v-2h1v2zm-7 13h-2v-2h2v2zm2-3h-1v-1h1v1zm3-3h-2v-1h2v1zm2-2h-1v-1h1v1zm3-3h-1v-1h1v1zm-8 13h-1v-1h1v1zm3-2h-2v-2h2v2zm2-3h-1v-1h1v1zm3-3h-1v-1h1v1zm3-2h-2v-1h2v1zm-8 13h-2l1-1h1v1zm2-3h-1v-1h1v1zm3-2h-1v-2h1v2zm3-3h-2v-1h2v1zm2-3h-1v-1h1v1zm-11 64v2m0 2v5m0 1v2m0-29v1m0 3v4m0 2v1m-14 3h1m3 0h4m2 0h1m6 0h1m3 0h5m1 0h2" class="st0"/><g opacity=".5"><circle cx="184.6" cy="368.4" r="2.9" class="st2"/><circle cx="430.9" cy="368.4" r="2.9" class="st2"/><circle cx="307.7" cy="245.6" r="2.9" class="st2"/><circle cx="307.7" cy="491.2" r="2.9" class="st2"/><circle cx="184.6" cy="122.8" r="2.9" class="st2"/><circle cx="61.4" cy="245.6" r="2.9" class="st2"/><circle cx="61.4" cy="491.2" r="2.9" class="st2"/><circle cx="677.2" cy="368.4" r="2.9" class="st2"/><circle cx="923.4" cy="368.4" r="2.9" class="st2"/><circle cx="800.3" cy="245.6" r="2.9" class="st2"/><circle cx="1046.5" cy="245.6" r="2.9" class="st2"/><circle cx="1292.6" cy="245.6" r="2.9" class="st2"/><circle cx="800.3" cy="491.2" r="2.9" class="st2"/><circle cx="1046.4" cy="491.2" r="2.9" class="st2"/><circle cx="1292.7" cy="491.2" r="2.9" class="st2"/><circle cx="923.3" cy="122.8" r="2.9" class="st2"/><circle cx="1169.7" cy="368.4" r="2.9" class="st2"/><circle cx="1415.9" cy="368.4" r="2.9" class="st2"/><circle cx="1169.6" cy="122.8" r="2.9" class="st2"/><circle cx="1415.9" cy="122.8" r="2.9" class="st2"/><circle cx="430.9" cy="122.8" r="2.9" class="st2"/><circle cx="677.2" cy="122.8" r="2.9" class="st2"/><circle cx="554" cy="245.6" r="2.9" class="st2"/><circle cx="554" cy="491.2" r="2.9" class="st2"/></g><path d="m23 614 1-2h3l1 2M0 578l36 36M0 567l47 47M0 600l15 14M0 586l2 1v4H0m0 12h1v1H0m0 4h1v1l-1 1m3-3H2v-1h1v1zm-3 6h1v1m2-2H2v-1h1v1zm3-2H5v-2h1v2zm-2 4 1-1h1v1m3-2H7v-1h2v1zm1 2v-1h1v1m1439 0 1-2h3l1 2m23-23h-2v-4l2-1m-36 28 36-36m-47 36 47-47m-15 47 15-14m-1 14v-1h1m0-3-1-1v-1h1m-4 3h2v1h-2v-1zm-2 3v-1h1v1m5-9-1-1v-1h1m-4 3h2v1h-2v-2zm-2 2h1v1h-1v-1zm-3 3h2v1h-2v-1zm-3 3 1-1h1v1m-17-124h3v3h-3v-3zm27-21-2-1v-4h2" class="st0"/><path d="m1478 527-36-36 36-36" class="st0"/><path d="m1478 538-47-47 47-47" class="st0"/><path d="m1478 506-15-15 15-14m0 42-2-1v-3l1-1" class="st0"/><path d="m1478 503-1-1v-1h1m0-4h-1v-1l1-1m-4 3h2v2h-2v-2zm4-6h-1v-1l1-1m-4 3h2v1l-2 1v-2zm-2 3h1v1h-1v-1zm6-9h-1v-2h1m-4 3h2v1h-2v-1zm-2 3h1v1h-1v-1zm-3 2h2v1l-2 1v-2zm9-11h-1v-2h1m-4 3h2v1h-2v-1zm-2 2h1v2h-1v-2zm-3 3h2v1h-2v-1zm-2 3h1v1h-1v-1zm-16-124h3v3h-3v-3zm27-21-2-1v-3l2-1" class="st0"/><path d="m1478 405-36-37 36-36" class="st0"/><path d="m1478 415-47-47 47-47" class="st0"/><path d="m1478 383-15-15 15-14m0 42-2-1v-3l1-1" class="st0"/><path d="M1478 380h-1v-2h1m0-3-1-1v-1h1m-4 3h2v1h-2v-1zm4-7h-1v-1l1-1m-4 3h2v2h-2v-2zm-2 3h1v1h-1v-1zm6-9h-1v-1l1-1m-4 3h2v1l-2 1v-2zm-2 3h1v1h-1v-1zm-3 2h2v2h-2v-2zm9-11h-1v-2h1m-4 3h2v1h-2v-1zm-2 3h1v1h-1v-1zm-3 2h2v1l-2 1v-2zm-2 3h1v1h-1v-1zm-16-124h3v4h-3v-4zm27-21-2-1v-3l2-1" class="st0"/><path d="m1478 282-36-36 36-36" class="st0"/><path d="m1478 293-47-47 47-47" class="st0"/><path d="m1478 260-15-14 15-15m0 42h-2v-4l1-1" class="st0"/><path d="M1478 257h-1v-1l1-1m0-3h-1v-2h1m-4 3h2v1h-2v-1zm4-6-1-1v-1h1m-4 3h2v1h-2v-1zm-2 2h1v1l-1 1v-2zm6-9h-1v-1l1-1m-4 3h2v2h-2v-2zm-2 3h1v1h-1v-1zm-3 3h2v1h-2v-1zm9-12h-1v-1l1-1m-4 3h2v1l-2 1v-2zm-2 3h1v1h-1v-1zm-3 2h2v2h-2v-2zm-2 3h1v1h-1v-1zm-16-124h3v4h-3v-4zm27-21-2-1v-3l2-1" class="st0"/><path d="m1478 159-36-36 36-36" class="st0"/><path d="m1478 170-47-47 47-47" class="st0"/><path d="m1478 137-15-14 15-14m0 42-2-1v-4h1" class="st0"/><path d="M1478 134h-1v-1l1-1m0-3h-1v-2h1m-4 3h2v1h-2v-1zm4-6-1-1v-1h1m-4 3h2v1h-2v-1zm-2 2h1v2h-1v-2zm6-8-1-1v-1h1m-4 3h2v1h-2v-1zm-2 2h1v2h-1v-2zm-3 3h2v1h-2v-1zm9-12h-1v-1h1m-4 2h2v2h-2v-2zm-2 3h1v1h-1v-1zm-3 3h2v1h-2v-1zm-2 2h1v2h-1v-2zM1455 0l-1 2h-3l-1-2m28 36-36-36m36 47-47-47m47 15-15-15m15 28-2-1v-3l1-1m1-11-1-1v-1h1m0-4h-1V5l1-1m-4 3h2v2h-2V7zm4-6h-1V0m-3 2h2v1h-2V2zm-2 3h1v1h-1V5zm1-5v1h-1V0m-3 2h2v1h-2V2zm-1-2v1h-1l-1-1" class="st0"/></svg>