<svg xmlns="http://www.w3.org/2000/svg" xml:space="preserve" id="Layer_1" x="0" y="0" style="enable-background:new 0 0 1100.6 690.4" version="1.1" viewBox="0 0 1101 690"><style>.cryptotrad0{stroke:gray}.cryptotrad0,.cryptotrad1,.cryptotrad2,.cryptotrad3{fill:none;stroke-linecap:round;stroke-linejoin:round;stroke-miterlimit:10}.cryptotrad1,.cryptotrad2{stroke:#ee5586;stroke-width:2}.cryptotrad2{stroke:#414142}.cryptotrad3{stroke:#ee5586;stroke-width:4}.cryptotrad4{stroke:#414142;stroke-width:3}.cryptotrad4,.cryptotrad5,.cryptotrad6{fill:none;stroke-linecap:round;stroke-linejoin:round;stroke-miterlimit:10}.cryptotrad5{stroke:#ee5586;stroke-width:3}.cryptotrad6{stroke:#414142}</style><circle cx="288.1" cy="109.1" r="5.3" class="cryptotrad0" transform="rotate(-45 288 109)"/><circle cx="275.1" cy="130.9" r="5.3" class="cryptotrad0" transform="rotate(-13 275 131)"/><circle cx="277.2" cy="145.6" r="5.3" class="cryptotrad0" transform="rotate(-13 277 146)"/><circle cx="285.6" cy="85.9" r="5.3" class="cryptotrad0" transform="rotate(-45 286 86)"/><circle cx="276.3" cy="257.1" r="5.3" class="cryptotrad0"/><circle cx="260.3" cy="157.2" r="5.3" class="cryptotrad0" transform="rotate(-45 260 157)"/><circle cx="268" cy="235.9" r="5.3" class="cryptotrad0" transform="rotate(-45 268 236)"/><path d="M284 167c0-3-2-5-5-5s-5 2-5 5 2 5 5 5 5-2 5-5z" class="cryptotrad0"/><circle cx="285.8" cy="411.3" r="5.3" class="cryptotrad0"/><circle cx="295.3" cy="132.4" r="5.3" class="cryptotrad0" transform="rotate(-13 295 132)"/><circle cx="271.9" cy="112.4" r="5.3" class="cryptotrad0" transform="rotate(-13 272 112)"/><circle cx="288.2" cy="236.6" r="5.3" class="cryptotrad0" transform="rotate(-67 288 237)"/><circle cx="303.5" cy="95.6" r="5.3" class="cryptotrad0" transform="rotate(-9 304 96)"/><circle cx="286.3" cy="383.9" r="5.3" class="cryptotrad0" transform="rotate(-13 286 384)"/><circle cx="274.3" cy="279.8" r="5.3" class="cryptotrad0" transform="rotate(-13 274 280)"/><circle cx="255.8" cy="354.7" r="5.3" class="cryptotrad0"/><circle id="svg-concept" cx="284.4" cy="445.1" r="5.3" class="cryptotrad1" transform="rotate(-9 284 445)"/><circle cx="382.8" cy="73.6" r="5.3" class="cryptotrad0"/><circle cx="347.8" cy="173.3" r="5.3" class="cryptotrad0"/><circle cx="306.4" cy="114.1" r="5.3" class="cryptotrad0"/><circle cx="357.8" cy="66.2" r="5.3" class="cryptotrad0" transform="rotate(-45 358 66)"/><path d="M356 54c3 0 6-3 6-5 0-3-3-6-6-6s-5 3-5 6 2 5 5 5z" class="cryptotrad0"/><circle cx="361.6" cy="82.4" r="5.3" class="cryptotrad0" transform="rotate(-45 362 82)"/><circle cx="396.8" cy="43" r="5.3" class="cryptotrad0" transform="rotate(-45 397 43)"/><circle cx="390.8" cy="158.5" r="5.3" class="cryptotrad0" transform="rotate(-67 391 159)"/><circle cx="379.8" cy="136.3" r="5.3" class="cryptotrad0"/><circle cx="383.8" cy="104.6" r="5.3" class="cryptotrad0"/><circle id="svg-concept" cx="430" cy="83.4" r="5.3" class="cryptotrad1"/><circle cx="255.7" cy="287.1" r="5.3" class="cryptotrad0" transform="rotate(-45 256 287)"/><circle cx="228.8" cy="173.2" r="5.3" class="cryptotrad0" transform="rotate(-13 229 173)"/><circle cx="252" cy="186.4" r="5.3" class="cryptotrad0"/><circle cx="250.1" cy="132.4" r="5.3" class="cryptotrad0" transform="rotate(-45 250 132)"/><circle cx="239" cy="118.9" r="5.3" class="cryptotrad0" transform="rotate(-67 239 119)"/><circle cx="225.6" cy="300" r="5.3" class="cryptotrad0" transform="rotate(-45 226 300)"/><circle cx="236.8" cy="205.6" r="5.3" class="cryptotrad0" transform="rotate(-13 237 206)"/><circle cx="241.9" cy="254" r="5.3" class="cryptotrad0" transform="rotate(-45 242 254)"/><circle cx="250.5" cy="334.6" r="5.3" class="cryptotrad0" transform="rotate(-45 251 335)"/><circle cx="294.5" cy="56.6" r="5.3" class="cryptotrad0"/><circle cx="281.1" cy="68.6" r="5.3" class="cryptotrad0" transform="rotate(-45 281 69)"/><circle cx="266.6" cy="61.9" r="5.3" class="cryptotrad0" transform="rotate(-45 267 62)"/><path d="M340 65c3 0 5-2 5-5s-2-5-5-5-5 2-5 5 2 5 5 5z" class="cryptotrad0"/><circle cx="306.4" cy="65.6" r="5.3" class="cryptotrad0" transform="rotate(-9 306 66)"/><circle cx="324" cy="55.9" r="5.3" class="cryptotrad0" transform="rotate(-13 324 56)"/><circle cx="336.6" cy="87.9" r="5.3" class="cryptotrad0" transform="rotate(-13 337 88)"/><circle id="svg-concept" cx="317.4" cy="82.4" r="5.3" class="cryptotrad1" transform="rotate(-45 317 82)"/><circle cx="309.2" cy="46.9" r="5.3" class="cryptotrad0"/><circle cx="275.1" cy="53.5" r="5.3" class="cryptotrad0" transform="rotate(-13 275 54)"/><circle id="svg-concept" cx="264.3" cy="82.4" r="5.3" class="cryptotrad1" transform="rotate(-45 264 82)"/><circle cx="298.9" cy="148.8" r="5.3" class="cryptotrad0"/><circle cx="223.9" cy="89.1" r="5.3" class="cryptotrad0"/><circle cx="220.5" cy="109.1" r="5.3" class="cryptotrad0" transform="rotate(-13 220 109)"/><circle cx="235.6" cy="146.9" r="5.3" class="cryptotrad0" transform="rotate(-45 236 147)"/><circle cx="256.3" cy="101.8" r="5.3" class="cryptotrad0" transform="rotate(-67 256 102)"/><circle id="svg-concept" cx="247.1" cy="61.9" r="5.3" class="cryptotrad1" transform="rotate(-13 247 62)"/><circle cx="248.9" cy="78.3" r="5.3" class="cryptotrad0" transform="rotate(-45 249 78)"/><circle cx="235.6" cy="102.9" r="5.3" class="cryptotrad0" transform="rotate(-13 235 103)"/><circle cx="328.5" cy="192.1" r="5.3" class="cryptotrad0" transform="rotate(-13 328 192)"/><circle cx="328.5" cy="165.5" r="5.3" class="cryptotrad0" transform="rotate(-13 328 166)"/><circle cx="323.9" cy="119.4" r="5.3" class="cryptotrad0" transform="rotate(-13 324 119)"/><circle cx="323.9" cy="101.9" r="5.3" class="cryptotrad0" transform="rotate(-13 324 102)"/><circle cx="340.7" cy="148.8" r="5.3" class="cryptotrad0"/><circle cx="319.1" cy="142.8" r="5.3" class="cryptotrad0" transform="rotate(-13 319 143)"/><circle cx="308.8" cy="176.9" r="5.3" class="cryptotrad0"/><circle cx="332" cy="214.1" r="5.3" class="cryptotrad0" transform="rotate(-9 332 214)"/><circle cx="341.5" cy="36.6" r="5.3" class="cryptotrad0" transform="rotate(-13 341 37)"/><circle cx="327.2" cy="279.8" r="5.3" class="cryptotrad0" transform="rotate(-13 327 280)"/><path d="M318 497c3 0 5-2 5-5s-2-5-5-5-5 2-5 5 2 5 5 5z" class="cryptotrad0"/><circle cx="337.8" cy="432.9" r="5.3" class="cryptotrad0" transform="rotate(-13 338 433)"/><circle id="svg-concept" cx="344.4" cy="248.3" r="5.3" class="cryptotrad1"/><circle cx="313.6" cy="267.6" r="5.3" class="cryptotrad0" transform="rotate(-45 314 268)"/><circle cx="313.9" cy="250.2" r="5.3" class="cryptotrad0" transform="rotate(-13 314 250)"/><circle cx="314.8" cy="220.8" r="5.3" class="cryptotrad0" transform="rotate(-13 315 221)"/><circle cx="315.7" cy="461.9" r="5.3" class="cryptotrad0"/><circle cx="935.5" cy="421.8" r="5.3" class="cryptotrad0"/><circle cx="967.5" cy="81.2" r="5.3" class="cryptotrad0" transform="rotate(-13 967 81)"/><circle cx="981.3" cy="548" r="5.3" class="cryptotrad0" transform="rotate(-45 981 548)"/><circle cx="978.1" cy="136.1" r="5.3" class="cryptotrad0" transform="rotate(-13 978 136)"/><path id="svg-concept" d="M953 120c3 0 6-3 6-6 0-2-3-5-6-5s-5 3-5 5c0 3 3 6 5 6z" class="cryptotrad1"/><circle cx="962.9" cy="474.3" r="5.3" class="cryptotrad0"/><circle cx="466.6" cy="121.5" r="5.3" class="cryptotrad0" transform="rotate(-13 466 122)"/><circle cx="958.7" cy="168.3" r="5.3" class="cryptotrad0" transform="rotate(-45 959 168)"/><circle cx="964" cy="456.5" r="5.3" class="cryptotrad0" transform="rotate(-9 964 456)"/><circle cx="940.6" cy="220.2" r="5.3" class="cryptotrad0"/><circle cx="966.9" cy="286.5" r="5.3" class="cryptotrad0"/><circle cx="918.1" cy="288.5" r="5.3" class="cryptotrad0"/><circle cx="921" cy="84.6" r="5.3" class="cryptotrad0"/><circle cx="908.9" cy="132" r="5.3" class="cryptotrad0" transform="rotate(-13 909 132)"/><circle cx="893.2" cy="247.9" r="5.3" class="cryptotrad0" transform="rotate(-13 893 248)"/><circle cx="917.5" cy="363.8" r="5.3" class="cryptotrad0" transform="rotate(-9 917 364)"/><circle cx="909.3" cy="334.8" r="5.3" class="cryptotrad0" transform="rotate(-13 909 335)"/><circle cx="927.7" cy="178" r="5.3" class="cryptotrad0" transform="rotate(-45 928 178)"/><circle cx="916.1" cy="213.8" r="5.3" class="cryptotrad0" transform="rotate(-67 916 214)"/><circle id="svg-concept" cx="908.4" cy="431.5" r="5.3" class="cryptotrad1" transform="rotate(-45 908 431)"/><circle cx="991.1" cy="153.5" r="5.3" class="cryptotrad0" transform="rotate(-13 991 154)"/><circle cx="997.9" cy="216.9" r="5.3" class="cryptotrad0" transform="rotate(-67 998 217)"/><circle cx="945.8" cy="242" r="5.3" class="cryptotrad0" transform="rotate(-13 946 242)"/><circle cx="989.3" cy="187.5" r="5.3" class="cryptotrad0"/><circle cx="992.9" cy="495.1" r="5.3" class="cryptotrad0" transform="rotate(-67 993 495)"/><circle cx="1020.4" cy="82" r="5.3" class="cryptotrad0"/><circle cx="1015.1" cy="127.5" r="5.3" class="cryptotrad0" transform="rotate(-45 1015 127)"/><circle id="svg-concept" cx="1015.3" cy="481.5" r="5.3" class="cryptotrad1"/><circle cx="941.1" cy="325.4" r="5.3" class="cryptotrad0" transform="rotate(-45 941 325)"/><circle cx="217.3" cy="124.7" r="5.3" class="cryptotrad0" transform="rotate(-45 217 125)"/><circle cx="944.9" cy="443.7" r="5.3" class="cryptotrad0" transform="rotate(-45 945 444)"/><circle cx="940.3" cy="501.3" r="5.3" class="cryptotrad0" transform="rotate(-13 940 501)"/><circle id="svg-concept" cx="954.7" cy="314.8" r="5.3" class="cryptotrad1" transform="rotate(-13 954 315)"/><circle cx="936.2" cy="270.9" r="5.3" class="cryptotrad0" transform="rotate(-45 936 271)"/><circle id="svg-concept" cx="966.9" cy="307.3" r="5.3" class="cryptotrad1" transform="rotate(-67 967 307)"/><circle cx="930.6" cy="310.9" r="5.3" class="cryptotrad0" transform="rotate(-13 930 311)"/><circle cx="928.5" cy="408.9" r="5.3" class="cryptotrad0" transform="rotate(-67 929 409)"/><circle cx="971.9" cy="493" r="5.3" class="cryptotrad0"/><circle cx="466.7" cy="71.1" r="5.3" class="cryptotrad0" transform="rotate(-45 467 71)"/><path d="M469 54c3 0 5-3 5-5 0-3-2-6-5-6s-5 3-5 6 2 5 5 5z" class="cryptotrad0"/><circle cx="862.4" cy="71.4" r="5.3" class="cryptotrad0" transform="rotate(-45 862 71)"/><circle cx="867" cy="332.8" r="5.3" class="cryptotrad0" transform="rotate(-13 867 333)"/><circle cx="864.4" cy="375" r="5.3" class="cryptotrad0" transform="rotate(-13 864 375)"/><circle id="svg-concept" cx="870.5" cy="202" r="5.3" class="cryptotrad1" transform="rotate(-13 870 202)"/><circle cx="869.4" cy="52.9" r="5.3" class="cryptotrad0" transform="rotate(-9 869 53)"/><circle cx="874.7" cy="84.6" r="5.3" class="cryptotrad0" transform="rotate(-13 874 85)"/><circle id="svg-concept" cx="885.7" cy="446.2" r="5.3" class="cryptotrad1"/><circle cx="889.4" cy="303.6" r="5.3" class="cryptotrad0" transform="rotate(-67 889 304)"/><circle cx="887.9" cy="364.4" r="5.3" class="cryptotrad0" transform="rotate(-45 888 364)"/><circle cx="731.5" cy="104.5" r="5.3" class="cryptotrad0" transform="rotate(-67 731 104)"/><circle cx="736" cy="140.9" r="5.3" class="cryptotrad0"/><circle id="svg-concept" cx="844.9" cy="58.2" r="5.3" class="cryptotrad1" transform="rotate(-45 845 58)"/><circle cx="776.7" cy="185.9" r="5.3" class="cryptotrad0"/><circle cx="779.6" cy="320.1" r="5.3" class="cryptotrad0" transform="rotate(-13 779 320)"/><circle cx="803.5" cy="99.2" r="5.3" class="cryptotrad0" transform="rotate(-13 803 99)"/><circle cx="776.7" cy="108.7" r="5.3" class="cryptotrad0" transform="rotate(-45 777 109)"/><circle cx="966.9" cy="269.5" r="5.3" class="cryptotrad0"/><circle cx="758.6" cy="369.7" r="5.3" class="cryptotrad0" transform="rotate(-9 759 370)"/><circle cx="758.5" cy="233.8" r="5.3" class="cryptotrad0"/><circle id="svg-concept" cx="772.7" cy="136.1" r="5.3" class="cryptotrad1" transform="rotate(-13 773 136)"/><path d="M837 93c0-3-3-5-6-5s-5 2-5 5 2 6 5 6 6-3 6-6z" class="cryptotrad0"/><circle cx="738.1" cy="274" r="5.3" class="cryptotrad0" transform="rotate(-13 738 274)"/><circle id="svg-concept" cx="727.4" cy="217.1" r="5.3" class="cryptotrad1" transform="rotate(-13 727 217)"/><circle cx="735" cy="356.4" r="5.3" class="cryptotrad0"/><circle cx="742.6" cy="59.1" r="5.3" class="cryptotrad0" transform="rotate(-13 742 59)"/><circle id="svg-concept" cx="776.3" cy="416.3" r="5.3" class="cryptotrad1" transform="rotate(-13 776 416)"/><path d="M782 78c-3 0-5 2-5 5s2 5 5 5 5-2 5-5-2-5-5-5z" class="cryptotrad0"/><circle cx="822.5" cy="365.8" r="5.3" class="cryptotrad0" transform="rotate(-9 822 366)"/><circle cx="807.4" cy="281.9" r="5.3" class="cryptotrad0"/><circle cx="820.7" cy="178" r="5.3" class="cryptotrad0" transform="rotate(-9 821 178)"/><circle cx="826" cy="151.4" r="5.3" class="cryptotrad0" transform="rotate(-13 826 152)"/><circle cx="802.1" cy="369.7" r="5.3" class="cryptotrad0" transform="rotate(-9 802 370)"/><path id="svg-concept" d="M729 57c0-3-2-6-5-6s-5 3-5 5v1c0 3 2 5 5 5s5-2 5-5z" class="cryptotrad1"/><circle cx="781.6" cy="389.3" r="5.3" class="cryptotrad0" transform="rotate(-9 782 389)"/><circle cx="798.4" cy="229.8" r="5.3" class="cryptotrad0" transform="rotate(-67 798 230)"/><circle cx="752.5" cy="73.6" r="5.3" class="cryptotrad0" transform="rotate(-9 752 74)"/><circle cx="471.4" cy="90.3" r="5.3" class="cryptotrad0" transform="rotate(-45 471 90)"/><circle cx="488.1" cy="65.8" r="5.3" class="cryptotrad0" transform="rotate(-13 488 66)"/><circle cx="452.3" cy="160.9" r="5.3" class="cryptotrad0" transform="rotate(-45 452 161)"/><circle cx="452.3" cy="38.1" r="5.3" class="cryptotrad0" transform="rotate(-45 452 38)"/><circle cx="944.4" cy="561.1" r="5.3" class="cryptotrad0" transform="rotate(-67 944 561)"/><circle cx="959.5" cy="576" r="5.3" class="cryptotrad0"/><circle id="svg-concept" cx="998.2" cy="466.4" r="5.3" class="cryptotrad1" transform="rotate(-13 998 466)"/><circle cx="1020.2" cy="544.3" r="5.3" class="cryptotrad0"/><circle cx="1009.8" cy="571.7" r="5.3" class="cryptotrad0" transform="rotate(-13 1010 572)"/><circle cx="1004" cy="111.2" r="5.3" class="cryptotrad0" transform="rotate(-45 1004 111)"/><circle id="svg-concept" cx="972.7" cy="594.1" r="5.3" class="cryptotrad1" transform="rotate(-13 972 594)"/><circle cx="964.8" cy="508.1" r="5.3" class="cryptotrad0"/><circle cx="990.3" cy="520.2" r="5.3" class="cryptotrad0" transform="rotate(-45 990 520)"/><circle cx="983.9" cy="620.2" r="5.3" class="cryptotrad0"/><circle id="svg-concept" cx="996.6" cy="594.1" r="5.3" class="cryptotrad1" transform="rotate(-45 997 594)"/><path d="M1067 623c-3 0-5 2-5 5s2 5 5 5 5-2 5-5-2-5-5-5zm6-124c-3 0-5 2-5 5s2 5 5 5c3 1 6-2 6-5s-3-5-6-5z" class="cryptotrad0"/><circle cx="1065.9" cy="527" r="5.3" class="cryptotrad0"/><circle id="svg-concept" cx="1083.6" cy="611.9" r="5.3" class="cryptotrad1"/><circle cx="1021.7" cy="466.8" r="5.3" class="cryptotrad0"/><circle cx="1054" cy="481.6" r="5.3" class="cryptotrad0"/><circle cx="1038.7" cy="469.8" r="5.3" class="cryptotrad0"/><path d="M1045 646c-3 0-5 2-5 5s2 5 5 5 6-2 6-5-3-5-6-5z" class="cryptotrad0"/><circle id="svg-concept" cx="848.5" cy="277.8" r="5.3" class="cryptotrad1" transform="rotate(-45 849 278)"/><circle cx="868" cy="462.8" r="5.3" class="cryptotrad0" transform="rotate(-9 868 463)"/><circle cx="875" cy="408.9" r="5.3" class="cryptotrad0" transform="rotate(-45 875 409)"/><circle cx="864.4" cy="436.8" r="5.3" class="cryptotrad0" transform="rotate(-13 864 437)"/><circle cx="885.7" cy="475.3" r="5.3" class="cryptotrad0" transform="rotate(-9 886 475)"/><circle cx="848" cy="402.4" r="5.3" class="cryptotrad0" transform="rotate(-45 848 402)"/><circle cx="853.9" cy="111.2" r="5.3" class="cryptotrad0" transform="rotate(-13 854 111)"/><circle cx="893.7" cy="576" r="5.3" class="cryptotrad0"/><circle cx="840.2" cy="432.4" r="5.3" class="cryptotrad0" transform="rotate(-67 840 432)"/><circle cx="910" cy="478" r="5.3" class="cryptotrad0"/><circle cx="933.3" cy="479.6" r="5.3" class="cryptotrad0"/><circle cx="936.2" cy="533.7" r="5.3" class="cryptotrad0" transform="rotate(-13 936 534)"/><circle cx="896.6" cy="530.1" r="5.3" class="cryptotrad0"/><circle cx="450.7" cy="57.5" r="5.3" class="cryptotrad0" transform="rotate(-13 451 58)"/><circle cx="923.8" cy="455.4" r="5.3" class="cryptotrad0" transform="rotate(-45 924 455)"/><circle cx="921" cy="393.5" r="5.3" class="cryptotrad0" transform="rotate(-67 921 394)"/><circle id="svg-concept" cx="905.9" cy="458.6" r="5.3" class="cryptotrad1" transform="rotate(-13 906 459)"/><circle cx="949.1" cy="460.1" r="5.3" class="cryptotrad0" transform="rotate(-9 949 460)"/><circle cx="273.3" cy="318.2" r="5.3" class="cryptotrad0" transform="rotate(-45 273 318)"/><circle cx="142.6" cy="323.4" r="5.3" class="cryptotrad0" transform="rotate(-13 143 323)"/><circle cx="166.4" cy="240.5" r="5.3" class="cryptotrad0" transform="rotate(-45 166 241)"/><circle cx="155.7" cy="362.9" r="5.3" class="cryptotrad0" transform="rotate(-67 156 363)"/><circle cx="140.4" cy="253.5" r="5.3" class="cryptotrad0"/><circle cx="146.3" cy="177.7" r="5.3" class="cryptotrad0" transform="rotate(-9 146 178)"/><circle cx="130.6" cy="285.9" r="5.3" class="cryptotrad0" transform="rotate(-9 131 286)"/><circle cx="119.6" cy="146.9" r="5.3" class="cryptotrad0"/><circle cx="117.3" cy="178.5" r="5.3" class="cryptotrad0" transform="rotate(-13 117 178)"/><circle id="svg-concept" cx="128.7" cy="220.4" r="5.3" class="cryptotrad1" transform="rotate(-67 129 220)"/><circle cx="197.7" cy="355.3" r="5.3" class="cryptotrad0" transform="rotate(-45 198 355)"/><circle cx="89.8" cy="156.2" r="5.3" class="cryptotrad0" transform="rotate(-13 90 156)"/><circle cx="189.9" cy="297.1" r="5.3" class="cryptotrad0" transform="rotate(-45 190 297)"/><circle cx="168.3" cy="292.4" r="5.3" class="cryptotrad0" transform="rotate(-45 168 292)"/><circle cx="208.3" cy="389.8" r="5.3" class="cryptotrad0" transform="rotate(-45 208 390)"/><circle id="svg-concept" cx="182" cy="323.4" r="5.3" class="cryptotrad1" transform="rotate(-13 182 323)"/><circle cx="180.9" cy="379.9" r="5.3" class="cryptotrad0" transform="rotate(-13 181 380)"/><circle cx="168.4" cy="352.4" r="5.3" class="cryptotrad0" transform="rotate(-13 168 352)"/><circle cx="169.8" cy="151.3" r="5.3" class="cryptotrad0" transform="rotate(-13 170 151)"/><circle cx="24.9" cy="195.7" r="5.3" class="cryptotrad0" transform="rotate(-13 25 196)"/><circle cx="184.7" cy="116.7" r="5.3" class="cryptotrad0" transform="rotate(-13 185 117)"/><circle cx="196.8" cy="233.5" r="5.3" class="cryptotrad0" transform="rotate(-13 197 234)"/><path d="M194 276c3 0 5-2 5-5s-2-6-5-6-5 3-5 6 2 5 5 5z" class="cryptotrad0"/><circle cx="163.4" cy="206.3" r="5.3" class="cryptotrad0" transform="rotate(-13 163 206)"/><circle cx="155.8" cy="120.8" r="5.3" class="cryptotrad0" transform="rotate(-67 156 121)"/><circle id="svg-concept" cx="83.8" cy="122" r="5.3" class="cryptotrad1"/><circle cx="206.2" cy="102.9" r="5.3" class="cryptotrad0" transform="rotate(-45 206 103)"/><circle cx="431.8" cy="50.6" r="5.3" class="cryptotrad0" transform="rotate(-45 432 51)"/><circle cx="212.6" cy="203.9" r="5.3" class="cryptotrad0" transform="rotate(-45 213 204)"/><circle cx="63.8" cy="174.8" r="5.3" class="cryptotrad0" transform="rotate(-13 64 175)"/><path d="M62 125c3 0 6-2 6-5s-3-6-6-6-5 3-5 6 2 5 5 5z" class="cryptotrad0"/><circle cx="125.4" cy="121.6" r="5.3" class="cryptotrad0" transform="rotate(-13 125 122)"/><circle cx="48.8" cy="149.7" r="5.3" class="cryptotrad0" transform="rotate(-9 49 150)"/><circle cx="73.6" cy="136.8" r="5.3" class="cryptotrad0" transform="rotate(-45 74 137)"/><path d="M118 89c2 0 5-2 5-5s-3-5-5-6c-3 1-6 3-6 6s3 5 6 5z" class="cryptotrad0"/><circle cx="218.9" cy="338.3" r="5.3" class="cryptotrad0" transform="rotate(-45 219 338)"/><circle cx="81.6" cy="93.9" r="5.3" class="cryptotrad0" transform="rotate(-13 82 94)"/><circle id="svg-concept" cx="196.6" cy="165.4" r="5.3" class="cryptotrad1"/><circle cx="363" cy="99.2" r="5.3" class="cryptotrad0" transform="rotate(-45 363 99)"/><circle cx="356" cy="549.6" r="5.3" class="cryptotrad0" transform="rotate(-13 356 550)"/><circle cx="333.2" cy="578.5" r="5.3" class="cryptotrad0" transform="rotate(-9 333 578)"/><circle cx="339.5" cy="520.9" r="5.3" class="cryptotrad0" transform="rotate(-45 340 521)"/><circle cx="354.5" cy="453.6" r="5.3" class="cryptotrad0" transform="rotate(-9 354 453)"/><circle cx="361.3" cy="485.4" r="5.3" class="cryptotrad0" transform="rotate(-9 361 485)"/><circle cx="375.7" cy="176.4" r="5.3" class="cryptotrad0" transform="rotate(-45 376 176)"/><circle cx="348.9" cy="267.6" r="5.3" class="cryptotrad0" transform="rotate(-13 349 268)"/><circle cx="373.6" cy="30.1" r="5.3" class="cryptotrad0" transform="rotate(-13 374 30)"/><circle cx="403.5" cy="54.3" r="5.3" class="cryptotrad0"/><circle id="svg-concept" cx="420.7" cy="142.1" r="5.3" class="cryptotrad1" transform="rotate(-9 421 142)"/><circle cx="417.3" cy="112.3" r="5.3" class="cryptotrad0" transform="rotate(-67 417 112)"/><circle cx="431" cy="168.7" r="5.3" class="cryptotrad0" transform="rotate(-13 431 169)"/><circle cx="392.9" cy="208.8" r="5.3" class="cryptotrad0" transform="rotate(-45 393 209)"/><circle cx="229.5" cy="381.9" r="5.3" class="cryptotrad0" transform="rotate(-13 229 382)"/><circle cx="403.5" cy="185.6" r="5.3" class="cryptotrad0"/><circle cx="289.5" cy="624.3" r="5.3" class="cryptotrad0" transform="rotate(-45 290 624)"/><circle cx="214.7" cy="145.6" r="5.3" class="cryptotrad0" transform="rotate(-45 215 146)"/><path d="M268 418c-3 0-5 3-5 6s2 5 5 5 5-2 5-5-2-6-5-6z" class="cryptotrad0"/><circle cx="282.8" cy="504.4" r="5.3" class="cryptotrad0" transform="rotate(-67 283 504)"/><circle id="svg-concept" cx="269.4" cy="377.5" r="5.3" class="cryptotrad1" transform="rotate(-67 269 378)"/><circle cx="240.9" cy="412.6" r="5.3" class="cryptotrad0" transform="rotate(-45 241 413)"/><circle cx="256.2" cy="465.7" r="5.3" class="cryptotrad0" transform="rotate(-13 256 466)"/><circle cx="322.7" cy="545.2" r="5.3" class="cryptotrad0" transform="rotate(-45 323 545)"/><circle id="svg-concept" cx="249.1" cy="371.3" r="5.3" class="cryptotrad1" transform="rotate(-13 249 371)"/><circle cx="312" cy="627.7" r="5.3" class="cryptotrad0"/><circle cx="309.9" cy="417.9" r="5.3" class="cryptotrad0" transform="rotate(-13 310 418)"/><circle id="svg-concept" cx="318.1" cy="659.2" r="5.3" class="cryptotrad1" transform="rotate(-45 318 659)"/><circle cx="318.1" cy="596.4" r="5.3" class="cryptotrad0" transform="rotate(-45 318 596)"/><circle cx="304.2" cy="197" r="5.3" class="cryptotrad0" transform="rotate(-13 304 197)"/><circle cx="289.5" cy="586.1" r="5.3" class="cryptotrad0" transform="rotate(-13 289 586)"/><circle cx="292.6" cy="544.3" r="5.3" class="cryptotrad0"/><circle cx="293.5" cy="292.4" r="5.3" class="cryptotrad0" transform="rotate(-45 293 292)"/><path d="m341 437 11 12m-37-29 18 11m-12 29 29-3m-59-44 14 4m10 40-8-35m13 43 37 18m-36 13 15 21m-57-16-20-31m-3-10 10-32m-20-13 17 6m10 0 9-7m-2 29-9-15m19 191v-28m0-10 3-31m1 32 26-32m39-5 14-13m-88-22 8 29m16 85-17-33m3 35 12 2m-77-241 7 22m-25-16 25 16m-13-25-11 4m-28-5 18 5m-3-28 6 25m-35-28 7 18m-31-48 19 21m-35-57 10 28m-2-60-7 22M94 160l20 14m-46-2 17-13m-24 11-9-16m93 174 8 30m41 1-10 17M30 194l30-15m-7-33 16-6m20 11-5-24m3-34 25-8m9 3 33 28m7 4 18-2m9 3 24 20m18 6-10-1m25-14-22-5m-4-8 2-5m4-7 5-4m-20-4 10-7m30 35 4-21m-10 11 10-11m1 49-14-6m32 0-8 5m32 0-14 10m41 25-11-8m16-10v16m13-33 6 14m31 4 9-9m-9 18 12 23m11-13-7 13m6-23-8-18m-4-9-7-13m-1-10 3-21m-5-7-11-4m-5-5-1-6m16-12-11 5m32-23-12 11m40-17-18 2m39-12-11 6m27-2-9 8m-9 1-9-2m26 15-9-6m30 7h-12m13 1-10 16m-4 10-3 20m-3 11-10 29m-38-38 4 19m15 30 12-3m-41 18 20-10m-84 0-10-4m-58 3-19 12m-8 7-8 11m0 9 25 22m5 9 4 11m12-11-7 11m23-50-11 29m16-29 6 14m14 0-7 2m-6 38v6m9 15-6-5m5 10-24 8m-8 6-13 18m-8 8-14 10m-3 8 2 9m-8-13-22 2m-10 2-13 11m19-51-25-1m-10-2-11-5m18 0 2-16m-45-103 17-18m1-8-9-21m-38 16 5-15m-8 46 3-21m116 0-7 16m-88 10-19-2m-2-54H89m36-6-5-27m204 36 17 19m-14 17-6-13m-7-7-14-5m19-34-10-5m22-9-9-3m32-15-14 14m53-38-31 17m30-20-30 4m33-9-17-5m-10-3-21 7m-23 88-3 12m25-97 6 5m6 16-2-7m-3 9-8-1m-8 3-17 13m115 7 31 5m-39-2-8 19m-30-1 23 5m-27 25 31 4m6-31 45-16m-50 53-22 9m-7-79 37 7m587 483 7-16m-83-46-35 23m31 10-35 35m45-15-4-18m17 33-7-7m-51-30-3 36m97 23h-13m-15-22 15-20m6-9 4-17m-48-19-4 21m26-15-20 18m34 17-28 9m-8 6-41 12m70 15-6-10M731 141l-31-6m36 1-4-26m18-32-15 22m42-19-20-5m21 27 3-15m1 19 17-5m10-4 17-5m9 4 14 12m8-2 15-18m8-4h36m10 1 36-5m45 25 10-19m-44-6 42 1m-3 41-5-7m5 16-17 18m-6 9v23m2 11 5 19m-22-72-13 23m21-23 6 9m-34 21-21 6m-7 7-8 26m24 17 3 11m-24-21 14 3m4 47 7-19m-24 38 11-10m-12 18 7 13m-36-7 21-12m-7 44-14-22m15 30-16 22m-8 6-14 5M733 220l20 11m21-40-13 38m-40 42 12 3m-3 82-18-6m25 2 39-28m7 1 17 41m67-28-3 32m-2-39-77-11m-2-5 21-29m49-6 32 20m-34-17 16 45m-41 34 37-26m52-51-19-33m-45 21 38-22m7-9 18-23m-15 29 42-6m-51 1-16-36m-71 20 63-22m0-6-40-18m-45 2 35-5m-36 12 16 35m5 10 6 42m-65-7 15-31m-14 35 59 8m-60-4 33 39m-69-141c18 3 49 4 66 7m49-10 5-16m-21-53 18 42m28-29-22 30m30-33 45 16m15-40-8 37m46-9 18 14m-64 5 17 36m-14-41 35-14" class="cryptotrad0"/><path d="M618 626h15m-15-29h13m-7 15h9m-2-15c4 0 7 3 7 7s-3 8-7 8m2 0c4 0 7 3 7 7s-3 7-7 7m-9-34v39m5-5v5m0-39v5m-15-20h28l1-1 2-7v-3l-3-2h-8c-1-2-4-3-6-3-3 0-5 1-7 3h-7c-2 0-3 0-4 2v3l2 7 2 1z" class="cryptotrad2"/><path d="M614 638h33c6 0 15-6 15-17 0-20-19-37-19-37h-30s-6 5-11 13m-19 43c-2 6-7 9-12 9-8 0-14-6-14-13v-15c1-7 7-13 14-13 5 0 10 4 12 9" class="cryptotrad2"/><path id="svg-ico_14_" d="M553 626h25" class="cryptotrad2"/><path id="svg-ico_13_" d="M578 632h-25" class="cryptotrad2"/><path id="svg-concept" d="M539 499h34m-34-61h28m-15 31h21m-6-31c8 0 15 7 15 15s-7 16-15 16m6 0c8 0 14 7 14 16s-6 14-14 14m-21-72v83m11-11v11m0-83v11" class="cryptotrad3"/><path d="M481 478a82 82 0 1 0 0-18" class="cryptotrad4"/><path d="M563 529a60 60 0 0 0 0-120 60 60 0 0 0 0 120h0z" class="cryptotrad4"/><path id="svg-concept" d="m696 450-10 48h28m-41-17 34-12m-272-26-20 34 20 11 20-12z" class="cryptotrad5"/><path id="svg-concept" d="m415 483 20 27 20-27-20 12zm20-40v45m0 7v15m-20-33 20-9 20 8" class="cryptotrad5"/><path d="M472 429a61 61 0 0 0-101 41m0 13a61 61 0 0 0 107 35" class="cryptotrad2"/><path d="M467 447a45 45 0 1 0-34 75h0c15 0 29-8 37-20m186 22a61 61 0 0 0 101-41m0-13a61 61 0 0 0-107-35" class="cryptotrad2"/><path d="M662 506a45 45 0 1 0 33-75h0c-15 0-29 8-37 20" class="cryptotrad2"/><path d="M439 307v85m0-210v45" class="cryptotrad0"/><path d="M618 336H498" class="cryptotrad2"/><path d="M590 81h-99m191 205V103c0-12-9-22-21-22m21 316v-56" class="cryptotrad0"/><path id="svg-concept_60_" d="M484 124h164v278" class="cryptotrad6"/><path id="svg-concept_59_" d="M472 398V137" class="cryptotrad6"/><path d="M521 317h-18c-2 0-3-1-3-2v-31c0-2 1-3 3-3h18c1 0 3 1 3 3v31l-3 2zm47 0h-18l-2-2v-62l2-2h18c2 0 3 1 3 2v62c0 1-1 2-3 2z" class="cryptotrad2"/><path id="svg-concept" d="M616 317h-19l-2-2v-99l2-2h19l2 2v99l-2 2zm-7-159-50 54-13-13-48 46m111-87-12 2m12-2v13" class="cryptotrad5"/><path d="M418 257h21l-21 23h21m-10 0v8m0-40v9" class="cryptotrad2"/><circle cx="428.8" cy="267.6" r="29" class="cryptotrad2"/><circle cx="570.5" cy="628.1" r="37" class="cryptotrad2"/><path d="M630 86h-12V74m0-24h9m-17 18h20m-3-18c5 0 9 4 9 9s-4 9-9 9m3 0c5 0 9 4 9 9s-4 9-9 9m-12-36v18" class="cryptotrad2"/><circle cx="625.7" cy="68.3" r="29" class="cryptotrad2"/><path d="M698 306c0-3-2-6-6-6-3 0-6 3-6 6s3 6 6 6c4 1 7 3 7 7 0 3-3 6-7 6h1c-4 0-7-3-7-7" class="cryptotrad2"/><path id="svg-ico_12_" d="M693 325v3" class="cryptotrad2"/><path id="svg-ico_11_" d="M693 296v4" class="cryptotrad2"/><circle cx="692.6" cy="312.9" r="22.2" class="cryptotrad2"/><path d="M685 141c2 0 4 2 4 3v15c0 2-2 3-4 3m0 12c2 0 4 1 4 3v15c0 1-2 3-4 3" class="cryptotrad0"/><path d="M528 636h-8c-27 0-48-4-48-9l1-2m55-5-30 2c-26 0-47-4-47-9 0-3 8-6 21-8m61 3h-13c-26 0-48-4-48-9 0-2 2-3 5-4" class="cryptotrad2"/><ellipse id="svg-concept" cx="510" cy="584.9" class="cryptotrad5" rx="47.3" ry="9.4"/></svg>