<svg xmlns="http://www.w3.org/2000/svg" xml:space="preserve" id="Layer_1" x="0" y="0" style="enable-background:new 0 0 438.8 435.8" version="1.1" viewBox="0 0 439 436"><style>.criptoexchange0{stroke:#ee5586;stroke-width:3}.criptoexchange0,.criptoexchange1,.criptoexchange2{fill:none;stroke-linecap:round;stroke-linejoin:round;stroke-miterlimit:10}.criptoexchange1{stroke:gray;stroke-width:2}.criptoexchange2{stroke-width:2;stroke:#ee5586}.criptoexchange3{fill:#ee5586}</style><path id="svg-concept" d="M114 225h24m-24-42h20m-11 21h15m-4-21c6 0 10 4 10 10s-5 11-10 11m4 0c6 0 10 5 10 11s-5 10-10 10m-15-50v58m8-8v8m0-58v8" class="criptoexchange0"/><path d="M74 210a57 57 0 1 0 0-12" class="criptoexchange1"/><path d="M131 246a42 42 0 1 0 0-84 42 42 0 0 0 0 84h0z" class="criptoexchange1"/><g><path id="svg-concept" d="M282 18h18l-18 21h18m-9 0v6m0-34v7" class="criptoexchange2"/><circle id="svg-concept" cx="291" cy="27.8" r="25.5" class="criptoexchange2"/><animateMotion fill="remove" accumulate="none" additive="replace" begin="0s" calcMode="paced" dur="5s" path="M0, 20 0 0 0 20" repeatCount="indefinite" restart="always"/></g><g><path id="svg-concept" d="m345 338-20 33 20 12 20-12z" class="criptoexchange0"/><path id="svg-concept" d="m325 378 20 26 20-27-20 12zm20-40v45m0 6v15m-20-33 20-9 20 9" class="criptoexchange0"/><circle id="svg-concept" cx="345.1" cy="371" r="42.5" class="criptoexchange2"/><animateMotion fill="remove" accumulate="none" additive="replace" begin="0s" calcMode="paced" dur="4s" path="M0, 20 0 0 0 20" repeatCount="indefinite" restart="always"/></g><g><path id="svg-concept" d="M184 61c0-4-3-7-6-7-4 0-7 3-7 7 0 3 3 6 7 6 4 1 7 3 7 7s-3 7-7 7h0c-4 0-7-3-7-7m7 7v3m0-33v4" class="criptoexchange2"/><circle id="svg-concept" cx="177.9" cy="68.1" r="23.3" class="criptoexchange1"/><animateMotion fill="remove" accumulate="none" additive="replace" begin="0s" calcMode="paced" dur="3s" path="M0, 15 0 0 0 15" repeatCount="indefinite" restart="always"/></g><circle cx="82.7" cy="121.7" r="8.7" class="criptoexchange1"/><path d="M334 246h-81m16-13h-14l-1-1v-22l1-2h14l1 2v22l-1 1zm32 0h-14l-1-1v-43l1-1h14l1 1v43l-1 1z" class="criptoexchange1"/><path id="svg-concept" d="M332 233h-12l-2-2v-67l2-1h12l2 1v68l-2 1zm2-101-37 40-10-9-34 33m81-64-9 2m9-2v10" class="criptoexchange0"/><path id="svg-ico" d="M339 247c0 2-3 5-5 5-3 0-5-3-5-5 0-3 2-5 5-5s5 2 5 5z" class="criptoexchange3"/><path d="M356 261H236c-5 0-10-4-10-10V132c0-6 5-10 10-10h120c5 0 10 4 10 10v119c0 6-5 10-10 10zm-84 169H167c-3 0-5-2-5-5h0c0-2 2-4 5-4h105c3 0 5 2 5 4h0c0 3-2 5-5 5z" class="criptoexchange1"/><path id="svg-concept" d="M213 84h176c7 0 12 5 12 11v207c0 7-5 12-12 12H50c-7 0-12-5-12-12V95c0-6 5-11 12-11h93" class="criptoexchange2"/><circle cx="219.4" cy="340.3" r="8.7" class="criptoexchange1"/><path d="m254 364 11 57h-91l11-57m101 0H36c-11 0-20-9-20-20V82c0-11 9-20 20-20h106m175 0h86c11 0 20 9 20 20v262c0 11-9 20-20 20M212 62h54M74 277h114m-83-155h83M74 293h82m70-16h96m-97 16h112" class="criptoexchange1"/></svg>