<svg xmlns="http://www.w3.org/2000/svg" xml:space="preserve" id="Layer_1" x="0" y="0" style="enable-background:new 0 0 438.8 435.8" version="1.1" viewBox="0 0 439 436"><style>.cryptocart0{stroke:#ee5586;stroke-width:3}.cryptocart0,.cryptocart1,.cryptocart2,.cryptocart3{fill:none;stroke-linecap:round;stroke-linejoin:round;stroke-miterlimit:10}.cryptocart1{stroke:gray;stroke-width:2}.cryptocart2{stroke:#ee5586;stroke-width:4}.cryptocart3{stroke:gray;stroke-width:2}</style><animateMotion fill="remove" accumulate="none" additive="replace" begin="0s" calcMode="paced" dur="8s" path="M0, 0 -175 0 0 0" repeatCount="indefinite" restart="always"/><path id="svg-concept" d="M343 39h37l-37 40h36m-18 0v7m0-61v13" class="cryptocart0"/><path id="svg-concept" d="M318 31a50 50 0 1 1 77 64" class="cryptocart0"/><path d="M179 44c0-8-7-15-16-15-8 0-15 7-15 15s7 14 16 15c7 1 13 5 15 10m-14-49v9" class="cryptocart1"/><path d="M116 89a55 55 0 0 1 93-60" class="cryptocart1"/><path id="svg-concept" d="M230 139h42m-42-75h35m-19 37h26m-7-37c10 0 18 8 18 18s-9 19-18 19m7 0c10 0 18 10 18 20s-8 18-18 18m-26-89v102m14-13v13m0-102v14" class="cryptocart2"/><path id="svg-concept" d="M260 175a74 74 0 1 0 0-148 74 74 0 0 0 0 148h0z" class="cryptocart2"/><path d="M311 179c10 12 25 21 42 21h0a52 52 0 0 0 0-104" class="cryptocart3"/><path d="m353 110-22 37 22 12 22-13z" class="cryptocart3"/><path d="m331 157 22 28 22-29-22 13zm22-47v49m0 10v16m-22-38 22-10 22 9" class="cryptocart3"/><path id="svg-concept" d="M208 179a57 57 0 1 1-38-86" class="cryptocart0"/><path id="svg-concept" d="m159 112-14 67h40m-58-24 47-16" class="cryptocart0"/><path d="M93 120H65c-3 0-6 3-5 6l31 203 302-46 31-159c1-2-1-4-3-4h-8M196 368h106M91 329l7 39h30" class="cryptocart1"/><path d="M196 369c3 5 4 12 4 18a39 39 0 1 1-4-18" class="cryptocart1"/><circle cx="337" cy="387.3" r="38.8" class="cryptocart1"/><path d="M84 86H6" class="cryptocart1"/></svg>