<svg xmlns="http://www.w3.org/2000/svg" xml:space="preserve" id="Layer_1" x="0" y="0" style="enable-background:new 0 0 438.8 435.8" version="1.1" viewBox="0 0 439 436"><style>.cryptostart0,.cryptostart1,.cryptostart2{fill:none;stroke:#ee5586;stroke-width:4;stroke-linecap:round;stroke-linejoin:round;stroke-miterlimit:10}.cryptostart1,.cryptostart2{stroke:gray;stroke-width:3}.cryptostart2{stroke:#ee5586}.cryptostart3{stroke-width:2}.cryptostart3,.cryptostart4{fill:none;stroke:gray;stroke-linecap:round;stroke-linejoin:round;stroke-miterlimit:10}.cryptostart5{fill:#ee5586}.cryptostart6{fill:none;stroke:#ee5586;stroke-width:2;stroke-linecap:round;stroke-linejoin:round;stroke-miterlimit:10}</style><path id="svg-concept" d="M196 349h34m-34-61h28m-16 30h22m-6-30c8 0 14 6 14 14s-6 16-14 16m6 0c8 0 14 8 14 16s-7 15-14 15m-22-72v83m12-11v11m0-83v11" class="cryptostart0"/><path d="M138 327a82 82 0 1 0 0-18" class="cryptostart1"/><path d="M220 378a60 60 0 0 0 0-120 60 60 0 0 0 0 120h0z" class="cryptostart1"/><path id="svg-concept" d="m353 299-10 49h28m-41-17 34-12M92 293l-20 33 20 12 20-12z" class="cryptostart2"/><path id="svg-concept" d="m72 333 20 26 20-27-20 12zm20-40v45m0 6v15m-20-33 20-9 20 9" class="cryptostart2"/><path d="M129 279a61 61 0 0 0-101 40m0 14a61 61 0 0 0 107 35" class="cryptostart3"/><path d="M123 296a45 45 0 1 0-33 75h0c15 0 29-8 37-20m186 22a61 61 0 0 0 101-40m0-14a61 61 0 0 0-107-35" class="cryptostart3"/><path d="M318 356a45 45 0 1 0 34-75h0c-15 0-29 8-37 19m102-190h-57l-31 26 1-26h-27c-9 0-16-7-16-16V24c0-9 7-16 16-16h114c9 0 17 7 17 16v70c0 9-8 16-17 16zm-94-80v54m36-54v54m37-54v54" class="cryptostart3"/><path d="M28 361 5 406h429l-23-43M32 126v147M269 95H69m339 178V126m29 293H2" class="cryptostart4"/><path d="M52 406H5c-2 0-3 2-3 3v10s0 12 22 12h391c22 0 22-12 22-12v-10c0-1-1-3-3-3h-47" class="cryptostart4"/><path id="svg-ico" d="M86 136c0 3-2 5-4 5s-4-2-4-5c0-2 1-4 4-4 2 0 4 2 4 4z" class="cryptostart5"/><path d="M97 136c0 2-1 3-3 3-1 0-2-1-2-3l2-2c2 0 3 1 3 2zm12 0c0 2-1 3-2 3-2 0-3-1-3-3 0-1 1-2 3-2l2 2zm150 13h130m-340 0h141" class="cryptostart4"/><path id="svg-concept" d="M366 122h23v140m-340 1V122h258" class="cryptostart6"/><path id="svg-concept" d="M214 157h19l-19 20h19m-9 0v7m0-35v7" class="cryptostart6"/><circle id="svg-concept" cx="223.7" cy="166.1" r="25.5" class="cryptostart6"/><g><path id="svg-concept" d="M37 101H26V91m0-21h8M20 85h17m-3-15c4 0 8 3 8 7s-4 8-8 8m3 0c4 0 8 4 8 8s-4 8-8 8M26 70v15" class="cryptostart6"/><circle id="svg-concept" cx="33.1" cy="85.6" r="25.2" class="cryptostart6"/><animateMotion fill="remove" accumulate="none" additive="replace" begin="0s" calcMode="paced" dur="3s" path="M0, 0 -6 0 0 0" repeatCount="indefinite" restart="always"/></g><g><path id="svg-concept" d="M157 28c0-3-3-6-6-6-4 0-7 2-7 6 0 3 3 6 7 7 4 0 6 3 6 6 1 4-2 7-6 7h0c-4 0-7-3-7-7m7 7v3m0-33v4" class="cryptostart6"/><circle id="svg-concept" cx="150.8" cy="35.3" r="23.3" class="cryptostart6"/><animateMotion fill="remove" accumulate="none" additive="replace" begin="0s" calcMode="paced" dur="3s" path="M0, 15 0 0 0 15" repeatCount="indefinite" restart="always"/></g><g><circle id="svg-ico" cx="322.6" cy="65.2" r="6" class="cryptostart5"/><animateMotion fill="remove" accumulate="none" additive="replace" begin="0s" calcMode="paced" dur="3s" path="M0, 15 0 0 0 15" repeatCount="indefinite" restart="always"/></g><g><circle id="svg-ico" cx="359.1" cy="49.5" r="6" class="cryptostart5"/><animateMotion fill="remove" accumulate="none" additive="replace" begin="0s" calcMode="paced" dur="2s" path="M0, 25 0 0 0 25" repeatCount="indefinite" restart="always"/></g><circle id="svg-ico" cx="395.6" cy="79.6" r="6" class="cryptostart5"/></svg>