<svg xmlns="http://www.w3.org/2000/svg" xml:space="preserve" id="Layer_1" x="0" y="0" style="enable-background:new 0 0 438.8 435.8" version="1.1" viewBox="0 0 439 436"><style>.cryptoinvest0{stroke-width:2;fill:none;stroke:gray;stroke-linecap:round;stroke-linejoin:round;stroke-miterlimit:10}.cryptoinvest1{stroke:gray}.cryptoinvest1,.cryptoinvest2,.cryptoinvest3{fill:none;stroke-linecap:round;stroke-linejoin:round;stroke-miterlimit:10}.cryptoinvest2{stroke:#ee5586;stroke-width:3}.cryptoinvest3{stroke:#ee5586;stroke-width:2}.cryptoinvest4{fill:#ee5586}</style><path d="M245 360H69" class="cryptoinvest0"/><path d="M89 388v23c0 12 10 22 23 22h211c12 0 22-10 22-22V53c0-13-10-23-22-23M89 133v78M236 30H112c-13 0-23 10-23 23m256 310v-53" class="cryptoinvest1"/><path d="M124 175V93c0-10 8-18 18-18h150c10 0 18 8 18 18v277c0 10-8 18-18 18H142" class="cryptoinvest1"/><path d="M103 336H74c-1 0-2-1-2-3v-48l2-2h29c2 0 3 1 3 2v48c0 2-1 3-3 3zm70 0h-29c-2 0-3-1-3-3v-93c0-1 1-2 3-2h29l2 2v93c0 2-1 3-2 3z" class="cryptoinvest0"/><path id="svg-concept" d="M241 336h-27c-2 0-3-2-3-4V187c0-2 1-4 3-4h27c2 1 4 2 4 4v145c0 2-2 4-4 4zm4-218-80 85-21-20-75 73m176-138-20 2m20-2v20" class="cryptoinvest2"/><path d="M349 93c2 0 3 2 3 4v15c0 2-1 3-3 3m0 13c2 0 3 1 3 3v15c0 2-1 4-3 4" class="cryptoinvest1"/><path id="svg-concept" d="M362 376h21m-21-37h18m-10 19h13m-3-19c5 0 9 4 9 9s-4 9-9 9m3 1c5 0 9 4 9 9s-4 9-9 9m-13-44v51m7-7v7m0-51v7" class="cryptoinvest3"/><path d="M358 313h36l1-1 3-9v-5l-5-2h-9c-2-2-5-3-9-3-3 0-6 1-8 3h-10l-4 2v5l3 9 2 1zm0 79h43c8 0 19-8 19-23 0-25-25-47-25-47l-2-1h-35" class="cryptoinvest1"/><g><path id="svg-concept" d="M50 81h26l-26 28h25m-12 0v9m0-47v9" class="cryptoinvest3"/><circle id="svg-concept" cx="62.6" cy="93.8" r="35.6" class="cryptoinvest3"/><animateMotion fill="remove" accumulate="none" additive="replace" begin="0s" calcMode="paced" dur="4s" path="M0, 0 -25 0 0 0" repeatCount="indefinite" restart="always"/></g><g><path id="svg-concept" d="M285 45h-11V35m0-21h8m-14 16h17m-3-16c4 0 7 4 7 8s-3 8-7 8m3 0c4 0 7 4 7 8s-3 7-7 7m-11-31v16" class="cryptoinvest3"/><circle id="svg-concept" cx="280.8" cy="30.1" r="25.2" class="cryptoinvest3"/><animateMotion fill="remove" accumulate="none" additive="replace" begin="0s" calcMode="paced" dur="3s" path="M0, 10 0 0 0 10" repeatCount="indefinite" restart="always"/></g><g><path id="svg-concept" d="M407 167c0-4-3-7-7-7-3 0-6 3-6 7 0 3 3 6 6 6 5 1 7 4 7 7 0 4-3 7-6 7h0c-4 0-7-3-7-7m7 7v3m0-33v3" class="cryptoinvest3"/><circle id="svg-concept" cx="400.6" cy="174.1" r="23.3" class="cryptoinvest3"/><animateMotion fill="remove" accumulate="none" additive="replace" begin="0s" calcMode="paced" dur="5s" path="M0, 30 0 0 0 30" repeatCount="indefinite" restart="always"/></g><g><path id="svg-ico" d="M250 361c0 3-3 6-6 6s-6-3-6-6c0-4 2-6 6-6s6 2 6 6z" class="cryptoinvest4"/><animateMotion fill="remove" accumulate="none" additive="replace" begin="0s" calcMode="paced" dur="8s" path="M0, 0 -175 0 0 0" repeatCount="indefinite" restart="always"/></g></svg>