<svg version="1.1" id="Layer_1" xmlns="http://www.w3.org/2000/svg" x="0" y="0" viewBox="0 0 496.8 429" style="enable-background:new 0 0 496.8 429" xml:space="preserve"><style>.dbaassecure0,.dbaassecure1,.dbaassecure2{fill:none;stroke:gray;stroke-linecap:round;stroke-linejoin:round;stroke-miterlimit:10}.dbaassecure1,.dbaassecure2{stroke:#ee5586;stroke-width:3}.dbaassecure2{stroke-width:2}</style><path class="dbaassecure0" d="M65.3 114.5a211.8 211.8 0 1 1-.1 198.9l.1-198.9z"/><g><path id="svg-concept" class="dbaassecure1" d="M98.1 64.5h311.8"/><animateMotion accumulate="none" additive="replace" begin="0s" calcMode="paced" dur="4s" fill="freeze" path="M8, 0 85 0 85" restart="always"/></g><g><path id="svg-concept" class="dbaassecure1" d="M119.7 82.4h311.8"/><animateMotion accumulate="none" additive="replace" begin="0s" calcMode="paced" dur="4s" fill="freeze" path="M8, 0 63 0 63" restart="always"/></g><g><path class="dbaassecure0" d="M246.2 158.6a61.2 61.2 0 1 1 .1 122.5 61.2 61.2 0 0 1-.1-122.5zM246 197.7v-61.3m12.7 102 35.9 48.5"/><circle id="svg-concept" class="dbaassecure2" cx="246" cy="128.4" r="8"/><circle id="svg-concept" class="dbaassecure2" cx="300.2" cy="294.1" r="8"/><path class="dbaassecure0" d="m233.6 238-34.9 49.3"/><circle id="svg-concept" class="dbaassecure2" cx="193.6" cy="294.9" r="8"/><path class="dbaassecure0" d="m224.9 213-58.6-18"/><circle id="svg-concept" class="dbaassecure2" cx="158.6" cy="192.6" r="8"/><path class="dbaassecure0" d="m267.7 213.9 58.1-19.5"/><circle id="svg-concept" class="dbaassecure2" cx="333.4" cy="191.8" r="8"/><path id="svg-concept" class="dbaassecure1" d="M246.3 197.7a22.1 22.1 0 1 1 0 44.4 22.2 22.2 0 0 1 0-44.4z"/><animateTransform accumulate="none" additive="replace" attributeName="transform" begin="0s" calcMode="linear" dur="4s" fill="freeze" from="0 246 220" restart="always" to="360 246 220" type="rotate"/></g><g><path id="svg-concept" class="dbaassecure1" d="M98.1 345.5h311.8"/><animateMotion accumulate="none" additive="replace" begin="0s" calcMode="paced" dur="4s" fill="freeze" path="M8, 0 85 0 85" restart="always"/></g><g><path id="svg-concept" class="dbaassecure1" d="M119.7 363.4h311.8"/><animateMotion accumulate="none" additive="replace" begin="0s" calcMode="paced" dur="4s" fill="freeze" path="M8, 0 63 0 63" restart="always"/></g><path class="dbaassecure0" d="M451 58.7v-8.1m0 26.1v-6.6m0 25.6v-7.6M446.7 58.7h8.5v11.4h-8.5V58.7zm0 18h8.5v11.4h-8.5V76.7zM451 339.7v-8.1m0 26.1v-6.6m0 25.6v-7.6M446.7 339.7h8.5v11.4h-8.5v-11.4zm0 18h8.5v11.4h-8.5v-11.4zM60.9 330.7H16.4a4.3 4.3 0 0 1-4.3-4.3V101.5c0-2.4 1.9-4.3 4.3-4.3h44.5c2.4 0 4.3 1.9 4.3 4.3v224.9c0 2.4-2 4.3-4.3 4.3h0z"/><path class="dbaassecure0" d="M12.1 295H6a2.8 2.8 0 0 1-2.8-2.8V135.4c0-1.6 1.3-2.8 2.8-2.8h6.1V295zM23.9 97a14.7 14.7 0 0 1 29.4 0H23.9zm29.4 233.7a14.7 14.7 0 0 1-29.4 0h29.4z"/><circle class="dbaassecure0" cx="38.6" cy="157.5" r="9.5"/><circle class="dbaassecure0" cx="38.6" cy="270" r="9.5"/><path class="dbaassecure0" d="M48.1 158.2h41.4M48.1 270h41.4m-24.3-34.9h30.5m-30.5-42.6h30.5m14.5 65.8H98.5a2.8 2.8 0 0 1-2.8-2.8v-83.1c0-1.6 1.3-2.8 2.8-2.8h11.7c1.6 0 2.8 1.3 2.8 2.8v83.1c0 1.6-1.3 2.8-2.8 2.8zM403.3 252.1v-66.3m11.4 66.1v-66.3m0 0a5.7 5.7 0 1 1-11.4 0c0-3.2 2.5-5.7 5.7-5.7 3.1.1 5.7 2.6 5.7 5.7zM414.7 252.1a5.7 5.7 0 1 1-11.4 0c0-3.2 2.5-5.7 5.7-5.7 3.1.1 5.7 2.6 5.7 5.7h0zM226.1 49.2c0-2.5 2-4.6 4.6-4.6 2.5 0 4.6 2 4.6 4.6v48.4c0 2.5-2.1 4.6-4.6 4.6s-4.6-2.1-4.6-4.6V49.2z"/><path class="dbaassecure0" d="M226.1 97.6c0-2.5 2-4.6 4.6-4.6 2.5 0 4.6 2 4.6 4.6M235.2 49.2c0 2.5-2.1 4.6-4.6 4.6s-4.6-2.1-4.6-4.6M226.1 330.2c0-2.5 2-4.6 4.6-4.6 2.5 0 4.6 2 4.6 4.6v48.4c0 2.5-2.1 4.6-4.6 4.6s-4.6-2.1-4.6-4.6v-48.4z"/><path class="dbaassecure0" d="M226.1 378.6c0-2.5 2-4.6 4.6-4.6 2.5 0 4.6 2 4.6 4.6M235.2 330.2c0 2.5-2.1 4.6-4.6 4.6s-4.6-2.1-4.6-4.6"/></svg>