<svg version="1.1" id="Layer_1" xmlns="http://www.w3.org/2000/svg" x="0" y="0" viewBox="0 0 480.8 419.6" style="enable-background:new 0 0 480.8 419.6" xml:space="preserve"><style>.dbaashigh0,.dbaashigh1{fill:none;stroke:gray;stroke-linecap:round;stroke-linejoin:round;stroke-miterlimit:10}.dbaashigh1{stroke:#ee5586;stroke-width:2}.dbaashigh2{fill:#ee5586}</style><path class="dbaashigh0" d="m419.7 310-107.1 61.7M312.9 47.7l106.9 61.7M315.2 222.4 421.8 284m-1.1-148.8-106.9 60.4m-25.5 44.2v119.1m152.6-208.8V270M288.3 61.3v119.5"/><path id="svg-concept" class="dbaashigh1" d="M317.8 210.3a29.5 29.5 0 1 1-59 0 29.5 29.5 0 0 1 59 0zm158.7-89.5a29.5 29.5 0 1 1-59 0 29.5 29.5 0 0 1 59 0z"/><path class="dbaashigh0" d="M317.8 31.3a29.5 29.5 0 1 1-59 0 29.5 29.5 0 0 1 59 0zm0 357.1a29.5 29.5 0 1 1-59 0 29.5 29.5 0 0 1 59 0z"/><path id="svg-concept" class="dbaashigh1" d="M476.5 298.8a29.5 29.5 0 1 1-59 0 29.5 29.5 0 0 1 59 0z"/><path class="dbaashigh0" d="M218.6 231.7v52.7c0 14.5-35.4 26.2-79 26.2s-79-11.7-79-26.2v-52.7"/><path id="svg-concept" class="dbaashigh1" d="M189.9 281.1c0 4-3.3 7.3-7.3 7.3s-7.3-3.3-7.3-7.3 3.3-7.3 7.3-7.3 7.3 3.3 7.3 7.3zM145.9 346.1c0 4.5-3.7 8.2-8.2 8.2s-8.2-3.7-8.2-8.2 3.6-8.2 8.2-8.2c4.5.1 8.2 3.7 8.2 8.2zm-8.2-24.4V338M84 346.1h45.5m16.4 0h45.5"/><path class="dbaashigh0" d="M218.6 178.5v52.7c0 14.5-35.4 26.2-79 26.2s-79-11.7-79-26.2v-52.7"/><path id="svg-concept" class="dbaashigh1" d="M189.8 227.9c0 4-3.3 7.3-7.3 7.3s-7.3-3.3-7.3-7.3 3.3-7.3 7.3-7.3 7.3 3.2 7.3 7.3z"/><path class="dbaashigh0" d="M218.6 178c0 14.5-35.4 26.2-79 26.2s-79-11.7-79-26.2v-52.7c0-14.5 35.4-26.2 79-26.2s79 11.7 79 26.2V178z"/><path id="svg-concept" class="dbaashigh1" d="M189.8 174.7c0 4-3.3 7.3-7.3 7.3s-7.3-3.3-7.3-7.3 3.3-7.3 7.3-7.3 7.3 3.3 7.3 7.3z"/><path class="dbaashigh0" d="M218.6 125.3c0 14.5-35.4 26.2-79 26.2s-79-11.7-79-26.2"/><g><path id="svg-ico" class="dbaashigh2" d="M325.8 191c0 3.4-2.6 6-6 6s-6-2.6-6-6 2.6-6 6-6 6 2.6 6 6z"/><animateMotion accumulate="none" additive="replace" begin="0s" calcMode="paced" dur="5s" fill="remove" path="M0 0 97 -55 0 0" repeatCount="indefinite" restart="always"/></g><g><path id="svg-ico" class="dbaashigh2" d="M327.2 226.7c0 3.4-2.6 6-6 6s-6-2.6-6-6 2.6-6 6-6a6 6 0 0 1 6 6z"/><animateMotion accumulate="none" additive="replace" begin="0s" calcMode="paced" dur="3s" fill="remove" path="M0 0 97 55 0 0" repeatCount="indefinite" restart="always"/></g><g><path id="svg-ico" class="dbaashigh2" d="M446.9 157c0 3.4-2.6 6-6 6s-6-2.6-6-6 2.6-6 6-6 6 2.6 6 6z"/><animateMotion accumulate="none" additive="replace" begin="0s" calcMode="paced" dur="3s" fill="remove" path="M0, 110 0 0 0 110" repeatCount="indefinite" restart="always"/></g></svg>