<svg version="1.1" id="Layer_1" xmlns="http://www.w3.org/2000/svg" x="0" y="0" viewBox="0 0 480.8 419.6" style="enable-background:new 0 0 480.8 419.6" xml:space="preserve"><style>.dbaasscale0,.dbaasscale1,.dbaasscale3{fill:none;stroke:gray;stroke-linecap:round;stroke-linejoin:round;stroke-miterlimit:10}.dbaasscale1,.dbaasscale3{stroke:#ee5586;stroke-width:2}.dbaasscale3{stroke-width:3}</style><path class="dbaasscale0" d="M120.6 252.2c-6.9.5-14.1.8-21.5.8-52.6 0-95.2-14.1-95.2-31.5v-127C3.9 77.1 46.5 63 99.1 63c7 0 13.8.2 20.3.7"/><path class="dbaasscale0" d="M120.7 125.2c-7 .5-14.2.8-21.7.8-52.6 0-95.1-14.1-95.1-31.5m116.8 94.2c-7 .5-14.2.8-21.7.8-52.6 0-95.1-14.1-95.1-31.5"/><path id="svg-concept" class="dbaasscale1" d="M106.6 295.7a9.8 9.8 0 1 1-19.6 0 9.8 9.8 0 0 1 19.6 0zm-9.9-29.5v19.6m-64.6 9.9h54.8m19.7 0h13.5"/><path class="dbaasscale0" d="M350.5 53.9c9.6-1.1 19.9-1.7 30.6-1.7 52.6 0 95.2 14.1 95.2 31.5v127c0 17.4-42.6 31.5-95.2 31.5-11.4 0-22.3-.7-32.4-1.9"/><path class="dbaasscale0" d="M441.6 143.2c0 4.9-3.9 8.8-8.8 8.8s-8.8-3.9-8.8-8.8 3.9-8.8 8.8-8.8 8.8 4 8.8 8.8zM441.6 207c0 4.9-3.9 8.8-8.8 8.8s-8.8-3.9-8.8-8.8 3.9-8.8 8.8-8.8c4.9.1 8.8 4 8.8 8.8zM476.3 83.7c0 15.5-33.7 28.3-78.1 31m78.1 32.5c0 17.4-42.6 31.5-95.2 31.5a307 307 0 0 1-32.8-2.3"/><path id="svg-concept" class="dbaasscale1" d="M388.6 284.8a9.8 9.8 0 1 1-19.6 0 9.8 9.8 0 0 1 19.6 0zm-9.8-29.4V275m-29.7 9.9H369m19.6 0h54.8"/><path class="dbaasscale0" d="M348.3 162v151.9c0 20.8-51 37.7-113.8 37.7s-113.8-16.9-113.8-37.7V162h0c0-6.2 4.6-12.1 12.6-17.2"/><path id="svg-concept" class="dbaasscale1" d="M306.9 233.2a10.5 10.5 0 1 1-21 0 10.5 10.5 0 0 1 21 0zM306.9 309.5a10.5 10.5 0 1 1-21 0 10.5 10.5 0 0 1 21 0z"/><path class="dbaasscale0" d="M348.4 238c0 20.8-51 37.7-113.8 37.7S120.7 258.8 120.7 238"/><path id="svg-concept" class="dbaasscale1" d="M243.5 402.6c0 6.5-5.3 11.8-11.8 11.8S220 409 220 402.6a11.7 11.7 0 0 1 23.5 0zm-11.7-35.3v23.5m-77.4 11.8H220m23.5 0h65.6"/><path class="dbaasscale0" d="M348.4 162c0 20.8-51 37.7-113.8 37.7S120.7 182.8 120.7 162"/><path d="M120.7 53.3c0-20.8 36.6-50.6 113.8-50.6 57 0 113.8 20.7 113.8 50.6v66.9c0 29-51 50.6-113.8 50.6s-113.8-22.3-113.8-50.6V53.3z" style="fill:none"/><path class="dbaasscale0" d="M234.7 103.9c-62.9 0-114-22.6-114-50.6 0-29.9 51.7-50.6 114-50.6 62.9 0 114 22.7 114 50.6m-114 117.5c-62.9 0-114-22.6-114-50.6m114-117.5v50.6m0 0h-114m41 38.8 146-77.7m-146 77.7v67M348.4 53.3H234.7m-73-38.9 73 38.9m-114 66.9V53.3"/><path class="dbaasscale0" d="M307.7 159.1a215.6 215.6 0 0 1-73 11.7v-66.9m46.3-4.4a239.7 239.7 0 0 1-46.3 4.3m73-11.7c-8 3-17 5.5-26.7 7.4M397.5 114.8c-18 0-34.9-1.7-49.2-4.5M335 143.9c8.5 5.3 13.3 11.3 13.3 17.7"/><g><path id="svg-concept" class="dbaasscale3" d="M396.8 53.3h-114v50.6l72.9 55.2c25-9.3 41-23.2 41-38.8v-67"/><path id="svg-concept" class="dbaasscale3" d="M396.8 53.3c.9 15.4-15.2 28.7-41 38.8m-73-38.8 73 39.1m0 0v66.7"/><animateMotion accumulate="none" additive="replace" begin="0s" calcMode="paced" dur="3s" fill="freeze" path="M8, 0 -48 0 48" restart="always"/></g></svg>