<svg version="1.1" id="Layer_1" xmlns="http://www.w3.org/2000/svg" x="0" y="0" viewBox="0 0 496.8 498" style="enable-background:new 0 0 496.8 498" xml:space="preserve"><style>.ddosalways0,.ddosalways1{fill:none;stroke:gray;stroke-linecap:round;stroke-linejoin:round;stroke-miterlimit:10}.ddosalways1{stroke:#ee5586;stroke-width:2}.ddosalways2{fill:#ee5586}</style><path class="ddosalways0" d="M490.9 248.5c0 133.9-108.6 242.5-242.5 242.5S5.9 382.4 5.9 248.5C5.9 114.5 114.5 6 248.4 6s242.5 108.5 242.5 242.5zM248.4 264.4v201.1M248.4 31.1v201.4M263.3 248.2h203.6M33.8 248.2h198.5"/><path class="ddosalways1" id="svg-concept" d="M433.7 248.5c0 102.4-83 185.3-185.3 185.3-102.4 0-185.3-83-185.3-185.3 0-102.4 83-185.3 185.3-185.3 102.4-.1 185.3 82.9 185.3 185.3h0z"/><path class="ddosalways0" d="M372.4 248.5c0 68.5-55.5 124-124 124s-124-55.5-124-124 55.5-124 124-124 124 55.5 124 124z"/><path class="ddosalways0" d="M315.3 248.5c0 36.9-29.9 66.9-66.9 66.9-36.9 0-66.9-29.9-66.9-66.9 0-36.9 29.9-66.9 66.9-66.9 36.9 0 66.9 29.9 66.9 66.9zM188.7 417.6l6.1-15.9M124.3 375.6l12.1-12M82.6 311.3l15.9-6.2M417.4 306.4l-16.1-5.8M376.7 371.6l-12.3-11.8M313.2 414.6l-6.5-15.8M309.3 80.8l-6.1 15.9M373.7 122.8l-12.1 12M415.4 187.1l-15.9 6.2M82.6 190l16.1 5.8M123.3 124.8l12.3 11.8M186.8 81.8l6.5 15.8"/><circle id="svg-ico" class="ddosalways2" cx="433.7" cy="256.6" r="6"/><circle id="svg-ico" class="ddosalways2" cx="289.6" cy="132" r="6"/><path id="svg-ico" class="ddosalways2" d="M227.1 309.4c0 3.4-2.6 6-6 6s-6-2.6-6-6 2.6-6 6-6c3.2.1 6 2.8 6 6z"/><circle id="svg-ico" class="ddosalways2" cx="294.3" cy="363.6" r="6"/><path id="svg-ico" class="ddosalways2" d="M75.4 201.9c0 3.4-2.6 6-6 6s-6-2.6-6-6 2.6-6 6-6c3.4.1 6 2.8 6 6z"/><g><path id="svg-concept" d="M248.4 237.1V6C316 6 372 32.9 419.5 77l-163 163.3" style="fill:none;stroke-width:3;stroke-linecap:round;stroke-linejoin:round;stroke-miterlimit:10"/><animateTransform accumulate="none" additive="replace" attributeName="transform" calcMode="linear" dur="3s" fill="remove" from="0 248 249" repeatCount="indefinite" restart="always" to="360 248 249" type="rotate"/></g><path id="svg-concept" class="ddosalways1" d="M258.9 248.2c0 5.8-4.7 10.5-10.5 10.5s-10.5-4.7-10.5-10.5 4.7-10.5 10.5-10.5 10.5 4.7 10.5 10.5h0z"/><path id="svg-concept" d="M252.3 248.2c0 2.2-1.7 3.9-3.9 3.9s-3.9-1.8-3.9-3.9 1.7-3.9 3.9-3.9 3.9 1.7 3.9 3.9zm6.6 0h-6.6m-7.8 0h-6.6" style="fill:none;stroke-linecap:round;stroke-linejoin:round;stroke-miterlimit:10"/></svg>