<svg version="1.1" id="Layer_1" xmlns="http://www.w3.org/2000/svg" x="0" y="0" viewBox="0 0 668.6 652.5" style="enable-background:new 0 0 668.6 652.5" xml:space="preserve"><style>.dns1{fill:#ee5586}.dns2,.dns3,.dns5{fill:none;stroke:gray;stroke-linecap:round;stroke-linejoin:round;stroke-miterlimit:10}.dns3,.dns5{stroke:#ee5586;stroke-width:2}.dns5{stroke:gray}</style><circle cx="333" cy="326" r="319" style="fill:none;stroke:gray;stroke-miterlimit:10"/><g><path id="svg-ico" class="dns1" d="M20.3 327.5c0 3.3-2.7 6-6 6s-6-2.7-6-6 2.7-6 6-6 6 2.7 6 6z"/><animateTransform accumulate="none" additive="replace" attributeName="transform" calcMode="linear" dur="10s" fill="remove" from="0 325 320" repeatCount="indefinite" restart="always" to="360 340 325" type="rotate"/></g><g><path id="svg-ico" class="dns1" d="M657.7 327.5c0 3.3-2.7 6-6 6s-6-2.7-6-6 2.7-6 6-6 6 2.7 6 6z"/><animateTransform accumulate="none" additive="replace" attributeName="transform" calcMode="linear" dur="20s" fill="remove" from="0 345 320" repeatCount="indefinite" restart="always" to="-360 322 323" type="rotate"/></g><circle class="dns2" cx="334.2" cy="602.6" r="3.5"/><path class="dns2" d="M334.2 592.9v6m-27.5 3.7h24m7.2 0h24M390.9 538.9c0 1.8-1.4 3.3-3 3.3H280.7c-1.7 0-3-1.5-3-3.3v-11.8c0-1.8 1.4-3.3 3-3.3h107.2c1.7 0 3 1.5 3 3.3v11.8z"/><path id="svg-concept" class="dns3" d="M376.5 533a3.9 3.9 0 1 1-3.9-3.9c2.2 0 3.9 1.7 3.9 3.9z"/><path class="dns2" d="M390.9 563.3c0 1.8-1.4 3.3-3 3.3H280.7c-1.7 0-3-1.5-3-3.3v-11.8c0-1.8 1.4-3.3 3-3.3h107.2c1.7 0 3 1.5 3 3.3v11.8z"/><path id="svg-concept" class="dns3" d="M376.5 557.4a3.9 3.9 0 0 1-7.8 0 4 4 0 0 1 3.9-3.9c2.2 0 3.9 1.7 3.9 3.9z"/><path class="dns2" d="M390.9 587.7c0 1.8-1.4 3.3-3 3.3H280.7c-1.7 0-3-1.5-3-3.3v-11.8c0-1.8 1.4-3.3 3-3.3h107.2c1.7 0 3 1.5 3 3.3v11.8z"/><path id="svg-concept" class="dns3" d="M376.5 581.8a3.9 3.9 0 0 1-7.8 0 4 4 0 0 1 3.9-3.9c2.2 0 3.9 1.7 3.9 3.9z"/><radialGradient id="SVGID_1_" cx="203.2" cy="-16.4" r="0" gradientTransform="translate(0 274.1)" gradientUnits="userSpaceOnUse"><stop offset="0" style="stop-color:#27aae1"/><stop offset=".2" style="stop-color:#2aabe1"/><stop offset=".3" style="stop-color:#33aee1"/><stop offset=".5" style="stop-color:#44b3e2"/><stop offset=".6" style="stop-color:#5abae3"/><stop offset=".7" style="stop-color:#78c4e4"/><stop offset=".8" style="stop-color:#9ccfe5"/><stop offset=".9" style="stop-color:#c6dde7"/><stop offset="1" style="stop-color:#e6e7e8"/></radialGradient><path d="M203.2 257.7c-.1 0-.1 0 0 0z" style="fill:url(#SVGID_1_)"/><path class="dns5" d="M335.3 84.8v422.5M575.5 325.7H90.4M131.5 193.6c73.5 74.8 325.7 74.2 404.7 0M533.7 464.3c-72.7-74.8-322.1-74.2-400.2 0"/><path class="dns5" d="M262 509.1c-23.2-44.5-37.8-109.3-37.8-181.6 0-134 50.2-242.7 112.2-242.7s112.2 108.7 112.2 242.7c0 72.8-14.8 138.1-38.3 182.6"/><path id="svg-concept" d="M261.1 558.5a242.6 242.6 0 1 1 146.2-.8" style="fill:none;stroke-width:3;stroke-linecap:round;stroke-linejoin:round;stroke-miterlimit:10"/></svg>