<svg version="1.1" id="Layer_1" xmlns="http://www.w3.org/2000/svg" x="0" y="0" viewBox="0 0 646.6 652.5" style="enable-background:new 0 0 646.6 652.5" xml:space="preserve"><style>.domainmanage1{stroke-width:2}.domainmanage1,.domainmanage2,.domainmanage3{fill:none;stroke:gray;stroke-linecap:round;stroke-linejoin:round;stroke-miterlimit:10}.domainmanage3{stroke:#ee5586;stroke-width:2}.domainmanage5{fill:#ee5586}</style><radialGradient id="SVGID_1_" cx="210.3" cy="-71.6" r="0" gradientTransform="translate(0 274.1)" gradientUnits="userSpaceOnUse"><stop offset="0" style="stop-color:#27aae1"/><stop offset=".2" style="stop-color:#2aabe1"/><stop offset=".3" style="stop-color:#33aee1"/><stop offset=".5" style="stop-color:#44b3e2"/><stop offset=".6" style="stop-color:#5abae3"/><stop offset=".7" style="stop-color:#78c4e4"/><stop offset=".8" style="stop-color:#9ccfe5"/><stop offset=".9" style="stop-color:#c6dde7"/><stop offset="1" style="stop-color:#e6e7e8"/></radialGradient><path d="M210.3 202.5c-.1 0-.1 0 0 0z" style="fill:url(#SVGID_1_)"/><path class="domainmanage1" d="M363 2.7v307.7M642.3 281.1h-562M127.5 128.5c84.9 86.5 376.4 85.7 467.7 0"/><path class="domainmanage1" d="m234.8 310.4-.2-27.2c0-154.9 58.1-280.5 129.7-280.5S494 128.3 494 283.2c0 6.3-.1 21-.3 27.2"/><path class="domainmanage2" d="M361.3 587c-36.6 23.4-81.5 40.5-128.9 40.5-126.5 0-229.1-97.3-229.1-217.2 0-46.6-7.3-108.1 44.1-129.4"/><path class="domainmanage2" d="M361.3 587c-42 45.7-81.5 62.4-128.9 62.4A228.7 228.7 0 0 1 3.6 420.9M58.4 286.6h-8.6c-1.3 0-2.3-1-2.3-2.3v-5.1c0-1.3 1-2.3 2.3-2.3h8.7"/><path class="domainmanage2" d="M80.7 295.7h-13a9.3 9.3 0 0 1-9.3-9.3v-9.1c0-5.1 4.2-9.3 9.3-9.3h13"/><path class="domainmanage2" d="M150.7 468.4a281 281 0 1 1 491.6-186h0c0 72.2-27.3 138.1-72 187.9"/><path id="svg-concept" class="domainmanage3" d="M202.4 442.7h59.2"/><path class="domainmanage2" d="M445.6 442.7h59.2m-180.8 0h59.2m-180.8 36.9h59.2"/><path id="svg-concept" class="domainmanage3" d="M445.6 479.6h59.2"/><path class="domainmanage2" d="M324 479.6h59.2m-180.8 36.8h59.2m184 0h59.2"/><path id="svg-concept" class="domainmanage3" d="M324 516.4h59.2"/><path class="domainmanage2" d="M202.4 553.3h59.2m184 0h59.2m-180.8 0h59.2m89-155.1H235a3 3 0 0 1-3-3v-17.6a3 3 0 0 1 3-3h237.2a3 3 0 0 1 3 3v17.6a3 3 0 0 1-3 3zM152.9 349.8h416.9"/><path id="svg-concept" d="M167.7 317.7h387.2a15 15 0 0 1 14.9 14.9v239.7a15 15 0 0 1-14.9 14.9H167.7a15 15 0 0 1-14.9-14.9V332.5a15 15 0 0 1 14.9-14.8z" style="fill:none;stroke-width:3;stroke-linecap:round;stroke-linejoin:round;stroke-miterlimit:10"/><g><path id="svg-ico" class="domainmanage5" d="M330 442.7c0 3.3-2.7 6-6 6s-6-2.7-6-6 2.7-6 6-6c3.3.1 6 2.8 6 6z"/><animateMotion accumulate="none" additive="replace" begin="0s" calcMode="paced" dur="2s" fill="remove" path="M55, 0 0 0 0 0 55 0" repeatCount="indefinite" restart="always"/></g><g><path id="svg-ico" class="domainmanage5" d="M208.4 516.4c0 3.3-2.7 6-6 6s-6-2.7-6-6 2.7-6 6-6 6 2.7 6 6z"/><animateMotion accumulate="none" additive="replace" begin="1s" calcMode="paced" dur="3s" fill="remove" path="M55, 0 0 0 0 0 55 0" repeatCount="indefinite" restart="always"/></g><g><path id="svg-ico" class="domainmanage5" d="M510.8 553.2c0 3.3-2.7 6-6 6s-6-2.7-6-6 2.7-6 6-6c3.3.1 6 2.8 6 6z"/><animateMotion accumulate="none" additive="replace" begin="2s" calcMode="paced" dur="2s" fill="remove" path="M0, 0 -55 0 0 0 0 0" repeatCount="indefinite" restart="always"/></g></svg>