<svg xmlns="http://www.w3.org/2000/svg" xml:space="preserve" id="Layer_1" x="0" y="0" style="enable-background:new 0 0 657.3 652.5" version="1.1" viewBox="0 0 657 653"><style>.domainrenewal0{fill:none;stroke:gray;stroke-linecap:round;stroke-linejoin:round;stroke-miterlimit:10}.domainrenewal1{fill:#ee5586}.domainrenewal2{stroke-width:3}.domainrenewal2,.domainrenewal3,.domainrenewal4{fill:none;stroke:#ee5586;stroke-linecap:round;stroke-linejoin:round;stroke-miterlimit:10}.domainrenewal4{stroke-width:2}</style><path d="M465 533H218m0-99v99m315-125V225m-99 0h99" class="domainrenewal0"/><g><path id="svg-ico" d="M410 533c0 3-3 6-6 6s-6-3-6-6 3-6 6-6 6 3 6 6z" class="domainrenewal1"/><animateMotion fill="remove" accumulate="none" additive="replace" begin="0s" calcMode="paced" dur="2s" path="M0, 0 -185 0 -185 -100 -100" repeatCount="indefinite" restart="always"/></g><g><path id="svg-ico" d="M450 225c0 4-3 6-6 6s-6-2-6-6 3-6 6-6 6 3 6 6z" class="domainrenewal1"/><animateMotion fill="remove" accumulate="none" additive="replace" begin="0s" calcMode="paced" dur="2s" path="M0, 0 90 0 90 180 90" repeatCount="indefinite" restart="always"/></g><path id="svg-concept" d="M434 218a216 216 0 1 0-432 0 216 216 0 0 0 432 0z" class="domainrenewal2"/><path id="svg-concept" d="M338 218C338 99 284 3 218 3S99 99 99 218s53 216 119 216 120-96 120-216z" class="domainrenewal3"/><path d="M47 90c42 32 103 52 171 52s129-20 172-52m0 257c-43-32-104-52-172-52S89 315 47 347M4 225h428M218 4v428" class="domainrenewal0"/><path id="svg-concept" d="M654 529a121 121 0 1 0-242 0 121 121 0 0 0 242 0z" class="domainrenewal4"/><path id="svg-concept" d="M600 529c0-66-30-121-67-121s-67 55-67 121 30 121 67 121 67-54 67-121z" class="domainrenewal3"/><path d="M437 458c24 17 58 28 96 28s72-11 96-29m0 144c-24-18-58-29-96-29s-72 11-96 29m-25-68h242M533 408v242" class="domainrenewal0"/></svg>