<svg xmlns="http://www.w3.org/2000/svg" xml:space="preserve" id="Layer_1" x="0" y="0" style="enable-background:new 0 0 1100.6 600.5" version="1.1" viewBox="0 0 1101 601"><style>.domains0{fill:none;stroke:gray;stroke-linecap:round;stroke-linejoin:round;stroke-miterlimit:10}.domains1{fill:url(#SVGID_1_)}.domains2{fill:none;stroke:#ee5586;stroke-width:4;stroke-linecap:round;stroke-linejoin:round;stroke-miterlimit:10}.domains3{fill:url(#SVGID_2_)}.domains4,.domains5{fill:none;stroke-miterlimit:10}.domains4{stroke:#ee5586;stroke-width:2;stroke-linecap:round;stroke-linejoin:round}.domains5{stroke:gray}.domains6{fill:#ee5586}</style><path d="M197 73c-1 0-3-1-3-3s2-3 3-3l3 3c0 2-1 3-3 3zm-7-54c-2 0-3-2-3-3s1-3 3-3 3 1 3 3l-3 3zm93 29c-2 0-3-1-3-3s1-3 3-3 3 1 3 3-1 3-3 3zm140 25c-1 0-3-1-3-3s2-3 3-3l3 3c0 2-1 3-3 3zm36-21c-2 0-3-1-3-3s1-3 3-3 3 2 3 3c0 2-2 3-3 3zm-60 59c-2 0-3-1-3-3s1-3 3-3 3 1 3 3-1 3-3 3zm117-53c-1 0-3-1-3-3s2-3 3-3 3 1 3 3-1 3-3 3zm42 8c-1 0-3-1-3-3s2-3 3-3 3 1 3 3-1 3-3 3zm44 7c-2 0-3-1-3-3s1-3 3-3 3 2 3 3l-3 3zm64-6c-2 0-3-1-3-3s1-3 3-3 3 2 3 3c0 2-1 3-3 3zm-34-30c-1 0-3-1-3-3s2-3 3-3l3 3c0 1-1 3-3 3zm94 33c-2 0-3-2-3-3s1-3 3-3 3 1 3 3c0 1-1 3-3 3zm74-7c-2 0-3-2-3-3s1-3 3-3 3 1 3 3-1 3-3 3zm98-51c-2 0-3-2-3-3s1-3 3-3 3 1 3 3c0 1-1 3-3 3zm-197 94c-2 0-3-1-3-3s1-3 3-3 3 1 3 3-1 3-3 3zm40-76c-2 0-3-2-3-3s1-3 3-3 3 1 3 3c0 1-1 3-3 3zm-13 90c-2 0-3-1-3-3s1-3 3-3 3 2 3 3c0 2-2 3-3 3zm65 30c-2 0-3-2-3-3s1-3 3-3 3 1 3 3-2 3-3 3zm-39 37c-2 0-3-2-3-3s1-3 3-3 3 1 3 3l-3 3zm18 51c-2 0-3-1-3-3s1-3 3-3 3 2 3 3c0 2-1 3-3 3zm32 47c-2 0-3-1-3-3s1-3 3-3 3 1 3 3-2 3-3 3zm-24 55c-2 0-3-2-3-3s1-3 3-3 3 1 3 3c0 1-1 3-3 3zm56-14c-1 0-3-1-3-3s2-3 3-3 3 1 3 3c0 1-1 3-3 3zm-33 56c-2 0-3-1-3-3s1-3 3-3 3 1 3 3-1 3-3 3zm-33 49c-2 0-3-2-3-3s1-3 3-3 3 1 3 3-2 3-3 3zm84 43c-1 0-3-1-3-3s2-3 3-3l3 3c0 1-1 3-3 3zm-18-63c-1 0-3-1-3-3s2-3 3-3 3 1 3 3-1 3-3 3zm-34 95c-2 0-3-1-3-3s1-3 3-3 3 1 3 3c0 1-1 3-3 3zm49 87-3-3 3-3c1 0 3 1 3 3s-1 3-3 3zm-20-56c-2 0-3-1-3-3s1-3 3-3 3 1 3 3-2 3-3 3zm45-2-3-3 3-3c1 0 3 1 3 3s-1 3-3 3zm-101 46c-2 0-3-1-3-3s1-3 3-3 3 1 3 3-1 3-3 3zm142 3c-2 0-3-2-3-4 0-1 1-3 3-2 2 0 3 1 3 3s-2 3-3 3h0zm-164-38c-2 0-3-2-3-3s1-3 3-3 3 1 3 3c0 1-1 3-3 3zm-81 32-3-3 3-3c1 0 3 1 3 3s-1 3-3 3zm-22-43-3-3 3-3c1 0 3 1 3 3 0 1-1 3-3 3zm-47 24c-2 0-3-2-3-3s1-3 3-3 3 1 3 3-2 3-3 3zm-50 22-3-3 3-3c1 0 3 1 3 3s-1 3-3 3zm-35-24c-2 0-3-1-3-3s1-3 3-3 3 1 3 3-2 3-3 3zm-62 0c-2 0-3-1-3-3s1-3 3-3 3 1 3 3-1 3-3 3zm41 36c-2 0-3-2-3-3s1-3 3-3 3 1 3 3-2 3-3 3zm-74-2c-1 0-3-1-3-3s2-3 3-3l3 3c0 1-1 3-3 3zm-26-67c-2 0-3-2-3-3s1-3 3-3 3 1 3 3l-3 3zm-90 32c-2 0-3-2-3-3s1-3 3-3 3 1 3 3-1 3-3 3zm-73 8c-2 0-3-1-3-3s1-3 3-3 3 1 3 3-1 3-3 3zm70-56c-2 0-3-1-3-3s1-3 3-3 3 1 3 3-1 3-3 3zm-134 77c-2 0-3-2-3-3s1-3 3-3 3 1 3 3l-3 3zm150-114c-2 0-3-1-3-3s1-3 3-3 3 2 3 3l-3 3zm-3-34c-1 0-3-1-3-3s2-3 3-3 3 1 3 3-1 3-3 3zm-20-225c-2 0-3-1-3-3s1-3 3-3 3 2 3 3c0 2-2 3-3 3zm-10-40c-2 0-3-1-3-3s1-3 3-3 3 1 3 3-1 3-3 3zm-179-39c-2 0-3-2-3-3s1-3 3-3 3 1 3 3-2 3-3 3zm82 195c-2 0-3-2-3-3s1-3 3-3 3 1 3 3-2 3-3 3zM9 594c-2 0-3-2-3-3s1-3 3-3 3 1 3 3c0 1-1 3-3 3zm252-354c-2 0-3-1-3-3s1-3 3-3 3 1 3 3-1 3-3 3zm73-88c-2 0-3-1-3-3s1-3 3-3 3 2 3 3-1 3-3 3zm-84-13c-2 0-3-1-3-3s1-3 3-3 3 2 3 3c0 2-2 3-3 3zM84 89c-2 0-3-2-3-3s1-3 3-3 3 1 3 3c0 1-1 3-3 3zm204 275c-2 0-3-1-3-3s1-3 3-3 3 1 3 3c0 1-1 3-3 3zm-5-41c-2 0-3-1-3-3s1-3 3-3 3 1 3 3-1 3-3 3zm-43-8c-2 0-3-1-3-3s1-3 3-3 3 2 3 3c0 2-2 3-3 3zm14 67c-2 0-3-1-3-3s1-3 3-3 3 1 3 3-1 3-3 3zm-7 66c-2 0-3-1-3-3s1-3 3-3 3 2 3 3l-3 3zm14 56c-2 0-3-1-3-3s1-3 3-3 3 1 3 3-2 3-3 3zM54 212c-2 0-3-1-3-3s1-3 3-3 3 1 3 3-1 3-3 3zM42 331c-2 0-3-2-3-3s1-3 3-3 3 1 3 3-1 3-3 3zM35 37c-2 0-3-1-3-3s1-3 3-3 3 2 3 3c0 2-2 3-3 3zm158 345c-2 0-3-1-3-3s1-3 3-3 3 1 3 3-2 3-3 3zm6 122c-1 0-3-1-3-3s2-3 3-3 3 1 3 3-1 3-3 3zM87 451c-2 0-3-1-3-3s1-3 3-3 3 1 3 3-1 3-3 3zm20 101c-2 0-3-1-3-3s1-3 3-3 3 1 3 3-1 3-3 3zm-59-31c-2 0-3-2-3-3s1-3 3-3 3 1 3 3c0 1-1 3-3 3zm78-229c-2 0-3-1-3-3s1-3 3-3 3 1 3 3-2 3-3 3zm4 57c-2 0-3-1-3-3s1-3 3-3 3 2 3 3-1 3-3 3zm7 122c-2 0-3-1-3-3s1-3 3-3 3 2 3 3c0 2-2 3-3 3zm57-195c-1 0-3-1-3-3s2-3 3-3 3 1 3 3-1 3-3 3zm-90-98c-2 0-3-2-3-3s1-3 3-3 3 1 3 3c0 1-1 3-3 3zm45-141c-2 0-3-1-3-3s1-3 3-3 3 1 3 3-2 3-3 3zm25 89c-2 0-3-1-3-3s1-3 3-3 3 2 3 3-1 3-3 3zm-14 90c-2 0-3-1-3-3s1-3 3-3 3 2 3 3c0 2-1 3-3 3zm205 273c-2 0-3-1-3-3s1-3 3-3 3 1 3 3-1 3-3 3zm-28 99c-2 0-3-2-3-3s1-3 3-3 3 1 3 3c0 1-1 3-3 3zm-83 10c-2 0-3-2-3-3s1-3 3-3 3 1 3 3l-3 3h0zm463-50c-2 0-3-2-3-3s1-3 3-3 3 1 3 3c0 1-1 3-3 3zm0-56c-1 0-3-1-3-3s2-3 3-3 3 1 3 3-1 3-3 3zm105-301c-2 0-3-1-3-3s1-3 3-3 3 2 3 3c0 2-2 3-3 3zm55-121c-2 0-3-1-3-3s1-3 3-3 3 2 3 3l-3 3zm-44 182-3-3 3-3c1 0 3 1 3 3 0 1-1 3-3 3zm24-14-3-3 3-3c1 0 3 1 3 3 0 1-1 3-3 3zm60-16c-2 0-3-2-3-3s1-3 3-3 3 1 3 3l-3 3zm-70-77c-2 0-3-1-3-3s1-3 3-3 3 1 3 3-1 3-3 3zm156 160c-2 0-3-1-3-3s1-3 3-3 3 1 3 3-1 3-3 3zm-108 21c-2 0-3-1-3-3s1-3 3-3 3 1 3 3c0 1-1 3-3 3zm160-197c-2 0-3-2-3-3s1-3 3-3 3 1 3 3c0 1-1 3-3 3zm-27-71c-2 0-3-1-3-3s1-3 3-3 3 1 3 3-1 3-3 3zm62-43c-2 0-3-2-3-3s1-3 3-3 3 1 3 3c0 1-1 3-3 3zM913 474c-2 0-3-1-3-3s1-3 3-3 3 2 3 3l-3 3zm-18-63c-2 0-3-1-3-3s1-3 3-3 3 1 3 3-1 3-3 3zm48-107c-2 0-3-1-3-3s1-3 3-3 3 1 3 3-1 3-3 3zm-37-159c-2 0-3-1-3-3s1-3 3-3 3 1 3 3-2 3-3 3zm-73-45c-1 0-3-1-3-3s2-3 3-3 3 1 3 3-1 3-3 3zm3-79c-1 0-3-1-3-3s2-3 3-3 3 1 3 3c0 1-1 3-3 3zm134 199c-2 0-3-1-3-3s1-3 3-3 3 1 3 3-1 3-3 3zm-42 148c-2 0-3-2-3-3s1-3 3-3 3 1 3 3c0 1-1 3-3 3zm86 118c-2 0-3-1-3-3s1-3 3-3 3 1 3 3c0 1-1 3-3 3zM367 61c-2 0-3-1-3-3s1-3 3-3 3 1 3 3-1 3-3 3zm-35-28c-2 0-3-2-3-3s1-3 3-3 3 1 3 3l-3 3zm-33 77c-2 0-3-1-3-3s1-3 3-3 3 2 3 3-1 3-3 3zm-45-91c-2 0-3-2-3-3s1-3 3-3 3 1 3 3c0 1-1 3-3 3zm546 69 55-41m-66 76 31-24M330 549l-55 42m66-76-31 24" class="domains0"/><radialGradient id="SVGID_1_" cx="688" cy="-129.4" r="0" gradientTransform="translate(0 465)" gradientUnits="userSpaceOnUse"><stop offset="0" style="stop-color:#27aae1"/><stop offset=".2" style="stop-color:#2aabe1"/><stop offset=".3" style="stop-color:#33aee1"/><stop offset=".5" style="stop-color:#44b3e2"/><stop offset=".6" style="stop-color:#5abae3"/><stop offset=".7" style="stop-color:#78c4e4"/><stop offset=".8" style="stop-color:#9ccfe5"/><stop offset=".9" style="stop-color:#c6dde7"/><stop offset="1" style="stop-color:#e6e7e8"/></radialGradient><path d="M688 336c0-1 0-1 0 0z" class="domains1"/><path id="svg-concept" d="M775 313a227 227 0 1 1-454 0 227 227 0 0 1 454 0z" class="domains2"/><path d="M566 418c0 2-2 4-4 4s-4-2-4-4 2-4 4-4 4 2 4 4zm-12-9c0 2-1 4-4 4s-4-2-4-4 2-4 4-4 4 2 4 4zm34-26c0 2-2 4-4 4s-4-2-4-4 2-4 4-4 4 1 4 4zm5-32c0 2-2 4-4 4s-4-2-4-4 2-4 4-4 4 2 4 4zm16-26c0 2-2 4-4 4s-4-2-4-4 2-4 4-4 4 2 4 4zm-12-2c0 2-2 4-4 4s-4-2-4-4 2-4 4-4 4 1 4 4zm-13-33c0 2-2 4-4 4s-4-2-4-4 2-4 4-4 4 2 4 4zm20 23c0 3-2 4-4 4s-4-1-4-4 2-4 4-4 4 2 4 4zm21-13c0 2-2 4-4 4s-4-2-4-4 1-4 4-4 4 2 4 4zm-39-24c0 2-2 4-4 4s-4-2-4-4 2-4 4-4 4 2 4 4zm-2-11c0 3-2 4-4 4s-4-1-4-4 2-4 4-4 4 2 4 4zm-13 0c0 2-2 4-4 4s-4-2-4-4 2-4 4-4 4 1 4 4zm-13 17c0 3-1 4-4 4s-4-1-4-4 2-4 4-4 4 2 4 4zm-41-10c0 2-2 4-4 4s-4-2-4-4 2-4 4-4 4 2 4 4zm23-21c0 2-2 4-4 4s-4-2-4-4 2-4 4-4 4 1 4 4zm11 7c0 2-2 4-4 4s-4-2-4-4 2-4 4-4 4 2 4 4zm-9-35c0 2-2 4-4 4s-4-2-4-4 2-4 4-4 4 1 4 4zm-4-24c0 2-2 4-4 4s-4-2-4-4 2-4 4-4 4 2 4 4zm28-26c0 2-2 4-4 4s-4-2-4-4 2-4 4-4 4 2 4 4zm25 12c0 2-2 4-4 4s-4-2-4-4 2-4 4-4 4 2 4 4zm26-7c0 2-2 4-4 4s-4-2-4-4 1-4 4-4 4 2 4 4zm15-8c0 2-1 4-4 4s-4-2-4-4 2-4 4-4c3 0 4 2 4 4zm22-7c0 2-1 4-4 4s-4-2-4-4 2-4 4-4c3 0 4 2 4 4zm-9 8c0 2-1 4-4 4s-4-2-4-4 2-4 4-4 4 1 4 4zm32-18c0 2-2 4-4 4s-4-2-4-4 2-4 4-4 4 2 4 4zm22 13c0 2-2 4-4 4s-4-2-4-4 1-4 4-4 4 2 4 4zm48 78c0 2-2 4-4 4s-4-2-4-4 2-4 4-4 4 2 4 4zm-6 23c0 2-2 4-4 4s-4-2-4-4 2-4 4-4 4 1 4 4zm-11-9c0 2-2 4-4 4s-4-2-4-4 2-4 4-4 4 1 4 4zm0 26c0 2-2 4-4 4s-4-2-4-4 2-4 4-4 4 1 4 4zm-16 18c0 2-2 4-4 4s-4-2-4-4 2-4 4-4 4 2 4 4zm-6 22c0 2-2 4-4 4s-4-2-4-4 2-4 4-4 4 1 4 4zm-13-9c0 2-2 4-4 4s-4-2-4-4 2-4 4-4 4 2 4 4zm-15-18c0 2-2 4-4 4s-4-2-4-4 2-4 4-4 4 2 4 4zm-38-6c0 2-2 4-4 4s-4-2-4-4 2-4 4-4 4 2 4 4zm31-31c0 2-2 4-4 4s-4-2-4-4 2-4 4-4 4 2 4 4zm31-32c0 2-2 4-4 4s-4-2-4-4 2-4 4-4 4 1 4 4zm-117-12c0 2-2 4-4 4s-4-2-4-4 2-4 4-4 4 1 4 4zm55 11c0 2-2 4-4 4s-4-2-4-4 2-4 4-4 4 1 4 4zm-13 62c0 2-2 4-4 4s-4-2-4-4 1-4 4-4 4 2 4 4zm73 49c0 2-2 4-4 4s-4-2-4-4 2-4 4-4 4 2 4 4zm47 37c0 2-2 4-4 4s-4-2-4-4 2-4 4-4 4 2 4 4zm-145 25c0 2-2 4-4 4s-4-2-4-4 2-4 4-4 4 2 4 4zm4-23c0 3-2 4-4 4s-4-1-4-4 2-4 4-4 4 2 4 4zm136-56c0 2-2 4-4 4s-4-2-4-4 2-4 4-4 4 2 4 4zm7-44c0 2-1 4-4 4s-4-2-4-4 2-4 4-4 4 2 4 4zm4 70c0 2-2 4-4 4s-4-2-4-4 2-4 4-4 4 2 4 4zm-17 3c0 3-2 4-4 4s-4-1-4-4 2-4 4-4 4 2 4 4zm-24 12c0 2-2 4-4 4s-4-2-4-4 2-4 4-4 4 1 4 4zm-12-11c0 2-2 4-4 4s-4-2-4-4 2-4 4-4 4 2 4 4zm35-43c0 2-2 4-4 4s-4-2-4-4 2-4 4-4 4 2 4 4zm-4-12c0 2-2 4-4 4s-4-2-4-4 2-4 4-4 4 2 4 4zm-1 91c0 2-2 4-4 4s-4-2-4-4 2-4 4-4 4 1 4 4zm11 8c0 3-2 4-4 4s-4-1-4-4 2-4 4-4 4 2 4 4zM520 227c0 3-2 4-4 4s-4-1-4-4 2-4 4-4 4 2 4 4zm-12-8c0 2-2 4-4 4s-4-2-4-4 2-4 4-4 4 2 4 4zm-4 75c0 2-2 4-4 4s-4-2-4-4 1-4 4-4 4 2 4 4zm-3 25c0 3-2 4-4 4s-4-1-4-4 1-4 4-4 4 2 4 4zm21-21c0 2-2 4-4 4s-4-2-4-4 2-4 4-4 4 2 4 4zm32 14c0 2-1 4-4 4s-4-2-4-4 2-4 4-4 4 2 4 4zm16 31c0 2-2 4-4 4s-4-2-4-4 1-4 4-4c2 0 4 1 4 4zm-2 39c0 2-2 4-4 4s-4-2-4-4 2-4 4-4 4 1 4 4zm-21 3c0 2-2 4-4 4s-4-2-4-4 2-4 4-4 4 1 4 4zm3-16c0 3-2 4-4 4s-4-1-4-4 1-4 4-4c2 0 4 2 4 4zm-7-30c0 2-2 4-4 4s-4-2-4-4 2-4 4-4 4 1 4 4zm-33-150c0 2-1 4-4 4s-4-2-4-4 2-4 4-4 4 2 4 4zm39-37c0 2-2 4-4 4s-4-2-4-4 2-4 4-4 4 2 4 4zm-4-11c0 2-2 4-4 4s-4-2-4-4 2-4 4-4 4 1 4 4zm18-4c0 2-2 4-4 4s-4-2-4-4 2-4 4-4 4 1 4 4zm48 1c0 2-2 4-4 4s-4-2-4-4 2-4 4-4c3 0 4 2 4 4zm11 14c0 2-1 4-4 4s-4-2-4-4 2-4 4-4 4 2 4 4zm-80-8 2 4m62 17 10-10" class="domains0"/><radialGradient id="SVGID_2_" cx="425.7" cy="-217.7" r="0" gradientTransform="translate(0 465)" gradientUnits="userSpaceOnUse"><stop offset="0" style="stop-color:#27aae1"/><stop offset=".2" style="stop-color:#2aabe1"/><stop offset=".3" style="stop-color:#33aee1"/><stop offset=".5" style="stop-color:#44b3e2"/><stop offset=".6" style="stop-color:#5abae3"/><stop offset=".7" style="stop-color:#78c4e4"/><stop offset=".8" style="stop-color:#9ccfe5"/><stop offset=".9" style="stop-color:#c6dde7"/><stop offset="1" style="stop-color:#e6e7e8"/></radialGradient><path d="M426 247z" class="domains3"/><path d="M467 200c0 2-2 4-4 4s-4-2-4-4 2-4 4-4 4 2 4 4zm-24 228c0 2-1 4-4 4s-4-2-4-4 2-4 4-4c3 0 4 2 4 4zm-26-11c0 2-2 4-4 4s-4-2-4-4 1-4 4-4 4 2 4 4zm17-11c0 2-1 4-4 4s-4-2-4-4 2-4 4-4 4 1 4 4zm16-57c0 2-2 4-4 4s-4-2-4-4 1-4 4-4c2 0 4 2 4 4zm-24-21c0 2-2 4-4 4s-4-2-4-4 1-4 4-4c2 0 4 2 4 4zm-23 1c0 3-2 4-4 4s-4-1-4-4 1-4 4-4 4 2 4 4zm-15-9c0 2-2 4-4 4s-4-2-4-4 2-4 4-4 4 2 4 4zm-43-32c0 3-2 4-4 4s-4-1-4-4 2-4 4-4 4 2 4 4zm24-4c0 3-2 4-4 4s-4-1-4-4 2-4 4-4c3 0 4 2 4 4zm30 4c0 3-2 4-4 4s-4-1-4-4 1-4 4-4 4 2 4 4zm11-21c0 2-2 4-4 4s-4-2-4-4 1-4 4-4 4 2 4 4zm7-65c0 2-2 4-4 4s-4-2-4-4 2-4 4-4 4 1 4 4zm-8 26c0 2-2 4-4 4s-4-2-4-4 1-4 4-4 4 1 4 4zm-21-18c0 2-1 4-4 4s-4-2-4-4 2-4 4-4 4 2 4 4zm21-45c0 3-2 4-4 4s-4-1-4-4 2-4 4-4 4 2 4 4zm-4 19c0 3-2 4-4 4s-4-1-4-4 2-4 4-4c3 0 4 2 4 4zm26-11c0 2-2 4-4 4s-4-2-4-4 1-4 4-4 4 2 4 4zm0 20c0 3-2 4-4 4s-4-1-4-4 1-4 4-4 4 2 4 4zm-71 38c0 2-1 4-4 4s-4-2-4-4 2-4 4-4 4 2 4 4zm20 15c0 3-2 4-4 4s-4-1-4-4 2-4 4-4 4 2 4 4zm41 105c0 2-2 4-4 4s-4-2-4-4 1-4 4-4 4 1 4 4zm25 23c0 2-2 4-4 4s-4-2-4-4 1-4 4-4c2 0 4 2 4 4zm16-192c0 2-2 4-4 4s-4-2-4-4 2-4 4-4 4 2 4 4zm31-5c0 2-2 4-4 4s-4-2-4-4 1-4 4-4 4 1 4 4zm13-29c0 2-1 4-4 4s-4-2-4-4 2-4 4-4 4 2 4 4zm10-12c0 3-1 4-4 4s-4-1-4-4 2-4 4-4 4 2 4 4zm-8-8c0 2-1 4-4 4s-4-2-4-4 2-4 4-4 4 1 4 4zm-30 2c0 2-2 4-4 4s-4-2-4-4 2-4 4-4 4 2 4 4zm-30 10c0 3-2 4-4 4s-4-1-4-4 2-4 4-4 4 2 4 4zm-9 12c0 2-2 4-4 4s-4-2-4-4 1-4 4-4 4 1 4 4zm17 7c0 3-2 4-4 4s-4-1-4-4 2-4 4-4 4 2 4 4zm27-11c0 2-1 4-4 4s-4-2-4-4 2-4 4-4 4 1 4 4zm-21 48-2-10m0-7 8-8m-1-6-11-4m10 36 20-17m5-6 5-7m4-7 2-8m-4-4-15-1m22-2 5-6m-10-11-22 1m-3 5 3 9m-8-11-22 7m-6 5-5 4m12 9-11-4m38-3-21 7m23-5-5 11m-52 305-10-20m2-6 22-14m0 0-19-8m-1-6 12-6m1-6-17-19m23 21 23-8m0 0-13-18m1-6 21-9m1-4-18-8m-39 25 5-22m0 0-15 2m-4-5 2-18m5-4 15-1m7 2 18 16m-23 7 18 19m-43-43-8-6m-5-7-3-8m-5-3h-14m-3-4 6-13m-2-4-16 4m-4-4 14-49m4-7 23-15m6 1 14 11m5-1 6-18m3-1 24 30m-15 4-9-34m-11 27 1 31m-2 7-7 15m-29-3 23 5m-32-53 14 10m6-1 23-13m-23 19 23 16m-27-15-10 30m19-74v-18m4-4h9m4-4 4-11m4-4 14 6m4 6v12m127 222 5 5m7-2 4-7m0-7-6-15m10 14 8-12m-32 18-7-16m0-8 2-8m5-2 10 8m-14-14 18-19m-25-3 6 22m25-20 15 6m-19 27 23-23m-5 24 5-24m0-8 16-18m-8-5h4m-10-5-9-26m15 18-15-18m21 18 15-8m-1-6-8-14m12 4-12-4m20 6 5 1m6 5 12 29m5 1 16-25m6-1 9 13m6 6 2 17m5-14-7-3m12 2 3-14m3-7 12-12m1-7 1-18m3-2 5 4m4-1 4-15m-1-8-19-39m-4-7-21-25m-5-6-16-7m-3 1-5 30m1-32-15 5m-7 5-3 3m0 6 20 15m-27-18-5-1m-8 2-8 4m-7 3-18 5m-7-1-19-8m-6 0-23 21m-1 7 2 16m-22-11v3m2 9-1 3m10 12 10-9m-13 16v4m-4 5-8 2m0 4 2 2m27-6 4 2m6 1 6-2m6 1 3 6m6 4h5m4 5 2 2m-4 6-20 3m-7-1-12-9m-6-2-16 2m-6 5-10 15m13-15 4 18m4 6 25 10m7-24-4 22m26-15-22 16m-2 6 11 23m-15-22-7 19m-7 3-14-4m-9-2-11-10m-3-7 3-17m3-2 11 1m28-74 37-8m8-26-4 23m4 4 47 11m-51-7-3 41m61-32 26 27m5 1 25-26m6 0 20 24m-6-55-15 24m-11-55-20 19m-1 6 26 30m-32-30-24 29m0 65 25-25m4 1 7 29m-4-31 35 37m-65-8 30 6m8 0 26 5m-33-42 49-3m-118 19-19-57m1 57 16 4m116 137-2-15m3-7 6-6m6-5 12-6m2 1-5 12m-3 8-4 9m-9 11 4-4m0-7-9-8m16-5-16 5m17-7-5-4m-13-42 5-8m-119 42-4 15m-175 72 13-36m-28 8 2-19m1-8-2-30m31 42 16-24m4-7 8-30m-72-5 8 18m2-113 16-19m-68-18 26-40" class="domains0"/><path id="svg-concept" d="M474 360c0 3-2 4-4 4s-4-1-4-4 2-4 4-4 4 2 4 4zm-10 38c0 2-2 4-4 4s-4-2-4-4 2-4 4-4 4 2 4 4zm-37 74c0 2-2 4-4 4s-4-2-4-4 2-4 4-4 4 1 4 4zm-13-28c0 3-2 4-4 4s-4-1-4-4 2-4 4-4 4 2 4 4zm-14-89c0 2-2 4-4 4s-4-2-4-4 2-4 4-4 4 1 4 4zm-205 86c0 3-2 4-4 4s-4-1-4-4 2-4 4-4 4 2 4 4zm21-245c0 2-2 4-4 4s-4-2-4-4 1-4 4-4 4 2 4 4zM29 142c0 2-2 4-4 4s-4-2-4-4 2-4 4-4 4 2 4 4zm384 238c0 2-2 4-4 4s-4-2-4-4 2-4 4-4 4 2 4 4zm33-141c0 2-2 4-4 4s-4-2-4-4 2-4 4-4 4 2 4 4zm-58-55c0 2-2 4-4 4s-4-2-4-4 1-4 4-4 4 1 4 4zm43 59c0 2-2 4-4 4s-4-2-4-4 1-4 4-4c2 0 4 2 4 4zM255 80c0 2-2 4-4 4s-4-2-4-4 1-4 4-4c2 0 4 2 4 4zm127 225c0 2-2 4-4 4s-4-2-4-4 1-4 4-4 4 1 4 4zM61 391c0 2-2 4-4 4s-4-2-4-4 2-4 4-4 4 2 4 4zm299-86c0 3-1 4-4 4s-4-1-4-4 2-4 4-4 4 2 4 4zm142-142c0 3-1 4-4 4s-4-1-4-4 2-4 4-4 4 2 4 4zm-28 4c0 3-1 4-4 4s-4-1-4-4 2-4 4-4 4 2 4 4zm102 236c0 2-2 4-4 4s-4-2-4-4 2-4 4-4 4 2 4 4zm-35-134c0 2-2 4-4 4s-4-2-4-4 1-4 4-4 4 1 4 4zm-22 65c0 2-2 4-4 4s-4-2-4-4 2-4 4-4 4 2 4 4zm-7-79c0 2-2 4-4 4s-4-2-4-4 1-4 4-4 4 1 4 4h0zm9 5c0 2-2 4-4 4s-4-2-4-4 2-4 4-4 4 1 4 4zm6-10c0 3-2 4-4 4s-4-1-4-4 1-4 4-4 4 2 4 4zm1-12c0 2-2 4-4 4s-4-2-4-4 1-4 4-4c2 0 4 2 4 4zm-2 11h7m191 172c0 2-2 4-4 4s-4-2-4-4 2-4 4-4 4 1 4 4zm10-9c0 2-2 4-4 4s-4-2-4-4 2-4 4-4 4 2 4 4zm-14-14c0 2-2 4-4 4s-4-2-4-4 1-4 4-4 4 2 4 4zM563 252c0 2-2 4-4 4s-4-2-4-4 2-4 4-4 4 1 4 4zm95 76c0 3-1 4-4 4s-4-1-4-4 2-4 4-4c3 0 4 2 4 4zm-48-48c0 2-2 4-4 4s-4-2-4-4 2-4 4-4 4 2 4 4zm111 70c0 3-2 4-4 4s-4-1-4-4 1-4 4-4 4 2 4 4zm8-14c0 2-2 4-4 4s-4-2-4-4 2-4 4-4 4 1 4 4zM521 216c0 2-2 4-4 4s-4-2-4-4 2-4 4-4 4 1 4 4zm-3-12c0 3-2 4-4 4s-4-1-4-4 2-4 4-4 4 2 4 4zm206-6c0 2-2 4-4 4s-4-2-4-4 2-4 4-4 4 1 4 4zm139 91c0 2-2 4-4 4s-4-2-4-4 2-4 4-4 4 2 4 4zm91 224c0 2-2 4-4 4s-4-2-4-4 2-4 4-4 4 2 4 4z" class="domains4"/><path d="M959 445c-2 0-3-1-3-3s1-3 3-3 3 1 3 3-1 3-3 3zm44 148c-2 0-3-2-3-3s1-3 3-3 3 1 3 3-1 3-3 3zm25-58c-2 0-3-2-3-3s1-3 3-3 3 1 3 3-1 3-3 3zm40 49c-1 0-3-2-3-4 1-1 2-3 4-2 1 0 3 1 2 3 0 2-1 3-3 3h0zm-59-346c-2 0-3-2-3-3s1-3 3-3 3 1 3 3c0 1-1 3-3 3zm59-16-3-3 3-3c1 0 3 1 3 3 0 1-1 3-3 3zm-21 104c-2 0-3-1-3-3s1-3 3-3 3 1 3 3l-3 3zm18 148c-2 0-3-1-3-3s1-3 3-3 3 2 3 3l-3 3zm-18-63c-2 0-3-1-3-3s1-3 3-3 3 1 3 3-2 3-3 3z" class="domains0"/><path id="svg-concept" d="M991 377c0 2-2 4-4 4s-4-2-4-4 2-4 4-4 4 2 4 4zm23-293c0 3-2 4-4 4s-4-1-4-4 2-4 4-4 4 2 4 4zM671 191c0 2-2 4-4 4s-4-2-4-4 2-4 4-4 4 2 4 4zm328-32c0 2-2 4-4 4s-4-2-4-4 2-4 4-4 4 2 4 4zm-63-51c0 2-2 4-4 4s-4-2-4-4 2-4 4-4 4 2 4 4zm-329 60c0 3-2 4-4 4s-4-1-4-4 2-4 4-4c3 0 4 2 4 4zm55-27c0 2-2 4-4 4s-4-2-4-4 1-4 4-4 4 1 4 4z" class="domains4"/><path d="M519 539c-34 24-64 33-87 21-55-28-42-163 29-302S633 29 688 57c27 14 37 53 33 106m42 222c19 56 17 104-11 130-26 24-69 25-118 7" class="domains5"/><path d="M349 204c-10-44-4-81 19-102 54-51 184 1 290 115 51 56 88 116 105 168" class="domains5"/><path d="M775 305c41 27 63 54 58 76-13 46-145 51-295 11S275 282 287 236c4-17 28-34 61-32" class="domains5"/><circle id="svg-ico" cx="772.6" cy="476.1" r="6" class="domains6"/><path id="svg-ico" d="M480 234c0 3-2 6-6 6s-6-3-6-6 3-6 6-6c4 0 6 2 6 6z" class="domains6"/><circle id="svg-ico" cx="288.7" cy="257.1" r="6" class="domains6"/></svg>