<svg xmlns="http://www.w3.org/2000/svg" xml:space="preserve" id="Layer_1" x="0" y="0" version="1.1" viewBox="0 0 1100 436"><style>.eff0,.eff1{stroke-miterlimit:10}.eff0{fill:none;stroke:gray}.eff1{stroke-linecap:round}.eff1,.eff2,.eff4{fill:none;stroke:gray;stroke-linejoin:round}.eff2{stroke-miterlimit:10}.eff4{stroke-width:2;stroke-linecap:round}.eff4,.eff5,.eff6,.eff7{stroke-miterlimit:10}.eff5{fill:none;stroke-linecap:round;stroke-linejoin:round;stroke:#ee5586}.eff6,.eff7{stroke:gray}.eff6{stroke-width:2}.eff6,.eff7{fill:none}</style><path d="M227 285H113V82h115v203z" class="eff0"/><path d="m217 106-2 3h-90c-2 0-3-2-3-3V96c0-1 1-3 3-3h90c1 0 2 1 2 3v10zm-89-13v16m84-16v16" class="eff1"/><path d="M205 101c0 2-1 3-3 3s-3-1-3-3 1-3 3-3 3 1 3 3z" class="eff1"/><path d="m203 101-1 1-1-1 1-1 1 1zm2 0h-2m-2 0h-2m18 25c0 2-1 3-2 3h-90c-2 0-3-1-3-3v-10c0-1 1-2 3-2h90l2 2v10zm-89-12v15m84-15v15" class="eff1"/><path d="M205 121c0 2-1 4-3 4s-3-2-3-4c0-1 1-3 3-3s3 2 3 3z" class="eff1"/><path d="m203 121-1 2-1-2 1-1 1 1zm2 0h-2m-2 0h-2m18 26-2 3h-90c-2 0-3-1-3-3v-10c0-1 1-3 3-3h90c1 0 2 1 2 3v10zm-89-13v16m84-16v16" class="eff1"/><path d="M205 142c0 2-1 3-3 3s-3-1-3-3 1-3 3-3 3 1 3 3z" class="eff1"/><path d="m203 142-1 1-1-1 1-1 1 1zm2 0h-2m-2 0h-2m18 25c0 2-1 3-2 3h-90c-2 0-3-1-3-3v-9c0-2 1-3 3-3h90l2 2v10zm-89-12v15m84-15v15" class="eff1"/><path d="M205 162c0 2-1 4-3 4s-3-2-3-4c0-1 1-3 3-3s3 2 3 3z" class="eff1"/><path d="m203 162-1 2-1-2 1-1 1 1zm2 0h-2m-2 0h-2m18 26-2 3h-90c-2 0-3-1-3-3v-10c0-1 1-3 3-3h90c1 0 2 1 2 3v10zm-89-13v16m84-16v16" class="eff1"/><path d="M205 183c0 2-1 3-3 3s-3-1-3-3 1-3 3-3 3 1 3 3z" class="eff1"/><path d="m203 183-1 1-1-1 1-1 1 1zm2 0h-2m-2 0h-2m18 25c0 2-1 3-2 3h-90c-2 0-3-1-3-3v-9c0-2 1-3 3-3h90l2 2v10zm-89-12v15m84-15v15" class="eff1"/><path d="M205 204c0 1-1 3-3 3s-3-2-3-3 1-4 3-4 3 2 3 3z" class="eff1"/><path d="m203 204-1 1-1-2 1-1 1 2zm2 0h-2m-2 0h-2m18 25-2 3h-90c-2 0-3-1-3-3v-10c0-1 1-3 3-3h90c1 0 2 1 2 3v10zm-89-13v16m84-16v16" class="eff1"/><path d="M205 224c0 2-1 3-3 3s-3-1-3-3 1-3 3-3 3 1 3 3z" class="eff1"/><path d="m203 224-1 1-1-1 1-1 1 1zm2 0h-2m-2 0h-2m18 25c0 2-1 3-2 3h-90c-2 0-3-1-3-3v-9c0-2 1-3 3-3h90l2 2v10zm-89-12v15m84-15v15" class="eff1"/><path d="M205 245c0 1-1 3-3 3s-3-2-3-3c0-2 1-4 3-4s3 2 3 3z" class="eff1"/><path d="m203 245-1 1-1-2 1-1 1 2zm2 0h-2m-2 0h-2m18 25-2 3h-90c-2 0-3-2-3-3v-10c0-1 1-3 3-3h90c1 0 2 1 2 3v10zm-89-13v16m84-16v16" class="eff1"/><path d="M205 265c0 2-1 3-3 3s-3-1-3-3 1-3 3-3 3 1 3 3z" class="eff1"/><path d="m203 265-1 1-1-1 1-1 1 1zm2 0h-2m-2 0h-2" class="eff1"/><path d="M1032 354H757m301-32H863" class="eff2"/><path id="svg-concept" fill="none" stroke="#ee5586" stroke-linecap="round" stroke-linejoin="round" stroke-miterlimit="10" stroke-width="3" d="M662 425H427V10h235v415z"/><path d="M943 389H757m-464 0H141m188 0h-15m764-67h19m-48 32h20m16 0h7M56 354h273M30 322h197m-205 0H3m48 32H30" class="eff2"/><g><path id="svg-concept" d="M497 45h0l-1-1v0l1-1h0l1 1v0l-1 1zm-3 10h-1l-1-2v0l2-2h0l1 2v0l-1 2zm47-10h0l-1-1v0l1-1h0l1 1v0c1 1 0 1-1 1zm-3 10h0l-2-2v0l2-2h0l1 2v0c1 1 0 2-1 2zm47-10h0l-1-1v0l1-1h0l1 1v0c1 1 0 1-1 1zm-3 10h0l-2-2v0l2-2h0l2 2v0l-2 2zm35-7a7 7 0 1 1-7-7c4 0 7 3 7 7z" class="eff5"/><path id="svg-concept" d="M613 48c0 1-1 2-3 2s-2-1-2-2l2-3c1 0 3 1 3 3zm4 0h-4m-5 0h-5" class="eff5"/><path d="M642 58c0 3-3 5-6 5H452c-3 0-6-2-6-5V38c0-4 3-6 6-6h184c3 0 5 2 5 6v20z" class="eff4"/><path d="M457 32v31m174-31v32m-137-7h-29c-3 0-4-1-4-4v0c0-2 1-4 4-4h29c3 0 4 2 4 4v0c0 3-1 4-4 4zm-29-12h0l-1-1v0l1-1h0l1 1v0l-1 1zm5 0h0l-1-1v0l1-1h0l1 1v0l-1 1zm8 0h-1l-1-1v0l1-1h0l2 1v0l-2 1zm-13-5h0l-1-1v-1l1-1h0l1 1v0l-1 2zm5 0h0l-1-1v-1l1-1h0l1 1v0l-1 2zm27 0h0l-1-1v-1l1-1h0l1 1v0l-1 2zm-14 5h0l-2-1v0l2-1h0l1 1v0l-1 1zm5 0h0l-2-1v0l2-1h0l1 1v0l-1 1z" class="eff1"/><path d="M488 45h0l-2-1v0l2-1h0l1 1v0l-1 1zm0-5h-10l-1-1v-1l1-1h10l1 1v0l-1 2zm-14 9v8m13-2h0l-2-2v0l2-2h0l2 2v0l-2 2zm52 2h-30c-2 0-4-1-4-4v0c0-2 2-4 4-4h30c2 0 4 2 4 4v0c0 3-2 4-4 4zm-30-12h0l-1-1v0l1-1h0l1 1v0l-1 1zm5 0h0l-1-1v0l1-1h0l1 1v0c1 1 0 1-1 1zm8 0h0l-2-1v0l1-1h1l1 1v0l-1 1zm-13-5h0l-1-1v-1l1-1h0l1 1v0l-1 2zm5 0h0l-1-1v-1l1-1h0l1 1v0c1 1 0 2-1 2zm27 0h0l-1-1v-1l1-1h0l1 1v0l-1 2zm-14 5h0l-2-1v0l2-1h0l1 1v0l-1 1zm5 0h0l-1-1v0l1-1h0l1 1v0l-1 1z" class="eff1"/><path d="M532 45h0l-1-1v0l1-1h0l1 1v0l-1 1zm0-5h-10l-1-1v-1l1-1h10l1 1v0l-1 2zm-14 9v8m13-2h0l-2-2v0l2-2h0l2 2v0l-2 2zm52 2h-30c-2 0-4-1-4-4v0c0-2 2-4 4-4h30c2 0 4 2 4 4v0c0 3-2 4-4 4zm-30-12h0l-1-1v0l1-1h0l1 1v0c1 1 0 1-1 1zm5 0h0l-1-1v0l1-1h0l2 1v0l-2 1zm8 0h0l-2-1v0l2-1h0l1 1v0l-1 1zm-13-5h0l-1-1v-1l1-1h0l1 1v0c1 1 0 2-1 2zm5 0h0l-1-1v-1l1-1h0l2 1v0l-2 2zm27 0h0l-1-1v-1l1-1h0l1 1v0c1 1 0 2-1 2zm-14 5h0l-1-1v0l1-1h0l1 1v0l-1 1zm5 0h0l-1-1v0l1-1h0l1 1v0l-1 1z" class="eff1"/><path d="M576 45h0l-1-1v0l1-1h0l1 1v0l-1 1z" class="eff1"/><path id="svg-concept" d="m626 54-2 2-2-2 2-2 2 2z" class="eff5"/><path d="M625 48h-1l-1-1v0l1-2h0l2 2v0l-1 1zm0-6h-1l-1-1v0l1-1h0l2 1-1 1zm-49-2h-10l-1-1v-1l1-1h10l1 1v0l-1 2zm-14 9v8m13-2h0l-2-2v0l2-2h0l2 2v0l-2 2zm-73-23v32m-50-22v10m184-10v10m-90-20v32m44-32v32" class="eff1"/><animate fill="freeze" attributeName="opacity" begin="0s" dur="2s" values="0;1"/><animateMotion fill="freeze" begin="0s" dur="2s" path="M20, 0 0 0 0"/></g><g><path id="svg-concept" d="M497 87h0l-1-1v0l1-1h0l1 1v0l-1 1zm-3 10h-1l-1-2v0l2-2h0l1 2v0l-1 2zm47-10h0l-1-1v0l1-1h0l1 1v0c1 1 0 1-1 1zm-3 10h0l-2-2v0l2-2h0l1 2v0c1 1 0 2-1 2zm47-10h0l-1-1v0l1-1h0l1 1v0c1 1 0 1-1 1zm-3 10h0l-2-2v0l2-2h0l2 2v0l-2 2zm35-7a7 7 0 1 1-14 0 7 7 0 0 1 14 0z" class="eff5"/><path id="svg-concept" d="M613 90c0 1-1 2-3 2s-2-1-2-2l2-3c1 0 3 1 3 3zm4 0h-4m-5 0h-5" class="eff5"/><path d="M642 100c0 3-3 5-6 5H452c-3 1-6-2-6-5V80c0-4 3-6 6-6h184c3 0 5 2 5 6v20z" class="eff4"/><path d="M457 74v31m174-31v32m-137-6h-29c-3 0-4-2-4-4v-1c0-2 1-4 4-4h29c3 0 4 2 4 4v0c0 3-1 5-4 5zm-29-13h0l-1-1v0l1-1h0l1 1v0l-1 1zm5 0h0l-1-1v0l1-1h0l1 1v0l-1 1zm8 0h-1l-1-1v0l1-1h0l2 1v0l-2 1zm-13-5h0l-1-1v-1l1-1h0l1 1v1l-1 1zm5 0h0l-1-1v-1l1-1h0l1 1v1l-1 1zm27 0h0l-1-1v-1l1-1h0l1 1v1l-1 1zm-14 5h0l-2-1v0l2-1h0l1 1v0l-1 1zm5 0h0l-2-1v0l2-1h0l1 1v0l-1 1z" class="eff1"/><path d="M488 87h0l-2-1v0l2-1h0l1 1v0l-1 1zm0-5h-10l-1-1v-1l1-1h10l1 1v1l-1 1zm-14 9v8m13-2h0l-2-2v0l2-2h0l2 2v0l-2 2zm52 3h-30c-2 0-4-2-4-4v-1c0-2 2-4 4-4h30c2 0 4 2 4 4v0c0 3-2 5-4 5zm-30-13h0l-1-1v0l1-1h0l1 1v0l-1 1zm5 0h0l-1-1v0l1-1h0l1 1v0c1 1 0 1-1 1zm8 0h0l-2-1v0l1-1h1l1 1v0l-1 1zm-13-5h0l-1-1v-1l1-1h0l1 1v1l-1 1zm5 0h0l-1-1v-1l1-1h0l1 1v1l-1 1zm27 0h0l-1-1v-1l1-1h0l1 1v1l-1 1zm-14 5h0l-2-1v0l2-1h0l1 1v0l-1 1zm5 0h0l-1-1v0l1-1h0l1 1v0l-1 1z" class="eff1"/><path d="M532 87h0l-1-1v0l1-1h0l1 1v0l-1 1zm0-5h-10l-1-1v-1l1-1h10l1 1v1l-1 1zm-14 9v8m13-2h0l-2-2v0l2-2h0l2 2v0l-2 2zm52 3h-30c-2 0-4-2-4-4v-1c0-2 2-4 4-4h30c2 0 4 2 4 4v0c0 3-2 5-4 5zm-30-13h0l-1-1v0l1-1h0l1 1v0c1 1 0 1-1 1zm5 0h0l-1-1v0l1-1h0l2 1v0l-2 1zm8 0h0l-2-1v0l2-1h0l1 1v0l-1 1zm-13-5h0l-1-1v-1l1-1h0l1 1v1l-1 1zm5 0h0l-1-1v-1l1-1h0l2 1v1l-2 1zm27 0h0l-1-1v-1l1-1h0l1 1v1l-1 1zm-14 5h0l-1-1v0l1-1h0l1 1v0l-1 1zm5 0h0l-1-1v0l1-1h0l1 1v0l-1 1z" class="eff1"/><path d="M576 87h0l-1-1v0l1-1h0l1 1v0l-1 1z" class="eff1"/><path id="svg-concept" d="m626 96-2 2-2-2 2-2 2 2z" class="eff5"/><path d="M625 90h-1l-1-1v0l1-1h0l2 1v0l-1 1zm0-6h-1l-1-1v0l1-1h0l2 1v0l-1 1zm-49-2h-10l-1-1v-1l1-1h10l1 1v1l-1 1zm-14 9v8m13-2h0l-2-2v0l2-2h0l2 2v0l-2 2zm-73-23v32m-50-21v9m184-9v9m-90-20v32m44-32v32" class="eff1"/><animate attributeName="opacity" begin="0s" repeatCount="indefinite" values="0"/><animate fill="freeze" attributeName="opacity" begin="0.5s" dur="2s" values="0;1"/><animateMotion fill="freeze" begin="0.5s" dur="2s" path="M-20, 0 0 0 0"/></g><g><path id="svg-concept" d="M497 129h0l-1-1v0l1-1h0l1 1v0l-1 1zm-3 10h-1l-1-2v0l2-1h0l1 1v0l-1 2zm47-10h0l-1-1v0l1-1h0l1 1v0c1 1 0 1-1 1zm-3 10h0l-2-2v0l2-1h0l1 1v0c1 1 0 2-1 2zm47-10h0l-1-1v0l1-1h0l1 1v0c1 1 0 1-1 1zm-3 10h0l-2-2v0l2-1h0l2 1v0l-2 2zm35-7a7 7 0 1 1-7-7c4 0 7 3 7 7z" class="eff5"/><path id="svg-concept" d="M613 132c0 1-1 2-3 2s-2-1-2-2l2-3c2 0 3 1 3 3zm4 0h-4m-5 0h-5" class="eff5"/><path d="M642 142c0 3-3 6-6 6H452c-3 0-6-3-6-6v-20c0-3 3-6 6-6h184c3 0 5 3 5 6v20z" class="eff4"/><path d="M457 116v32m174-32v32m-137-6h-29c-3 0-4-2-4-4v-1c0-2 1-4 4-4h29c3 0 4 2 4 4v1c0 2-1 4-4 4zm-29-13h0l-1-1v0l1-1h0l1 1v0l-1 1zm5 0h0l-1-1v0l1-1h0l1 1v0l-1 1zm8 0h-1l-1-1v0l1-1h0l2 1v0l-2 1zm-13-5h0l-1-1v-1l1-1h0l1 1v1l-1 1zm5 0h0l-1-1v-1l1-1h0l1 1v1l-1 1zm27 0h0l-1-1v-1l1-1h0l1 1v1l-1 1zm-14 5h0l-2-1v0l2-1h0l1 1v0l-1 1zm5 0h0l-2-1v0l2-1h0l1 1v0l-1 1z" class="eff1"/><path d="M488 129h0l-2-1v0l2-1h0l1 1v0l-1 1zm0-5h-10l-1-1v-1l1-1h10l1 1v1l-1 1zm-14 9v9m13-3h0l-2-2v0l2-1h0l2 1v0l-2 2zm52 3h-30c-2 0-4-2-4-4v-1c0-2 2-4 4-4h30c2 0 4 2 4 4v1c0 2-2 4-4 4zm-30-13h0l-1-1v0l1-1h0l1 1v0l-1 1zm5 0h0l-1-1v0l1-1h0l1 1v0c1 1 0 1-1 1zm8 0h0l-2-1v0l1-1h1l1 1v0l-1 1zm-13-5h0l-1-1v-1l1-1h0l1 1v1l-1 1zm5 0h0l-1-1v-1l1-1h0l1 1v1l-1 1zm27 0h0l-1-1v-1l1-1h0l1 1v1l-1 1zm-14 5h0l-2-1v0l2-1h0l1 1v0l-1 1zm5 0h0l-1-1v0l1-1h0l1 1v0l-1 1z" class="eff1"/><path d="M532 129h0l-1-1v0l1-1h0l1 1v0l-1 1zm0-5h-10l-1-1v-1l1-1h10l1 1v1l-1 1zm-14 9v9m13-3h0l-2-2v0l2-1h0l2 1v0l-2 2zm52 3h-30c-2 0-4-2-4-4v-1c0-2 2-4 4-4h30c2 0 4 2 4 4v1c0 2-2 4-4 4zm-30-13h0l-1-1v0l1-1h0l1 1v0c1 1 0 1-1 1zm5 0h0l-1-1v0l1-1h0l2 1v0l-2 1zm8 0h0l-2-1v0l2-1h0l1 1v0l-1 1zm-13-5h0l-1-1v-1l1-1h0l1 1v1l-1 1zm5 0h0l-1-1v-1l1-1h0l2 1v1l-2 1zm27 0h0l-1-1v-1l1-1h0l1 1v1l-1 1zm-14 5h0l-1-1v0l1-1h0l1 1v0l-1 1zm5 0h0l-1-1v0l1-1h0l1 1v0l-1 1z" class="eff1"/><path id="svg-concept" d="m626 138-2 2-2-2 2-2 2 2z" class="eff5"/><path d="M625 132h-1l-1-1v0l1-1h0l2 1v0l-1 1zm0-6h-1l-1-1v0l1-1h0l2 1v0l-1 1zm-49-2h-10l-1-1v-1l1-1h10l1 1v1l-1 1zm-14 9v9m13-3h0l-2-2v0l2-1h0l2 1v0l-2 2zm-73-23v32m-50-21v9m184-9v9m-90-20v32m44-32v32" class="eff1"/><animate attributeName="opacity" begin="0s" repeatCount="indefinite" values="0"/><animate fill="freeze" attributeName="opacity" begin="1s" dur="2s" values="0;1"/><animateMotion fill="freeze" begin="1s" dur="2s" path="M20, 0 0 0 0"/></g><g><path d="M642 184c0 3-3 6-6 6H452c-3 0-6-3-6-6v-20c0-3 3-6 6-6h184c3 0 5 3 5 6v20z" class="eff4"/><path d="M457 158v32m174-32v32m-137-6h-29c-3 0-4-2-4-4v-1c0-2 1-4 4-4h29c3 0 4 2 4 4v1c0 2-1 4-4 4zm-29-12h0l-1-2v0l1-1h0l1 1v0l-1 2zm5 0h0l-1-2v0l1-1h0l1 1v0l-1 2zm8 0h-1l-1-2v0l1-1h0l2 1v0l-2 2zm-13-6h0l-1-1v0l1-2h0l1 2v0l-1 1zm5 0h0l-1-1v0l1-2h0l1 2v0l-1 1zm27 0h0l-1-1v0l1-2h0l1 2v0l-1 1zm-14 6h0l-2-2v0l2-1h0l1 1v0l-1 2zm5 0h0l-2-2v0l2-1h0l1 1v0l-1 2z" class="eff1"/><path d="M488 172h0l-2-2v0l2-1h0l1 1v0l-1 2z" class="eff1"/><path id="svg-concept" d="M497 172h0l-1-2v0l1-1h0l1 1v0l-1 2z" class="eff5"/><path d="M488 166h-10l-1-1v0l1-2h10l1 2v0l-1 1zm-14 9v9m13-3h0l-2-2v0l2-1h0l2 1v1l-2 1z" class="eff1"/><path id="svg-concept" d="M494 181h-1l-1-2v0l2-1h0l1 1v1l-1 1z" class="eff5"/><path d="M539 184h-30c-2 0-4-2-4-4v-1c0-2 2-4 4-4h30c2 0 4 2 4 4v1c0 2-2 4-4 4zm-30-12h0l-1-2v0l1-1h0l1 1v0l-1 2zm5 0h0l-1-2v0l1-1h0l1 1v0c1 1 0 2-1 2zm8 0h0l-2-2v0l1-1h1l1 1v0l-1 2zm-13-6h0l-1-1v0l1-2h0l1 2v0l-1 1zm5 0h0l-1-1v0l1-2h0l1 2v0l-1 1zm27 0h0l-1-1v0l1-2h0l1 2v0l-1 1zm-14 6h0l-2-2v0l2-1h0l1 1v0l-1 2zm5 0h0l-1-2v0l1-1h0l1 1v0l-1 2z" class="eff1"/><path d="M532 172h0l-1-2v0l1-1h0l1 1v0l-1 2z" class="eff1"/><path id="svg-concept" d="M541 172h0l-1-2v0l1-1h0l1 1v0c1 1 0 2-1 2z" class="eff5"/><path d="M532 166h-10l-1-1v0l1-2h10l1 2v0l-1 1zm-14 9v9m13-3h0l-2-2v0l2-1h0l2 1v1l-2 1z" class="eff1"/><path id="svg-concept" d="M538 181h0l-2-2v0l2-1h0l1 1v1l-1 1z" class="eff5"/><path d="M583 184h-30c-2 0-4-2-4-4v-1c0-2 2-4 4-4h30c2 0 4 2 4 4v1c0 2-2 4-4 4zm-30-12h0l-1-2v0l1-1h0l1 1v0c1 1 0 2-1 2zm5 0h0l-1-2v0l1-1h0l2 1v0l-2 2zm8 0h0l-2-2v0l2-1h0l1 1v0l-1 2zm-13-6h0l-1-1v0l1-2h0l1 2v0l-1 1zm5 0h0l-1-1v0l1-2h0l2 2v0l-2 1zm27 0h0l-1-1v0l1-2h0l1 2v0l-1 1zm-14 6h0l-1-2v0l1-1h0l1 1v0l-1 2zm5 0h0l-1-2v0l1-1h0l1 1v0l-1 2z" class="eff1"/><path d="M576 172h0l-1-2v0l1-1h0l1 1v0l-1 2z" class="eff1"/><path id="svg-concept" d="M585 172h0l-1-2v0l1-1h0l1 1v0c1 1 0 2-1 2z" class="eff5"/><path d="m626 180-2 2-2-2 2-2 2 2z" class="eff1"/><path id="svg-concept" d="M625 174h-1l-1-1v0l1-1h0l2 1v0l-1 1zm0-5h-1l-1-2v0l1-1h0l2 1v0l-1 2z" class="eff5"/><path d="M576 166h-10l-1-1v0l1-2h10l1 2v0l-1 1zm-14 9v9m13-3h0l-2-2v0l2-1h0l2 1v1l-2 1z" class="eff1"/><path id="svg-concept" d="M582 181h0l-2-2v0l2-1h0l2 1v1l-2 1z" class="eff5"/><path d="M502 158v32m-50-21v9m184-9v9m-90-20v32m44-32v32" class="eff1"/><path id="svg-concept" d="M617 174a7 7 0 1 1-7-7c4 0 7 3 7 7z" class="eff5"/><path id="svg-concept" d="M613 174c0 1-1 2-3 2s-2-1-2-2l2-3c1 0 3 1 3 3zm4 0h-4m-5 0h-5" class="eff5"/><animate attributeName="opacity" begin="0s" repeatCount="indefinite" values="0"/><animate fill="freeze" attributeName="opacity" begin="1.5s" dur="2s" values="0;1"/><animateMotion fill="freeze" begin="1.5s" dur="2s" path="M-20, 0 0 0 0"/></g><path d="M652 224v8m0-32v20m2 2-2 2-2-2 2-2 2 2z" class="eff1"/><g><path d="M642 226c0 3-3 6-6 6H452c-3 0-6-3-6-6v-20c0-3 3-6 6-6h184c3 0 5 3 5 6v20z" class="eff4"/><path d="M457 200v32m174-32v32m-137-6h-29c-3 0-4-2-4-4v-1c0-2 1-4 4-4h29c3 0 4 2 4 4v1c0 2-1 4-4 4zm-29-12h0l-1-2v0l1-1h0l1 1v0l-1 2zm5 0h0l-1-2v0l1-1h0l1 1v0l-1 2zm8 0h-1l-1-2v0l1-1h0l2 1v0l-2 2zm-13-6h0l-1-1v0l1-1h0l1 1v0l-1 1zm5 0h0l-1-1v0l1-1h0l1 1v0l-1 1zm27 0h0l-1-1v0l1-1h0l1 1v0l-1 1zm-14 6h0l-2-2v0l2-1h0l1 1v0l-1 2zm5 0h0l-2-2v0l2-1h0l1 1v0l-1 2z" class="eff1"/><path d="M488 214h0l-2-2v0l2-1h0l1 1v0l-1 2z" class="eff1"/><path id="svg-concept" d="M497 214h0l-1-2v0l1-1h0l1 1v0l-1 2z" class="eff5"/><path d="M488 208h-10l-1-1v0l1-1h10l1 1v0l-1 1zm-14 9v9m13-3h0l-2-2v0l2-1h0l2 1v1l-2 1z" class="eff1"/><path id="svg-concept" d="M494 223h-1l-1-2v0l2-1h0l1 1v1l-1 1z" class="eff5"/><path d="M539 226h-30c-2 0-4-2-4-4v-1c0-2 2-4 4-4h30c2 0 4 2 4 4v1c0 2-2 4-4 4zm-30-12h0l-1-2v0l1-1h0l1 1v0l-1 2zm5 0h0l-1-2v0l1-1h0l1 1v0c1 1 0 2-1 2zm8 0h0l-2-2v0l1-1h1l1 1v0l-1 2zm-13-6h0l-1-1v0l1-1h0l1 1v0l-1 1zm5 0h0l-1-1v0l1-1h0l1 1v0l-1 1zm27 0h0l-1-1v0l1-1h0l1 1v0l-1 1zm-14 6h0l-2-2v0l2-1h0l1 1v0l-1 2zm5 0h0l-1-2v0l1-1h0l1 1v0l-1 2z" class="eff1"/><path d="M532 214h0l-1-2v0l1-1h0l1 1v0l-1 2z" class="eff1"/><path id="svg-concept" d="M541 214h0l-1-2v0l1-1h0l1 1v0c1 1 0 2-1 2z" class="eff5"/><path d="M532 208h-10l-1-1v0l1-1h10l1 1v0l-1 1zm-14 9v9m13-3h0l-2-2v0l2-1h0l2 1v1l-2 1z" class="eff1"/><path id="svg-concept" d="M538 223h0l-2-2v0l2-1h0l1 1v1c1 1 0 1-1 1z" class="eff5"/><path d="M583 226h-30c-2 0-4-2-4-4v-1c0-2 2-4 4-4h30c2 0 4 2 4 4v1c0 2-2 4-4 4zm-30-12h0l-1-2v0l1-1h0l1 1v0c1 1 0 2-1 2zm5 0h0l-1-2v0l1-1h0l2 1v0l-2 2zm8 0h0l-2-2v0l2-1h0l1 1v0l-1 2zm-13-6h0l-1-1v0l1-1h0l1 1v0l-1 1zm5 0h0l-1-1v0l1-1h0l2 1v0l-2 1zm27 0h0l-1-1v0l1-1h0l1 1v0l-1 1zm-14 6h0l-1-2v0l1-1h0l1 1v0l-1 2zm5 0h0l-1-2v0l1-1h0l1 1v0l-1 2z" class="eff1"/><path d="M576 214h0l-1-2v0l1-1h0l1 1v0l-1 2z" class="eff1"/><path id="svg-concept" d="M585 214h0l-1-2v0l1-1h0l1 1v0c1 1 0 2-1 2z" class="eff5"/><path d="m626 222-2 2-2-2 2-2 2 2z" class="eff1"/><path id="svg-concept" d="M625 216h-1l-1-1v0l1-1h0l2 1v0l-1 1zm0-5h-1l-1-2v0l1-1h0l2 1v0l-1 2z" class="eff5"/><path d="M576 208h-10l-1-1v0l1-1h10l1 1v0l-1 1zm-14 9v9m13-3h0l-2-2v0l2-1h0l2 1v1l-2 1z" class="eff1"/><path id="svg-concept" d="M582 223h0l-2-2v0l2-1h0l2 1v1l-2 1z" class="eff5"/><path d="M502 200v32m-50-21v9m184-9v9m-90-20v32m44-32v32" class="eff1"/><path id="svg-concept" d="M617 216a7 7 0 1 1-14 0 7 7 0 0 1 14 0z" class="eff5"/><path id="svg-concept" d="M613 216c0 1-1 2-3 2s-2-1-2-2l2-3 3 3zm4 0h-4m-5 0h-5" class="eff5"/><animate attributeName="opacity" begin="0s" repeatCount="indefinite" values="0"/><animate fill="freeze" attributeName="opacity" begin="2s" dur="2s" values="0;1"/><animateMotion fill="freeze" begin="2s" dur="2s" path="M20, 0 0 0 0"/></g><g><path d="M642 268c0 3-3 6-6 6H452c-3 0-6-3-6-6v-20c0-3 3-6 6-6h184c3 0 5 3 5 6v20z" class="eff4"/><path d="M457 242v32m174-32v32m-137-6h-29c-3 0-4-2-4-4v-1c0-2 1-4 4-4h29c3 0 4 2 4 4v1c0 2-1 4-4 4zm-29-12h0l-1-2v0l1-1h0l1 1v0l-1 2zm5 0h0l-1-2v0l1-1h0l1 1v0l-1 2zm8 0h-1l-1-2v0l1-1h0l2 1v0l-2 2zm-13-6h0l-1-1v0l1-1h0l1 1v0l-1 1zm5 0h0l-1-1v0l1-1h0l1 1v0l-1 1zm27 0h0l-1-1v0l1-1h0l1 1v0l-1 1zm-14 6h0l-2-2v0l2-1h0l1 1v0l-1 2zm5 0h0l-2-2v0l2-1h0l1 1v0l-1 2z" class="eff1"/><path d="M488 256h0l-2-2v0l2-1h0l1 1v0l-1 2z" class="eff1"/><path id="svg-concept" d="M497 256h0l-1-2v0l1-1h0l1 1v0l-1 2z" class="eff5"/><path d="M488 250h-10l-1-1v0l1-1h10l1 1v0l-1 1zm-14 9v9m13-3h0l-2-1v-1l2-1h0l2 1v1l-2 1z" class="eff1"/><path id="svg-concept" d="M494 265h-1l-1-1v-1l2-1h0l1 1v1l-1 1z" class="eff5"/><path d="M539 268h-30c-2 0-4-2-4-4v-1c0-2 2-4 4-4h30c2 0 4 2 4 4v1c0 2-2 4-4 4zm-30-12h0l-1-2v0l1-1h0l1 1v0l-1 2zm5 0h0l-1-2v0l1-1h0l1 1v0c1 1 0 2-1 2zm8 0h0l-2-2v0l1-1h1l1 1v0l-1 2zm-13-6h0l-1-1v0l1-1h0l1 1v0l-1 1zm5 0h0l-1-1v0l1-1h0l1 1v0c1 1 0 1-1 1zm27 0h0l-1-1v0l1-1h0l1 1v0l-1 1zm-14 6h0l-2-2v0l2-1h0l1 1v0l-1 2zm5 0h0l-1-2v0l1-1h0l1 1v0l-1 2z" class="eff1"/><path d="M532 256h0l-1-2v0l1-1h0l1 1v0l-1 2z" class="eff1"/><path id="svg-concept" d="M541 256h0l-1-2v0l1-1h0l1 1v0c1 1 0 2-1 2z" class="eff5"/><path d="M532 250h-10l-1-1v0l1-1h10l1 1v0l-1 1zm-14 9v9m13-3h0l-2-1v-1l2-1h0l2 1v1l-2 1z" class="eff1"/><path id="svg-concept" d="M538 265h0l-2-1v-1l2-1h0l1 1v1c1 1 0 1-1 1z" class="eff5"/><path d="M583 268h-30c-2 0-4-2-4-4v-1c0-2 2-4 4-4h30c2 0 4 2 4 4v1c0 2-2 4-4 4zm-30-12h0l-1-2v0l1-1h0l1 1v0c1 1 0 2-1 2zm5 0h0l-1-2v0l1-1h0l2 1v0l-2 2zm8 0h0l-2-2v0l2-1h0l1 1v0l-1 2zm-13-6h0l-1-1v0l1-1h0l1 1v0c1 1 0 1-1 1zm5 0h0l-1-1v0l1-1h0l2 1v0l-2 1zm27 0h0l-1-1v0l1-1h0l1 1v0c1 1 0 1-1 1zm-14 6h0l-1-2v0l1-1h0l1 1v0l-1 2zm5 0h0l-1-2v0l1-1h0l1 1v0l-1 2z" class="eff1"/><path d="M576 256h0l-1-2v0l1-1h0l1 1v0l-1 2z" class="eff1"/><path id="svg-concept" d="M585 256h0l-1-2v0l1-1h0l1 1v0c1 1 0 2-1 2z" class="eff5"/><path d="m626 264-2 2-2-2 2-2 2 2z" class="eff1"/><path id="svg-concept" d="M625 258h-1l-1-1v0l1-1h0l2 1v0l-1 1zm0-5h-1l-1-2v0l1-1h0l2 1v0l-1 2z" class="eff5"/><path d="M576 250h-10l-1-1v0l1-1h10l1 1v0l-1 1zm-14 9v9m13-3h0l-2-1v-1l2-1h0l2 1v1l-2 1z" class="eff1"/><path id="svg-concept" d="M582 265h0l-2-1v-1l2-1h0l2 1v1l-2 1z" class="eff5"/><path d="M502 242v32m-50-21v9m184-9v9m-90-20v32m44-32v32" class="eff1"/><path id="svg-concept" d="M617 258a7 7 0 1 1-7-7c4 0 7 3 7 7z" class="eff5"/><path id="svg-concept" d="M613 258c0 1-1 2-3 2s-2-1-2-2l2-3 3 3zm4 0h-4m-5 0h-5" class="eff5"/><animate attributeName="opacity" begin="0s" repeatCount="indefinite" values="0"/><animate fill="freeze" attributeName="opacity" begin="2.5s" dur="2s" values="0;1"/><animateMotion fill="freeze" begin="2.5s" dur="2s" path="M-20, 0 0 0 0"/></g><g><path d="M642 310c0 3-3 5-6 5H452c-3 0-6-2-6-5v-21c0-3 3-5 6-5h184c3 0 5 2 5 6v20z" class="eff4"/><path d="M457 284v31m174-31v32m-137-7h-29c-3 0-4-1-4-4v0c0-2 1-4 4-4h29c3 0 4 2 4 4v0c0 3-1 4-4 4zm-29-12h0l-1-1v0l1-1h0l1 1v0l-1 1zm5 0h0l-1-1v0l1-1h0l1 1v0l-1 1zm8 0h-1l-1-1v0l1-1h0l2 1v0l-2 1zm-13-5h0l-1-2v0l1-1h0l1 1v0l-1 2zm5 0h0l-1-2v0l1-1h0l1 1v0l-1 2zm27 0h0l-1-2v0l1-1h0l1 1v0l-1 2zm-14 5h0l-2-1v0l2-1h0l1 1v0l-1 1zm5 0h0l-2-1v0l2-1h0l1 1v0l-1 1z" class="eff1"/><path d="M488 297h0l-2-1v0l2-1h0l1 1v0l-1 1z" class="eff1"/><path id="svg-concept" d="M497 298h0l-1-2v0l1-1h0l1 1v0l-1 2z" class="eff5"/><path d="M488 292h-10l-1-2v0l1-1h10l1 1v0l-1 2zm-14 9v8m13-2h0l-2-2v0l2-2h0l2 2v0l-2 2z" class="eff1"/><path id="svg-concept" d="M494 307h-1l-1-1v-1l2-1h0l1 2v0l-1 1z" class="eff5"/><path d="M539 309h-30c-2 0-4-1-4-4v0c0-2 2-4 4-4h30c2 0 4 2 4 4v0c0 3-2 4-4 4zm-30-12h0l-1-1v0l1-1h0l1 1v0l-1 1zm5 0h0l-1-1v0l1-1h0l1 1v0c1 1 0 1-1 1zm8 0h0l-2-1v0l1-1h1l1 1v0l-1 1zm-13-5h0l-1-2v0l1-1h0l1 1v0l-1 2zm5 0h0l-1-2v0l1-1h0l1 1v0c1 1 0 2-1 2zm27 0h0l-1-2v0l1-1h0l1 1v0l-1 2zm-14 5h0l-2-1v0l2-1h0l1 1v0l-1 1zm5 0h0l-1-1v0l1-1h0l1 1v0l-1 1z" class="eff1"/><path d="M532 297h0l-1-1v0l1-1h0l1 1v0l-1 1z" class="eff1"/><path id="svg-concept" d="M541 298h0l-1-2v0l1-1h0l1 1v0c1 1 0 2-1 2z" class="eff5"/><path d="M532 292h-10l-1-2v0l1-1h10l1 1v0l-1 2zm-14 9v8m13-2h0l-2-2v0l2-2h0l2 2v0l-2 2z" class="eff1"/><path id="svg-concept" d="M538 307h0l-2-1v-1l2-1h0l1 2v0c1 1 0 1-1 1z" class="eff5"/><path d="M583 309h-30c-2 0-4-1-4-4v0c0-2 2-4 4-4h30c2 0 4 2 4 4v0c0 3-2 4-4 4zm-30-12h0l-1-1v0l1-1h0l1 1v0c1 1 0 1-1 1zm5 0h0l-1-1v0l1-1h0l2 1v0l-2 1zm8 0h0l-2-1v0l2-1h0l1 1v0l-1 1zm-13-5h0l-1-2v0l1-1h0l1 1v0c1 1 0 2-1 2zm5 0h0l-1-2v0l1-1h0l2 1v0l-2 2zm27 0h0l-1-2v0l1-1h0l1 1v0c1 1 0 2-1 2zm-14 5h0l-1-1v0l1-1h0l1 1v0l-1 1zm5 0h0l-1-1v0l1-1h0l1 1v0l-1 1z" class="eff1"/><path d="M576 297h0l-1-1v0l1-1h0l1 1v0l-1 1z" class="eff1"/><path id="svg-concept" d="M585 298h0l-1-2v0l1-1h0l1 1v0c1 1 0 2-1 2z" class="eff5"/><path d="m626 306-2 2-2-2 2-2 2 2z" class="eff1"/><path id="svg-concept" d="M625 300h-1l-1-1v0l1-1h0l2 1v0l-1 1zm0-5h-1l-1-2v0l1-1h0l2 1v0l-1 2z" class="eff5"/><path d="M576 292h-10l-1-2v0l1-1h10l1 1v0l-1 2zm-14 9v8m13-2h0l-2-2v0l2-2h0l2 2v0l-2 2z" class="eff1"/><path id="svg-concept" d="M582 307h0l-2-1v-1l2-1h0l2 2v0l-2 1z" class="eff5"/><path d="M502 284v31m-50-21v10m184-10v10m-90-20v31m44-31v31" class="eff1"/><path id="svg-concept" d="M617 300a7 7 0 1 1-14 0 7 7 0 0 1 14 0z" class="eff5"/><path id="svg-concept" d="M613 300c0 1-1 3-3 3s-2-2-2-3l2-2 3 2zm4 0h-4m-5 0h-5" class="eff5"/><animate attributeName="opacity" begin="0s" repeatCount="indefinite" values="0"/><animate fill="freeze" attributeName="opacity" begin="3s" dur="2s" values="0;1"/><animateMotion fill="freeze" begin="3s" dur="2s" path="M20, 0 0 0 0"/></g><g><path d="M642 352c0 3-3 6-6 6H452c-3 0-6-3-6-6v-20c0-4 3-6 6-6h184c3 0 5 3 5 6v20z" class="eff4"/><path d="M457 326v31m174-31v31m-137-5h-29c-3 0-4-2-4-4v-1c0-2 1-4 4-4h29c3 0 4 2 4 4v1c0 2-1 4-4 4zm-29-13h0l-1-1v0l1-1h0l1 1v0l-1 1zm5 0h0l-1-1v0l1-1h0l1 1v0l-1 1zm8 0h-1l-1-1v0l1-1h0l2 1v0l-2 1zm-13-5h0l-1-1v0l1-2h0l1 2v0l-1 1zm5 0h0l-1-1v0l1-2h0l1 2v0l-1 1zm27 0h0l-1-1v0l1-2h0l1 2v0l-1 1zm-14 5h0l-2-1v0l2-1h0l1 1v0l-1 1zm5 0h0l-2-1v0l2-1h0l1 1v0l-1 1z" class="eff1"/><path d="M488 339h0l-2-1v0l2-1h0l1 1v0l-1 1z" class="eff1"/><path id="svg-concept" d="M497 340h0l-1-1v0l1-2h0l1 2v0l-1 1z" class="eff5"/><path d="M488 334h-10l-1-1v0l1-2h10l1 2v0l-1 1zm-14 9v9m13-3h0l-2-2v0l2-2h0l2 2v0l-2 2z" class="eff1"/><path id="svg-concept" d="M494 349h-1l-1-1v-1l2-1h0l1 2v0l-1 1z" class="eff5"/><path d="M539 352h-30c-2 0-4-2-4-4v-1c0-2 2-4 4-4h30c2 0 4 2 4 4v1c0 2-2 4-4 4zm-30-13h0l-1-1v0l1-1h0l1 1v0l-1 1zm5 0h0l-1-1v0l1-1h0l1 1v0c1 1 0 1-1 1zm8 0h0l-2-1v0l1-1h1l1 1v0l-1 1zm-13-5h0l-1-1v0l1-2h0l1 2v0l-1 1zm5 0h0l-1-1v0l1-2h0l1 2v0l-1 1zm27 0h0l-1-1v0l1-2h0l1 2v0l-1 1zm-14 5h0l-2-1v0l2-1h0l1 1v0l-1 1zm5 0h0l-1-1v0l1-1h0l1 1v0l-1 1z" class="eff1"/><path d="M532 339h0l-1-1v0l1-1h0l1 1v0l-1 1z" class="eff1"/><path id="svg-concept" d="M541 340h0l-1-1v0l1-2h0l1 2v0l-1 1z" class="eff5"/><path d="M532 334h-10l-1-1v0l1-2h10l1 2v0l-1 1zm-14 9v9m13-3h0l-2-2v0l2-2h0l2 2v0l-2 2z" class="eff1"/><path id="svg-concept" d="M538 349h0l-2-1v-1l2-1h0l1 2v0c1 1 0 1-1 1z" class="eff5"/><path d="M583 352h-30c-2 0-4-2-4-4v-1c0-2 2-4 4-4h30c2 0 4 2 4 4v1c0 2-2 4-4 4zm-30-13h0l-1-1v0l1-1h0l1 1v0c1 1 0 1-1 1zm5 0h0l-1-1v0l1-1h0l2 1v0l-2 1zm8 0h0l-2-1v0l2-1h0l1 1v0l-1 1zm-13-5h0l-1-1v0l1-2h0l1 2v0l-1 1zm5 0h0l-1-1v0l1-2h0l2 2v0l-2 1zm27 0h0l-1-1v0l1-2h0l1 2v0l-1 1zm-14 5h0l-1-1v0l1-1h0l1 1v0l-1 1zm5 0h0l-1-1v0l1-1h0l1 1v0l-1 1z" class="eff1"/><path d="M576 339h0l-1-1v0l1-1h0l1 1v0l-1 1z" class="eff1"/><path id="svg-concept" d="M585 340h0l-1-1v0l1-2h0l1 2v0l-1 1z" class="eff5"/><path d="m626 348-2 2-2-2 2-2 2 2z" class="eff1"/><path id="svg-concept" d="M625 342h-1l-1-1v0l1-1h0l2 1v0l-1 1zm0-5h-1l-1-2v0l1-1h0l2 1v0l-1 2z" class="eff5"/><path d="M576 334h-10l-1-1v0l1-2h10l1 2v0l-1 1zm-14 9v9m13-3h0l-2-2v0l2-2h0l2 2v0l-2 2z" class="eff1"/><path id="svg-concept" d="M582 349h0l-2-1v-1l2-1h0l2 2v0l-2 1z" class="eff5"/><path d="M502 326v31m-50-20v9m184-9v9m-90-20v31m44-31v31" class="eff1"/><path id="svg-concept" d="M617 342a7 7 0 1 1-14 0 7 7 0 0 1 14 0z" class="eff5"/><path id="svg-concept" d="M613 342c0 2-1 3-3 3s-2-1-2-3 1-2 2-2l3 2zm4 0h-4m-5 0h-5" class="eff5"/><animate attributeName="opacity" begin="0s" repeatCount="indefinite" values="0"/><animate fill="freeze" attributeName="opacity" begin="3.5s" dur="2s" values="0;1"/><animateMotion fill="freeze" begin="3.5s" dur="2s" path="M-20, 0 0 0 0"/></g><g><path d="M642 394c0 3-3 6-6 6H452c-3 0-6-3-6-6v-20c0-4 3-6 6-6h184c3 0 5 3 5 6v20z" class="eff4"/><path d="M457 368v31m174-31v32m-137-6h-29c-3 0-4-2-4-4v-1c0-2 1-4 4-4h29c3 0 4 2 4 4v1c0 2-1 4-4 4zm-29-13h0l-1-1v0l1-1h0l1 1v0l-1 1zm5 0h0l-1-1v0l1-1h0l1 1v0l-1 1zm8 0h-1l-1-1v0l1-1h0l2 1v0l-2 1zm-13-5h0l-1-1v0l1-2h0l1 2v0l-1 1zm5 0h0l-1-1v0l1-2h0l1 2v0l-1 1zm27 0h0l-1-1v0l1-2h0l1 2v0l-1 1zm-14 5h0l-2-1v0l2-1h0l1 1v0l-1 1zm5 0h0l-2-1v0l2-1h0l1 1v0l-1 1z" class="eff1"/><path d="M488 381h0l-2-1v0l2-1h0l1 1v0l-1 1z" class="eff1"/><path id="svg-concept" d="M497 382h0l-1-1v0l1-2h0l1 2v0l-1 1z" class="eff5"/><path d="M488 376h-10l-1-1v0l1-2h10l1 2v0l-1 1zm-14 9v9m13-3h0l-2-2v0l2-1h0l2 1v0l-2 2z" class="eff1"/><path id="svg-concept" d="M494 392h-1l-1-2v0l2-2h0l1 2v0l-1 2z" class="eff5"/><path d="M539 394h-30c-2 0-4-2-4-4v-1c0-2 2-4 4-4h30c2 0 4 2 4 4v1c0 2-2 4-4 4zm-30-13h0l-1-1v0l1-1h0l1 1v0l-1 1zm5 0h0l-1-1v0l1-1h0l1 1v0c1 1 0 1-1 1zm8 0h0l-2-1v0l1-1h1l1 1v0l-1 1zm-13-5h0l-1-1v0l1-2h0l1 2v0l-1 1zm5 0h0l-1-1v0l1-2h0l1 2v0l-1 1zm27 0h0l-1-1v0l1-2h0l1 2v0l-1 1zm-14 5h0l-2-1v0l2-1h0l1 1v0l-1 1zm5 0h0l-1-1v0l1-1h0l1 1v0l-1 1z" class="eff1"/><path d="M532 381h0l-1-1v0l1-1h0l1 1v0l-1 1z" class="eff1"/><path id="svg-concept" d="M541 382h0l-1-1v0l1-2h0l1 2v0l-1 1z" class="eff5"/><path d="M532 376h-10l-1-1v0l1-2h10l1 2v0l-1 1zm-14 9v9m13-3h0l-2-2v0l2-1h0l2 1v0l-2 2z" class="eff1"/><path id="svg-concept" d="M538 392h0l-2-2v0l2-2h0l1 2v0c1 1 0 2-1 2z" class="eff5"/><path d="M583 394h-30c-2 0-4-2-4-4v-1c0-2 2-4 4-4h30c2 0 4 2 4 4v1c0 2-2 4-4 4zm-30-13h0l-1-1v0l1-1h0l1 1v0c1 1 0 1-1 1zm5 0h0l-1-1v0l1-1h0l2 1v0l-2 1zm8 0h0l-2-1v0l2-1h0l1 1v0l-1 1zm-13-5h0l-1-1v0l1-2h0l1 2v0l-1 1zm5 0h0l-1-1v0l1-2h0l2 2v0l-2 1zm27 0h0l-1-1v0l1-2h0l1 2v0l-1 1zm-14 5h0l-1-1v0l1-1h0l1 1v0l-1 1zm5 0h0l-1-1v0l1-1h0l1 1v0l-1 1z" class="eff1"/><path d="M576 381h0l-1-1v0l1-1h0l1 1v0l-1 1z" class="eff1"/><path id="svg-concept" d="M585 382h0l-1-1v0l1-2h0l1 2v0l-1 1z" class="eff5"/><path d="m626 390-2 2-2-2 2-2 2 2z" class="eff1"/><path id="svg-concept" d="M625 385h-1l-1-2v0l1-1h0l2 1v0l-1 2zm0-6h-1l-1-1v0l1-2h0l2 2v0l-1 1z" class="eff5"/><path d="M576 376h-10l-1-1v0l1-2h10l1 2v0l-1 1zm-14 9v9m13-3h0l-2-2v0l2-1h0l2 1v0l-2 2z" class="eff1"/><path id="svg-concept" d="M582 392h0l-2-2v0l2-2h0l2 2v0l-2 2z" class="eff5"/><path d="M502 368v32m-50-21v9m184-9v9m-90-20v32m44-32v32" class="eff1"/><path id="svg-concept" d="M617 384a7 7 0 1 1-7-7c4 0 7 3 7 7z" class="eff5"/><path id="svg-concept" d="M613 384c0 2-1 3-3 3s-2-1-2-3 1-2 2-2l3 2zm4 0h-4m-5 0h-5" class="eff5"/><animate attributeName="opacity" begin="0s" repeatCount="indefinite" values="0"/><animate fill="freeze" attributeName="opacity" begin="4s" dur="2s" values="0;1"/><animateMotion fill="freeze" begin="4s" dur="2s" path="M20, 0 0 0 0"/></g><path d="M837 322H686V54h151v268z" class="eff6"/><path d="M824 85c0 2-1 4-3 4H702c-2 0-4-2-4-4V72c0-2 2-4 4-4h119c2 0 3 2 3 4v13z" class="eff4"/><path d="M705 68v21m112-21v21" class="eff1"/><path id="svg-concept" d="M808 79c0 2-2 4-4 4-3 0-5-2-5-4s2-5 5-5c2 0 4 2 4 5z" class="eff5"/><path id="svg-concept" d="m806 79-2 1-2-1 2-2 1 2zm2 0h-2m-4 0h-2" class="eff5"/><path d="M824 112c0 2-1 4-3 4H702c-2 0-4-2-4-4V99c0-2 2-3 4-3h119c2 0 3 1 3 3v13z" class="eff4"/><path d="M705 96v20m112-20v20" class="eff1"/><path id="svg-concept" d="M808 106c0 2-2 4-4 4-3 0-5-2-5-4 0-3 2-5 5-5 2 0 4 2 4 5z" class="eff5"/><path id="svg-concept" d="m806 106-2 1-2-1 2-2 1 2zm2 0h-2m-4 0h-2" class="eff5"/><path d="M824 139c0 2-1 4-3 4H702c-2 0-4-2-4-4v-13c0-2 2-3 4-3h119c2 0 3 1 3 3v13z" class="eff4"/><path d="M705 123v20m112-20v20" class="eff1"/><path id="svg-concept" d="M808 133c0 2-2 4-4 4-3 0-5-2-5-4s2-5 5-5c2 0 4 2 4 5z" class="eff5"/><path id="svg-concept" d="m806 133-2 1-2-1 2-2 1 2zm2 0h-2m-4 0h-2" class="eff5"/><path d="M824 166c0 2-1 4-3 4H702c-2 0-4-2-4-4v-13c0-2 2-3 4-3h119c2 0 3 1 3 3v13z" class="eff4"/><path d="M705 150v20m112-20v20" class="eff1"/><path id="svg-concept" d="M808 160c0 2-2 4-4 4-3 0-5-2-5-4s2-4 5-4c2 0 4 1 4 4z" class="eff5"/><path id="svg-concept" d="m806 160-2 2-2-2 2-2 1 2zm2 0h-2m-4 0h-2" class="eff5"/><path d="M824 194c0 2-1 3-3 3H702c-2 0-4-1-4-4v-12c0-2 2-4 4-4h119c2 0 3 1 3 4v13z" class="eff4"/><path d="M705 177v20m112-20v20" class="eff1"/><path id="svg-concept" d="M808 187c0 2-2 4-4 4-3 0-5-2-5-4s2-4 5-4c2 0 4 2 4 4z" class="eff5"/><path id="svg-concept" d="m806 187-2 2-2-2 2-2 1 2zm2 0h-2m-4 0h-2" class="eff5"/><path d="M824 221c0 2-1 3-3 3H702c-2 0-4-1-4-4v-12c0-2 2-4 4-4h119c2 0 3 1 3 4v13z" class="eff4"/><path d="M705 204v20m112-20v20" class="eff1"/><path id="svg-concept" d="M808 214c0 2-2 4-4 4-3 0-5-2-5-4s2-4 5-4c2 0 4 2 4 4z" class="eff5"/><path id="svg-concept" d="m806 214-2 2-2-2 2-2 1 2zm2 0h-2m-4 0h-2" class="eff5"/><path d="M824 248c0 2-1 3-3 3H702c-2 0-4-1-4-3v-13c0-2 2-4 4-4h119c2 0 3 2 3 4v13z" class="eff4"/><path d="M705 231v20m112-20v20" class="eff1"/><path id="svg-concept" d="M808 241c0 2-2 4-4 4-3 1-5-1-5-4s2-4 5-4c2 0 4 2 4 4z" class="eff5"/><path id="svg-concept" d="m806 241-2 2-2-2 2-2 1 2zm2 0h-2m-4 0h-2" class="eff5"/><path d="M824 275c0 2-1 3-3 3H702c-2 0-4-1-4-3v-13c0-2 2-4 4-4h119c2 0 3 2 3 4v13z" class="eff4"/><path d="M705 258v20m112-20v20" class="eff1"/><path id="svg-concept" d="M808 268c0 3-2 5-4 5-3 0-5-2-5-5 0-2 2-4 5-4 2 0 4 2 4 4z" class="eff5"/><path id="svg-concept" d="m806 268-2 2-2-2 2-1 1 1zm2 0h-2m-4 0h-2" class="eff5"/><path d="M824 302c0 2-1 4-3 4H702c-2 0-4-2-4-4v-13c0-2 2-4 4-4h119c2 0 3 2 3 4v13z" class="eff4"/><path d="M705 285v20m112-20v21" class="eff1"/><path id="svg-concept" d="M808 295c0 3-2 5-4 5-3 0-5-2-5-5s2-4 5-4c2 0 4 2 4 4z" class="eff5"/><path id="svg-concept" d="m806 295-2 2-2-2 2-1 1 1zm2 0h-2m-4 0h-2" class="eff5"/><path d="M402 322H251V54h151v268z" class="eff6"/><path d="M389 85c0 2-2 4-4 4H268c-2 0-4-2-4-4V72c0-2 2-4 4-4h119c1 0 3 2 3 4v13z" class="eff4"/><path d="M270 68v21m112-21v21" class="eff1"/><path id="svg-concept" d="M373 79c0 2-2 4-4 4-3 0-5-2-5-4s2-5 5-5c2 0 4 2 4 5z" class="eff5"/><path id="svg-concept" d="m370 79-1 1-2-1 2-2 1 2zm3 0h-3m-3 0h-3" class="eff5"/><path d="M389 112c0 2-2 4-4 4H268c-2 0-4-2-4-4V99c0-2 2-3 4-3h119c1 0 3 1 3 3v13z" class="eff4"/><path d="M270 96v20m112-20v20" class="eff1"/><path id="svg-concept" d="M373 106c0 2-2 4-4 4-3 0-5-2-5-4 0-3 2-5 5-5 2 0 4 2 4 5z" class="eff5"/><path id="svg-concept" d="m370 106-1 1-2-1 2-2 1 2zm3 0h-3m-3 0h-3" class="eff5"/><path d="M389 139c0 2-2 4-4 4H268c-2 0-4-2-4-4v-13c0-2 2-3 4-3h119c1 0 3 1 3 3v13z" class="eff4"/><path d="M270 123v20m112-20v20" class="eff1"/><path id="svg-concept" d="M373 133c0 2-2 4-4 4-3 0-5-2-5-4s2-5 5-5c2 0 4 2 4 5z" class="eff5"/><path id="svg-concept" d="m370 133-1 1-2-1 2-2 1 2zm3 0h-3m-3 0h-3" class="eff5"/><path d="M389 166c0 2-2 4-4 4H268c-2 0-4-2-4-4v-13c0-2 2-3 4-3h119c1 0 3 1 3 3v13z" class="eff4"/><path d="M270 150v20m112-20v20" class="eff1"/><path id="svg-concept" d="M373 160c0 2-2 4-4 4-3 0-5-2-5-4s2-4 5-4c2 0 4 1 4 4z" class="eff5"/><path id="svg-concept" d="m370 160-1 2-2-2 2-2 1 2zm3 0h-3m-3 0h-3" class="eff5"/><path d="M389 194c0 2-2 3-4 3H268c-2 0-4-1-4-4v-12c0-2 2-4 4-4h119c1 0 3 1 3 4v13z" class="eff4"/><path d="M270 177v20m112-20v20" class="eff1"/><path id="svg-concept" d="M373 187c0 2-2 4-4 4-3 0-5-2-5-4s2-4 5-4c2 0 4 2 4 4z" class="eff5"/><path id="svg-concept" d="m370 187-1 2-2-2 2-2 1 2zm3 0h-3m-3 0h-3" class="eff5"/><path d="M389 221c0 2-2 3-4 3H268c-2 0-4-1-4-4v-12c0-2 2-4 4-4h119c1 0 3 1 3 4v13z" class="eff4"/><path d="M270 204v20m112-20v20" class="eff1"/><path id="svg-concept" d="M373 214c0 2-2 4-4 4-3 0-5-2-5-4s2-4 5-4c2 0 4 2 4 4z" class="eff5"/><path id="svg-concept" d="m370 214-1 2-2-2 2-2 1 2zm3 0h-3m-3 0h-3" class="eff5"/><path d="M389 248c0 2-2 3-4 3H268c-2 0-4-1-4-3v-13c0-2 2-4 4-4h119c1 0 3 2 3 4v13z" class="eff4"/><path d="M270 231v20m112-20v20" class="eff1"/><path id="svg-concept" d="M373 241c0 2-2 4-4 4-3 1-5-1-5-4s2-4 5-4c2 0 4 2 4 4z" class="eff5"/><path id="svg-concept" d="m370 241-1 2-2-2 2-2 1 2zm3 0h-3m-3 0h-3" class="eff5"/><path d="M389 275c0 2-2 3-4 3H268c-2 0-4-1-4-3v-13c0-2 2-4 4-4h119c1 0 3 2 3 4v13z" class="eff4"/><path d="M270 258v20m112-20v20" class="eff1"/><path id="svg-concept" d="M373 268c0 3-2 5-4 5-3 0-5-2-5-5 0-2 2-4 5-4 2 0 4 2 4 4z" class="eff5"/><path id="svg-concept" d="m370 268-1 2-2-2 2-1 1 1zm3 0h-3m-3 0h-3" class="eff5"/><path d="M389 302c0 2-2 4-4 4H268c-2 0-4-2-4-4v-13c0-2 2-4 4-4h119c1 0 3 2 3 4v13z" class="eff4"/><path d="M270 285v20m112-20v21" class="eff1"/><path id="svg-concept" d="M373 295c0 3-2 5-4 5-3 0-5-2-5-5s2-4 5-4c2 0 4 2 4 4z" class="eff5"/><path id="svg-concept" d="m370 295-1 2-2-2 2-1 1 1zm3 0h-3m-3 0h-3" class="eff5"/><path d="M978 285H863V82h115v203z" class="eff0"/><path d="m968 106-3 3h-90c-2 0-3-2-3-3V96c0-1 1-3 3-3h90c1 0 3 1 3 3v10zm-90-13v16m84-16v16" class="eff1"/><path d="M956 101c0 2-2 3-4 3s-3-1-3-3 1-3 3-3 4 1 4 3z" class="eff7"/><path d="m953 101-1 1-1-1 1-1 1 1zm3 0h-3m-2 0h-2" class="eff7"/><path d="M968 126c0 2-2 3-3 3h-90c-2 0-3-1-3-3v-10c0-1 1-2 3-2h90l3 2v10zm-90-12v15m84-15v15" class="eff1"/><path d="M956 121c0 2-2 4-4 4s-3-2-3-4c0-1 1-3 3-3s4 2 4 3z" class="eff7"/><path d="m953 121-1 2-1-2 1-1 1 1zm3 0h-3m-2 0h-2" class="eff7"/><path d="m968 147-3 3h-90c-2 0-3-1-3-3v-10c0-1 1-3 3-3h90c1 0 3 1 3 3v10zm-90-13v16m84-16v16" class="eff1"/><path d="M956 142c0 2-2 3-4 3s-3-1-3-3 1-3 3-3 4 1 4 3z" class="eff7"/><path d="m953 142-1 1-1-1 1-1 1 1zm3 0h-3m-2 0h-2" class="eff7"/><path d="M968 167c0 2-2 3-3 3h-90c-2 0-3-1-3-3v-9c0-2 1-3 3-3h90l3 2v10zm-90-12v15m84-15v15" class="eff1"/><path d="M956 162c0 2-2 4-4 4s-3-2-3-4c0-1 1-3 3-3s4 2 4 3z" class="eff7"/><path d="m953 162-1 2-1-2 1-1 1 1zm3 0h-3m-2 0h-2" class="eff7"/><path d="m968 188-3 3h-90c-2 0-3-1-3-3v-10c0-1 1-3 3-3h90c1 0 3 1 3 3v10zm-90-13v16m84-16v16" class="eff1"/><path d="M956 183c0 2-2 3-4 3s-3-1-3-3 1-3 3-3 4 1 4 3z" class="eff7"/><path d="m953 183-1 1-1-1 1-1 1 1zm3 0h-3m-2 0h-2" class="eff7"/><path d="M968 208c0 2-2 3-3 3h-90c-2 0-3-1-3-3v-9c0-2 1-3 3-3h90l3 2v10zm-90-12v15m84-15v15" class="eff1"/><path d="M956 204c0 1-2 3-4 3s-3-2-3-3 1-4 3-4 4 2 4 3z" class="eff7"/><path d="m953 204-1 1-1-2 1-1 1 2zm3 0h-3m-2 0h-2" class="eff7"/><path d="m968 229-3 3h-90c-2 0-3-1-3-3v-10c0-1 1-3 3-3h90c1 0 3 1 3 3v10zm-90-13v16m84-16v16" class="eff1"/><path d="M956 224c0 2-2 3-4 3s-3-1-3-3 1-3 3-3 4 1 4 3z" class="eff7"/><path d="m953 224-1 1-1-1 1-1 1 1zm3 0h-3m-2 0h-2" class="eff7"/><path d="M968 249c0 2-2 3-3 3h-90c-2 0-3-1-3-3v-9c0-2 1-3 3-3h90l3 2v10zm-90-12v15m84-15v15" class="eff1"/><path d="M956 245c0 1-2 3-4 3s-3-2-3-3c0-2 1-4 3-4s4 2 4 3z" class="eff7"/><path d="m953 245-1 1-1-2 1-1 1 2zm3 0h-3m-2 0h-2" class="eff7"/><path d="m968 270-3 3h-90c-2 0-3-2-3-3v-10c0-1 1-3 3-3h90c1 0 3 1 3 3v10zm-90-13v16m84-16v16" class="eff1"/><path d="M956 265c0 2-2 3-4 3s-3-1-3-3 1-3 3-3 4 1 4 3z" class="eff7"/><path d="m953 265-1 1-1-1 1-1 1 1zm3 0h-3m-2 0h-2" class="eff7"/></svg>