<svg xmlns="http://www.w3.org/2000/svg" xml:space="preserve" id="Layer_1" x="0" y="0" style="enable-background:new 0 0 524.8 419.6" version="1.1" viewBox="0 0 525 420"><style>.emailcalendar0,.emailcalendar1{stroke-linecap:round;stroke-linejoin:round;stroke-miterlimit:10}.emailcalendar0{fill:none;stroke:#ee5586;stroke-width:3}.emailcalendar1{fill:#fff;stroke:gray}.emailcalendar2{stroke:gray}.emailcalendar2,.emailcalendar3{stroke-linecap:round;stroke-linejoin:round;stroke-miterlimit:10}.emailcalendar2,.emailcalendar3{fill:none}.emailcalendar3{stroke:#ee5586;stroke-width:2}.emailcalendar4{fill:#ee5586}</style><path id="svg-concept" d="M411 290v109c0 8-6 14-13 14H17c-7 0-13-6-13-14V19c0-8 6-14 13-14h380c8 0 14 6 14 14v56" class="emailcalendar0"/><path d="M4 276h286M3 209h287M3 343h407M4 140h286m-150 1v272m135-272v272M91 222l-41 41m180 25-41 41" class="emailcalendar1"/><g><path d="M483 78h21v210H316V78h136m-8 133h-70m45 28h-45m91-55h-91" class="emailcalendar2"/><path id="svg-concept" d="M466 156h-92m46-27h-46m78-51v47l15-13 16 13V78s2-9-10-9h-17s-14-1-14 9m-84 51a6 6 0 1 1-6-6c3 0 6 2 6 6zm0 27a6 6 0 1 1-12 0c0-3 3-6 6-6s6 3 6 6z" class="emailcalendar3"/><path d="M358 183a6 6 0 1 1-12 0c0-3 3-5 6-5s6 2 6 5zm0 28a6 6 0 1 1-12 0c0-4 3-6 6-6s6 3 6 6zm0 27a6 6 0 1 1-12 0c0-3 3-6 6-6s6 3 6 6z" class="emailcalendar2"/><animateMotion fill="remove" accumulate="none" additive="replace" begin="0s" calcMode="paced" dur="3s" path="M0, 0 -15 0 0 0" repeatCount="indefinite" restart="always"/></g><g><circle id="svg-ico" cx="250.9" cy="163.6" r="6" class="emailcalendar4"/><animate fill="remove" accumulate="none" additive="replace" attributeName="opacity" calcMode="linear" dur="1s" repeatCount="indefinite" restart="always" values="0;1;0"/></g><g><circle id="svg-ico" cx="115.7" cy="299.9" r="6" class="emailcalendar4"/><animate fill="remove" accumulate="none" additive="replace" attributeName="opacity" calcMode="linear" dur="2s" repeatCount="indefinite" restart="always" values="0;1;0"/></g><g><circle id="svg-ico" cx="386.8" cy="366.9" r="6" class="emailcalendar4"/><animate fill="remove" accumulate="none" additive="replace" attributeName="opacity" calcMode="linear" dur="0.5s" repeatCount="indefinite" restart="always" values="0;1;0"/></g></svg>