<svg version="1.1" id="Layer_1" xmlns="http://www.w3.org/2000/svg" x="0" y="0" viewBox="0 0 1105.7 406" style="enable-background:new 0 0 1105.7 406" xml:space="preserve"><style>.emailsecurity0{fill:none;stroke:gray;stroke-linecap:round;stroke-linejoin:round;stroke-miterlimit:10}.emailsecurity1{fill:#fff}.emailsecurity2,.emailsecurity3{fill:none;stroke:#ee5586;stroke-width:3;stroke-linecap:round;stroke-linejoin:round}.emailsecurity3{stroke-dasharray:12.0166,12.0166}</style><path class="emailsecurity0" d="M.1 265.1h1105.5"/><path class="emailsecurity1" d="M.1 274.3h1105.5"/><g><path id="svg-concept" class="emailsecurity2" d="M.1 274.3h6"/><path id="svg-concept" class="emailsecurity3" d="M18.1 274.3h1075.5"/><path id="svg-concept" class="emailsecurity2" d="M1099.6 274.3h6"/><animateMotion accumulate="none" additive="replace" begin="0s" calcMode="paced" dur="3s" fill="remove" path="M0, 0 20 0 0 0" repeatCount="indefinite" restart="always"/></g><path class="emailsecurity0" d="M.1 324.3h1105.5"/><g><path class="emailsecurity1" d="M.1 314h1105.5"/><path id="svg-concept" class="emailsecurity2" d="M.1 314h6"/><path id="svg-concept" class="emailsecurity3" d="M18.1 314h1075.5"/><path id="svg-concept" class="emailsecurity2" d="M1099.6 314h6"/><animateMotion accumulate="none" additive="replace" begin="0s" calcMode="paced" dur="3s" fill="remove" path="M0, 0 -20 0 0 0" repeatCount="indefinite" restart="always"/></g><g><path class="emailsecurity0" d="M40.6 211.2v-79.9c0-4.6 3.7-8.3 8.4-8.3h158.9c4.6 0 8.3 3.8 8.3 8.3v79.9"/><path class="emailsecurity0" d="m207.9 122.9-79.5 58.6L49 122.9m54.3 41.8-36.1 46.5m86.3-46.5 36.1 46.5M245.3 255.7H15.8a3 3 0 0 1-3-3l-5-38.5a3 3 0 0 1 3-3h239.5a3 3 0 0 1 3 3l-5 38.5a3 3 0 0 1-3 3zM462.9 211.2v-79.9h.1c0-4.6 3.7-8.3 8.4-8.3h158.9c4.6 0 8.3 3.8 8.3 8.3v79.9"/><path class="emailsecurity0" d="m630.2 122.9-79.5 58.6-79.4-58.6m54.4 41.8-36.2 46.5m86.3-46.5 36.2 46.5M667.6 255.7H438.1a3 3 0 0 1-3-3l-5-38.5a3 3 0 0 1 3-3h239.5a3 3 0 0 1 3 3l-5 38.5a3 3 0 0 1-3 3zM885.2 211.2v-79.9h.1c0-4.6 3.7-8.3 8.4-8.3h158.9c4.6 0 8.3 3.8 8.3 8.3v79.9"/><path class="emailsecurity0" d="m1052.5 122.9-79.4 58.6-79.5-58.6m54.4 41.8-36.1 46.5m86.3-46.5 36.1 46.5M1089.9 255.7H860.4a3 3 0 0 1-3-3l-5-38.5a3 3 0 0 1 3-3h239.5a3 3 0 0 1 3 3l-5 38.5a3 3 0 0 1-3 3z"/><animateMotion accumulate="none" additive="replace" begin="0s" calcMode="paced" dur="5s" fill="freeze" path="M0, 0 1440 0" restart="always"/><animateMotion accumulate="none" additive="replace" begin="6s" calcMode="paced" dur="6s" fill="remove" path="M-1000, 0 1440 0" repeatCount="indefinite" restart="always"/></g><path class="emailsecurity0" d="M756.4 394.2H349.3a20 20 0 0 1-19.9-19.9V29a20 20 0 0 1 19.9-19.9h407.1A20 20 0 0 1 776.3 29v345.3a20 20 0 0 1-19.9 19.9h0z"/><g><path id="svg-concept" d="M401.1 83.3h303.5" style="fill:#fff;stroke-width:3;stroke-linecap:round;stroke-linejoin:round;stroke-miterlimit:10"/><animateMotion accumulate="none" additive="replace" begin="0s" calcMode="paced" dur="4s" fill="remove" path="M0, 150 0 0 0 150" repeatCount="indefinite" restart="always"/></g></svg>