<svg version="1.1" id="Layer_1" xmlns="http://www.w3.org/2000/svg" x="0" y="0" viewBox="0 0 437.8 437.6" style="enable-background:new 0 0 437.8 437.6" xml:space="preserve"><style>.emailsync2,.emailsync4{fill:none;stroke:gray;stroke-linecap:round;stroke-linejoin:round;stroke-miterlimit:10}.emailsync4{stroke:#ee5586;stroke-width:2}</style><circle cx="218.4" cy="217.8" r="215.1" style="fill:none"/><g><path id="svg-concept" d="M219.1 3.4a214.7 214.7 0 1 0 207 270.3" style="fill:none;stroke-width:3;stroke-linecap:round;stroke-linejoin:round;stroke-miterlimit:10"/><animateTransform accumulate="none" additive="replace" attributeName="transform" calcMode="linear" dur="5s" fill="remove" from="0 218 220" repeatCount="indefinite" restart="always" to="-360 220 218" type="rotate"/></g><path class="emailsync2" d="M157.5 296.7H67.7c-14.3 0-14.5-6.9-14.5-6.9v-5.7c0-1 .8-1.9 1.8-1.9h31.2m221.5-73.8v-73.3c0-4.2-3.3-7.6-7.4-7.6H93.6a7.5 7.5 0 0 0-7.4 7.6v147.1h71.3m0 7.6H53.2"/><path id="svg-ico" d="M117.9 151.9c0 1.5-1.1 2.6-2.6 2.6s-2.4-1.1-2.4-2.6 1.1-2.4 2.4-2.4a2.4 2.4 0 0 1 2.6 2.4z"/><path class="emailsync2" d="M124.4 151.9c0 .9-.7 1.6-1.6 1.6s-1.5-.7-1.5-1.6c0-.9.7-1.5 1.5-1.5.9 0 1.6.7 1.6 1.5zm7.3 0c0 .9-.7 1.6-1.6 1.6-.9 0-1.5-.7-1.5-1.6 0-.9.7-1.5 1.5-1.5.9 0 1.6.7 1.6 1.5zm-35.6 7.3h200.5M213 328.7l132.6-.7c5.5 0 9.9-4.4 9.9-9.9v-99.3c0-5.5-4.4-9.9-9.9-9.9H189.8a9.9 9.9 0 0 0-9.9 9.9v35.5"/><path id="svg-concept" class="emailsync4" d="M206.9 253.5v-31.6h135.4V315H213.7"/><path d="M208.1 254.3h-45.7a5 5 0 0 0-4.9 4.9v84.9a5 5 0 0 0 4.9 4.9h45.7a5 5 0 0 0 4.9-4.9v-84.9a5 5 0 0 0-4.9-4.9h0z" style="fill-rule:evenodd;clip-rule:evenodd;fill:none;stroke:gray;stroke-linecap:round;stroke-linejoin:round;stroke-miterlimit:10"/><path id="svg-concept" d="M165.1 264.1h40.2v68.6h-40.2v-68.6z" style="fill-rule:evenodd;clip-rule:evenodd;fill:none;stroke-width:2;stroke-linecap:round;stroke-linejoin:round;stroke-miterlimit:10"/><path class="emailsync2" d="m178.3 274.1-2.9 3m14.8-3-16.3 16.3"/><g><path class="emailsync2" d="M218.7 411.1a192.8 192.8 0 0 0 49.8-379.3A193 193 0 0 0 32.3 168.3"/><animateTransform accumulate="none" additive="replace" attributeName="transform" calcMode="linear" dur="5s" fill="remove" from="0 218 220" repeatCount="indefinite" restart="always" to="360 220 218" type="rotate"/></g><path id="svg-concept" class="emailsync4" d="M156.1 273.2H95.7l.4-129.6h200.5v64"/></svg>