<svg xmlns="http://www.w3.org/2000/svg" xml:space="preserve" id="Layer_1" x="0" y="0" version="1.1" viewBox="0 0 1470 615"><style>.st0{opacity:.5;fill:none;stroke:gray;stroke-linecap:round;stroke-linejoin:round;stroke-miterlimit:10;stroke-opacity:.3}</style><path d="M28 49c0 3-2 5-4 5s-4-2-4-5 1-4 4-4 4 2 4 4zm47 0c0 3-1 5-4 5s-4-2-4-5 2-4 4-4 4 2 4 4zm48 0c0 3-2 5-4 5s-5-2-5-5 2-4 5-4 4 2 4 4zm47 0c0 3-2 5-4 5s-4-2-4-5 2-4 4-4 4 2 4 4zm48 0c0 3-2 5-5 5s-4-2-4-5 2-4 4-4 5 2 5 4zm47 0c0 3-2 5-4 5s-4-2-4-5 1-4 4-4 4 2 4 4zm48 0c0 3-2 5-5 5s-4-2-4-5 2-4 4-4 4 2 4 4zM75 49l67-35M67 49 47 39m76 10 67-35m-76 35L95 39m67 10-20-10M28 49l67-35M0 39l48-25M0 39l20 10m245 0 67-35m-75 35-20-10m76 10 66-35m-75 35-20-10m67 10-19-10M218 49l66-35M171 49l67-35m-47 25 19 10m95-45c0-2 2-4 4-4s4 2 4 4-1 5-4 5c-2 0-4-2-4-5zm-47 0c0-2 2-4 4-4s4 2 4 4-2 5-4 5c-3 0-4-2-4-5zm-48 0c0-2 2-4 4-4s5 2 5 4-2 5-5 5-4-2-4-5zm-47 0c0-2 1-4 4-4s4 2 4 4-2 5-4 5-4-2-4-5zm-48 0c0-2 2-4 5-4s4 2 4 4-2 5-4 5-5-2-5-5zM67 4c0-2 2-4 4-4s4 2 4 4-2 5-4 5-4-2-4-5zM20 4c0-2 1-4 4-4s4 2 4 4-2 5-4 5c-3 0-4-2-4-5zm237 0-20 10m28-10 19 10M210 4l-19 10m28-10 19 10M170 4l20 10M304 4l-20 10m67-10-19 10m0 0L312 4M68 4 48 14M75 4l20 10M20 4 0 14M28 4l20 10m66-10L95 14m67-10-20 10m0 0L123 4m284 45c0 3-2 5-4 5s-4-2-4-5 2-4 4-4 4 2 4 4zm-47 0c0 3-2 5-4 5s-5-2-5-5 2-4 5-4 4 2 4 4zm95 0c0 3-2 5-4 5s-5-2-5-5 2-4 4-4 5 2 5 4zm47 0c0 3-2 5-4 5s-4-2-4-5 2-4 4-4 4 2 4 4zm48 0c0 3-2 5-5 5s-4-2-4-5 2-4 4-4 5 2 5 4zm47 0c0 3-2 5-4 5s-4-2-4-5 1-4 4-4 4 2 4 4zm47 0c0 3-2 5-4 5s-4-2-4-5 2-4 4-4 4 2 4 4zm48 0c0 3-2 5-4 5s-5-2-5-5 2-4 5-4c2 0 4 2 4 4zm-237 0 67-35m-76 35-19-10m75 10 67-35m-75 35-20-10m67 10-19-10M407 49l67-35M360 49l67-35m-48 25 20 10m245 0 67-35m-75 35-20-10m67 10-19-10m67 10-20-10M597 49l67-35M550 49l66-35m-47 25 20 10m94-45c0-2 2-4 5-4s4 2 4 4-2 5-4 5-5-2-5-5zm-47 0c0-2 2-4 4-4s4 2 4 4-2 5-4 5-4-2-4-5zm-47 0c0-2 1-4 4-4s4 2 4 4-2 5-4 5-5-2-5-5zm-48 0c0-2 2-4 4-4s5 2 5 4-2 5-5 5-4-2-4-5zm-47 0c0-2 2-4 4-4s4 2 4 4-2 5-4 5-4-2-4-5zm-48 0c0-2 2-4 4-4s5 2 5 4-2 5-4 5-5-2-5-5zm-47 0c0-2 2-4 4-4s4 2 4 4-2 5-4 5-4-2-4-5zm-48 0c0-2 2-4 5-4s4 2 4 4-2 5-4 5-5-2-5-5zm285 0-20 10m28-10 20 10M589 4l-20 10m28-10 19 10M550 4l19 10M683 4l-19 10m47 0L692 4M446 4l-19 10m28-10 19 10M399 4l-20 10m28-10 20 10M360 4l19 10M494 4l-20 10m67-10-19 10m0 0L502 4m237 45c0 3-2 5-4 5s-4-2-4-5 1-4 4-4 4 2 4 4zm48 0c0 3-2 5-5 5s-4-2-4-5 2-4 4-4c3 0 5 2 5 4zm47 0c0 3-2 5-4 5s-5-2-5-5 2-4 5-4 4 2 4 4zm47 0c0 3-2 5-4 5s-4-2-4-5 2-4 4-4c3 0 4 2 4 4zm48 0c0 3-2 5-5 5s-4-2-4-5 2-4 4-4 5 2 5 4zm47 0c0 3-2 5-4 5s-4-2-4-5 2-4 4-4 4 2 4 4zm48 0c0 3-2 5-5 5s-4-2-4-5 2-4 4-4 5 2 5 4zm47 0c0 3-2 5-4 5s-5-2-5-5 2-4 5-4 4 2 4 4zm-284 0 66-35m-75 35-20-10m76 10 67-35m-76 35-19-10m67 10-20-10M739 49l67-35M692 49l67-35m217 35 67-35m-75 35-20-10m76 10 66-35m-75 35-19-10m66 10-17-11M929 50l67-35M881 49l67-35m-47 25 19 10m95-45c0-2 2-4 4-4s5 2 5 4-2 5-5 5-4-2-4-5zm47 0c0-2 2-4 5-4s4 2 4 4-2 5-4 5-5-2-5-5zm-94 0c0-2 2-4 4-4s4 2 4 4-2 5-4 5-4-2-4-5zm-48 0c0-2 2-4 4-4s5 2 5 4-2 5-5 5-4-2-4-5zm-47 0c0-2 2-4 4-4s4 2 4 4-2 5-4 5-4-2-4-5zm-48 0c0-2 2-4 5-4s4 2 4 4-2 5-4 5-5-2-5-5zm-47 0c0-2 2-4 4-4s4 2 4 4-1 5-4 5-4-2-4-5zm-47 0c0-2 1-4 4-4s4 2 4 4-2 5-4 5-5-2-5-5zm237 0-20 10m28-10 20 10M920 4l-19 10m28-10 19 10M881 4l20 10m114-10-19 10m66-10-19 10m0 0-19-10M778 4l-20 10m29-10 19 10M731 4l-20 10m28-10 20 10m66-10-19 10m67-10-20 10m0 0L834 4M28 126c0 3-2 5-4 5s-4-2-4-5 1-4 4-4 4 2 4 4zm47 0c0 3-1 5-4 5s-4-2-4-5 2-4 4-4 4 2 4 4zm48 0c0 3-2 5-4 5s-5-2-5-5 2-4 5-4 4 2 4 4zm47 0c0 3-2 5-4 5s-4-2-4-5 2-4 4-4 4 2 4 4zm48 0c0 3-2 5-5 5s-4-2-4-5 2-4 4-4 5 2 5 4zm47 0c0 3-2 5-4 5s-4-2-4-5 1-4 4-4 4 2 4 4zm48 0c0 3-2 5-5 5s-4-2-4-5 2-4 4-4 4 2 4 4zm-238 0 67-35m-75 35-20-10m76 10 67-35m-76 35-19-10m67 10-20-10M28 126l67-35M0 116l48-25M0 116l20 10m245 0 67-35m-75 35-20-10m76 10 66-35m-75 35-20-10m67 10-19-10m-114 10 66-35m-114 35 67-35m-47 25 19 10m95-45c0-2 2-4 4-4s4 2 4 4-1 5-4 5c-2-1-4-2-4-5zm-47 0c0-2 2-4 4-4s4 2 4 4-2 5-4 5c-3-1-4-2-4-5zm-48 0c0-2 2-4 4-4s5 2 5 4-2 5-5 5c-2-1-4-2-4-5zm-47 0c0-2 1-4 4-4s4 2 4 4-2 5-4 5c-2-1-4-2-4-5zm-48 0c0-2 2-4 5-4s4 2 4 4-2 5-4 5c-3-1-5-2-5-5zm-47 0c0-2 2-4 4-4s4 2 4 4-2 5-4 5c-2-1-4-2-4-5zm-47 0c0-2 1-4 4-4s4 2 4 4-2 5-4 5c-3-1-4-2-4-5zm237 0-20 10m28-10 19 10m-75-10-19 10m28-10 19 10m-67-10 20 10m114-10-20 10m67-10-19 10m0 0-20-10M68 81 48 91m27-10 20 10M20 81 0 91m28-10 20 10m66-10L95 91m67-10-20 10m0 0-19-10m284 45c0 3-2 5-4 5s-4-2-4-5 2-4 4-4 4 2 4 4zm-47 0c0 3-2 5-4 5s-5-2-5-5 2-4 5-4 4 2 4 4zm95 0c0 3-2 5-4 5s-5-2-5-5 2-4 4-4 5 2 5 4zm47 0c0 3-2 5-4 5s-4-2-4-5 2-4 4-4 4 2 4 4zm48 0c0 3-2 5-5 5s-4-2-4-5 2-4 4-4 5 2 5 4zm47 0c0 3-2 5-4 5s-4-2-4-5 1-4 4-4 4 2 4 4zm47 0c0 3-2 5-4 5s-4-2-4-5 2-4 4-4 4 2 4 4zm48 0c0 3-2 5-4 5s-5-2-5-5 2-4 5-4c2 0 4 2 4 4zm-237 0 67-35m-76 35-19-10m75 10 67-35m-75 35-20-10m67 10-19-10m-115 10 67-35m-114 35 67-35m-48 25 20 10m245 0 67-35m-75 35-20-10m67 10-19-10m67 10-20-10m-114 10 67-35m-114 35 66-35m-47 25 20 10m94-45c0-2 2-4 5-4s4 2 4 4-2 5-4 5c-3-1-5-2-5-5zm-47 0c0-2 2-4 4-4s4 2 4 4-2 5-4 5c-2-1-4-2-4-5zm-47 0c0-2 1-4 4-4s4 2 4 4-2 5-4 5c-3-1-5-2-5-5zm-48 0c0-2 2-4 4-4s5 2 5 4-2 5-5 5c-2-1-4-2-4-5zm-47 0c0-2 2-4 4-4s4 2 4 4-2 5-4 5c-2-1-4-2-4-5zm-48 0c0-2 2-4 4-4s5 2 5 4-2 5-4 5c-3-1-5-2-5-5zm-47 0c0-2 2-4 4-4s4 2 4 4-2 5-4 5c-2-1-4-2-4-5zm-48 0c0-2 2-4 5-4s4 2 4 4-2 5-4 5c-3-1-5-2-5-5zm285 0-20 10m28-10 20 10m-75-10-20 10m28-10 19 10m-66-10 19 10m114-10-19 10m47 0-19-10m-246 0-19 10m28-10 19 10m-75-10-20 10m28-10 20 10m-67-10 19 10m115-10-20 10m67-10-19 10m0 0-20-10m237 45c0 3-2 5-4 5s-4-2-4-5 1-4 4-4 4 2 4 4zm48 0c0 3-2 5-5 5s-4-2-4-5 2-4 4-4c3 0 5 2 5 4zm47 0c0 3-2 5-4 5s-5-2-5-5 2-4 5-4 4 2 4 4zm47 0c0 3-2 5-4 5s-4-2-4-5 2-4 4-4c3 0 4 2 4 4zm48 0c0 3-2 5-5 5s-4-2-4-5 2-4 4-4 5 2 5 4zm47 0c0 3-2 5-4 5s-4-2-4-5 2-4 4-4 4 2 4 4zm48 0c0 3-2 5-5 5s-4-2-4-5 2-4 4-4 5 2 5 4zm47 0c0 3-2 5-4 5s-5-2-5-5 2-4 5-4 4 2 4 4zm-284 0 66-35m-75 35-20-10m76 10 67-35m-76 35-19-10m67 10-20-10m-114 10 67-35m-114 35 67-35m217 35 71-35m-79 35-20-10m76 10 66-35m-75 35-19-9m66 9-19-10m-114 10 67-35m-115 35 67-35m-47 25 19 10m95-45c0-2 2-4 4-4s5 2 5 4-2 5-5 5c-2-1-4-2-4-5zm47 0c0-2 2-4 5-4s4 2 4 4-2 5-4 5c-3-1-5-2-5-5zm-94 0c0-2 2-4 4-4s4 2 4 4-2 5-4 5c-3-1-4-2-4-5zm-48 0c0-2 2-4 4-4s5 2 5 4-2 5-5 5c-2-1-4-2-4-5zm-47 0c0-2 2-4 4-4s4 2 4 4-2 5-4 5c-2-1-4-2-4-5zm-48 0c0-2 2-4 5-4s4 2 4 4-2 5-4 5c-3-1-5-2-5-5zm-47 0c0-2 2-4 4-4s4 2 4 4-1 5-4 5c-2-1-4-2-4-5zm-47 0c0-2 1-4 4-4s4 2 4 4-2 5-4 5c-3-1-5-2-5-5zm237 0-20 10m28-10 20 10m-76-10-19 10m28-10 19 10m-67-10 20 10m114-10-19 10m67-8-16 8m-2 1-21-11m-246 0-20 10m29-10 19 10m-75-10-20 10m28-10 20 10m66-10-19 10m67-10-20 10m0 0-19-10M24 54v23m47-23v23m48-23v23m47-23v23m47-23v23m48-23v23m47-23v23m48-23v23m47-23v23m48-23v23m47-23v23m47-23v23m48-23v23m47-23v23m48-23v23m47-23v23m48-23v23m47-23v23m47-23v23m48-23v23m47-23v23m48-23v23m47-23v23M24 131v23m47-23v23m48-23v23m47-23v23m47-23v23m48-23v23m47-23v23m48-23v23m47-23v23m48-23v23m47-23v23m47-23v23m48-23v23m47-23v23m48-23v23m47-23v23m48-23v23m47-23v23m47-23v23m48-23v23m47-23v23m48-23v23m47-23v23M28 203c0 3-2 4-4 4s-5-1-5-4 2-4 5-4 4 2 4 4zm47 0c0 3-1 4-4 4s-4-1-4-4 2-4 4-4 4 2 4 4zm48 0c0 3-2 4-4 4s-5-1-5-4 2-4 5-4 4 2 4 4zm47 0c0 3-2 4-4 4s-4-1-4-4 2-4 4-4 4 2 4 4zm48 0c0 3-2 4-5 4s-4-1-4-4 2-4 4-4 5 2 5 4zm47 0c0 3-2 4-4 4s-4-1-4-4 1-4 4-4 4 2 4 4zm48 0c0 3-2 4-5 4s-4-1-4-4 2-4 4-4 4 2 4 4zm-238 0 67-35m-75 35-20-10m76 10 67-35m-76 35-19-10m67 10-20-10M28 203l67-35M0 193l20 10m245 0 67-35m-75 35-20-10m76 10 66-35m-75 35-20-10m67 10-19-10m-114 10 66-35m-114 35 67-35m-47 25 19 10m95-45c0-2 2-4 4-4s4 2 4 4-1 4-4 4c-2 0-4-1-4-4zm-47 0c0-2 2-4 4-4s4 2 4 4-2 4-4 4c-3 0-4-1-4-4zm-48 0c0-2 2-4 4-4s5 2 5 4-2 4-5 4-4-1-4-4zm-47 0c0-2 1-4 4-4s4 2 4 4-2 4-4 4-4-1-4-4zm-48 0c0-2 2-4 5-4s4 2 4 4-2 4-4 4-5-1-5-4zm-47 0c0-2 2-4 4-4s4 2 4 4-2 4-4 4-4-1-4-4zm-47 0c0-2 1-4 4-4s4 2 4 4-2 4-4 4c-3 0-4-1-4-4zm237 0-20 10m28-10 19 10m-75-10-19 10m28-10 19 10m-67-10 20 10m114-10-20 10m67-10-19 10m0 0-20-10m-245 0L0 193m75-35 20 10m-75-10L0 168m28-10 20 10m66-10-19 10m67-10-20 10m0 0-19-10m284 45c0 3-2 4-4 4s-4-1-4-4 2-4 4-4 4 2 4 4zm-47 0c0 3-2 4-4 4s-5-1-5-4 2-4 5-4 4 2 4 4zm95 0c0 3-2 4-4 4s-5-1-5-4 2-4 4-4 5 2 5 4zm47 0c0 3-2 4-4 4s-4-1-4-4 2-4 4-4 4 2 4 4zm48 0c0 3-2 4-5 4s-4-1-4-4 2-4 4-4 5 2 5 4zm47 0c0 3-2 4-4 4s-4-1-4-4 1-4 4-4 4 2 4 4zm47 0c0 3-2 4-4 4s-4-1-4-4 2-4 4-4 4 2 4 4zm48 0c0 3-2 4-4 4s-5-1-5-4 2-4 5-4c2 0 4 2 4 4zm-237 0 67-35m-76 35-19-10m75 10 67-35m-75 35-20-10m67 10-19-10m-115 10 67-35m-114 35 67-35m-48 25 20 10m245 0 67-35m-75 35-20-10m67 10-19-10m67 10-20-10m-114 10 67-35m-114 35 66-35m-47 25 20 10m94-45c0-2 2-4 5-4s4 2 4 4-2 4-4 4-5-1-5-4zm-47 0c0-2 2-4 4-4s4 2 4 4-2 4-4 4-4-1-4-4zm-47 0c0-2 1-4 4-4s4 2 4 4-2 4-4 4-5-1-5-4zm-48 0c0-2 2-4 4-4s5 2 5 4-2 4-5 4-4-1-4-4zm-47 0c0-2 2-4 4-4s4 2 4 4-2 4-4 4-4-1-4-4zm-48 0c0-2 2-4 4-4s5 2 5 4-2 4-4 4-5-1-5-4zm-47 0c0-2 2-4 4-4s4 2 4 4-2 4-4 4-4-1-4-4zm-48 0c0-2 2-4 5-4s4 2 4 4-2 4-4 4-5-1-5-4zm285 0-20 10m28-10 20 10m-75-10-20 10m28-10 19 10m-66-10 19 10m114-10-19 10m47 0-19-10m-246 0-19 10m28-10 19 10m-75-10-20 10m28-10 20 10m-67-10 19 10m115-10-20 10m67-10-19 10m0 0-20-10m237 45c0 3-2 4-4 4s-4-1-4-4 1-4 4-4 4 2 4 4zm48 0c0 3-2 4-5 4s-4-1-4-4 2-4 4-4c3 0 5 2 5 4zm47 0c0 3-2 4-4 4s-5-1-5-4 2-4 5-4 4 2 4 4zm47 0c0 3-2 4-4 4s-4-1-4-4 2-4 4-4c3 0 4 2 4 4zm48 0c0 3-2 4-5 4s-4-1-4-4 2-4 4-4 5 2 5 4zm47 0c0 3-2 4-4 4s-4-1-4-4 2-4 4-4 4 2 4 4zm48 0c0 3-2 4-5 4s-4-1-4-4 2-4 4-4 5 2 5 4zm47 0c0 3-2 4-4 4s-5-1-5-4 2-4 5-4 4 2 4 4zm-284 0 66-35m-75 35-20-10m76 10 67-35m-76 35-19-10m67 10-20-10m-114 10 67-35m-114 35 67-35m217 35 67-35m-75 35-20-10m76 10 66-35m-75 35-19-10m66 10-17-11m-116 11 67-35m-115 35 67-35m-47 25 19 10m95-45c0-2 2-4 4-4s5 2 5 4-2 4-5 4-4-1-4-4zm47 0c0-2 2-4 5-4s4 2 4 4-2 4-4 4-5-1-5-4zm-94 0c0-2 2-4 4-4s4 2 4 4-2 4-4 4-4-1-4-4zm-48 0c0-2 2-4 4-4s5 2 5 4-2 4-5 4-4-1-4-4zm-47 0c0-2 2-4 4-4s4 2 4 4-2 4-4 4-4-1-4-4zm-48 0c0-2 2-4 5-4s4 2 4 4-2 4-4 4-5-1-5-4zm-47 0c0-2 2-4 4-4s4 2 4 4-1 4-4 4-4-1-4-4zm-47 0c0-2 1-4 4-4s4 2 4 4-2 4-4 4-5-1-5-4zm237 0-20 10m28-10 20 10m-76-10-19 10m28-10 19 10m-67-10 20 10m114-10-19 10m66-10-19 10m0 0-19-10m-246 0-20 10m29-10 19 10m-75-10-20 10m28-10 20 10m66-10-19 10m67-10-20 10m0 0-19-10M28 280c0 3-2 4-4 4s-4-1-4-4 1-4 4-4 4 2 4 4zm47 0c0 3-1 4-4 4s-4-1-4-4 2-4 4-4 4 2 4 4zm48 0c0 3-2 4-4 4s-5-1-5-4 2-4 5-4 4 2 4 4zm47 0c0 3-2 4-4 4s-4-1-4-4 2-4 4-4 4 2 4 4zm48 0c0 3-2 4-5 4s-4-1-4-4 2-4 4-4 5 2 5 4zm47 0c0 3-2 4-4 4s-4-1-4-4 1-4 4-4 4 2 4 4zm48 0c0 3-2 4-5 4s-4-1-4-4 2-4 4-4 4 2 4 4zm-238 0 67-35m-75 35-20-10m76 10 67-35m-76 35-19-10m67 10-20-10M28 280l67-35M0 270l48-25M0 270l20 10m245 0 67-35m-75 35-20-10m76 10 66-35m-75 35-20-10m67 10-19-10m-114 10 66-35m-114 35 67-35m-47 25 19 10m95-45c0-2 2-4 4-4s4 2 4 4-1 4-4 4c-2 0-4-2-4-4zm-47 0c0-2 2-4 4-4s4 2 4 4-2 4-4 4c-3 0-4-2-4-4zm-48 0c0-2 2-4 4-4s5 2 5 4-2 4-5 4-4-2-4-4zm-47 0c0-2 1-4 4-4s4 2 4 4-2 4-4 4-4-2-4-4zm-48 0c0-2 2-4 5-4s4 2 4 4-2 4-4 4-5-2-5-4zm-47 0c0-2 2-4 4-4s4 2 4 4-2 4-4 4-4-2-4-4zm-47 0c0-2 1-4 4-4s4 2 4 4-2 4-4 4c-3 0-4-2-4-4zm237 0-20 10m28-10 19 10m-75-10-19 10m28-10 19 10m-67-10 20 10m114-10-20 10m67-10-19 10m0 0-20-10m-245 0-19 10m27-10 20 10m-75-10L0 245m28-10 20 10m66-10-19 10m67-10-20 10m0 0-19-10m284 45c0 3-2 4-4 4s-4-1-4-4 2-4 4-4 4 2 4 4zm-47 0c0 3-2 4-4 4s-5-1-5-4 2-4 5-4 4 2 4 4zm95 0c0 3-2 4-4 4s-5-1-5-4 2-4 4-4 5 2 5 4zm47 0c0 3-2 4-4 4s-4-1-4-4 2-4 4-4 4 2 4 4zm48 0c0 3-2 4-5 4s-4-1-4-4 2-4 4-4 5 2 5 4zm47 0c0 3-2 4-4 4s-4-1-4-4 1-4 4-4 4 2 4 4zm47 0c0 3-2 4-4 4s-4-1-4-4 2-4 4-4 4 2 4 4zm48 0c0 3-2 4-4 4s-5-1-5-4 2-4 5-4c2 0 4 2 4 4zm-237 0 67-35m-76 35-19-10m75 10 67-35m-75 35-20-10m67 10-19-10m-115 10 67-35m-114 35 67-35m-48 25 20 10m245 0 67-35m-75 35-20-10m67 10-19-10m67 10-20-10m-114 10 67-35m-114 35 66-35m-47 25 20 10m94-45c0-2 2-4 5-4s4 2 4 4-2 4-4 4-5-2-5-4zm-47 0c0-2 2-4 4-4s4 2 4 4-2 4-4 4-4-2-4-4zm-47 0c0-2 1-4 4-4s4 2 4 4-2 4-4 4-5-2-5-4zm-48 0c0-2 2-4 4-4s5 2 5 4-2 4-5 4-4-2-4-4zm-47 0c0-2 2-4 4-4s4 2 4 4-2 4-4 4-4-2-4-4zm-48 0c0-2 2-4 4-4s5 2 5 4-2 4-4 4-5-2-5-4zm-47 0c0-2 2-4 4-4s4 2 4 4-2 4-4 4-4-2-4-4zm-48 0c0-2 2-4 5-4s4 2 4 4-2 4-4 4-5-2-5-4zm285 0-20 10m28-10 20 10m-75-10-20 10m28-10 19 10m-66-10 19 10m114-10-19 10m47 0-19-10m-246 0-19 10m28-10 19 10m-75-10-20 10m28-10 20 10m-67-10 19 10m115-10-20 10m67-10-19 10m0 0-20-10m237 45c0 3-2 4-4 4s-4-1-4-4 1-4 4-4 4 2 4 4zm48 0c0 3-2 4-5 4s-4-1-4-4 2-4 4-4c3 0 5 2 5 4zm47 0c0 3-2 4-4 4s-5-1-5-4 2-4 5-4 4 2 4 4zm47 0c0 3-2 4-4 4s-4-1-4-4 2-4 4-4c3 0 4 2 4 4zm48 0c0 3-2 4-5 4s-4-1-4-4 2-4 4-4 5 2 5 4zm47 0c0 3-2 4-4 4s-4-1-4-4 2-4 4-4 4 2 4 4zm48 0c0 3-2 4-5 4s-4-1-4-4 2-4 4-4 5 2 5 4zm47 0c0 3-2 4-4 4s-5-1-5-4 2-4 5-4 4 2 4 4zm-284 0 66-35m-75 35-20-10m76 10 67-35m-76 35-19-10m67 10-20-10m-114 10 67-35m-114 35 67-35m217 35 71-35m-79 35-20-10m76 10 66-35m-75 35-19-10m66 10-19-10m-114 10 67-35m-115 35 67-35m-47 25 19 10m95-45c0-2 2-4 4-4s5 2 5 4-2 4-5 4-4-2-4-4zm47 0c0-2 2-4 5-4s4 2 4 4-2 4-4 4-5-2-5-4zm-94 0c0-2 2-4 4-4s4 2 4 4-2 4-4 4-4-2-4-4zm-48 0c0-2 2-4 4-4s5 2 5 4-2 4-5 4-4-2-4-4zm-47 0c0-2 2-4 4-4s4 2 4 4-2 4-4 4-4-2-4-4zm-48 0c0-2 2-4 5-4s4 2 4 4-2 4-4 4-5-2-5-4zm-47 0c0-2 2-4 4-4s4 2 4 4-1 4-4 4-4-2-4-4zm-47 0c0-2 1-4 4-4s4 2 4 4-2 4-4 4-5-2-5-4zm237 0-20 10m28-10 20 10m-76-10-19 10m28-10 19 10m-67-10 20 10m114-10-19 10m67-8-16 8m-2 1-21-11m-246 0-20 10m29-10 19 10m-75-10-20 10m28-10 20 10m66-10-19 10m67-10-20 10m0 0-19-10M24 208v23m47-23v23m48-23v23m47-23v23m47-23v23m48-23v23m47-23v23m48-23v23m47-23v23m48-23v23m47-23v23m47-23v23m48-23v23m47-23v23m48-23v23m47-23v23m48-23v23m47-23v23m47-23v23m48-23v23m47-23v23m48-23v23m47-23v23M24 284v24m47-24v24m48-24v24m47-24v24m47-24v24m48-24v24m47-24v24m48-24v24m47-24v24m48-24v24m47-24v24m47-24v24m48-24v24m47-24v24m48-24v24m47-24v24m48-24v24m47-24v24m47-24v24m48-24v24m47-24v24m48-24v24m47-24v24M28 357c0 3-2 4-4 4s-5-1-5-4 2-4 5-4 4 2 4 4zm47 0c0 3-1 4-4 4s-4-1-4-4 2-4 4-4 4 2 4 4zm48 0c0 3-2 4-4 4s-5-1-5-4 2-4 5-4 4 2 4 4zm47 0c0 3-2 4-4 4s-4-1-4-4 2-4 4-4 4 2 4 4zm48 0c0 3-2 4-5 4s-4-1-4-4 2-4 4-4 5 2 5 4zm47 0c0 3-2 4-4 4s-4-1-4-4 1-4 4-4 4 2 4 4zm48 0c0 3-2 4-5 4s-4-1-4-4 2-4 4-4 4 2 4 4zm-238 0 67-35m-75 35-20-10m76 10 67-35m-76 35-19-10m67 10-20-10M28 357l67-35M0 347l48-25M0 347l20 10m245 0 67-35m-75 35-20-10m76 10 66-35m-75 35-20-10m67 10-19-10m-114 10 66-35m-114 35 67-35m-47 25 19 10m95-45c0-2 2-4 4-4s4 2 4 4-1 4-4 4c-2 0-4-2-4-4zm-47 0c0-2 2-4 4-4s4 2 4 4-2 4-4 4c-3 0-4-2-4-4zm-48 0c0-2 2-4 4-4s5 2 5 4-2 4-5 4-4-2-4-4zm-47 0c0-2 1-4 4-4s4 2 4 4-2 4-4 4-4-2-4-4zm-48 0c0-2 2-4 5-4s4 2 4 4-2 4-4 4-5-2-5-4zm-47 0c0-2 2-4 4-4s4 2 4 4-2 4-4 4-4-2-4-4zm-47 0c0-2 1-4 4-4s4 2 4 4-2 4-4 4c-3 0-4-2-4-4zm237 0-20 10m28-10 19 10m-75-10-19 10m28-10 19 10m-67-10 20 10m114-10-20 10m67-10-19 10m0 0-20-10m-245 0-19 10m27-10 20 10m-75-10L0 322m28-10 20 10m66-10-19 10m67-10-20 10m0 0-19-10m284 45c0 3-2 4-4 4s-4-1-4-4 2-4 4-4 4 2 4 4zm-47 0c0 3-2 4-4 4s-5-1-5-4 2-4 5-4 4 2 4 4zm95 0c0 3-2 4-4 4s-5-1-5-4 2-4 4-4 5 2 5 4zm47 0c0 3-2 4-4 4s-4-1-4-4 2-4 4-4 4 2 4 4zm48 0c0 3-2 4-5 4s-4-1-4-4 2-4 4-4 5 2 5 4zm47 0c0 3-2 4-4 4s-4-1-4-4 1-4 4-4 4 2 4 4zm47 0c0 3-2 4-4 4s-4-1-4-4 2-4 4-4 4 2 4 4zm48 0c0 3-2 4-4 4s-5-1-5-4 2-4 5-4c2 0 4 2 4 4zm-237 0 67-35m-76 35-19-10m75 10 67-35m-75 35-20-10m67 10-19-10m-115 10 67-35m-114 35 67-35m-48 25 20 10m245 0 67-35m-75 35-20-10m67 10-19-10m67 10-20-10m-114 10 67-35m-114 35 66-35m-47 25 20 10m94-45c0-2 2-4 5-4s4 2 4 4-2 4-4 4-5-2-5-4zm-47 0c0-2 2-4 4-4s4 2 4 4-2 4-4 4-4-2-4-4zm-47 0c0-2 1-4 4-4s4 2 4 4-2 4-4 4-5-2-5-4zm-48 0c0-2 2-4 4-4s5 2 5 4-2 4-5 4-4-2-4-4zm-47 0c0-2 2-4 4-4s4 2 4 4-2 4-4 4-4-2-4-4zm-48 0c0-2 2-4 4-4s5 2 5 4-2 4-4 4-5-2-5-4zm-47 0c0-2 2-4 4-4s4 2 4 4-2 4-4 4-4-2-4-4zm-48 0c0-2 2-4 5-4s4 2 4 4-2 4-4 4-5-2-5-4zm285 0-20 10m28-10 20 10m-75-10-20 10m28-10 19 10m-66-10 19 10m114-10-19 10m47 0-19-10m-246 0-19 10m28-10 19 10m-75-10-20 10m28-10 20 10m-67-10 19 10m115-10-20 10m67-10-19 10m0 0-20-10m237 45c0 3-2 4-4 4s-4-1-4-4 1-4 4-4 4 2 4 4zm48 0c0 3-2 4-5 4s-4-1-4-4 2-4 4-4c3 0 5 2 5 4zm47 0c0 3-2 4-4 4s-5-1-5-4 2-4 5-4 4 2 4 4zm47 0c0 3-2 4-4 4s-4-1-4-4 2-4 4-4c3 0 4 2 4 4zm48 0c0 3-2 4-5 4s-4-1-4-4 2-4 4-4 5 2 5 4zm47 0c0 3-2 4-4 4s-4-1-4-4 2-4 4-4 4 2 4 4zm48 0c0 3-2 4-5 4s-4-1-4-4 2-4 4-4 5 2 5 4zm47 0c0 3-2 4-4 4s-5-1-5-4 2-4 5-4 4 2 4 4zm-284 0 66-35m-75 35-20-10m76 10 67-35m-76 35-19-10m67 10-20-10m-114 10 67-35m-114 35 67-35m217 35 67-35m-75 35-20-10m76 10 66-35m-75 35-19-10m66 10-17-11m-116 11 67-35m-115 35 67-35m-47 25 19 10m95-45c0-2 2-4 4-4s5 2 5 4-2 4-5 4-4-2-4-4zm47 0c0-2 2-4 5-4s4 2 4 4-2 4-4 4-5-2-5-4zm-94 0c0-2 2-4 4-4s4 2 4 4-2 4-4 4-4-2-4-4zm-48 0c0-2 2-4 4-4s5 2 5 4-2 4-5 4-4-2-4-4zm-47 0c0-2 2-4 4-4s4 2 4 4-2 4-4 4-4-2-4-4zm-48 0c0-2 2-4 5-4s4 2 4 4-2 4-4 4-5-2-5-4zm-47 0c0-2 2-4 4-4s4 2 4 4-1 4-4 4-4-2-4-4zm-47 0c0-2 1-4 4-4s4 2 4 4-2 4-4 4-5-2-5-4zm237 0-20 10m28-10 20 10m-76-10-19 10m28-10 19 10m-67-10 20 10m114-10-19 10m66-10-19 10m0 0-19-10m-246 0-20 10m29-10 19 10m-75-10-20 10m28-10 20 10m66-10-19 10m67-10-20 10m0 0-19-10M28 434c0 2-2 4-4 4s-4-2-4-4 1-4 4-4 4 2 4 4zm47 0c0 2-1 4-4 4s-4-2-4-4 2-4 4-4 4 2 4 4zm48 0c0 2-2 4-4 4s-5-2-5-4 2-4 5-4 4 2 4 4zm47 0c0 2-2 4-4 4s-4-2-4-4 2-4 4-4 4 2 4 4zm48 0c0 2-2 4-5 4s-4-2-4-4 2-4 4-4 5 2 5 4zm47 0c0 2-2 4-4 4s-4-2-4-4 1-4 4-4 4 2 4 4zm48 0c0 2-2 4-5 4s-4-2-4-4 2-4 4-4 4 2 4 4zm-238 0 67-35m-75 35-19-10m75 10 67-35m-76 35-19-10m67 10-20-10M28 434l67-35M0 424l20 10m245 0 67-35m-75 35-20-10m76 10 66-35m-75 35-20-10m67 10-19-10m-114 10 66-35m-114 35 67-35m-47 25 19 10m95-45c0-3 2-4 4-4s4 1 4 4-1 4-4 4c-2 0-4-2-4-4zm-47 0c0-3 2-4 4-4s4 1 4 4-2 4-4 4c-3 0-4-2-4-4zm-48 0c0-3 2-4 4-4s5 1 5 4-2 4-5 4-4-2-4-4zm-47 0c0-3 1-4 4-4s4 1 4 4-2 4-4 4-4-2-4-4zm-48 0c0-3 2-4 5-4s4 1 4 4-2 4-4 4-5-2-5-4zm-47 0c0-3 2-4 4-4s4 1 4 4-2 4-4 4-4-2-4-4zm-47 0c0-3 1-4 4-4s4 1 4 4-2 4-4 4c-3 0-4-2-4-4zm237 0-20 10m28-10 19 10m-75-10-19 10m28-10 19 10m-67-10 20 10m114-10-20 10m67-10-19 10m0 0-20-10m-245 0L0 424m75-35 20 10m-75-10L0 399m28-10 20 10m66-10-19 10m67-10-20 10m0 0-19-10m284 45c0 2-2 4-4 4s-4-2-4-4 2-4 4-4 4 2 4 4zm-47 0c0 2-2 4-4 4s-5-2-5-4 2-4 5-4 4 2 4 4zm95 0c0 2-2 4-4 4s-5-2-5-4 2-4 4-4 5 2 5 4zm47 0c0 2-2 4-4 4s-4-2-4-4 2-4 4-4 4 2 4 4zm48 0c0 2-2 4-5 4s-4-2-4-4 2-4 4-4 5 2 5 4zm47 0c0 2-2 4-4 4s-4-2-4-4 1-4 4-4 4 2 4 4zm47 0c0 2-2 4-4 4s-4-2-4-4 2-4 4-4 4 2 4 4zm48 0c0 2-2 4-4 4s-5-2-5-4 2-4 5-4c2 0 4 2 4 4zm-237 0 67-35m-76 35-19-10m75 10 67-35m-75 35-20-10m67 10-19-10m-115 10 67-35m-114 35 67-35m-48 25 20 10m245 0 67-35m-75 35-20-10m67 10-19-10m67 10-20-10m-114 10 67-35m-114 35 66-35m-47 25 20 10m94-45c0-3 2-4 5-4s4 1 4 4-2 4-4 4-5-2-5-4zm-47 0c0-3 2-4 4-4s4 1 4 4-2 4-4 4-4-2-4-4zm-47 0c0-3 1-4 4-4s4 1 4 4-2 4-4 4-5-2-5-4zm-48 0c0-3 2-4 4-4s5 1 5 4-2 4-5 4-4-2-4-4zm-47 0c0-3 2-4 4-4s4 1 4 4-2 4-4 4-4-2-4-4zm-48 0c0-3 2-4 4-4s5 1 5 4-2 4-4 4-5-2-5-4zm-47 0c0-3 2-4 4-4s4 1 4 4-2 4-4 4-4-2-4-4zm-48 0c0-3 2-4 5-4s4 1 4 4-2 4-4 4-5-2-5-4zm285 0-20 10m28-10 20 10m-75-10-20 10m28-10 19 10m-66-10 19 10m114-10-19 10m47 0-19-10m-246 0-19 10m28-10 19 10m-75-10-20 10m28-10 20 10m-67-10 19 10m115-10-20 10m67-10-19 10m0 0-20-10m237 45c0 2-2 4-4 4s-4-2-4-4 1-4 4-4 4 2 4 4zm48 0c0 2-2 4-5 4s-4-2-4-4 2-4 4-4c3 0 5 2 5 4zm47 0c0 2-2 4-4 4s-5-2-5-4 2-4 5-4 4 2 4 4zm47 0c0 2-2 4-4 4s-4-2-4-4 2-4 4-4c3 0 4 2 4 4zm48 0c0 2-2 4-5 4s-4-2-4-4 2-4 4-4 5 2 5 4zm47 0c0 2-2 4-4 4s-4-2-4-4 2-4 4-4 4 2 4 4zm48 0c0 2-2 4-5 4s-4-2-4-4 2-4 4-4 5 2 5 4zm47 0c0 2-2 4-4 4s-5-2-5-4 2-4 5-4 4 2 4 4zm-284 0 66-35m-75 35-20-10m76 10 67-35m-76 35-19-10m67 10-20-10m-114 10 67-35m-114 35 67-35m217 35 71-35m-79 35-20-10m76 10 66-35m-75 35-19-10m66 10-19-10m-114 10 67-35m-115 35 67-35m-47 25 19 10m95-45c0-3 2-4 4-4s5 1 5 4-2 4-5 4-4-2-4-4zm47 0c0-3 2-4 5-4s4 1 4 4-2 4-4 4-5-2-5-4zm-94 0c0-3 2-4 4-4s4 1 4 4-2 4-4 4-4-2-4-4zm-48 0c0-3 2-4 4-4s5 1 5 4-2 4-5 4-4-2-4-4zm-47 0c0-3 2-4 4-4s4 1 4 4-2 4-4 4-4-2-4-4zm-48 0c0-3 2-4 5-4s4 1 4 4-2 4-4 4-5-2-5-4zm-47 0c0-3 2-4 4-4s4 1 4 4-1 4-4 4-4-2-4-4zm-47 0c0-3 1-4 4-4s4 1 4 4-2 4-4 4-5-2-5-4zm237 0-20 10m28-10 20 10m-76-10-19 10m28-10 19 10m-67-10 20 10m114-10-19 10m67-8-16 8m-2 1-21-11m-246 0-20 10m29-10 19 10m-75-10-20 10m28-10 20 10m66-10-19 10m67-10-20 10m0 0-19-10M24 361v23m47-23v23m48-23v23m47-23v23m47-23v23m48-23v23m47-23v23m48-23v23m47-23v23m48-23v23m47-23v23m47-23v23m48-23v23m47-23v23m48-23v23m47-23v23m48-23v23m47-23v23m47-23v23m48-23v23m47-23v23m48-23v23m47-23v23M24 439v23m47-23v23m48-23v23m47-23v23m47-23v23m48-23v23m47-23v23m48-23v23m47-23v23m48-23v23m47-23v23m47-23v23m48-23v23m47-23v23m48-23v23m47-23v23m48-23v23m47-23v23m47-23v23m48-23v23m47-23v23m48-23v23m47-23v23M28 511c0 2-2 4-4 4s-5-2-5-4 2-4 5-4 4 2 4 4zm47 0c0 2-1 4-4 4s-4-2-4-4 2-4 4-4 4 2 4 4zm48 0c0 2-2 4-4 4s-5-2-5-4 2-4 5-4 4 2 4 4zm47 0c0 2-2 4-4 4s-4-2-4-4 2-4 4-4 4 2 4 4zm48 0c0 2-2 4-5 4s-4-2-4-4 2-4 4-4 5 2 5 4zm47 0c0 2-2 4-4 4s-4-2-4-4 1-4 4-4 4 2 4 4zm48 0c0 2-2 4-5 4s-4-2-4-4 2-4 4-4 4 2 4 4zm-238 0 67-34m-75 34-20-9m76 9 67-34m-76 34-20-9m68 9-21-10m-113 9 67-34M0 501l20 9m245 0 67-34m-75 34-21-9m77 9 66-34m-75 34-20-9m67 9-20-10m-113 10 66-34m-114 34 67-34m-48 25 20 9m95-44c0-3 2-4 4-4s4 1 4 4-1 4-4 4c-2 0-4-2-4-4zm-47 0c0-3 2-4 4-4s4 1 4 4-2 4-4 4c-3 0-4-2-4-4zm-48 0c0-3 2-4 4-4s5 1 5 4-2 4-5 4-4-2-4-4zm-47 0c0-3 1-4 4-4s4 1 4 4-2 4-4 4-4-2-4-4zm-48 0c0-3 2-4 5-4s4 1 4 4-2 4-4 4-5-2-5-4zm-47 0c0-3 2-4 4-4s4 1 4 4-2 4-4 4-4-2-4-4zm-47 0c0-3 1-4 4-4s4 1 4 4-2 4-4 4c-3 0-4-2-4-4zm237 0-20 10m28-10 19 10m-75-10-19 10m28-10 19 10m-67-10 20 10m114-10-20 10m67-10-19 10m0 0-20-10m-245 0L0 501m75-35 20 10m-75-10L0 476m28-10 20 10m66-10-19 10m67-10-20 10m0 0-19-10m284 44c0 2-2 4-4 4s-4-2-4-4 2-4 4-4 4 2 4 4zm-47 0c0 2-2 4-4 4s-5-2-5-4 2-4 5-4 4 2 4 4zm95 0c0 2-2 4-4 4s-5-2-5-4 2-4 4-4 5 2 5 4zm47 0c0 2-2 4-4 4s-4-2-4-4 2-4 4-4 4 2 4 4zm48 0c0 2-2 4-5 4s-4-2-4-4 2-4 4-4 5 2 5 4zm47 0c0 2-2 4-4 4s-4-2-4-4 1-4 4-4 4 2 4 4zm47 0c0 2-2 4-4 4s-4-2-4-4 2-4 4-4 4 2 4 4zm48 0c0 2-2 4-4 4s-5-2-5-4 2-4 5-4c2 0 4 2 4 4zm-237 0 67-34m-76 34-20-10m76 10 67-34m-75 34-21-10m68 10-20-10m-114 10 67-34m-114 34 67-34m-48 24 20 10m245 0 67-34m-75 34-20-10m67 10-20-10m68 10-21-10m-113 10 67-34m-114 34 66-34m-48 24 21 10m94-44c0-3 2-4 5-4s4 1 4 4-2 4-4 4-5-2-5-4zm-47 0c0-3 2-4 4-4s4 1 4 4-2 4-4 4-4-2-4-4zm-47 0c0-3 1-4 4-4s4 1 4 4-2 4-4 4-5-2-5-4zm-48 0c0-3 2-4 4-4s5 1 5 4-2 4-5 4-4-2-4-4zm-47 0c0-3 2-4 4-4s4 1 4 4-2 4-4 4-4-2-4-4zm-48 0c0-3 2-4 4-4s5 1 5 4-2 4-4 4-5-2-5-4zm-47 0c0-3 2-4 4-4s4 1 4 4-2 4-4 4-4-2-4-4zm-48 0c0-3 2-4 5-4s4 1 4 4-2 4-4 4-5-2-5-4zm285 0-20 10m28-10 20 10m-75-10-20 10m28-10 19 10m-66-10 19 10m114-10-19 10m47 0-19-10m-246 0-19 10m28-10 19 10m-75-10-20 10m28-10 20 10m-67-10 19 10m115-10-20 10m67-10-19 10m0 0-20-10m237 44c0 2-2 4-4 4s-4-2-4-4 1-4 4-4 4 2 4 4zm48 0c0 2-2 4-5 4s-4-2-4-4 2-4 4-4c3 0 5 2 5 4zm47 0c0 2-2 4-4 4s-5-2-5-4 2-4 5-4 4 2 4 4zm47 0c0 2-2 4-4 4s-4-2-4-4 2-4 4-4c3 0 4 2 4 4zm48 0c0 2-2 4-5 4s-4-2-4-4 2-4 4-4 5 2 5 4zm47 0c0 2-2 4-4 4s-4-2-4-4 2-4 4-4 4 2 4 4zm48 0c0 2-2 4-5 4s-4-2-4-4 2-4 4-4 5 2 5 4zm47 0c0 2-2 4-4 4s-5-2-5-4 2-4 5-4 4 2 4 4zm-284 0 66-34m-75 34-20-10m76 10 67-34m-76 34-20-10m68 10-20-10m-114 10 67-34m-114 34 66-34m218 34 67-34m-75 34-21-10m77 10 66-34m-75 34-20-10m67 10-18-10m-115 10 67-34m-115 34 67-34m-48 24 20 10m95-44c0-3 2-4 4-4s5 1 5 4-2 4-5 4-4-2-4-4zm47 0c0-3 2-4 5-4s4 1 4 4-2 4-4 4-5-2-5-4zm-94 0c0-3 2-4 4-4s4 1 4 4-2 4-4 4-4-2-4-4zm-48 0c0-3 2-4 4-4s5 1 5 4-2 4-5 4-4-2-4-4zm-47 0c0-3 2-4 4-4s4 1 4 4-2 4-4 4-4-2-4-4zm-48 0c0-3 2-4 5-4s4 1 4 4-2 4-4 4-5-2-5-4zm-47 0c0-3 2-4 4-4s4 1 4 4-1 4-4 4-4-2-4-4zm-47 0c0-3 1-4 4-4s4 1 4 4-2 4-4 4-5-2-5-4zm237 0-20 10m28-10 20 10m-76-10-19 10m28-10 19 10m-67-10 20 10m114-10-19 10m66-10-19 10m0 0-19-10m-246 0-20 10m29-10 19 10m-75-10-20 10m28-10 20 10m66-10-19 10m67-10-20 10m0 0-19-10M28 587c0 2-2 4-4 4s-4-2-4-4 1-4 4-4 4 2 4 4zm47 0c0 2-1 4-4 4s-4-2-4-4 2-4 4-4c3 0 4 2 4 4zm48 0c0 2-2 4-4 4s-5-2-5-4 2-4 5-4c2 0 4 2 4 4zm47 0c0 2-2 4-4 4s-4-2-4-4 2-4 4-4 4 2 4 4zm48 0c0 2-2 4-5 4s-4-2-4-4 2-4 4-4 5 2 5 4zm47 0c0 2-2 4-4 4s-4-2-4-4 1-4 4-4 4 2 4 4zm48 0c0 2-2 4-5 4s-4-2-4-4 2-4 4-4 4 2 4 4zm-238 0 67-35m-75 35-20-10m76 10 67-35m-76 35-19-10m67 10-20-10M28 587l67-35M0 577l48-25M0 577l20 10m245 0 67-35m-75 35-20-10m76 10 66-35m-75 35-20-10m67 10-19-10m-114 10 66-35m-114 35 67-35m-47 25 19 10m95-45c0-3 2-4 4-4s4 2 4 4-1 4-4 4c-2 0-4-2-4-4zm-47 0c0-3 2-4 4-4s4 2 4 4-2 4-4 4c-3 0-4-2-4-4zm-48 0c0-3 2-4 4-4s5 2 5 4-2 4-5 4-4-2-4-4zm-47 0c0-3 1-4 4-4s4 2 4 4-2 4-4 4-4-2-4-4zm-48 0c0-3 2-4 5-4s4 2 4 4-2 4-4 4-5-2-5-4zm-47 0c0-3 2-4 4-4s4 2 4 4-2 4-4 4-4-2-4-4zm-47 0c0-3 1-4 4-4s4 2 4 4-2 4-4 4c-3 0-4-2-4-4zm237 0-20 10m28-10 19 10m-75-10-19 10m28-10 19 10m-67-10 20 10m114-10-20 10m67-10-19 10m0 0-20-10m-245 0-19 10m27-10 20 10m-75-10L0 552m28-10 20 10m66-10-19 10m67-10-20 10m0 0-19-10m284 45c0 2-2 4-4 4s-4-2-4-4 2-4 4-4 4 2 4 4zm-47 0c0 2-2 4-4 4s-5-2-5-4 2-4 5-4 4 2 4 4zm95 0c0 2-2 4-4 4s-5-2-5-4 2-4 4-4c3 0 5 2 5 4zm47 0c0 2-2 4-4 4s-4-2-4-4 2-4 4-4 4 2 4 4zm48 0c0 2-2 4-5 4s-4-2-4-4 2-4 4-4 5 2 5 4zm47 0c0 2-2 4-4 4s-4-2-4-4 1-4 4-4 4 2 4 4zm47 0c0 2-2 4-4 4s-4-2-4-4 2-4 4-4 4 2 4 4zm48 0c0 2-2 4-4 4s-5-2-5-4 2-4 5-4c2 0 4 2 4 4zm-237 0 67-35m-76 35-19-10m75 10 67-35m-75 35-20-10m67 10-19-10m-115 10 67-35m-114 35 67-35m-48 25 20 10m245 0 67-35m-75 35-20-10m67 10-19-10m67 10-20-10m-114 10 67-35m-114 35 66-35m-47 25 20 10m94-45c0-3 2-4 5-4s4 2 4 4-2 4-4 4-5-2-5-4zm-47 0c0-3 2-4 4-4s4 2 4 4-2 4-4 4-4-2-4-4zm-47 0c0-3 1-4 4-4s4 2 4 4-2 4-4 4-5-2-5-4zm-48 0c0-3 2-4 4-4s5 2 5 4-2 4-5 4-4-2-4-4zm-47 0c0-3 2-4 4-4s4 2 4 4-2 4-4 4-4-2-4-4zm-48 0c0-3 2-4 4-4s5 2 5 4-2 4-4 4-5-2-5-4zm-47 0c0-3 2-4 4-4s4 2 4 4-2 4-4 4-4-2-4-4zm-48 0c0-3 2-4 5-4s4 2 4 4-2 4-4 4-5-2-5-4zm285 0-20 10m28-10 20 10m-75-10-20 10m28-10 19 10m-66-10 19 10m114-10-19 10m47 0-19-10m-246 0-19 10m28-10 19 10m-75-10-20 10m28-10 20 10m-67-10 19 10m115-10-20 10m67-10-19 10m0 0-20-10m237 45c0 2-2 4-4 4s-4-2-4-4 1-4 4-4 4 2 4 4zm48 0c0 2-2 4-5 4s-4-2-4-4 2-4 4-4c3 0 5 2 5 4zm47 0c0 2-2 4-4 4s-5-2-5-4 2-4 5-4c2 0 4 2 4 4zm47 0c0 2-2 4-4 4s-4-2-4-4 2-4 4-4c3 0 4 2 4 4zm48 0c0 2-2 4-5 4s-4-2-4-4 2-4 4-4 5 2 5 4zm47 0c0 2-2 4-4 4s-4-2-4-4 2-4 4-4 4 2 4 4zm48 0c0 2-2 4-5 4s-4-2-4-4 2-4 4-4 5 2 5 4zm47 0c0 2-2 4-4 4s-5-2-5-4 2-4 5-4c2 0 4 2 4 4zm-284 0 66-35m-75 35-20-10m76 10 67-35m-76 35-19-10m67 10-20-10m-114 10 67-35m-114 35 67-35m217 35 69-34m-77 34-20-10m76 10 66-35m-75 35-19-10m66 10-19-10m-114 10 67-35m-115 35 67-35m-47 25 19 10m95-45c0-3 2-4 4-4s5 2 5 4-2 4-5 4-4-2-4-4zm47 0c0-3 2-4 5-4s4 2 4 4-2 4-4 4-5-2-5-4zm-94 0c0-3 2-4 4-4s4 2 4 4-2 4-4 4-4-2-4-4zm-48 0c0-3 2-4 4-4s5 2 5 4-2 4-5 4-4-2-4-4zm-47 0c0-3 2-4 4-4s4 2 4 4-2 4-4 4-4-2-4-4zm-48 0c0-3 2-4 5-4s4 2 4 4-2 4-4 4-5-2-5-4zm-47 0c0-3 2-4 4-4s4 2 4 4-1 4-4 4-4-2-4-4zm-47 0c0-3 1-4 4-4s4 2 4 4-2 4-4 4-5-2-5-4zm237 0-20 10m28-10 20 10m-76-10-19 10m28-10 19 10m-67-10 20 10m114-10-19 10m67-8-18 9m0 0-21-11m-246 0-20 10m29-10 19 10m-75-10-20 10m28-10 20 10m66-10-19 10m67-10-20 10m0 0-19-10M24 514v24m47-24v24m48-24v24m47-24v24m47-24v24m48-24v24m47-24v24m48-24v24m47-24v24m48-24v24m47-24v24m47-24v24m48-24v24m47-24v24m48-24v24m47-24v24m48-24v24m47-24v24m47-24v24m48-24v24m47-24v24m48-24v24m47-24v24M24 591v23m47-23v23m48-23v23m47-23v23m47-23v23m48-23v23m47-23v23m48-23v23m47-23v23m48-23v23m47-23v23m47-23v23m48-23v23m47-23v23m48-23v23m47-23v23m48-23v23m47-23v23m47-23v23m48-23v23m47-23v23m48-23v23m47-23v23m52-565c0 3-2 5-5 5s-4-2-4-5 2-4 4-4c3 0 5 2 5 4zm47 0c0 3-2 5-5 5s-4-2-4-5 2-4 5-4 4 2 4 4zm47 0c0 3-2 5-4 5s-4-2-4-5 2-4 4-4 4 2 4 4zm48 0c0 3-2 5-5 5s-4-2-4-5 2-4 4-4 5 2 5 4zm47 0c0 3-2 5-4 5s-5-2-5-5 2-4 5-4 4 2 4 4zm48 0c0 3-2 5-5 5s-4-2-4-5 2-4 4-4c3 0 5 2 5 4zm47 0c0 3-2 5-4 5s-5-2-5-5 2-4 5-4 4 2 4 4zm-237 0 67-35m-76 35-19-10m75 10 67-35m-75 35-20-10m67 10-19-10m-114 10 66-35m-114 35 67-35m-48 25 20 10m246 0 66-35m-75 35-19-10m75 10 67-35m-76 35-19-10m67 10-20-10m-114 10 67-35m-114 35 66-35m-47 25 19 10m95-45c0-2 2-4 5-4s4 2 4 4-2 5-4 5-5-2-5-5zm-47 0c0-2 2-4 4-4s5 2 5 4-2 5-5 5c-2 0-4-2-4-5zm-47 0c0-2 1-4 4-4s4 2 4 4-2 5-4 5-5-2-5-5zm-48 0c0-2 2-4 4-4s5 2 5 4-2 5-5 5c-2 0-4-2-4-5zm-47 0c0-2 2-4 4-4s4 2 4 4-2 5-4 5-4-2-4-5zm-48 0c0-2 2-4 5-4s4 2 4 4-2 5-5 5c-2 0-4-2-4-5zm-47 0c0-2 2-4 4-4s5 2 5 4-2 5-5 5c-2 0-4-2-4-5zm237 0-19 10m28-10 19 10m-75-10-20 10m28-10 19 10m-66-10 19 10m114-10-19 10m67-10-20 10m0 0-19-10m-246 0-19 10m28-10 19 10m-75-10-20 10m29-10 19 10m-67-10 19 10m115-10-20 10m67-10-19 10m0 0-20-10m237 45c0 3-1 5-4 5s-4-2-4-5 2-4 4-4 4 2 4 4zm0 0 19-10m-27-35c0-2 2-4 4-4s4 2 4 4-2 5-4 5-4-2-4-5zm8 0 20 10m-351 112c0 3-2 5-5 5s-4-2-4-5 2-4 4-4c3 0 5 2 5 4zm47 0c0 3-2 5-5 5s-4-2-4-5 2-4 5-4 4 2 4 4zm47 0c0 3-2 5-4 5s-4-2-4-5 2-4 4-4 4 2 4 4zm48 0c0 3-2 5-5 5s-4-2-4-5 2-4 4-4 5 2 5 4zm47 0c0 3-2 5-4 5s-5-2-5-5 2-4 5-4 4 2 4 4zm48 0c0 3-2 5-5 5s-4-2-4-5 2-4 4-4c3 0 5 2 5 4zm47 0c0 3-2 5-4 5s-5-2-5-5 2-4 5-4 4 2 4 4zm-237 0 67-35m-76 35-19-10m75 10 67-35m-75 35-20-10m67 10-19-10m-114 10 66-35m-114 35 67-35m-48 25 20 10m246 0 66-35m-75 35-19-10m75 10 67-35m-76 35-19-10m67 10-20-10m-114 10 67-35m-114 35 66-35m-47 25 19 10m95-45c0-2 2-4 5-4s4 2 4 4-2 5-4 5c-3-1-5-2-5-5zm-47 0c0-2 2-4 4-4s5 2 5 4-2 5-5 5c-2-1-4-2-4-5zm-47 0c0-2 1-4 4-4s4 2 4 4-2 5-4 5c-3-1-5-2-5-5zm-48 0c0-2 2-4 4-4s5 2 5 4-2 5-5 5c-2-1-4-2-4-5zm-47 0c0-2 2-4 4-4s4 2 4 4-2 5-4 5c-2-1-4-2-4-5zm-48 0c0-2 2-4 5-4s4 2 4 4-2 5-5 5c-2-1-4-2-4-5zm-47 0c0-2 2-4 4-4s5 2 5 4-2 5-5 5c-2-1-4-2-4-5zm237 0-19 10m28-10 19 10m-75-10-20 10m28-10 19 10m-66-10 19 10m114-10-19 10m67-10-20 10m0 0-19-10m-246 0-19 10m28-10 19 10m-75-10-20 10m29-10 19 10m-67-10 19 10m115-10-20 10m67-10-19 10m0 0-20-10m237 45c0 3-1 5-4 5s-4-2-4-5 2-4 4-4 4 2 4 4zm0 0 19-10m-27-35c0-2 2-4 4-4s4 2 4 4-2 5-4 5c-2-1-4-2-4-5zm8 0 20 10m-356-37v23m48-23v23m47-23v23m47-23v23m48-23v23m47-23v23m48-23v23m47-23v23m-332 54v23m48-23v23m47-23v23m47-23v23m48-23v23m47-23v23m48-23v23m47-23v23m-327 49c0 3-2 4-5 4s-4-1-4-4 2-4 4-4c3 0 5 2 5 4zm47 0c0 3-2 4-5 4s-4-1-4-4 2-4 5-4 4 2 4 4zm47 0c0 3-2 4-4 4s-4-1-4-4 2-4 4-4 4 2 4 4zm48 0c0 3-2 4-5 4s-4-1-4-4 2-4 4-4 5 2 5 4zm47 0c0 3-2 4-4 4s-5-1-5-4 2-4 5-4 4 2 4 4zm48 0c0 3-2 4-5 4s-4-1-4-4 2-4 4-4c3 0 5 2 5 4zm47 0c0 3-2 4-4 4s-5-1-5-4 2-4 5-4 4 2 4 4zm-237 0 67-35m-76 35-19-10m75 10 67-35m-75 35-20-10m67 10-19-10m-114 10 66-35m-95 25 20 10m246 0 66-35m-75 35-19-10m75 10 67-35m-76 35-19-10m67 10-20-10m-114 10 67-35m-114 35 66-35m-47 25 19 10m95-45c0-2 2-4 5-4s4 2 4 4-2 4-4 4-5-1-5-4zm-47 0c0-2 2-4 4-4s5 2 5 4-2 4-5 4c-2 0-4-1-4-4zm-47 0c0-2 1-4 4-4s4 2 4 4-2 4-4 4-5-1-5-4zm-48 0c0-2 2-4 4-4s5 2 5 4-2 4-5 4c-2 0-4-1-4-4zm-47 0c0-2 2-4 4-4s4 2 4 4-2 4-4 4-4-1-4-4zm-48 0c0-2 2-4 5-4s4 2 4 4-2 4-5 4c-2 0-4-1-4-4zm-47 0c0-2 2-4 4-4s5 2 5 4-2 4-5 4c-2 0-4-1-4-4zm237 0-19 10m28-10 19 10m-75-10-20 10m28-10 19 10m-66-10 19 10m114-10-19 10m67-10-20 10m0 0-19-10m-246 0-86 45m95-45 19 10m-75-10-20 10m29-10 19 10m-67-10 19 10m115-10-20 10m67-10-19 10m0 0-20-10m237 45c0 3-1 4-4 4s-4-1-4-4 2-4 4-4 4 2 4 4zm0 0 19-10m-27-35c0-2 2-4 4-4s4 2 4 4-2 4-4 4-4-1-4-4zm8 0 20 10m-351 112c0 3-2 4-5 4s-4-1-4-4 2-4 4-4c3 0 5 2 5 4zm47 0c0 3-2 4-5 4s-4-1-4-4 2-4 5-4 4 2 4 4zm47 0c0 3-2 4-4 4s-4-1-4-4 2-4 4-4 4 2 4 4zm48 0c0 3-2 4-5 4s-4-1-4-4 2-4 4-4 5 2 5 4zm47 0c0 3-2 4-4 4s-5-1-5-4 2-4 5-4 4 2 4 4zm48 0c0 3-2 4-5 4s-4-1-4-4 2-4 4-4c3 0 5 2 5 4zm47 0c0 3-2 4-4 4s-5-1-5-4 2-4 5-4 4 2 4 4zm-237 0 67-35m-76 35-19-10m75 10 67-35m-75 35-20-10m67 10-19-10m-114 10 66-35m-114 35 67-35m-48 25 20 10m246 0 66-35m-75 35-19-10m75 10 67-35m-76 35-19-10m67 10-20-10m-114 10 67-35m-114 35 66-35m-47 25 19 10m95-45c0-2 2-4 5-4s4 2 4 4-2 4-4 4-5-2-5-4zm-47 0c0-2 2-4 4-4s5 2 5 4-2 4-5 4c-2 0-4-2-4-4zm-47 0c0-2 1-4 4-4s4 2 4 4-2 4-4 4-5-2-5-4zm-48 0c0-2 2-4 4-4s5 2 5 4-2 4-5 4c-2 0-4-2-4-4zm-47 0c0-2 2-4 4-4s4 2 4 4-2 4-4 4-4-2-4-4zm-48 0c0-2 2-4 5-4s4 2 4 4-2 4-5 4c-2 0-4-2-4-4zm-47 0c0-2 2-4 4-4s5 2 5 4-2 4-5 4c-2 0-4-2-4-4zm237 0-19 10m28-10 19 10m-75-10-20 10m28-10 19 10m-66-10 19 10m114-10-19 10m67-10-20 10m0 0-19-10m-246 0-19 10m28-10 19 10m-75-10-20 10m29-10 19 10m-67-10 19 10m115-10-20 10m67-10-19 10m0 0-20-10m237 45c0 3-1 4-4 4s-4-1-4-4 2-4 4-4 4 2 4 4zm0 0 19-10m-27-35c0-2 2-4 4-4s4 2 4 4-2 4-4 4-4-2-4-4zm8 0 20 10m-356-37v23m48-23v23m47-23v23m47-23v23m48-23v23m47-23v23m48-23v23m47-23v23m-332 53v24m48-24v24m47-24v24m47-24v24m48-24v24m47-24v24m48-24v24m47-24v24m-327 49c0 3-2 4-5 4s-4-1-4-4 2-4 4-4c3 0 5 2 5 4zm47 0c0 3-2 4-5 4s-4-1-4-4 2-4 5-4 4 2 4 4zm47 0c0 3-2 4-4 4s-4-1-4-4 2-4 4-4 4 2 4 4zm48 0c0 3-2 4-5 4s-4-1-4-4 2-4 4-4 5 2 5 4zm47 0c0 3-2 4-4 4s-5-1-5-4 2-4 5-4 4 2 4 4zm48 0c0 3-2 4-5 4s-4-1-4-4 2-4 4-4c3 0 5 2 5 4zm47 0c0 3-2 4-4 4s-5-1-5-4 2-4 5-4 4 2 4 4zm-237 0 67-35m-76 35-19-10m75 10 67-35m-75 35-20-10m67 10-19-10m-114 10 66-35m-114 35 67-35m-48 25 20 10m246 0 66-35m-75 35-19-10m75 10 67-35m-76 35-19-10m67 10-20-10m-114 10 67-35m-114 35 66-35m-47 25 19 10m95-45c0-2 2-4 5-4s4 2 4 4-2 4-4 4-5-2-5-4zm-47 0c0-2 2-4 4-4s5 2 5 4-2 4-5 4c-2 0-4-2-4-4zm-47 0c0-2 1-4 4-4s4 2 4 4-2 4-4 4-5-2-5-4zm-48 0c0-2 2-4 4-4s5 2 5 4-2 4-5 4c-2 0-4-2-4-4zm-47 0c0-2 2-4 4-4s4 2 4 4-2 4-4 4-4-2-4-4zm-48 0c0-2 2-4 5-4s4 2 4 4-2 4-5 4c-2 0-4-2-4-4zm-47 0c0-2 2-4 4-4s5 2 5 4-2 4-5 4c-2 0-4-2-4-4zm237 0-19 10m28-10 19 10m-75-10-20 10m28-10 19 10m-66-10 19 10m114-10-19 10m67-10-20 10m0 0-19-10m-246 0-19 10m28-10 19 10m-75-10-20 10m29-10 19 10m-67-10 19 10m115-10-20 10m67-10-19 10m0 0-20-10m237 45c0 3-1 4-4 4s-4-1-4-4 2-4 4-4 4 2 4 4zm0 0 19-10m-27-35c0-2 2-4 4-4s4 2 4 4-2 4-4 4-4-2-4-4zm8 0 20 10m-351 112c0 2-2 4-5 4s-4-2-4-4 2-4 4-4c3 0 5 2 5 4zm47 0c0 2-2 4-5 4s-4-2-4-4 2-4 5-4 4 2 4 4zm47 0c0 2-2 4-4 4s-4-2-4-4 2-4 4-4 4 2 4 4zm48 0c0 2-2 4-5 4s-4-2-4-4 2-4 4-4 5 2 5 4zm47 0c0 2-2 4-4 4s-5-2-5-4 2-4 5-4 4 2 4 4zm48 0c0 2-2 4-5 4s-4-2-4-4 2-4 4-4c3 0 5 2 5 4zm47 0c0 2-2 4-4 4s-5-2-5-4 2-4 5-4 4 2 4 4zm-237 0 67-35m-76 35-19-10m75 10 67-35m-75 35-20-10m67 10-19-10m-114 10 66-35m-95 25 20 10m246 0 66-35m-75 35-19-10m75 10 67-35m-76 35-19-10m67 10-20-10m-114 10 67-35m-114 35 66-35m-47 25 19 10m95-45c0-3 2-4 5-4s4 1 4 4-2 4-4 4-5-2-5-4zm-47 0c0-3 2-4 4-4s5 1 5 4-2 4-5 4c-2 0-4-2-4-4zm-47 0c0-3 1-4 4-4s4 1 4 4-2 4-4 4-5-2-5-4zm-48 0c0-3 2-4 4-4s5 1 5 4-2 4-5 4c-2 0-4-2-4-4zm-47 0c0-3 2-4 4-4s4 1 4 4-2 4-4 4-4-2-4-4zm-48 0c0-3 2-4 5-4s4 1 4 4-2 4-5 4c-2 0-4-2-4-4zm-47 0c0-3 2-4 4-4s5 1 5 4-2 4-5 4c-2 0-4-2-4-4zm237 0-19 10m28-10 19 10m-75-10-20 10m28-10 19 10m-66-10 19 10m114-10-19 10m67-10-20 10m0 0-19-10m-246 0-86 44m95-44 19 10m-75-10-20 10m29-10 19 10m-67-10 19 10m115-10-20 10m67-10-19 10m0 0-20-10m237 45c0 2-1 4-4 4s-4-2-4-4 2-4 4-4 4 2 4 4zm0 0 20-10m-28-35c0-3 2-4 4-4s4 1 4 4-2 4-4 4-4-2-4-4zm8 0 20 10m-356-38v23m48-23v23m47-23v23m47-23v23m48-23v23m47-23v23m48-23v23m47-23v23m-332 54v23m48-23v23m47-23v23m47-23v23m48-23v23m47-23v23m48-23v23m47-23v23m-327 49c0 2-2 4-5 4s-4-2-4-4 2-4 4-4c3 0 5 2 5 4zm47 0c0 2-2 4-5 4s-4-2-4-4 2-4 5-4 4 2 4 4zm47 0c0 2-2 4-4 4s-4-2-4-4 2-4 4-4 4 2 4 4zm48 0c0 2-2 4-5 4s-4-2-4-4 2-4 4-4 5 2 5 4zm47 0c0 2-2 4-4 4s-5-2-5-4 2-4 5-4 4 2 4 4zm48 0c0 2-2 4-5 4s-4-2-4-4 2-4 4-4c3 0 5 2 5 4zm47 0c0 2-2 4-4 4s-5-2-5-4 2-4 5-4 4 2 4 4zm-237 0 67-34m-76 34-20-9m76 9 67-34m-75 34-21-9m68 9-20-10m-113 10 66-34m-95 25 20 9m246 0 66-34m-75 34-20-9m76 9 67-34m-76 34-20-9m68 9-21-10m-113 10 67-34m-114 34 66-34m-48 25 20 9m95-44c0-3 2-4 5-4s4 1 4 4-2 4-4 4-5-2-5-4zm-47 0c0-3 2-4 4-4s5 1 5 4-2 4-5 4c-2 0-4-2-4-4zm-47 0c0-3 1-4 4-4s4 1 4 4-2 4-4 4-5-2-5-4zm-48 0c0-3 2-4 4-4s5 1 5 4-2 4-5 4c-2 0-4-2-4-4zm-47 0c0-3 2-4 4-4s4 1 4 4-2 4-4 4-4-2-4-4zm-48 0c0-3 2-4 5-4s4 1 4 4-2 4-5 4c-2 0-4-2-4-4zm-47 0c0-3 2-4 4-4s5 1 5 4-2 4-5 4c-2 0-4-2-4-4zm237 0-19 10m28-10 19 10m-75-10-20 10m28-10 19 10m-66-10 19 10m114-10-19 10m67-10-20 10m0 0-19-10m-246 0-86 44m95-44 19 10m-75-10-20 10m29-10 19 10m-67-10 19 10m115-10-20 10m67-10-19 10m0 0-20-10m237 44c0 2-1 4-4 4s-4-2-4-4 2-4 4-4 4 2 4 4zm0 0 19-10m-27-34c0-3 2-4 4-4s4 1 4 4-2 4-4 4-4-2-4-4zm8 0 20 10m-351 111c0 2-2 4-5 4s-4-2-4-4 2-4 4-4c3 0 5 2 5 4zm47 0c0 2-2 4-5 4s-4-2-4-4 2-4 5-4c2 0 4 2 4 4zm47 0c0 2-2 4-4 4s-4-2-4-4 2-4 4-4 4 2 4 4zm48 0c0 2-2 4-5 4s-4-2-4-4 2-4 4-4c3 0 5 2 5 4zm47 0c0 2-2 4-4 4s-5-2-5-4 2-4 5-4c2 0 4 2 4 4zm48 0c0 2-2 4-5 4s-4-2-4-4 2-4 4-4c3 0 5 2 5 4zm47 0c0 2-2 4-4 4s-5-2-5-4 2-4 5-4 4 2 4 4zm-237 0 67-35m-76 35-19-10m75 10 67-35m-75 35-20-10m67 10-19-10m-114 10 66-35m-114 35 67-35m-48 25 20 10m246 0 66-35m-75 35-19-10m75 10 67-35m-76 35-19-10m67 10-20-10m-114 10 67-35m-114 35 66-35m-47 25 19 10m95-45c0-3 2-4 5-4s4 2 4 4-2 4-4 4-5-2-5-4zm-47 0c0-3 2-4 4-4s5 2 5 4-2 4-5 4c-2 0-4-2-4-4zm-47 0c0-3 1-4 4-4s4 2 4 4-2 4-4 4-5-2-5-4zm-48 0c0-3 2-4 4-4s5 2 5 4-2 4-5 4c-2 0-4-2-4-4zm-47 0c0-3 2-4 4-4s4 2 4 4-2 4-4 4-4-2-4-4zm-48 0c0-3 2-4 5-4s4 2 4 4-2 4-5 4c-2 0-4-2-4-4zm-47 0c0-3 2-4 4-4s5 2 5 4-2 4-5 4c-2 0-4-2-4-4zm237 0-19 10m28-10 19 10m-75-10-20 10m28-10 19 10m-66-10 19 10m114-10-19 10m67-10-20 10m0 0-19-10m-246 0-19 10m28-10 19 10m-75-10-20 10m29-10 19 10m-67-10 19 10m115-10-20 10m67-10-19 10m0 0-20-10m237 45c0 2-1 4-4 4s-4-2-4-4 2-4 4-4 4 2 4 4zm0 0 20-10m-28-35c0-3 2-4 4-4s4 2 4 4-2 4-4 4-4-2-4-4zm8 0 20 10m-356-38v24m48-24v24m47-24v24m47-24v24m48-24v24m47-24v24m48-24v24m47-24v24m-332 53v23m48-23v23m47-23v23m47-23v23m48-23v23m47-23v23m48-23v23m47-23v23" class="st0"/></svg>