<svg xmlns="http://www.w3.org/2000/svg" xml:space="preserve" id="Layer_1" x="0" y="0" version="1.1" viewBox="0 0 1101 690"><style>.games0,.games1{fill:none;stroke:#414142;stroke-width:2;stroke-linecap:round;stroke-linejoin:round;stroke-miterlimit:10}.games1{stroke:#ee5586}</style><path id="svg-concept" d="m397 307-11-7-13 2" class="games1"/><path d="M741 497h9v-5h-9zm19-5v5h10v-5zm-10 5v5h10v-5zm0 5h-9v5h29v-5l-10-1m-16 32v-4h-5v-10l-3 2" class="games0"/><path d="M735 554v-6h4v-9h3v-6h7v-6h5v6h1v7h3v-12h3v-3h3v-2h4v6h4m-8-14h4v4h-4zm-22 7h4v4h-4zm29-41h3v3h-3zm-10 63h4v4h-4zm13-59v26l4-7m-4-28v4m0 31h-36" class="games0"/><path d="m739 468-4 4v4h39l3-7h-15v2h-5v-3h-18v-13h2v-9h2v-6h10v6h2v-12h3v-3h1v-4h4v7h2v3h2v-3h6v5h2v11h3v10h-3v3h5l1 36-3 5 2 24h-3v-14h-38v5" class="games0"/><path d="M768 427h4v4h-4zm-9-7h5v5h-5zm5-8h4v4h-4zm-36 84-4 13h5l4-13m-9 13-2 9 5 1 2-10" class="games0"/><path d="M722 518v5l5 1v-5" class="games0"/><path d="m722 523-1 6h6v-5m-6 5v4l1 3h5l1-3-1-4m-4 13-2 4 4 5 4 1v-3h3v-7l-2-2" class="games0"/><path d="M732 542v-6l-4-3 2 7-4 2h-4l-2-4 2-2m10 0 2-8-6-2m6 2 1-6-7-1m7 1v-5l-7-1m7 1 1-5-7-2m7 2 1-5-7-2m7 2v-5l-5-1m5 1 3-26-7 18v2h-5l-1-3 8-17m-2 20 5 1M110 669h23l61-23-15-2-69 25zm123-37 14 2 38-14-15-2-38 14zm-3 37h23l55-26-18-2zm-8-86 8 1 35-8-6-2zm-70-9 16 2 95-16-5-2-106 16zm-77 50 16 1 36-11-13-1-39 11zm213 65h27l31-19-26-1zm121-30 20 2s32-25 31-26l-17-1-34 25zm37 30h27l34-37-23-2zm161 0 9-36 20 1-2 35zm78 0-4-42h21l10 43-27-1zm-26-64h18l-3-20h-16zm39-52 10-1-6-10h-8zm30 85 22-1-13-22h-19l10 23zm51-20h20l-25-29h-16zm-1 30 13 21h26l-16-22-23 1zm91 19-34-34h21l39 34zm87 3s-4-12-2-12h9l3 12m19 0-10-60h11l9 60m23 0-1-12h12l2 12m12-1v-11h7v-49l8 3v17h7l1-34-19-8 20-1v-10l9 2v8h18l2-48h4" class="games0"/><path d="m1058 649-4 1 3 28h14l-1-29h-5m-8 29v11m7-10 1 11m8 0 1-33-4-2m11 34 2-67-8-3 1-13m13 83 4-63-10-4m11-16-1 20m1-36-43-14h44m-206 6 16-1-21-9h-8zm91 2 19-1-42-13-10 1zm-28 105-18-13h20l3 2m7 3 11 9m-90-59h21l-31-19h-14zm106 25 23-1-26-13m-12-6-16-8h-16l33 20m118-87h-34l-19-78" class="games0"/><path d="m1061 561-31-1-18-74 30-3h58m-70 77-82-3h-36l-14-65-14 1-20-95m179 20 35-1 22-7" class="games0"/><path d="m948 557-29-136 80-2m79-2 19 65" class="games0"/><path d="m930 557-40-190 113-5m-84 59-17 6m162-64-4-14 40-2m-21 69-12-45m-7-22-13 5m-187 92 13-1" class="games0"/><path d="m898 492-33-169 235-15m-224 69 14-10m40-48 9 46m102-53 9 40m-88 162 1 6h7l-1-6h-7zm25-20h7v-8l-8-1zm84 24 7-1-1-6h-7zm-125-61 7-1v-5h-8z" class="games0"/><path d="M971 409h7l-1-7-7 1zm-41-13 6-1-1-5-7 1zm-26-38 7-1-1-5h-7zm-26-9h8l-1-6-8 1zm61 12 14-1v-5l-15 2m27-16 1 5 6-1-1-5zm9-2 1 6 16-1-2-5zm-113 35-9-40 13-11m37 187-6 2-33 1-1-34 19-1" class="games0"/><path d="M866 500h9v-4h-9zm17 0h9l-1-5h-8zm-8 0v4h9v-4h-9zm-13-8h5v-5h12v-4h3m14 29-16 6 2 19 17-2 7-4" class="games0"/><path d="m880 518 16-1 3 18m-3-18 7-3m-40-7-6 2m8 4 1 15-8 2 7-17zm1 15 3 30 43-1m-16-21 1 21" class="games0"/><path d="M890 558v-6l-22-1m31 6v-5l5-3-1-16m1 16 1 8m-213-37h7l-1-7h-6zm-22 11h6v-6l-6-1zm6 19 42 1 10 4h38" class="games0"/><path d="m718 551-8-58h-54m47 0-5-42 42-1m1-4-44 1 3-5-40 1m0 9 38-1-1-4-37 1m14-22v6h8v-6zm87-32h23m-25 10h25m-10-83 6 28 74-4m-36-27-5-22m1-4 19-24 11-1-1-6 4-4-39 2m26 9 9 47m22 0-15-74 10-15 43-4 22 96m-65-92 19 96" class="games0"/><path d="m886 321-6-24h5l6 24m5-1-3-13h5l3 13m5-4-2-9h4l2 8zm11 3-6-27h4l6 27m-19-17h5l-4-20h-4zm-12-14h5l-3-16h-5zm-5-20h6l-1-5-6 1zm0-44 7 28-5 1-7-28m16 18 5 20h5l-5-21-5 1zm-32 5 42-14m14 60h3l3 11 3-1-6-19h3l2 8h3l2 10h3l-4-13 3-1 3 10 3-1-3-8 2-1v-2l4-1v2l-2 2v5l2-1 1-2h2l3 13 4-1-4-13h2v-3l3-1 2 9-2 1 4 16h-4l1 4m45-40-84 4 38-34 90-8" class="games0"/><path d="m1012 313-13-43 14-11 40-2 16 53m-56-51 14 53" class="games0"/><path d="m1046 311-8-26 6-1 7 27m4-9-8-31 4-1 8 32zm-26-6h5l-1-6-5 1 1 5zm-9-13 35-21m30 47-20-53-12 1m47 42-16-46-19 3m35 8-7 1-4-12h-5m5 0 10-1m1-31-49 35-16-53-21 18-13-50 26-25-13-46 17-18 26-4-17-53 46-4-2-4 16-16m-14 20 14 43m-59-39-15 20-44 6-12 18 9 35-11 2-6 6-38 5-8-39-30 5-4-15-42 6-8 17-39 6-7 17 6 22-18 2-18 53 10 62h8" class="games0"/><path d="m766 253 16-30 42-4 7-14 174-18m-223 35-7-36 5-12 45-5 6 36" class="games0"/><path d="m775 186 42-3 7 36m1-50-8 14" class="games0"/><path d="m777 197 31-2 5 25m-21 1-1-5 7-1 1 6m-25-83 6 36m13-77 9 38m-10 1 132-19m-116 16-3-14 42-7-7-38m46 9 8 38m-62-30 5 22m-38 8 23-28m22 111-1-7 6-1 1 7m49-5-1-6 8-1 1 6m68-8-1-5 13-2v6m-76 67 15-15 43-3 37-42m-51 52-2-8M118 556l26-2h55l73-5 1-53-73-6h-50m50 0-1 64m-54 0 1-39m149-57-28-5-41 1-126-22-46 3-54-9m54 9-3 41m49-44v16m126 6v38m41-39v42M0 384l14-2 137 30 39-2 20 5h35l32 7 36-1 14 4 50-1v-10l30-1v-6l21-1M14 382l-4 46m141-16v28m39-30-1 37" class="games0"/><path d="M210 450v-35l4-88m31 88v37m32-30v32m36-33v6m94-14 2 35m-12 7v-6l46-2-1-39m-115-20v37m11-32v32" class="games0"/><path d="m264 419 1-115-17-10-17 1v30l-121 10 2-22-28-11-36 5-3 28-45-14m0 23 24-1 19 5-4 40" class="games0"/><path d="m0 353 30 9 11 2m-17-21-1 17m-8-33v15m30-7-2 13m41-46-6 94m28 6 4-67 21 7 26-3 16 6 39-3M84 314l27 9" class="games0"/><path d="m107 375 13-2 41 13 33-2 17 4m-102-32 10 4 30-2 19 5 29-2 15 5m-81-24-1 17m27-20v21m16-15v18m24-2v23m-29-21v22m-18-27v24m-31-22v45m42-19-1 25m34-27-1 26m-46-77v7m17-9v10m25-12v15m13-16v15m46-49-2 120m19-98-17-11m17 59h30m-30-20h22v-7l33-1 9 5 29-2v-33l17-1m59-6h-10v29h-9l1 77m8-77h21" class="games0"/><path d="m424 309-29 2v35l-34 3-1 8m55 20-28 2 1 34" class="games0"/><path d="M382 309v11h13m-130 9 30-1 4 3v-12l27-2v-10l22-1v-72l-39-36h-6l1-44-4-4v-8l10-1v-15l-8-6v-17l-9-7v-3l-7-5V76l-7-7h-12l-5-6h-7l1-22-19-16V9l-10-8v14L211 0l-1 17-13-11-1 20 13 11v17c-1 0 38 31 37 32l1 16 11-2 1-26 9-1m81 226 25-3m-26-29 22-1m2-6-2-4-21 1" class="games0"/><path d="m379 235-10-12h-4v-24l-8-9-23 2-4-3-6 1-7-8h-4l-3-2h-7m14 2-1 22" class="games0"/><path d="m324 190 4 5v21m6-24-6 3m1 17 19-1 8 9 1-30" class="games0"/><path d="M348 211v15l17-3m-17 3-8 1m29-4v33m-20 50-40-29v-79m0 79-39 4-16-13-40 4 17 12v11l-17-12 1-48-55-38 3-49-25-20-37 8-27-19-40 9-5 61-29 4" class="games0"/><path d="m254 268 1-76 16 11 1-36 13 10 1-32 8 6v-6" class="games0"/><path d="m273 167-36 4v-36" class="games0"/><path d="m242 140 12 12 15-3m-9-12v14m-6 1v16m-68 1v9m16-19v18l-35 5v18" class="games0"/><path d="m162 169 7 5 17-1M74 117l-3 65 49-7s16 11 16 9l2-56m-37 8-1 41" class="games0"/><path d="m120 175-5 93 117 57m-117-57L0 281m90-10v-8l8-2 1 8M7 280v-7l9-1 1 7m48-21h8v-8h-9z" class="games0"/><path d="m177 275 9 4v-8l-8-4zM0 171l30-5m1-63 21-2 11 8 25-4 14 12 27-2 15 10-1-11M54 84l-1 17" class="games0"/><path d="M66 109v-8l6-4m58 5v13M93 91v7l14 11-5 8-1 17m-13-29-2 19m43-9v14m15-4v7m7-19-1 25M-1 12l44-7 20 16 14-4 72 53 2-18-15-9V20L112 4V1M63 21l3-19m11 15 2-16M43 5V1" class="games0"/><path d="m-1 19 34 21 12-2 12 9-5 27 15 1 17 9 3-18 18 13 13-1 17 8 1-14 19 12v-8h13l2-6 13-2-2 49 12 1 30 18" class="games0"/><path d="m0 52 20 11h12l20 11-10-6 1-11-21-13-13 1-9-6m1 72 4-20" class="games0"/><path d="m32 63-5 41L5 91h-6" class="games0"/><path d="m22 44-2 19-3 33m16-56-1 9M10 27 9 45 8 55m37-17-2 19m24 18 5-38 17 10-2 19m1-4 6 3 13-4 17 12 25-3m-42-9-3 37m14-20-2 27m39-21 12 7 1-15 14 8m-1 33-1 11 12 6 5-66 13 9-3 48" class="games0"/><path d="m208 119 49-2 37 27-25 5-10-12-17 3-6-5-35 4v20l-15 2v8l-14-12v-4l-11-10 1-21-11-9-8 2-13-13-22 5v-5L93 91l-22 6-17-13-22 5-1 14-4 1v18l-28 5m258-10 1-17 11 6c1-1-1-33-1-33l11 8V70M218 6V1m-21 5-11 2V1m-30 13-3-4-9 1-9-10" class="games0"/><path d="m196 26-13 2v16l-40 3 4-32 28-5V2" class="games0"/><path d="m183 28 14 12 12-3m-12 3v16l12-2m-26-10 14 12m108 105 14 8v13M256 50l78-12 18 21-1 18-46 9 45 48-40 7-10-6v7" class="games0"/><path d="M350 134v-29l-23-23m24-5-17-18V38m0 21-67 10m22-68c1 1 8 16 10 15l54-11 29 46 51-8 1-22-11-20m-11 0 21 42M786 2v4l-13 1 4 49-15 3v51l-22 1v-3l-13 1v4l-9 1 2 17-12 1 3 23-10 1v6h-7v4l-17 1v-3h-5v-5l21-2v-16l-7-14-8 1-1-14-10 1v-3l-11 1v3l-8 1v3h-5l-2-10-9 1v-3l-12 1v5h-7v-13l-2-1h-11v-3h-11v4h-8v13h-10v8h-6l-1-2h-11l1 6h-11l-3-3h-10l-1 5h-3l-32-73V34l52-7 7 20 50-6 7 18-1 19-43 9 4 9 1 19" class="games0"/><path d="m494 56 52-5 6 17 51-4V41m6 37-6-15m-57-36 1 23m6-3-1 21m19 46-13-27 8-1M717 2l-2 22 57-8M420 175v-3h8v-3h4v-4h5v-7h3v-3h8l3 3 7-1 4 2v10h4v4h5v-21h15v-13h5v-2h5v-4h5v-5h11l3 3 14-2" class="games0"/><path id="svg-concept" d="m362 562-24 70 15 10 23 4 30-89" class="games1"/><path id="svg-concept" d="m376 646-13-10-25-4m56-40-13-11-25-2m42 0-14-10-24 1m20 64-14-11-24-3m42 3h13l13-17-13-24m-8 25 8 16m-3-8 11-18" class="games1"/><path id="svg-concept" d="m404 613 20 2 24-65-35 5-12 32" class="games1"/><path id="svg-concept" d="M410 606h4l10 9m4-11-10-9-15-1m30-41-19 53m24-29-12-6h-19m33 2-10-10-20 1m43-17 18 56 19 3 9-13-15-50z" class="games1"/><path id="svg-concept" d="m468 595 19 1 9-11m-6 21-19-61m-108 91 27-83 16 4 44-8v-2l40-5 1-66h-9l14-27-4-11h-13l-23 36h-5v-16l-45-4-14 2-2-22-23-3-11 3v21l-9-2-1-24-23-3-12 3v25l-19 5v51l-14 5 1 40 34 11 29-10 22 6 26-9m-39 6 7 15m134-136-19 37" class="games1"/><path id="svg-concept" d="m482 476-31-2-1 73m-28-91v12l16 1v58h-8v14l8-1v11m-32 6V454m0 59h9v-14h-9" class="games1"/><path id="svg-concept" d="M430 527v-16h-8v17zm-15 28v-13l8-1v13m-33-1 13-5-2-85-9-2v-5" class="games1"/><path id="svg-concept" d="m401 463-40 9 3 91m-3-90-69-14m19-5 25 5 11-3-1-3" class="games1"/><path id="svg-concept" d="m311 429 24 3v26m21-24 24 3 1 30-25-5zm36 27v4m-12-28 10-3m-55-2 11-3m-41 77-13 4m50 46-1-42m-62 31 34 9 28-9" class="games1"/><path id="svg-concept" d="m313 566-1-43 29-9m-10 3 2 42m-21-36-34-8" class="games1"/><path id="svg-concept" d="m328 512-28 8v13l-13-3v-13l27-9m-15 6 12 3m-19-14 70 16m-70-30 70 13m-61 3v-28l13 2v29m22 5v-31l14 2v33m-58-18-9-1v14M0 478l60-2-1-13 31-14 54 1 9 62-29 9v16h-6v46l-21 3-7-2v2l-22 1H45l-1-9H23v3l-23 2" class="games1"/><path id="svg-concept" d="m0 536 66 2 52-1m-95 41v-41m12 41v-41m0 34h5v7m4 0-1-41M6 582v-7H0m17 7v-8h-6v8m56-3 6-1v9m6-1v-8h5v8m13 0 2-48m-9 46-2-46m9 39h5v8m5 0v-8h5v7" class="games1"/><path id="svg-concept" d="M60 476h7l-1 62 1 49m57-66-51 1-6-46" class="games1"/><path id="svg-concept" d="M124 526H69v-30" class="games1"/><path id="svg-concept" d="m90 449 7 65 56-2m-55 2-25 8m10-20 5-1-3-25-5 1z" class="games1"/><path id="svg-concept" d="m109 507 7-3 26-1-2-24h-27l-6 3z" class="games1"/><path id="svg-concept" d="M109 507v2l29-1 5-5m-30-24 3 25m-1-8h27m-28-9h27m-20 1v8m13-8v8m-41-24h14v10H94m6-9v9m34-3v-6h13m1 8h-8m1-8 1 8M13 530h48v-7H13v7zm10-24h27v9H23zm-19-6 57-1v-9l-57 2zm313-111v-4l10-3v-5l5-2-5-14h5v-7h-4v-6l-10-2-7 1v14h-8l-8 3-3 11 2 3h4v7h6v4" class="games1"/><path id="svg-concept" d="m298 385 10-4 19 1m-19-1v-20m-10 17 5-1 4-16m-4 0-3 12-7 2m7-2 3 4m5-9h18l1 9m0-16h-10v-7h11m-10-8-1 8m1-3h3v3" class="games1"/><path id="svg-concept" d="M328 351h-4v10m-4 7v-7m6 7v-7m456-89 26-1-1-27-27 1 2 27zm0-5h-4l-1-19 1-3h3" class="games1"/><path id="svg-concept" d="m777 251-33 33v29l35-25 35 7-4-32h-7v8m-24 17-1-21m-29 42v3m4-6v6m0-4h12m0-10v14" class="games1"/><path id="svg-concept" d="m772 312 5-2 16 2-1-18-17-3 2 19m0 0 1 10m13-8v7m4-24 2 18 14 1-2-16zm-4 21 6-3v6m10-4v3m-26-64h9v5h-9m26-5h-9v4h9m-16 14v-9h8v9m-18-9h6v9m27 23-5 3" class="games1"/><path d="M715 305h13l2 9 14-1 28-1 2 9 91-6 1 7M608 608l28 2 17-19-36-3" class="games0"/><path id="svg-concept" d="m507 594 16 61 63 5-16-63zm0 0 72-129m71-160-13-6-101 17-4 153 104-11-66 139m16 63 72-171-12-23 13 11 3-103" class="games1"/><path id="svg-concept" d="m622 574 3 4 40 3 14-39-30-31" class="games1"/><path id="svg-concept" d="m663 526-7 18 7 6-8 20-30-1m9-22 31 34m-57 26v1m-86-42 62 2 10 28 6-14 8 25m-48-83 29-1 6-11-30 2zm-28-55 14 8-7 16 16 16m-16-16h25m-18-16 28-2m63-176-1 159m-15 1v-11l-15 2v-13l-73 9m27-133v12l12-2v12l25-3v-14l13-2v-12m-74 12-11-8 4-102 101-22 44 38-3 71" class="games1"/><path id="svg-concept" d="m653 296 53-8 55 106-7 40-54 8-59-106z" class="games1"/><path id="svg-concept" d="m641 336 54-8 11-40m20 39-11 40-53 7m33-46 59 106M651 303l-27-14-99 19" class="games1"/><path id="svg-concept" d="m547 304 1-28 13-2-1 12 26-5v-12l13-2-1 27" class="games1"/><path id="svg-concept" d="m561 274 25-5v-13l-25 5zm1-13v-13l-24 5-1 13zm24-5 1-14 26-5v14zm14-16v14m-51-3v12m-21-20 12-2v-14l73-16v13l14-3m3-36-6 104m2-40 6 4 2-13 11 9-2 27 12 7-1 9 8 2m-214 45-32 15 14 55 52-7 52-33m-7-60-27 5-19 9" class="games1"/><path id="svg-concept" d="m532 370-13-52-36 6" class="games1"/><path id="svg-concept" d="m416 354 52-8 62-34m-61 92 18 12 14-1 8-29" class="games1"/><path id="svg-concept" d="m501 415-19-13-14-56" class="games1"/><path id="svg-concept" d="m478 410 13-2 3-13 10 6m-58-57 14-2 29-14-11-7 4-14-11-5 4-15-11-5 5-15-11-6 4-14-11-6 2-6 30 19 14-2 2-7 12-1 5-14-12-7 5-14-52-31-14 2-1 7-19-12-14 2-10 34-12 2-21 70 11 5-4 14 9 7 15-2 1-7 13-1 9-34 11 6-4 13 10 6-4 15 10 5-3 14 10 6-4 14z" class="games1"/><path id="svg-concept" d="m450 330 14-1 11 6 3-14-21-12m-17 15 13-1m-9-13 13-1 7-28-21-12m-10 36 13-2" class="games1"/><path id="svg-concept" d="m437 290 13-1 7-28m-30 23 13-1m-9-12 13-2 7-28m13 88 7-27-21-13" class="games1"/><path id="svg-concept" d="m497 252-52-31-8 28" class="games1"/><path id="svg-concept" d="m421 265 9-36 21 13m7 19-21-12" class="games1"/><path id="svg-concept" d="m398 300 18-63 10 6 11 6-4 13 10 7-3 14 10 6-4 14 11 6-4 14 11 6-4 13m51-98-52-31-6 22" class="games1"/><path id="svg-concept" d="m499 245 5-22-52-30-3 14-11-5-4 13-10-5-4 13-11-5-23 82" class="games1"/><path id="svg-concept" d="m411 299-32-18-13 2m11 5 12-1m-10-6 20-70 10 7 14-43" class="games1"/><path id="svg-concept" d="m401 206 12-2 11 6 8-29" class="games1"/><path id="svg-concept" d="m457 179-5 14-10-6-4 15-20-12-13 1m255 257-17-10v13l-7-3m137 140 31 2 3-10 2 9 31 2 5-6h13l9-46-11-12 4-88h2l2-62-14-9h-65l-1 66h4l-2 94h-14l-11 48z" class="games1"/><path id="svg-concept" d="m788 435 61-1 13 5h-75m62 0-3 96h10l-5 32 3 3-2 8 6 7" class="games1"/><path id="svg-concept" d="m845 585 6-11-5-39v-4l-32-3-11 15 4 37" class="games1"/><path id="svg-concept" d="m807 574 32 2 1 8 3-4v7m3-56-11 14 4 31m-36-33 32 2m-26-10-6-5-17-2" class="games1"/><path id="svg-concept" d="m803 530-11 48 12 12m-43-14 31 2m-28-18 31 1m45 22v8" class="games1"/><path id="svg-concept" d="m794 570 4 3-2 8m3-147v-24h9v-8h16v8h9v24" class="games1"/><path id="svg-concept" d="M807 434v-8h17v8m-16-32h-16v-17h16zm17 0v-17h16v17zm25-34-2 66m-25 95v-27h-7v-26h-8v17h-16v8h16v17h6v10m17-27v17h8v-16zm16-8h-8v-16h9m-38-37v12h8v-12m15 0v12h7v-12m9 12h-9v8h9m-62 32h5v-8h-5" class="games1"/><path id="svg-concept" d="M792 484h9v-8h-9v8z" class="games1"/><path d="m361 424-1-67-22 1v35l-11-5-63 4" class="games0"/><path id="svg-concept" d="m1002 428 12-2 12 32-3 3 6 1 5-3 8 5 18-6-9-5-5 1-2-1-4-34 23-5-9-35 3-1 19-13-3-6-23 12-8-30-7-4-28 10 2 10-7 2 5 16 9 1-9 3-30-8-10 12-1 6 28 7 7 32z" class="games1"/><path id="svg-concept" d="m1012 378 12 45 16-5m-26 8 10-3m-4 1 13 32 5-1 4 1-8 3m0-39 3 35m-29-76-1 8-13 9" class="games1"/><path id="svg-concept" d="m967 389 9-10 31 8m-30-16-1 8m82-1-5-8m-36 6 4 14h7l13-4-4-15-5-1-16 6" class="games1"/><path id="svg-concept" d="m1021 390 14-5 6 1m-6-1-3-15m3-34 12 47 5 1-2-13 4 7m-2 6-24 6m9-25-5-16-29 10m29-10 6 3m-30 1 7-2 1 3m13-4v-3l7-3m1 27 6-2-6-4-30 10M421 266l12-4" class="games1"/></svg>