<?xml version="1.0" encoding="utf-8"?>
<!-- Generator: Adobe Illustrator 25.3.0, SVG Export Plug-In . SVG Version: 6.00 Build 0)  -->
<svg version="1.1" id="Layer_1" xmlns="http://www.w3.org/2000/svg" xmlns:xlink="http://www.w3.org/1999/xlink" x="0px" y="0px"
	 viewBox="0 0 623.8 467.8" style="enable-background:new 0 0 623.8 467.8;" xml:space="preserve">
<style type="text/css">
	.st0{fill:none;stroke:#808080;stroke-linecap:round;stroke-linejoin:round;stroke-miterlimit:10;}
	.st1{fill:none;stroke:#808080;stroke-width:2;stroke-linecap:round;stroke-linejoin:round;stroke-miterlimit:10;}
	.st2{fill:none;stroke:#EE5586;stroke-width:3;stroke-linecap:round;stroke-linejoin:round;stroke-miterlimit:10;}
	.st3{fill:#EE5586;}
	.st4{fill:none;stroke:#EE5586;stroke-width:2;stroke-linecap:round;stroke-linejoin:round;stroke-miterlimit:10;}
	.st5{fill:none;stroke:#EE5586;stroke-width:2;stroke-miterlimit:10;}
</style>
<path class="st0" d="M545,17l-92,66c-5,3-9,8-9,18v272c0,10,4,14,9,18l92,58"/>
<path class="st1" d="M559,462c-8,0-14-6-14-13V17c0-7,6-12,14-12h47c7,0,13,5,13,12v432c0,7-6,13-13,13H559L559,462z"/>
<path class="st0" d="M460,117v-15 M465,113V98 M471,109V95 M478,105V91 M484,101V87 M478,309v57c0,4-3,7-7,6l-6-2c-4-1-5-4-5-7v-54
	c0-3,2-6,6-6h6C475,303,478,306,478,309L478,309z"/>
<circle id="svg-concept" class="st2" cx="40.8" cy="234" r="34.5"/>
<path class="st1" d="M196,91c-3.3-19.1,9.6-37.1,28.6-40.4c19.1-3.3,37.1,9.6,40.4,28.6c0.7,3.9,0.7,7.9,0,11.8
	c-3.3,19.1-21.3,31.9-40.4,28.6C210,117.1,198.5,105.6,196,91L196,91z"/>
<circle class="st1" cx="149.4" cy="367.9" r="34.5"/>
<path class="st0" d="M432,234L337,91 M337,91h-72 M352,234l-79,134 M273,368h-89"/>
<circle id="svg-ico" class="st3" cx="495.4" cy="233.6" r="4.5"/>
<path id="svg-concept_1_" class="st2" d="M75,234h421"/>
<g>
	<path id="svg-ico_1_" class="st3" d="M198,368c0,3-2,6-6,6s-6-3-6-6s3-6,6-6C196,362,198,365,198,368z"/>
	
		<animateMotion  accumulate="none" additive="replace" begin="1s" calcMode="paced" dur="3s" fill="remove" path="M0, 0 80 0 160 -135 0" repeatCount="indefinite" restart="always">
		</animateMotion>
</g>
<g>
	<path id="svg-ico_2_" class="st3" d="M278,90c0,4-3,6-6,6s-6-2-6-6s2-6,6-6S278,87,278,90z"/>
	
		<animateMotion  accumulate="none" additive="replace" begin="1s" calcMode="paced" dur="3s" fill="remove" path="M0, 0 65 0 160 140 0" repeatCount="indefinite" restart="always">
		</animateMotion>
</g>
<g>
	<path id="svg-ico_3_" class="st3" d="M89,234c0,3-3,6-6,6s-6-3-6-6s2-6,6-6C86,228,89,231,89,234z"/>
	
		<animateMotion  accumulate="none" additive="replace" begin="1s" calcMode="paced" dur="3s" fill="remove" path="M0, 0 412 0 0" repeatCount="indefinite" restart="always">
		</animateMotion>
</g>
<circle id="svg-concept_2_" class="st4" cx="583" cy="398.7" r="19"/>
<circle id="svg-concept_3_" class="st4" cx="583.3" cy="323.4" r="4.7"/>
<circle class="st1" cx="583.3" cy="303.6" r="4.7"/>
<circle id="svg-concept_4_" class="st5" cx="583.3" cy="399" r="7.6"/>
<path class="st0" d="M583,345L583,345c-7,0-12-5-12-12V59c0-7,5-12,12-12l0,0c7,0,13,5,13,12v274C596,340,590,345,583,345L583,345z"
	/>
</svg>
