<svg version="1.1" id="Layer_1" xmlns="http://www.w3.org/2000/svg" x="0" y="0" viewBox="0 0 603.8 423.8" style="enable-background:new 0 0 603.8 423.8" xml:space="preserve"><style>.gitpull0{fill:none;stroke:gray;stroke-linecap:round;stroke-linejoin:round;stroke-miterlimit:10}.gitpull1{fill:#ee5586}.gitpull2{fill:none;stroke:#ee5586;stroke-miterlimit:10}.gitpull2,.gitpull3{stroke-width:2;stroke-linecap:round;stroke-linejoin:round}.gitpull3,.gitpull4,.gitpull5,.gitpull6{fill:none;stroke:gray;stroke-miterlimit:10}.gitpull5,.gitpull6{stroke-linecap:round}.gitpull6{stroke:#ee5586;stroke-linejoin:round}.gitpull7{fill:gray}</style><path class="gitpull0" d="M257.6 272.4H117.7m-.2 73.7V146.4m140.1 199.7H117.5"/><g><path id="svg-ico" class="gitpull1" d="M123.5 153.4c0 3.3-2.7 6-6 6s-6-2.7-6-6 2.7-6 6-6 6 2.6 6 6z"/><animateMotion accumulate="none" additive="replace" begin="0s" calcMode="paced" dur="3s" fill="remove" path="M0, 0 0 193 140 193" repeatCount="indefinite" restart="always"/></g><g><path id="svg-ico" class="gitpull1" d="M255.8 272.4c0 3.3-2.7 6-6 6s-6-2.7-6-6 2.7-6 6-6 6 2.7 6 6z"/><animateMotion accumulate="none" additive="replace" begin="1s" calcMode="paced" dur="2s" fill="remove" path="M0, 0 -132 0 -132 -130 130" repeatCount="indefinite" restart="always"/></g><circle id="svg-concept" class="gitpull2" cx="428.5" cy="408.9" r="10.5"/><path id="svg-concept" class="gitpull2" d="M428.5 379.6v18.1m-83.4 11.2h72.5m21.8 0h72.5"/><path class="gitpull3" d="M599.4 216.5c0 5.5-4.1 10-9.1 10H266.7c-5 0-9.1-4.5-9.1-10V181c0-5.5 4.1-10 9.1-10h323.5c5 0 9.1 4.5 9.1 10v35.5h.1zM599.4 290.4c0 5.5-4.1 10-9.1 10H266.7c-5 0-9.1-4.5-9.1-10V255c0-5.5 4.1-10 9.1-10h323.5c5 0 9.1 4.5 9.1 10v35.4h.1zM599.4 363.8c0 5.5-4.1 10-9.1 10H266.7c-5 0-9.1-4.5-9.1-10v-35.4c0-5.5 4.1-10 9.1-10h323.5c5 0 9.1 4.5 9.1 10v35.4h.1z"/><path class="gitpull4" d="M2.2 136.2c0-.8.7-1.5 1.5-1.5h228.1c.8 0 1.5.7 1.5 1.5v4.6s-.1 5.6-11.7 5.6H13.9c-11.6 0-11.7-5.6-11.7-5.6v-4.6zm205.7-8.9V8.4a6 6 0 0 0-6-6.1H34.8a6 6 0 0 0-6 6.1v118.9h179.1z"/><path class="gitpull4" d="M233.3 140.8H2.2m115.5-6.1h-17.6s.3 2.5 3 2.5h29.2c2.8 0 3-2.5 3-2.5h-17.6zM36.9 15.3H199V120H36.9V15.3zM36.9 27.9H199"/><circle id="svg-ico" class="gitpull1" cx="100.4" cy="106" r="4.5"/><path class="gitpull5" d="m100.4 53.5-9 6m0 0V92m9-33.5 8.4 5m0 0v33.6"/><path class="gitpull0" d="M91.4 96.4c-1.2 0-2.2-1-2.2-2.2s1-2.2 2.2-2.2 2.2 1 2.2 2.2-1 2.2-2.2 2.2z"/><circle class="gitpull0" cx="108.8" cy="99.2" r="2.2"/><path class="gitpull5" d="m91.8 72.7 8.4 4.9"/><path id="svg-concept" class="gitpull2" d="M100.4 103.9V40"/><path class="gitpull5" d="M125.4 61.6h58.1M125.4 70.8h48.4M125.4 94h58.1M125.4 103.1h48.4M50.1 61.6h22.8M50.1 70.8h19M50.1 94h22.8M50.1 103.1h19"/><circle id="svg-concept" transform="rotate(-80.8 552.3 198.7)" class="gitpull2" cx="552.3" cy="198.7" r="14.3"/><circle id="svg-concept" class="gitpull2" cx="495.4" cy="198.7" r="3.5"/><circle class="gitpull3" cx="480.6" cy="198.7" r="3.5"/><circle id="svg-concept" class="gitpull6" cx="552.3" cy="198.7" r="5.7"/><path class="gitpull0" d="M512 198.7h0c0 5.1-4.1 9.2-9.2 9.2H296.4a9.2 9.2 0 0 1-9.2-9.2h0c0-5.1 4.1-9.2 9.2-9.2h206.4c5 0 9.2 4.1 9.2 9.2h0z"/><circle id="svg-concept" transform="rotate(-80.8 552.3 272.7)" class="gitpull2" cx="552.3" cy="272.7" r="14.3"/><circle id="svg-concept" class="gitpull2" cx="495.4" cy="272.7" r="3.5"/><circle class="gitpull3" cx="480.6" cy="272.7" r="3.5"/><circle id="svg-concept" class="gitpull6" cx="552.3" cy="272.7" r="5.7"/><path class="gitpull0" d="M512 272.7h0c0 5.1-4.1 9.2-9.2 9.2H296.4a9.2 9.2 0 0 1-9.2-9.2h0c0-5.1 4.1-9.2 9.2-9.2h206.4c5-.1 9.2 4 9.2 9.2h0z"/><circle id="svg-concept" transform="rotate(-80.8 552.3 346)" class="gitpull2" cx="552.3" cy="346.1" r="14.3"/><circle id="svg-concept" class="gitpull2" cx="495.4" cy="346.1" r="3.5"/><circle class="gitpull3" cx="480.6" cy="346.1" r="3.5"/><circle id="svg-concept" class="gitpull6" cx="552.3" cy="346.1" r="5.7"/><path class="gitpull0" d="M512 346.1h0c0 5.1-4.1 9.2-9.2 9.2H296.4a9.2 9.2 0 0 1-9.2-9.2h0c0-5.1 4.1-9.2 9.2-9.2h206.4c5 0 9.2 4.1 9.2 9.2h0z"/><circle id="svg-ico" class="gitpull1" cx="47.3" cy="22" r="2.5"/><circle class="gitpull7" cx="54.8" cy="22" r="2.5"/><circle class="gitpull7" cx="62.3" cy="22" r="2.5"/></svg>