<svg xmlns="http://www.w3.org/2000/svg" xml:space="preserve" id="Layer_1" x="0" y="0" style="enable-background:new 0 0 1099.5 337.7" version="1.1" viewBox="0 0 1100 338"><style>.hardware0{fill:#fff;stroke:#ee5586;stroke-width:3;stroke-linecap:round;stroke-linejoin:round;stroke-miterlimit:10}.hardware1{fill:none}.hardware2{stroke-opacity:.35}.hardware2,.hardware3{fill:none;stroke:gray;stroke-linecap:round;stroke-linejoin:round;stroke-miterlimit:10}.hardware4{stroke-width:3}.hardware4,.hardware5,.hardware6{fill:none;stroke:#ee5586;stroke-linecap:round;stroke-linejoin:round;stroke-miterlimit:10}.hardware6{stroke:gray}</style><path id="svg-concept" d="M189 168h-42m22-21v42m210-21h-42m21-21v42m400-21h-42m22-21v42m210-21h-42m21-21v42m-358-21h-43m22-21v42" class="hardware0"/><path id="svg-concept" d="m96 263 73-73 72 72-72 73-73-72z" class="hardware1"/><path d="M210 265c-1 2-4 2-5 0s-2-4 0-5 4-2 5 0 2 4 0 5zm-39 39c-1 2-4 2-5 0s-2-4 0-5 4-2 5 0c2 1 2 4 0 5z" class="hardware2"/><path d="m113 263 55-56 56 56-56 55-55-55z" class="hardware3"/><path d="M132 265c-1 2-4 2-5 0-2-1-2-4 0-5 1-2 4-2 5 0 2 1 2 4 0 5zm39-39c-1 2-4 2-5 0s-2-4 0-5 4-2 5 0c2 1 2 4 0 5z" class="hardware2"/><path d="m146 262 23-22 22 22-23 23-22-23z" class="hardware3"/><path d="M154 263h-2v-2h2v2zm4-4h-2v-2h2v2zm4-4h-2v-2h2v2zm4-4h-2v-2h2v2zm4-4h-2v-2h2v2zm-12 21h-2v-2h2v2zm4-4h-2v-2h2v2zm4-5h-2v-2h2v2zm4-4h-2v-2h2v2zm4-4h-2v-2h2v2zm-12 21h-2v-2h2v2zm4-4h-2v-2h2v2zm4-4h-2v-2h2v2zm4-4h-2v-2h2v2zm4-5h-2v-2h2v2zm-12 21h-2v-2h2v2zm4-4h-2v-2h2v2zm4-4h-2v-2h2v2zm4-4h-2v-2h2v2zm4-4h-2v-2h2v2zm-12 20h-2v-2h2v2zm4-4h-2v-2h2v2zm4-4h-2v-2h2v2zm4-4h-2v-2h2v2zm4-4h-2v-2h2v2z" class="hardware3"/><path id="svg-concept" d="m286 263 72-73 73 72-73 73-72-72z" class="hardware4"/><path d="M400 265c-2 2-4 2-6 0s-1-4 0-5 4-2 6 0v5zm-39 39c-2 2-4 2-6 0s-1-4 1-5 3-2 5 0v5z" class="hardware2"/><path d="m302 263 56-56 56 56-56 55-56-55z" class="hardware3"/><path d="M322 265c-2 2-4 2-6 0s-1-4 1-5 3-2 5 0v5zm39-39c-2 2-4 2-6 0s-1-4 1-5 3-2 5 0v5z" class="hardware2"/><path id="svg-concept" d="m336 262 22-22 22 22-22 23-22-23z" class="hardware5"/><path id="svg-concept" d="M343 263h-2v-2h2v2zm4-4h-2v-2h2v2zm4-4h-2v-2h2v2zm4-4h-2v-2h2v2zm4-4h-2v-2h2v2zm-12 21h-2v-2h2v2zm4-4h-2v-2h2v2zm4-5h-2v-2h2v2zm4-4h-2v-2h2v2zm4-4h-2v-2h2v2zm-12 21h-2v-2h2v2zm4-4h-2v-2h2v2zm4-4h-2v-2h2v2zm4-4h-2v-2h2v2zm4-5h-2v-2h2v2zm-12 21h-2v-2h2v2zm4-4h-2v-2h2v2zm4-4h-2v-2h2v2zm4-4h-2v-2h2v2zm4-4h-2v-2h2v2zm-12 20h-2v-2h2v2zm4-4h-2v-2h2v2zm4-4h-2v-2h2v2zm4-4h-2v-2h2v2zm4-4h-2v-2h2v2z" class="hardware5"/><g><path id="svg-concept" d="m191 168 72-72 72 72-72 72-72-72z" class="hardware1"/><path d="M305 171h-6c-2-1-1-4 0-6s4-1 6 0v6zm-39 39h-6c-2-1-1-4 0-6s4-1 6 0v6z" class="hardware2"/><path d="m208 168 55-56 56 56-56 56-55-56z" class="hardware3"/><path d="M227 171h-5c-1-1-2-4 0-6s3-1 5 0 1 4 0 6zm39-39h-6c-2-1-1-4 0-6s4-1 6 0v6z" class="hardware2"/><path d="m241 168 22-22 22 22-22 22-22-22z" class="hardware3"/><path d="M248 169h-2v-2h2v2zm4-4h-2v-2h2v2zm4-4h-2v-2h2v2zm4-4h-2v-2h2v2zm4-4h-2v-2h2v2zm-12 20h-2v-2h2v2zm4-4h-2v-2h2v2zm4-4h-2v-2h2v2zm4-4h-2v-2h2v2zm4-4h-2v-2h2v2zm-12 20h-2v-2h2v2zm4-4h-2v-2h2v2zm4-4h-2v-2h2v2zm4-4h-2v-2h2v2zm4-4h-2v-2h2v2zm-12 20h-2v-2h2v2zm4-4h-2v-2h2v2zm4-4h-2v-2h2v2zm4-4h-2v-2h2v2zm4-4h-2v-2h2v2zm-12 20h-2v-2h2v2zm4-4h-2v-2h2v2zm4-4h-2v-2h2v2zm4-4h-2v-2h2v2zm4-4h-2v-2h2v2z" class="hardware3"/><animateMotion fill="freeze" accumulate="none" additive="replace" begin="1s" calcMode="paced" dur="2s" path="M0, -25 0 0" restart="always"/></g><path id="svg-concept" d="m476 263 72-73 72 72-72 73-72-72z" class="hardware1"/><path d="M589 265c-1 2-4 2-5 0v-5c1-1 4-2 5 0 2 1 2 4 0 5zm-38 39c-2 2-4 2-6 0s-1-4 0-5 4-2 6 0v5z" class="hardware2"/><path d="m492 263 56-56 55 56-55 55-56-55z" class="hardware3"/><path d="M512 265c-2 2-4 2-6 0s-1-4 0-5 4-2 6 0v5zm39-39c-2 2-4 2-6 0s-1-4 0-5 4-2 6 0v5z" class="hardware2"/><path d="m526 262 22-22 22 22-22 23-22-23z" class="hardware3"/><path d="M533 263h-2v-2h2v2zm4-4h-2v-2h2v2zm4-4h-2v-2h2v2zm4-4h-2v-2h2v2zm4-4h-2v-2h2v2zm-12 21h-2v-2h2v2zm4-4h-2v-2h2v2zm4-5h-2v-2h2v2zm4-4h-2v-2h2v2zm4-4h-2v-2h2v2zm-12 21h-2v-2h2v2zm4-4h-2v-2h2v2zm4-4h-2v-2h2v2zm4-4h-2v-2h2v2zm4-5h-2v-2h2v2zm-12 21h-2v-2h2v2zm4-4h-2v-2h2v2zm4-4h-2v-2h2v2zm4-4h-2v-2h2v2zm4-4h-2v-2h2v2zm-12 20h-2v-2h2v2zm4-4h-2v-2h2v2zm4-4h-2v-2h2v2zm4-4h-2v-2h2v2zm4-4h-2v-2h2v2z" class="hardware3"/><path id="svg-concept" d="m665 263 73-73 72 73-73 72-72-72z" class="hardware4"/><path d="M779 265c-1 2-4 2-5 0s-2-4 0-5 4-2 5 0c2 1 2 4 0 5zm-39 39c-1 2-4 2-5 0s-2-4 0-5 4-2 5 0c2 1 2 4 0 5z" class="hardware2"/><path d="m682 262 55-55 56 55-56 56-55-56z" class="hardware3"/><path d="M701 265c-1 2-4 2-5 0s-2-4 0-5 4-2 5 0c2 1 2 4 0 5zm39-39c-1 2-4 2-5 0s-2-4 0-5 4-2 5 0c2 1 2 4 0 5z" class="hardware2"/><path id="svg-concept" d="m715 262 22-22 23 22-23 23-22-23z" class="hardware5"/><path id="svg-concept" d="M723 263h-2v-2h2v2zm4-4h-2v-2h2v2zm4-4h-2v-2h2v2zm4-4h-2v-2h2v2zm4-4h-2v-2h2v2zm-12 21h-2v-2h2v2zm4-4h-2v-2h2v2zm4-5h-2v-2h2v2zm4-4h-2v-2h2v2zm4-4h-2v-2h2v2zm-12 21h-2v-2h2v2zm4-4h-2v-2h2v2zm4-4h-2v-2h2v2zm4-4h-2v-2h2v2zm4-5h-2v-2h2v2zm-12 21h-2v-2h2v2zm4-4h-2v-2h2v2zm4-4h-2v-2h2v2zm4-4h-2v-2h2v2zm4-4h-2v-2h2v2zm-12 20h-2v-2h2v2zm4-4h-2v-2h2v2zm4-4h-2v-2h2v2zm4-4h-2v-2h2v2zm4-4h-2v-2h2v2z" class="hardware5"/><g><path id="svg-concept" d="m570 168 72-72 73 72-73 72-72-72z" class="hardware1"/><path d="M684 171h-5c-1-1-2-4 0-6s4-1 5 0c2 2 2 4 0 6zm-39 39h-5c-1-1-2-4 0-6s4-1 5 0c2 2 2 4 0 6z" class="hardware2"/><path d="m587 168 55-56 56 56-56 56-55-56z" class="hardware3"/><path d="M606 171h-5c-1-1-2-4 0-6s4-1 5 0c2 2 2 4 0 6zm39-39h-5c-1-1-2-4 0-6s4-1 5 0c2 2 2 4 0 6z" class="hardware2"/><path d="m620 168 22-22 23 22-23 22-22-22z" class="hardware3"/><path d="M627 169h-2v-2h2v2zm5-4h-2v-2h2v2zm4-4h-2v-2h2v2zm4-4h-2v-2h2v2zm4-4h-2v-2h2v2zm-12 20h-2v-2h2v2zm4-4h-2v-2h2v2zm4-4h-2v-2h2v2zm4-4h-2v-2h2v2zm4-4h-2v-2h2v2zm-12 20h-2v-2h2v2zm4-4h-2v-2h2v2zm4-4h-2v-2h2v2zm4-4h-2v-2h2v2zm4-4h-2v-2h2v2zm-12 20h-2v-2h2v2zm4-4h-2v-2h2v2zm4-4h-2v-2h2v2zm4-4h-2v-2h2v2zm4-4h-2v-2h2v2zm-12 20h-2v-2h2v2zm4-4h-2v-2h2v2zm4-4h-2v-2h2v2zm4-4h-2v-2h2v2zm4-4h-2v-2h2v2z" class="hardware3"/><animateMotion fill="freeze" accumulate="none" additive="replace" begin="1s" calcMode="paced" dur="2s" path="M0, -25 0 0" restart="always"/></g><path id="svg-concept" d="m286 74 72-73 72 73-72 72-72-72z" class="hardware4"/><path d="M400 76h-6c-2-1-1-4 0-5s4-2 6 0v5zm-39 39h-6c-1-1-1-4 1-5s3-2 5 0 1 3 0 5z" class="hardware6"/><path d="m303 73 55-55 56 55-56 56-55-56z" class="hardware3"/><path d="M322 76c-2 2-4 2-6 0s-1-4 1-5 3-2 5 0v5zm39-39c-2 2-4 2-6 0s-1-4 1-5c1-2 3-2 5 0v5z" class="hardware6"/><path id="svg-concept" d="m336 73 22-22 22 22-22 22-22-22z" class="hardware5"/><path id="svg-concept" d="M343 74h-2v-2h2v2zm4-4h-2v-2h2v2zm4-4h-2v-2h2v2zm4-4h-2v-2h2v2zm4-4h-2v-2h2v2zm-12 20h-2v-2h2v2zm4-4h-2v-2h2v2zm4-4h-2v-2h2v2zm4-4h-2v-2h2v2zm4-4h-2v-2h2v2zm-12 20h-2v-2h2v2zm4-4h-2v-2h2v2zm4-4h-2v-2h2v2zm4-4h-2v-2h2v2zm4-4h-2v-2h2v2zm-12 20h-2v-2h2v2zm4-4h-2v-2h2v2zm4-4h-2v-2h2v2zm4-4h-2v-2h2v2zm4-4h-2v-2h2v2zm-12 20h-2v-2h2v2zm4-4h-2v-2h2v2zm4-4h-2v-2h2v2zm4-4h-2v-2h2v2zm4-4h-2v-2h2v2z" class="hardware5"/><path id="svg-concept" d="m476 73 72-72 72 72-72 73-72-73z" class="hardware1"/><path d="M589 76h-5v-5c1-1 4-2 5 0s2 4 0 5zm-38 39h-6c-2-1-1-4 0-5s4-2 6 0 1 3 0 5z" class="hardware2"/><path d="m492 74 56-56 55 56-55 55-56-55z" class="hardware3"/><path d="M512 76c-2 2-4 2-6 0s-1-4 0-5 4-2 6 0v5zm39-39c-2 2-4 2-6 0s-1-4 0-5c2-2 4-2 6 0v5z" class="hardware2"/><path d="m526 73 22-22 22 22-22 22-22-22z" class="hardware3"/><path d="M533 74h-2v-2h2v2zm4-4h-2v-2h2v2zm4-4h-2v-2h2v2zm4-4h-2v-2h2v2zm4-4h-2v-2h2v2zm-12 20h-2v-2h2v2zm4-4h-2v-2h2v2zm4-4h-2v-2h2v2zm4-4h-2v-2h2v2zm4-4h-2v-2h2v2zm-12 20h-2v-2h2v2zm4-4h-2v-2h2v2zm4-4h-2v-2h2v2zm4-4h-2v-2h2v2zm4-4h-2v-2h2v2zm-12 20h-2v-2h2v2zm4-4h-2v-2h2v2zm4-4h-2v-2h2v2zm4-4h-2v-2h2v2zm4-4h-2v-2h2v2zm-12 20h-2v-2h2v2zm4-4h-2v-2h2v2zm4-4h-2v-2h2v2zm4-4h-2v-2h2v2zm4-4h-2v-2h2v2z" class="hardware3"/><path id="svg-concept" d="m380 168 73-72 72 72-72 72-73-72z" class="hardware1"/><path d="M494 171h-5v-6c1-2 4-1 5 0 2 2 2 4 0 6zm-39 39h-5v-6c1-2 4-1 5 0 2 2 2 4 0 6z" class="hardware2"/><path d="m397 168 56-56 55 56-55 56-56-56z" class="hardware3"/><path d="M417 171h-6c-2-1-1-4 0-6s4-1 6 0 1 4 0 6zm38-39h-5v-6c1-2 4-1 5 0s2 4 0 6z" class="hardware2"/><path d="m431 168 22-22 22 22-22 22-22-22z" class="hardware3"/><path d="M438 169h-2v-2h2v2zm4-4h-2v-2h2v2zm4-4h-2v-2h2v2zm4-4h-2v-2h2v2zm4-4h-2v-2h2v2zm-12 20h-2v-2h2v2zm4-4h-2v-2h2v2zm4-4h-2v-2h2v2zm4-4h-2v-2h2v2zm4-4h-2v-2h2v2zm-12 20h-2v-2h2v2zm4-4h-2v-2h2v2zm4-4h-2v-2h2v2zm4-4h-2v-2h2v2zm4-4h-2v-2h2v2zm-12 20h-2v-2h2v2zm4-4h-2v-2h2v2zm4-4h-2v-2h2v2zm4-4h-2v-2h2v2zm4-4h-2v-2h2v2zm-12 20h-2v-2h2v2zm4-4h-2v-2h2v2zm4-4h-2v-2h2v2zm4-4h-2v-2h2v2zm4-4h-2v-2h2v2z" class="hardware3"/><animateMotion fill="freeze" accumulate="none" additive="replace" begin="1s" calcMode="paced" dur="2s" path="M0, 25 0 0" restart="always"/><path id="svg-concept" d="m96 73 73-72 72 72-72 73-73-73z" class="hardware1"/><path d="M210 76h-5c-1-1-2-4 0-5s4-2 5 0c2 1 2 4 0 5zm-39 39h-5c-1-1-2-4 0-5s4-2 5 0c2 1 2 3 0 5z" class="hardware2"/><path d="m113 73 56-55 55 55-55 56-56-56z" class="hardware3"/><path d="M132 76c-1 2-4 2-5 0s-2-4 0-5c1-2 4-2 5 0 2 1 2 4 0 5zm39-39c-1 2-4 2-5 0s-2-4 0-5c1-2 4-2 5 0 2 1 2 4 0 5z" class="hardware2"/><path d="m146 73 23-22 22 22-23 22-22-22z" class="hardware3"/><path d="M154 74h-2v-2h2v2zm4-4h-2v-2h2v2zm4-4h-2v-2h2v2zm4-4h-2v-2h2v2zm4-4h-2v-2h2v2zm-12 20h-2v-2h2v2zm4-4h-2v-2h2v2zm4-4h-2v-2h2v2zm4-4h-2v-2h2v2zm4-4h-2v-2h2v2zm-12 20h-2v-2h2v2zm4-4h-2v-2h2v2zm4-4h-2v-2h2v2zm4-4h-2v-2h2v2zm4-4h-2v-2h2v2zm-12 20h-2v-2h2v2zm4-4h-2v-2h2v2zm4-4h-2v-2h2v2zm4-4h-2v-2h2v2zm4-4h-2v-2h2v2zm-12 20h-2v-2h2v2zm4-4h-2v-2h2v2zm4-4h-2v-2h2v2zm4-4h-2v-2h2v2zm4-4h-2v-2h2v2z" class="hardware3"/><path id="svg-concept" d="m1 168 72-72 73 72-73 72-72-72z" class="hardware1"/><path d="M115 171h-5c-1-1-2-4 0-6s4-1 5 0c2 2 2 4 0 6zm-39 39h-5c-1-1-2-4 0-6s4-1 5 0c2 2 2 4 0 6z" class="hardware2"/><path d="m18 168 55-56 56 56-56 56-55-56z" class="hardware3"/><path d="M37 171h-5c-2-2-2-4 0-6h5c2 2 2 4 0 6zm39-39h-5c-1-1-2-4 0-6s4-1 5 0c2 2 2 4 0 6z" class="hardware2"/><path d="m51 168 22-22 22 22-22 22-22-22z" class="hardware3"/><path d="M58 169h-2v-2h2v2zm4-4h-2v-2h2v2zm4-4h-2v-2h2v2zm4-4h-2v-2h2v2zm5-4h-2v-2h2v2zm-13 20h-2v-2h2v2zm4-4h-2v-2h2v2zm5-4h-2v-2h2v2zm4-4h-2v-2h2v2zm4-4h-2v-2h2v2zm-12 20h-2v-2h2v2zm4-4h-2v-2h2v2zm4-4h-2v-2h2v2zm4-4h-2v-2h2v2zm4-4h-2v-2h2v2zm-12 20h-2v-2h2v2zm4-4h-2v-2h2v2zm4-4h-2v-2h2v2zm4-4h-2v-2h2v2zm4-4h-2v-2h2v2zm-12 20h-2v-2h2v2zm4-4h-2v-2h2v2zm4-4h-2v-2h2v2zm4-4h-2v-2h2v2zm4-4h-2v-2h2v2z" class="hardware3"/><path id="svg-concept" d="m855 263 72-73 72 72-72 73-72-72z" class="hardware1"/><path d="M969 265c-2 2-4 2-6 0s-1-4 0-5 4-2 6 0 1 4 0 5zm-39 39c-2 2-4 2-6 0s-1-4 0-5 4-2 6 0v5z" class="hardware2"/><path d="m871 262 56-55 56 55-56 56-56-56z" class="hardware3"/><path d="M891 265c-1 2-4 2-5 0s-2-4 0-5 4-2 5 0v5zm39-39c-1 2-4 2-5 0s-2-4 0-5 4-2 5 0v5z" class="hardware2"/><path d="m905 263 22-23 22 23-22 22-22-22z" class="hardware3"/><path d="M912 263h-2v-2h2v2zm4-4h-2v-2h2v2zm4-4h-2v-2h2v2zm4-4h-2v-2h2v2zm4-4h-2v-2h2v2zm-12 21h-2v-2h2v2zm4-4h-2v-2h2v2zm4-5h-2v-2h2v2zm4-4h-2v-2h2v2zm4-4h-2v-2h2v2zm-12 21h-2v-2h2v2zm4-4h-2v-2h2v2zm4-4h-2v-2h2v2zm4-4h-2v-2h2v2zm4-5h-2v-2h2v2zm-12 21h-2v-2h2v2zm4-4h-2v-2h2v2zm4-4h-2v-2h2v2zm4-4h-2v-2h2v2zm4-4h-2v-2h2v2zm-12 20h-2v-2h2v2zm4-4h-2v-2h2v2zm4-4h-2v-2h2v2zm4-4h-2v-2h2v2zm4-4h-2v-2h2v2z" class="hardware3"/><path id="svg-concept" d="m949 168 73-72 72 72-72 72-73-72z" class="hardware1"/><path d="M1063 171h-5c-1-1-2-4 0-6s4-1 5 0c2 2 2 4 0 6zm-39 39h-5c-2-1-1-4 0-6s4-1 5 0c2 2 2 4 0 6z" class="hardware2"/><path d="m966 168 56-56 55 56-55 56-56-56z" class="hardware3"/><path d="M986 171h-6c-2-1-1-4 0-6s4-1 6 0v6zm38-39h-5c-2-1-1-4 0-6s4-1 5 0 2 4 0 6z" class="hardware2"/><path d="m1000 168 22-22 22 22-22 22-22-22z" class="hardware3"/><path d="M1007 169h-2v-2h2v2zm4-4h-2v-2h2v2zm4-4h-2v-2h2v2zm4-4h-2v-2h2v2zm4-4h-2v-2h2v2zm-12 20h-2v-2h2v2zm4-4h-2v-2h2v2zm4-4h-2v-2h2v2zm4-4h-2v-2h2v2zm4-4h-2v-2h2v2zm-12 20h-2v-2h2v2zm4-4h-2v-2h2v2zm4-4h-2v-2h2v2zm4-4h-2v-2h2v2zm4-4h-2v-2h2v2zm-12 20h-2v-2h2v2zm4-4h-2v-2h2v2zm4-4h-2v-2h2v2zm4-4h-2v-2h2v2zm4-4h-2v-2h2v2zm-12 20h-2v-2h2v2zm4-4h-2v-2h2v2zm4-4h-2v-2h2v2zm4-4h-2v-2h2v2zm4-4h-2v-2h2v2z" class="hardware3"/><path id="svg-concept" d="m665 74 72-73 73 73-73 72-72-72z" class="hardware4"/><path d="M779 76h-5c-1-1-2-4 0-5s4-2 5 0c2 1 2 4 0 5zm-39 39h-5c-1-1-2-4 0-5s4-2 5 0c2 1 2 3 0 5z" class="hardware2"/><path d="m682 73 55-55 56 55-55 56-56-56z" class="hardware3"/><path d="M701 76c-1 2-4 2-5 0s-2-4 0-5 4-2 5 0c2 1 2 4 0 5zm39-39c-1 2-4 2-5 0s-2-4 0-5c1-2 4-2 5 0 2 1 2 4 0 5z" class="hardware2"/><path id="svg-concept" d="m715 73 22-22 23 22-22 22-23-22z" class="hardware5"/><path id="svg-concept" d="M723 74h-2v-2h2v2zm4-4h-2v-2h2v2zm4-4h-2v-2h2v2zm4-4h-2v-2h2v2zm4-4h-2v-2h2v2zm-12 20h-2v-2h2v2zm4-4h-2v-2h2v2zm4-4h-2v-2h2v2zm4-4h-2v-2h2v2zm4-4h-2v-2h2v2zm-12 20h-2v-2h2v2zm4-4h-2v-2h2v2zm4-4h-2v-2h2v2zm4-4h-2v-2h2v2zm4-4h-2v-2h2v2zm-12 20h-2v-2h2v2zm4-4h-2v-2h2v2zm4-4h-2v-2h2v2zm4-4h-2v-2h2v2zm4-4h-2v-2h2v2zm-12 20h-2v-2h2v2zm4-4h-2v-2h2v2zm4-4h-2v-2h2v2zm4-4h-2v-2h2v2zm4-4h-2v-2h2v2z" class="hardware5"/><path id="svg-concept" d="m855 74 72-73 72 73-72 72-72-72z" class="hardware1"/><path d="M969 76h-6c-2-1-1-4 0-5s4-2 6 0 1 4 0 5zm-39 39h-6c-2-1-1-4 0-5s4-2 6 0 1 3 0 5z" class="hardware2"/><path d="m871 73 56-55 56 55-56 56-56-56z" class="hardware3"/><path d="M891 76c-1 2-4 2-5 0s-2-4 0-5 4-2 5 0v5zm39-39c-1 2-4 2-5 0s-2-4 0-5c1-2 4-2 5 0v5z" class="hardware2"/><path d="m905 73 22-22 22 22-22 23-22-23z" class="hardware3"/><path d="M912 74h-2v-2h2v2zm4-4h-2v-2h2v2zm4-4h-2v-2h2v2zm4-4h-2v-2h2v2zm4-4h-2v-2h2v2zm-12 20h-2v-2h2v2zm4-4h-2v-2h2v2zm4-4h-2v-2h2v2zm4-4h-2v-2h2v2zm4-4h-2v-2h2v2zm-12 20h-2v-2h2v2zm4-4h-2v-2h2v2zm4-4h-2v-2h2v2zm4-4h-2v-2h2v2zm4-4h-2v-2h2v2zm-12 20h-2v-2h2v2zm4-4h-2v-2h2v2zm4-4h-2v-2h2v2zm4-4h-2v-2h2v2zm4-4h-2v-2h2v2zm-12 20h-2v-2h2v2zm4-4h-2v-2h2v2zm4-4h-2v-2h2v2zm4-4h-2v-2h2v2zm4-4h-2v-2h2v2z" class="hardware3"/><g><path id="svg-concept" d="m760 168 72-72 72 72-72 72-72-72z" class="hardware1"/><path d="M874 171h-6c-2-1-1-4 0-6s4-1 6 0v6zm-39 39h-6c-2-1-1-4 0-6s4-1 6 0v6z" class="hardware2"/><path d="m777 168 55-56 56 56-56 56-55-56z" class="hardware3"/><path d="M796 171h-6c-2-1-1-4 0-6s4-1 6 0v6zm39-39h-6c-2-1-1-4 0-6s4-1 6 0v6z" class="hardware2"/><path d="m810 168 22-22 22 22-22 22-22-22z" class="hardware3"/><path d="M817 169h-2v-2h2v2zm4-4h-2v-2h2v2zm4-4h-2v-2h2v2zm4-4h-2v-2h2v2zm4-4h-2v-2h2v2zm-12 20h-2v-2h2v2zm4-4h-2v-2h2v2zm4-4h-2v-2h2v2zm4-4h-2v-2h2v2zm4-4h-2v-2h2v2zm-12 20h-2v-2h2v2zm4-4h-2v-2h2v2zm4-4h-2v-2h2v2zm4-4h-2v-2h2v2zm4-4h-2v-2h2v2zm-12 20h-2v-2h2v2zm4-4h-2v-2h2v2zm4-4h-2v-2h2v2zm4-4h-2v-2h2v2zm4-4h-2v-2h2v2zm-12 20h-2v-2h2v2zm4-4h-2v-2h2v2zm4-4h-2v-2h2v2zm4-4h-2v-2h2v2zm4-4h-2v-2h2v2z" class="hardware3"/><animateMotion fill="freeze" accumulate="none" additive="replace" begin="1s" calcMode="paced" dur="2s" path="M0, 25 0 0" restart="always"/></g></svg>