<svg xmlns="http://www.w3.org/2000/svg" xml:space="preserve" id="Layer_1" x="0" y="0" style="enable-background:new 0 0 611.6 522.7" version="1.1" viewBox="0 0 612 523"><style>.iptvdevices0{stroke:gray}.iptvdevices0,.iptvdevices1,.iptvdevices2,.iptvdevices3{fill:none;stroke-linecap:round;stroke-linejoin:round;stroke-miterlimit:10}.iptvdevices1{stroke:#ee5586;stroke-width:3}.iptvdevices2{stroke:gray;stroke-width:2}.iptvdevices3{stroke:gray;stroke-width:3}</style><path d="m143 84 1-1h80l1 1v2s0 2-5 2h-73c-4 0-4-2-4-2v-2h0zm73-1V42c0-2-1-3-2-3h-59l-2 2v42h63z" class="iptvdevices0"/><path id="svg-concept" d="M159 47h50v31h-50V47z" class="iptvdevices0"/><path d="M119 203H70c-3 0-6 2-6 5v92c0 3 3 5 6 5h49c2 0 5-2 5-5v-92c0-2-2-5-5-5z" class="iptvdevices0"/><path d="M72 214h44v73H72v-73zm15 10-4 4m16-4-17 18" class="iptvdevices0"/><path id="svg-concept" d="M318 308c-12 7-23 1-23-12v-79c0-13 11-19 23-12l68 39c11 7 11 18 0 25l-68 39z" class="iptvdevices1"/><path d="M232 33a250 250 0 0 1 218-4M107 176c8-24 20-47 35-67m7 304c-18-22-32-47-41-74m368 131a249 249 0 0 1-234 15" class="iptvdevices2"/><path d="M158 463h68m-34 16v9m15 0h-30m-20-62h69v53h-69v-53z" class="iptvdevices0"/><g><path id="svg-concept" d="M491 53a250 250 0 0 1 32 380" class="iptvdevices3"/><animate fill="remove" accumulate="none" additive="replace" attributeName="opacity" begin="1s" calcMode="linear" dur="2s" repeatCount="indefinite" restart="always" values="0;3;0"/></g><g><path id="svg-concept" d="M439 103a179 179 0 0 1 36 288" class="iptvdevices3"/><animate fill="remove" accumulate="none" additive="replace" attributeName="opacity" begin="2s" calcMode="linear" dur="2s" repeatCount="indefinite" restart="always" values="0;3;0"/></g><g><path id="svg-concept" d="M406 150a128 128 0 0 1 15 209" class="iptvdevices3"/><animate fill="remove" accumulate="none" additive="replace" attributeName="opacity" begin="3s" calcMode="linear" dur="2s" repeatCount="indefinite" restart="always" values="0;3;0"/></g><circle id="svg-concept" cx="94" cy="256.6" r="82.2" class="iptvdevices1"/><circle cx="183.1" cy="66.9" r="59.2" class="iptvdevices2"/><circle cx="191.8" cy="453.7" r="59.2" class="iptvdevices2"/></svg>