<svg xmlns="http://www.w3.org/2000/svg" xml:space="preserve" id="Layer_1" x="0" y="0" version="1.1" viewBox="0 0 409 420"><style>.kanga1{fill:none;stroke:gray;stroke-linecap:round;stroke-linejoin:round;stroke-miterlimit:10}</style><path id="svg-concept" fill="none" stroke="#ee5586" stroke-linecap="round" stroke-linejoin="round" stroke-miterlimit="10" stroke-width="3" d="M204 130s10-9 30-1C280 23 390-3 403 5s-40 142-82 152-28 61-28 61l1 1a99 99 0 0 1-34 128v1l1 12a57 57 0 1 1-112-12h0a100 100 0 0 1-34-129v-1s15-51-27-61S-7 13 6 4s123 18 168 126c21-9 30 0 30 0"/><path d="M94 51s46 38 33 112M312 51s-47 38-33 112M171 284c8 72-28 73 0 105m67-105c-8 72 28 73 0 105" class="kanga1"/><path d="M230 350c13 41-26 26-26 53 0-27-39-9-27-53 0 0 11 23 27 23s26-23 26-23zm-80-110 1 4c0 5-4 9-9 9s-10-4-10-9c0-4 3-7 6-9m129 0c4 1 6 5 6 9 0 5-4 9-9 9a9 9 0 0 1-9-12m-131-15s-7-21 35-21m124 21s7-21-35-21m-97 65s-26 22-26-7m129 7s27 22 27-7" class="kanga1"/><path d="M123 234c14 4-1 15 11 23 12 7 22-10 27-4-11-24-38-19-38-19zm161 0c-14 4 1 15-11 23-12 7-22-10-28-4 11-24 39-19 39-19z" class="kanga1"/></svg>