<svg xmlns="http://www.w3.org/2000/svg" xml:space="preserve" id="Layer_1" x="0" y="0" version="1.1" viewBox="0 0 413 420"><style>.lion1,.lion2{fill:none;stroke-linecap:round;stroke-linejoin:round;stroke-miterlimit:10}.lion1{stroke-width:2;stroke:#ee5586}.lion2{stroke:gray}</style><path id="svg-concept" fill="none" stroke="#ee5586" stroke-linecap="round" stroke-linejoin="round" stroke-miterlimit="10" stroke-width="3" d="M205 415s143-60 157-189c12 16 18 48 18 48s53-102-9-176c22 4 35 17 35 17S376 13 261 32c12-21 32-27 32-27s-44-6-88 42v1C161 0 116 5 116 5s20 6 32 27C33 13 3 115 3 115s14-13 35-17c-61 74-9 176-9 176s6-32 19-49c13 129 157 190 157 190h0z"/><path id="svg-concept" d="m173 308 32 27 33-27-33-15z" class="lion1"/><path d="M250 97c12-15 54-25 53-13s-16 36-16 36l43 38-60 76 4 53-27 13-42-19-43 19-26-13 4-53-60-76 43-38s-16-25-17-36 41-2 54 13l45-21 45 21zm-45 163v21" class="lion2"/><path id="svg-concept" d="m182 239 23 15 24-15z" class="lion1"/><path d="m182 168-9 40-2-32-11 5-21-24zm47 0 9 40 2-32 11 5 21-24zm-98-54 19-11c-17-13-33-16-20 11zm148 0-19-11c16-13 32-16 19 11z" class="lion2"/></svg>