<svg xmlns="http://www.w3.org/2000/svg" xml:space="preserve" id="Layer_1" x="0" y="0" style="enable-background:new 0 0 850 595" version="1.1" viewBox="0 0 850 595"><style>.maintenance0,.maintenance1{fill:none;stroke:#414142;stroke-linecap:round;stroke-linejoin:round;stroke-miterlimit:10}.maintenance1{stroke:gray;stroke-width:2}.maintenance2{fill:#ee5586}.maintenance3{fill:gray}.maintenance4{fill:none;stroke:#414142;stroke-linecap:round;stroke-linejoin:round;stroke-miterlimit:10}.maintenance4,.maintenance5{stroke-width:2}.maintenance5,.maintenance6{fill:none;stroke:#ee5586;stroke-linecap:round;stroke-linejoin:round;stroke-miterlimit:10}.maintenance7{fill:none}.maintenance7,.maintenance8{stroke-linecap:round;stroke-linejoin:round;stroke-miterlimit:10}.maintenance7{stroke:gray}.maintenance8{fill:#fff;stroke:#ee5586}.maintenance10,.maintenance9{fill:none;stroke-miterlimit:10}.maintenance9{stroke:gray}.maintenance10{stroke:#414142}</style><path d="M525 539h115m-433 0h104m219-52h31m-275 0h63m108-44h37m-141 0h39m63-44h40m-144 0h45M0 595l57-29m296-126 43-29M117 595l42-28m119 28 117-162m30 162v-22m425 22-62-29M493 438l-38-25m273 182-42-28M469 453l-14-20m117 162-43-60" class="maintenance0"/><path d="M62 53h101v510H62z" class="maintenance1"/><path d="M218 392v136l-56 36V53l56 41v236" class="maintenance1"/><path d="M212 392v132l-44 26V65l44 31v234" class="maintenance1"/><path d="m205 136-31-17V96l31 18zm0 27-31-14v-23l31 17zm0 27-31-11v-24l31 16zm0 29-31-10v-23l31 12zm0 27-31-8v-23l31 11zm0 27-31-5v-23l31 8zm0 28-31-3v-23l31 6zm0 27h-31v-23l31 3zm-9 30h-22m0-23h22m9 50-31 3m0-22 31-2m0 47-31 6v-21l31-6zm0 28-31 8v-22l31-8zm0 27-31 11v-21l31-9zm0 27-31 14v-22l31-12zm0 27-31 17v-22l31-14z" class="maintenance1"/><circle id="svg-ico" cx="185.8" cy="114.5" r="2" class="maintenance2"/><circle id="svg-ico" cx="193" cy="119.2" r="2" class="maintenance2"/><circle cx="200.2" cy="123.8" r="2" class="maintenance3"/><circle cx="178.4" cy="110.5" r="2" class="maintenance3"/><circle cx="186.1" cy="143.5" r="2" class="maintenance3"/><circle cx="193.3" cy="147.4" r="2" class="maintenance3"/><g><circle id="svg-ico" cx="200.6" cy="151.6" r="2" class="maintenance2"/><animate fill="remove" accumulate="none" additive="replace" attributeName="opacity" calcMode="linear" dur="0.5s" repeatCount="indefinite" restart="always" values="0;1;0"/></g><circle cx="178.7" cy="140.2" r="2" class="maintenance3"/><circle id="svg-ico" cx="185.4" cy="172.6" r="2" class="maintenance2"/><circle cx="192.7" cy="176" r="2" class="maintenance3"/><circle cx="199.8" cy="179" r="2" class="maintenance3"/><circle cx="178.1" cy="169.7" r="2" class="maintenance3"/><circle cx="185.7" cy="202.1" r="2" class="maintenance3"/><circle cx="193.1" cy="205.1" r="2" class="maintenance3"/><circle cx="200" cy="207.5" r="2" class="maintenance3"/><circle cx="178.6" cy="199.7" r="2" class="maintenance3"/><circle cx="185.8" cy="230.4" r="2" class="maintenance3"/><g><circle id="svg-ico" cx="192.9" cy="233.1" r="2" class="maintenance2"/><animate fill="remove" accumulate="none" additive="replace" attributeName="opacity" calcMode="linear" dur="0.8s" repeatCount="indefinite" restart="always" values="0;1;0"/></g><g><circle id="svg-ico" cx="200.3" cy="235.1" r="2" class="maintenance2"/><animate fill="remove" accumulate="none" additive="replace" attributeName="opacity" calcMode="linear" dur="0.7s" repeatCount="indefinite" restart="always" values="0;1;0"/></g><circle cx="178.3" cy="228.4" r="2" class="maintenance3"/><circle id="svg-ico" cx="185.6" cy="259.6" r="2" class="maintenance2"/><circle cx="193.1" cy="261.2" r="2" class="maintenance3"/><circle cx="200.2" cy="262.9" r="2" class="maintenance3"/><circle cx="178.4" cy="258.1" r="2" class="maintenance3"/><circle id="svg-ico" cx="185.7" cy="289.4" r="2" class="maintenance2"/><g><circle id="svg-ico" cx="192.7" cy="290.2" r="2" class="maintenance2"/><animate fill="remove" accumulate="none" additive="replace" attributeName="opacity" calcMode="linear" dur="0.5s" repeatCount="indefinite" restart="always" values="0;1;0"/></g><circle cx="200.2" cy="291.1" r="2" class="maintenance3"/><circle cx="178.4" cy="288.7" r="2" class="maintenance3"/><circle cx="185.5" cy="317.9" r="2" class="maintenance3"/><circle cx="193.1" cy="317.9" r="2" class="maintenance3"/><circle cx="200.4" cy="317.6" r="2" class="maintenance3"/><circle cx="178.2" cy="318.1" r="2" class="maintenance3"/><circle cx="204.3" cy="345.5" r="1.3" class="maintenance3"/><circle cx="209.4" cy="345.5" r="1.3" class="maintenance3"/><circle cx="214.1" cy="345.3" r="1.3" class="maintenance3"/><circle cx="199.6" cy="345.7" r="1.3" class="maintenance3"/><circle cx="213.7" cy="374" r="1.3" class="maintenance3"/><circle cx="218.7" cy="373.4" r="1.3" class="maintenance3"/><circle cx="223.4" cy="372.7" r="1.3" class="maintenance3"/><circle cx="209" cy="374.8" r="1.3" class="maintenance3"/><path d="m218 356-22 2v-23l22 1zm9 26-22 3v-21l22-3z" class="maintenance1"/><circle cx="185.7" cy="405.5" r="2" class="maintenance3"/><g><circle id="svg-ico" cx="192.6" cy="403.5" r="2" class="maintenance2"/><animate fill="remove" accumulate="none" additive="replace" attributeName="opacity" calcMode="linear" dur="0.5s" repeatCount="indefinite" restart="always" values="0;1;0"/></g><g><circle id="svg-ico" cx="200.2" cy="402.1" r="2" class="maintenance2"/><animate fill="remove" accumulate="none" additive="replace" attributeName="opacity" calcMode="linear" dur="0.7s" repeatCount="indefinite" restart="always" values="0;1;0"/></g><circle cx="178.4" cy="407.1" r="2" class="maintenance3"/><circle id="svg-ico" cx="185.7" cy="434" r="2" class="maintenance2"/><circle cx="192.6" cy="431.5" r="2" class="maintenance3"/><circle cx="200.4" cy="429.2" r="2" class="maintenance3"/><circle cx="178.2" cy="436.3" r="2" class="maintenance3"/><circle cx="185.8" cy="463.1" r="2" class="maintenance3"/><g><circle id="svg-ico" cx="192.7" cy="460.5" r="2" class="maintenance2"/><animate fill="remove" accumulate="none" additive="replace" attributeName="opacity" calcMode="linear" dur="0.8s" repeatCount="indefinite" restart="always" values="0;1;0"/></g><circle cx="200.4" cy="458.2" r="2" class="maintenance3"/><circle cx="178.3" cy="465.4" r="2" class="maintenance3"/><circle cx="185.7" cy="490.7" r="2" class="maintenance3"/><circle cx="192.6" cy="488.1" r="2" class="maintenance3"/><circle cx="200.4" cy="485.9" r="2" class="maintenance3"/><circle cx="178.2" cy="493" r="2" class="maintenance3"/><circle cx="185.7" cy="519.6" r="2" class="maintenance3"/><circle id="svg-ico" cx="192.6" cy="516.2" r="2" class="maintenance2"/><circle id="svg-ico" cx="200.3" cy="512.9" r="2" class="maintenance2"/><circle cx="178.3" cy="522.7" r="2" class="maintenance3"/><path d="M218 118h28v391h-28m71-27-43 27V118l43 31z" class="maintenance1"/><path d="m284 479-33 19V126l33 24z" class="maintenance1"/><path d="m279 181-24-13v-18l24 14zm0 21-24-11v-18l24 14zm0 21-24-9v-18l24 12zm0 84-24-2v-17l24 4zm0 21h-24v-17l24 2zm0 21-24 2v-17h24zm0 22-24 3v-17l24-2zm0 21-24 5v-17l24-4zm0 21-24 6v-16l24-6zm0 21-24 9v-17l24-7zm0 21-24 10v-16l24-9zm0 21-24 12v-16l24-11z" class="maintenance1"/><g><circle id="svg-ico" cx="264.2" cy="164.5" r="1.5" class="maintenance2"/><animate fill="remove" accumulate="none" additive="replace" attributeName="opacity" calcMode="linear" dur="0.8s" repeatCount="indefinite" restart="always" values="0;1;0"/></g><g><circle id="svg-ico" cx="269.8" cy="168.1" r="1.5" class="maintenance2"/><animate fill="remove" accumulate="none" additive="replace" attributeName="opacity" calcMode="linear" dur="0.7s" repeatCount="indefinite" restart="always" values="0;1;0"/></g><circle cx="275.3" cy="171.7" r="1.5" class="maintenance3"/><circle cx="258.6" cy="161.5" r="1.5" class="maintenance3"/><circle cx="264.5" cy="186.8" r="1.5" class="maintenance3"/><circle id="svg-ico" cx="270" cy="189.7" r="1.5" class="maintenance2"/><circle cx="275.6" cy="193" r="1.5" class="maintenance3"/><circle cx="258.8" cy="184.2" r="1.5" class="maintenance3"/><circle cx="263.9" cy="209.1" r="1.5" class="maintenance3"/><circle cx="269.6" cy="211.7" r="1.5" class="maintenance3"/><circle cx="275" cy="214" r="1.5" class="maintenance3"/><g><circle id="svg-ico" cx="258.3" cy="206.9" r="1.5" class="maintenance2"/><animate fill="remove" accumulate="none" additive="replace" attributeName="opacity" calcMode="linear" dur="0.4s" repeatCount="indefinite" restart="always" values="0;1;0"/></g><circle id="svg-ico" cx="264.2" cy="298.7" r="1.5" class="maintenance2"/><circle id="svg-ico" cx="269.5" cy="299.3" r="1.5" class="maintenance2"/><circle cx="275.3" cy="300" r="1.5" class="maintenance3"/><circle cx="258.6" cy="298.1" r="1.5" class="maintenance3"/><circle cx="264" cy="320.5" r="1.5" class="maintenance3"/><circle cx="269.9" cy="320.5" r="1.5" class="maintenance3"/><circle cx="275.4" cy="320.3" r="1.5" class="maintenance3"/><circle cx="258.4" cy="320.7" r="1.5" class="maintenance3"/><circle cx="263.8" cy="343.1" r="1.5" class="maintenance3"/><g><circle id="svg-ico" cx="269.6" cy="342.7" r="1.5" class="maintenance2"/><animate fill="remove" accumulate="none" additive="replace" attributeName="opacity" calcMode="linear" dur="0.5s" repeatCount="indefinite" restart="always" values="0;1;0"/></g><circle cx="275.3" cy="342.2" r="1.5" class="maintenance3"/><circle cx="258.4" cy="343.5" r="1.5" class="maintenance3"/><g><circle id="svg-ico" cx="264.1" cy="365" r="1.5" class="maintenance2"/><animate fill="remove" accumulate="none" additive="replace" attributeName="opacity" calcMode="linear" dur="0.6s" repeatCount="indefinite" restart="always" values="0;1;0"/></g><circle id="svg-ico" cx="269.5" cy="364.2" r="1.5" class="maintenance2"/><circle cx="275.3" cy="363.4" r="1.5" class="maintenance3"/><circle cx="258.6" cy="365.9" r="1.5" class="maintenance3"/><circle id="svg-ico" cx="264.2" cy="387.7" r="1.5" class="maintenance2"/><circle cx="269.5" cy="386.2" r="1.5" class="maintenance3"/><circle cx="275.3" cy="385.1" r="1.5" class="maintenance3"/><circle cx="258.6" cy="388.9" r="1.5" class="maintenance3"/><g><circle id="svg-ico" cx="264.2" cy="409.6" r="1.5" class="maintenance2"/><animate fill="remove" accumulate="none" additive="replace" attributeName="opacity" calcMode="linear" dur="0.6s" repeatCount="indefinite" restart="always" values="0;1;0"/></g><circle cx="269.5" cy="407.6" r="1.5" class="maintenance3"/><g><circle id="svg-ico" cx="275.4" cy="405.9" r="1.5" class="maintenance2"/><animate fill="remove" accumulate="none" additive="replace" attributeName="opacity" calcMode="linear" dur="0.4s" repeatCount="indefinite" restart="always" values="0;1;0"/></g><circle cx="258.4" cy="411.3" r="1.5" class="maintenance3"/><circle id="svg-ico" cx="264.2" cy="431.8" r="1.5" class="maintenance2"/><g><circle cx="269.5" cy="429.9" r="1.5" class="maintenance3"/><animate fill="remove" accumulate="none" additive="replace" attributeName="opacity" calcMode="linear" dur="0.7s" repeatCount="indefinite" restart="always" values="0;1;0"/></g><circle cx="275.5" cy="428.1" r="1.5" class="maintenance3"/><circle cx="258.5" cy="433.6" r="1.5" class="maintenance3"/><circle cx="264.2" cy="453.4" r="1.5" class="maintenance3"/><circle id="svg-ico" cx="269.5" cy="451.4" r="1.5" class="maintenance2"/><circle cx="275.4" cy="449.7" r="1.5" class="maintenance3"/><circle cx="258.4" cy="455.2" r="1.5" class="maintenance3"/><circle cx="264.2" cy="475.2" r="1.5" class="maintenance3"/><circle id="svg-ico" cx="269.5" cy="472.6" r="1.5" class="maintenance2"/><circle cx="275.4" cy="470.1" r="1.5" class="maintenance3"/><circle cx="258.5" cy="477.6" r="1.5" class="maintenance3"/><path d="M289 173h29v289h-29m60-20-31 20V173l31 23z" class="maintenance4"/><path d="m346 440-25 14V180l25 17z" class="maintenance4"/><path d="m342 220-17-9v-14l17 10zm0 16-17-8v-14l17 10zm0 15-17-7v-13l17 9zm0 16-17-6v-13l17 7zm0 15-17-4v-13l17 6zm0 16-17-3v-13l17 4zm0 15-17-1v-13l17 3zm0 16h-17v-13l17 2zm0 15-17 2v-13h17zm0 16-17 3v-13l17-2zm0 16-17 3v-12l17-3zm0 15-17 5v-12l17-5zm0 16-17 6v-12l17-5zm0 15-17 8v-12l17-7zm0 16-17 9v-12l17-8z" class="maintenance4"/><circle id="svg-ico" cx="331.4" cy="207.9" r="1.1" class="maintenance2"/><circle cx="335.4" cy="210.6" r="1.1" class="maintenance3"/><circle cx="339.6" cy="213.2" r="1.1" class="maintenance3"/><circle cx="327.2" cy="205.6" r="1.1" class="maintenance3"/><circle cx="331.6" cy="224.3" r="1.1" class="maintenance3"/><g><circle id="svg-ico" cx="335.6" cy="226.5" r="1.1" class="maintenance2"/><animate fill="remove" accumulate="none" additive="replace" attributeName="opacity" calcMode="linear" dur="0.7s" repeatCount="indefinite" restart="always" values="0;1;0"/></g><circle cx="339.8" cy="228.9" r="1.1" class="maintenance3"/><circle cx="327.4" cy="222.4" r="1.1" class="maintenance3"/><circle id="svg-ico" cx="331.2" cy="240.8" r="1.1" class="maintenance2"/><circle cx="335.3" cy="242.7" r="1.1" class="maintenance3"/><circle cx="339.3" cy="244.4" r="1.1" class="maintenance3"/><circle cx="327" cy="239.2" r="1.1" class="maintenance3"/><circle cx="331.3" cy="257.5" r="1.1" class="maintenance3"/><g><circle id="svg-ico" cx="335.5" cy="259.2" r="1.1" class="maintenance2"/><animate fill="remove" accumulate="none" additive="replace" attributeName="opacity" calcMode="linear" dur="0.6s" repeatCount="indefinite" restart="always" values="0;1;0"/></g><g><circle id="svg-ico" cx="339.4" cy="260.5" r="1.1" class="maintenance2"/><animate fill="remove" accumulate="none" additive="replace" attributeName="opacity" calcMode="linear" dur="0.9s" repeatCount="indefinite" restart="always" values="0;1;0"/></g><circle cx="327.3" cy="256.1" r="1.1" class="maintenance3"/><circle id="svg-ico" cx="331.4" cy="273.5" r="1.1" class="maintenance2"/><circle cx="335.4" cy="275" r="1.1" class="maintenance3"/><circle cx="339.6" cy="276.2" r="1.1" class="maintenance3"/><circle cx="327.1" cy="272.4" r="1.1" class="maintenance3"/><circle cx="331.3" cy="290.1" r="1.1" class="maintenance3"/><circle cx="335.5" cy="291" r="1.1" class="maintenance3"/><circle cx="339.6" cy="291.9" r="1.1" class="maintenance3"/><circle cx="327.2" cy="289.2" r="1.1" class="maintenance3"/><g><circle id="svg-ico" cx="331.3" cy="306.9" r="1.1" class="maintenance2"/><animate fill="remove" accumulate="none" additive="replace" attributeName="opacity" calcMode="linear" dur="0.8s" repeatCount="indefinite" restart="always" values="0;1;0"/></g><circle id="svg-ico" cx="335.3" cy="307.4" r="1.1" class="maintenance2"/><circle cx="339.6" cy="307.9" r="1.1" class="maintenance3"/><circle cx="327.2" cy="306.5" r="1.1" class="maintenance3"/><circle cx="331.2" cy="323.1" r="1.1" class="maintenance3"/><circle cx="335.5" cy="323.1" r="1.1" class="maintenance3"/><circle cx="339.6" cy="322.9" r="1.1" class="maintenance3"/><circle cx="327.1" cy="323.2" r="1.1" class="maintenance3"/><circle cx="331.1" cy="339.7" r="1.1" class="maintenance3"/><circle id="svg-ico" cx="335.4" cy="339.4" r="1.1" class="maintenance2"/><circle cx="339.5" cy="339" r="1.1" class="maintenance3"/><circle cx="327.1" cy="340" r="1.1" class="maintenance3"/><circle id="svg-ico" cx="331.3" cy="355.9" r="1.1" class="maintenance2"/><circle cx="335.3" cy="355.3" r="1.1" class="maintenance3"/><circle cx="339.5" cy="354.7" r="1.1" class="maintenance3"/><circle cx="327.2" cy="356.5" r="1.1" class="maintenance3"/><circle cx="331.3" cy="372.6" r="1.1" class="maintenance3"/><g><circle id="svg-ico" cx="335.2" cy="371.5" r="1.1" class="maintenance2"/><animate fill="remove" accumulate="none" additive="replace" attributeName="opacity" calcMode="linear" dur="0.6s" repeatCount="indefinite" restart="always" values="0;1;0"/></g><circle id="svg-ico" cx="339.5" cy="370.7" r="1.1" class="maintenance2"/><circle cx="327.2" cy="373.5" r="1.1" class="maintenance3"/><circle id="svg-ico" cx="331.3" cy="388.8" r="1.1" class="maintenance2"/><circle cx="335.3" cy="387.3" r="1.1" class="maintenance3"/><circle cx="339.6" cy="386.1" r="1.1" class="maintenance3"/><circle cx="327.1" cy="390.1" r="1.1" class="maintenance3"/><circle cx="331.4" cy="405.2" r="1.1" class="maintenance3"/><circle id="svg-ico" cx="335.3" cy="403.8" r="1.1" class="maintenance2"/><circle cx="339.7" cy="402.5" r="1.1" class="maintenance3"/><circle cx="327.1" cy="406.5" r="1.1" class="maintenance3"/><circle id="svg-ico" cx="331.3" cy="421.1" r="1.1" class="maintenance2"/><circle cx="335.3" cy="419.7" r="1.1" class="maintenance3"/><circle cx="339.6" cy="418.4" r="1.1" class="maintenance3"/><circle cx="327.1" cy="422.5" r="1.1" class="maintenance3"/><circle cx="331.3" cy="437.2" r="1.1" class="maintenance3"/><circle id="svg-ico" cx="335.2" cy="435.3" r="1.1" class="maintenance2"/><circle id="svg-ico" cx="339.6" cy="433.4" r="1.1" class="maintenance2"/><circle cx="327.1" cy="439" r="1.1" class="maintenance3"/><path d="M785 564H684V54h101zm-156-36 55 36V53l-55 41z" class="maintenance1"/><path d="m634 524 44 26V65l-44 31z" class="maintenance1"/><path d="m641 136 31-17V96l-31 18zm0 27 31-14v-23l-31 17zm0 27 31-11v-24l-31 16zm0 29 31-10v-23l-31 12zm0 27 31-8v-23l-31 11zm0 27 31-5v-23l-31 8zm0 138 31 6v-21l-31-6zm0 28 31 8v-22l-31-8zm0 27 31 11v-21l-31-9zm0 27 31 14v-22l-31-12zm0 27 31 17v-22l-31-14z" class="maintenance1"/><circle id="svg-ico" cx="660.3" cy="114.5" r="2" class="maintenance2"/><circle id="svg-ico" cx="653.1" cy="119.2" r="2" class="maintenance2"/><circle id="svg-ico" cx="645.8" cy="123.8" r="2" class="maintenance2"/><circle cx="667.7" cy="110.5" r="2" class="maintenance3"/><circle cx="660" cy="143.5" r="2" class="maintenance3"/><circle id="svg-ico" cx="652.8" cy="147.4" r="2" class="maintenance2"/><circle cx="645.5" cy="151.6" r="2" class="maintenance3"/><circle cx="667.4" cy="140.2" r="2" class="maintenance3"/><circle id="svg-ico" cx="660.7" cy="172.6" r="2" class="maintenance2"/><circle cx="653.4" cy="176" r="2" class="maintenance3"/><circle cx="646.3" cy="179" r="2" class="maintenance3"/><circle id="svg-ico" cx="668" cy="169.7" r="2" class="maintenance2"/><g><circle id="svg-ico" cx="660.4" cy="202.1" r="2" class="maintenance2"/><animate fill="remove" accumulate="none" additive="replace" attributeName="opacity" calcMode="linear" dur="0.6s" repeatCount="indefinite" restart="always" values="0;1;0"/></g><g><circle id="svg-ico" cx="653" cy="205.1" r="2" class="maintenance2"/><animate fill="remove" accumulate="none" additive="replace" attributeName="opacity" calcMode="linear" dur="0.5s" repeatCount="indefinite" restart="always" values="0;1;0"/></g><circle cx="646.1" cy="207.5" r="2" class="maintenance3"/><circle cx="667.5" cy="199.7" r="2" class="maintenance3"/><circle cx="660.3" cy="230.4" r="2" class="maintenance3"/><circle cx="653.2" cy="233.1" r="2" class="maintenance3"/><circle cx="645.8" cy="235.1" r="2" class="maintenance3"/><circle cx="667.8" cy="228.4" r="2" class="maintenance3"/><circle cx="660.5" cy="259.6" r="2" class="maintenance3"/><circle cx="653" cy="261.2" r="2" class="maintenance3"/><circle cx="645.8" cy="262.9" r="2" class="maintenance3"/><circle cx="667.7" cy="258.1" r="2" class="maintenance3"/><circle id="svg-ico" cx="660.4" cy="405.5" r="2" class="maintenance2"/><circle cx="653.5" cy="403.5" r="2" class="maintenance3"/><circle id="svg-ico" cx="645.9" cy="402.1" r="2" class="maintenance2"/><circle cx="667.7" cy="407.1" r="2" class="maintenance3"/><circle id="svg-ico" cx="660.4" cy="434" r="2" class="maintenance2"/><circle cx="653.5" cy="431.5" r="2" class="maintenance3"/><circle cx="645.7" cy="429.2" r="2" class="maintenance3"/><circle cx="667.9" cy="436.3" r="2" class="maintenance3"/><circle cx="660.3" cy="463.1" r="2" class="maintenance3"/><circle cx="653.4" cy="460.5" r="2" class="maintenance3"/><circle cx="645.7" cy="458.2" r="2" class="maintenance3"/><circle cx="667.8" cy="465.4" r="2" class="maintenance3"/><circle id="svg-ico" cx="660.3" cy="491.2" r="2" class="maintenance2"/><circle cx="653.4" cy="488.6" r="2" class="maintenance3"/><circle cx="645.7" cy="486.4" r="2" class="maintenance3"/><g><circle id="svg-ico" cx="667.8" cy="493.5" r="2" class="maintenance2"/><animate fill="remove" accumulate="none" additive="replace" attributeName="opacity" calcMode="linear" dur="0.7s" repeatCount="indefinite" restart="always" values="0;1;0"/></g><circle cx="660.4" cy="519.6" r="2" class="maintenance3"/><circle cx="653.5" cy="516.2" r="2" class="maintenance3"/><circle id="svg-ico" cx="645.8" cy="512.9" r="2" class="maintenance2"/><circle cx="667.8" cy="522.7" r="2" class="maintenance3"/><path d="M629 118h-29v391h29m-71-27 42 27V118l-42 31z" class="maintenance1"/><path d="m562 479 34 19V126l-34 24z" class="maintenance1"/><path d="m567 181 24-13v-18l-24 14zm0 21 24-11v-18l-24 14zm0 21 24-9v-18l-24 12zm0 22 24-8v-18l-24 9zm0 20 24-6v-17l-24 8zm0 21 24-4v-17l-24 6zm0 21 24-2v-17l-24 4zm0 21h24v-17l-24 2zm0 21 24 2v-17h-24zm0 22 24 3v-17l-24-2zm0 21 24 5v-17l-24-4zm0 21 24 6v-16l-24-6zm0 21 24 9v-17l-24-7zm0 21 24 10v-16l-24-9zm0 21 24 12v-16l-24-11z" class="maintenance1"/><circle cx="581.9" cy="164.5" r="1.5" class="maintenance3"/><circle cx="576.3" cy="168.1" r="1.5" class="maintenance3"/><circle cx="570.8" cy="171.7" r="1.5" class="maintenance3"/><circle cx="587.5" cy="161.5" r="1.5" class="maintenance3"/><circle id="svg-ico" cx="581.6" cy="186.8" r="1.5" class="maintenance2"/><circle cx="576.1" cy="189.7" r="1.5" class="maintenance3"/><circle cx="570.5" cy="193" r="1.5" class="maintenance3"/><circle id="svg-ico" cx="587.3" cy="184.2" r="1.5" class="maintenance2"/><circle cx="582.1" cy="209.1" r="1.5" class="maintenance3"/><circle cx="576.5" cy="211.7" r="1.5" class="maintenance3"/><circle cx="571.1" cy="214" r="1.5" class="maintenance3"/><circle cx="587.8" cy="206.9" r="1.5" class="maintenance3"/><g><circle id="svg-ico" cx="581.9" cy="231.7" r="1.5" class="maintenance2"/><animate fill="remove" accumulate="none" additive="replace" attributeName="opacity" calcMode="linear" dur="0.8s" repeatCount="indefinite" restart="always" values="0;1;0"/></g><g><circle id="svg-ico" cx="576.3" cy="234" r="1.5" class="maintenance2"/><animate fill="remove" accumulate="none" additive="replace" attributeName="opacity" calcMode="linear" dur="0.6s" repeatCount="indefinite" restart="always" values="0;1;0"/></g><circle cx="571" cy="235.8" r="1.5" class="maintenance3"/><circle cx="587.3" cy="229.9" r="1.5" class="maintenance3"/><circle cx="581.8" cy="253.4" r="1.5" class="maintenance3"/><circle cx="576.4" cy="255.4" r="1.5" class="maintenance3"/><circle cx="570.7" cy="257" r="1.5" class="maintenance3"/><circle cx="587.6" cy="251.9" r="1.5" class="maintenance3"/><g><circle id="svg-ico" cx="582" cy="275.8" r="1.5" class="maintenance2"/><animate fill="remove" accumulate="none" additive="replace" attributeName="opacity" calcMode="linear" dur="0.7s" repeatCount="indefinite" restart="always" values="0;1;0"/></g><circle id="svg-ico" cx="576.2" cy="277" r="1.5" class="maintenance2"/><circle cx="570.8" cy="278.3" r="1.5" class="maintenance3"/><circle cx="587.5" cy="274.6" r="1.5" class="maintenance3"/><circle cx="581.9" cy="298.7" r="1.5" class="maintenance3"/><circle cx="576.6" cy="299.3" r="1.5" class="maintenance3"/><circle cx="570.8" cy="300" r="1.5" class="maintenance3"/><circle cx="587.5" cy="298.1" r="1.5" class="maintenance3"/><circle id="svg-ico" cx="582.1" cy="320.5" r="1.5" class="maintenance2"/><circle cx="576.2" cy="320.5" r="1.5" class="maintenance3"/><circle cx="570.6" cy="320.3" r="1.5" class="maintenance3"/><circle cx="587.6" cy="320.7" r="1.5" class="maintenance3"/><circle cx="582.2" cy="343.1" r="1.5" class="maintenance3"/><circle id="svg-ico" cx="576.5" cy="342.7" r="1.5" class="maintenance2"/><circle id="svg-ico" cx="570.8" cy="342.2" r="1.5" class="maintenance2"/><circle cx="587.6" cy="343.5" r="1.5" class="maintenance3"/><circle cx="582" cy="365" r="1.5" class="maintenance3"/><circle id="svg-ico" cx="576.6" cy="364.2" r="1.5" class="maintenance2"/><circle cx="570.8" cy="363.4" r="1.5" class="maintenance3"/><g><circle id="svg-ico" cx="587.5" cy="365.9" r="1.5" class="maintenance2"/><animate fill="remove" accumulate="none" additive="replace" attributeName="opacity" calcMode="linear" dur="0.5s" repeatCount="indefinite" restart="always" values="0;1;0"/></g><circle cx="581.9" cy="387.7" r="1.5" class="maintenance3"/><g><circle cx="576.6" cy="386.2" r="1.5" class="maintenance3"/><animate fill="remove" accumulate="none" additive="replace" attributeName="opacity" calcMode="linear" dur="0.6s" repeatCount="indefinite" restart="always" values="0;1;0"/></g><circle cx="570.8" cy="385.1" r="1.5" class="maintenance3"/><circle cx="587.5" cy="388.9" r="1.5" class="maintenance3"/><circle cx="581.9" cy="409.6" r="1.5" class="maintenance3"/><circle cx="576.6" cy="407.6" r="1.5" class="maintenance3"/><circle cx="570.6" cy="405.9" r="1.5" class="maintenance3"/><circle cx="587.6" cy="411.3" r="1.5" class="maintenance3"/><circle id="svg-ico" cx="581.9" cy="431.8" r="1.5" class="maintenance2"/><circle id="svg-ico" cx="576.5" cy="429.9" r="1.5" class="maintenance2"/><circle cx="570.6" cy="428.1" r="1.5" class="maintenance3"/><circle cx="587.6" cy="433.6" r="1.5" class="maintenance3"/><circle cx="581.9" cy="453.4" r="1.5" class="maintenance3"/><circle cx="576.5" cy="451.4" r="1.5" class="maintenance3"/><circle cx="570.6" cy="449.7" r="1.5" class="maintenance3"/><circle id="svg-ico" cx="587.6" cy="455.2" r="1.5" class="maintenance2"/><circle cx="581.9" cy="475.2" r="1.5" class="maintenance3"/><g><circle id="svg-ico" cx="576.6" cy="472.6" r="1.5" class="maintenance2"/><animate fill="remove" accumulate="none" additive="replace" attributeName="opacity" calcMode="linear" dur="0.3s" repeatCount="indefinite" restart="always" values="0;1;0"/></g><circle id="svg-ico" cx="570.7" cy="470.1" r="1.5" class="maintenance2"/><circle cx="587.6" cy="477.6" r="1.5" class="maintenance3"/><path d="M558 173h-30v288h30m-61-20 31 20V173l-31 23z" class="maintenance4"/><path d="m500 438 25 15V180l-25 17z" class="maintenance4"/><path d="m504 220 18-10v-13l-18 10zm0 15 18-8v-13l-18 10zm0 16 18-7v-13l-18 8zm0 16 18-6v-13l-18 7zm0 15 18-5v-13l-18 6zm0 15 18-3v-13l-18 5zm0 16 18-2v-13l-18 3zm0 15h18v-13l-18 2zm0 15 18 2v-13h-18zm0 16 18 3v-13l-18-2zm0 16 18 3v-12l-18-3zm0 15 18 5v-12l-18-5zm0 16 18 6v-12l-18-5zm0 15 18 8v-13l-18-6zm0 15 18 9v-12l-18-8z" class="maintenance4"/><circle cx="515" cy="207.7" r="1.1" class="maintenance3"/><circle cx="510.9" cy="210.4" r="1.1" class="maintenance3"/><circle cx="506.8" cy="213" r="1.1" class="maintenance3"/><circle cx="519.1" cy="205.5" r="1.1" class="maintenance3"/><circle cx="514.8" cy="224.1" r="1.1" class="maintenance3"/><circle cx="510.7" cy="226.2" r="1.1" class="maintenance3"/><circle cx="506.6" cy="228.6" r="1.1" class="maintenance3"/><circle cx="518.9" cy="222.2" r="1.1" class="maintenance3"/><circle id="svg-ico" cx="515.2" cy="240.4" r="1.1" class="maintenance2"/><circle id="svg-ico" cx="511" cy="242.4" r="1.1" class="maintenance2"/><circle cx="507" cy="244.1" r="1.1" class="maintenance3"/><circle cx="519.3" cy="238.8" r="1.1" class="maintenance3"/><circle cx="515" cy="257" r="1.1" class="maintenance3"/><circle cx="510.8" cy="258.7" r="1.1" class="maintenance3"/><circle cx="506.9" cy="260.1" r="1.1" class="maintenance3"/><circle cx="519" cy="255.7" r="1.1" class="maintenance3"/><circle id="svg-ico" cx="514.9" cy="273" r="1.1" class="maintenance2"/><circle cx="510.9" cy="274.5" r="1.1" class="maintenance3"/><circle id="svg-ico" cx="506.8" cy="275.6" r="1.1" class="maintenance2"/><circle cx="519.2" cy="271.8" r="1.1" class="maintenance3"/><circle id="svg-ico" cx="515" cy="289.4" r="1.1" class="maintenance2"/><circle cx="510.8" cy="290.3" r="1.1" class="maintenance3"/><circle cx="506.8" cy="291.3" r="1.1" class="maintenance3"/><circle id="svg-ico" cx="519.1" cy="288.6" r="1.1" class="maintenance2"/><circle cx="515" cy="306.2" r="1.1" class="maintenance3"/><g><circle id="svg-ico" cx="511.1" cy="306.7" r="1.1" class="maintenance2"/><animate fill="remove" accumulate="none" additive="replace" attributeName="opacity" calcMode="linear" dur="0.4s" repeatCount="indefinite" restart="always" values="0;1;0"/></g><circle cx="506.8" cy="307.2" r="1.1" class="maintenance3"/><circle cx="519.1" cy="305.8" r="1.1" class="maintenance3"/><circle id="svg-ico" cx="515.1" cy="322.3" r="1.1" class="maintenance2"/><circle cx="510.8" cy="322.3" r="1.1" class="maintenance3"/><circle cx="506.7" cy="322.1" r="1.1" class="maintenance3"/><circle cx="519.2" cy="322.4" r="1.1" class="maintenance3"/><g><circle id="svg-ico" cx="515.2" cy="338.8" r="1.1" class="maintenance2"/><animate fill="remove" accumulate="none" additive="replace" attributeName="opacity" calcMode="linear" dur="0.6s" repeatCount="indefinite" restart="always" values="0;1;0"/></g><g><circle id="svg-ico" cx="511" cy="338.5" r="1.1" class="maintenance2"/><animate fill="remove" accumulate="none" additive="replace" attributeName="opacity" calcMode="linear" dur="0.5s" repeatCount="indefinite" restart="always" values="0;1;0"/></g><circle cx="506.9" cy="338.2" r="1.1" class="maintenance3"/><circle cx="519.2" cy="339.1" r="1.1" class="maintenance3"/><circle cx="515.1" cy="354.9" r="1.1" class="maintenance3"/><circle cx="511.1" cy="354.4" r="1.1" class="maintenance3"/><circle cx="506.8" cy="353.8" r="1.1" class="maintenance3"/><circle cx="519.1" cy="355.6" r="1.1" class="maintenance3"/><circle cx="515" cy="371.6" r="1.1" class="maintenance3"/><circle cx="511.1" cy="370.5" r="1.1" class="maintenance3"/><circle cx="506.8" cy="369.7" r="1.1" class="maintenance3"/><circle cx="519.1" cy="372.5" r="1.1" class="maintenance3"/><circle id="svg-ico" cx="515" cy="387.6" r="1.1" class="maintenance2"/><g><circle id="svg-ico" cx="511.1" cy="386.2" r="1.1" class="maintenance2"/><animate fill="remove" accumulate="none" additive="replace" attributeName="opacity" calcMode="linear" dur="0.7s" repeatCount="indefinite" restart="always" values="0;1;0"/></g><circle cx="506.7" cy="384.9" r="1.1" class="maintenance3"/><circle cx="519.2" cy="389" r="1.1" class="maintenance3"/><g><circle id="svg-ico" cx="514.9" cy="404" r="1.1" class="maintenance2"/><animate fill="remove" accumulate="none" additive="replace" attributeName="opacity" calcMode="linear" dur="0.5s" repeatCount="indefinite" restart="always" values="0;1;0"/></g><circle cx="511.1" cy="402.6" r="1.1" class="maintenance3"/><circle cx="506.7" cy="401.3" r="1.1" class="maintenance3"/><circle cx="519.2" cy="405.3" r="1.1" class="maintenance3"/><circle cx="514.9" cy="419.9" r="1.1" class="maintenance3"/><circle cx="511.1" cy="418.4" r="1.1" class="maintenance3"/><circle id="svg-ico" cx="506.7" cy="417.2" r="1.1" class="maintenance2"/><circle cx="519.2" cy="421.2" r="1.1" class="maintenance3"/><circle cx="515" cy="435.8" r="1.1" class="maintenance3"/><circle id="svg-ico" cx="511.1" cy="433.9" r="1.1" class="maintenance2"/><circle cx="506.8" cy="432.1" r="1.1" class="maintenance3"/><circle cx="519.2" cy="437.6" r="1.1" class="maintenance3"/><path id="svg-concept" d="M644 272v51m5-51v88" class="maintenance5"/><path d="M652 272c0 20 12 12 11-2" class="maintenance1"/><path id="svg-concept" d="M660 271c0 18 10 12 8-2" class="maintenance5"/><path d="M641 389h37" class="maintenance1"/><path id="svg-concept" d="M275 221v50" class="maintenance5"/><path d="M268 219v29" class="maintenance1"/><path id="svg-concept" d="M261 216c0 19 11 22 11 4" class="maintenance5"/><path id="svg-concept" d="M377 548h0l-1-1v0l1-1h0l2 1v0l-2 1zm-3 9h0l-2-1v0l2-2h0l2 1v1l-2 1zm45-9h0l-1-1v0l1-1h0l2 1v0l-2 1zm-3 9h0l-2-1v0l2-2h0l2 1v1l-2 1zm45-9h0l-1-1v0l1-1h0l2 1v0l-2 1zm-3 9h0l-2-1v0l2-2h0l2 1v1l-2 1zm34-7c0 4-3 7-7 7-3 0-6-3-6-7 0-3 3-6 6-6 4 0 7 3 7 6z" class="maintenance6"/><path id="svg-concept" d="M488 550c0 2-2 3-3 3s-2-1-2-3 1-2 2-2l3 2zm4 0h-4m-5 0h-4" class="maintenance6"/><path d="M515 560c0 3-2 5-5 5H334c-3 0-5-2-5-5v-19c0-3 2-6 5-6h176c3 0 5 3 5 6v19z" class="maintenance1"/><path d="M339 535v30m166-30v30m-130-5h-28c-2 0-4-2-4-4v0c0-3 2-4 4-4h28c2 0 4 1 4 4v0c0 2-2 4-4 4zm-28-12h0l-1-1v0l1-1h0l1 1v0l-1 1zm5 0h0l-1-1v0l1-1h0l1 1v0l-1 1zm7 0h0l-2-1v0l2-1h0l1 1v0l-1 1zm-12-5h0l-1-1v0l1-2h0l1 1v1l-1 1zm5 0h0l-1-1v0l1-2h0l1 1v1l-1 1zm25 0h0l-1-1v0l1-2h0l2 1v1l-2 1zm-13 5h0l-2-1v0l2-1h0l1 1v0l-1 1zm5 0h0l-2-1v0l2-1h0l1 1v0l-1 1z" class="maintenance7"/><path d="M369 548h0l-2-1v0l2-1h0l1 1v0l-1 1zm0-5h-10l-1-1v0l1-2h10l1 1v1l-1 1zm-14 9v8m13-3h0l-2-1v0l2-2h0l2 1v1l-2 1zm49 3h-28c-2 0-4-2-4-4v0c0-3 2-4 4-4h28c2 0 4 1 4 4v0c0 2-2 4-4 4zm-28-12h0l-1-1v0l1-1h0l1 1v0l-1 1zm5 0h0l-1-1v0l1-1h0l1 1v0l-1 1zm7 0h0l-2-1v0l2-1h0l1 1v0l-1 1zm-12-5h0l-1-1v0l1-2h0l1 1v1l-1 1zm5 0h0l-1-1v0l1-2h0l1 1v1l-1 1zm25 0h0l-1-1v0l1-2h0l2 1v1l-2 1zm-13 5h0l-2-1v0l2-1h0l1 1v0l-1 1zm5 0h0l-2-1v0l2-1h0l1 1v0l-1 1z" class="maintenance7"/><path d="M411 548h0l-2-1v0l2-1h0l1 1v0l-1 1zm0-5h-10l-1-1v0l1-2h10l1 1v1l-1 1zm-14 9v8m13-3h0l-2-1v0l2-2h0l2 1v1l-2 1zm49 3h-28c-2 0-4-2-4-4v0c0-3 2-4 4-4h28c2 0 4 1 4 4v0c0 2-2 4-4 4zm-28-12h0l-1-1v0l1-1h0l1 1v0l-1 1zm5 0h0l-1-1v0l1-1h0l1 1v0l-1 1zm7 0h0l-2-1v0l2-1h0l1 1v0l-1 1zm-12-5h0l-1-1v0l1-2h0l1 1v1l-1 1zm5 0h0l-1-1v0l1-2h0l1 1v1l-1 1zm25 0h0l-1-1v0l1-2h0l2 1v1l-2 1zm-13 5h0l-2-1v0l2-1h0l1 1v0l-1 1zm5 0h0l-2-1v0l2-1h0l1 1v0l-1 1z" class="maintenance7"/><path d="M453 548h0l-2-1v0l2-1h0l1 1v0l-1 1z" class="maintenance7"/><path id="svg-concept" d="m501 556-2 2-2-2 2-2 2 2z" class="maintenance6"/><path d="M499 551h0l-2-2v0l2-1h0l1 1v0l-1 2zm0-6h0l-2-1v0l2-1h0l1 1v0l-1 1zm-46-2h-10l-1-1v0l1-2h10l1 1v1l-1 1zm-14 9v8m13-3h0l-2-1v0l2-2h0l2 1v1l-2 1zm-70-22v30m-47-20v9m174-9v9m-85-19v30m42-30v30m42-33 2 3m-176 0 11-15" class="maintenance7"/><path id="svg-concept" d="M397 512h0l-1-2v0l1-1h0l1 1v0l-1 2zm-3 9h0l-2-2v0l2-2h0l1 2v0l-1 2zm45-9h0l-1-2v0l1-1h0l1 1v0l-1 2zm-3 9h0l-2-2v0l2-2h0l1 2v0l-1 2zm45-9h0l-1-2v0l1-1h0l1 1v0l-1 2zm-3 9h0l-2-2v0l2-2h0l1 2v0l-1 2zm33-7c0 3-3 6-6 6-4 0-7-3-7-6 0-4 3-7 7-7 3 0 6 3 6 7z" class="maintenance6"/><path id="svg-concept" d="m507 514-2 2c-2 0-3-1-3-2l3-3 2 3zm4 0h-4m-5 0h-4" class="maintenance6"/><path d="M534 523c0 3-2 6-5 6H353c-2 0-5-3-5-6v-19c0-3 3-5 5-5h176c3 0 5 2 5 5v19z" class="maintenance1"/><path d="M359 499v30m165-30v30m-130-6h-28c-2 0-4-2-4-4v0c0-2 2-4 4-4h28c2 0 4 2 4 4v0c0 2-2 4-4 4zm-28-11h0l-1-2v0l1-1h0l2 1v0l-2 2zm5 0h0l-1-2v0l1-1h0l2 1v0l-2 2zm7 0h0l-1-2v0l1-1h0l1 1v0l-1 2zm-12-6h0l-1-1v0l1-1h0l2 1v0l-2 1zm5 0h0l-1-1v0l1-1h0l2 1v0l-2 1zm26 0h0l-1-1v0l1-1h0l1 1v0l-1 1zm-14 6h0l-1-2v0l1-1h0l1 1v0l-1 2zm5 0h0l-1-2v0l1-1h0l1 1v0l-1 2z" class="maintenance7"/><path d="M388 512h0l-1-2v0l1-1h0l1 1v0l-1 2zm0-6h-9l-2-1v0l2-1h9l1 1v0l-1 1zm-13 9v8m12-2h0l-1-2v0l1-2h0l2 2v0l-2 2zm49 2h-28c-2 0-4-2-4-4v0c0-2 2-4 4-4h28c2 0 4 2 4 4v0c0 2-2 4-4 4zm-28-11h0l-1-2v0l1-1h0l2 1v0l-2 2zm5 0h0l-1-2v0l1-1h0l2 1v0l-2 2zm7 0h0l-1-2v0l1-1h0l1 1v0l-1 2zm-12-6h0l-1-1v0l1-1h0l2 1v0l-2 1zm5 0h0l-1-1v0l1-1h0l2 1v0l-2 1zm26 0h0l-1-1v0l1-1h0l1 1v0l-1 1zm-14 6h0l-1-2v0l1-1h0l1 1v0l-1 2zm5 0h0l-1-2v0l1-1h0l1 1v0l-1 2z" class="maintenance7"/><path d="M430 512h0l-1-2v0l1-1h0l1 1v0l-1 2zm0-6h-9l-2-1v0l2-1h9l1 1v0l-1 1zm-13 9v8m12-2h0l-1-2v0l1-2h0l2 2v0l-2 2zm49 2h-28c-2 0-4-2-4-4v0c0-2 2-4 4-4h28c2 0 4 2 4 4v0c0 2-2 4-4 4zm-28-11h0l-1-2v0l1-1h0l2 1v0l-2 2zm5 0h0l-1-2v0l1-1h0l2 1v0l-2 2zm7 0h0l-1-2v0l1-1h0l1 1v0l-1 2zm-12-6h0l-1-1v0l1-1h0l2 1v0l-2 1zm5 0h0l-1-1v0l1-1h0l2 1v0l-2 1zm26 0h0l-1-1v0l1-1h0l1 1v0l-1 1zm-14 6h0l-1-2v0l1-1h0l1 1v0l-1 2zm5 0h0l-1-2v0l1-1h0l1 1v0l-1 2z" class="maintenance7"/><path d="M472 512h0l-1-2v0l1-1h0l1 1v0l-1 2z" class="maintenance7"/><path id="svg-concept" d="m520 520-2 1-2-2 2-1c1 0 2 0 2 2z" class="maintenance6"/><path d="M518 514h0l-1-1v0l1-1h0l1 1v0l-1 1zm0-5h0l-1-2v1l1-2h0l1 2v0l-1 1zm-46-3h-9l-2-1v0l2-1h9l1 1v0l-1 1zm-13 9v8m12-2h0l-1-2v0l1-2h0l2 2v0l-2 2zm-69-22v30m-13-58h-6m5 2h-6m4 3h-6m5 2h-6m4 2h-6m-23 29v9m175-9v9m-86-19v30m42-30v30m-131-30 22-32c1-2 3-4 8-4h110c4 0 6 2 8 4l27 32" class="maintenance7"/><path d="M473 478h23c1 0 3-1 2-3l-1-2c0-2-1-2-3-2h-21c-2 0-3 1-3 2v2c0 2 1 3 3 3zm-7-298-1-3a6 6 0 0 1 10-4" class="maintenance7"/><path id="svg-concept" d="M473 176h-2" class="maintenance6"/><path d="M472 171v1" class="maintenance7"/><path id="svg-concept" d="M475 173h-1m2 3h-1m0 4-1-1" class="maintenance6"/><path d="M465 176h1m0-3h1m2-2v1m-3 8 1-1" class="maintenance7"/><path id="svg-concept" d="M471 176h-1s0 0 0 0h1s0 0 0 0z" class="maintenance8"/><path d="m465 165-1-3c0-4 2-7 6-7 2-1 4 0 5 2m-3-2v1m-8 5h1m0-4 1 1m2-3 1 1m-4 9 1-1" class="maintenance7"/><path id="svg-concept" d="M470 161s0 0 0 0 0 0 0 0 0 0 0 0 0 0 0 0z" class="maintenance8"/><path d="m465 149-1-3c-1-3 2-7 5-7s5 1 6 3" class="maintenance7"/><path id="svg-concept" d="M475 142h-1m2 3h-1m0 4-1-1" class="maintenance6"/><path d="M464 146h1m0-4 1 1m2-4 1 2m-4 8h1" class="maintenance7"/><path id="svg-concept" d="M470 146s0 0 0 0v-1s0 0 0 0v1z" class="maintenance8"/><path d="M392 91h90c4 0 8 4 8 8v85c0 4-4 8-8 8H367c-4 0-8-4-8-8V99c0-4 3-8 8-8h10" class="maintenance7"/><path d="M515 174v-69c0-3 3-7 7-7h98m-398 11v-4c0-3 3-7 7-7h98c3 0 7 4 7 7v73" class="maintenance0"/><path d="M377 91v-2h2m12 0h1v2" class="maintenance9"/><path d="M371 180h84m-84 0v-46m62-2h-19V99h18v33z" class="maintenance7"/><path d="M430 104h-13s0 0 0 0v-2s0 0 0 0h13v2zm0 12h-13c0 1 0 0 0 0v-2s0 0 0 0h13v2zm0 6h-13s0 0 0 0v-2s0 0 0 0h13v2zm0 6-1 1h-12v-3h12l1 1v1zm0-18-1 1h-12v-3h12l1 1v1zm26 22h-19V99h19v33z" class="maintenance7"/><path d="M453 104s0 0 0 0h-13s0 0 0 0v-2s0 0 0 0h13s0 0 0 0v2z" class="maintenance7"/><path id="svg-concept" d="M453 116s0 0 0 0h-13c0 1 0 0 0 0v-2s0 0 0 0h13s0 0 0 0v2z" class="maintenance6"/><path d="M453 122s0 0 0 0h-13s0 0 0 0v-2s0 0 0 0h13s0 0 0 0v2zm0 6v1h-13v-3h13v2z" class="maintenance7"/><path id="svg-concept" d="M453 110v1h-13v-3h13v2z" class="maintenance6"/><path d="M479 132h-18V99h18v33z" class="maintenance7"/><path d="M476 104s0 0 0 0h-13v-2h13s0 0 0 0v2z" class="maintenance7"/><path id="svg-concept" d="M476 116s0 0 0 0h-13v-2h13s0 0 0 0v2zm0 6s0 0 0 0h-13v-2h13s0 0 0 0v2z" class="maintenance6"/><path d="M476 128v1h-12l-1-1v-1l1-1h12v2zm0-18v1h-12l-1-1v-1l1-1h12v2z" class="maintenance7"/><path id="svg-concept" d="m475 142 1 3c1 1 0 3-1 4" class="maintenance6"/><path d="M393 125c0-4 3-8 7-8 3-1 6 1 7 3m-4-3v1m-10 7h1m0-5 1 1m3-4 1 1" class="maintenance7"/><path id="svg-concept" d="M401 125s0 0 0 0h-1 1s0 0 0 0z" class="maintenance8"/><path id="svg-concept" d="m407 120 2 4v1" class="maintenance6"/><path d="M370 125c0-4 3-8 7-8 3-1 6 1 8 3m-15 5h1m1-5 1 1m3-4v1" class="maintenance7"/><path id="svg-concept" d="M379 125h-1s0 0 0 0h1z" class="maintenance8"/><path id="svg-concept" d="m385 120 1 4v1m89 32 1 3c1 2 0 3-1 4m0 9 1 2c1 2 0 3-1 5" class="maintenance6"/><path d="m371 158 3-1 4 2 4-3 3 3 3-4 4 10 5-15 4 8 4-23 5 40 4-31 4 20 5-12 4 6 4-3 4 3 3 3 4-5 5 3 4-1h5m34-45h2v3h-2m0-9h2v3l-1 1h-1" class="maintenance7"/><g><path id="svg-concept" d="M374 85h-5m31 0h-4m-11-15v4m8-2-3 4m-13-4 2 4m20 1-5 3m-23-3 4 3" class="maintenance6"/><animate fill="remove" accumulate="none" additive="replace" attributeName="opacity" calcMode="linear" dur="1s" repeatCount="indefinite" restart="always" values="0;1;0"/></g><path id="svg-ico" d="m456 180-1 1-2-1 2-2 1 2z" class="maintenance2"/><g><path id="svg-concept" d="M388 135v40" class="maintenance5"/><animateMotion fill="remove" accumulate="none" additive="replace" begin="0s" calcMode="paced" dur="8s" path="M0, 0 60 0 0 0" repeatCount="indefinite" restart="always"/></g><path id="svg-concept" d="M391 85v4h-12v-4c0-3 2-6 6-6 3 0 6 3 6 6z" class="maintenance5"/><path d="M506 184V99c0-4 3-8 8-8h10m15 0h85m-100 0v-2h2m12 0h1v2" class="maintenance0"/><path d="M538 85v4h-12v-4c0-3 2-6 6-6s6 3 6 6z" class="maintenance1"/><path d="M220 91h10m15 0h90c4 0 8 4 8 8v85" class="maintenance0"/><path d="M230 91v-2h2m12 0h1v2" class="maintenance10"/><path d="M343 113h1s0 0 0 0v3s0 0 0 0h-1m0-9h1s0 0 0 0v4h-1" class="maintenance7"/><path d="M244 85v4h-12v-4c0-3 2-6 6-6 3 0 6 3 6 6z" class="maintenance1"/><path d="m401 337-12-18-2-3m15 21h-2l-2 7 5 4c2 2 5 2 5 2l4-4 1-3-1-2m79-84c4-8-10-13-15-16l-26-7-2 5 23 14m-33 7-1-9-8 1v-1h-7l-2 9m9 106 2 52v44" class="maintenance7"/><path d="m449 462 2-19v-30c0-4 4-41 3-50 0-9-3-24-3-24h-30" class="maintenance7"/><path d="m415 461 4-42 10-51m-24-19-3 13c-2 8-1 46-2 50l-3 30-1 18m25-208c-2-1-3-4-4-6m20 6c3-3 5-8 6-12v-3m-9-15-4-1c-4 0-11 0-14 6-2 6-1 11-1 11m30 0 3 2 3-6-4-6m-4 3-1 2-3-1-1 1s5 2 6 4m3-9v-1l-1-1v-1h-1v-1l-1-1-1-1-4-1h-4l2 2 4 1 1 1 1 4v2m-29 7 3 8-1-8h-2zm45 47-7 25c-1 2 1 22-1 28m-53-67 11-4 8-3h24l9 2h5m-48 69v-26l-5-15" class="maintenance7"/><path d="m444 265-4-5h-21l-5 5m45 24 27-24-8-6-8-4-14 11m-58 6a2178 2178 0 0 1-22 30s3 6 8 9 7 2 7 2l13-15m8 38c8-4 21-13 21-14 1-2-7-4-7-5 1-2 12-3 15-5s11-27 14-30m-43 59c2 0 4-1 3-2l-4-1-5-1h-4m40-112-3 1m52 31-7 7m-11-9-2 1" class="maintenance7"/><path d="m377 304-5 6h-1c-2 3-2 6 4 13l24 20m-11-30-2 2" class="maintenance7"/></svg>