<svg xmlns="http://www.w3.org/2000/svg" xml:space="preserve" id="Layer_1" x="0" y="0" version="1.1" viewBox="0 0 836 507"><style>.st1{fill-rule:evenodd;clip-rule:evenodd}.st2{fill:none;stroke:gray;stroke-linecap:round;stroke-linejoin:round;stroke-miterlimit:10}</style><g opacity=".3"><path d="M638 284h1l1 1 1 2 1 6 1 1v10c-1 1-1 2 1 3l4 4v3h1v2l1 2 1 2 1 1 1 1 2 1 3 2v-1l1-1-2-2-1-3v-4l-3-2-3-2-1-3-1-1-1-2-2-2v-2l2-7h1c1 0 0 0 0 0l2 2h1l3 3 3 3h1l1 1v3h2l3-3 1-1 4-2 1-3v-4l-2-5-1-2-3-3-2-2-1-1-1-1c0-1-1-2 1-3v-2l1-1 4-2h1l2 2 1 1h1v-2l4-1 3-3h1l1 1 2-1 2-1 2-1v-1l3-2 2-3 1-1v-4l2-2 1-2v-2l1-1-1-2-1-1-1-1v1-1l1-1 1-1-2-2h1v-1l-1-1-2-2-1-3-2-2h-1l-1-2 1-2 1-1 1-2 3-1 1-1v-1l-1-1h-3l-1-1h-1l-2 2-1 1-1-1-2-2-2-2 1-2h1l1-1 2-3 1-1 1-1v-1l2 1v7l2-2 4-2h2l1 2v3l1 1 1 1h2l1 1v2l1 4v1l1 3 2-1 2-1h2l1-4-1-2-2-4-2-2-1-2-2-1v-2l1-1 1-1c1-1 2-3 1-4l1-4 1-1h1l1-2 2 1h2l1-1 2-4 2-5 1-1 1-5 1-5v-1l1-3-2-6-1-2v-6h1l2 3 1 3 1 1 1 4 1 4 1 2 1 3v3l1 2 1-1v-1l1-1 2 1-1-2-3-3-1-2v-4l1-1h1v-1l-6-10-1-3v-1l-3-4-1-2-1-1h-1v5l1 1 1 3h-1l-1-2v-1l-1-2-4-2h-3l-1 2-2-2-1 1v1-1l-1-2h-3l-1-1v-1l2-3 1-3 1-6c1-1 2-2 1-4l1-1v-4l2-2 4-1h3l1-1 4-1v-1l2-1h4l1 1v2h1l3-2h1l1-1 1-1-2-1h-1v-4h1v-7l1-2h2l2-1h2v2l1 2 2 1 1-1v-4l2-1v-1l-2-5h2s1 0 0 0l1 3 1 3v1l1 3-1 1-1 1v1l-1 5v6l-1 3v1l-1 1v7l1 4 5 10 2 3 1 2 2 2 1 2 2 2 1-2v-5c0-2-1-2 1-3h1v-1l-1-1v-4l1-2h1l1-2-2-1c-1-2-2-3-1-5h1l1-2-1-2h-2v-1l-1-2v-2l-2-1-1 1h1-1l-1-1v-3l-1-5v-1c-1-1 0-2 1-2h1v-1l1-1h1v1h1l1-2 1-2 2-1 2 1 1 1h2v-5l1-3 1-4 1-2 3-4h4l1-1c0-1 0-2-2-3v-1l-1-1-3-2v1-2l-2-1v-1l-2-1h-2v-1l1-1 2-2v-5l-1-1-1-1-2-1v-2h1l2 1c1 1 2 1 2-1h1l1-1h1l1 1 2 1 2-1h3l1-1-2-2-1-1-1-3-1-1v-1l2-2-1-1-1-3v-1h-1l-3-1h-3l-2 2h-1v1l2 2v1h-1l-3-3-4-2h-4l-3-1h-5l-2-1-7-1h-1l-4 1-3 1h-3l-2 1 1 3 1 1 2 1 1 2v1l-1 1h-1c0-2-2-2-3-2l-1-1-1-1v-2l-1-1-1 1v2l-1 2h-6l-4 2c-1 1-3 2-5 1h-1v-1l-3-4c-2-1-4-2-6-1h-1l-5 3-2 1h-2l-1-2h-6l-1-1-1-1v-2h-5l-1 1h-14l-1 1 2 1v1h-1l-1 2 1 1h1v-1 2l2 2v1h-3l-1 1h-3l-2 1-1 1-4-1h-1l1 3 1 3-1 1h-2l-4-3v-1h-2l-1-1h1v-3h-2v-2l-3-2c0-1-3-2-4-1h-7v2l1 2v1l-4 1h-3c-2 1-3 0-3-1v-1l-1-1a65 65 0 0 0-7 2l-2 1-1-1h-1v1h-2l-1-1h-2l-1 1v2h2v-1 1l-1 1-1 2-3 1h-1l1-2 1-1v-1l1-3v-2l1-3 1-3v-2l-2-3v-1l-2-2h-2l-2-1-2-1h-2l-4 1v3h-2v-3l-1-1h-3l-1-1-1-2-3-1-1 1-1 6 1 3 1 1-1 1-2 1v1l-1 2h-1l-2 1v-2l-2 1-2 1-1 1v2l-2 1-2 2-2 2-1 1-1 2-1 1v2l1 1 2 1 3 1v1l-1 1v-1h-2l-3 2-4 1h-1l-1 3 1 1 1 2 1 1 1 1h2l2 2h1l1 1 1 1 1 3v1h-1v1-1h-1v-4l-1-1h-1l-3-1-1-1-3-1-3-1-1 1-1 1 1 1h1l1 1v1h-2v-1l-2 1v1l3 2h2l1 1h-4l-2-1-1-4-1-3h-2l1 2v3l-1 2v2l2 1 1 1 1 2v2l2 5h1l2-1h2l-2 2-1 3 1 1 1 2-1 3v1l-2 3h-4v-1h1c1 1 1 0 2-1l1-5v-3l-1-2-1-1-2-1-2-7-2-4-1-1-1-6-1-1-4-1h-2v7l-1 3-1 2 1 2 1 1 1 3c-1 0-1 0 0 0l1 3h2c1 1 1 2 3 2v2h-1l-2-1-1-1-2-1h-2l-2-1-5-1-5-1-2-2h-1v1l1 2 2 1h1l1 1 1 2v1l-1 2h-1v-1l-1-1-2 1h-1l-1 1-2 1-2 1h-1v-1l-1-2-1 1-1 1h-1l-1 1-2 1c-1 1-2 3-4 3v3h-1l-3 1-1-2v-1l1-1 1-1-2-1-2-2h-3v1c2 1 2 3 2 4v3l1 1v1l-1 1h-4l-1 2-1 1c-1 1-2 2 0 4v1l-1 1-4-3h-1l-1 1v2l2 1h1v1l-1 1-3-1-1-1-1-1-1-2v-2c0-2 0-2-2-3l-1-1-2-1v-1h-1 1v1h3l6 2h5l1-1 2-4v-1l-2-2-1-1-2-1-3-1-2-2-6-2-1 1-2-1v-1l-1-1h-1l-2 1h-3v-1l2-1 1-1v-1l-4-1h-1v1h-1v-1l-1-2-1 1v1l-1 1-1-1-1-1h-1l-2 1-2 1v1h-1l1-1h-1l-1 1v1c-1-1-2 0-3 1v1h-1l-1 1v-1l-1-1v1l-2 2c0-1 1 0 0 0h-2l1 2v1h-3v-2l-2 2v3h1l2-1h1v1h-2v1l-1 1v2h-1v2l-2 1v2l-1 1v2l-1 2v1h-1l-1 1v1l-2 3h-1l-1 1h-1v2l-2 1-2 1-1 1-1 1h-1v5l1 2 1 2h-1v2h1v1l-1 1v1l4 2 4-1 1-2 2-2h1v1l1 2v2l2 3 1 3v2c1 2 2 2 3 1h1l1-2h1l2-1c2 1 1-1 2-1v-1h-1v-5l1-2 2-1 1-2v-1l-1-1-2-3-1-1v-6l4-3 1-2 2-3v-1l1-4 2-1 4 1 1 1-1 1-1 1-3 4v2h-2v5l1 5 1 2h1v1h2l1 1 2-1 6-1 2-1 1 1 2 1-1 1-2 1h-5l-3 1-2 2-1 1-1 1v1l2-1h1l1 1 1 1v2l-1 1h-1l-1-2h-1l-2 2-1 1v6l-1 1-1 1h-3l-1-1-3 1-4 2-1 1h-1l-1-1v-1h-2l-3 1c0 1 0 0 0 0l-2-1h-1l-1-1v-1h1l2 1h2l1-4v-1l-2 2-1 1 1 1h-1l-2-2 2-2-1-1v-3l-1-1-4 2v7l1 4-1 1h-3l-2 1-2 1-2 2-3 4-1 1-1 1v1l-1 1-1 1-1 1h-3l-1-1-1 1 1 2-1 1-2-1h-2l-2 1v1c0 1 0 2 2 2h1l2 2 2 2 1 2-1 4v2l-1 1h-4l-1-1h-7l-3 1h-2v1l1 3v1l-1 6-1 2v1c1 1 2 2 1 4l1 1h3l2 1 1 1 2 1 1-1 3-1h3l1-1 2-1 1-1 1-2 1-1c-2-2-1-3 0-4l1-1c1-1 1-2 3-2 1 0 2-1 2-3v-2l1-1 1-1 4 1h2l3-2 1-1h2l2 1 1 2 4 4 3 2 4 2 1 2h1l1 3-2 2-5 1h-1v1l2 1 3 2 1-1v-2l2-1 1-1 1-2v-4l1-1 2 2v-2l-4-3-1-1h-1l-1-1-2-1-1-2-3-2-1-1v-4l2-1v2l1 1h2l1 1 2 3 3 1 2 1 2 1 1 2 1 1v2c-1 1 0 2 1 2v1l1 1 1 2 1 2v1c1 1 2 1 2 3l3 1v-1l1-2v-1h2v-1l-1-2h-1l-2-4v-1l1 1c1 1 1 0 2-1v-1h4l1 1v4h1l1 1-2 1v1h1l1 1v1l1 1 1 1h1l3 1v1h1l3-1 1-1 2 1 3 1 3-2h3v7l-1 2-1 3-1 3h-8l-3 1h-2l-7-1-2-1-3-1-2-1-2-1-5 1c-1 0-2 2-1 3v2l-1 1h-2l-1-1-1-1-4-1-2-1v-1l-1-1-6-1-2-1h-1l-2-1-1-2 2-1v-2l-1-1v-1l1-2h-1l-1-1h-2l-3 1h-12l-2 1h-2l-4 2-2 1-3 1-2-1h-4v-1l-2 1-1 2-2 3-3 1-2 3-1 1v6l-2 2h-1l-1 1-2 1-2 2-1 1-1 1-2 2-3 4v1l-3 5v2l1 2v10l-2 5 1 2v4l2 1 2 1v2l1 1 1 1 2 2 1 1 1 3 3 2 2 2 5 4 3 1h1l2-1 3-1h6l1 1h2l2-1 2-1 2-1 3-1h5l2 2 1 2 2 1h7l1 1 1 3v2l-1 2v2l-1 3h-1l1 1c1 3 1 4 4 6l1 1 2 3 1 1 1 3 1 4v3l1 2v1c1 2 1 4-1 5l-1 2-1 2-2 4v5l1 2 2 4 2 5 1 3 1 4v2l1 4 2 4 1 2 1 2 2 5v4l1 3v1l3 1h1l3-1h8l3-1h1l4-2 5-4 2-3 2-3 2-2 2-3 1-3v-3l3-1 2-1 2-2v-5l-1-5v-1l7-5 2-2 2-1 4-4v-13c-1 0-2-1-2-3l-1-4 1-1-1-1v-3l1-3 2-3 1-1 3-3 6-6 4-3c4-3 7-7 9-11 1-2 1-4 3-5l1-4v-4l-1-1-4 1-6 2h-1l-3 1h-2l-1-1-2-2v-3l-2-2-3-3-2-1c-1-1-3-2-3-4l-1-2-1-3-2-1-1-2-1-5c0-1-1-3-3-3v-1h-1v-1l-1-3-1-1-3-6v-2h1l1-1 1 1 1 1 3 4 1 3 2 1 2 3 1 1v3l2 4 2 1 2 2 2 3 1 3c1 1 2 2 1 3v1l2 4v2l2 1h1l2-1 3-1 3-1 2-1h1l2-1 3-1 3-2h1l1-2 4-1 2-2 1-1 2-1 1-1 1-1h1v-2l1-2 3-3-1-3-1-2-2-1h-2l-1-1-2-2v-3h-1l-3 4c-1 1-2 2-3 1l-3 1-1-1-1-1v-3h-1v-1l-1 1v1h-1l-1-2-1-3-2-1v-1l-2-3v-2l2-1 2 1 1 1 2 3 1 2h1l2 1 1 1 4 1h2l2-1h2l1 2 1 1 8 2h9l1-1h3l1 1 1 1 1 1 2 2 2 1 3 1h1-1l-2 1v1l3 2c1 2 2 2 4 1l1-2v-1l1 1 1 4v2l1 4 1 4v1l2 3 1 3 1 2 2 3 1 2 1 4 2 2v1h3v-1l1-1 1-1 2-2 1-1-1-2 1-1v-9l1-1 1-1 2-1 1-1v-1l4-3 1-1 1-2 1-1c2-1 3-2 3-4l1-1h2l6-2 2-1 1 2 4 5 1 1 1 2 1 1 1 5-1 1 1 1 4-1 2-1zm53-44v1-1h-1 1zm-6-7 1 1h-1v-1zm-3 14h1v1l-1-1zm27-58 1 1-1 1-1-1 1-1zm54-114h1l-1 1v-1c-1 0 0 0 0 0zm-51-18h-1 1zm-28 96 1-1v1h-1zm-12 95 1-1v1h-1zm-1-196v-1 3l-1-1 1-1zm-3 126zm0-128h1-1v1h-1l1-1zm-10 11h1v1l-1-1zm-1 233v-1 1zM595 48h-1zm-179 92h1-1zm8 18-1 1h-1v1-1l1-1v-1h1v1zm2 2v-1l1 1h-1zm5-5h1v1h-1v-1zm5-45h-1v-1l1 1zm3-2zm4-2v2-2c1 0 0 0 0 0zm5 40h1-1zm1-32v-1h1-1l1 1h-1zm1 28-1-1h1v1zm2-7h-2l1-1v1c1 0 1 0 0 0zm3 9h-1zm0 2v2h-1v-1l1-1h1-1zm1-7h1-1zm1 4zm-2 15-1 1v-2l1 1zm1 3-1-1v1h1-1zm-62 144zm1 1-1-1 1 1zm1 2v-1 1zm61 99zm9-38c-1 0 0 0 0 0s0 1 0 0zm3-37h-1 1zm-2 18s0-1 0 0zm2 5h1-1zm3-6v-2l-1-1-1-2-1-1-1-5 1-1v1l1 3c-1 1 0 2 1 3l1 2v1l1 1-1 1zm1-26zm16-27v1-1zm-12-43zm-1-2v1-1zm6 103v9-1l-1-3v-7 1l1 1zm-3-30zm0 3 2 1-2 3v2h-4v-1l1-3v-2h3zm-2-171h1l1 2v1l-2-1v-2zm-2-5h1-1zm1 45zm-8-52 1-1h1l2 3v1l-1 1-2-2-1-2zm2 47zm-3-54v1-1zm-7-17 1-1-1 1zm0 8c0 1 0 1 0 0zm-1 20 2-2 2 1 1 1c1 1 1 3-1 3v1h-1l-3-4zm4 71h-2l-1-1 3-1v2zm30-4-1 1h-2l-3 1-2-1-3-1h-1l-1-1h-9l-2 2h-4c-2 0-3 0-4-2v-4l1-2v-2l1-1 1-1 1-1 2-3h1l4 1v1l-1 1h1v1l1 1 2 1h1l1-1 2-1h1v-1h-1c-2 0-2 0-3-2l3-2h2c1-1 2-2 3-1h1v-1 1l-2 1v2l-1 2-1 1 3 2 3 2 4 2c2 1 2 2 2 4v1zm12-47zm20 61h-5l-4-1-1-1h-1l-1-1v-6l2-2v-1h-1l-2-2-2-3-3-3-1-4-1-1 1-2 1-1 2-2 1-1 3-2h1l3 1h2v4h-2l-2 2v1h-1v1l1 2c1 2 2 3 4 3l1 1-1 1 1 2 1 3v1l1 2h1v2c1 0 2 1 1 2l1 4v1zm7-129v-1 1zm5 104h-4v-1c-1-2 1-4 3-4l1 1 1 1-1 3zm13-97-3-3h2l1 2v1zm1 3h-1 1zm4 105v-1 1zm2-120h-1l1-1v1zm13-42v1-1h-1zm-1 112h-1 1zm1 31-1 2-1 1v-3l2-1v-1l1 1-1 1zm4-153zm6 17h1l-1 2v1l-1 1 1 1-1-1-2-1v-2l-1-1 1 1h2l1-1h1-1zm4-2-2 1h-1v1-1h1l1-2-2-1h1l1 1h1v1zm4 0v-1 1zm5 131-1 1-3-1v-2h1l1 1 2 1zm0-120h-1 1zm16 111h-1v-2l1 1v1zm1 7v1-2 1zm1-4h1-1zm13-27h-1l-1-2 1 1 1 1zm0-3c-1 0 0 0 0 0zm2 22v-1 1zm8-4 1-1s-1 0 0 0h1v-1l2-2v-1l1-2c1-3 2-6 1-9v-1h1l1 4v6l-3 4-1 1-1 2h-3zm13 132zm-202-77zM273 327zM207 93zm10 23v2l-2 5-1 1-1 1v1h1l1 1-1 1 2 1 1-1 3-3h1l1 2 3 1 1-1v-1l-1-2-1-2-1-1-2-3h-1v-1l1-1h-4zm17 370zm-3-390zm19 103zm-11 291zM73 117z" class="st1"/><path d="M309 341h-1l-1-1-3-1-2-1-4-3-2-1-7-1h-1l-1 1-1-1v-1l-1-1-4-1-3-1-2 1v-1l-1-1-2-1v1h-4l2-2 1-2v-1l-1-2-2-3-1-2c-1-1-3-3-5-3l-1-1h-7l-1-1-3-1v-1l-1-1-2-2-1-1h-2v-1l-2-2-2-1v-1h1l-1-1h-4v1h-9l-1-1-1-1h-1l-2-2h-2v1l-1 1-1 1h-1v-1l1-1v-2h-1l-2 1-2 2-3 1h-2l-1 2-1 2-2 1v2-1h-1l-1-1-3-1h-4l-3 1-3-3-2-2v-1l1-3v-4l1-3h-1l-1-1-2-1h-10c1-1 2-2 1-4l1-1v-1l1-1 1-2 1-3 1-1v-1l-1-1h-3l-3 1-2 1-1 1-2 4-2 1h-2l-3 1-2-1-2-1-1-1-2-3-1-1v-5l1-6v-1l1-3v-4l3-3 4-2 2-1h5l1 1 3 1 2-1v-1l1-1 1-1h4l5 2h3l2 2v4l2 5 2 2h1l2-4v-1l-1-2v-3l-1-7v-1c1-1 2-3 4-3h1l1-2 1-1h1l2-2 3-1 1-1v-1l1-1v-8h1v2h1l1-2v-2l1-1h1l2-3 1-2h2l1-1h-1v-1h6l1-1v-1l-1-1v-2l3-3 2-1h1l4-1 1-1v-1h4-1l-1 1-2 2v1l1 1h1l3-2 2-1 4-1 2-1 2-1h1v-4h-1l-3 3h-4l-1-1-2-2 1-3-1-1h-1 1l2-1v-2l-1-1h-2l-8 2v1l-1 1h-2v1-1h2l1-1 1-2 3-1 2-2 2-2h2l9 1h4l1-1 2-2 2-1h1l4-2 1-1-1-2 1-1v-1l-2-1h-1 1v-1l-1-1h-2l1-1h1v-1l-1-1h-1l-3-1v-1l-2-2-1-1v-1l1-1v-4l-1-1v-1l-1-1v-3l-1-4v-2h-1l-2 4-3 3h-1l-2 1h-1l-1-1-1-1v-6l2-2-1-1-2-1-1-1h-1v-1l-1-2-1-2h-3l-4-1-1-1-3 2v3l-1 2v4l-1 2-3 3v2l1 1 1 1v7l-2 1-4 3-2 1-1 1v9l-1 2h-1l-1 1h-1l-1-1v-1l-2-3v-2l1-4v-1l1-2h-1l-4-1-2-1-2-2-3-2-2-3-3-2h-2l-2 1 1-3-1-3v-2h-1l-1-1v-2l4-7 1-1 4-4 2-2 1-1 1 1 2-2v-1h-1 1l3-2h3l5-4v-1l1-1 2-2 1-1v-2l2 1h5l3-2h1l1-2v-6h1l2-1v-3l-1-2-1-1-1-1h-2l-2 1-1 3-1 1-1 2-1 1-1 1-1-1-1 1v2l-1 1-1-1v-2l1-3 1-1-1-4h-1l-2 2-1 2v-4h1v-2h-1l-2-1v-1l2-1v-1l1-1v-6l-1-4 1-1 2-1 1-2v-1l2 1h1l1-1 5-4v-3l-4-1-1-1h-2l-1 1-2 1-1 2-1 3-1 2-1 3-1 1-1 1-1 2h1-2l-2 4-1 1v1l-1 2 1 2v1h1l2 1v1h-1l-2 2h1v1-1h1-1v2l-2 1-2 1-2 2v2l-1-1v-1l2-3h-1l-1-2h2l2-1v-2l1-1 1-1h-1l-2-2-1-1-2 1c0 1-1 2-3 2v2l2 2-1 1h-1l-1 1-1 1v1h-1l-1-1h-4l-2-1-2-2-1-1-1-2v-1l-1-2-4 1-2 1 1 1h3l2-1v1l-2 1-2 1h-1l-1 1-1 3v1h-1v-2l-1-2-1-1-1-1h-1c-3 1-6 0-8-2l1-1h1l2-2-1-2-2-1-3-1-3-3-2-2-2-2h-2l-1 1h-1s-1 0 0 0l1-4h-1v1l-3 2-1-1v-2l1-4-1-1-1 1-1 1-1 1h-3 1v-2h-2l-5 1-1 1h-3v1-2h-2l-2 1-1 2h-1l-1-1-1-2-1-2-1-1-2-2-3-3-1-1h-1l-3-1-3-2-1-1-1-2-2-1-2 1v-1l-1-2v-2l-2-1h-1v-1l-1-1h-1v1h-2 2v-1h1l-1-2h-1l-2 1h-7l-1 1v1h-3l-3 1-5 4h-1c-2 1-4 2-6 1h-1l-2 1-1 1-1 3 1 2v6l2 1v1h-1v3h4v1l-3-1v1l-2 1h-2l-2-1v-1l1-1-1-2h-3l-1 1-1 1h-2l-4 1v2l1 2-1 1-1 2v2c1 1 2 2 3 1l4 1h1l3-1h1v1l-1 1v1l-1 2-2 2h-1l-1-1h-1c0 2-1 2-3 2l-2-1-3 3-5 4-1 3 1 2c1 1 0 1-1 1v5l1 1h4v-1l-1 1v2l-1 1v3l-1 1h3l2 2h5l-2 2c-1 3-2 4-5 6l-2 1-3 2-2 1h-1l-3 1-2 1-3 2h-2l-2 1v1h3l1-1 3-1 3-1v-1l1 2v-1l3-1h1l2-1 2-1 2-1h1l1-1 1-1 2-1 1-1 4-2 3-2 1-1h1v-4l2-1h2l1-2 1-1h1c1-2 3-3 5-3 1-1 1 0 1 1v1h-4v1l-3 3v2l-2 1v1h2l3-1 1-1h3l1-1 1-1h2v-1l-1-1v-2l1 1h3v1l2 3 1 1 1 1v1h2l2 1h1l1 1 2 1s1 0 0 0v2l1 1 1 1v1l1 3h3l-1-1v-1h1v2l1 1-1 1v-1l-2 1v4-1 1l1 1v3l1-2 2-1 2-3v-1l1 1v1l-1 1v2l1 1-1-1h-1l-1-1-1 1h-1v3l1 1v-1h1l-1 1v4l1 2v1l1-1 1-3h-1 1v1-1 1l1 1-1 1 1 1h1s1 0 0 0l-1 3-1 1v2l1 1 2-1h1v1l-1 1-1 1v1l2 2v1l-1 1v2l1 2 1 1 2 1 1 1v2l1 1v1h1l1 2v3h-1l-3-1h1l1-1v-3l-1-1-1-2-2-2-2-1-1-1h-2l1 2v1l1 2 4 5h1l-1 2v4l-1 5-2 5-2 4-1 4v1l-1 5v7l1 2 1 1 1 1-1 1 1 3v1l1 3 1 2v1l5 2 2 4 1 3 1 5 1 2 2 3v2h-1v1l2 2 3 2v3l1 2 4 5h1l1-2-2-1-1-4-1-1v-2l-2-3-1-4-3-3v-6l2 1 1 1 1 4 3 5 1 1 1 2 2 2-1 1 1 1 1 1 2 2v1c3 3 4 5 5 9v4l2 2 2 2 2 1 1 1h2l4 3 3 1 2 1h10l4 4 3 2 4 1 4 1h1l1 2 2 3 1 1c-1 1 0 2 1 2h1l1 1 2 2 2 1h1l2 1 2 1h2v-2l2-2h1l1 2 1 2 1 2 1 1v7l-2 2-2 3-2 1-1 1v1l-2 4v3l1 2h1v-1 1l-1 1-1 1c-1 1-2 2-1 3v4l2 1 2 1 1 2 1 1 1 4 3 4 3 5v1l1 2 6 5h1l3 2 4 3v1l1 2v22l-1 3v8l1 3v5l-1 2-1 7-1 1v2l1 3v7l1 2 1 1-2 1v3l1 1 1-2v-3l1-1 1 1v1l-1 3v9h-1v-1l-2 1-1 3h3l1 1-1 3h1-2l-1 1 1 1v2h1v2l2 1v2h-1 1v3c-1 0 0 0 0 0h1v-3l1 1v3h-1l-1 1h2l1 2 1 1 1 1h1v1-1h-4 1l3 3 2 1h1v-1h1v1l1 1v1l2 1 1 1 1-2v1l1 1 1 1h2v-1l2-1h1v-1l1 1 2-2h-1l-4-2-2-2-1-2-2-2h-1v1l-1 3h-1v-1l2-2v-1h2v-1l-1-2-1-2v-3l1-1 1-2 1-2 2-2v-3l-1-1-2-1-1-1v-3l1-1 2-1v-4l1-2 1-1h-1v-1l1 1 2-1-1-2h-1c-1 1-2 0-2-1l-1-2 1-1 2 1h2l2-1v-6l7-1h2l2-2 1-2v-2l-1-1h-1v-4l-2-1h-1v-1 1h1l4 1h2l4-2 1-2 2-2 1-3v-2h1l1-2v-1 1l1 1 1-1 3-6v-5c0-1 0-3 2-4l1-2 4-2 1-1 2-2h4l3-1 1-1v-1l1-2 1-3 1-2v-3l1-3 1-5-1-4 1-1c2 0 2-2 3-3v-1l2-2 2-2 2-3v-4l-2-5zm-47-169-1 1h-1l2-1zm-13 4zm-1-6h5v1h-4l-1-1zm0 5zm-8-8 1 1-1-1zm-2 1h1v2l-1-2zm-5-3zm-5 15-1 1v-1h1zm-5 8s0 1 0 0h-1 1zm-13-73h1l1 2v1l-1-1-1-2zm-16 5h2l1 1-1-1h-2zm-5-2c-1 0-1 0 0 0zm22 69zm-2 18 1-1h3l2-1h1l-1 2c0 1-1 2-2 1h-4l-1-1h1zm-1 3-3 2-3 1h-3v-1l4-2h3l1-1 1 1zm-8-13 6 2 2 3-1 1-2-1-1-1v2l-1 4h-2v-2h-2l1-1v-3l-1-1-1-1-1-1-1 2-1 1-2 1-1 5c0 2-1 3-3 5l-1-1 1-5 1-3v-2c2-3 2-3 5-3h4v-1h1zm-1-26v-1 1zm-8 12h1v2h-1v-2zm-2-4h-1zm-2-50v-1l1 1-1 1v-1c-1 0 0 0 0 0zm-2-2h-1c1 0 0 0 0 0h1zm-1 37h-1 1zm-2 17h2v1l-1-1h-1zm3 10 4-1 3-2h2l2 2 1 1 1 2v2l-1 1-1-1-2 1-3-1v-1h-1l1-1v-1h-1l-1 1-3 2-2-1h-2l3-3zm-3-23-1-1h1v1zm-2-43 1-1 1 1-1 2h-1v-2zm-1 14h1-1v1-1zm0-10zm-2 24zm-1 32 1-1v2h-1v-1zm0-22v1-1zm-1-9s0 1 0 0h-1 1zm-1 23-1 3 1-3zm0-12zm-2 2 2 1v7h-1v-1l-1-1v-3l-1-1 1-2zm-3 5-1 1h-1v-1l1-1-2-1v-1h2v-1l-1-3h2l1 1v3h-2l1 1v2zm1 8h-1v-3l1 2v1zm-1-62v1-1zm-2 29 1-1h1v1l-2 1v-1zm0-29zm-1 36h1l1-1c-1-2-1-2 2-4v1l-1 1-1 2v1h-1l-1 1v-1zm0-46v1l-1-1h1zm-2 6v1-1zm-68 26v-1 1zm2-5h-1 1zm0-4zm1 16h-1l-1-1 1-1 1 2zm0-2h1-1zm28-64h-1v-1h1v-1 2zm4-1zm1 50zm5 25h-1 1zm0-77h-3l-1 1h-1 1v-1h1l3-1v1zm22 82v-1h1v1h-1zm0-10 1-1-1 1zm1-21zm2-24s0 1 0 0c0 0-1 0 0 0zm-23-11h-1 1zm2 33zm1-20h-3v-1l1-1 2-1 1-1h2v-1l-1-1h-2l-4-1h1l4-1h4l3-1h1v1l-3 1v1h1c1 1 3 2 4 1 0-1 0-1 0 0h1l-1 1-1 1-1 1h-4v1l-2 1-1 1h-1 1l1-1 1-1-1-1-2 1-1 1zm7 2h-1l1-1v1zm-3 9-2-1 1-1 1 2zm-2 16zm5 9h-1l1-1v1zm1-13h-2l-2 1-2-1-1-1h2l1-2h3v-4l2 2 2 1 3-1 4-1h1v-1l-1 1-1 1-3 2-3 2h-3zm2 26v-1 1zm0-13 1-1 3-2h1l1 1h1-4l-2 1-1 1zm32 157-1-1 1 1zm34 5v1l-1-1 1-2v2zm6 163c0-1 0-1 0 0zm1-97-2-1v-1l2 2zm6 109h-1 1v-1 1zm1 3v-1 1zm1 3zm1-2-1 1 1-1zm5 1v1h-1l1-1zm-2 3h2-2c0 1 0 0 0 0l-1-1 1 1zm2-177zm5 100-1-1h1v1zm14-94v-1 1zm12 14h-1v-1h1v1zm3 3zm1 7h-1v-1l1 1zm2 35h-1 1zM108 175c-1 0-1 0 0 0zm182-64zm61-2v-1h-6l-1-1 2-1 1-1-1-2 1-1v1l2 3 2 1h1l1-1v-6l-3-3-1-1v-1l-1-2h1v1l2 2 1 1h1v-1l1-2v-1l-2-1-1-1-2-1h1l1 1 1 1h2l2-1 1-1v-2l-2-1v-1h4l1-2-1-2h-1v-1h1l1-1v-5l-2-1-1-1v-1l1 1v-1h-1l2-1 1-1v1l2 2v3-1l1-4 1-2-1-1-1-1h-1v-1l1-1-1-1-1-1h1l1-1 1-3c0-3 1-6 3-8l2-2v-1l2-2v-1h-2s-1 0 0 0v-1h4l1-1v-1l2-1 1-1v-3c-1-2-3-2-5-2h-3v1l-1 1-2-1-5 4-2 1h-1v1h-1l1-1h1v-1l2-2 3-2v-1c1-2 0-3-2-3l-1 1v1l-2 1h-4 1l1-1 1-1v-1l-2-1-7 1-2 1h-2v-1h1l4-1 5-1 4 1 4-1 3-2v-1l-2-2-4-1h-1 1l1-3h-14l-2 1h-1v-1h4l4-1h7v-1l-3-2-6-2h-7l-1 2h-1v1h1-1l-1-1h-1v2h-1l-2-1h-3l-1 1v2l-1 1v1h-1l-2-1-1 1v1l1 3 1 4-1 1-1-1-1-1v-2l-1-1-1-3-1-1h-1l-1 1v5h-2v1l-1-1v-5h-1v3l-1 1-1 1-1 1v-1h1l1-1-1-1 1-2v-2l-1-1-1 1-3 1h-4l-1 1v1h-1v-1h-2l-1 1v3l-2 1v1h-1l-2-1-3 2-2 1-1 1-2 2v2l2 1h1-1 1l-1 1-1 1v1l-2 2-1 1-4-1-1 1h-2l-4 1-3 2v2l2 3h1-1l1 1 1 1h4v1h-6l-2 1v2l2 2-1 1-1 1 3 3 1-1h1l1 1h1l4-1a23 23 0 0 1 6 4l1 1v8h1v10l-1 1v1l-1 2h1-1l-1 3 1 1h3v-1h2v1-1 1l-1 1v1l1 1v1l1 2h-1v-2h-4c-1-1-1 0-1 1v1h-1l-1 1v2l2 3 3-1v-2l-1-1 4 1 1 1-1 1-1 1v1l-1 1-2 2h-2l1 1v1-1h-1l-1 1v1l-1 1-1 1v3h1l-1 1-1 2 1 2v1l1 4v1h2v-1l1 1v-1 1h-1l-1 1-1 2 1 3h1v3l1 2v2l1 1 2 2h2l1-1 1 1 1 2v1h1l2 1 1-1 2-4 1-2 1-2v-2l1-1 2-2c1-1 2-2 1-3l1-1v-2l1-1 1-1 1-1h5v-1l4-2h1l2-1 2-4 3-2h3l1-1h2l4-1 5-2 5-5zm14-61zm-2 1v-1 1c1 0 1 0 0 0zm-46 77zm16-104zm1 1h-1 1zm8 82v-1 1zm1-5zm-53-8zm68-18zm319 325zm100-2h-2l-2-3-1-3-1-2h-2v-1l-1-2v-3h-1c-1-1-2-3-4-3l-1-1v-2l-1-4v-2l-1-2-1-3h-1l-1-1v-1l-1-3-1-4h-2l-1 3v2l-1 5v1l-1 4-1 2-1 1h-3l-1-2-2-1-3-2-1-1-1-1-1-1 1-3 1-1h1l1-3h-5l-4-2-2-1h-1v1c0 1 0 0 0 0l1 1v1h-4l-2 2-2 3v2h-4l-1-2h-2l-2 1h-1l-2 2-2 2v1h-1l-1 1v2l-1-2h-1l-1 1-1 2-1 3-1 1-3 2h-3l-4 2h-1l-3 1-3 2-2 1h-1v1l-1 1v3l-1 2 1 3v2h-1v4l1 4v4l1 4v2l-1 2-1 3-1 2 2 2 2 1h3c2-1 4-1 5-3h8l2-1 4-3 1-1h2l5-1 5-1h3l1 1 2 1 2 1 1 1 1 2 1 1v4h1l3-2 1-2 2-1v1l-2 3-1 2h-1l1 1h1l1-1 1-1v3l1 1v-1h1l-1 1 1 5v2l3 3 2 1 2 1h1l3-2h1l-1 1 2 3h1l3-3 4-1h2l2-2 1-4 2-4 1-2 2-3 3-4 1-1 2-3 1-4 2-4v-7l1-1v-5h1l-1-1h1zM254 39zm3-9z" class="st1"/><path d="M257 31v6h-1v2l1 1h1v1l-1-1h-1l-1-1h-4l-2 3-1 2v1h1l1 1v2h-1v-2h-4v1l1 3h-1l-5 2h-3v2l3 2 4 2h2v-1h2l3 1h1l1 1v1h2l2-1c1 1 2 0 2-1v-2l-1-1 1-1 2-1 2-2v-1h4l1-1-1-1 2-1 1-1 1-1v-3h-1 1l1 1 1-1v-1l-2-1h1s0-1 0 0h3l1-1v-1h1v1l3-1 4-3 2-2h1l5-2 4-3-1-1h-1l1-1h5l4-3 1-1 1-2-1-1-1-1v-3h-5l1-1v-1l-3-1-1-1-1-1h-4l-1-1-3-1h-2v1l-1 2V9h-1l-2-1h-1l-1 1v2l-1-2h-1l-1 1V9l-1 1-1 2-1 1h-1l-1-3h-1l-1 1-1 1h-1l1 2v1-1h-2l-1-1-1-1-1 1h-2l-3 1-1 1v1l1 1v-1h1-1v5l-1 1 1 3h2v1l3 1h3v1l4 1 3-2 1-1v2l2 1h-6l-3 1-2-1-1 1v3-1c0-2-2-3-3-4h-2l-2 2v1zm-6 19h-1 1zm1-5zm3 7zm38-25v1-1zm-33-3h1zm10 15h-1 1zm-38 57 3 1h1l1 1h2l-1-1h-1v-1 1h1l1 1h1l1-2v-2 1l2 1v3l2 3v1h-1l-1 1h3v1h-1v1h1l2 1v1l1 2v3l-1 1-1 1-3 2c-1 1-2 1-1 3v1h-6l-1-1h-1l-2 2v3l3 1 2-1 3 1 2 1 1 2v2l1 1 2 2 1 1 3 2 2 1 1 1 1-1v-1l-3-4v-2h-1 1l2 2 2 1 1 1 1 2h1v-3l1-1v-6l-1-1-2-2v-1l-1-2v-1l2-1h1l1 1 1 3v2l3 1v-1l1-1v-1h1l3-3 1-1v-1l-1-1-1-1-1-1h-1v-2l-1-1-2-1-1-1-2-2v-1l1-2h3v-1h-1v-6l-3-3-1-1h-1v-2l-1-2h-2l-2-1 1-1v-1h-1v-2l-1-1-2-2-3 1h-4v-1l1-4 1-1v-1l-2-2h-1l-4 1-2 2-1 1c-1 1-2 2-1 3v1l-2 1v4c-1-1-2-3-1-4v-1l1-3 1-1v-1l5-3v-1l-1-1c-2-1-4 0-6 1l-2 2-3 3-1 1v1l-1 1-2 4 1 1 2 1 1 1h-3l-1 1v1l1 2h1l1 1 1 1h2l1 1 2 1zm15 29s-1 0 0 0v-2h1v1l-1 1zm14-26h1l-1 1v-1zm-19-15 1-1-1 1zm-11 4zm-52-26z" class="st1"/><path d="m179 62-1 1h-3l-4 2-1 1-1 1-1 1-1 1v2l1 1h3v1h-3l-2 1v1l1 2 6 1 3 3v1l-4-2h-6l-1 1-1 2c0 2 1 3 3 3l2 1-1 2v1l1 2h7l2-1h2l2-1h2l1 1 1 2 3 1h3l1-1-1-3v1h-1l1-1h2l1 1 2-2v-1l-1-1-1-2-1-2-1-2 1-1 1-3v-2l2-4 1-1 3-3 1-1c0-1 0-2-2-2h-3v4-1l-1-1h-3l-1 2-1 3-1 4-1 1-1-1 1-3v-5h-1l-1 2v1l-3-1 1-1 1-1-2-2h-2l-1 1c-1 0-1 0 0 0l1-2v-2h-3zm593 290-2-2-1-1-1-1-1-1v-1l1-1v-2h-1l-2-1-2-2v-1l-7-3-3-1-3-1-5-2c-2-1-3-1-4 1l-3 3h-2l-1-2-1-1v-3l-1-1h-4l-3 1v1l1 1 1 1 2 1h3-1l-3 1 1 3h2l1-1 2 2h2l3 1 2 1 2 2 1 2v2l-2 1 1 1h2l3 1 1 1h1l4 1h1l1-2 2-2h2l2 1 1 1 3 3 2 1 5 1h1l-1-1v-1l-2-1zm-101-25v3l2 2v2l2 2h1l2 1h3v-1l3 1v1l1 1 2-1h2v-4l1-2 1-4 1-1 1-1h1l1-1-2-2v-2l-1-3 1-1 1-1v-1l2-1-3-1-1-2-2-1-1 1-1 1-1 1-2 2-3 2-1 2-3 1-2 2v1l-1 1-2-1-2 1-1 3zm-152 31h-1l-1 2v1l-1 1-1 1-2 2-2 2-2 1h-1l-2 1-1 2v8l-2 3c-1 1-2 2-1 4v4l1 1 3 2h2l1-1 3-1 1-3 2-5 3-8v-2l1-3 1-2 1-2v-2l-2-6zM494 86l-1 4v1l1 1-1 1-1 1v2l1 2h4v1l2 2h1l2 1h3l1-1-1-1-2-2-3-4v-8l1-1v-6l1-1 2-3 2-3 2-3 4-2 1-2c1 0 2-1 1-2v-1l-1-1v-1h-3c-1 0-2 1-2 3l-1 1-3 2-4 2-2 1v1l-1 1v2l-1 1-1 1h-1v1l1 1v3l-1 1-1 2v1l1 2zm224 153 1-1v-5l-2-3c0 1 0 0 0 0h1l1-1h1l2-1-1 1h-1l-1 2 1 2h2v-2h2l1-2-1-1v-1h1v1l1 2 1 1 1-1 2-3h2l2-1h1l1-2v1h1c1-1 2-2 1-3v-3l-1-5v-1l1-1v-2l-1-4-3-5h-1c-1 2-2 3-1 5v2c0 3 1 5-1 7v1l-2 2h-1v-1h-1v3l-1 3h-3l-3 1-2 1-3 4v1l-2 2v1l1 1-1 1h1v-1l1 1-1 1 1 3h3zm15-36zM242 42h1l2 1h1l1-1 2-1 2-1v-1l1-1h1-1l1 1h1l1-2 1-2-1-2v-2l2-1v-4l-1-1-2-1v-5c1-1 0-2-1-3h-2l-1 1h1l1 1v1h-3l-1 1v2h-3l-1 1 1 2v1h1-1l-1-1-1 1-2 5 1 1 1 1h1v1h-1l-2 2-1 3 2 3zm9-3zm412 297v-1h-1l1-1v2h2v-1l-2-3-1 1-1 1-1-1v-1l-1-1h-1l-1-1v-1l1-1-2-2-1-1-1-1h-1l-2-2-2-1-1-1-2-1-4-4-1-1-4-1h-1v3l3 2 2 1 1 2 2 3 1 1 1 2v1l3 3 1 2 1 2 2 3 3 3 3 2h4v-7z" class="st1"/><path d="M663 343zM157 67v3h1l3-1 1 1h2v-1l1-2 3-1 1-1 1-1 1-1h3l2-1h3l1-1v-5l-1-2h-1l-2-1-1-1-3-1h-4l-1 1-1 2v1l-3 2-1 2-5 4-1 1 1 1v2zm224 97 1 3v3h2v2l1 1h2v1l1 1v1c0 2 0 2-2 2h-1l1 2v2h-1l-1 1v1l4 1-3 1-2 3h3l2-1h1l3-1h4l3-2-1-1v-1l1-1c1-2 0-3-1-3h-2v-1l-1-3-2-1-1-3-3-3v-2l1-2v-1l-1-1h-2l1-2-1-1-2 1h-1l-1 3h-1l-1 1zm32-107 1 2 1 2 2 2 1-1v-2h1l2 1-2 2h-2v2l1 1h2v1h-1v-1l-1 1v1c0 2 2 3 3 3v1l1 2h1l1-1v-4l1-2v-1l1-5 1-2h1v2l1 3 1 1-1 2 1 1 1-1 1 1h1l2-3v-1h-1l-1-2h-2v-2l-1-1-1-1-1-2h-2l-2-2-1-2-1-1-1-1h-2l-1 2h1v2h-1v-2h-2v1h-1v-1h1l-1-1-3 1-1 1c-1 1 0 2 1 3l1 1zm7 8zm0-9h-1 1zm-169 7-1-1-1-1h-10l-1-1-2-2-1-1c-1 0-1 0 0 0l1-1h-1 2l1-1h-1v-2l-1-1-2-1h-1v-1l-1-1-2-2h-2l-1 2 1 3 3 1v5l-2 1-1 4 2 2h3v2h1l3 1 6 1h1l2 1h3l2-2v-1l1-1-1-3zm-51-13-3-1v-5l-1-1-1-1-1-1h-2l-2 1-1 1-1 1-1 1v1h1v1h-3l-1 1 1 1 1 1c1 1 2 2 3 1h3v1h-4l-1 1 1 2 1 1h2l3-1h1l3-1h1l2 1h2l2-1 3-3v-3h-1l-1 1c-1-1-2-1-1-2v-2l1-3h-2l-2 1-1 2 1 1-1 1-1 1v2zm614 410h-1l-1-1h-2c0 2-1 3-3 4l-1 1v1l-2 2-4 2c-1 1-1 2-3 2h-1l-4 4-2 4v1l3 2v1h3l3-3 2-2 1-1 1-2 3-3h2l1-1c-1-1 0-2 1-2l1-1 3-4v-1l1-1v-1l-1-1zM356 139l5-2 3-1 1-1 1-1v-1l1-2-1-1h-1v-2l-1-1h-3l-3 1h-5v1l-1 1-1-1v-2l-1-1-2 1v-1l-1 1-2 2 1 1h3v1l-1 1h-2v1c0 1 0 0 0 0h1l1 1 1 1v1h-1v1l1 1 3 1h4zM537 26h1l2 1h1l-1 1h-2l1 1 1 2h1l2-2-1-1h1s0-1 0 0l1 1v3l2 1 3 1h5l1 1 2-2v-1h-1l-1-1v-1l-1-2c0-2-1-3-3-3l-1-1h-4v1l-2 1c0-1 1-2 2-1v-1l-1-2-1-2-1-1-3-2h-2l-1 2-1 4 1 3zm292 421h-1v1h-3l-1-2v-3h-1v1l-1-1v-6l-2-3-1-1v5l1 2v4l1 1-1 3-1 3-1 1h-1l-1 2 2 2v3l-2 2v1l1 1h1l2-2 3-3 1-3 2-1 1-1 2-2v-1l1-1-1-2zM636 34l1 2 2 1 2 1 1 1h2l1-1 1-1 1-1c0-1 1-2 2-1h1v-2h1v-1h1v-2l-1-1-1-1-4-1h-1v1l1 3v1-1l-2-3-1-1h-2v3l-3-2-2-1-1 1v3l1 2zm11-2zm-6-2h1zM216 69l1-2h-3l-1-1h-1l-1-1-1 1h-1l-1 2c-1 0-1 0 0 0v4h-1l-1-2h-1l-2 1v4l2 1 1 4v2h2l1-1 2-1 1-1h1l1-3 1-2-1-1-1-2 2-1 1-1zm485 258h7c2 1 3 0 4-2v-1h-1l-1 1h-8l-2 1h-1l-1 1v3l-1 2v2l-1 1v2h1l1 2-1 2 1 1h2v-6l1-1v1l1 2 1 1 1 1h1v2h1l1-1v-2l-1-1-1-1v-2l-1-1v-1l1-1h3v-3h-1l-3 1-2 1h-1l-2-2 2-2zm4 13h1-1zM273 194z" class="st1"/><path d="M272 189v-1l-1-1-1 1h-2v-1l-1-1h-1l2-3 1-1v-1h-1l-2 1-4 6-2 2-1 1v1l-1 1 1 1h8v1l-1 1h2l2-2v3h3l1-2v-1h-1 1l-2-1v-1l1-1-1-1v-1zM179 40l2 1 1 1h1l2-1h1l2-2 1-2h1v1l-2 2v1h2l2-1 1-1 2-3 1-1h1v-3h-1l-1 1-3-1h-2l-6 4h-2l-3 2-1 2h1zm244 10 2 2h2v-1h1-1v1h-1v1l2 1h1l2 1h2l1-1 2-1 1-2 1-3-2-1-3-1-1 1-1-1h-2v2l-1-1-2-1h-2v1h-1v3zm-210-5-1 1v2l-1 1 1 3v1l2 1h2v1h-1l-1 1v2h1l2 1 2-1v-1l2-1v-1l2-2 1-3v-2h-1l-2-1h-2l-1 2v2l-1-2h-1c-1 0 0 0 0 0l-1 2v1l-1-2 1-1-1-2v-2h-1zm164 127-1 2h-2l-1 1v3l1 1-1 2h-1l1 2 3 1 1-1 3-1 1-1 1-3-1-1 1-1v-4l-1-1h-3l-2 1zm352 25 1 3 1 1h1l2-1v-1l-3-1 2-1c1-1 2 0 3 1h2l1-2 1-1 2-1v-2l-1-1v-1h-4l-3-3-3-1h-1v1l1 1v6c1 0 0 0 0 0l-1 1-1 2zM222 34l1 1h1c1 1 2 2 1 4l1 1h1l2-2 1-3 1-1v-2l-1-1v-1c0-1 0-2-1-1h-1v-2l-2-2-1 1h-1l-1 2v1l1 1v2h-3v1l1 1zm457 316h7v-1l-3-1h-2l-1-1h2v-1h-1l-3-1-2-1-2 1h-3l-2-1-3-1h-3l-1 2v1l2 1h1l2 1h2l4 1h4l2 1zm22-72h-2l-2 1v1l-1 3v2l1 3 1 1 1 2 1 1 1-1h1v1h3l1 2v2h2v-3l-1-1-2-2h-4v-2l-1-1 1-1v-1c1-1 2-3 1-4l-1-2v-1zm50 175h-5l-1-1h-1l-1 1v9l2 2h1l1-1 1-1 1-1 2-3v-1l1-3-1-1zM212 275v-1l-1-1-6-2-2-1-2-1-1-1-3-1-3-1h-1l-4 1-3 3h1l5-2h1l1 1 2 1h2l2 1 2 1 2 1v1c1 0 1 0 0 0v1l1 1h2l5-1zM559 33v1l1 3 1 3h1v-1l4-2 1-2 1-1v-1l-1-1-1-2-3-1-3-1h-1l-1 3 1 2zm153 268-1 2-1 1-1 1v1l-1-1h-2l-2 2-1 1v1h1l1-1h2l1 1v1l2 2 2 1 1-1v-3 1h1l1-2-1-3-1-2-1-2zm-499-21h4l1 2h1v-1l2-1h5l1-1-4-3h-5l-1-1h-1l-1 1 1 2c0 1 0 1 0 0l-1 1h-3v1h1zm32-202v2c-1 1 1 2 1 2l2-1 2 1h2v-4c-1-1-1-2-3-2l-3-1h-1v3zm0-1zm353 226-1-1v1l-1 4 1 5 2 1c2-1 4-3 3-5l-4-5zM231 41h1l3 1 1-1 1-2v1-1 1-3l-2-2v-1h-2l-2 4v3zm237-1-1 1 1 1v1l1 1h2v-1l1-2 2-2v-1l-2-2-1 1-1 2-2 1zm229 218-1 2-1 1-1 3c0 1 0 2 2 3v1h1v-1l1-4 1-3-2-2zM479 35v1h-1v1l3 1h1l2-2v-2h-2v-4l-1-1-2 1v4l-1 1h1zm2 0v-1 1zM221 59v2l2 2h3v-2l1-2-1-2h-3l-2 2zm2-2zm433-27 4 1h2l1-2v-1l-2-1h-6l-1 1 2 2zm124 309-2 1-2 2-2-1-3 1h-1v1l6 1h1l2-2v-1l1-1-1-1zM207 29l2 1 2 1c1 1 2 0 3-1v-2l-2-1h-5v1h-1l1 1zm445 17h3l4-1v-1l-2-2h-3l-1 1-1 2v1zm21 229-1-1h-1l-4 2 1 3 4-1 1-3zm-259-56 1 3c0 2 1 2 2 1l1-1v-4c0-1-1-2-3-1l-1 1zM239 110l1 1c2 0 3 0 4-2l1-1-1-2h-2l-3 3v1zM95 153h-2v5l1 3 1 1 1-5 1-3h-1l-1-1zm612 202 3-1 3-2 1-1h1l-1-1-4 1-2 1-1 1-1 2h1zM31 87h1l1 1 1 2h1l2-1-1-2-2-2-1-1h-1l-1 2v1zm204-41 1-1h1l-5-3-1 1v2l4 1zm474 248v3h1-1v2l1 2 1-1v-1l1-2-1-2-2-1zM487 34l-1 1 1 2 1 1 2-1v-3l-1-1-1 1h-1z" class="st1"/><path d="M464 42h2l1-1v-1l1-1h1l-2-1h-1l-3 2 1 2zm3-1zm15-1v2h3l1-1v-2l-1-1h-1l-2 2zm9-6 1-1 1-2-1-3h-1l-1 2v1l1 2zm228 303 5 1h1v-2l-6-1-1 1 1 1zm92 53h1v-1l-3-4-2-1h-1v1l2 3 3 2zm-123-39h1l2 1 4-1v-1l-2-1h-1v1h-4v1zm16 0 1-1v-1l-3 1-2-1h-1l-2 1v1h7zM490 109l-1 1 1 1 1 1c2 0 2-1 2-2v-1l-2-1-1 1zm-268 22-1-1h-2l-1 1-1 1v1h2l3-2zm376-74 1 1h1l1-1v-2h-2l-1 1v1zM249 185h-1v1h1l1 2 3 1v-1c-1-2-2-3-4-3zm226 51 2-1 1-1v-1l-2 1-2 1v1h1zM188 42h-1l-4 2v1h1l3-3zm229 174v-4h-2v4h2zm274 89h1l2-2 3-3v-1h-2l-4 5v1zm16-5-2-2v1l-1 2v2l1 1 1-1 1-1v-2zm-503-21h-2v1c1 1 2 2 4 1l1-1-3-1zm501 19v-1l-3-1v3l1 1h1l1-1v-1zM33 109l1-2h-3v2h2zm492-26c1 1 2 0 2-1l-1-2h-1l-1 3h1zm-72 151h-1v1h6v-1h-5zm-220 46-1-1-2 1v1l4-1-1-1zm466 12h-1l2 3h1v-2l-1-1h-2zm-4 61 3 1 1 1v-2l-3-1h-1v1zM215 42h1l1-4-1-1c-1 0 0 0 0 0l-1 3v2zm571 300v1l1 2h2v-1l-3-2zM225 133l-1 3 1 1v-1l1-1v-2h-1zm532-19-1 1-1 1 1 2h1l1-2-1-2zm-510 84zm2 1h1l-1-2-2-1h-1l1 2h1l1 1zm0 0zm496-11 2-4v-1l-1 1-1 1-1 2v1zm-29 149v-1h-3v1l2 1 1-1zM361 80v2h2v-2h-2zM16 140l-3 2h1l3-1v-1l-1-1zM238 26l1-2v-1h-1c-1 0-2 1-1 2l1 1zm1 23h1l1-1-1-1h-1l-1 2zM12 141h-1l-2 3 3-2v-1zM650 40h-1v1l1 2 1-1h1l-2-2zm-428-1 1 1 1-1-2-1v1zm-19-6s-1 0 0 0l-1 1v1l1 2h2l2-1 1-1 1-1 1-1c1 0 1 0 0 0v-1l-4-1-3 1v-2h-1l-1 1v1l2 1zm553 129 1-3h-1l-1 3h1zm-538-1 2-1v-1h-2v2zM634 36h1l-1-1-1-2h-1l2 3zM214 66h1l1-1h-3l-1 1h2zm-7-10 2-1v-1h-1l-1 1v1zm205 3c0 1 0 2 2 3 0-2-1-2-2-3zm-182 70v2h1l1-1-1-1h-1zm-19 42-1 1h2v-1h-2zm495-25-1 1 1 1h1l-1-2zm23 286 1 1h1v-2l-2 1zM542 80l-1 2h2l-1-2zm193 262h-1v3l1-2v-1zm-10 17 1-1h-3l1 1h1zM58 124l-2 1h3v-1h-1zm-2 1-1 1h-1l-1 1c-2 0-3 1-3 3h1v1h1l3-2 2-1v-2l-1-1zm735 358-1 1v1l2-1v-1h-1zM243 301v1l1-1v-1h-1v1zM488 34v-2h-1l-1 1 2 1zm43 261h-1v1l2-1h-1zM240 101h-1l-1 1v1h1l1-1v-1zm575 268-1-1v1l1 1v-1zM247 110v-1l-1-1-1 1 2 1zm555 243 1-1-1-1-1-1v1l1 2zM479 39h-1v1h2l-1-1zm1 2zm78 7 2-1h-1l-1 1zm16-14h-3 3zM273 409zm-2 1-1 1v1c2 0 3-1 3-3h-1l-1 1zm0 0zm58-389h2l-1-2-1 1v1zm382 312h2l-3-1-1 1h2zm89 21v-1l-1-1h-1v1l2 1zm-59-163zm2-2-1-1v1l-1 2 2-2v-1zM474 44v1h2l-1-1h-1zm13-2 1 1 1-1-1-1-1 1zm155 282h-1v1l1 1h1l-1-2zM478 43l2-2h-2l-1 1v1h1zM74 117zm675 65 1-2-1 2zm-369-20v1-1c0 1 0 0 0 0zm2-1-1-1-1 1v1h1l1-1zm285 174v1h2v-1h-2zm130 14h1l-2-1 1 1zM196 94h-1v1l1-1zm449 237s-1 0 0 0v1h1l-1-1zM249 144l-1 1h1v-1h-1zm553 211 1 1h1l-1-1h-1zM220 46h-2v1h2v-1zm-1 1zm4 68-1 1 1 1h1l-2-2zm34 25h-1v1h1v-2zm524 197v3l1-1-2-2zM481 27v-1l-1 1h1zm7 0h1l-1-1v1zM197 39h1v-1h-1zm463 286h-2 2zm65 3v1h2v-1h-2zM540 65h1l-1-1v1zm-317-8h-2 2zm-2 0s0-1 0 0c0-1 0-1 0 0zm487 244-1 1h2v-1h-1zm0-2h-1v2l1-1v-1zm-1 1zm0 1zm-462-12h-1v1h1v-1zm-1-4h-1v1l1-1zm-11-157v1l1 1v-1l-1-1zm-29 134-1 1h2l-1-1zm3-4-1-1v1h1zm-4-1h1v-1l-1 1zm12 16v-1h-1v1h1zm564 63zm-2-1 2 1-2-1zm-60-5 1-1h1v-2l1-1v-1l1-1h-1l-1-1 1-1c-2 0-3 2-3 4v1l1 2h-1v1zm-88-37v2-2zm97 55h1v-1l-1 1zM534 83v-1h-1v1h1zm-291 18-1 1h1v-1zm463 131h-1c-1 0-1 0 0 0v1l1-1zm-29 166s0-1 0 0h-1l1 1v-1zm0 1zM474 44zm-1-1h-1 1l1 1-1-1s0-1 0 0zm225 253-1-1-1 1h2zm15 52h1v-1l-1 1zM367 35v-1h-1l1 1zm137 322v-1l-1 1h1zM365 55v1h1v-1h-1zm80 171-1-1v1l1 1v-1zm0 1zm298 222v-2 1h-1l1 1zm-25-116v-1s0-1 0 0h-1 1zM222 453v-1h-1l1 1zm516-88 1 1v-2l-1 1zM325 25v-1h-1v1h1zm491 347v-1l-1 1 1 1v-1zM496 98h-1l1 1h1v-1h-1zm173 219h-1 1c0 1 0 0 0 0zm39-26c-1 0-1 0 0 0 0 1 0 0 0 0zm-463 1h-1 1zm546 53zm1 2v-1l-1-1 1 1zM227 55l-1 1 1-1h-1zm489 193h-1v1h1v-1zM224 94h2-2zm2 0zm46-39h-1 1zm467 278 1-1h-2l1 1zM455 221v-1 1c1 1 0 0 0 0zm92-172c0-1 0 0 0 0-1 0 0 0 0 0zm246 301v-1l-1-1 1 1zM95 150v-1 1zM642 45l1 1v-1h-2zm97 286v-1h-1v1l1-1zM255 61zm-1 1h1v-1h-1v1zm513 271-1-1v1h1zm47 53-1-1v1h1zM295 106v-1l-1 1h1zm-72 349v-1l-1 1 1 1v-2zm0 1zM578 40l-1-1v1h1zM327 21v-1h-1v1h1zm145 14-1-1v1h1zm280 414v1h1v-1h-1zm-528 23v1-1zm551-119-1-1v1h1zm-1 0zM190 95v1l1-1h-1zm171 159zm352 0v-1l-1 1h1zm-502 10h-1 1zm-6 1v-1 1c-1 0 0 0 0 0zm8 3zm1 1v-1h-1v1zm78-171h-1 1zM191 270v1h1l-1-1zm57 23v1l1-1h-1zm-7-194v1-1zm462 196h-1 1zm-75 2h1-1zm76 13h-1v1-1zm20 22-1 1h1v-1zM364 66v-1 1zm346 283h-1v1l1-1zm66 5-1-1 1 1zm0-1h-1 1zm-31 20h-1zm0-1v1-1zm-68 27-1 1h1v-1h-1zM369 34v-1l-1 1h1zm114-1v1h1l-1-1zM214 72v1-1zm320 7h-1 1zM76 117v1h1l-1-1zm346 2 1-1h-1v1zm1-1h-1zm44 13h1v-1l-1 1zm-221 3v1-1zm315-84v1-1zm194 109zm-24 56v-1l-1 1h1zm-329 7s-1 0 0 0zm60 10h1l-1-1v1zm-286 17zm1 1v-1h-1l1 1zm44-187zm-26 1v-1c-1 0-1 0 0 0zm509 83v1-1zM549 68l-1-1v1zm-1 2v-1 1zm-428 0c0 1 0 1 0 0 0 1 0 1 0 0zm1 0h-1 1c0 1 0 0 0 0zm417 0v1-1zM405 221h-1c-1 0 0 0 0 0zM238 106h-1zm245-76v-1h-1l1 1zm228 204zM546 73l1-1-1 1zm-188 0v1-1zM223 35zm313 46v-1 1zM367 36v-1 1zm0-1zm144 72zM199 85zm38-45v-1 1zm244 1h-1 1zm-1 0zm234 194 1 1-1-2zM247 42zm533 295-1-1 1 1zm0 0zM427 44h-1 1zm-1 0zm215 0v1-1zm0 1zM195 91v-1 1zm0 0zm193 67h-1 1zM244 288v-1 1zm201-61zm0 0v1-1zm272 15h1-1zM294 96zm0 0h-1 1v-1zm-20-41zm182 174zm-245 37v1c0 1 0 0 0 0v-1zm209-55zm-1 1v-1 1zm19-154v1-1zm102 3zm-2 1h1-1zm221 230zM382 169zm-1 1h1v-1h-1zM243 296c0 1 0 0 0 0zM18 139zm610 161h1-1zM93 138zm597 169zm-58 2v1-1zm69 3zm-3 2zm17 3h1-1zm-443 10s0-1 0 0c-1-1-1-1 0 0h-1zm1 0h-1 1zm387 1v1-1zm0 1zm-1 1v-1zm115 4 1 1v-1h-1zm-125 2zm54 6v-1l-1 1zm65 0h1-1zm-69 2v-1 1zm8 6c-1 0-1 0 0 0zm-2 6zm-197 4zm309 12zm1 4h-1zm1 3v1zm-4 9h1-1zm-63 63h1-1zM385 175zm117-65h-1 1zm-1 0zm-68-1zM253 487h-1 1zm37-395c-1 0 0 0 0 0h-1zm-56 8zm513 1h-1 1zm-1 0zm-307 5h-1 1zm0 0zm17 113zm-26 14zm-217 35zm26 13h1v-1zm160-57zM340 17zm391 153zm1 0h-1 1zM34 137zm0 0c-1 0-1 0 0 0zm698 34v-1 1c0-1 0 0 0 0zm0 0v-1 1zm-20 148zm-75 2v-1zm82 9c0-1 0 0 0 0zm0 0zM44 131zm247-98zm486 302zm-75-43zm0 0zm30-121zm59 174c-1 0 0 0 0 0zM484 37zm308 311zm-86 7-1 1 1-1zm-190 6h1-1zM222 47h-1 1zm216 1zm0 0zm125 1zM73 118zm0 0v2l2-2-1-1-1 1zm550-64h1l-1-1v1zM102 164zm166-48zm334-56zm0 0zm-347 1zm-38 1zm328 11zM234 486zm0 0zm200-321h1l1-3h-1l-1 2v1zm3-12h1v-1l-1-1v2zm-9 19v-1h-1v1h1zm15-14h1v-1h-1v1zm-7 4zm7-1z" class="st1"/></g><path d="M248 440c0 2-2 4-4 4s-4-2-4-4 2-4 4-4 4 1 4 4zm-22-8c0 2-2 4-4 4s-4-2-4-4 2-4 4-4 4 2 4 4zm33-6c0 2-2 4-4 4s-4-2-4-4 2-4 4-4 4 2 4 4zm38-43c0 2-2 4-4 4s-4-2-4-4 1-4 4-4 4 1 4 4zm-16-27c0 2-2 4-4 4s-4-2-4-4 1-4 4-4 4 1 4 4zm30-12c0 2-1 4-4 4s-4-2-4-4 2-4 4-4 4 2 4 4zm-36-12c0 2-1 4-4 4s-4-2-4-4 2-4 4-4 4 1 4 4zm-12-16c0 2-2 4-4 4s-4-2-4-4 1-4 4-4 4 2 4 4zm-21-11c0 2-2 4-4 4s-4-2-4-4 1-4 4-4 4 1 4 4zm-19-5c0 2-1 4-4 4s-4-2-4-4 2-4 4-4 4 1 4 4zm-13 9c0 2-2 4-4 4s-4-2-4-4 2-4 4-4 4 2 4 4zm-21-8c0 2-1 4-4 4s-4-2-4-4 2-4 4-4 4 1 4 4zm-24-18c0 3-2 4-4 4s-4-1-4-4 2-4 4-4 4 2 4 4zm-21-7c0 2-2 4-4 4s-4-2-4-4 2-4 4-4 4 2 4 4zm-9-21c0 2-2 4-4 4s-4-2-4-4 1-4 4-4c2 0 4 2 4 4zm22 2c0 3-2 4-4 4s-4-1-4-4 2-4 4-4 4 2 4 4zm16-13c0 3-2 4-4 4s-4-1-4-4 2-4 4-4 4 2 4 4zm28 13c0 2-2 4-4 4s-4-2-4-4 1-4 4-4 4 2 4 4zm-5 12c0 3-2 4-4 4s-4-1-4-4 1-4 4-4 4 2 4 4zm15 5c0 2-2 4-4 4s-4-2-4-4 2-4 4-4 4 2 4 4zm13 5c0 2-2 4-4 4s-4-2-4-4 2-4 4-4 4 2 4 4zm-27-37c0 2-2 4-4 4s-4-2-4-4 1-4 4-4 4 1 4 4zm-52-9c0 2-2 4-4 4s-4-2-4-4 2-4 4-4 4 2 4 4zm33-17c0 2-2 4-4 4s-4-2-4-4 2-4 4-4 4 1 4 4zm23-10c0 2-2 4-4 4s-4-2-4-4 1-4 4-4 4 1 4 4zm14-6c0 2-2 4-4 4s-4-2-4-4 1-4 4-4 4 2 4 4zm-25-19c0 2-2 4-4 4s-4-2-4-4 2-4 4-4 4 1 4 4zm-36 12c0 3-2 4-4 4s-4-1-4-4 2-4 4-4 4 2 4 4zm-19 17c0 2-2 4-4 4s-4-2-4-4 1-4 4-4 4 1 4 4zm16 3c0 3-2 4-4 4s-4-1-4-4 2-4 4-4 4 2 4 4zm5-48c0 2-2 4-4 4s-4-2-4-4 2-4 4-4 4 2 4 4zm12-22c0 2-2 4-4 4s-4-2-4-4 2-4 4-4 4 2 4 4zm12-23c0 2-1 4-4 4s-4-2-4-4 2-4 4-4 4 1 4 4zm-24-6c0 2-2 4-4 4s-4-2-4-4 2-4 4-4 4 1 4 4zm-20-11c0 2-2 4-4 4s-4-2-4-4 1-4 4-4 4 2 4 4zm-34-22c0 2-2 4-4 4s-4-2-4-4 2-4 4-4 4 1 4 4zm-4 19c0 2-2 4-4 4s-4-2-4-4 2-4 4-4 4 2 4 4zm20 23c0 2-2 4-4 4s-4-2-4-4 2-4 4-4 4 2 4 4zm13 22c0 2-2 4-4 4s-4-2-4-4 2-4 4-4 4 1 4 4zm2 26c0 2-2 4-4 4s-4-2-4-4 2-4 4-4 4 1 4 4zm81 58c0 2-2 4-4 4s-4-2-4-4 2-4 4-4 4 2 4 4zm15-19c0 2-2 4-4 4s-4-2-4-4 2-4 4-4 4 1 4 4zm26-10c0 2-2 4-4 4s-4-2-4-4 1-4 4-4 4 2 4 4zm-11-9c0 2-1 4-4 4s-4-2-4-4 2-4 4-4 4 2 4 4zm1-13c0 2-2 4-4 4s-4-2-4-4 1-4 4-4 4 2 4 4zm23-2c0 3-2 4-4 4s-4-1-4-4 1-4 4-4 4 2 4 4zm-10-25c0 2-1 4-4 4s-4-2-4-4 2-4 4-4 4 1 4 4zm-13 5c0 2-1 4-4 4s-4-2-4-4 2-4 4-4c3 0 4 1 4 4zm-8-18c0 2-1 4-4 4s-4-2-4-4 2-4 4-4 4 1 4 4zm19-4c0 2-2 4-4 4s-4-2-4-4 1-4 4-4 4 2 4 4zm-15-12c0 3-2 4-4 4s-4-1-4-4 2-4 4-4 4 2 4 4zm15-8c0 2-2 4-4 4s-4-2-4-4 1-4 4-4 4 2 4 4zm14 6c0 2-1 4-4 4s-4-2-4-4 2-4 4-4 4 1 4 4zm90 13c0 2-2 4-4 4s-4-2-4-4 2-4 4-4 4 2 4 4zm66-73c0 2-2 4-4 4s-4-2-4-4 1-4 4-4 4 1 4 4zm45-19c0 2-2 4-4 4s-4-2-4-4 2-4 4-4 4 2 4 4zm17-6c0 3-2 4-4 4s-4-1-4-4 2-4 4-4 4 2 4 4zm55-14c0 2-2 4-4 4s-4-2-4-4 1-4 4-4c2 0 4 2 4 4zm26 12c0 2-2 4-4 4s-4-2-4-4 2-4 4-4 4 2 4 4zm77 0c0 2-2 4-4 4s-4-2-4-4 2-4 4-4 4 1 4 4zm19-4c0 2-2 4-4 4s-4-2-4-4 2-4 4-4 4 1 4 4zm-6 14c0 2-1 4-4 4s-4-2-4-4 2-4 4-4 4 1 4 4zM555 31c0 3-2 4-4 4s-4-1-4-4 2-4 4-4 4 2 4 4zM304 147c0 2-1 4-4 4s-4-2-4-4 2-4 4-4 4 1 4 4zm-13-25c0 2-1 4-4 4s-4-2-4-4 2-4 4-4 4 2 4 4zm12-13c0 2-2 4-4 4s-4-2-4-4 2-4 4-4 4 1 4 4zm9 20c0 2-1 4-4 4s-4-2-4-4 2-4 4-4 4 2 4 4zm21-13c0 2-2 4-4 4s-4-2-4-4 2-4 4-4 4 2 4 4zm16-6c0 2-1 4-4 4s-4-2-4-4 2-4 4-4 4 2 4 4zm11-29c0 2-2 4-4 4s-4-2-4-4 2-4 4-4 4 1 4 4zm4-24c0 2-2 4-4 4s-4-2-4-4 1-4 4-4 4 2 4 4zm12-19c0 3-1 4-4 4s-4-1-4-4 2-4 4-4 4 2 4 4zm-16 4c0 3-2 4-4 4s-4-1-4-4 2-4 4-4 4 2 4 4zm-12-10c0 2-2 4-4 4s-4-2-4-4 2-4 4-4 4 2 4 4zm14-7c0 3-2 4-4 4s-4-1-4-4 2-4 4-4 4 2 4 4zm-13-8c0 3-1 4-4 4s-4-1-4-4 2-4 4-4 4 2 4 4zm-15 10c0 2-2 4-4 4s-4-2-4-4 2-4 4-4 4 2 4 4zm-22 3c0 2-1 4-4 4s-4-2-4-4 2-4 4-4 4 2 4 4zm-15 14c0 2-2 4-4 4s-4-2-4-4 1-4 4-4 4 2 4 4zm-16 7c0 2-2 4-4 4s-4-2-4-4 1-4 4-4 4 2 4 4zm1 13c0 2-2 4-4 4s-4-2-4-4 2-4 4-4 4 1 4 4zm16 4c0 2-2 4-4 4s-4-2-4-4 1-4 4-4 4 2 4 4zm-3 24c0 2-2 4-4 4s-4-2-4-4 1-4 4-4 4 2 4 4zm30 4c0 2-1 4-4 4s-4-2-4-4 2-4 4-4 4 2 4 4zm-2-22c0 2-2 4-4 4s-4-2-4-4 2-4 4-4 4 1 4 4zm9-22c0 2-1 4-4 4s-4-2-4-4 2-4 4-4 4 2 4 4zm-67 49c0 2-2 4-4 4s-4-2-4-4 2-4 4-4 4 2 4 4zm-16-4c0 2-2 4-4 4s-4-2-4-4 1-4 4-4 4 1 4 4zm3-18c0 2-2 4-4 4s-4-2-4-4 2-4 4-4 4 2 4 4zm-13-4c0 2-2 4-4 4s-4-2-4-4 2-4 4-4 4 2 4 4zm-2-14c0 2-2 4-4 4s-4-2-4-4 2-4 4-4 4 2 4 4zm-14-7c0 2-2 4-4 4s-4-2-4-4 2-4 4-4 4 1 4 4zm16-16c0 2-2 4-4 4s-4-2-4-4 2-4 4-4 4 2 4 4zm13-7c0 2-1 4-4 4s-4-2-4-4 2-4 4-4c3 0 4 2 4 4zm-5 20c0 2-1 4-4 4s-4-2-4-4 2-4 4-4c3 0 4 2 4 4zm-17-20c0 3-2 4-4 4s-4-1-4-4 2-4 4-4 4 2 4 4zm11-7c0 2-2 4-4 4s-4-2-4-4 2-4 4-4 4 2 4 4zm-26 5c0 2-1 4-4 4s-4-2-4-4 2-4 4-4 4 2 4 4zm-6 6c0 3-2 4-4 4s-4-1-4-4 2-4 4-4 4 2 4 4zm11 6c0 2-2 4-4 4s-4-2-4-4 2-4 4-4 4 1 4 4zm-13 10c0 2-2 4-4 4s-4-2-4-4 2-4 4-4 4 2 4 4zm-11-3c0 2-2 4-4 4s-4-2-4-4 1-4 4-4 4 2 4 4zm-2-13c0 3-2 4-4 4s-4-1-4-4 2-4 4-4 4 2 4 4zm31 36c0 2-2 4-4 4s-4-2-4-4 2-4 4-4 4 2 4 4zm-10 17c0 2-1 4-4 4s-4-2-4-4 2-4 4-4 4 1 4 4zm-2-14c0 2-2 4-4 4s-4-2-4-4 2-4 4-4 4 1 4 4zm-12-8c0 2-2 4-4 4s-4-2-4-4 2-4 4-4 4 1 4 4zm-5 23c0 2-1 4-4 4s-4-2-4-4 2-4 4-4 4 2 4 4zm-8-10c0 2-2 4-4 4s-4-2-4-4 2-4 4-4 4 1 4 4zm-16 4c0 2-2 4-4 4s-4-2-4-4 1-4 4-4c2 0 4 2 4 4zm2-12c0 2-2 4-4 4s-4-2-4-4 2-4 4-4 4 2 4 4zm11-5c0 3-1 4-4 4s-4-1-4-4 2-4 4-4 4 2 4 4zm-8-10c0 2-2 4-4 4s-4-2-4-4 1-4 4-4 4 2 4 4zm-14 10c0 3-2 4-4 4s-4-1-4-4 2-4 4-4 4 2 4 4zm89 0c0 2-2 4-4 4s-4-2-4-4 2-4 4-4 4 2 4 4zm10-11c0 2-2 4-4 4s-4-2-4-4 2-4 4-4 4 2 4 4zm16-16c0 2-2 4-4 4s-4-2-4-4 2-4 4-4 4 2 4 4zm-14-5c0 2-1 4-4 4s-4-2-4-4 2-4 4-4c3 0 4 2 4 4zm43-13c0 2-1 4-4 4s-4-2-4-4 2-4 4-4 4 2 4 4zm-41-5c0 3-2 4-4 4s-4-1-4-4 1-4 4-4 4 2 4 4zm11 9c0 3-2 4-4 4s-4-1-4-4 1-4 4-4c2 0 4 2 4 4zm13-14c0 3-2 4-4 4s-4-1-4-4 2-4 4-4 4 2 4 4zm-59 78c0 2-2 4-4 4s-4-2-4-4 1-4 4-4 4 2 4 4zm-6 79c0 2-2 4-4 4s-4-2-4-4 2-4 4-4 4 1 4 4zm-9 15c0 2-2 4-4 4s-4-2-4-4 2-4 4-4 4 2 4 4zm-6-16c0 2-2 4-4 4s-4-2-4-4 2-4 4-4 4 2 4 4zm-24-23c0 2-1 4-4 4s-4-2-4-4 2-4 4-4 4 2 4 4zm12-14c0 2-2 4-4 4s-4-2-4-4 2-4 4-4 4 1 4 4zm20-15c0 2-1 4-4 4s-4-2-4-4 2-4 4-4c3 0 4 2 4 4zm15-14c0 2-1 4-4 4s-4-2-4-4 2-4 4-4 4 2 4 4zm-16-2c0 2-2 4-4 4s-4-2-4-4 2-4 4-4 4 2 4 4zm-13 9c0 2-2 4-4 4s-4-2-4-4 2-4 4-4 4 1 4 4zm-19-8c0 2-1 4-4 4s-4-2-4-4 2-4 4-4 4 2 4 4zm-15-1c0 2-2 4-4 4s-4-2-4-4 1-4 4-4 4 2 4 4zm-23-22c0 2-2 4-4 4s-4-2-4-4 2-4 4-4 4 2 4 4zm-22 3c0 2-2 4-4 4s-4-2-4-4 2-4 4-4 4 2 4 4zM96 52c0 2-2 4-4 4s-4-2-4-4 2-4 4-4 4 2 4 4zm-27 8c0 2-2 4-4 4s-4-2-4-4 2-4 4-4 4 1 4 4zm2 21c0 2-2 4-4 4s-4-2-4-4 1-4 4-4 4 2 4 4zm-8 11c0 2-2 4-4 4s-4-2-4-4 2-4 4-4 4 2 4 4zm-19 10c0 2-2 4-4 4s-4-2-4-4 2-4 4-4c3 0 4 2 4 4zm12 19c0 2-2 4-4 4s-4-2-4-4 1-4 4-4 4 2 4 4zm-30 16c0 2-2 4-4 4s-4-2-4-4 2-4 4-4 4 1 4 4zm49-30c0 2-2 4-4 4s-4-2-4-4 2-4 4-4 4 2 4 4zm21 17c0 2-2 4-4 4s-4-2-4-4 2-4 4-4 4 1 4 4zm9 31c0 3-2 4-4 4s-4-1-4-4 1-4 4-4 4 2 4 4zm8 25c0 3-1 4-4 4s-4-1-4-4 2-4 4-4 4 2 4 4zm-7 25c0 2-2 4-4 4s-4-2-4-4 2-4 4-4 4 2 4 4zm9 28c0 2-2 4-4 4s-4-2-4-4 2-4 4-4 4 2 4 4zm10 30c0 2-2 4-4 4s-4-2-4-4 2-4 4-4 4 2 4 4zM54 79c0 2-1 4-4 4s-4-2-4-4 2-4 4-4c3 0 4 2 4 4zm217 112c0 2-2 4-4 4s-4-2-4-4 2-4 4-4 4 2 4 4zm-90 86c0 3-2 4-4 4s-4-1-4-4 2-4 4-4 4 2 4 4zm65 61c0 2-2 4-4 4s-4-2-4-4 2-4 4-4 4 2 4 4zm-45 3c0 2-2 4-4 4s-4-2-4-4 2-4 4-4 4 2 4 4zm47 20c0 2-2 4-4 4s-4-2-4-4 2-4 4-4 4 1 4 4zm16 22c0 2-2 4-4 4s-4-2-4-4 2-4 4-4 4 1 4 4zm-13 18c0 2-1 4-4 4s-4-2-4-4 2-4 4-4 4 2 4 4zm-10 83-17-20m15-5 4-15m-3-6-14-5m20 3 7-7m-1-6-4-18m10 18 12-15m0-8-8-14m2-5h25m-10-22 12 19m-44-19 26-1m31-12-24 7m24-11-29-8m-30 63-26-23m22-11-20 8m-4-5 1-37m4-1 17 8m22-17 8 9m-28-22 14 8m-9 22 22-2m-45-33 11 3m7 30-5-26m9 32 28 14m-27 10 11 15m-43-12-15-23m-2-7 7-24m-15-11 13 5m7 0 7-6m-1 22-6-11m13 145v-21m0-8 2-24m1 24 20-24m49-25 12-31m-31 53 15-15m-71-12 6 22m52 8c0 2-2 4-4 4s-4-2-4-4 1-4 4-4 4 2 4 4zm-29 83c0 2-2 4-4 4s-4-2-4-4 2-4 4-4 4 2 4 4zm-27-117c0 2-2 4-4 4s-4-2-4-4 2-4 4-4 4 2 4 4zm8 30c0 2-2 4-4 4s-4-2-4-4 1-4 4-4 4 2 4 4zm-7-75c0 2-1 4-4 4s-4-2-4-4 2-4 4-4 4 2 4 4zm21 158-4-16m-2-7-13-25m2 27 9 1m-9-2c0 2-2 4-4 4s-4-2-4-4 2-4 4-4 4 1 4 4zm17 2c0 3-2 4-4 4s-4-1-4-4 2-4 4-4 4 2 4 4zm-66-182 5 17m-18-12 18 12m-9-19-8 3m-22-4 14 4m-3-21 5 19m-26-22 5 14m-24-36 14 16m11-15-6 15m-31-43 8 21m-2-46-5 17m-1-42 7 17m-15-49 7 24m-27-42 16 11m-35-1 13-10m-18 8-8-12m71 132 6 22m31 1-7 13M26 136l23-12m-6-25 13-5m14 9-3-18m-4-4-9-1m13-3-1-13m3-5 19-6m7 2 25 21m5 3 14-1m7 2 18 15m13 5-7-1m18-10-16-4m-3-6 1-4m4-6 3-3m-15-2 7-6m23 27 3-16m-7 8 7-8m1 37-11-5m24 0-5 4m24 0-11 7m32 19-9-6m12-7v12m10-25 4 11m24 3 7-7m-7 13 9 18m8-10-5 10m5-18-7-13m-2-7-6-10m0-7 1-16m-3-5-8-3m-4-4-1-5m12-9-9 3m25-17-10 9m31-13-14 2m30-10-8 5m20-1-7 6m-6 0-8-1m20 11-6-5m22 6h-9m10 1-8 12m186-25-7-5M360 61l-3 15m-2 8-8 23m-22-9 17 10m-23-30 2 14m12 23 9-2m-31 13 15-7m-63-1-8-3m-44 3-14 9m-6 5-6 8m0 7 18 17m4 7 4 8m8-8-5 8m17-38-8 22m12-22 5 11m10 0-5 2m17 19-6-19m4 23-15 1m-4 4-1 5m8 11-5-4m4 8-18 6m-6 5-10 13m-6 6-11 8m-2 6 2 7m-7-10-16 1m-8 2-10 8m11-12-21-7m46 3-15-19m27 53-7-3m-26-53-19-1m-8-2-8-3m13-1 2-12m-6 34 27-13m-32 12-9-16m-3-4-21-5m40-13-15-18m19 15 2-20m2 24 29-10m-5 31 16-5m42-30-22 19m0 4 8 5m-11-11v-9m-36 25 10-28m4-6 14-8m-48-7 24-17m-25 15 7-15m-30-1 29-2m-44-17 9 15m-20 14 22 12m-23-13 19-8m-7-26 13-14m0-6-6-16M94 96l4-11m-6 35 2-16m78 16-16-6m25-10-5 12m-66 7-15-1m-1-41H71m27-4-4-21m154 27 13 14m-10 13-5-10m-5-5-11-4m14-25-7-4m17-7-7-2m24-11-11 10m40-28-23 13m22-16-22 3m25-7-13-4m-7-2-16 5m-18 67-2 9m19-73 5 4m4 12-1-5m-3 7-6-2m-6 2-13 10m87 6 24 4m-30-2-6 15m-22-1 17 4m-20 19 23 3m7-1 28-11m-31-12 34-12m-37 40-17 7m-5-60 27 6m-13-19 15 15m4-17-2 17m25-4-21 5m126 364c0 2-1 4-4 4s-4-2-4-4 2-4 4-4c3 0 4 1 4 4zm-14 5c0 2-1 4-4 4s-4-2-4-4 2-4 4-4 4 1 4 4zm-1-14c0 2-2 4-4 4s-4-2-4-4 1-4 4-4 4 2 4 4zm40-27c0 3-2 4-4 4s-4-1-4-4 2-4 4-4 4 2 4 4zm14-21c0 2-2 4-4 4s-4-2-4-4 1-4 4-4 4 1 4 4zm-3-17c0 2-2 4-4 4s-4-2-4-4 2-4 4-4 4 2 4 4zm17-19c0 2-2 4-4 4s-4-2-4-4 1-4 4-4 4 2 4 4zm-36-17c0 3-2 4-4 4s-4-1-4-4 2-4 4-4 4 2 4 4zm31 1c0 2-2 4-4 4s-4-2-4-4 2-4 4-4 4 2 4 4zm19-3c0 2-2 4-4 4s-4-2-4-4 2-4 4-4 4 2 4 4zm-46-44c0 2-2 4-4 4s-4-2-4-4 2-4 4-4 4 2 4 4zm-45 10c0 2-2 4-4 4s-4-2-4-4 2-4 4-4 4 1 4 4zm-62-9c0 2-2 4-4 4s-4-2-4-4 2-4 4-4 4 2 4 4zm142 131c0 2-2 4-4 4s-4-2-4-4 1-4 4-4c2 0 4 1 4 4zm3-23c0 2-2 4-4 4s-4-2-4-4 2-4 4-4 4 2 4 4zm-155-73c0 2-1 4-4 4s-4-2-4-4 2-4 4-4 4 2 4 4zm26 17c0 3-2 4-4 4s-4-1-4-4 2-4 4-4 4 2 4 4zm26-17c0 2-1 4-4 4s-4-2-4-4 2-4 4-4 4 2 4 4zm-18-20c0 2-2 4-4 4s-4-2-4-4 2-4 4-4 4 1 4 4zm51 33c0 3-2 4-4 4s-4-1-4-4 1-4 4-4 4 2 4 4zm15 31c0 2-2 4-4 4s-4-2-4-4 1-4 4-4 4 2 4 4zm-5 36c0 2-2 4-4 4s-4-2-4-4 1-4 4-4 4 1 4 4zm-22 8c0 3-1 4-4 4s-4-1-4-4 2-4 4-4 4 2 4 4zm-1-18c0 2-2 4-4 4s-4-2-4-4 1-4 4-4 4 1 4 4zm-7-30c0 3-2 4-4 4s-4-1-4-4 2-4 4-4 4 2 4 4zm15 74 9 3m6 0 11-9m0-6-14-19m19 18 5-13m-41 19-4-15m7 29-1-6m5 9 7-2m-20-38-1-10m3-2 16 6m-16-11 23-19m-31-4 5 22m32-20 27 14m1-10 3 9m-37 18 33-14m-8 18 10-14m2-24 11-13m-6-19-23-1m-1-2 13-13m19 16 12-1m-18-3-9-12m-20-30-37 9m9 35-11-32m14-21-13 15m-19-31-25 6m-7 4-11 12m1 5 17 10m-23-9-8 28m70-19-18 19m4 6 25 9m28-1-20 1m-2 6 11 24m-16-24-14 20m-3-1-1-10m-5-5-29-3m-2-5 5-29m4-1 13 14m15-42 6 15m-3-17h18m-26-9 2 4m-58 55 18 13m97-48 10 20m26 89-3 14m-35 14c0 2-2 4-4 4s-4-2-4-4 2-4 4-4 4 2 4 4zm284 37 5-11m32 53 12-10m-44-49-15-13m24-8-16-31m-5 12 2-11m-18 8 12 5m-12-15-1 4m-1-8-16 7m50-18-7-6m-7-4-19-4m-48-19-12 6m-18 13-16-17m13-3-8-19m15 1-12-5m16 1-7-18m-16 14-15-21m-6-4-7 2m-8 3-9 11m-4 6-2 12m-13-27 11 28m-27-39 11 6m-64-18 9 14m12-34-13 2m17-6-13-33m-16-1 10-3m-2 101 23-14m-51-46-1 15m3-23 13-6m-41 0 5 10m8-4-2 4m12 2-10 1m11-6-6-3m-3-28 27 18m-43 0 9-17m-14 23-3 9m-11-13 8 13m-25-21 12 2m-14 2 11 12m-32-5 15-9m-21 14-1 3m-11 5 5-1m6-12-10-1m13-1-4-13m24 2-7-3m-8-1h-8m45 6 10-9m-25-8-9-3m9 7-15 5m37-4-14-3m44-17-23 17m48-1-19-17m-6-5-10-8m-57 26-15 11m49-18-27 3m44-21-11 13m10-19-9-1m-6-22 2 16m23-8-8-9m11-7-11 1m20 10-6 5m41-27-30 16m51-5-15-10m18 8-10-27m-57 27-18-8m-39 61-1 5m-3-27 1 3m4 4 10 4m14-32-10 31m-52 63v-7m108 35 21 36m184 32-2 12m-12-3 9 6m84 83 5-13m-3 17c0 2-2 4-4 4s-4-2-4-4 2-4 4-4 4 2 4 4zm-10 17c0 2-2 4-4 4s-4-2-4-4 2-4 4-4 4 2 4 4zm-10 20c0 2-2 4-4 4s-4-2-4-4 2-4 4-4 4 1 4 4zm47 23c0 2-2 4-4 4s-4-2-4-4 2-4 4-4 4 1 4 4zm16-17c0 2-2 4-4 4s-4-2-4-4 2-4 4-4 4 1 4 4zm13-13c0 3-2 4-4 4s-4-1-4-4 2-4 4-4 4 2 4 4zm-14-64c0 2-2 4-4 4s-4-2-4-4 2-4 4-4 4 2 4 4zm6-17c0 2-2 4-4 4s-4-2-4-4 2-4 4-4 4 2 4 4zm-15-17c0 2-2 4-4 4s-4-2-4-4 2-4 4-4 4 2 4 4zm-11-9c0 2-2 4-4 4s-4-2-4-4 2-4 4-4 4 2 4 4zm-13-2c0 2-2 4-4 4s-4-2-4-4 2-4 4-4 4 1 4 4zm-18-1c0 3-2 4-4 4s-4-1-4-4 2-4 4-4 4 2 4 4zm13 12c0 2-2 4-4 4s-4-2-4-4 2-4 4-4 4 1 4 4zm-39-19c0 2-2 4-4 4s-4-2-4-4 2-4 4-4 4 2 4 4zm-11 3c0 2-2 4-4 4s-4-2-4-4 2-4 4-4 4 1 4 4zm-3-13c0 2-2 4-4 4s-4-2-4-4 2-4 4-4 4 2 4 4zm-16 9c0 2-2 4-4 4s-4-2-4-4 2-4 4-4 4 2 4 4zm9-25c0 2-2 4-4 4s-4-2-4-4 2-4 4-4 4 1 4 4zm-6-10c0 2-1 4-4 4s-4-2-4-4 2-4 4-4 4 2 4 4zm-15 17c0 2-2 4-4 4s-4-2-4-4 2-4 4-4 4 2 4 4zm-2 20c0 3-2 4-4 4s-4-1-4-4 2-4 4-4 4 2 4 4zm-28 4c0 2-2 4-4 4s-4-2-4-4 1-4 4-4 4 1 4 4zm-21-23c0 2-2 4-4 4s-4-2-4-4 1-4 4-4 4 1 4 4zm18 3c0 2-2 4-4 4s-4-2-4-4 2-4 4-4 4 2 4 4zm-12-26c0 2-2 4-4 4s-4-2-4-4 1-4 4-4 4 2 4 4zm20 5c0 2-2 4-4 4s-4-2-4-4 2-4 4-4 4 2 4 4zm-8-26c0 2-2 4-4 4s-4-2-4-4 2-4 4-4 4 2 4 4zm-32-7c0 2-2 4-4 4s-4-2-4-4 2-4 4-4 4 2 4 4zm-15 3c0 2-2 4-4 4s-4-2-4-4 2-4 4-4 4 2 4 4zm-16 15c0 2-2 4-4 4s-4-2-4-4 2-4 4-4 4 2 4 4zm-4 20c0 3-2 4-4 4s-4-1-4-4 2-4 4-4 4 2 4 4zm-13-35c0 2-2 4-4 4s-4-2-4-4 2-4 4-4 4 2 4 4zm-18-10c0 2-2 4-4 4s-4-2-4-4 2-4 4-4 4 2 4 4zm-20-2c0 2-2 4-4 4s-4-2-4-4 2-4 4-4 4 1 4 4zm-30-11c0 2-2 4-4 4s-4-2-4-4 2-4 4-4 4 2 4 4zm4-14c0 3-2 4-4 4s-4-1-4-4 2-4 4-4 4 2 4 4zm21-2c0 3-2 4-4 4s-4-1-4-4 2-4 4-4 4 2 4 4zm-15-41c0 2-2 4-4 4s-4-2-4-4 2-4 4-4 4 2 4 4zm34-35c0 2-2 4-4 4s-4-2-4-4 2-4 4-4 4 2 4 4zm24 12c0 3-2 4-4 4s-4-1-4-4 2-4 4-4 4 2 4 4zm-16 31c0 2-1 4-4 4s-4-2-4-4 2-4 4-4 4 2 4 4zm32 35c0 2-2 4-4 4s-4-2-4-4 2-4 4-4 4 1 4 4zm66 9c0 3-2 4-4 4s-4-1-4-4 2-4 4-4 4 2 4 4zm-14-41c0 2-2 4-4 4s-4-2-4-4 2-4 4-4 4 1 4 4zm-31 3c0 2-2 4-4 4s-4-2-4-4 2-4 4-4 4 2 4 4zm65-26c0 2-2 4-4 4s-4-2-4-4 2-4 4-4 4 2 4 4zm-17-35c0 3-2 4-4 4s-4-1-4-4 1-4 4-4c2 0 4 2 4 4zm29-53c0 3-2 4-4 4s-4-1-4-4 1-4 4-4 4 2 4 4zm-63 15c0 2-2 4-4 4s-4-2-4-4 2-4 4-4 4 2 4 4zm-40-11c0 2-2 4-4 4s-4-2-4-4 1-4 4-4 4 1 4 4zm3 37c0 2-2 4-4 4s-4-2-4-4 1-4 4-4 4 2 4 4zm33-6c0 2-2 4-4 4s-4-2-4-4 2-4 4-4 4 2 4 4zm-17 39c0 3-2 4-4 4s-4-1-4-4 2-4 4-4 4 2 4 4zm117-87c0 2-2 4-4 4s-4-2-4-4 2-4 4-4 4 2 4 4zM505 191c0 2-2 4-4 4s-4-2-4-4 2-4 4-4 4 1 4 4zm19 75c0 2-2 4-4 4s-4-2-4-4 2-4 4-4 4 2 4 4zm19 6c0 2-2 4-4 4s-4-2-4-4 1-4 4-4 4 2 4 4zm-30 18c0 3-2 4-4 4s-4-1-4-4 2-4 4-4 4 2 4 4zm-26-42c0 2-2 4-4 4s-4-2-4-4 2-4 4-4 4 1 4 4zm2-23c0 2-2 4-4 4s-4-2-4-4 2-4 4-4 4 1 4 4zm-17 3c0 2-2 4-4 4s-4-2-4-4 1-4 4-4 4 2 4 4zm5-11c0 3-1 4-4 4s-4-1-4-4 2-4 4-4 4 2 4 4zm30-4c0 2-2 4-4 4s-4-2-4-4 2-4 4-4 4 1 4 4zm-33-23c0 2-2 4-4 4s-4-2-4-4 2-4 4-4 4 1 4 4zm-14 23c0 2-2 4-4 4s-4-2-4-4 2-4 4-4 4 1 4 4zm-7 14c0 3-2 4-4 4s-4-1-4-4 2-4 4-4 4 2 4 4zm-31-24c0 2-2 4-4 4s-4-2-4-4 2-4 4-4 4 2 4 4zm-14-6c0 2-2 4-4 4s-4-2-4-4 2-4 4-4 4 2 4 4zm22-9c0 2-2 4-4 4s-4-2-4-4 2-4 4-4 4 2 4 4zm50-20c0 2-1 4-4 4s-4-2-4-4 2-4 4-4 4 1 4 4zm26-20c0 2-2 4-4 4s-4-2-4-4 2-4 4-4 4 2 4 4zm-54 43c0 2-2 4-4 4s-4-2-4-4 2-4 4-4 4 1 4 4zm-11 16c0 2-2 4-4 4s-4-2-4-4 2-4 4-4 4 2 4 4zm-42 9c0 2-1 4-4 4s-4-2-4-4 2-4 4-4 4 2 4 4zm-6-20c0 2-2 4-4 4s-4-2-4-4 1-4 4-4 4 2 4 4zm21-16c0 2-2 4-4 4s-4-2-4-4 2-4 4-4 4 2 4 4zm-13 2c0 2-2 4-4 4s-4-2-4-4 1-4 4-4 4 1 4 4zm-9 2c0 2-2 4-4 4s-4-2-4-4 1-4 4-4 4 2 4 4zm-3-20c0 2-2 4-4 4s-4-2-4-4 2-4 4-4 4 1 4 4zm-8 14c0 2-2 4-4 4s-4-2-4-4 2-4 4-4 4 1 4 4zm39-10c0 2-2 4-4 4s-4-2-4-4 2-4 4-4 4 2 4 4zm29 7c0 2-2 4-4 4s-4-2-4-4 1-4 4-4 4 1 4 4zm16-20c0 2-2 4-4 4s-4-2-4-4 1-4 4-4 4 2 4 4zm9-15c0 2-2 4-4 4s-4-2-4-4 2-4 4-4 4 1 4 4zm11-11c0 2-2 4-4 4s-4-2-4-4 2-4 4-4 4 1 4 4zm36-21c0 2-2 4-4 4s-4-2-4-4 2-4 4-4 4 2 4 4zm39-40c0 2-1 4-4 4s-4-2-4-4 2-4 4-4 4 1 4 4zm16-24c0 2-2 4-4 4s-4-2-4-4 2-4 4-4 4 2 4 4zm23 7c0 2-2 4-4 4s-4-2-4-4 1-4 4-4c2 0 4 2 4 4zm16 13c0 2-2 4-4 4s-4-2-4-4 2-4 4-4 4 1 4 4zm21-5c0 2-2 4-4 4s-4-2-4-4 2-4 4-4 4 2 4 4zm17 14c0 2-2 4-4 4s-4-2-4-4 2-4 4-4 4 2 4 4zm-58-2c0 2-2 4-4 4s-4-2-4-4 1-4 4-4 4 2 4 4zm74-18c0 2-2 4-4 4s-4-2-4-4 2-4 4-4 4 1 4 4zm35 0c0 2-2 4-4 4s-4-2-4-4 2-4 4-4 4 1 4 4zm35-3c0 2-2 4-4 4s-4-2-4-4 2-4 4-4 4 2 4 4zm40 1c0 2-2 4-4 4s-4-2-4-4 2-4 4-4 4 1 4 4zm-12 22c0 2-2 4-4 4s-4-2-4-4 1-4 4-4 4 2 4 4zm8 12c0 2-2 4-4 4s-4-2-4-4 2-4 4-4 4 2 4 4zm-18 20c0 2-2 4-4 4s-4-2-4-4 2-4 4-4 4 2 4 4zm-10-13c0 2-2 4-4 4s-4-2-4-4 2-4 4-4 4 1 4 4zm-15 24c0 2-2 4-4 4s-4-2-4-4 2-4 4-4 4 2 4 4zm-23 7c0 2-2 4-4 4s-4-2-4-4 2-4 4-4 4 2 4 4zm-9 27c0 3-2 4-4 4s-4-1-4-4 2-4 4-4 4 2 4 4zm19 5c0 2-2 4-4 4s-4-2-4-4 1-4 4-4 4 2 4 4zm4 17c0 2-2 4-4 4s-4-2-4-4 1-4 4-4 4 1 4 4zm-8 22c0 2-2 4-4 4s-4-2-4-4 2-4 4-4 4 1 4 4zm-13 13c0 2-2 4-4 4s-4-2-4-4 1-4 4-4 4 2 4 4zm9 17c0 2-2 4-4 4s-4-2-4-4 2-4 4-4 4 1 4 4zm8 11c0 2-2 4-4 4s-4-2-4-4 2-4 4-4 4 1 4 4zm10-8c0 2-2 4-4 4s-4-2-4-4 2-4 4-4 4 1 4 4zm9-6c0 2-1 4-4 4s-4-2-4-4 2-4 4-4 4 2 4 4zm0-16c0 3-1 4-4 4s-4-1-4-4 2-4 4-4 4 2 4 4zm0-13c0 3-1 4-4 4s-4-1-4-4 2-4 4-4 4 2 4 4zm-58 26c0 2-2 4-4 4s-4-2-4-4 2-4 4-4 4 2 4 4zm15 24c0 2-2 4-4 4s-4-2-4-4 2-4 4-4 4 2 4 4zm-16 22c0 2-2 4-4 4s-4-2-4-4 2-4 4-4 4 2 4 4zm83-111c0 2-2 4-4 4s-4-2-4-4 2-4 4-4 4 1 4 4zm-7-23c0 3-1 4-4 4s-4-1-4-4 2-4 4-4 4 2 4 4zM546 92c0 2-2 4-4 4s-4-2-4-4 2-4 4-4 4 1 4 4zm18 3c0 2-2 4-4 4s-4-2-4-4 2-4 4-4 4 2 4 4zm-21 28c0 2-2 4-4 4s-4-2-4-4 1-4 4-4c2 0 4 1 4 4zm-12-35c0 3-2 4-4 4s-4-1-4-4 2-4 4-4 4 2 4 4zm-30-7c0 2-2 4-4 4s-4-2-4-4 2-4 4-4 4 2 4 4zm14-19c0 2-2 4-4 4s-4-2-4-4 2-4 4-4 4 2 4 4zm-10 37c0 2-2 4-4 4s-4-2-4-4 2-4 4-4 4 2 4 4zm-44 26c0 2-2 4-4 4s-4-2-4-4 1-4 4-4 4 2 4 4zm-16 0c0 2-1 4-4 4s-4-2-4-4 2-4 4-4 4 2 4 4zm3 24c0 2-2 4-4 4s-4-2-4-4 2-4 4-4 4 2 4 4zm-16 15c0 2-2 4-4 4s-4-2-4-4 2-4 4-4 4 2 4 4zm-18-18c0 2-2 4-4 4s-4-2-4-4 2-4 4-4 4 2 4 4zm1 11c0 3-2 4-4 4s-4-1-4-4 1-4 4-4 4 2 4 4zm39-48c0 2-2 4-4 4s-4-2-4-4 1-4 4-4 4 2 4 4zm-15 3c0 2-2 4-4 4s-4-2-4-4 2-4 4-4 4 2 4 4zm39 9c0 2-2 4-4 4s-4-2-4-4 2-4 4-4 4 2 4 4zm-97 106c0 2-2 4-4 4s-4-2-4-4 2-4 4-4 4 1 4 4zm1-14c0 2-2 4-4 4s-4-2-4-4 2-4 4-4 4 1 4 4zm12 13c0 2-2 4-4 4s-4-2-4-4 2-4 4-4 4 2 4 4zm43-3c0 2-2 4-4 4s-4-2-4-4 2-4 4-4 4 2 4 4zm-16-6c0 3-2 4-4 4s-4-1-4-4 1-4 4-4 4 2 4 4zm256 109c0 2-2 4-4 4s-4-2-4-4 2-4 4-4 4 2 4 4zm27-40c0 2-2 4-4 4s-4-2-4-4 2-4 4-4 4 2 4 4zm-3-22c0 2-2 4-4 4s-4-2-4-4 2-4 4-4 4 1 4 4zm-6 86c0 2-1 4-4 4s-4-2-4-4 2-4 4-4 4 2 4 4zm-18-2c0 2-2 4-4 4s-4-2-4-4 2-4 4-4 4 2 4 4zm36 3c0 3-2 4-4 4s-4-1-4-4 2-4 4-4 4 2 4 4zm22-4c0 3-1 4-4 4s-4-1-4-4 2-4 4-4 4 2 4 4zm8 91c0 2-2 4-4 4s-4-2-4-4 2-4 4-4 4 2 4 4zm-10-14c0 2-2 4-4 4s-4-2-4-4 2-4 4-4 4 2 4 4zm-12-11c0 2-1 4-4 4s-4-2-4-4 2-4 4-4c3 0 4 2 4 4zm-38 11c0 2-2 4-4 4s-4-2-4-4 2-4 4-4 4 2 4 4zm2-34c0 2-2 4-4 4s-4-2-4-4 2-4 4-4 4 1 4 4zm33-22c0 2-2 4-4 4s-4-2-4-4 2-4 4-4 4 1 4 4zm24-7c0 3-2 4-4 4s-4-1-4-4 2-4 4-4 4 2 4 4zm-5 12c0 2-2 4-4 4s-4-2-4-4 2-4 4-4 4 2 4 4zm19 9c0 2-2 4-4 4s-4-2-4-4 2-4 4-4 4 2 4 4zm-7 21c0 2-2 4-4 4s-4-2-4-4 2-4 4-4 4 2 4 4zm-34-11c0 2-2 4-4 4s-4-2-4-4 2-4 4-4 4 2 4 4zm43-29c0 2-2 4-4 4s-4-2-4-4 2-4 4-4 4 2 4 4zm21 37c0 2-2 4-4 4s-4-2-4-4 2-4 4-4 4 2 4 4zM389 240c0 3-2 4-4 4s-4-1-4-4 1-4 4-4 4 2 4 4zm33-7c0 2-2 4-4 4s-4-2-4-4 2-4 4-4 4 2 4 4zm4 11c0 3-2 4-4 4s-4-1-4-4 2-4 4-4 4 2 4 4zm26 2c0 2-2 4-4 4s-4-2-4-4 1-4 4-4 4 1 4 4zm-27 69c0 3-2 4-4 4s-4-1-4-4 1-4 4-4 4 2 4 4zm68-30c0 2-2 4-4 4s-4-2-4-4 2-4 4-4 4 1 4 4zm218 85-26 17m23 8-27 26m34-11-2-14m13 25-6-5m-39-22-2 26m74 18h-10m-11-17 11-15m4-7 3-13m-36-14-3 16m20-12-16 14m26 13-21 7m-6 4-31 9m53 12-5-8M439 111l7-2m-34 34 20-28m108 4 2-23m14-1-10-2m14-2-4-19m15-24-12 16m32-14-15-4m16 21 2-12m1 14 12-3m8-3 13-4m7 3 10 9m6-1 11-14m7-3h27m8 1 27-4m34 19 8-15m-34-4 32 1m-2 31-5-6m5 12-13 14m-5 7v17m2 8 4 15m-17-55-10 18m16-17 4 6m-26 16-15 5m-5 5-7 19m18 13 3 9m-18-16 11 2m2 36 6-14m-19 28 9-7m-9 13 5 10m-27-5 16-10m-5 34-11-17m11 23-12 16m-6 5-11 4m-159-75 2 14m2 7 6 12m-39-42 4-15m4-6 19-14m7-3 43 5m8 2 16 8m16-30-10 28m-38-35 11 23m-37-37-13 32m21 44 34 8m-2 62-12-2m-8-2-22-9m48 9 29-21m6 2 12 30m51-21-2 24m-2-29-58-8m-2-4 16-22m7-5 23-1m8 2 24 14m-26-12 12 33m-31 27 28-20m39-39-14-24m-34 15 28-17m6-6 13-18m-11 22 32-4m-38 0-13-27m0-7 37-15m-35 18 26 8m-82 11 48-17m0-4-30-14m-34 2 26-4m-27 10 12 26m4 7 5 32m-4-33 33 30m-79-2 11-24m-10 27 45 6m-46-3 26 29m-68-43 28-29m41-31-3-29m-24-1 20-2m-41 30 44 4m37-8 4-12m-16-40 14 32m21-22-17 23m23-25 34 12m11-30-6 27m10-28 20 16m5 6 14 10m-49 4 13 27m-10-31 26-10m6-7 8-17m-7 21 31-2m-546 30 1 8" class="st2"/></svg>