<svg xmlns="http://www.w3.org/2000/svg" xml:space="preserve" id="Layer_1" x="0" y="0" style="enable-background:new 0 0 1099.5 435.7" version="1.1" viewBox="0 0 1100 436"><style>.maxsecurity0,.maxsecurity1{fill:none;stroke:gray;stroke-linecap:round;stroke-linejoin:round;stroke-miterlimit:10}.maxsecurity1{stroke:#ee5586;stroke-width:3}.maxsecurity2{fill:#ee5586}</style><path d="M190 15 11 4C9 4 8 5 8 7v133c0 1 1 3 3 3h179c2 0 3-2 3-3V18c0-2-1-3-3-3zm448 9-180-1c-1 0-3 1-3 3v113c0 2 1 3 3 3h180c1 0 3-1 3-3V27l-3-3zm223-4-179 3c-2 0-3 2-3 3v114c0 1 1 3 3 3h179c2 0 3-2 3-3V23c0-2-1-3-3-3zm224-11-180 9c-1 0-3 1-3 3v119l3 3h180l3-3V12c0-2-2-3-3-3zM905 290l180 11c1 0 3-1 3-3V165c0-2-2-3-3-3H905c-1 0-3 1-3 3v122l3 3zm-302-8h34c2 0 3-1 3-3V165c0-2-1-3-3-3H458c-2 0-3 1-3 3v113c0 1 1 2 3 2l34 1" class="maxsecurity0"/><path id="svg-concept" d="m469 428 156 2c2 0 4-2 4-4l21-120c1-6 0-10-8-10H454c-7 0-9 5-9 10l21 119c0 2 2 3 3 3h0z" class="maxsecurity1"/><path d="m234 285 179-4c1 0 3-1 3-3V165c0-1-1-3-3-3H234c-2 0-3 1-3 3v117c0 2 1 3 3 3h0zM11 296l179-10c2 0 3-1 3-3V165c0-2-1-3-3-3H11c-2 0-3 1-3 3v128c0 1 1 3 3 3z" class="maxsecurity0"/><path id="svg-concept" d="M605 296H490a58 58 0 1 1 115 0z" class="maxsecurity1"/><path d="M448 329c-138 2-284 9-444 20m1090 0c-157-12-304-18-449-20" class="maxsecurity0"/><circle id="svg-ico" cx="4" cy="348.6" r="3" class="maxsecurity2"/><circle id="svg-ico" cx="1094.2" cy="348.6" r="3" class="maxsecurity2"/><g><path id="svg-concept" d="m413 23-179-7c-2 0-3 1-3 3v121c0 1 1 3 3 3h179l3-3V26c0-2-2-3-3-3z" class="maxsecurity1"/><animate fill="remove" accumulate="none" additive="replace" attributeName="opacity" begin="0s" calcMode="linear" dur="1s" repeatCount="indefinite" restart="always" values="0;1;0"/></g><g><path id="svg-concept" d="m682 282 179 6c2 1 3-1 3-2V165c0-2-1-3-3-3H682c-2 0-3 1-3 3v114c0 2 1 3 3 3h0z" class="maxsecurity1"/><animate fill="remove" accumulate="none" additive="replace" attributeName="opacity" begin="1s" calcMode="linear" dur="1s" repeatCount="indefinite" restart="always" values="0;1;0"/></g></svg>