<svg xmlns="http://www.w3.org/2000/svg" xml:space="preserve" id="Layer_1" x="0" y="0" version="1.1" viewBox="0 0 1436 615"><style>.st0{opacity:.15;fill:none;stroke:#fff;stroke-linecap:round;stroke-linejoin:round;stroke-miterlimit:10;stroke-opacity:.35}</style><path d="m54 413 49 48-49 48m-41-61 35-35m0 97-35-36" class="st0"/><path d="M51 517c-2 0-4-2-4-4s2-5 4-5c3 0 4 2 4 5s-1 4-4 4zm0-103c-2 0-4-2-4-4s2-4 4-4c3 0 4 2 4 4s-1 4-4 4zm-4 201c0-2 2-4 4-4 3 0 4 2 4 4M13 346l35-36m0 97-35-35" class="st0"/><path d="m54 311 49 48-49 48m0-199 49 48-49 48m-41-61 35-35m0 97-35-36" class="st0"/><path d="M51 312c-2 0-4-2-4-5s2-4 4-4c3 0 4 2 4 5s-1 4-4 4zM13 551l35-36m0 97-35-36m41-61 49 49-49 48m-54 3 25-25M0 564h51m13-13-13 13m13 13-13-13m-25-77L0 513m26 25L0 513m26-129L0 410m26 26L0 410m26-128L0 308m26 25L0 308m0 153h51m13-13-13 13m13 13-13-13m4 52h48M55 615h48M55 410h48M55 307h48M55 205h48M55 103h48M0 359h51m13-13-13 13m13 13-13-13M0 256h51m13-12-13 12m13 13-13-13m0-47c-2 0-4-2-4-4s2-4 4-4c3 0 4 2 4 4s-1 4-4 4zm-38-68 35-35m0 96-35-35" class="st0"/><path d="m54 106 49 48-49 48M54 3l49 48-49 49M13 39 48 3m0 97L13 64" class="st0"/><path d="M51 107c-2 0-4-2-4-4 0-3 2-5 4-5 3 0 4 2 4 4 0 3-1 5-4 5zM55 0c0 2-2 4-4 4s-4-2-4-4M26 179 0 205m26 26L0 205M26 77 0 103m26 25L0 103m26-77L0 0m0 154h51m13-13-13 13m13 13-13-13M0 51h51m14-13L51 51m13 13L51 51m106 362 48 48-48 48m-42-61 36-35m0 97-36-36m39 43c-2 0-4-2-4-4s2-5 4-5 4 2 4 5-2 4-4 4zm0-103c-2 0-4-2-4-4s2-4 4-4 4 2 4 4-2 4-4 4zm-4 201c0-2 1-4 4-4 2 0 4 2 4 4m-43-269 36-36m0 97-36-35m42-61 48 48-48 48m0-199 48 48-48 48m-42-61 36-35m0 97-36-36" class="st0"/><path d="M154 312c-2 0-4-2-4-5s2-4 4-4 4 2 4 5-2 4-4 4zm-39 239 36-36m0 97-36-36m42-61 48 49-48 48m-54 3 25-25m-25-26h51m13-13-13 13m13 13-13-13m-26-77-25 25m25 26-25-25m25-129-25 26m25 26-25-26m25-128-25 25m25 26-25-25m0 153h51m13-13-13 13m13 13-13-13m4 52h47m-47 102h47m-47-205h47m-47-103h47m-47-102h47m-47-102h47M103 359h51m13-13-13 13m13 13-13-13m-51-103h51m13-12-13 12m13 13-13-13m0-47c-2 0-4-2-4-4s2-4 4-4 4 2 4 4-2 4-4 4zm-39-68 36-35m0 96-36-35m42-61 48 48-48 48m0-199 48 48-48 49m-42-61 36-36m0 97-36-36" class="st0"/><path d="M154 107c-2 0-4-2-4-4 0-3 2-5 4-5s4 2 4 4c0 3-2 5-4 5zm4-107c0 2-2 4-4 4s-4-2-4-4m-22 179-25 26m25 26-25-26m25-128-25 26m25 25-25-26m25-76L103 0m0 154h51m13-13-13 13m13 13-13-13M103 51h51m13-13-13 13m13 13-13-13m105 362 48 48-48 48m-41-61 35-35m0 97-35-36" class="st0"/><path d="M256 517c-2 0-4-2-4-4s2-5 4-5 4 2 4 5-1 4-4 4zm0-103c-2 0-4-2-4-4s2-4 4-4 4 2 4 4-1 4-4 4zm-4 201c0-2 2-4 4-4s5 2 5 4m-43-269 35-36m0 97-35-35m41-61 48 48-48 48m0-199 48 48-48 48m-41-61 35-35m0 97-35-36" class="st0"/><path d="M256 312c-2 0-4-2-4-5s2-4 4-4 4 2 4 5-1 4-4 4zm-38 239 35-36m0 97-35-36m41-61 48 49-48 48m-54 3 25-25m-25-26h51m13-13-13 13m13 13-13-13m-25-77-26 25m26 26-26-25m26-129-26 26m26 26-26-26m26-128-26 25m26 26-26-25m0 153h51m13-13-13 13m13 13-13-13m4 52h48m-48 102h48m-48-205h48m-48-103h48m-48-102h48m-48-102h48M205 359h51m13-13-13 13m13 13-13-13m-51-103h51m13-12-13 12m13 13-13-13m0-47c-2 0-4-2-4-4s2-4 4-4 4 2 4 4-1 4-4 4zm-38-68 35-35m0 96-35-35m41-61 48 48-48 48m0-199 48 48-48 49m-41-61 35-36m0 97-35-36" class="st0"/><path d="M256 107c-2 0-4-2-4-4 0-3 2-5 4-5s4 2 4 4c0 3-1 5-4 5zm4-107c0 2-2 4-4 4s-4-2-4-4m-21 179-26 26m26 26-26-26m26-128-26 26m26 25-26-26m26-76L205 0m0 154h51m13-13-13 13m13 13-13-13M205 51h51m14-13-14 13m13 13-13-13m106 362 48 48-48 48m-42-61 36-35m0 97-36-36m39 43c-2 0-4-2-4-4s2-5 4-5 4 2 4 5-2 4-4 4zm0-103c-2 0-4-2-4-4s2-4 4-4 4 2 4 4-2 4-4 4zm-4 201c0-2 2-4 4-4s4 2 4 4m-43-269 36-36m0 97-36-35m42-61 48 48-48 48m0-199 48 48-48 48m-42-61 36-35m0 97-36-36" class="st0"/><path d="M359 312c-2 0-4-2-4-5s2-4 4-4 4 2 4 5-2 4-4 4zm-39 239 36-36m0 97-36-36m42-61 48 49-48 48m-54 3 25-25m-25-26h51m13-13-13 13m13 13-13-13m-26-77-25 25m25 26-25-25m25-129-25 26m25 26-25-26m25-128-25 25m25 26-25-25m0 153h51m13-13-13 13m13 13-13-13m4 52h47m-47 102h47m-47-205h47m-47-103h47m-47-102h47m-47-102h47M308 359h51m13-13-13 13m13 13-13-13m-51-103h51m13-12-13 12m13 13-13-13m0-47c-2 0-4-2-4-4s2-4 4-4 4 2 4 4-2 4-4 4zm-39-68 36-35m0 96-36-35m42-61 48 48-48 48m0-199 48 48-48 49m-42-61 36-36m0 97-36-36" class="st0"/><path d="M359 107c-2 0-4-2-4-4 0-3 2-5 4-5s4 2 4 4c0 3-2 5-4 5zm4-107c0 2-2 4-4 4s-4-2-4-4m-22 179-25 26m25 26-25-26m25-128-25 26m25 25-25-26m25-76L308 0m0 154h51m13-13-13 13m13 13-13-13M308 51h51m13-13-13 13m13 13-13-13m105 362 48 48-48 48m-41-61 35-35m0 97-35-36" class="st0"/><path d="M461 517c-2 0-4-2-4-4s2-5 4-5 5 2 5 5-2 4-5 4zm0-103c-2 0-4-2-4-4s2-4 4-4 5 2 5 4-2 4-5 4zm-4 201c0-2 2-4 4-4s5 2 5 4m-43-269 35-36m0 97-35-35" class="st0"/><path d="m464 311 48 48-48 48m0-199 48 48-48 48m-41-61 35-35m0 97-35-36" class="st0"/><path d="M461 312c-2 0-4-2-4-5s2-4 4-4 5 2 5 5-2 4-5 4zm-38 239 35-36m0 97-35-36m41-61 48 49-48 48m-54 3 25-25m-25-26h51m13-13-13 13m13 13-13-13m-25-77-26 25m26 26-26-25m26-129-26 26m26 26-26-26m26-128-26 25m26 26-26-25m0 153h51m13-13-13 13m13 13-13-13m5 52h47m-47 102h47m-47-205h47m-47-103h47m-47-102h47m-47-102h47M410 359h51m13-13-13 13m13 13-13-13m-51-103h51m13-12-13 12m13 13-13-13m0-47c-2 0-4-2-4-4s2-4 4-4 5 2 5 4-2 4-5 4zm-38-68 35-35m0 96-35-35" class="st0"/><path d="m464 106 48 48-48 48m0-199 48 48-48 49m-41-61 35-36m0 97-35-36" class="st0"/><path d="M461 107c-2 0-4-2-4-4 0-3 2-5 4-5s5 2 5 4c0 3-2 5-5 5zm5-107c0 2-2 4-5 4s-4-2-4-4m-21 179-26 26m26 26-26-26m26-128-26 26m26 25-26-26m26-76L410 0m0 154h51m13-13-13 13m13 13-13-13M410 51h51m823 362 49 48-49 48m-41-61 35-35m0 97-35-36" class="st0"/><path d="M1281 517c-2 0-4-2-4-4s2-5 4-5c3 0 5 2 5 5s-2 4-5 4zm0-103c-2 0-4-2-4-4s2-4 4-4c3 0 5 2 5 4s-2 4-5 4zm-4 201c0-2 2-4 4-4 3 0 5 2 5 4m-43-269 35-36m0 97-35-35" class="st0"/><path d="m1284 311 49 48-49 48m0-199 49 48-49 48m-41-61 35-35m0 97-35-36" class="st0"/><path d="M1281 312c-2 0-4-2-4-5s2-4 4-4c3 0 5 2 5 5s-2 4-5 4zm-38 239 35-36m0 97-35-36m41-61 49 49-49 48m-54 3 25-25m-25-26h51m13-13-13 13m13 13-13-13m-25-77-26 25m26 26-26-25m26-129-26 26m26 26-26-26m26-128-26 25m26 26-26-25m0 153h51m13-13-13 13m13 13-13-13m5 52h47m-47 102h47m-47-205h47m-47-103h47m-47-102h47m-47-102h47m-103 256h51m13-13-13 13m13 13-13-13m-51-103h51m13-12-13 12m13 13-13-13m0-47c-2 0-4-2-4-4s2-4 4-4c3 0 5 2 5 4s-2 4-5 4zm-38-68 35-35m0 96-35-35" class="st0"/><path d="m1284 106 49 48-49 48m0-199 49 48-49 49m-41-61 35-36m0 97-35-36" class="st0"/><path d="M1281 107c-2 0-4-2-4-4 0-3 2-5 4-5 3 0 5 2 5 4 0 3-2 5-5 5zm5-107c0 2-2 4-5 4-2 0-4-2-4-4m-21 179-26 26m26 26-26-26m26-128-26 26m26 25-26-26m26-76-26-26m0 154h51m13-13-13 13m13 13-13-13m-51-103h51m14-13-13 13m12 13-13-13m106 362 48 48-48 48m-41-61 35-35m0 97-35-36m38 43c-2 0-4-2-4-4s2-5 4-5 4 2 4 5-2 4-4 4zm0-103c-2 0-4-2-4-4s2-4 4-4 4 2 4 4-2 4-4 4zm-4 201c0-2 2-4 4-4s4 2 4 4m-42-269 35-36m0 97-35-35m41-61 48 48-48 48m0-199 48 48-48 48m-41-61 35-35m0 97-35-36" class="st0"/><path d="M1384 312c-2 0-4-2-4-5s2-4 4-4 4 2 4 5-2 4-4 4zm-39 239 36-36m0 97-36-36m42-61 48 49-48 48m-54 3 25-25m-25-26h51m13-13-13 13m13 13-13-13m-26-77-25 25m25 26-25-25m25-129-25 26m25 26-25-26m25-128-25 25m25 26-25-25m0 153h51m13-13-13 13m13 13-13-13m4 52h47m-47 102h47m-47-205h47m-47-103h47m-47-102h47m-47-102h47m-102 256h51m13-13-13 13m13 13-13-13m-51-103h51m13-12-13 12m13 13-13-13m0-47c-2 0-4-2-4-4s2-4 4-4 4 2 4 4-2 4-4 4zm-38-68 35-35m0 96-35-35m41-61 48 48-48 48m0-199 48 48-48 49m-42-61 36-36m0 97-35-36" class="st0"/><path d="M1384 107c-2 0-4-2-4-4 0-3 2-5 4-5s4 2 4 4c0 3-2 5-4 5zm4-107c0 2-2 4-4 4s-4-2-4-4m-22 179-25 26m25 26-25-26m25-128-25 26m25 25-25-26m25-76-25-26m0 154h51m13-13-13 13m13 13-13-13m-51-103h51m13-13-13 13m13 13-13-13M475 38l-14 13m13 13-13-13m106 362 48 48-48 48m-42-61 36-35m0 97-36-36m39 43c-3 0-4-2-4-4s1-5 4-5c2 0 4 2 4 5s-2 4-4 4zm0-103c-3 0-4-2-4-4s1-4 4-4c2 0 4 2 4 4s-2 4-4 4zm-4 201c0-2 2-4 4-4s4 2 4 4m-43-269 36-36m0 97-36-35m42-61 48 48-48 48m0-199 48 48-48 48m-42-61 36-35m0 97-36-36" class="st0"/><path d="M564 312c-3 0-4-2-4-5s1-4 4-4c2 0 4 2 4 5s-2 4-4 4zm-39 239 36-36m0 97-36-36m42-61 48 49-48 48m-54 3 25-25m-25-26h51m13-13-13 13m13 13-13-13m-26-77-25 25m25 26-25-25m25-129-25 26m25 26-25-26m25-128-25 25m25 26-25-25m0 153h51m13-13-13 13m13 13-13-13m4 52h47m-47 102h47m-47-205h47m-47-103h47m-47-102h47m-47-102h47M513 359h51m13-13-13 13m13 13-13-13m-51-103h51m13-12-13 12m13 13-13-13m0-47c-3 0-4-2-4-4s1-4 4-4c2 0 4 2 4 4s-2 4-4 4zm-39-68 36-35m0 96-36-35m42-61 48 48-48 48m0-199 48 48-48 49m-42-61 36-36m0 97-36-36" class="st0"/><path d="M564 107c-3 0-4-2-4-4 0-3 1-5 4-5 2 0 4 2 4 4 0 3-2 5-4 5zm4-107c0 2-2 4-4 4-3 0-4-2-4-4m-22 179-25 26m25 26-25-26m25-128-25 26m25 25-25-26m25-76L513 0m0 154h51m13-13-13 13m13 13-13-13M513 51h51m13-13-13 13m13 13-13-13m105 362 48 48-48 48m-41-61 35-35m0 97-35-36" class="st0"/><path d="M666 517c-2 0-4-2-4-4s2-5 4-5c3 0 4 2 4 5s-1 4-4 4zm0-103c-2 0-4-2-4-4s2-4 4-4c3 0 4 2 4 4 1 2-1 4-4 4zm-4 201c0-2 2-4 4-4 3 0 5 2 5 4m-43-269 35-36m0 97-35-35" class="st0"/><path d="m669 311 48 48-48 48m0-199 48 48-48 48m-41-61 35-35m0 97-35-36" class="st0"/><path d="M666 312c-2 0-4-2-4-5s2-4 4-4c3 0 4 2 4 5s-1 4-4 4zm-38 239 35-36m0 97-35-36m41-61 48 49-48 48m-54 3 25-25m-25-26h51m13-13-13 13m13 13-13-13m-25-77-26 25m26 26-26-25m26-129-26 26m26 26-26-26m26-128-26 25m26 26-26-25m0 153h51m13-13-13 13m13 13-13-13m5 52h47m-47 102h47m-47-205h47m-47-103h47m-47-102h47m-47-102h47M615 359h51m13-13-13 13m13 13-13-13m-51-103h51m13-12-13 12m13 13-13-13m0-47c-2 0-4-2-4-4s2-4 4-4c3 0 4 2 4 4 1 2-1 4-4 4zm-38-68 35-35m0 96-35-35" class="st0"/><path d="m669 106 48 48-48 48m0-199 48 48-48 49m-41-61 35-36m0 97-35-36" class="st0"/><path d="M666 107c-2 0-4-2-4-4 0-3 2-5 4-5 3 0 4 2 4 4 1 3-1 5-4 5zm5-107c0 2-2 4-5 4-2 0-4-2-4-4m-21 179-26 26m26 26-26-26m26-128-26 26m26 25-26-26m26-76L615 0m0 154h51m13-13-13 13m13 13-13-13M615 51h51m14-13-14 13m13 13-13-13m106 362 48 48-48 48m-42-61 36-35m0 97-36-36m39 43c-3 0-4-2-4-4s1-5 4-5c2 0 4 2 4 5s-2 4-4 4zm0-103c-3 0-4-2-4-4s1-4 4-4c2 0 4 2 4 4s-2 4-4 4zm-4 201c0-2 2-4 4-4s4 2 4 4m-43-269 36-36m0 97-36-35m42-61 48 48-48 48m0-199 48 48-48 48m-42-61 36-35m0 97-36-36" class="st0"/><path d="M769 312c-3 0-4-2-4-5s1-4 4-4c2 0 4 2 4 5s-2 4-4 4zm-39 239 36-36m0 97-36-36m42-61 48 49-48 48m-54 3 25-25m-25-26h51m13-13-13 13m13 13-13-13m-26-77-25 25m25 26-25-25m25-129-25 26m25 26-25-26m25-128-25 25m25 26-25-25m0 153h51m13-13-13 13m13 13-13-13m4 52h47m-47 102h47m-47-205h47m-47-103h47m-47-102h47m-47-102h47M718 359h51m13-13-13 13m13 13-13-13m-51-103h51m13-12-13 12m13 13-13-13m0-47c-3 0-4-2-4-4s1-4 4-4c2 0 4 2 4 4s-2 4-4 4zm-39-68 36-35m0 96-36-35m42-61 48 48-48 48m0-199 48 48-48 49m-42-61 36-36m0 97-36-36" class="st0"/><path d="M769 107c-3 0-4-2-4-4 0-3 1-5 4-5 2 0 4 2 4 4 0 3-2 5-4 5zm4-107c0 2-2 4-4 4-3 0-4-2-4-4m-22 179-25 26m25 26-25-26m25-128-25 26m25 25-25-26m25-76L718 0m0 154h51m13-13-13 13m13 13-13-13M718 51h51m13-13-13 13m13 13-13-13m105 362 49 48-49 48m-41-61 35-35m0 97-35-36" class="st0"/><path d="M871 517c-2 0-4-2-4-4s2-5 4-5c3 0 4 2 4 5s-1 4-4 4zm0-103c-2 0-4-2-4-4s2-4 4-4c3 0 4 2 4 4 1 2-1 4-4 4zm-4 201c0-2 2-4 4-4 3 0 5 2 5 4m-43-269 35-36m0 97-35-35" class="st0"/><path d="m874 311 49 48-49 48m0-199 49 48-49 48m-41-61 35-35m0 97-35-36" class="st0"/><path d="M871 312c-2 0-4-2-4-5s2-4 4-4c3 0 4 2 4 5s-1 4-4 4zm-38 239 35-36m0 97-35-36m41-61 49 49-49 48m-54 3 25-25m-25-26h51m13-13-13 13m13 13-13-13m-25-77-26 25m26 26-26-25m26-129-26 26m26 26-26-26m26-128-26 25m26 26-26-25m0 153h51m13-13-13 13m13 13-13-13m5 52h47m-47 102h47m-47-205h47m-47-103h47m-47-102h47m-47-102h47M820 359h51m13-13-13 13m13 13-13-13m-51-103h51m13-12-13 12m13 13-13-13m0-47c-2 0-4-2-4-4s2-4 4-4c3 0 4 2 4 4 1 2-1 4-4 4zm-38-68 35-35m0 96-35-35" class="st0"/><path d="m874 106 49 48-49 48m0-199 49 48-49 49m-41-61 35-36m0 97-35-36" class="st0"/><path d="M871 107c-2 0-4-2-4-4 0-3 2-5 4-5 3 0 4 2 4 4 1 3-1 5-4 5zm5-107c0 2-2 4-5 4-2 0-4-2-4-4m-21 179-26 26m26 26-26-26m26-128-26 26m26 25-26-26m26-76L820 0m0 154h51m13-13-13 13m13 13-13-13M820 51h51m14-13-14 13m13 13-13-13m106 362 48 48-48 48m-42-61 36-35m0 97-36-36m39 43c-3 0-4-2-4-4s1-5 4-5c2 0 4 2 4 5s-2 4-4 4zm0-103c-3 0-4-2-4-4s1-4 4-4c2 0 4 2 4 4s-2 4-4 4zm-4 201c0-2 2-4 4-4s4 2 4 4m-43-269 36-36m0 97-36-35m42-61 48 48-48 48m0-199 48 48-48 48m-42-61 36-35m0 97-36-36" class="st0"/><path d="M974 312c-3 0-4-2-4-5s1-4 4-4c2 0 4 2 4 5s-2 4-4 4zm-39 239 36-36m0 97-36-36m42-61 48 49-48 48m-54 3 25-25m-25-26h51m13-13-13 13m13 13-13-13m-26-77-25 25m25 26-25-25m25-129-25 26m25 26-25-26m25-128-25 25m25 26-25-25m0 153h51m13-13-13 13m13 13-13-13m4 52h47m-47 102h47m-47-205h47m-47-103h47m-47-102h47m-47-102h47M923 359h51m13-13-13 13m13 13-13-13m-51-103h51m13-12-13 12m13 13-13-13m0-47c-3 0-4-2-4-4s1-4 4-4c2 0 4 2 4 4s-2 4-4 4zm-39-68 36-35m0 96-36-35m42-61 48 48-48 48m0-199 48 48-48 49m-42-61 36-36m0 97-36-36" class="st0"/><path d="M974 107c-3 0-4-2-4-4 0-3 1-5 4-5 2 0 4 2 4 4 0 3-2 5-4 5zm4-107c0 2-2 4-4 4-3 0-4-2-4-4m-22 179-25 26m25 26-25-26m25-128-25 26m25 25-25-26m25-76L923 0m0 154h51m13-13-13 13m13 13-13-13M923 51h51m13-13-13 13m13 13-13-13m105 362 49 48-49 48m-41-61 35-35m0 97-35-36" class="st0"/><path d="M1076 517c-2 0-4-2-4-4s2-5 4-5c3 0 4 2 4 5s-1 4-4 4zm0-103c-2 0-4-2-4-4s2-4 4-4c3 0 4 2 4 4 1 2-1 4-4 4zm-4 201c0-2 2-4 4-4 3 0 4 2 4 4m-42-269 35-36m0 97-35-35" class="st0"/><path d="m1079 311 49 48-49 48m0-199 49 48-49 48m-41-61 35-35m0 97-35-36" class="st0"/><path d="M1076 312c-2 0-4-2-4-5s2-4 4-4c3 0 4 2 4 5s-1 4-4 4zm-38 239 35-36m0 97-35-36m41-61 49 49-49 48m-54 3 25-25m-25-26h51m13-13-13 13m13 13-13-13m-25-77-26 25m26 26-26-25m26-129-26 26m26 26-26-26m26-128-26 25m26 26-26-25m0 153h51m13-13-13 13m13 13-13-13m5 52h47m-47 102h47m-47-205h47m-47-103h47m-47-102h47m-47-102h47m-103 256h51m13-13-13 13m13 13-13-13m-51-103h51m13-12-13 12m13 13-13-13m0-47c-2 0-4-2-4-4s2-4 4-4c3 0 4 2 4 4 1 2-1 4-4 4zm-38-68 35-35m0 96-35-35" class="st0"/><path d="m1079 106 49 48-49 48m0-199 49 48-49 49m-41-61 35-36m0 97-35-36" class="st0"/><path d="M1076 107c-2 0-4-2-4-4 0-3 2-5 4-5 3 0 4 2 4 4 1 3-1 5-4 5zm5-107c0 2-2 4-5 4-2 0-4-2-4-4m-21 179-26 26m26 26-26-26m26-128-26 26m26 25-26-26m26-76-26-26m0 154h51m13-13-13 13m13 13-13-13m-51-103h51m14-13-14 13m13 13-13-13m106 362 48 48-48 48m-42-61 36-35m0 97-36-36m39 43c-3 0-4-2-4-4s1-5 4-5c2 0 4 2 4 5s-2 4-4 4zm0-103c-3 0-4-2-4-4s1-4 4-4c2 0 4 2 4 4s-2 4-4 4zm-4 201c0-2 1-4 4-4 2 0 4 2 4 4m-43-269 36-36m0 97-36-35m42-61 48 48-48 48m0-199 48 48-48 48m-42-61 36-35m0 97-36-36" class="st0"/><path d="M1179 312c-3 0-4-2-4-5s1-4 4-4c2 0 4 2 4 5s-2 4-4 4zm-39 239 36-36m0 97-36-36m42-61 48 49-48 48m-54 3 25-25m-25-26h51m13-13-13 13m13 13-13-13m-26-77-25 25m25 26-25-25m25-129-25 26m25 26-25-26m25-128-25 25m25 26-25-25m0 153h51m13-13-13 13m13 13-13-13m4 52h47m-47 102h47m-47-205h47m-47-103h47m-47-102h47m-47-102h47m-102 256h51m13-13-13 13m13 13-13-13m-51-103h51m13-12-13 12m13 13-13-13m0-47c-3 0-4-2-4-4s1-4 4-4c2 0 4 2 4 4s-2 4-4 4zm-39-68 36-35m0 96-36-35m42-61 48 48-48 48m0-199 48 48-48 49m-42-61 36-36m0 97-36-36" class="st0"/><path d="M1179 107c-3 0-4-2-4-4 0-3 1-5 4-5 2 0 4 2 4 4 0 3-2 5-4 5zm4-107c0 2-2 4-4 4-3 0-4-2-4-4m-22 179-25 26m25 26-25-26m25-128-25 26m25 25-25-26m25-76-25-26m0 154h51m13-13-13 13m13 13-13-13m-51-103h51m13-13-13 13m13 13-13-13" class="st0"/></svg>