<svg xmlns="http://www.w3.org/2000/svg" xml:space="preserve" id="Layer_1" x="0" y="0" style="enable-background:new 0 0 650 650" version="1.1" viewBox="0 0 650 650"><style>.network0,.network1{fill:none;stroke:gray;stroke-linecap:round;stroke-linejoin:round;stroke-miterlimit:10}.network1{stroke-width:2}.network2{fill:url(#SVGID_1_)}.network3{fill:none;stroke:#ee5586;stroke-width:2;stroke-linecap:round;stroke-linejoin:round;stroke-miterlimit:10}.network4{fill:#ee5586}</style><path d="M336 463c0 3-2 5-4 5-3 0-5-2-5-5 0-2 2-5 5-5 2 0 4 2 4 5zm-14-11c0 2-2 5-5 5-2 0-4-3-4-5 0-3 2-5 4-5 3 0 5 2 5 5zm40-32c0 3-2 5-5 5-2 0-4-2-4-5 0-2 2-4 4-4s5 2 5 4zm7-38c0 3-3 5-5 5-3 0-5-2-5-5 0-2 2-4 5-4 2 0 5 2 5 4zm19-32c0 3-2 5-5 5-2 0-4-2-4-5 0-2 2-4 4-4 3 0 5 2 5 4zm-15-2c0 3-2 5-4 5-3 0-5-2-5-5s2-5 4-5c3 0 5 2 5 5zm-15-39c0 2-3 5-5 5-3 0-5-2-5-5s2-5 5-5c2 0 5 2 5 5zm23 28c0 2-2 5-4 5-3 0-5-2-5-5a5 5 0 0 1 9 0zm26-16c0 2-2 5-5 5s-5-3-5-5c0-3 2-5 5-5s5 2 5 5zm-47-29c0 2-2 5-5 5-2 0-5-2-5-5s2-5 5-5 5 2 5 5zm-2-13c0 2-3 5-5 5-3 0-5-2-5-5s2-5 5-5 5 2 5 5zm-16-1c0 3-2 5-5 5s-5-2-5-5 2-5 5-5 5 2 5 5zm-15 21c0 3-2 5-5 5s-5-2-5-5 2-4 5-4 5 2 5 4zm-50-12c0 3-2 5-5 5s-5-2-5-5 2-5 5-5 5 2 5 5zm28-26c0 3-2 5-5 5-2 0-5-2-5-5s2-5 5-5 5 2 5 5zm13 9c0 3-2 5-5 5s-5-2-5-5 2-5 5-5 5 2 5 5zm-11-43c0 3-2 5-4 5-3 0-5-2-5-5s2-4 5-4c2 0 4 2 4 4zm-5-28c0 3-2 5-4 5-3 0-5-2-5-5s2-5 4-5c3 0 5 2 5 5zm34-31c0 2-2 4-5 4-2 1-4-2-4-4s2-5 4-5c3 0 5 2 5 5zm30 14c0 2-2 5-5 5s-4-2-4-5 2-5 4-5 5 2 5 5zm31-8c0 3-2 5-5 5-2 0-5-2-5-5s2-5 5-5 5 2 5 5zm19-10c0 3-2 5-5 5-2 0-4-2-4-5s2-5 4-5c3 0 5 2 5 5zm27-9c0 3-2 5-5 5s-5-2-5-5a5 5 0 0 1 10 0zm-11 10c0 2-2 5-5 5s-5-2-5-5 2-5 5-5 5 2 5 5zm38-22c0 3-2 5-5 5-2 0-5-2-5-5s2-4 5-4 5 2 5 4zm26 16c0 3-2 5-5 5s-5-2-5-5 2-5 5-5 5 2 5 5zm58 94c0 3-2 5-5 5s-5-2-5-5 3-5 5-5 5 3 5 5zm-7 27c0 3-2 5-5 5s-5-2-5-5 2-4 5-4 5 2 5 4zm-14-10c0 2-2 4-4 4-3 0-5-2-5-5s2-4 5-4c2 0 4 2 4 5zm0 31c0 3-2 5-4 5-3 0-5-2-5-5s2-5 5-5c2 0 4 2 4 5zm-18 22c0 3-2 5-5 5s-5-2-5-5c0-2 2-5 5-5s5 3 5 5zm-8 26c0 3-2 5-4 5-3 0-5-2-5-5 0-2 2-5 4-5 3 0 5 3 5 5zm-15-10c0 2-2 5-5 5s-5-2-5-5a5 5 0 0 1 10 0zm-19-22c0 2-2 5-4 5-3 0-5-2-5-5s2-5 4-5c3 0 5 2 5 5zm-45-7c0 3-2 5-5 5s-5-2-5-5 2-5 5-5 5 2 5 5h0zm37-38c0 3-2 5-5 5s-5-2-5-5 2-5 5-5 5 3 5 5zm38-38c0 2-2 4-5 4s-5-2-5-4c0-3 2-5 5-5 2 0 5 2 5 5zm-142-15c0 3-2 5-4 5s-5-2-5-5 2-5 5-5c2 0 4 2 4 5zm67 13c0 3-2 5-5 5s-5-2-5-5 2-4 5-4c3-1 5 2 5 4zm-17 76c0 2-2 4-4 4-3 0-5-2-5-5s2-4 5-4 4 2 4 5zm89 59c0 2-2 4-5 4s-4-2-4-5c0-2 2-4 4-4s5 2 5 5zm57 44c0 2-2 5-5 5s-5-3-5-5a5 5 0 0 1 10 0zm-175 30c0 3-2 5-5 5s-5-2-5-5c0-2 2-5 5-5s5 2 5 5zm4-27c0 2-2 5-4 5-3 0-5-2-5-5s2-5 4-5c3 0 5 2 5 5zm164-68c0 3-2 5-4 5s-5-2-5-5 2-5 5-5c2 0 4 2 4 5zm10-53c0 2-3 5-5 5-3 0-5-3-5-5s2-5 5-5c2 0 5 2 5 5zm3 84c0 3-2 5-4 5-3 0-5-2-5-5s2-5 5-5c2 0 4 2 4 5zm-19 4c0 3-2 5-5 5s-5-2-5-5c0-2 2-4 5-4s5 2 5 4zm-29 14c0 3-2 5-5 5s-5-2-5-5 2-5 5-5 5 2 5 5zm-15-13c0 3-2 5-5 5s-4-2-4-5a5 5 0 0 1 9 0zm42-51c0 2-2 5-5 5s-4-3-4-5c0-3 2-5 5-5s4 2 4 5zm-5-15c0 2-2 5-5 5-2 0-4-2-4-5s2-5 4-5c3 0 5 2 5 5zm-1 109c0 3-2 5-5 5s-5-2-5-5a5 5 0 0 1 10 0zm13 11c0 2-2 5-5 5-2 0-5-2-5-5s2-5 5-5 5 2 5 5zM280 233c0 3-2 5-4 5-3 0-5-2-5-5 0-2 2-4 4-4 3-1 5 2 5 4zm-14-10c0 3-2 5-5 5-2 0-4-2-4-5s2-4 4-4c3 0 5 2 5 4zm-5 91c0 2-2 5-5 5s-5-2-5-5 2-5 5-5 5 2 5 5zm-4 30c0 3-2 5-5 5-2 0-4-2-4-5s2-5 4-5c3 0 5 2 5 5zm26-25c0 2-2 5-4 5-3 0-5-3-5-5 0-3 2-5 5-5 2 0 4 2 4 5zm39 16c0 2-2 5-5 5-2 0-4-2-4-5s2-5 4-5c3 0 5 2 5 5zm18 37c0 3-2 5-4 5-3 0-5-2-5-5 0-2 2-5 5-5 2 0 4 2 4 5zm-2 47c0 2-2 5-5 5-2 0-5-2-5-5a5 5 0 0 1 10 0zm-25 4c0 2-2 5-5 5s-5-3-5-5a5 5 0 0 1 10 0zm3-19c0 3-2 5-5 5-2 0-4-2-4-5 0-2 2-4 4-4 3 0 5 2 5 4zm-8-37c0 3-2 5-5 5-2 0-4-2-4-5a5 5 0 0 1 9 0zm8-225c0 3-2 5-5 5s-5-2-5-5c0-2 2-4 5-4s5 2 5 4zm-5-13c0 2-2 4-5 4-2 0-4-2-4-4s2-5 4-5c3 0 5 2 5 5zm21-5c0 2-2 5-5 5-2 0-4-3-4-5 0-3 2-5 4-5 3 0 5 2 5 5zm59 2c0 2-2 5-5 5s-5-3-5-5c0-3 2-5 5-5s5 2 5 5zm13 16c0 3-2 5-5 5-2 0-5-2-5-5s2-5 5-5 5 3 5 5zm-96-9 2 5m74 20 12-12m-179 54c0 3-2 5-5 5s-5-2-5-5 2-5 5-5 5 2 5 5zm-29 275c0 3-2 5-5 5s-4-2-4-5a5 5 0 0 1 9 0zm-32-13c0 2-2 5-5 5-2 0-5-2-5-5s3-5 5-5c3 0 5 2 5 5zm21-14c0 3-2 5-4 5s-5-2-5-5a5 5 0 0 1 9 0zm19-68c0 2-2 5-5 5s-5-2-5-5 2-5 5-5 5 2 5 5zm-29-26c0 3-2 5-5 5s-5-2-5-5a5 5 0 0 1 10 0zm-28 2c0 3-2 5-5 5s-5-2-5-5c0-2 2-5 5-5s5 2 5 5zm-17-11c0 3-3 5-5 5s-5-2-5-5c0-2 2-5 5-5s5 2 5 5zm-52-38c0 2-2 5-5 5s-5-2-5-5 2-5 5-5 5 2 5 5zm29-5c0 2-2 5-5 5s-5-2-5-5 2-5 5-5 5 2 5 5zm35 5c0 2-2 5-5 5s-4-2-4-5 2-5 4-5c3 0 5 2 5 5zm14-26c0 3-2 5-5 5s-5-2-5-5 2-5 5-5 5 2 5 5zm9-79c0 3-3 5-5 5s-5-2-5-5 2-5 5-5 5 3 5 5zm-10 32c0 2-3 4-5 4s-5-2-5-4c0-3 2-5 5-5 2 0 5 2 5 5zm-25-22c0 3-2 5-5 5s-5-2-5-5 2-5 5-5 5 2 5 5zm25-54c0 3-3 5-5 5-3 0-5-2-5-5s2-4 5-4c2 0 5 2 5 4zm-5 23c0 3-2 5-4 5s-5-2-5-5 2-4 5-4c2 0 4 2 4 4zm31-13c0 3-2 5-5 5-2 0-5-2-5-5a5 5 0 0 1 10 0zm0 24c0 3-2 5-5 5-2 0-5-2-5-5s2-4 5-4 5 2 5 4zm-85 46c0 2-2 4-5 4s-4-2-4-4 2-5 5-5 4 2 4 5zm24 18c0 3-2 5-5 5s-5-2-5-5 3-5 5-5 5 2 5 5zm49 126c0 2-2 5-5 5s-5-3-5-5c0-3 2-5 5-5s5 2 5 5zm30 28c0 2-2 5-5 5s-5-2-5-5 3-5 5-5c3 0 5 2 5 5zm20-231c0 2-3 4-5 4s-5-2-5-4c0-3 2-5 5-5s5 2 5 5zm37-7c0 3-3 5-5 5-3 0-5-2-5-5s2-5 5-5c2 0 5 2 5 5zm16-34c0 2-2 5-5 5-2 0-4-2-4-5s2-5 4-5c3 0 5 2 5 5zm12-14c0 2-2 4-5 4-2 0-4-2-4-4s2-5 4-5c3 0 5 2 5 5zm-9-11c0 3-2 5-5 5s-5-2-5-5 2-5 5-5c2 0 5 2 5 5zm-37 3c0 2-2 4-5 4s-5-2-5-4c0-3 2-5 5-5s5 2 5 5zm-36 12c0 3-2 5-5 5s-5-2-5-5c0-2 2-4 5-4s5 2 5 4zm-11 14c0 2-3 5-5 5-3 0-5-2-5-5s2-5 5-5c2 0 5 2 5 5zm21 9c0 3-3 5-5 5s-5-2-5-5 2-5 5-5 5 3 5 5zm32-14c0 3-2 5-4 5s-5-2-5-5 2-5 4-5 5 2 5 5zm-25 58-3-12m1-8 9-10m-1-7-14-5m13 44 24-21m6-8 6-8m5-8 2-10m-4-4-19-1m26-3 6-7m-11-13h-27m-4 6 4 12m-9-14-27 8m-8 6-5 6m14 11-13-5m46-4-26 8m28-6-6 14m-62 367-12-24m2-7 27-17m0 0-24-10m-1-7 15-7m1-7-21-23m28 25 27-9m0 0-15-23m1-7 26-11m0-5-21-9m-47 31 5-27m0 0-17 2m-5-6 2-21m6-5 18-2m9 3 21 20m-27 8 22 22m-53-51-9-7m-5-9-4-9m-7-5-16 1m-3-4 7-17m-3-4-19 4m-5-4 17-60m4-8 28-18m7 1 17 13m6-1 8-22m3-1 30 36m-19 6-11-42m-13 32 1 38m-3 9-8 18m-34-4 27 6m-38-64 16 13m8-1 27-16m-28 23 29 18m-34-18-11 37m23-90-1-22m5-4 12 1m5-5 4-14m5-5 16 8m5 7v15m153 267 7 5m8-2 4-9m0-8-7-17m13 16 9-15m-38 22-9-19m0-10 3-9m5-2 12 9m-17-16 22-24m-30-4 8 28m29-25 19 7m-23 33 28-28m-7 29 7-29m0-9 19-23m-9-6 5 1m-13-6-10-31m17 21-17-21m25 21 17-10m0-7-10-17m15 5-15-5m23 8 7 1m7 5 15 36m6 1 19-31m7 0 11 16m7 7 2 20m7-17-9-3m14 1 5-16m3-9 14-14m1-8 2-23m4-2 5 5m5-1 5-18m-1-9-23-47m-5-9-25-30m-6-7-19-9m-4 1-6 37m1-39-19 6m-7 6-4 3m0 8 24 18m-32-22-6-1m-10 3-10 4m-8 5-22 4m-9 0-22-10m-8 0-27 25m-2 9 3 19m-27-13 1 4m2 10-2 4m13 14 12-11m-16 20v5m-5 6-9 2m0 5 2 2m32-7 5 3m8 0 7-2m7 1 3 8m8 4 6 1m5 6 2 2m-4 7-24 4m-9-1-14-10m-8-4-20 3m-6 5-12 19m16-18 5 22m4 7 30 11m9-28-5 26m31-18-26 20m-2 7 12 27m-17-26-10 22m-7 4-18-4m-10-3-14-12m-4-8 4-20m4-3 14 1m33-90 45-8m9-32-5 27m5 5 57 13m-61-8-4 50m73-38 32 31m6 2 30-32m7 0 24 30m-7-67-18 29m-14-66-24 23m0 6 31 38m-39-38-29 35m0 79 30-30m5 1 8 35m-4-37 42 45m-78-10 36 7m9 0 32 6m-40-51 59-2m-143 22-22-69m1 69 19 5m140 164-3-17m4-8 8-7m7-7 14-7m3 1-6 15m-4 9-5 11m-11 13 5-5m0-8-11-9m19-6-19 6m20-9-5-5m-16-51 7-9m-145 51-4 17m-211 87 15-43m-33 10 2-24m1-9-2-36m37 50 20-28m4-9 11-36m-88-7 11 22m2-136 19-22m-82-22 31-48m168 87c0 3-2 5-5 5s-5-2-5-5 2-5 5-5c2 0 5 2 5 5zm7-11c0 2-3 5-5 5-3 0-5-2-5-5s2-5 5-5c2 0 5 2 5 5zm-1-1h8" class="network0"/><path d="M578 335a264 264 0 1 1-529 0 264 264 0 0 1 529 0z" class="network1"/><path d="M279 598c-38 28-74 39-101 25-63-32-48-190 34-351S413 5 476 37c31 16 44 62 38 124m50 259c22 65 19 121-13 151-30 28-80 29-137 8" class="network1"/><path d="M81 208c-11-51-4-93 23-119 63-58 214 2 337 135 60 65 102 134 123 196" class="network1"/><animateMotion fill="freeze" accumulate="none" additive="replace" begin="0s" calcMode="paced" dur="2s" path="M0, 0 65 0 -65" restart="always"/><radialGradient id="SVGID_1_" cx="166.9" cy="2044.2" r="0" gradientTransform="translate(0 -1787)" gradientUnits="userSpaceOnUse"><stop offset="0" style="stop-color:#27a8e0"/><stop offset=".2" style="stop-color:#2aa9e0"/><stop offset=".3" style="stop-color:#33ace0"/><stop offset=".5" style="stop-color:#44b1e1"/><stop offset=".6" style="stop-color:#5ab9e2"/><stop offset=".7" style="stop-color:#78c2e3"/><stop offset=".8" style="stop-color:#9ccee4"/><stop offset=".9" style="stop-color:#c6dce5"/><stop offset="1" style="stop-color:#e5e6e6"/></radialGradient><path d="M167 257z" class="network2"/><path id="svg-concept" d="M225 394c0 2-2 4-4 4s-5-2-5-5a5 5 0 0 1 9 1zm-12 45c0 3-2 5-4 5s-5-2-5-5 2-5 4-5 5 2 5 5zm-45 89c0 2-2 4-4 4-3 0-5-2-5-5 0-2 2-4 5-4 2 0 4 2 4 5zm-15-33c0 2-3 5-5 5s-5-3-5-5a5 5 0 0 1 10 0zm-17-108c0 2-2 4-5 4s-5-2-5-5c0-2 3-4 5-4s5 2 5 5zm15 30c0 3-2 5-5 5s-4-2-4-5c0-2 2-5 4-5s5 3 5 5zm40-170c0 3-2 5-5 5s-4-2-4-5 2-5 4-5 5 2 5 5zm-70-66c0 2-2 4-5 4-2 0-5-2-5-4s3-5 5-5 5 2 5 5zm52 71c0 2-2 5-5 5-2 0-5-2-5-5s2-5 5-5 5 2 5 5zm-59 74c0 3-2 5-5 5-2 0-5-2-5-5a5 5 0 0 1 10 0zm-26 1c0 3-2 5-5 5s-4-2-4-5c0-2 2-4 5-4s4 2 4 4z" class="network3"/><g><path id="svg-concept" d="M259 156c0 3-2 5-4 5s-5-2-5-5 2-5 4-5c3 0 5 2 5 5z" class="network3"/><animate fill="remove" accumulate="none" additive="replace" attributeName="opacity" calcMode="linear" dur="1s" repeatCount="indefinite" restart="always" values="0;1;0"/></g><path id="svg-concept" d="M226 161c0 2-3 5-5 5-3 0-5-2-5-5s2-5 5-5c2 0 5 2 5 5zm122 283c0 3-2 5-4 5-3 0-5-2-5-5 0-2 2-4 5-4 2 0 4 2 4 4zm-43-161c0 2-2 5-4 5-3 0-5-2-5-5s2-5 4-5c3 0 5 2 5 5zm-25 78c0 3-3 5-5 5-3 0-5-2-5-5 0-2 2-4 5-4 2 0 5 2 5 4zm-10-95c0 3-2 5-4 5s-5-2-5-5 2-5 5-5 4 3 4 5zm20-20c0 3-2 5-5 5s-5-2-5-5 2-5 5-5 5 2 5 5z" class="network3"/><g><path id="svg-concept" d="M527 466c0 3-2 5-5 5s-5-2-5-5 2-5 5-5 5 2 5 5z" class="network3"/><animate fill="remove" accumulate="none" additive="replace" attributeName="opacity" calcMode="linear" dur="1s" repeatCount="indefinite" restart="always" values="0;1;0"/></g><path id="svg-concept" d="M539 456c0 2-2 4-5 4s-5-2-5-5c0-2 2-4 5-4s5 2 5 5zm-18-17c0 2-2 5-5 5-2 0-4-2-4-5s2-5 4-5c3 0 5 2 5 5z" class="network3"/><g><path id="svg-concept" d="M332 262c0 3-2 5-4 5s-5-2-5-5 2-4 4-4c3-1 5 2 5 4z" class="network3"/><animate fill="remove" accumulate="none" additive="replace" attributeName="opacity" calcMode="linear" dur="1s" repeatCount="indefinite" restart="always" values="0;1;0"/></g><path id="svg-concept" d="M447 355c0 2-2 5-4 5s-5-2-5-5a5 5 0 0 1 9 0zm-58-58c0 2-2 5-5 5-2 0-5-3-5-5s2-5 5-5 5 2 5 5z" class="network3"/><g><path id="svg-concept" d="M522 381c0 3-2 5-5 5-2 0-4-2-4-5 0-2 2-4 4-4 3 0 5 2 5 4z" class="network3"/><animate fill="remove" accumulate="none" additive="replace" attributeName="opacity" calcMode="linear" dur="1s" repeatCount="indefinite" restart="always" values="0;1;0"/></g><path id="svg-concept" d="M532 364c0 2-2 5-5 5-2 0-4-3-4-5 0-3 2-5 5-5 2 0 4 2 4 5zM282 219c0 3-2 5-5 5s-5-2-5-5a5 5 0 0 1 10 0zm-4-14c0 3-2 5-5 5s-5-2-5-5 2-4 5-4 5 2 5 4z" class="network3"/><g><path id="svg-concept" d="M527 197c0 3-2 5-5 5s-5-2-5-5 2-5 5-5 5 3 5 5z" class="network3"/><animate fill="remove" accumulate="none" additive="replace" attributeName="opacity" calcMode="linear" dur="1s" repeatCount="indefinite" restart="always" values="0;1;0"/></g><g><path id="svg-concept" d="M463 190c0 2-2 4-5 4s-5-2-5-4 2-5 5-5 5 2 5 5z" class="network3"/><animate fill="remove" accumulate="none" additive="replace" attributeName="opacity" calcMode="linear" dur="1s" repeatCount="indefinite" restart="always" values="0;1;0"/></g><path id="svg-concept" d="M386 162c0 3-2 5-5 5s-5-2-5-5 2-5 5-5 5 3 5 5zm65-33c0 2-2 4-5 4-2 0-4-2-4-4s2-5 4-5 5 2 5 5z" class="network3"/><path d="M578 327c48 31 74 62 67 88-14 53-168 59-343 12S-5 299 10 246c5-20 32-40 71-38" class="network1"/><g><circle id="svg-ico" cx="474.1" cy="544.2" r="7.5" class="network4"/><animateTransform fill="remove" attributeName="transform" dur="10s" from="0 320 335" repeatCount="indefinite" to="-360 310 335" type="rotate"/></g><path id="svg-ico" d="M215 282c0 4-4 7-8 7s-7-3-7-7 3-8 7-8c4 1 8 4 8 8z" class="network4"/><circle id="svg-ico" cx="18" cy="281" r="7.5" class="network4"/></svg>