<svg xmlns="http://www.w3.org/2000/svg" xml:space="preserve" id="Layer_1" x="0" y="0" version="1.1" viewBox="0 0 853.5 435.7"><style>.nfound0{fill:none;stroke:gray;stroke-linecap:round;stroke-linejoin:round;stroke-miterlimit:10}.nfound1{stroke:#ee5586;stroke-width:2}.nfound1,.nfound2,.nfound3{fill:none;stroke-linecap:round;stroke-linejoin:round;stroke-miterlimit:10}.nfound2{stroke-width:2;stroke:gray}.nfound3{stroke:#ee5586}</style><path d="m386.6 227 10.4 6.9m3.7-26.4 12.1 8" class="nfound0"/><path id="svg-concept" d="m267.8 137 17.1 17.7c.8.9 2.2.8 2.9-.2l10.5-14.9c.7-1 .3-2.4-.8-2.8l-22.2-9.9c-.8-.4-1.8-.1-2.3.6l-5.3 7.1c-.7.7-.6 1.8.1 2.4zm2.6-6.3 60.5 42.3m-32.6-33.4 52.6 4.6m-40 57-22.6-47.5" class="nfound1"/><path d="m238.7 299.3 47.9-6.4m-21.5-28.4 43.3.9m-10.6-45.8 36.8 10.9m33.7-111.7 22 31.9m7.9-76.6 14.7 41.5m7.4-75.8 10.2 46M437 8.4l6.4 52.4C423.2 109 318 259.6 266.3 316.8c0 0-53.1 10.9-52.5 10.5" class="nfound2"/><path d="m443.4 60.8-2.3 62.2-21.9 55.7-22 33.6-7.9 10.9-24.5 33.6-42.4 36.2-56.1 23.8m56.1-23.8c30.3-31.9 102.3-134.4 118.7-170" class="nfound2"/><path id="svg-concept" d="M333.9 142.7C389 64.8 433.9 6.3 437 8.4c3.4 2.4-43.9 75.7-105.5 163.7S217.2 329.6 213.8 327.2c-3.1-2.2 36.1-63.5 89.9-141.3" class="nfound1"/><path d="M414 229.6a4.8 4.8 0 0 1-9.6 0c0-2.6 2.2-4.8 4.8-4.8 2.7 0 4.8 2.1 4.8 4.8z" class="nfound0"/><path d="M411 229.6c0 1-.8 1.8-1.8 1.8s-1.8-.8-1.8-1.8.8-1.8 1.8-1.8 1.8.8 1.8 1.8zm3 0h-3m-3.6 0h-3" class="nfound0"/><path d="M416.3 254.9H402c-2.8 0-5.1-2.3-5.1-5.1v-29.3c0-2.8 2.3-5.1 5.1-5.1h14.3c2.8 0 5.1 2.3 5.1 5.1v29.3c0 2.9-2.3 5.1-5.1 5.1zm-13.7 0h13.2v87.2h-13.2z" class="nfound0"/><path d="M423.6 318.2v-6.4l-7.8-3h-13.2l-7.5 1.8-.1 7.8m7.6 8.9h13.2M395 315.8l-72.4 44.4m9.8 2.1-9.8-2.1m63.5-31.9-53.7 34m-20.5-1.6v4.4m21.9 4.9-21.9-4.9M326 358c-.2.1-3.2-.5-3.2-.5l-10.9 3.2 22 4.9" class="nfound0"/><path d="m336.2 359.9 6.6.8v4.2l-9 5.1v-4.4l9-4.9m52.4-42.5L327 394.7m75.6-77.7L334 395.6m68.6-68.3-56.5 64.8m49.1-73.9 7.4-1.6M327 394.7l6.9 1.1m12.2-3.7-12.2 3.7m-17.9-.3v5.2l16.1 3.4v-5.5z" class="nfound0"/><path d="M332.1 404.1s19.2-5.3 19.4-5.7v-5.2l-19.4 5.4m-2.3-7.1-13.8 4m30.1-3.4 5.5 1.1m64.2-65.9 75.2 62.8M415.8 317l90.2 76m-82.4-74.8 87 72.8m-33-33.2-54-39.6m63.1 39.6-11.2-1.6m-1.1 4.6 12.3-3m0 4.1v-4.1m-7.9 5.9 7.9-1.8m-9.1-4.1-4.8 1.2m37.8 32-4.6 2m-15-2.9 15 2.9m-23.2-1.4s-.1 5.7 0 5.6 26.1 5.7 26.1 5.7V397l-26.1-5.4zm7-2.5-7 2.5m40.1-1.5-14 6.9m14-1.8-14 7.7m14-12.8v5.1m-14.6-6.5 14.6 1.4m-120.3-47.9-5.3 1.5v5.9l8.5 2.3h6.4c.6 0 8.7-2.6 8.7-2.6v-5.1l-5.1-2m-13.2 8.8v-8.8m13.2 0v8.8m0-34 7.8 1.2M794 421.9H486.3M813.1 398H576.6m6.9-23h165.3m10.4 0h3.9m65.1 23h14.3m-35.8 23.9h15.1m12 0h5.5m-784.9.1h279.4M34.3 398.1h209.6M235 375H98.6M28 398.1H13.6" class="nfound0"/><path id="svg-concept" d="m448.7 269.7-6.2 6.8m7.6 0h-7.6m6.2-1.6v4.5m18.6-9.7-6.1 6.8m7.5 0h-7.5m6.1-1.6v4.5" class="nfound3"/><ellipse id="svg-concept" cx="455.7" cy="274.6" class="nfound3" rx="3.4" ry="4.9"/><g><ellipse id="svg-concept" cx="245.3" cy="119.5" class="nfound0" rx="67.9" ry="11.3" transform="rotate(-54 245.35 119.49)"/><animate attributeName="opacity" begin="1s" dur="2s" repeatCount="indefinite" values="0;3;0"/></g><g><ellipse id="svg-concept" cx="212.8" cy="87" class="nfound0" rx="30.3" ry="5" transform="rotate(-54 212.83 86.97)"/><animate attributeName="opacity" begin="2s" dur="2s" repeatCount="indefinite" values="0;3;0"/></g></svg>