<svg version="1.1" id="Layer_1" xmlns="http://www.w3.org/2000/svg" x="0" y="0" viewBox="0 0 1100 426.8" style="enable-background:new 0 0 1100 426.8" xml:space="preserve"><style>.os0{fill:none}.os1{fill:#ee5586}.os2{fill:gray}.os4{fill:none;stroke:gray;stroke-linecap:round;stroke-linejoin:round;stroke-miterlimit:10}</style><circle class="os0" cx="549" cy="212.9" r="49.5"/><path id="svg-ico" class="os1" d="M549 263c-27.6 0-50-22.4-50-50s22.4-50 50-50 50 22.4 50 50-22.4 50-50 50zm0-99c-27.1 0-49 21.9-49 49s21.9 49 49 49 49-21.9 49-49-21.9-49-49-49z"/><path id="svg-ico" class="os1" d="M567 233c3 0 6 3 6 6s-3 7-6 7-7-3-7-6c0-4 3-7 7-7zm-16-36c8 0 15 6 16 14h11c0-6-3-12-7-16-5 2-10 0-13-4l-1-4-6-1c-4 0-8 1-11 3l5 9 6-1zm-16 16c0-5 3-10 6-13l-5-9-4 3c-3 3-5 7-6 11 2 2 4 5 4 8s-2 6-4 8c1.7 5.6 5.2 10.5 10 14l6-10c-4-2-7-7-7-12z"/><path id="svg-ico" class="os1" d="M521 207c3 0 6 2 6 6s-3 6-6 6-7-3-7-6 3-6 7-6zm46 8a15.98 15.98 0 0 1-22 13l-5 9c5.3 2.6 11.3 3.3 17 2 1-5 5-9 10-9l4 1c4-4 6-10 7-16h-11zm0-35c3 0 6 3 6 6s-3 7-6 7-7-3-7-7 3-6 7-6z"/><circle class="os0" cx="343.5" cy="213" r="49.6"/><path class="os2" d="M344 263c-27.6 0-50-22.4-50-50s22.4-50 50-50 50 22.4 50 50-22.4 50-50 50zm0-99c-27.1 0-49 21.9-49 49s21.9 49 49 49 49-21.9 49-49-21.9-49-49-49z"/><path d="M320 190h11l-11 11v-11zm36 0h11v10l-11-10zm11 35v11h-11l11-11zm-36 11h-11v-11l5 5 6 6zm-10-32 5-5 11 11h-16v-6zm16 12-11 10-5-4v-6h16zm-27-3 8-7v15l-8-8zm40-3 11-11 4 5v6h-15zm16 12-5 4-11-10h16v6zm3-17 8 8-8 7v-15zm-23 15 12 11-5 5h-7v-16zm5 18-8 8-7-8h15zm-21-8 11-11v16h-7l-4-5zm16-24 11-10-4-5h-7v15zm5-18-8-8-7 8h15zm-21 7 11 11v-15h-7l-4 4z" style="fill-rule:evenodd;clip-rule:evenodd;fill:gray"/><g><circle class="os0" cx="754.7" cy="213" r="49.6"/><path id="svg-concept" class="os2" d="M755 263c-27.6 0-50-22.4-50-50s22.4-50 50-50 50 22.4 50 50-22.4 50-50 50zm0-99c-27.1 0-49 21.9-49 49s21.9 49 49 49 49-21.9 49-49-21.9-49-49-49z"/><animate accumulate="none" additive="replace" attributeName="opacity" begin="1s" calcMode="linear" dur="1s" fill="remove" repeatCount="indefinite" restart="always" values="0;1;0"/></g><path id="svg-ico" class="os1" d="M726 211v6l1 7 2 8c2.1 4.6 5.2 8.7 9 12l4 2 5-1-2-1h1-1v-1c0-1 0 0 0 0h-1v-1l-1-1h-2v-1l-1-1v-1l-1-1-3-3 1-1v1-1l-1-1v-1l-1-1v-1c0-1 0-1 0 0h1l-1-1-1-2v-1l-1 2-2-4h1l-1-1v-3l-1-1v-7c.4-2.3.7-4.7 1-7l1-2 1-2 1-2 4-4 4-2 1-1-1 1v-1l1-1 2-1h1l3-1-2 1h-1 1l2-1 1-1 2-1h2-1l-1 1h1l1-1h7l4 1 3 2 3 2 3 3 1 2 1 4 1 3c0 1 0 0 0 0v5l-1 3 1-1v2l-1 2h-1l-1 2h1-1v1l-2 1-3 3 1-1c1 0 0 0 0 0l-1 1h-1l-1 1h-1l-6 2-6-3-4-5v-5c0-1 0 0 0 0v-5l2-3 3-2 3-1 2-1 4 1 2 1 1 1h-1l-1-2-2-1-2-1h-3l-3 1-2 1-1 1-1 2-2 1v2l-1 2-1 6 1 3 1 2h1l-1-1 2 2 1 1 3 2h1-1c2.5 1.1 5.2 1.7 8 2h3l4-2 3-2 1-1 1-1 1-1-1 1h1v1-3l1-1 1 1v-3l1-1 1-2v-1c0-1 0 0 0 0v1-2 1h1l-1-1 1-1v-2s1 0 0 0l-1-2h1v-1l-1-1v-1 1h1l-1-2v-2h-1v-2l1 1v-1c.4 1.8 1.1 3.5 2 5l1 2-1-2-1-3h1l-1-3 1 2-1-4c-1.3-2.9-3.4-5.3-6-7l-2-1-2-1 1 1-2-1v-1h-3l-2-1-2-1-3-1v1l-2-1-1 1h-2 1-1l-1-1-2 1 1-1h1-4c0 1 0 0 0 0l-1 1-3 1-3 1-4 3v-1c0-1 0 0 0 0l-1 1-1 1-2 2-1 1-1 1v1h-1v1l-1 1v2l-1 1h-1c-1.2 2.9-2.2 5.9-3 9l1 1-1 4z"/><circle class="os0" cx="960.2" cy="213" r="49.6"/><path class="os2" d="M960 263c-27.6 0-50-22.4-50-50s22.4-50 50-50 50 22.4 50 50-22.4 50-50 50zm0-99c-27.1 0-49 21.9-49 49s21.9 49 49 49 49-21.9 49-49-21.9-49-49-49z"/><path class="os2" d="M935 192c3 0 5 1 7 3l16 18-16 18c-4 4-10 4-14 1v-1l16-18v-1c-5.4-6-10.7-12-16-18l7-2zm51 0c3 0 5 0 7 2v1l-8 9-8 9c-1 0 0 0 0 0l16 18v1c-5 3-11 3-15-1-5-6.4-10-12.7-15-19l16-17c1-2 4-3 7-3zm-41-8c3 0 5 2 7 4l8 8h1l8-8c3-4 9-4 13-1v1l-21 23h-1l-21-23v-1l6-3zm30 57-6-2-9-9-8 8c-3 4-9 4-13 1v-1l21-23h1l21 23v1c-2 2-4 2-7 2z"/><circle class="os0" cx="137.9" cy="213" r="49.6"/><path class="os2" d="M138 263c-27.6 0-50-22.4-50-50s22.4-50 50-50 50 22.4 50 50-22.4 50-50 50zm0-99c-27.1 0-49 21.9-49 49s21.9 49 49 49 49-21.9 49-49-21.9-49-49-49z"/><path class="os2" d="m109 235 24 3v-24h-24v21zm0-23h24v-23l-24 3v20zm26-24v24h32v-28l-32 4zm0 50 32 4v-28h-32v24z"/><g><path class="os0" d="M549 107c-58.3-5.7-110.1 37-115.8 95.2s37 110.1 95.2 115.8c6.8.7 13.7.7 20.6 0 58.3-5.7 100.9-57.5 95.2-115.8-4.9-50.4-44.8-90.3-95.2-95.2zm0 192c-47.8 0-86.5-38.7-86.5-86.5S501.2 126 549 126s86.5 38.7 86.5 86.5S596.8 299 549 299z"/><path class="os4" d="M503 308c-52.5-25.9-74-89.5-48-142a106.1 106.1 0 0 1 50-49m88 0c53.1 24.6 76.3 87.5 51.8 140.7A105.88 105.88 0 0 1 596 308"/><circle class="os4" cx="549.2" cy="212.6" r="86.2"/><path class="os4" d="M546 94v18c0 2-2 4-5 4h-64m-67 1h-49c-4 0-6-6-3-8L458 8l4-1h79c3 0 5 2 5 4v36m6 47v18c0 2 2 4 5 4h64m67 1h49c4 0 6-6 3-8L640 8l-4-1h-79c-3 0-5 2-5 4h0v37m-6 284v-18c0-3-2-5-5-5h-65m-66 0h-49c-4 0-6 5-3 8l100 100 4 2h79c3 0 5-2 5-5v-35m6-47v-18c0-3 2-5 5-5h65m67 0h48c4 0 6 5 3 8L640 417l-4 2h0-79c-3 0-5-2-5-5h0v-35"/><path id="svg-concept" d="M708 136h-66c-41.9-51.4-117.5-59-168.8-17.2-6.3 5.1-12 10.9-17.2 17.2h-66l88-87h142l88 87m0 154h-66c-41.9 51.4-117.5 59-168.8 17.2-6.3-5.1-12-10.9-17.2-17.2h-66l88 87h142l88-87" style="fill:none;stroke-width:3;stroke-linecap:round;stroke-linejoin:round;stroke-miterlimit:10"/><path id="svg-ico" class="os0" d="M523 356c0 3-2 6-6 6s-6-3-6-6 3-6 6-6 6 2 6 6zm33 0c0 3-3 6-7 6s-6-3-6-6 3-6 6-6 7 2 7 6zm32 0c0 3-3 6-7 6s-6-3-6-6 3-6 6-6 7 2 7 6z"/><animateMotion accumulate="none" additive="replace" begin="1s" calcMode="paced" dur="3s" fill="freeze" path="M0, 0 205 0 0" restart="always"/></g></svg>