<svg version="1.1" id="Layer_1" xmlns="http://www.w3.org/2000/svg" x="0" y="0" viewBox="0 0 693.4 556" style="enable-background:new 0 0 693.4 556" xml:space="preserve"><style>.performance0{fill:none;stroke:gray;stroke-miterlimit:10}</style><path class="performance0" d="M57.2 378.6a8 8 0 1 1-15.8 0 8 8 0 0 1 15.8 0z"/><g><path class="performance0" d="M57.5 315.9a8 8 0 1 1-7.9-7.9 8 8 0 0 1 7.9 7.9z"/><animate accumulate="none" additive="replace" attributeName="stroke" calcMode="linear" dur="1s" fill="freeze" restart="always" stroke="gray" values="#808080;#ee5486;#ee5486;#808080"/></g><g><path class="performance0" d="M71 254.7a8 8 0 1 1-7.9-7.9 8 8 0 0 1 7.9 7.9z"/><animate accumulate="none" additive="replace" attributeName="stroke" calcMode="linear" dur="1s" fill="freeze" restart="always" stroke="gray" values="#808080;#ee5486;#ee5486;#808080"/></g><g><path class="performance0" d="M95.8 198.2a8 8 0 1 1-7.9-7.9 8 8 0 0 1 7.9 7.9z"/><animate accumulate="none" additive="replace" attributeName="stroke" calcMode="linear" dur="1s" fill="freeze" restart="always" stroke="gray" values="#808080;#ee5486;#ee5486;#808080"/></g><g><path class="performance0" d="M132.7 148.3a8 8 0 1 1-7.9-7.9 8 8 0 0 1 7.9 7.9z"/><animate accumulate="none" additive="replace" attributeName="stroke" calcMode="linear" dur="2s" fill="freeze" restart="always" stroke="gray" values="#808080;#ee5486;#ee5486;#808080"/></g><g><path class="performance0" d="M179.1 107.3a8 8 0 1 1-7.9-7.9 8 8 0 0 1 7.9 7.9z"/><animate accumulate="none" additive="replace" attributeName="stroke" calcMode="linear" dur="2s" fill="freeze" restart="always" stroke="gray" values="#808080;#ee5486;#ee5486;#808080"/></g><g><path class="performance0" d="M232.3 76a8 8 0 1 1-15.8 0 8 8 0 0 1 15.8 0z"/><animate accumulate="none" additive="replace" attributeName="stroke" calcMode="linear" dur="2s" fill="freeze" restart="always" stroke="gray" values="#808080;#ee5486;#ee5486;#808080"/></g><g><path class="performance0" d="M291.7 57.5a8 8 0 1 1-7.9-7.9 8 8 0 0 1 7.9 7.9z"/><animate accumulate="none" additive="replace" attributeName="stroke" calcMode="linear" dur="2s" fill="freeze" restart="always" stroke="gray" values="#808080;#ee5486;#ee5486;#808080"/></g><g><path class="performance0" d="M353.1 51a8 8 0 1 1-7.9-7.9 8 8 0 0 1 7.9 7.9z"/><animate accumulate="none" additive="replace" attributeName="stroke" calcMode="linear" dur="3s" fill="freeze" restart="always" stroke="gray" values="#808080;#ee5486;#ee5486;#808080"/></g><g><path class="performance0" d="M414.3 57.5a8 8 0 1 1-15.8 0 8 8 0 0 1 15.8 0z"/><animate accumulate="none" additive="replace" attributeName="stroke" calcMode="linear" dur="3s" fill="freeze" restart="always" stroke="gray" values="#808080;#ee5486;#ee5486;#808080"/></g><g><path class="performance0" d="M473.2 76.4a8 8 0 1 1-7.9-7.9 8 8 0 0 1 7.9 7.9z"/><animate accumulate="none" additive="replace" attributeName="stroke" calcMode="linear" dur="3s" fill="freeze" restart="always" stroke="gray" values="#808080;#ee5486;#ee5486;#808080"/></g><g><path class="performance0" d="M526.8 107.7a8 8 0 1 1-7.9-7.9 8 8 0 0 1 7.9 7.9z"/><animate accumulate="none" additive="replace" attributeName="stroke" calcMode="linear" dur="3s" fill="freeze" restart="always" stroke="gray" values="#808080;#ee5486;#ee5486;#808080"/></g><g><path class="performance0" d="M573 148.7a8 8 0 1 1-7.9-7.9 8 8 0 0 1 7.9 7.9z"/><animate accumulate="none" additive="replace" attributeName="stroke" calcMode="linear" dur="3s" fill="freeze" restart="always" stroke="gray" values="#808080;#ee5486;#ee5486;#808080"/></g><path id="svg-ico" d="M609.4 199a8 8 0 1 1-7.9-7.9 8 8 0 0 1 7.9 7.9zm25.1 56.1a8 8 0 1 1-15.8 0 8 8 0 0 1 15.8 0zm12.9 60.9a8 8 0 1 1-15.8 0 8 8 0 0 1 15.8 0zm-.5 62.1a8 8 0 1 1-15.8 0 8 8 0 0 1 15.8 0z"/><g><path id="svg-concept" d="M300.1 179.5s35.6 50.9 37.5 139.6m-99-109.5s52.5 33.2 88.5 114.4m-133.5-63s61.2 10.6 125.6 71.7M172 324.6s60.6-13.4 143.4 18.8m-139 49.2s50.9-35.5 139.6-37.4M206.9 454s33.3-52.3 114.6-88.1M494 435.5s-60.9-10.7-124.8-72.3m147.2 7.6s-60.3 13.6-143.1-18.6m138.8-49.5s-50.6 35.7-139.3 37.7m109.7-98.1s-33.3 52.2-114.7 87.7m63.7-132.8s-11 61-72.7 124.9m7.8-146.9s13.2 60.7-19.2 143.3m-89.1 180.3s10.6-61.2 71.8-125.5m-7.3 147s-13.7-60.6 18.2-143.4m48.5 138.7S353.8 460.5 352 376m97.9 109.9s-52.3-33.4-88-114.7" style="fill:none;stroke-width:2;stroke-linecap:round;stroke-linejoin:round;stroke-miterlimit:10"/><animateTransform accumulate="none" additive="replace" attributeName="transform" begin="0s" calcMode="linear" dur="2s" fill="remove" from="0 343 350" repeatCount="indefinite" restart="always" to="360 347 345" type="rotate"/></g><path d="M345.2 8.1v19.4M6.6 311.5l19.4 2M6.6 382.7l19.3-2m-4.2-139.4 18.6 6.1M51 176.9l16.7 9.7m25.3-67 14.3 12.9m38.5-60.1L157.1 88M207 37.1l7.9 17.7m59.3-39.6 4 19.1M6.6 382.7c-1.2-11.5-1.8-35-1.8-35a339.6 339.6 0 1 1 677.4 34.7M4.8 347.1h8.9m-1.4-70.5 8.4 1.8m14-70.2 8.1 3.6m27.9-65.2 7.2 5.3m41-57.8 5.8 6.4M175.5 53l4.4 7.7m59.4-36 2.8 8.4m68.5-23.4.9 8.9m370.7 293-19.5 2.1m19.6 68.8-19.4-2.1m4.3-138.6-18.5 6.1m-10.3-70.4-16.9 9.8m-24.8-67-14.5 13m-38-60.3-11.5 15.8m-49.5-51.2-7.9 17.8m-59.1-39.7-4.1 19m272 312.4H675m1.7-70.2-8.8 1.9m-13.4-70-8.3 3.7m-27.5-65.2-7.2 5.4m-40.5-58-6 6.7m-50.4-47.7-4.5 7.8M451 25.1l-2.8 8.5M379.8 9.9l-.9 8.9" style="fill:none;stroke:gray;stroke-linecap:round;stroke-linejoin:round;stroke-miterlimit:10"/><path d="M356.8 360.1a17.4 17.4 0 0 1-24.8 0 17.5 17.5 0 1 1 24.8 0z" style="fill:none;stroke:gray;stroke-width:2;stroke-linecap:round;stroke-linejoin:round;stroke-miterlimit:10"/><g><path id="svg-concept" d="m155.3 378-35-4.5c-3.8-.5-4.4-5.8-.8-7.1l33.4-12.4" style="fill:none;stroke-width:3;stroke-linejoin:round;stroke-miterlimit:10"/><animateTransform accumulate="none" additive="replace" attributeName="transform" calcMode="linear" dur="2s" fill="freeze" from="0 346 348" restart="always" to="192 344 349" type="rotate"/></g><path id="svg-concept" d="m151.9 355.3-.1-7.6a192.5 192.5 0 1 1 .1 7.6" style="fill:none;stroke-width:3;stroke-linecap:round;stroke-linejoin:round;stroke-miterlimit:10"/></svg>