<svg xmlns="http://www.w3.org/2000/svg" xml:space="preserve" id="Layer_1" x="0" y="0" version="1.1" viewBox="0 0 1476 615"><style>.promo0{fill:none;stroke:#fff;stroke-linecap:round;stroke-linejoin:round;stroke-miterlimit:10;stroke-opacity:.35}.promo0,.promo1,.promo2{opacity:.15;enable-background:new}.promo2{opacity:.35;fill:none;stroke:#fff;stroke-linecap:round;stroke-linejoin:round;stroke-miterlimit:10}.promo3{opacity:.7}.promo3,.promo4,.st5{enable-background:new}.promo4{fill:none;stroke:#ee5586;stroke-linecap:round;stroke-linejoin:round;stroke-miterlimit:10;opacity:.35}.st5{opacity:.71}</style><path d="m35 462 58 58-58 58M0 490l28-28m0 116L0 549" class="promo0"/><path d="M32 586c-3 0-5-2-5-5s2-5 5-5 5 2 5 5-2 5-5 5zm0-123c-3 0-5-2-5-5s2-5 5-5 5 2 5 5-2 5-5 5zM0 367l28-28m0 116L0 426" class="promo0"/><path d="m35 339 58 58-58 58m0-239 58 58-58 58M0 244l28-28m0 116L0 303" class="promo0"/><path d="M32 340c-3 0-5-2-5-5s2-5 5-5 5 2 5 5-2 5-5 5zM0 613l28-28m7 0 31 30M32 217c-3 0-5-2-5-5s2-5 5-5 5 2 5 5-2 5-5 5zM0 121l28-28m0 116L0 180" class="promo0"/><path d="m35 93 58 58-58 58M66 0l27 28-58 58m-7 0L0 57" class="promo0"/><path d="M32 94c-3 0-5-2-5-5s2-5 5-5 5 3 5 5-2 5-5 5zm126 368 58 58-58 58m-49-74 42-42m0 116-42-43" class="promo0"/><path d="M155 586c-3 0-5-2-5-5s2-5 5-5 5 2 5 5-2 5-5 5zm0-123c-3 0-5-2-5-5s2-5 5-5 5 2 5 5-2 5-5 5zm-46-82 42-42m0 116-42-43" class="promo0"/><path d="m158 339 58 58-58 58m0-239 58 58-58 58m-49-74 42-42m0 116-42-43" class="promo0"/><path d="M155 340c-3 0-5-2-5-5s2-5 5-5 5 2 5 5-2 5-5 5zm-34 275 30-30m7 0 31 30m-34-398c-3 0-5-2-5-5s2-5 5-5 5 2 5 5-2 5-5 5zm-46-82 42-42m0 116-42-43" class="promo0"/><path d="m158 93 58 58-58 58M189 1l27 27-58 58m-49-74 12-11m30 85-42-43" class="promo0"/><path d="M155 94c-3 0-5-2-5-5s2-5 5-5 5 3 5 5-2 5-5 5zm126 368 58 58-58 58m-49-74 42-42m0 116-42-43" class="promo0"/><path d="M278 586c-3 0-5-2-5-5s2-5 5-5 5 2 5 5-2 5-5 5zm0-123c-3 0-5-2-5-5s2-5 5-5 5 2 5 5-2 5-5 5zm-46-82 42-42m0 116-42-43" class="promo0"/><path d="m281 339 58 58-58 58m0-239 58 58-58 58m-49-74 42-42m0 116-42-43" class="promo0"/><path d="M278 340c-3 0-5-2-5-5s2-5 5-5 5 2 5 5-2 5-5 5zm-34 275 30-30m7 0 31 30m-34-398c-3 0-5-2-5-5s2-5 5-5 5 2 5 5-2 5-5 5zm-46-82 42-42m0 116-42-43" class="promo0"/><path d="m281 93 58 58-58 58M312 1l27 27-58 58m-49-74 12-11m30 85-42-43" class="promo0"/><path d="M278 94c-3 0-5-2-5-5s2-5 5-5 5 3 5 5-2 5-5 5zm126 368 58 58-58 58m-49-74 42-42m0 116-42-43" class="promo0"/><path d="M401 586c-3 0-5-2-5-5s2-5 5-5 5 2 5 5-2 5-5 5zm0-123c-3 0-5-2-5-5s2-5 5-5 5 2 5 5-2 5-5 5zm-46-82 42-42m0 116-42-43" class="promo0"/><path d="m404 339 58 58-58 58m0-239 58 58-58 58m-49-74 42-42m0 116-42-43" class="promo0"/><path d="M401 340c-3 0-5-2-5-5s2-5 5-5 5 2 5 5-2 5-5 5zm-34 275 30-30m7 0 31 30m-34-398c-3 0-5-2-5-5s2-5 5-5 5 2 5 5-2 5-5 5zm-46-82 42-42m0 116-42-43" class="promo0"/><path d="m404 93 58 58-58 58M435 0l27 28-58 58m-49-74 12-11m30 85-42-43" class="promo0"/><path d="M401 94c-3 0-5-2-5-5s2-5 5-5 5 3 5 5-2 5-5 5zm126 368 58 58-58 58m-49-74 42-42m0 116-42-43" class="promo0"/><path d="M524 586c-3 0-5-2-5-5s2-5 5-5 5 2 5 5-2 5-5 5zm0-123c-3 0-5-2-5-5s2-5 5-5 5 2 5 5-2 5-5 5zm-46-82 42-42m0 116-42-43" class="promo0"/><path d="m527 339 58 58-58 58m0-239 58 58-58 58m-49-74 42-42m0 116-42-43" class="promo0"/><path d="M524 340c-3 0-5-2-5-5s2-5 5-5 5 2 5 5-2 5-5 5zm-34 275 30-30m7 0 31 30m-34-398c-3 0-5-2-5-5s2-5 5-5 5 2 5 5-2 5-5 5zm-46-82 42-42m0 116-42-43" class="promo0"/><path d="m527 93 58 58-58 58M558 1l27 27-58 58m-49-74 12-11m30 85-42-43" class="promo0"/><path d="M524 94c-3 0-5-2-5-5s2-5 5-5 5 3 5 5c0 3-2 5-5 5zm126 368 58 58-58 58m-49-74 42-42m0 116-42-43" class="promo0"/><path d="M647 586c-3 0-5-2-5-5s2-5 5-5 5 2 5 5-2 5-5 5zm0-123c-3 0-5-2-5-5s2-5 5-5 5 2 5 5-2 5-5 5zm-46-82 42-42m0 116-42-43" class="promo0"/><path d="m650 339 58 58-58 58m0-239 58 58-58 58m-49-74 42-42m0 116-42-43" class="promo0"/><path d="M647 340c-3 0-5-2-5-5s2-5 5-5 5 2 5 5-2 5-5 5zm-34 275 30-30m7 0 31 30m-34-398c-3 0-5-2-5-5s2-5 5-5 5 2 5 5-2 5-5 5zm-46-82 42-42m0 116-42-43" class="promo0"/><path d="m650 93 58 58-58 58M681 1l27 27-58 58m-49-74 12-11m30 85-42-43" class="promo0"/><path d="M647 94c-3 0-5-2-5-5s2-5 5-5 5 3 5 5c0 3-2 5-5 5zm126 368 58 58-58 58m-49-74 42-42m0 116-42-43" class="promo0"/><path d="M770 586c-3 0-5-2-5-5s2-5 5-5 5 2 5 5-2 5-5 5zm0-123c-3 0-5-2-5-5s2-5 5-5 5 2 5 5-2 5-5 5zm-46-82 42-42m0 116-42-43" class="promo0"/><path d="m773 339 58 58-58 58m0-239 58 58-58 58m-49-74 42-42m0 116-42-43" class="promo0"/><path d="M770 340c-3 0-5-2-5-5s2-5 5-5 5 2 5 5-2 5-5 5zm-34 275 30-30m7 0 31 30m-34-398c-3 0-5-2-5-5s2-5 5-5 5 2 5 5-2 5-5 5zm-46-82 42-42m0 116-42-43" class="promo0"/><path d="m773 93 58 58-58 58M804 1l27 27-58 58m-49-74 12-11m30 85-42-43" class="promo0"/><path d="M770 94c-3 0-5-2-5-5s2-5 5-5 5 3 5 5c0 3-2 5-5 5zm126 368 58 58-58 58m-49-74 42-42m0 116-42-43" class="promo0"/><path d="M893 586c-3 0-5-2-5-5s2-5 5-5 5 2 5 5-2 5-5 5zm0-123c-3 0-5-2-5-5s2-5 5-5 5 2 5 5-2 5-5 5zm-46-82 42-42m0 116-42-43" class="promo0"/><path d="m896 339 58 58-58 58m0-239 58 58-58 58m-49-74 42-42m0 116-42-43" class="promo0"/><path d="M893 340c-3 0-5-2-5-5s2-5 5-5 5 2 5 5-2 5-5 5zm-34 275 30-30m7 0 31 30m-34-398c-3 0-5-2-5-5s2-5 5-5 5 2 5 5-2 5-5 5zm-46-82 42-42m0 116-42-43" class="promo0"/><path d="m896 93 58 58-58 58M927 1l27 27-58 58m-49-74 12-12m30 86-42-43" class="promo0"/><path d="M893 94c-3 0-5-2-5-5s2-5 5-5 5 3 5 5c0 3-2 5-5 5zm126 368 58 58-58 58m-49-74 42-42m0 116-42-43" class="promo0"/><path d="M1016 586c-3 0-5-2-5-5s2-5 5-5 5 2 5 5-2 5-5 5zm0-123c-3 0-5-2-5-5s2-5 5-5 5 2 5 5-2 5-5 5zm-46-82 42-42m0 116-42-43" class="promo0"/><path d="m1019 339 58 58-58 58m0-239 58 58-58 58m-49-74 42-42m0 116-42-43" class="promo0"/><path d="M1016 340c-3 0-5-2-5-5s2-5 5-5 5 2 5 5-2 5-5 5zm-34 275 30-30m7 0 31 30m-34-398c-3 0-5-2-5-5s2-5 5-5 5 2 5 5-2 5-5 5zm-46-82 42-42m0 116-42-43" class="promo0"/><path d="m1019 93 58 58-58 58m31-208 27 27-58 58m-49-74 11-11m31 85-42-43" class="promo0"/><path d="M1016 94c-3 0-5-2-5-5s2-5 5-5 5 3 5 5-2 5-5 5zm126 368 58 58-58 58m-49-74 42-42m0 116-42-43" class="promo0"/><path d="M1139 586c-3 0-5-2-5-5s2-5 5-5 5 2 5 5-3 5-5 5zm0-123c-3 0-5-2-5-5s2-5 5-5 5 2 5 5-3 5-5 5zm-46-82 42-42m0 116-42-43" class="promo0"/><path d="m1142 339 58 58-58 58m0-239 58 58-58 58m-49-74 42-42m0 116-42-43" class="promo0"/><path d="M1139 340c-3 0-5-2-5-5s2-5 5-5 5 2 5 5-3 5-5 5zm-34 275 30-30m7 0 31 30m-34-398c-3 0-5-2-5-5s2-5 5-5 5 2 5 5-3 5-5 5zm-46-82 42-42m0 116-42-43" class="promo0"/><path d="m1142 93 58 58-58 58m31-208 27 27-58 58m-49-74 12-11m30 85-42-43" class="promo0"/><path d="M1139 94c-3 0-5-2-5-5s2-5 5-5 5 3 5 5-3 5-5 5zm126 368 58 58-58 58m-49-74 42-42m0 116-42-43" class="promo0"/><path d="M1262 586c-3 0-5-2-5-5s2-5 5-5c2 0 5 2 5 5s-3 5-5 5zm0-123c-3 0-5-2-5-5s2-5 5-5c2 0 5 2 5 5s-3 5-5 5zm-46-82 42-42m0 116-42-43" class="promo0"/><path d="m1265 339 58 58-58 58m0-239 58 58-58 58m-49-74 42-42m0 116-42-43" class="promo0"/><path d="M1262 340c-3 0-5-2-5-5s2-5 5-5c2 0 5 2 5 5s-3 5-5 5zm-35 275 31-30m7 0 31 30m-34-398c-3 0-5-2-5-5s2-5 5-5c2 0 5 2 5 5s-3 5-5 5zm-46-82 42-42m0 116-42-43" class="promo0"/><path d="m1265 93 58 58-58 58m31-208 27 27-58 58m-49-74 11-11m31 85-42-43" class="promo0"/><path d="M1262 94c-3 0-5-2-5-5s2-5 5-5c2 0 5 3 5 5 0 3-3 5-5 5zm126 368 58 58-58 58m-49-74 42-42m0 116-42-43" class="promo0"/><path d="M1385 586c-3 0-5-2-5-5s2-5 5-5c2 0 5 2 5 5s-3 5-5 5zm0-123c-3 0-5-2-5-5s2-5 5-5c2 0 5 2 5 5s-3 5-5 5zm-46-82 42-42m0 116-42-43" class="promo0"/><path d="m1388 339 58 58-58 58m0-239 58 58-58 58m-49-74 42-42m0 116-42-43" class="promo0"/><path d="M1385 340c-3 0-5-2-5-5s2-5 5-5c2 0 5 2 5 5s-3 5-5 5zm-35 275 31-30m7 0 31 30m-34-398c-3 0-5-2-5-5s2-5 5-5c2 0 5 2 5 5s-3 5-5 5zm-46-82 42-42m0 116-42-43" class="promo0"/><path d="m1388 93 58 58-58 58m31-208 27 27-58 58m-49-74 11-11m31 85-42-43" class="promo0"/><path d="M1385 94c-3 0-5-2-5-5s2-5 5-5c2 0 5 3 5 5 0 3-3 5-5 5z" class="promo0"/><g class="promo1"><path d="M636 41h-3l-1-1-1-5m26 6h-12M622 7h9" class="promo2"/><path d="m668 31-36 5s0 0 0 0l-4-24 1-1h42l1 1-4 18-1 1m-28-13v9m7-9v9m7-9v9m7-9v9m-15 16a5 5 0 1 1-5-4c3 0 5 2 5 4m21 0a5 5 0 1 1-5-4c3 0 5 2 5 4" class="promo2"/></g><g class="promo1"><path d="M451 225h-3l-1-5m25 5h-12m-23-33h9m37 23-35 6-1-1-3-24s0 0 0 0h43s0 0 0 0l-4 19c1 0 0 0 0 0m-29-13v10m8-10v10m7-10v10m7-10v10m-15 16a5 5 0 1 1-10 0 5 5 0 0 1 10 0m21 0a5 5 0 1 1-5-5c3 0 5 2 5 5" class="promo2"/></g><g class="promo3"><path id="svg-concept" d="M882 164h-3l-1-1v-5m25 6h-12m-23-34h9" class="promo4"/><path id="svg-concept" d="m914 154-36 5s0 0 0 0l-4-24 1-1h42l1 1-4 18v1m-29-13v9m7-9v9m7-9v9m7-9v9m-15 16a5 5 0 1 1-10 0 5 5 0 0 1 10 0m21 0c0 3-2 5-5 5s-4-2-4-5c0-2 2-4 4-4s5 2 5 4" class="promo4"/></g><g class="promo1"><path d="m54 19 2 2v29c0 2-1 3-2 3H10c-1 0-2-1-2-3V21l2-2" class="promo2"/><path d="M54 19 32 35 10 19" class="promo2"/><path d="M54 19 32 3 10 19m15 12L9 52m30-21 16 21" class="promo2"/></g><g class="promo1"><path d="m669 142 2 2v29c0 2-1 3-2 3h-44c-2 0-3-1-3-3v-29c0-1 1-2 3-2" class="promo2"/><path d="m669 142-22 16-22-16m44 0-22-16-22 16m15 12-16 20m30-20 16 20" class="promo2"/></g><g class="promo3"><path id="svg-concept" d="M361 81c2 0 3 1 3 2v29c0 1-1 2-3 2h-44l-2-2V83c0-2 1-3 2-3" class="promo4"/><path id="svg-concept" d="m361 81-22 16-22-17m44 1-22-17-22 16m15 12-16 21m30-21 16 21" class="promo4"/></g><g class="promo1"><path d="M238 204c2 0 3 1 3 2v29c0 1-1 2-3 2h-44l-2-2v-29l2-2" class="promo2"/><path d="m238 204-22 16-22-17m44 1-22-17-22 17m15 11-16 21m30-21 17 21" class="promo2"/></g><path d="M376 20c0-12 6-14 14-14 4 0 8 3 11 6 2-3 6-6 11-6 7 0 13 3 13 14s-24 29-24 29-25-18-25-29zM7 143c0-12 6-14 14-14 4 0 8 3 11 6 2-3 6-6 11-6 7 0 13 3 13 14 0 10-24 29-24 29S7 154 7 143zm923-62c0-11 6-13 13-13 5 0 9 2 11 6 3-4 7-6 11-6 8 0 14 2 14 13s-25 30-25 30-24-18-24-30z" class="promo0"/><g class="promo1"><path d="m1032 33-2 2-2-2 2-2 2 2z" class="promo2"/><circle cx="1015.7" cy="50.7" r="2.1" class="promo2"/><path d="m1040 40-2 2h-44c-2 0-3-1-3-2V27c0-2 1-3 3-3h44c1 0 2 1 2 3v13zm-8-28-2 2-2-2 2-2 2 2z" class="promo2"/><path d="M1040 18c0 2-1 3-2 3h-44c-2 0-3-1-3-3V5c0-1 1-2 3-2h44l2 2v13zm-24 27v4m-17 2h15m4 0h14" class="promo2"/></g><g class="promo3"><path id="svg-concept" d="m1278 156-2 2-2-2 2-2 2 2z" class="promo4"/><circle id="svg-concept" cx="1261.8" cy="173.7" r="2.1" class="promo4"/><path id="svg-concept" d="m1287 163-3 2h-44c-2 0-3-1-3-2v-14c0-1 1-2 3-2h44l3 2v14zm-9-28-2 2-2-2 2-2c1 0 2 0 2 2z" class="promo4"/><path id="svg-concept" d="m1287 141-3 3h-44c-2 0-3-2-3-3v-13c0-1 1-2 3-2h44l3 2v13zm-25 27v4m-16 2h14m4 0h14" class="promo4"/></g><g class="promo1"><path d="m749 51-2 2-2-2 2-2 2 2zm21-24v6m0 8v8m-3-34h-3m11 0h-2" class="promo2"/><circle cx="769.7" cy="13.3" r="11" class="promo2"/><path d="M783 32v5h-27v-5c0-2 3-5 5-5h17c3 0 5 3 5 5zM760 9l17-4m-29 45 9-9m33 10 2 2c2 0 2-1 2-2 1-1 0-2-2-2l-2 2zm-22 0 2 2 2-2-2-2-2 2zm23-1-9-9" class="promo2"/></g><g class="promo3"><path id="svg-concept" d="M1056 235c0 2-1 3-2 3s-2-1-2-3l2-2 2 2zm21-23v5m0 8v8m-3-34h-2m10 0h-2" class="promo4"/><circle id="svg-concept" cx="1077" cy="197.6" r="11" class="promo4"/><path id="svg-concept" d="M1090 217v4h-26v-4c0-3 2-5 5-5h17c2 0 4 2 4 4zm-23-24 17-4m-28 45 8-9m34 10c0 2 0 3 2 3s2-1 2-3l-2-2c-2 0-3 1-3 2zm-23 0c0 2 1 3 2 3s2-1 2-3l-2-2-2 2zm23-1-9-9" class="promo4"/></g><g class="promo1"><path d="m257 174-2 2-2-2 2-2 2 2zm21-24v6m0 8v8m-3-34h-3m11 0h-2" class="promo2"/><circle cx="277.8" cy="136.3" r="11" class="promo2"/><path d="M291 155v5h-27v-5c0-3 3-5 5-5h17c3 0 5 2 5 5zm-23-23 17-4m-28 45 8-9m33 10 2 2c2 0 3-1 3-2l-2-2c-2 0-3 1-3 2zm-22 0 2 2 2-2-2-2-2 2zm23-1-9-9" class="promo2"/></g><g class="promo1"><path d="m442 113-2 2c-2 0-3-1-3-2 0-2 1-3 3-3l2 3zm20-24v5m0 8v8m-2-34h-3m11 0h-3" class="promo2"/><circle cx="462.4" cy="74.8" r="11" class="promo2"/><path d="M476 94v5h-27v-5c0-3 2-5 5-5h17c3 0 5 2 5 5zm-23-23 16-5m-28 45 9-8m33 10 2 2 2-2c0-2-1-3-2-3l-2 3zm-23 0 2 2c2 0 3-1 3-2 0-2-1-3-2-3l-3 3zm24-2-9-8" class="promo2"/></g><g class="promo3"><path id="svg-concept" d="m900 42-2 2c-1 1-2 0-2-2l2-2 2 2zm9 0-2 2c-1 1-2 0-2-2 0-1 0-2 2-2l2 2zm-9-16-2 2-2-2 2-2 2 2zm9 0-2 2-2-2c0-1 0-2 2-2l2 2zm-9-17-2 2-2-2 2-2 2 2zm9 0-2 2-2-2c0-1 0-2 2-2l2 2z" class="promo4"/><path id="svg-concept" d="m916 3-3-2h-41l-2 2v45l2 2h41l3-2V3zm-40 15h34m-34 16h34m-26 16v4h-7v-4m32 0v4h-7v-4" class="promo4"/></g><g class="promo3"><path id="svg-concept" d="M531 165c0 2-1 3-2 3s-2-1-2-3l2-2 2 2zm9 0c0 2-1 3-2 3s-2-1-2-3l2-2 2 2zm-9-16-2 2-2-2 2-2c1 0 2 0 2 2zm9 0-2 2-2-2 2-2c1 0 2 0 2 2zm-9-17-2 2-2-2 2-2 2 2zm9 0-2 2-2-2 2-2 2 2z" class="promo4"/><path id="svg-concept" d="m547 126-3-2h-41l-2 2v45l2 2h41l3-2v-45zm-40 15h34m-34 16h34m-26 16v5h-7v-5m32 0v5h-7v-5" class="promo4"/></g><g class="promo1"><path d="m1207 104-2 2-2-2 2-2 2 2zm9 0-2 2-2-2 2-2 2 2zm-9-17-2 2-2-2 2-2 2 2zm9 0-2 2-2-2 2-2 2 2zm-9-16-2 2c-1 0-2-1-2-3l2-2c1 0 2 1 2 3zm9 0-2 2c-1 0-2-1-2-3l2-2c1 0 2 1 2 3z" class="promo2"/><path d="m1223 65-2-2h-41c-2 0-3 1-3 2v45c0 1 1 2 3 2h41l2-2V65zm-40 14h34m-34 16h34m-26 17v4h-7v-4m32 0v4h-7v-4" class="promo2"/></g><g class="promo3"><path id="svg-concept" d="m524 4-3 2c-2 1 0 2 0 2l-2 3-4 2-4-1 1-2 2-1V5m-7 5v7l-1 6-3 1-3 2m0 7 3-1 3 2h0l2 3h1l3 2h1v1l-1 2v2l1 2 1 1 3 1 3 4m17-45-3 4v3l-2 1-3 1-1 2-3 2-1 5-3 5v2l2 3 3-2 2 1v3l1 2v1l-1 2h-1l1 3 2 2 2-2 2-3 3-3 2-3 1-3v-2l-1-1v-1l2-1 1 3 3-1v-1l3-1" class="promo4"/><path id="svg-concept" d="M524 4a24 24 0 1 1 0 48 24 24 0 0 1 0-48z" class="promo4"/></g><g class="promo3"><path id="svg-concept" d="m340 188-3 3c-2 1 0 2 0 2l-3 2-3 2h-4v-3l3-1v-3m-7 5v6h-1l-1 7-2 1-4 1m1 8 3-2 3 2-1 1 3 3h1l2 1 1 1v1l-1 1v2l2 2 1 1 3 1 2 4m17-44-3 3 1 3h-1l-2 1-2 1-2 3-2 2-2 4-2 5v3l2 2 3-1 1 1 1 3 1 1v1l-1 2-1 1v2l3 3 2-2 1-3 4-4 2-2 1-4-1-2-1-1 1-1 2-1 1 3h2v-1l4-1" class="promo4"/><path id="svg-concept" d="M339 188c15 0 25 12 25 24a24 24 0 1 1-25-24z" class="promo4"/></g><g class="promo3"><path id="svg-concept" d="m155 127-3 2c-2 1 0 2 0 2l-2 3-4 2-4-1 1-2 2-2v-3m-7 5v7l-1 6-3 1-3 2m0 7 3-1 3 2h0l2 3h1l3 2h1v1l-1 2v2l1 2h1l3 2 3 4m17-45-4 4 1 2h0l-2 1-3 2-1 2-2 2-2 5-3 5v2l2 3 3-2 2 1v3l1 2v1l-1 2h-1l1 3 2 2 2-2 2-3 3-3 2-3 1-3v-2l-1-1v-1l2-2 1 4 3-1v-1h3" class="promo4"/><path id="svg-concept" d="M155 126c14 0 24 12 24 25a24 24 0 1 1-24-25z" class="promo4"/></g><g class="promo3"><path id="svg-concept" d="m1077 65-2 3c-2 1 0 2 0 2l-3 2-3 2h-4v-3l2-1 1-2-1-1m-6 4v7h-1l-1 7-3 1-3 1m1 8 3-2 3 2-1 1 3 3h0l3 1 1 1v1l-1 1v2l2 2v1l3 1 3 4m17-44-3 3 1 2-1 1-2 1-2 1-2 3-2 2-2 4-2 5v3l2 2 2-1 2 1v3l2 1-1 1-1 2h0v3l2 2 3-1 1-4 3-3 2-3 2-3-1-2-1-1 1-1 2-1 1 3h2v-1l3-1" class="promo4"/><path id="svg-concept" d="M1077 65c14 0 25 12 25 24a24 24 0 1 1-25-24z" class="promo4"/></g><g class="promo1"><path d="m1151 21-1 2-2-2 1-1 2 1zm0 14-1 1c-1 1-2 0-2-1l1-2c2 0 2 1 2 2zm8-26c0 4-9 7-20 7s-20-3-20-7 9-7 20-7 20 3 20 7z" class="promo2"/><path d="M1159 22c0 4-9 7-20 7s-20-3-20-7m40 14c0 3-9 6-20 6s-20-3-20-6m0 0V9m40 27V9m-19 42-2 2-2-2 2-2 2 2zm-2-6v4m-13 2h11m4 0h12" class="promo2"/></g><g class="promo1"><path d="m782 143-1 1-2-2 1-1 2 2zm0 13-1 2-2-2 1-2 2 2zm8-26c0 4-9 7-20 7s-20-3-20-7 9-7 20-7 20 3 20 7z" class="promo2"/><path d="M790 143c0 4-9 7-20 7s-20-3-20-7m40 14c0 3-9 6-20 6s-20-3-20-6m0 0v-27m40 27v-27m-19 42-2 2-2-2 2-2 2 2zm-2-6v4m-13 2h11m4 0h12" class="promo2"/></g><g class="promo1"><path d="m598 206-2 2-2-2 2-2 2 2zm0 13-2 2-2-2 2-1 2 1zm7-26c0 4-9 7-20 7s-20-3-20-7c0-3 9-6 20-6s20 3 20 6z" class="promo2"/><path d="M605 207c0 3-9 6-20 6s-20-3-20-6m40 13c0 4-9 7-20 7s-20-3-20-7m0 0v-27m40 27v-27m-18 43-2 2-2-2c0-2 0-3 2-3s2 1 2 3zm-2-7v5m-14 2h12m4 0h11" class="promo2"/></g><g class="promo1"><path d="m844 83-2 2-2-2 2-2 2 2zm0 13-2 2-2-2 2-1 2 1zm7-26c0 4-9 7-20 7s-20-3-20-7c0-3 9-6 20-6s20 3 20 6z" class="promo2"/><path d="M851 84c0 3-9 6-20 6s-20-3-20-6m40 13c0 4-9 7-20 7s-20-3-20-7m0 0V70m40 27V70m-18 43-2 2-2-2c0-2 0-3 2-3s2 1 2 3zm-2-7v5m-14 2h12m4 0h11" class="promo2"/></g><g class="promo1"><path d="m1403 34-2 2-2-2 2-2 2 2z" class="promo2"/><path d="m1409 39-2 2h-36l-2-2V28l2-2h36l2 2v11zm-36-22v-1c1-7 7-12 14-12h-1a13 13 0 0 1 9 22" class="promo2"/><path d="M1386 9c-4 0-7 3-8 7v1m-9-5a9 9 0 1 0 0 18m23 20-2 2-2-2c0-1 0-2 2-2l2 2zm-2-6v4m-14 2h12m4 0h11" class="promo2"/></g><g class="promo1"><path d="m1156 157-2 2-2-2 2-2c1 0 2 0 2 2z" class="promo2"/><path d="m1163 162-2 2h-36l-2-2v-11l2-2h36l2 2v11zm-36-22v-1c0-7 6-12 13-12h0a13 13 0 0 1 9 22" class="promo2"/><path d="M1140 132c-4 0-8 3-8 7v1m-9-5a9 9 0 1 0 0 18m22 20-2 2-2-2 2-2 2 2zm-2-6v4m-13 2h11m4 0h12" class="promo2"/></g><g class="promo1"><path d="M90 88v-6H76v6m0-9h14V66l-14 2zm16-13v13h19V63zm19 22v-6H92v6m16 8-2 2-2-2 2-2 2 2z" class="promo2"/><path d="m115 102-2 2H74l-2-2V90l2-2h39l2 2v12zm-20 11c0 2 0 3-2 3-1 0-2-1-2-3l2-2 2 2zm-2-6v4m-13 2h11m4 0h12" class="promo2"/></g><g class="promo3"><path id="svg-concept" d="M178 23h-47l-1 1v3l1 1h2v23l1 1h40l1-1V28h3l1-1v-3l-1-1zm-33 0 7-20m5 0 7 20m-19 11v14m19-14v14" class="promo4"/></g><g class="promo1"><path d="M424 146h-46l-2 1v3l1 1h3v23l1 1h40l1-1v-23h2l1-1v-3l-1-2zm-33 0 7-20m5 0 7 19m-19 12v13m19-13v13" class="promo2"/></g><g class="promo1"><path d="M1346 84h-46l-1 1v3l1 1h2v24l1 1h40l1-1V90h2l2-2v-3l-2-1zm-32 0 7-19m5 0 6 19m-18 11v14m18-14v14" class="promo2"/></g><g class="promo1"><path d="M287 25c-5 0-10 4-10 10m-12-7a12 12 0 0 0 0 23h22a17 17 0 0 0 0-33h0c-9 0-17 6-17 17" class="promo2"/><circle cx="265.5" cy="10.8" r="2.1" class="promo2"/><path d="m264 28-1-3c0-4 2-7 5-7s5 3 6 6" class="promo2"/><circle cx="271.1" cy="10.8" r="2.1" class="promo2"/><path d="m266 15 2 1 3-1" class="promo2"/><path d="m279 20-4-9v0a7 7 0 0 0-13 0v0c0 5-11 15-9 18" class="promo2"/></g><g class="promo1"><path d="M594 87c-5 0-10 4-10 9m-11-6a12 12 0 0 0 0 23h21a17 17 0 0 0 0-33h0c-8 0-16 6-16 16" class="promo2"/><circle cx="573.1" cy="72.3" r="2.1" class="promo2"/><path d="M571 90v-4c0-3 2-6 5-6s5 2 5 6" class="promo2"/><circle cx="578.7" cy="72.3" r="2.1" class="promo2"/><path d="m573 76 3 1 3-1" class="promo2"/><path d="M587 81c-2-3-5-6-5-8v-1a7 7 0 0 0-13 0v1c0 4-10 15-9 17" class="promo2"/></g><g class="promo3"><path id="svg-concept" d="m1260 12-6 2c-3-4-7-5-12-4l-1 1v1c2 2 3 5 3 7l-3 5h-1c-2 0-4 1-4 3v7c0 2 2 3 4 3h3l2 3v8c0 2 1 3 3 3h4c2 0 3-1 3-3v-3c6 2 12 2 18 0v3c0 2 1 3 3 3h3c2 0 4-1 4-3v-9c3-3 4-6 4-10 0-6-5-12-12-15" class="promo4"/><circle id="svg-concept" cx="1267.6" cy="9.6" r="5.5" class="promo4"/></g><g class="promo1"><path d="m1014 135-6 1c-3-3-7-5-12-3l-1 1v1c3 2 4 4 3 7l-3 5h-1c-2 0-4 1-4 3v7c0 2 2 3 4 3h3l2 3v8c0 2 1 3 3 3h4c2 0 3-1 3-3v-3c6 2 12 1 18 0v3c0 2 1 3 3 3h3c2 0 4-1 4-3v-9c3-3 4-6 4-10 0-6-5-12-12-15" class="promo2"/><circle cx="1021.7" cy="132.6" r="5.5" class="promo2" transform="rotate(-81 1022 133)"/></g><g class="promo3"><path id="svg-concept" d="m706 74-5 1c-3-4-7-5-13-4l-1 1 1 1c2 3 3 5 3 8l-3 4h-2l-3 3v8l3 3h4l2 2v8c0 2 1 4 3 4h3c2 0 4-2 4-4v-2c5 1 12 1 17-1v4c0 1 2 3 4 3h3c2 0 3-2 3-4v-8c3-3 5-7 5-10 0-7-5-12-12-15" class="promo4"/><circle id="svg-concept" cx="714.3" cy="71.1" r="5.5" class="promo4"/></g><g class="promo1"><path d="M216 73v5m-18 7h36v28h-36zm18 0v28m-17-14h35m-27-21-2-4a6 6 0 1 1 11 0m0-1c0-4 3-8 7-8s8 4 8 8l-2 5m-35 0h44" class="promo2"/></g><g class="promo1"><path d="M1393 148c-5 0-10 4-10 10m-12-7a12 12 0 0 0 0 23h22a17 17 0 0 0 0-33h0c-9 0-17 6-17 17" class="promo2"/><circle cx="1371.7" cy="133.5" r="2.1" class="promo2"/><path d="m1370 151-1-3c0-4 2-7 5-7s6 3 6 6" class="promo2"/><circle cx="1377.3" cy="133.5" r="2.1" class="promo2"/><path d="m1372 137 3 1 2-1" class="promo2"/><path d="m1385 143-4-9v0a7 7 0 0 0-13 0v0c0 5-10 15-9 17" class="promo2"/></g><g class="promo1"><path d="M636 285h-3l-1-1-1-5m26 6h-12m-23-34h9" class="promo2"/><path d="m668 275-36 5v-1l-4-24s0 0 0 0h43l1 1-4 18h-1m-28-13v10m7-10v10m7-10v10m7-10v10m-15 16a5 5 0 1 1-10 0 5 5 0 0 1 10 0m21 0a5 5 0 1 1-10 0 5 5 0 0 1 10 0" class="promo2"/></g><g class="st5"><path id="svg-concept" d="M882 408h-3l-1-1v-5m25 6h-12m-23-34h9" class="promo4"/><path id="svg-concept" d="m914 398-36 5v-1l-4-24h43l1 1-4 18s0 0 0 0m-29-13v10m7-10v10m7-10v10m7-10v10m-15 16a5 5 0 1 1-5-5c3 0 5 2 5 5m21 0c0 3-2 5-5 5s-4-3-4-5a5 5 0 0 1 9 0" class="promo4"/></g><g class="promo1"><path d="m54 263 2 2v29l-2 2H10l-2-2v-29l2-2" class="promo2"/><path d="m54 263-22 16-22-16m44 0-22-17-22 17m15 11L9 295m30-21 16 21" class="promo2"/></g><g class="promo1"><path d="m669 386 2 2v29l-2 2h-44c-2 0-3-1-3-2v-29c0-1 1-2 3-2" class="promo2"/><path d="m669 386-22 16-22-16m44 0-22-17-22 17m15 11-16 21m30-21 16 21" class="promo2"/></g><g class="st5"><path id="svg-concept" d="M361 324c2 0 3 1 3 2v29c0 2-1 3-3 3h-44c-1 0-2-1-2-3v-29l2-2" class="promo4"/><path id="svg-concept" d="m361 324-22 16-22-16m44 0-22-16-22 16m15 12-16 21m30-21 16 21" class="promo4"/></g><g class="promo1"><path d="M976 204c2 0 3 1 3 2v29c0 1-1 2-3 2h-44l-2-2v-29l2-2" class="promo2"/><path d="m976 204-22 16-22-17m44 1-22-17-22 17m15 11-16 21m30-21 16 21" class="promo2"/></g><path d="M376 263c0-11 6-13 14-13 4 0 8 2 11 6 2-4 6-6 11-6 7 0 13 3 13 13 0 11-24 30-24 30s-25-18-25-30zm431-59c0-11 6-13 13-13 5 0 9 2 11 6 3-4 7-6 11-6 8 0 14 2 14 13s-25 30-25 30-24-19-24-30zM7 386c0-11 6-13 14-13 4 0 8 2 11 6 2-4 6-6 11-6 7 0 13 3 13 13 0 11-24 30-24 30S7 398 7 386zm923-61c0-12 6-14 13-14 5 0 9 3 11 6 3-3 7-6 11-6 8 0 14 3 14 14 0 10-25 29-25 29s-24-18-24-29z" class="promo0"/><g class="promo1"><path d="m1032 277-2 2-2-2 2-2 2 2z" class="promo2"/><circle cx="1015.7" cy="294.3" r="2.1" class="promo2"/><path d="m1040 283-2 3h-44c-2 0-3-2-3-3v-13c0-1 1-2 3-2h44l2 2v13zm-8-28-2 2c-1 0-2 0-2-2l2-2 2 2z" class="promo2"/><path d="m1040 262-2 2h-44c-2 0-3-1-3-2v-13c0-2 1-3 3-3h44c1 0 2 1 2 3v13zm-24 27v3m-17 2h15m4 0h14" class="promo2"/></g><g class="promo3"><path id="svg-concept" d="M725 218c0 1-1 2-3 2-1 0-2-1-2-3s1-2 2-2c1 1 2 1 2 3z" class="promo4"/><circle id="svg-concept" cx="708.2" cy="235.1" r="2.1" class="promo4"/><path id="svg-concept" d="M733 224c0 1-1 2-3 2h-44c-1 1-3-1-3-2v-13l3-2h44c2 0 3 1 3 2v13zm-8-28c0 1-1 2-3 2l-2-2 2-2 2 2z" class="promo4"/><path id="svg-concept" d="M733 203c0 1-1 2-3 2h-44l-3-2v-13c0-2 2-3 3-3h44c2 0 3 1 3 3v13zm-25 26v4m-16 2h14m4 0h14" class="promo4"/></g><g class="st5"><path id="svg-concept" d="m1278 400-2 2-2-2 2-2 2 2z" class="promo4"/><circle id="svg-concept" cx="1261.8" cy="417.2" r="2.1" class="promo4"/><path id="svg-concept" d="m1287 406-3 3h-44c-2 0-3-2-3-3v-13c0-1 1-2 3-2h44l3 2v13zm-9-28-2 2c-1 0-2 0-2-2l2-2 2 2z" class="promo4"/><path id="svg-concept" d="m1287 385-3 2h-44c-2 0-3-1-3-2v-13c0-2 1-3 3-3h44c1 0 3 1 3 3v13zm-25 27v3m-16 2h14m4 0h14" class="promo4"/></g><g class="promo1"><path d="m749 295-2 2-2-2 2-2 2 2zm21-24v6m0 7v9m-3-35h-3m11 0h-2" class="promo2"/><circle cx="769.7" cy="256.9" r="11" class="promo2"/><path d="M783 276v5h-27v-5c0-3 3-5 5-5h17c3 0 5 2 5 5zm-23-23 17-5m-29 45 9-8m33 10 2 2c2 0 2-1 2-2 1-1 0-2-2-2s-2 1-2 2zm-22 0 2 2 2-2-2-2-2 2zm23-2-9-8" class="promo2"/></g><g class="promo1"><path d="m257 418-2 2-2-2 2-2c1 0 2 0 2 2zm21-24v5m0 8v9m-3-35h-3m11 0h-2" class="promo2"/><circle cx="277.8" cy="379.9" r="11" class="promo2"/><path d="M291 399v5h-27v-5c0-3 3-5 5-5h17c3 0 5 2 5 5zm-23-23 17-4m-28 44 8-8m33 10 2 2c2 0 3-1 3-2l-2-2c-2 0-3 0-3 2zm-22 0 2 2 2-2-2-2c-1 0-2 0-2 2zm23-2-9-8" class="promo2"/></g><g class="promo1"><path d="m442 356-2 2c-2 0-3-1-3-2s1-2 3-2l2 2zm20-23v5m0 8v8m-2-34h-3m11 0h-3" class="promo2"/><circle cx="462.4" cy="318.4" r="11" class="promo2"/><path d="M476 337v5h-27v-5c0-2 2-5 5-5h17c3 1 5 3 5 5zm-23-23 16-4m-28 45 9-9m33 10 2 2 2-2-2-2-2 2zm-23 0 2 2c2 0 3-1 3-2l-2-2-3 2zm24-1-9-9" class="promo2"/></g><g class="promo3"><path id="svg-concept" d="m900 286-2 2-2-2 2-2 2 2zm9 0-2 2-2-2c0-1 0-2 2-2l2 2zm-9-17-2 2c-1 0-2 0-2-2l2-2 2 2zm9 0-2 2c-1 0-2 0-2-2 0-1 0-2 2-2l2 2zm-9-16-2 2c-1 0-2-1-2-3l2-2c1 1 2 1 2 3zm9 0-2 2c-1 0-2-1-2-3 0-1 0-2 2-2 1 1 2 1 2 3z" class="promo4"/><path id="svg-concept" d="m916 247-3-2h-41l-2 2v45l2 2h41l3-2v-45zm-40 14h34m-34 16h34m-26 17v4h-7v-4m32 0v4h-7v-4" class="promo4"/></g><g class="st5"><path id="svg-concept" d="m531 409-2 2-2-2 2-2 2 2zm9 0-2 2-2-2 2-2 2 2zm-9-17-2 2-2-2 2-2 2 2zm9 0-2 2-2-2 2-2 2 2zm-9-16-2 2-2-2c0-2 1-3 2-3l2 2zm9 0-2 2-2-2c0-2 1-3 2-3l2 2z" class="promo4"/><path id="svg-concept" d="M547 370c0-2-2-3-3-3h-41l-2 3v45l2 2h41l3-2v-45zm-40 14h34m-34 16h34m-26 17v4h-7v-4m32 0v4h-7v-4" class="promo4"/></g><g class="promo1"><path d="m1207 348-2 2-2-2c0-2 1-3 2-3l2 2zm9 0-2 2-2-2c0-2 1-3 2-3l2 2zm-9-17-2 2-2-2 2-2 2 2zm9 0-2 2-2-2 2-2 2 2zm-9-17-2 2-2-2 2-2 2 2zm9 0-2 2-2-2 2-2 2 2z" class="promo2"/><path d="m1223 308-2-2h-41c-2 0-3 1-3 2v45c0 2 1 3 3 3h41c1 0 2-1 2-3v-45zm-40 15h34m-34 16h34m-26 17v4h-7v-4m32 0v4h-7v-4" class="promo2"/></g><g class="promo3"><path id="svg-concept" d="m524 247-3 3c-2 1 0 2 0 2l-2 2-4 2h-4l1-3 2-1v-3m-7 5v6h0l-1 7-3 1-3 1m0 8 3-2 3 2v1l2 3h1l3 1 1 1v1l-1 2v1l1 2 1 1 3 1 3 4m17-44-3 3v3h0l-2 1-3 1-1 3-3 2-1 4-3 5v3l2 2 3-1 2 1v3l1 1v1l-1 2-1 1 1 2 2 2 2-1 2-4 3-3 2-2 1-4v-2l-1-1v-1l2-1 1 3h3v-1l3-1" class="promo4"/><path id="svg-concept" d="M524 247c14 0 24 12 24 24a24 24 0 1 1-24-24z" class="promo4"/></g><g class="st5"><path id="svg-concept" d="m155 370-3 3c-2 1 0 2 0 2l-2 2-4 2h-4l1-3 2-1v-3m-7 4v7h0l-1 7-3 1-3 1m0 8 3-2 3 2v1l2 3h1l3 1 1 1v1l-1 2v1l1 2 1 1 3 1 3 4m17-44-4 3 1 3h0l-2 1-3 1-1 3-2 2-2 4-3 5v3l2 2 3-1 2 1v3l1 1v1l-1 2-1 1 1 2 2 2 2-1 2-4 3-3 2-2 1-4v-2l-1-1v-1l2-1 1 3h3v-1l3-1" class="promo4"/><path id="svg-concept" d="M155 370c14 0 24 12 24 24a24 24 0 1 1-24-24z" class="promo4"/></g><g class="st5"><path id="svg-concept" d="m1077 309-2 2c-2 1 0 2 0 2l-3 3-3 2-4-1v-2l2-1 1-2-1-1m-6 4v6l-1 1-1 6-3 1-3 2m1 7 3-1 3 2h-1l3 3h0l3 2h1v1l-1 2v2l2 2h0l3 2 3 4m17-45-3 4 1 2-1 1-2 1-2 1-2 2-2 2-2 5-2 5v2l2 3 2-2 2 1v3l2 2-1 1-1 2h0v3l2 2 3-2 1-3 3-3 2-3 2-3-1-2-1-1 1-1 2-2 1 4 2-1v-1h3" class="promo4"/><path id="svg-concept" d="M1077 309c14 0 25 11 25 24a24 24 0 1 1-25-24z" class="promo4"/></g><g class="promo1"><path d="m1151 265-1 2-2-2 1-2c2 0 2 1 2 2zm0 13-1 2-2-2 1-1 2 1zm8-25c0 3-9 6-20 6s-20-3-20-6c0-4 9-7 20-7s20 3 20 7z" class="promo2"/><path d="M1159 266c0 3-9 6-20 6s-20-3-20-6m40 13c0 4-9 7-20 7s-20-3-20-7m0 0v-27m40 27v-27m-19 43-2 2-2-2 2-2 2 2zm-2-6v4m-13 2h11m4 0h12" class="promo2"/></g><g class="promo1"><path d="m782 386-1 2-2-2 1-2 2 2zm0 14-1 1-2-2 1-1 2 2zm8-26c0 3-9 6-20 6s-20-3-20-6c0-4 9-7 20-7s20 3 20 7z" class="promo2"/><path d="M790 387c0 4-9 7-20 7s-20-3-20-7m40 13c0 4-9 7-20 7s-20-3-20-7m0 0v-26m40 26v-26m-19 42-2 2-2-2 2-2 2 2zm-2-6v4m-13 2h11m4 0h12" class="promo2"/></g><g class="promo1"><path d="m844 327-2 1-2-2 2-1 2 2zm0 13-2 2-2-2 2-2 2 2zm7-26c0 4-9 7-20 7s-20-3-20-7 9-7 20-7 20 3 20 7z" class="promo2"/><path d="M851 327c0 4-9 7-20 7s-20-3-20-7m40 14c0 3-9 6-20 6s-20-3-20-6m0 0v-27m40 27v-27m-18 42-2 2-2-2c0-1 0-2 2-2s2 1 2 2zm-2-6v4m-14 2h12m4 0h11" class="promo2"/></g><g class="promo1"><path d="m1403 277-2 2c-1 0-2 0-2-2l2-2 2 2z" class="promo2"/><path d="m1409 283-2 2h-36l-2-2v-11l2-2h36l2 2v11zm-36-23v-1c1-7 7-12 14-12h-1a13 13 0 0 1 9 23" class="promo2"/><path d="M1386 252c-4 1-7 4-8 8v0m-9-5a9 9 0 1 0 0 19m23 19-2 2c-1 1-2 0-2-2 0-1 0-2 2-2l2 2zm-2-6v4m-14 2h12m4 0h11" class="promo2"/></g><g class="promo1"><path d="m1156 400-2 2c-1 0-2 0-2-2l2-2 2 2z" class="promo2"/><path d="m1163 406-2 2h-36l-2-2v-11l2-2h36l2 2v11zm-36-23v-1c0-7 6-12 13-12h0a13 13 0 0 1 9 23" class="promo2"/><path d="M1140 375c-4 0-8 4-8 8v0m-9-5a9 9 0 1 0 0 19m22 19-2 2c-1 1-2 0-2-2l2-2 2 2zm-2-6v4m-13 2h11m4 0h12" class="promo2"/></g><g class="promo1"><path d="M90 332v-7H76v7m0-9h14v-14l-14 2zm16-14v14h19v-16zm19 23v-7H92v7m16 8-2 2-2-2 2-2 2 2z" class="promo2"/><path d="m115 345-2 2H74c-1 1-2 0-2-2v-11l2-2h39l2 2v11zm-20 12c0 1 0 2-2 2l-2-2 2-2c2 0 2 1 2 2zm-2-6v4m-13 2h11m4 0h12" class="promo2"/></g><g class="promo3"><path id="svg-concept" d="M178 266h-47l-1 1v4l1 1h2v23l1 1h40l1-1v-23h3l1-1v-4l-1-1zm-33 0 7-19m5 0 7 19m-19 11v14m19-14v14" class="promo4"/></g><g class="promo1"><path d="M424 389h-46l-2 1v3l1 2h3v23l1 1h40l1-1v-23h2l1-2v-3l-1-1zm-33 0 7-19m5 0 7 19m-19 11v14m19-14v14" class="promo2"/></g><g class="promo1"><path d="M1346 328h-46l-1 1v3l1 1h2v23l1 1h40l1-1v-23h2l2-1v-3l-2-1zm-32 0 7-20m5 0 6 20m-18 11v14m18-14v14" class="promo2"/></g><g class="promo1"><path d="M287 269c-5 0-10 4-10 10m-12-7a12 12 0 0 0 0 23h22a17 17 0 0 0 0-33h0c-9 0-17 6-17 16" class="promo2"/><circle cx="265.5" cy="254.4" r="2.1" class="promo2"/><path d="m264 272-1-3c0-4 2-7 5-7s5 2 6 6" class="promo2"/><circle cx="271.1" cy="254.4" r="2.1" class="promo2"/><path d="m266 258 2 1 3-1" class="promo2"/><path d="m279 263-4-8v-1a7 7 0 0 0-13 0v1c0 4-11 15-9 17" class="promo2"/></g><g class="promo1"><path d="M102 210c-5 0-10 4-10 10m-11-7a12 12 0 0 0 0 23h21a17 17 0 0 0 0-33h0c-8 0-16 6-16 17" class="promo2"/><circle cx="81.1" cy="195.8" r="2.1" class="promo2"/><path d="M79 213v-3c0-4 2-7 5-7s5 3 5 6" class="promo2"/><circle cx="86.7" cy="195.8" r="2.1" class="promo2"/><path d="m81 200 3 1 3-1" class="promo2"/><path d="m95 205-5-9v0a7 7 0 0 0-13 0v0c0 5-10 15-9 18" class="promo2"/></g><g class="promo1"><path d="M594 330c-5 0-10 4-10 10m-11-7a12 12 0 0 0 0 23h21a17 17 0 0 0 0-33h0c-8 0-16 6-16 17" class="promo2"/><circle cx="573.1" cy="315.9" r="2.1" class="promo2"/><path d="M571 333v-3c0-4 2-7 5-7s5 3 5 6" class="promo2"/><circle cx="578.7" cy="315.9" r="2.1" class="promo2"/><path d="m573 320 3 1 3-1" class="promo2"/><path d="m587 325-5-9v0a7 7 0 0 0-13 0v0c0 5-10 15-9 18" class="promo2"/></g><g class="promo3"><path id="svg-concept" d="m1260 256-6 1c-3-4-7-5-12-4l-1 1v1c2 3 3 5 3 8l-3 4h-1c-2 0-4 2-4 4v7c0 1 2 3 4 3h3l2 2v9c0 1 1 3 3 3h4c2 0 3-2 3-3v-3c6 1 12 1 18-1v4c0 1 1 3 3 3h3c2 0 4-2 4-3v-9c3-3 4-7 4-10 0-7-5-12-12-15" class="promo4"/><circle id="svg-concept" cx="1267.6" cy="253.2" r="5.5" class="promo4"/></g><g class="promo1"><path d="m1014 379-6 1c-3-4-7-5-12-4l-1 1v1c3 3 4 5 3 8l-3 4h-1c-2 0-4 2-4 3v8c0 1 2 3 4 3h3l2 2v8c0 2 1 4 3 4h4c2 0 3-2 3-3v-3c6 1 12 1 18-1v4c0 1 1 3 3 3h3c2 0 4-2 4-4v-8c3-3 4-7 4-10 0-7-5-12-12-15" class="promo2"/><circle cx="1021.7" cy="376.2" r="5.5" class="promo2" transform="rotate(-81 1022 376)"/></g><g class="st5"><path id="svg-concept" d="m706 317-5 2c-3-4-7-5-13-4l-1 1 1 1c2 2 3 5 3 7-1 1-3 3-3 5h-2c-1 0-3 1-3 3v7c0 2 2 3 3 3h4l2 3v8c0 2 1 3 3 3h3c2 0 4-1 4-3v-3c5 2 12 2 17 0v3c0 2 2 3 4 3h3c2 1 3-1 3-3v-9c3-3 5-6 5-10 0-6-5-12-12-15" class="promo4"/><circle id="svg-concept" cx="714.3" cy="314.7" r="5.5" class="promo4"/></g><g class="promo1"><path d="M216 316v6m-18 7h36v28h-36zm18 0v28m-17-14h35m-27-21-2-4a6 6 0 1 1 11 0m0-2c0-4 3-7 7-7s8 3 8 7l-2 6m-35 0h44" class="promo2"/></g><g class="promo1"><path d="M1393 391c-5 0-10 4-10 10m-12-6a12 12 0 0 0 0 23h22a17 17 0 0 0 0-33h0c-9 0-17 5-17 16" class="promo2"/><circle cx="1371.7" cy="377" r="2.1" class="promo2"/><path d="m1370 395-1-4c0-3 2-6 5-6s6 2 6 6" class="promo2"/><circle cx="1377.3" cy="377" r="2.1" class="promo2"/><path d="m1372 381 3 1 2-1" class="promo2"/><path d="M1385 386c-2-3-4-6-4-9v0a7 7 0 0 0-13 0v0c0 5-10 15-9 18" class="promo2"/></g><g class="promo1"><path d="M636 530h-3l-1-1-1-5m26 6h-12m-23-34h9" class="promo2"/><path d="m668 519-36 6v-1l-4-24s0 0 0 0h44l-4 19h-1m-28-13v10m7-10v10m7-10v10m7-10v10m-15 16a5 5 0 1 1-5-5c3 0 5 2 5 5m21 0a5 5 0 1 1-5-5c3 0 5 2 5 5" class="promo2"/></g><g class="promo1"><path d="M1312 226h-3v-1l-1-5m25 6h-12m-23-34h9" class="promo2"/><path d="m1344 216-36 5v-1l-4-23 1-1h42l1 1-4 18v1m-29-14v10m7-10v10m7-10v10m7-10v10m-15 16a5 5 0 1 1-9 0 5 5 0 0 1 9 0m22 0a5 5 0 1 1-10 0 5 5 0 0 1 10 0" class="promo2"/></g><g class="promo1"><path d="m54 508 2 2v29l-2 2H10l-2-2v-29l2-2" class="promo2"/><path d="m54 508-22 16-22-16m44 0-22-17-22 17m15 11L9 540m30-21 16 21" class="promo2"/></g><g class="st5"><path id="svg-concept" d="M361 569c2 0 3 1 3 2v29c0 2-1 3-3 3h-44c-1 0-2-1-2-3v-29l2-2" class="promo4"/><path id="svg-concept" d="m361 569-22 16-22-16m44 0-22-16-22 16m15 12-16 21m30-21 16 21" class="promo4"/></g><path d="M376 508c0-11 6-13 14-13 4 0 8 2 11 6 2-4 6-6 11-6 7 0 13 3 13 13 0 11-24 30-24 30s-25-18-25-30zm554 62c0-12 6-14 13-14 5 0 9 3 11 6 3-3 7-6 11-6 8 0 14 3 14 14s-25 29-25 29-24-18-24-29z" class="promo0"/><g class="promo1"><path d="m1032 522-2 2-2-2 2-2 2 2z" class="promo2"/><circle cx="1015.7" cy="539.2" r="2.1" class="promo2"/><path d="M1040 528c0 2-1 3-2 3h-44c-2 0-3-1-3-3v-13c0-1 1-2 3-2h44l2 2v13zm-8-28-2 2-2-2 2-2 2 2z" class="promo2"/><path d="m1040 507-2 2h-44c-2 0-3-1-3-2v-13c0-2 1-3 3-3h44c1 0 2 1 2 3v13zm-24 27v3m-17 2h15m4 0h14" class="promo2"/></g><g class="promo1"><path d="m749 540-2 2-2-2 2-2 2 2zm21-24v5m0 8v9m-3-35h-3m11 0h-2" class="promo2"/><circle cx="769.7" cy="501.9" r="11" class="promo2"/><path d="M783 521v5h-27v-5c0-3 3-5 5-5h17c3 0 5 2 5 5zm-23-23 17-4m-29 44 9-8m33 10 2 2c2 0 2-1 2-2 1-1 0-2-2-2l-2 2zm-22 0 2 2 2-2-2-2-2 2zm23-2-9-8" class="promo2"/></g><g class="promo1"><path d="m442 601-2 2c-2 0-3-1-3-2s1-2 3-2l2 2zm20-24v6m0 8v8m-2-34h-3m11 0h-3" class="promo2"/><circle cx="462.4" cy="563.4" r="11" class="promo2"/><path d="M476 582v5h-27v-5c0-2 2-5 5-5h17c3 0 5 3 5 5zm-23-23 16-4m-28 45 9-9m33 10 2 2 2-2-2-2-2 2zm-23 0 2 2c2 0 3-1 3-2l-2-2c-2 0-3 1-3 2zm24-1-9-9" class="promo2"/></g><g class="st5"><path id="svg-concept" d="m900 531-2 2-2-2 2-2 2 2zm9 0-2 2-2-2c0-1 0-2 2-2l2 2zm-9-17-2 2-2-2 2-2 2 2zm9 0-2 2-2-2c0-1 0-2 2-2l2 2zm-9-16-2 2-2-2c0-2 1-3 2-3l2 2zm9 0-2 2-2-2c0-2 0-3 2-3l2 2z" class="promo4"/><path id="svg-concept" d="M916 492c0-2-2-3-3-3h-41l-2 3v45l2 2h41l3-2v-45zm-40 14h34m-34 16h34m-26 17v4h-7v-4m32 0v4h-7v-4" class="promo4"/></g><g class="promo1"><path d="m1207 593-2 2-2-2c0-2 1-3 2-3l2 2zm9 0-2 2-2-2c0-2 1-3 2-3l2 2zm-9-17-2 2-2-2 2-2 2 2zm9 0-2 2-2-2 2-2 2 2zm-9-17-2 2-2-2 2-2 2 2zm9 0-2 2-2-2 2-2 2 2z" class="promo2"/><path d="m1223 553-2-2h-41c-2 0-3 1-3 2v45c0 1 1 2 3 2h41l2-2v-45zm-40 15h34m-34 16h34m-26 16v4h-7v-4m32 0v4h-7v-4" class="promo2"/></g><g class="st5"><path id="svg-concept" d="m524 492-3 3c-2 1 0 2 0 2l-2 2-4 2h-4l1-3 2-1v-3m-7 5v6h0l-1 7-3 1-3 1m0 8 3-2 3 2v1l2 3h1l3 1 1 1v1l-1 2v1l1 2 1 1 3 1 3 4m17-44-3 3v3h0l-2 1-3 1-1 3-3 2-1 4-3 5v3l2 2 3-1 2 1v3l1 1v1l-1 2-1 1 1 2 2 3 2-2 2-4 3-3 2-2 1-4v-2l-1-1v-1l2-1 1 3h3v-1l3-1" class="promo4"/><path id="svg-concept" d="M524 492c14 0 24 12 24 24a24 24 0 1 1-24-24z" class="promo4"/></g><g class="st5"><path id="svg-concept" d="m1077 554-2 2c-2 1 0 2 0 2l-3 3-3 2-4-1v-2l2-1 1-2-1-1m-6 4v6l-1 1-1 6-3 1-3 2m1 7 3-1 3 2h-1l3 3h0l3 2h1v1l-1 2v2l2 2v1l3 1 3 4m17-45-3 4 1 2-1 1-2 1-2 1-2 2-2 2-2 5-2 5v2l2 3 2-2 2 1v3l2 2-1 1-1 2h0v3l2 2 3-2 1-3 3-3 2-3 2-3-1-2-1-1 1-1 2-2 1 4 2-1v-1h3" class="promo4"/><path id="svg-concept" d="M1077 554c14 0 25 11 25 24a24 24 0 1 1-25-24z" class="promo4"/></g><g class="promo1"><path d="m1151 510-1 2-2-2 1-2c2 0 2 1 2 2zm0 13-1 2-2-2 1-1 2 1zm8-25c0 3-9 6-20 6s-20-3-20-6c0-4 9-7 20-7s20 3 20 6z" class="promo2"/><path d="M1159 511c0 3-9 6-20 6s-20-3-20-6m40 13c0 4-9 7-20 7s-20-3-20-7m0 0v-26m40 26v-26m-19 42-2 2-2-2 2-2 2 2zm-2-6v4m-13 2h11m4 0h12" class="promo2"/></g><g class="promo1"><path d="m844 571-2 2-2-2 2-1 2 1zm0 14-2 1c-1 1-2 0-2-1l2-2 2 2zm7-26c0 4-9 7-20 7s-20-3-20-7 9-7 20-7 20 3 20 7z" class="promo2"/><path d="M851 572c0 4-9 7-20 7s-20-3-20-7m40 14c0 3-9 6-20 6s-20-3-20-6m0 0v-27m40 27v-27m-18 42-2 2-2-2c0-1 0-2 2-2s2 1 2 2zm-2-6v4m-14 2h12m4 0h11" class="promo2"/></g><g class="promo1"><path d="m1403 522-2 2-2-2 2-2 2 2z" class="promo2"/><path d="m1409 528-2 2h-36l-2-2v-11l2-2h36l2 2v11zm-36-23v-1c1-7 7-12 14-12h-1a13 13 0 0 1 9 23" class="promo2"/><path d="M1386 497c-4 0-7 4-8 8v0m-9-5a9 9 0 1 0 0 19m23 19-2 2c-1 1-2 0-2-2 0-1 0-2 2-2l2 2zm-2-6v4m-14 2h12m4 0h11" class="promo2"/></g><g class="promo1"><path d="M90 577v-7H76v7m0-9h14v-14l-14 2zm16-14v14h19v-16zm19 23v-7H92v7m16 8-2 2-2-2 2-2c1 0 2 0 2 2z" class="promo2"/><path d="m115 590-2 2H74l-2-2v-11l2-2h39l2 2v11zm-20 12c0 1 0 2-2 2l-2-2 2-2 2 2zm-2-6v4m-13 2h11m4 0h12" class="promo2"/></g><g class="st5"><path id="svg-concept" d="M178 511h-47l-1 1v3l1 2h2v23l1 1h40l1-1v-23h3l1-2v-3l-1-1zm-33 0 7-19m5 0 7 19m-19 11v14m19-14v14" class="promo4"/></g><g class="promo1"><path d="M1346 573h-46l-1 1v3l1 1h2v23l1 1h40l1-1v-23h2l2-1v-3l-2-1zm-32 0 7-20m5 0 6 20m-18 11v13m18-13v13" class="promo2"/></g><g class="promo1"><path d="M287 514c-5 0-10 4-10 10m-12-7a12 12 0 0 0 0 23h22a17 17 0 0 0 0-33h0c-9 0-17 6-17 16" class="promo2"/><circle cx="265.5" cy="499.3" r="2.1" class="promo2"/><path d="m264 517-1-3c0-4 2-7 5-7s5 3 6 6" class="promo2"/><circle cx="271.1" cy="499.3" r="2.1" class="promo2"/><path d="m266 503 2 1 3-1" class="promo2"/><path d="m279 508-4-8v-1a7 7 0 0 0-13 0v1c0 4-11 15-9 17" class="promo2"/></g><g class="promo1"><path d="M594 575c-5 0-10 4-10 10m-11-7a12 12 0 0 0 0 23h21a17 17 0 0 0 0-33h0c-8 0-16 6-16 17" class="promo2"/><circle cx="573.1" cy="560.8" r="2.1" class="promo2"/><path d="M571 578v-3c0-4 2-7 5-7s5 3 5 6" class="promo2"/><circle cx="578.7" cy="560.8" r="2.1" class="promo2"/><path d="m573 565 3 1 3-1" class="promo2"/><path d="m587 570-5-9v0a7 7 0 0 0-13 0v0c0 5-10 15-9 17" class="promo2"/></g><g class="st5"><path id="svg-concept" d="m1260 501-6 1c-3-4-7-5-12-4l-1 1v1c2 3 3 5 3 8l-3 4h-1c-2 0-4 2-4 3v8c0 1 2 3 4 3h3l2 2v8c0 2 1 4 3 4h4c2 0 3-2 3-4v-2c6 1 12 1 18-1v4c0 1 1 3 3 3h3c2 0 4-2 4-4v-8c3-3 4-7 4-10 0-7-5-12-12-15" class="promo4"/><circle id="svg-concept" cx="1267.6" cy="498.1" r="5.5" class="promo4"/></g><g class="st5"><path id="svg-concept" d="m706 562-5 1c-3-3-7-4-13-3l-1 1 1 1c2 2 3 5 3 7-1 2-3 3-3 5h-2c-1 0-3 1-3 3v7c0 2 2 3 3 3h4l2 3v8c0 2 1 3 3 3h3c2 0 4-1 4-3v-3c5 2 12 2 17 0v3c0 2 2 3 4 3h3c2 0 3-1 3-3v-9c3-3 5-6 5-10 0-6-5-12-12-15" class="promo4"/><circle id="svg-concept" cx="714.3" cy="559.6" r="5.5" class="promo4"/></g><g class="promo1"><path d="M216 561v6m-18 7h36v28h-36zm18 0v28m-17-14h35m-27-21-2-4a6 6 0 1 1 11 0m0-2c0-4 3-7 7-7s8 3 8 7l-2 5m-35 1h44" class="promo2"/></g><g class="promo1"><path d="M1209 210c-5 0-10 4-10 9m-11-6a12 12 0 0 0 0 23h21a17 17 0 0 0 0-33h0c-8 0-17 6-17 16" class="promo2"/><circle cx="1187.9" cy="195.2" r="2.1" class="promo2"/><path d="m1186 213-1-3c0-4 3-7 6-7s5 2 5 6" class="promo2"/><circle cx="1193.5" cy="195.2" r="2.1" class="promo2"/><path d="m1188 199 3 1 3-1" class="promo2"/><path d="M1202 204c-3-3-5-6-5-9v0a7 7 0 0 0-13 0v0c0 5-10 16-9 18" class="promo2"/></g><g class="promo1"><path d="M451 469h-3l-1-5m25 5h-12m-23-33h9m37 23-35 5h-1l-3-24s0 0 0 0h43s0 0 0 0l-4 19c1 0 0 0 0 0m-29-13v9m8-9v9m7-9v9m7-9v9m-15 17a5 5 0 1 1-10 0 5 5 0 0 1 10 0m21 0a5 5 0 1 1-5-5c3 0 5 2 5 5" class="promo2"/></g><g class="promo1"><path d="M238 447c2 0 3 1 3 3v29c0 1-1 2-3 2h-44l-2-2v-29c0-2 1-3 2-3" class="promo2"/><path d="m238 447-22 17-22-17m44 0-22-16-22 16m15 12-16 21m30-21 17 21" class="promo2"/></g><g class="st5"><path id="svg-concept" d="m1056 479-2 2-2-2 2-2 2 2zm21-23v5m0 8v8m-3-34h-2m10 0h-2" class="promo4"/><circle id="svg-concept" cx="1077" cy="441.4" r="11" class="promo4"/><path id="svg-concept" d="M1090 460v5h-26v-5c0-2 2-5 5-5h17c2 1 4 3 4 5zm-23-23 17-4m-28 45 8-9m34 10c0 1 0 2 2 2s2-1 2-2l-2-2c-2 0-3 1-3 2zm-23 0 2 2 2-2-2-2-2 2zm23-1-9-9" class="promo4"/></g><g class="st5"><path id="svg-concept" d="m340 432-3 3c-2 0 0 2 0 2l-3 2-3 2h-4v-3l3-1v-3m-7 4v7h-1l-1 7-2 1-4 1m1 7 3-1 3 2-1 1 3 3h1l2 1 1 1v1l-1 1v2l2 2 1 1 3 1 2 4m17-44-3 3 1 2-1 1-2 1-2 1-2 3-2 2-2 4-2 5v2l2 3 3-1 1 1 1 3 1 1v1l-1 2h-1v3l3 2 2-1 1-4 4-3 2-3 1-3-1-2-1-1 1-1 2-1 1 3 2-1h0l4-1" class="promo4"/><path id="svg-concept" d="M339 432c15 0 25 12 25 24a24 24 0 1 1-25-24z" class="promo4"/></g><g class="promo1"><path d="m598 450-2 1-2-1 2-2 2 2zm0 13-2 2-2-2 2-2 2 2zm7-26c0 4-9 7-20 7s-20-3-20-7 9-6 20-6 20 3 20 6z" class="promo2"/><path d="M605 451c0 3-9 6-20 6s-20-3-20-6m40 13c0 3-9 6-20 6s-20-3-20-6m0 0v-27m40 27v-27m-18 42-2 2c-1 1-2 0-2-2 0-1 0-2 2-2s2 1 2 2zm-2-6v4m-14 2h12m4 0h11" class="promo2"/></g><g class="promo1"><path d="M976 447c2 0 3 1 3 3v29c0 1-1 2-3 2h-44l-2-2v-29c0-2 1-3 2-3" class="promo2"/><path d="m976 447-22 17-22-17m44 0-22-16-22 16m15 12-16 21m30-21 16 21" class="promo2"/></g><path d="M807 448c0-11 6-14 13-14 5 1 9 3 11 7 3-4 7-6 11-6 8 0 14 2 14 13s-25 30-25 30-24-19-24-30z" class="promo0"/><g class="st5"><path id="svg-concept" d="M725 461c0 1-1 2-3 2-1 0-2 0-2-2l2-2 2 2z" class="promo4"/><circle id="svg-concept" cx="708.2" cy="478.9" r="2.1" class="promo4"/><path id="svg-concept" d="M733 468c0 1-1 2-3 2h-44l-3-2v-13c0-2 2-3 3-3h44c2 0 3 1 3 3v13zm-8-28c0 1-1 2-3 2l-2-2 2-2 2 2z" class="promo4"/><path id="svg-concept" d="M733 447c0 1-1 2-3 2h-44c-1 0-3-1-3-3v-13l3-2h44c2 0 3 1 3 2v13zm-25 26v4m-16 2h14m4 0h14" class="promo4"/></g><g class="promo1"><path d="M102 454c-5 0-10 4-10 10m-11-7a12 12 0 0 0 0 23h21a17 17 0 0 0 0-33h0c-8 0-16 6-16 17" class="promo2"/><circle cx="81.1" cy="439.6" r="2.1" class="promo2"/><path d="M79 457v-3c0-4 2-7 5-7s5 3 5 6" class="promo2"/><circle cx="86.7" cy="439.6" r="2.1" class="promo2"/><path d="m81 443 3 2 3-2" class="promo2"/><path d="m95 449-5-9v0a7 7 0 0 0-13 0v0c0 5-10 15-9 17" class="promo2"/></g><g class="promo1"><path d="M1312 470h-3v-1l-1-5m25 6h-12m-23-34h9" class="promo2"/><path d="m1344 459-36 6v-1l-4-24h44l-4 19s0 0 0 0m-29-13v10m7-10v10m7-10v10m7-10v10m-15 16a5 5 0 1 1-9 0 5 5 0 0 1 9 0m22 0a5 5 0 1 1-10 0 5 5 0 0 1 10 0" class="promo2"/></g><g class="promo1"><path d="M1209 453c-5 0-10 4-10 10m-11-6a12 12 0 0 0 0 23h21a17 17 0 0 0 0-33h0c-8 0-17 5-17 16" class="promo2"/><circle cx="1187.9" cy="439" r="2.1" class="promo2"/><path d="m1186 457-1-4c0-3 3-6 6-6s5 2 5 6" class="promo2"/><circle cx="1193.5" cy="439" r="2.1" class="promo2"/><path d="m1188 443 3 1 3-1" class="promo2"/><path d="M1202 448c-3-3-5-6-5-9v0a7 7 0 0 0-13 0v0c0 5-10 15-9 18" class="promo2"/></g><g class="st5"><path id="svg-concept" d="M1469 84h-46l-1 1v3l1 1h2v24l1 1h40l1-1V90h2l1-2v-3l-1-1zm-32 0 7-19m5 0 6 19m-18 11v14m18-14v14" class="promo4"/></g><g class="st5"><path id="svg-concept" d="M1469 328h-46l-1 1v3l1 1h2v23l1 1h40l1-1v-23h2l1-1v-3l-1-1zm-32 0 7-20m5 0 6 20m-18 11v14m18-14v14" class="promo4"/></g><g class="promo3"><path id="svg-concept" d="M1435 226h-3v-1l-1-5m25 6h-12m-23-34h9" class="promo4"/><path id="svg-concept" d="m1467 216-36 5v-1l-4-23 1-1h42l1 1-4 18v1m-29-14v10m7-10v10m7-10v10m7-10v10m-15 16a5 5 0 1 1-9 0 5 5 0 0 1 9 0m21 0a5 5 0 1 1-9 0 5 5 0 0 1 9 0" class="promo4"/></g><g class="st5"><path id="svg-concept" d="M1469 573h-46l-1 1v3l1 1h2v23l1 1h40l1-1v-23h2l1-1v-3l-1-1zm-32 0 7-20m5 0 6 20m-18 11v13m18-13v13" class="promo4"/></g><g class="st5"><path id="svg-concept" d="M1435 470h-3v-1l-1-5m25 6h-12m-23-34h9" class="promo4"/><path id="svg-concept" d="m1467 459-36 6v-1l-4-24h44l-4 19s0 0 0 0m-29-13v10m7-10v10m7-10v10m7-10v10m-15 16a5 5 0 1 1-9 0 5 5 0 0 1 9 0m21 0a5 5 0 1 1-9 0 5 5 0 0 1 9 0" class="promo4"/></g></svg>