<svg xmlns="http://www.w3.org/2000/svg" xml:space="preserve" id="Layer_1" x="0" y="0" version="1.1" viewBox="0 0 1476 615"><style>.promopath0{fill:none;stroke:gray;stroke-linecap:round;stroke-linejoin:round;stroke-miterlimit:10;stroke-opacity:.3}.promopath0,.st1{opacity:.5;enable-background:new}.st2{opacity:.35;fill:none;stroke:gray;stroke-linecap:round;stroke-linejoin:round;stroke-miterlimit:10}</style><path d="m35 461 58 58-58 58M0 490l28-29m0 116L0 549" class="promopath0"/><path d="M32 586c-3 0-5-3-5-5 0-3 2-5 5-5s5 2 5 5-2 5-5 5zm0-123c-3 0-5-2-5-5s2-5 5-5 5 2 5 5-2 5-5 5zM0 367l28-29m0 116L0 426" class="promopath0"/><path d="m35 338 58 58-58 58m0-238 58 57-58 58M0 244l28-29m0 116L0 303" class="promopath0"/><path d="M32 340c-3 0-5-2-5-5s2-5 5-5 5 2 5 5-2 5-5 5zM0 613l28-29m7 0 31 31M32 217c-3 0-5-2-5-5s2-5 5-5 5 2 5 5-2 5-5 5zM0 121l28-29m0 116L0 180" class="promopath0"/><path d="m35 93 58 57-58 58M66 0l27 27-58 58m-7 0L0 57" class="promopath0"/><path d="M32 94c-3 0-5-2-5-5s2-5 5-5 5 2 5 5-2 5-5 5zm126 367 58 58-58 58m-49-73 42-43m0 116-42-42" class="promopath0"/><path d="M155 586c-3 0-5-3-5-5 0-3 2-5 5-5s5 2 5 5-2 5-5 5zm0-123c-3 0-5-2-5-5s2-5 5-5 5 2 5 5-2 5-5 5zm-46-82 42-43m0 116-42-42" class="promopath0"/><path d="m158 338 58 58-58 58m0-238 58 57-58 58m-49-73 42-42m0 115-42-42" class="promopath0"/><path d="M155 340c-3 0-5-2-5-5s2-5 5-5 5 2 5 5-2 5-5 5zm-34 275 30-31m7 0 31 31m-34-398c-3 0-5-2-5-5s2-5 5-5 5 2 5 5-2 5-5 5zm-46-82 42-42m0 115-42-42" class="promopath0"/><path d="m158 93 58 57-58 58M189 0l27 27-58 58m-49-73 12-12m30 85-42-42" class="promopath0"/><path d="M155 94c-3 0-5-2-5-5s2-5 5-5 5 2 5 5-2 5-5 5zm126 367 58 58-58 58m-49-73 42-43m0 116-42-42" class="promopath0"/><path d="M278 586c-3 0-5-3-5-5 0-3 2-5 5-5s5 2 5 5-2 5-5 5zm0-123c-3 0-5-2-5-5s2-5 5-5 5 2 5 5-2 5-5 5zm-46-82 42-43m0 116-42-42" class="promopath0"/><path d="m281 338 58 58-58 58m0-238 58 57-58 58m-49-73 42-42m0 115-42-42" class="promopath0"/><path d="M278 340c-3 0-5-2-5-5s2-5 5-5 5 2 5 5-2 5-5 5zm-34 275 30-31m7 0 31 31m-34-398c-3 0-5-2-5-5s2-5 5-5 5 2 5 5-2 5-5 5zm-46-82 42-42m0 115-42-42" class="promopath0"/><path d="m281 93 58 57-58 58M312 0l27 27-58 58m-49-73 12-12m30 85-42-42" class="promopath0"/><path d="M278 94c-3 0-5-2-5-5s2-5 5-5 5 2 5 5-2 5-5 5zm126 367 58 58-58 58m-49-73 42-43m0 116-42-42" class="promopath0"/><path d="M401 586c-3 0-5-3-5-5 0-3 2-5 5-5s5 2 5 5-2 5-5 5zm0-123c-3 0-5-2-5-5s2-5 5-5 5 2 5 5-2 5-5 5zm-46-82 42-43m0 116-42-42" class="promopath0"/><path d="m404 338 58 58-58 58m0-238 58 57-58 58m-49-73 42-42m0 115-42-42" class="promopath0"/><path d="M401 340c-3 0-5-2-5-5s2-5 5-5 5 2 5 5-2 5-5 5zm-34 275 30-31m7 0 31 31m-34-398c-3 0-5-2-5-5s2-5 5-5 5 2 5 5-2 5-5 5zm-46-82 42-42m0 115-42-42" class="promopath0"/><path d="m404 93 58 57-58 58M435 0l27 27-58 58m-49-73 12-12m30 85-42-42" class="promopath0"/><path d="M401 94c-3 0-5-2-5-5s2-5 5-5 5 2 5 5-2 5-5 5zm126 367 58 58-58 58m-49-73 42-43m0 116-42-42" class="promopath0"/><path d="M524 586c-3 0-5-3-5-5 0-3 2-5 5-5s5 2 5 5-2 5-5 5zm0-123c-3 0-5-2-5-5s2-5 5-5 5 2 5 5-2 5-5 5zm-46-82 42-43m0 116-42-42" class="promopath0"/><path d="m527 338 58 58-58 58m0-238 58 57-58 58m-49-73 42-42m0 115-42-42" class="promopath0"/><path d="M524 340c-3 0-5-2-5-5s2-5 5-5 5 2 5 5-2 5-5 5zm-34 275 30-31m7 0 31 31m-34-398c-3 0-5-2-5-5s2-5 5-5 5 2 5 5-2 5-5 5zm-46-82 42-42m0 115-42-42" class="promopath0"/><path d="m527 93 58 57-58 58M558 0l27 27-58 58m-49-73 12-12m30 85-42-42" class="promopath0"/><path d="M524 94c-3 0-5-2-5-5s2-5 5-5 5 2 5 5-2 5-5 5zm126 367 58 58-58 58m-49-73 42-43m0 116-42-42" class="promopath0"/><path d="M647 586c-3 0-5-3-5-5 0-3 2-5 5-5s5 2 5 5-2 5-5 5zm0-123c-3 0-5-2-5-5s2-5 5-5 5 2 5 5-2 5-5 5zm-46-82 42-43m0 116-42-42" class="promopath0"/><path d="m650 338 58 58-58 58m0-238 58 57-58 58m-49-73 42-42m0 115-42-42" class="promopath0"/><path d="M647 340c-3 0-5-2-5-5s2-5 5-5 5 2 5 5-2 5-5 5zm-34 275 30-31m7 0 31 31m-34-398c-3 0-5-2-5-5s2-5 5-5 5 2 5 5-2 5-5 5zm-46-82 42-42m0 115-42-42" class="promopath0"/><path d="m650 93 58 57-58 58M681 0l27 27-58 58m-49-73 12-12m30 85-42-42" class="promopath0"/><path d="M647 94c-3 0-5-2-5-5s2-5 5-5 5 2 5 5-2 5-5 5zm126 367 58 58-58 58m-49-73 42-43m0 116-42-42" class="promopath0"/><path d="M770 586c-3 0-5-3-5-5 0-3 2-5 5-5s5 2 5 5-2 5-5 5zm0-123c-3 0-5-2-5-5s2-5 5-5 5 2 5 5-2 5-5 5zm-46-82 42-43m0 116-42-42" class="promopath0"/><path d="m773 338 58 58-58 58m0-238 58 57-58 58m-49-73 42-42m0 115-42-42" class="promopath0"/><path d="M770 340c-3 0-5-2-5-5s2-5 5-5 5 2 5 5-2 5-5 5zm-34 275 30-31m7 0 31 31m-34-398c-3 0-5-2-5-5s2-5 5-5 5 2 5 5-2 5-5 5zm-46-82 42-42m0 115-42-42" class="promopath0"/><path d="m773 93 58 57-58 58M804 0l27 27-58 58m-49-73 12-12m30 85-42-42" class="promopath0"/><path d="M770 94c-3 0-5-2-5-5s2-5 5-5 5 2 5 5-2 5-5 5zm126 367 58 58-58 58m-49-73 42-43m0 116-42-42" class="promopath0"/><path d="M893 586c-3 0-5-3-5-5 0-3 2-5 5-5s5 2 5 5-2 5-5 5zm0-123c-3 0-5-2-5-5s2-5 5-5 5 2 5 5-2 5-5 5zm-46-82 42-43m0 116-42-42" class="promopath0"/><path d="m896 338 58 58-58 58m0-238 58 57-58 58m-49-73 42-42m0 115-42-42" class="promopath0"/><path d="M893 340c-3 0-5-2-5-5s2-5 5-5 5 2 5 5-2 5-5 5zm-34 275 30-31m7 0 31 31m-34-398c-3 0-5-2-5-5s2-5 5-5 5 2 5 5-2 5-5 5zm-46-82 42-42m0 115-42-42" class="promopath0"/><path d="m896 93 58 57-58 58M927 0l27 27-58 58m-49-73 12-12m30 85-42-42" class="promopath0"/><path d="M893 94c-3 0-5-2-5-5s2-5 5-5 5 2 5 5-2 5-5 5zm126 367 58 58-58 58m-49-73 42-43m0 116-42-42" class="promopath0"/><path d="M1016 586c-3 0-5-3-5-5 0-3 2-5 5-5s5 2 5 5-2 5-5 5zm0-123c-3 0-5-2-5-5s2-5 5-5 5 2 5 5-2 5-5 5zm-46-82 42-43m0 116-42-42" class="promopath0"/><path d="m1019 338 58 58-58 58m0-238 58 57-58 58m-49-73 42-42m0 115-42-42" class="promopath0"/><path d="M1016 340c-3 0-5-2-5-5s2-5 5-5 5 2 5 5-2 5-5 5zm-34 275 30-31m7 0 31 31m-34-398c-3 0-5-2-5-5s2-5 5-5 5 2 5 5-2 5-5 5zm-46-82 42-42m0 115-42-42" class="promopath0"/><path d="m1019 93 58 57-58 58m31-208 27 27-58 58m-49-73 11-12m31 85-42-42" class="promopath0"/><path d="M1016 94c-3 0-5-2-5-5s2-5 5-5 5 2 5 5-2 5-5 5zm126 367 58 58-58 58m-49-73 42-43m0 116-42-42" class="promopath0"/><path d="M1139 586c-3 0-5-3-5-5 0-3 2-5 5-5s5 2 5 5-3 5-5 5zm0-123c-3 0-5-2-5-5s2-5 5-5 5 2 5 5-3 5-5 5zm-46-82 42-43m0 116-42-42" class="promopath0"/><path d="m1142 338 58 58-58 58m0-238 58 57-58 58m-49-73 42-42m0 115-42-42" class="promopath0"/><path d="M1139 340c-3 0-5-2-5-5s2-5 5-5 5 2 5 5-3 5-5 5zm-34 275 30-31m7 0 31 31m-34-398c-3 0-5-2-5-5s2-5 5-5 5 2 5 5-3 5-5 5zm-46-82 42-42m0 115-42-42" class="promopath0"/><path d="m1142 93 58 57-58 58m31-208 27 27-58 58m-49-73 12-12m30 85-42-42" class="promopath0"/><path d="M1139 94c-3 0-5-2-5-5s2-5 5-5 5 2 5 5-3 5-5 5zm126 367 58 58-58 58m-49-73 42-43m0 116-42-42" class="promopath0"/><path d="M1262 586c-3 0-5-3-5-5 0-3 2-5 5-5 2 0 5 2 5 5s-3 5-5 5zm0-123c-3 0-5-2-5-5s2-5 5-5c2 0 5 2 5 5s-3 5-5 5zm-46-82 42-43m0 116-42-42" class="promopath0"/><path d="m1265 338 58 58-58 58m0-238 58 57-58 58m-49-73 42-42m0 115-42-42" class="promopath0"/><path d="M1262 340c-3 0-5-2-5-5s2-5 5-5c2 0 5 2 5 5s-3 5-5 5zm-35 275 31-31m7 0 31 31m-34-398c-3 0-5-2-5-5s2-5 5-5c2 0 5 2 5 5s-3 5-5 5zm-46-82 42-42m0 115-42-42" class="promopath0"/><path d="m1265 93 58 57-58 58m31-208 27 27-58 58m-49-73 11-12m31 85-42-42" class="promopath0"/><path d="M1262 94c-3 0-5-2-5-5s2-5 5-5c2 0 5 2 5 5s-3 5-5 5zm126 367 58 58-58 58m-49-73 42-43m0 116-42-42" class="promopath0"/><path d="M1385 586c-3 0-5-3-5-5 0-3 2-5 5-5 2 0 5 2 5 5s-3 5-5 5zm0-123c-3 0-5-2-5-5s2-5 5-5c2 0 5 2 5 5s-3 5-5 5zm-46-82 42-43m0 116-42-42" class="promopath0"/><path d="m1388 338 58 58-58 58m0-238 58 57-58 58m-49-73 42-42m0 115-42-42" class="promopath0"/><path d="M1385 340c-3 0-5-2-5-5s2-5 5-5c2 0 5 2 5 5s-3 5-5 5zm-35 275 31-31m7 0 31 31m-34-398c-3 0-5-2-5-5s2-5 5-5c2 0 5 2 5 5s-3 5-5 5zm-46-82 42-42m0 115-42-42" class="promopath0"/><path d="m1388 93 58 57-58 58m31-208 27 27-58 58m-49-73 11-12m31 85-42-42" class="promopath0"/><path d="M1385 94c-3 0-5-2-5-5s2-5 5-5c2 0 5 2 5 5s-3 5-5 5z" class="promopath0"/><g class="st1"><path d="M636 41h-3l-1-1-1-5m26 6h-12M622 7h9" class="st2"/><path d="m668 31-36 5v-1l-4-23 1-1h42l1 1-4 18-1 1m-28-14v10m7-10v10m7-10v10m7-10v10m-15 16a5 5 0 1 1-5-5c3 0 5 2 5 5m21 0a5 5 0 1 1-5-5c3 0 5 2 5 5" class="st2"/></g><g class="st1"><path d="M451 225h-2l-1-1-1-4m25 5h-12m-23-33h9m37 23-35 5h-1l-3-24s0 0 0 0h43s0 0 0 0l-4 18v1m-29-13v9m8-9v9m7-9v9m7-9v9m-15 17a5 5 0 1 1-10-1 5 5 0 0 1 10 1m21 0a5 5 0 1 1-5-5c3 0 5 2 5 4" class="st2"/></g><g class="st1"><path d="M882 164h-3l-1-1v-5m25 6h-12m-23-34h9" class="st2"/><path d="m914 154-36 5v-1l-4-23 1-1h42l1 1-4 18v1m-29-14v10m7-10v10m7-10v10m7-10v10m-15 16a5 5 0 1 1-10 0 5 5 0 0 1 10 0m21 0c0 3-2 5-5 5s-4-2-4-5 2-5 4-5 5 2 5 5" class="st2"/></g><g class="st1"><path d="m54 19 2 2v29l-2 2H10l-2-2V21l2-2" class="st2"/><path d="M54 19 32 35 10 19m44 0L32 3 10 19m15 11L9 51m30-21 16 21" class="st2"/></g><g class="st1"><path d="m669 142 2 2v29l-2 2h-44c-2 0-3-1-3-2v-29c0-1 1-2 3-2" class="st2"/><path d="m669 142-22 16-22-16m44 0-22-17-22 17m15 11-16 21m30-21 16 21" class="st2"/></g><g class="st1"><path d="M361 80c2 0 3 1 3 3v29c0 1-1 2-3 2h-44c-1 0-2-1-2-3V84c0-2 1-3 2-3" class="st2"/><path d="m361 80-22 17-22-17m44 0-22-16-22 16m15 12-16 21m30-21 16 21" class="st2"/></g><g class="st1"><path d="M238 203c2 0 3 1 3 2v30c0 1-1 2-3 2h-44l-2-2v-29c0-2 1-3 2-3" class="st2"/><path d="m238 203-22 16-22-16m44 0-22-16-22 16m15 12-16 21m30-21 17 21" class="st2"/></g><path d="M376 19c0-11 6-13 14-13 4 0 8 2 11 6 2-4 6-6 11-6 7 0 13 3 13 13 0 11-24 30-24 30s-25-18-25-30zM7 142c0-11 6-13 14-13 4 0 8 2 11 6 2-4 6-6 11-6 7 0 13 3 13 13 0 11-24 30-24 30S7 154 7 142zm923-61c0-11 6-13 13-13 5 0 9 2 11 6 3-4 7-6 11-6 8 0 14 2 14 13s-25 30-25 30-24-19-24-30z" class="promopath0"/><g class="st1"><path d="m1032 33-2 2-2-2 2-2 2 2z" class="st2"/><circle cx="1015.7" cy="50.4" r="2.1" class="st2"/><path d="M1040 39c0 2-1 3-2 3h-44c-2 0-3-1-3-3V26c0-1 1-2 3-2h44l2 2v13zm-8-28-2 2c-1 0-2 0-2-2s1-2 2-2l2 2z" class="st2"/><path d="m1040 18-2 2h-44c-2 0-3-1-3-2V5c0-1 1-3 3-3h44l2 3v13zm-24 27v3m-17 2h15m4 0h14" class="st2"/></g><g class="st1"><path d="m1278 156-2 2-2-2 2-2 2 2z" class="st2"/><circle cx="1261.8" cy="173.4" r="2.1" class="st2"/><path d="M1287 162c0 2-2 3-3 3h-44c-2 0-3-1-3-3v-13c0-1 1-2 3-2h44l3 2v13zm-9-28c0 2-1 3-2 3s-2-1-2-3 1-2 2-2l2 2z" class="st2"/><path d="m1287 141-3 2h-44c-2 0-3-1-3-2v-13c0-1 1-3 3-3h44l3 3v13zm-25 27v3m-16 2h14m4 0h14" class="st2"/></g><g class="st1"><path d="m749 51-2 2-2-2 2-2 2 2zm21-24v6m0 8v8m-3-35h-3m11 0h-2" class="st2"/><circle cx="769.7" cy="13" r="11" class="st2"/><path d="M783 32v5h-27v-5c0-3 3-5 5-5h17c3 0 5 2 5 5zM760 9l17-4m-29 44 9-8m33 10 2 2c2 0 2-1 2-2 1-1 0-2-2-2l-2 2zm-22 0 2 2 2-2-2-2-2 2zm23-2-9-8" class="st2"/></g><g class="st1"><path d="m1056 235-2 2-2-2 2-2 2 2zm21-24v6m0 8v8m-3-34h-2m10 0h-2" class="st2"/><circle cx="1077" cy="197.3" r="11" class="st2"/><path d="M1090 216v5h-26v-5c0-3 2-5 5-5h17c2 0 4 2 4 5zm-23-23 17-4m-28 45 8-9m34 10c0 1 0 2 2 2l2-2-2-2c-2 0-3 1-3 2zm-23 0 2 2 2-2-2-2-2 2zm23-1-9-9" class="st2"/></g><g class="st1"><path d="m257 174-2 2-2-2 2-2 2 2zm21-24v6m0 8v8m-3-35h-3m11 0h-2" class="st2"/><circle cx="277.8" cy="136" r="11" class="st2"/><path d="M291 155v5h-27v-5c0-3 3-5 5-5h17c3 0 5 2 5 5zm-23-23 17-4m-28 44 8-8m33 10 2 2c2 0 3-1 3-2l-2-2c-2 0-3 1-3 2zm-22 0 2 2 2-2-2-2-2 2zm23-2-9-8" class="st2"/></g><g class="st1"><path d="m442 112-2 2c-2 0-3-1-3-2s1-2 3-2l2 2zm20-23v5m0 8v8m-2-34h-3m11 0h-3" class="st2"/><circle cx="462.4" cy="74.5" r="11" class="st2"/><path d="M476 94v4h-27v-4c0-3 2-5 5-5h17c3 0 5 2 5 4zm-23-24 16-4m-28 45 9-9m33 10 2 2 2-2-2-2-2 2zm-23 0 2 2c2 0 3-1 3-2l-2-2c-2 0-3 1-3 2zm24-1-9-9" class="st2"/></g><g class="st1"><path d="m900 42-2 2-2-2 2-2 2 2zm9 0-2 2-2-2c0-1 0-2 2-2l2 2zm-9-17-2 2c-1 1-2 0-2-2l2-2 2 2zm9 0-2 2c-1 1-2 0-2-2 0-1 0-2 2-2l2 2zm-9-16-2 2-2-2 2-2c1 0 2 0 2 2zm9 0-2 2-2-2c0-1 0-2 2-2 1 0 2 0 2 2z" class="st2"/><path d="m916 3-3-2h-41l-2 2v45l2 2h41l3-2V3zm-40 14h34m-34 16h34m-26 17v4h-7v-4m32 0v4h-7v-4" class="st2"/></g><g class="st1"><path d="m531 165-2 2-2-2 2-2 2 2zm9 0-2 2-2-2 2-2 2 2zm-9-17c0 2-1 3-2 3s-2-1-2-3l2-2 2 2zm9 0c0 2-1 3-2 3s-2-1-2-3l2-2 2 2zm-9-16-2 2-2-2c0-2 1-3 2-3l2 3zm9 0-2 2-2-2c0-2 1-3 2-3l2 3z" class="st2"/><path d="m547 126-3-2h-41l-2 2v45l2 2h41l3-2v-45zm-40 14h34m-34 16h34m-26 17v4h-7v-4m32 0v4h-7v-4" class="st2"/></g><g class="st1"><path d="m1207 104-2 2-2-2c0-2 1-3 2-3l2 3zm9 0-2 2-2-2c0-2 1-3 2-3l2 3zm-9-17-2 2-2-2 2-2 2 2zm9 0-2 2-2-2 2-2 2 2zm-9-17-2 2-2-2 2-2 2 2zm9 0-2 2-2-2 2-2 2 2z" class="st2"/><path d="m1223 64-2-2h-41c-2 0-3 1-3 2v45c0 2 1 3 3 3h41c1 0 2-1 2-3V64zm-40 15h34m-34 16h34m-26 17v4h-7v-4m32 0v4h-7v-4" class="st2"/></g><g class="st1"><path d="m524 3-3 3c-2 1 0 2 0 2l-2 2-4 2h-4l1-2 2-2V5m-7 5v6h0l-1 7-3 1-3 1m0 8 3-2 3 2v1l2 3h1l3 1 1 1v1l-1 2v2l1 2h1l3 2 3 4m17-45-3 4v2h0l-2 1-3 1-1 3-3 2-1 4-3 5v3l2 2 3-1 2 1v3l1 1v1l-1 2-1 1 1 2 2 3 2-2 2-3 3-4 2-2 1-4v-1l-1-2v-1l2-1 1 3h3v-1l3-1" class="st2"/><path d="M524 3a24 24 0 1 1 0 49 24 24 0 0 1 0-49z" class="st2"/></g><g class="st1"><path d="m340 188-3 3c-2 0 0 2 0 2l-3 2-3 2h-4v-3l3-1v-3m-7 4v6l-1 1-1 7-2 1-4 1m1 7 3-1 3 2-1 1 3 2h1l2 2 1 1v1l-1 1v2l2 2 1 1 3 1 2 4m17-45-3 4 1 2-1 1-2 1-2 1-2 3-2 2-2 4-2 5v2l2 3 3-1 1 1 1 3 1 1v1l-1 2h-1v3l3 2 2-1 1-4 4-3 2-3 1-3-1-2-1-1 1-1 2-1 1 3 2-1h0l4-1" class="st2"/><path d="M339 188c15 0 25 12 25 24a24 24 0 1 1-25-24z" class="st2"/></g><g class="st1"><path d="m155 126-3 3c-2 1 0 2 0 2l-2 2-4 2h-4l1-2 2-2v-3m-7 5v6h0l-1 7-3 1-3 1m0 8 3-2 3 2v1l2 3h1l3 1 1 1v1l-1 2v1l1 2 1 1 3 1 3 4m17-44-4 4 1 2h0l-2 1-3 1-1 3-2 2-2 4-3 5v3l2 2 3-1 2 1v3l1 1v1l-1 2-1 1 1 2 2 3 2-2 2-3 3-4 2-2 1-4v-2l-1-1v-1l2-1 1 3h3v-1l3-1" class="st2"/><path d="M155 126c14 0 24 12 24 24a24 24 0 1 1-24-24z" class="st2"/></g><g class="st1"><path d="m1077 65-2 2c-2 1 0 3 0 3l-3 2-3 2h-4v-3l2-1 1-2-1-1m-6 4v6l-1 1-1 6-3 2-3 1m1 7 3-1 3 2h-1l3 3h0l3 2h1v1l-1 2v2l2 2v1l3 1 3 4m17-45-3 4 1 2-1 1-2 1-2 1-2 2-2 2-2 5-2 5v2l2 3 2-2 2 1v3l2 2-1 1-1 2h0v3l2 2 3-2 1-3 3-3 2-3 2-3-1-2-1-1 1-1 2-1 1 3 2-1h0l3-1" class="st2"/><path d="M1077 65c14 0 25 12 25 24a24 24 0 1 1-25-24z" class="st2"/></g><g class="st1"><path d="m1151 21-1 2-2-2 1-2 2 2zm0 14-1 1-2-1 1-2 2 1zm8-26c0 3-9 6-20 6s-20-3-20-6c0-4 9-7 20-7s20 3 20 7z" class="st2"/><path d="M1159 22c0 4-9 7-20 7s-20-3-20-7m40 13c0 4-9 7-20 7s-20-3-20-7m0 0V9m40 26V9m-19 42-2 2-2-2 2-2 2 2zm-2-6v4m-13 2h11m4 0h12" class="st2"/></g><g class="st1"><path d="m782 142-1 2-2-2 1-2 2 2zm0 14-1 1-2-1 1-2 2 2zm8-26c0 3-9 6-20 6s-20-3-20-6c0-4 9-7 20-7s20 3 20 7z" class="st2"/><path d="M790 143c0 4-9 7-20 7s-20-3-20-7m40 13c0 4-9 7-20 7s-20-3-20-7m0 0v-26m40 26v-26m-19 42-2 2-2-2 2-2 2 2zm-2-6v4m-13 2h11m4 0h12" class="st2"/></g><g class="st1"><path d="m598 206-2 1-2-1 2-2 2 2zm0 13-2 2-2-2 2-2 2 2zm7-26c0 4-9 7-20 7s-20-3-20-7 9-7 20-7c11 1 20 4 20 7z" class="st2"/><path d="M605 206c0 4-9 7-20 7s-20-3-20-7m40 14c0 3-9 6-20 6s-20-3-20-6m0 0v-27m40 27v-27m-18 42-2 2c-1 0-2 0-2-2 0-1 0-2 2-2s2 1 2 2zm-2-6v4m-14 2h12m4 0h11" class="st2"/></g><g class="st1"><path d="m844 83-2 1-2-1 2-2 2 2zm0 13-2 2-2-2 2-2 2 2zm7-26c0 4-9 7-20 7s-20-3-20-7 9-7 20-7 20 3 20 7z" class="st2"/><path d="M851 83c0 4-9 7-20 7s-20-3-20-7m40 14c0 3-9 6-20 6s-20-3-20-6m0 0V70m40 27V70m-18 42-2 2-2-2c0-1 0-2 2-2s2 1 2 2zm-2-6v4m-14 2h12m4 0h11" class="st2"/></g><g class="st1"><path d="m1403 33-2 2c-1 1-2 0-2-2l2-2 2 2z" class="st2"/><path d="m1409 39-2 2h-36l-2-2V28l2-2h36l2 2v11zm-36-22v-2c1-6 7-12 14-12h-1a13 13 0 0 1 9 23" class="st2"/><path d="M1386 9c-4 0-7 3-8 7v1m-9-6a9 9 0 1 0 0 19m23 20-2 2-2-2c0-2 0-3 2-3l2 2zm-2-7v4m-14 3h12m4 0h11" class="st2"/></g><g class="st1"><path d="M1156 156c0 2-1 3-2 3s-2-1-2-3l2-2 2 2z" class="st2"/><path d="m1163 162-2 2h-36l-2-2v-11l2-2h36l2 2v11zm-36-22v-2c0-6 6-12 13-12h0a13 13 0 0 1 9 23" class="st2"/><path d="M1140 132c-4 0-8 3-8 7v0m-9-5a9 9 0 1 0 0 19m22 20-2 2-2-2c0-2 1-3 2-3l2 3zm-2-7v5m-13 2h11m4 0h12" class="st2"/></g><g class="st1"><path d="M90 88v-7H76v7m0-9h14V66l-14 1zm16-14v14h19V63zm19 23v-7H92v7m16 8-2 2-2-2 2-2 2 2z" class="st2"/><path d="m115 102-2 2H74c-1 0-2-1-2-3V91l2-2h39l2 2v12zm-20 11c0 1 0 2-2 2l-2-2 2-2c2 0 2 1 2 2zm-2-6v4m-13 2h11m4 0h12" class="st2"/></g><g class="st1"><path d="M178 22h-47l-1 1v4l1 1h2v23l1 1h40l1-1V28h3l1-1v-4l-1-1zm-33 0 7-19m5 0 7 19m-19 12v13m19-13v13" class="st2"/></g><g class="st1"><path d="M424 145h-46l-2 1v3l1 2h3v23l1 1h40l1-1v-23h2l1-2v-3l-1-1zm-33 0 7-19m5 0 7 19m-19 11v14m19-14v14" class="st2"/></g><g class="st1"><path d="M1346 84h-46l-1 1v3l1 1h2v23l1 1h40l1-1V89h2l2-1v-3l-2-1zm-32 0 7-20m5 0 6 20m-18 11v14m18-14v14" class="st2"/></g><g class="st1"><path d="M287 25c-5 0-10 4-10 10m-12-7a12 12 0 0 0 0 23h22a17 17 0 0 0 0-33h0c-9 0-17 6-17 17" class="st2"/><circle cx="265.5" cy="10.5" r="2.1" class="st2"/><path d="m264 28-1-3c0-4 2-7 5-7s5 3 6 6" class="st2"/><circle cx="271.1" cy="10.5" r="2.1" class="st2"/><path d="m266 14 2 2 3-2" class="st2"/><path d="m279 20-4-9v0a7 7 0 0 0-13 0v0c0 5-11 15-9 17" class="st2"/></g><g class="st1"><path d="M594 86c-5 0-10 4-10 10m-11-6a12 12 0 0 0 0 23h21a17 17 0 0 0 0-33h0c-8 0-16 5-16 16" class="st2"/><circle cx="573.1" cy="72" r="2.1" class="st2"/><path d="M571 90v-4c0-3 2-6 5-6s5 2 5 5" class="st2"/><circle cx="578.7" cy="72" r="2.1" class="st2"/><path d="m573 76 3 1 3-1" class="st2"/><path d="M587 81c-2-3-5-6-5-9v0a7 7 0 0 0-13 0v0c0 5-10 15-9 18" class="st2"/></g><g class="st1"><path d="m1260 12-6 1c-3-4-7-5-12-3h-1v2c2 2 3 4 3 7l-3 5h-1c-2 0-4 1-4 3v7c0 2 2 3 4 3h3l2 2v9c0 1 1 3 3 3h4c2 0 3-1 3-3v-3h18v3c0 2 1 3 3 3h3c2 0 4-1 4-3v-9c3-3 4-7 4-10 0-7-5-12-12-15" class="st2"/><circle cx="1267.6" cy="9.3" r="5.5" class="st2"/></g><g class="st1"><path d="m1014 135-6 1c-3-4-7-5-12-4l-1 1v2c3 2 4 4 3 7l-3 4h-1c-2 0-4 2-4 4v7c0 1 2 3 4 3h3l2 2v9c0 1 1 3 3 3h4c2 0 3-1 3-3v-3c6 1 12 1 18-1v4c0 1 1 3 3 3h3c2 0 4-2 4-3v-9c3-3 4-7 4-10 0-7-5-12-12-15" class="st2"/><circle cx="1021.7" cy="132.3" r="5.5" class="st2"/></g><g class="st1"><path d="m706 73-5 2c-3-4-7-5-13-4l-1 1 1 1c2 2 3 5 3 7-1 2-3 3-3 5h-2c-1 0-3 1-3 3v7c0 2 2 4 3 4h4l2 2v8c0 2 1 3 3 3h3c2 0 4-1 4-3v-3c5 2 12 2 17 0v3c0 2 2 4 4 4h3c2 0 3-2 3-4v-9c3-3 5-6 5-10 0-6-5-12-12-15" class="st2"/><circle cx="714.3" cy="70.8" r="5.5" class="st2"/></g><g class="st1"><path d="M216 72v6m-18 7h36v28h-36zm18 0v28m-17-14h35m-27-21-2-4a6 6 0 1 1 11 0m0-2c0-4 3-7 7-7s8 3 8 7l-2 6m-35 0h44" class="st2"/></g><g class="st1"><path d="M1393 147c-5 1-10 4-10 10m-12-6a12 12 0 0 0 0 23h22a17 17 0 0 0 0-33h0c-9 0-17 5-17 16" class="st2"/><circle cx="1371.7" cy="133.2" r="2.1" class="st2"/><path d="m1370 151-1-4c0-3 2-6 5-6s6 2 6 6" class="st2"/><circle cx="1377.3" cy="133.2" r="2.1" class="st2"/><path d="m1372 137 3 1 2-1" class="st2"/><path d="M1385 142c-2-3-4-6-4-9v0a7 7 0 0 0-13 0v0c0 5-10 16-9 18" class="st2"/></g><g class="st1"><path d="M636 284h-4l-1-5m26 5h-12m-23-33h9" class="st2"/><path d="m668 274-36 5s0 0 0 0l-4-24s0 0 0 0h44l-4 19h-1m-28-13v9m7-9v9m7-9v9m7-9v9m-15 17a5 5 0 1 1-10 0 5 5 0 0 1 10 0m21 0a5 5 0 1 1-10 0 5 5 0 0 1 10 0" class="st2"/></g><g class="st1"><path d="M882 407h-4v-5m25 5h-12m-23-33h9" class="st2"/><path d="m914 397-36 5s0 0 0 0l-4-24h44l-4 19s0 0 0 0m-29-13v9m7-9v9m7-9v9m7-9v9m-15 17a5 5 0 1 1-5-5c3 0 5 2 5 5m21 0c0 2-2 4-5 4s-4-2-4-4a5 5 0 0 1 9 0" class="st2"/></g><g class="st1"><path d="M54 262c1 0 2 1 2 3v29l-2 2H10l-2-2v-29c0-2 1-3 2-3" class="st2"/><path d="m54 262-22 17-22-17m44 0-22-16-22 16m15 12L9 295m30-21 16 21" class="st2"/></g><g class="st1"><path d="M669 385c1 0 2 1 2 3v29l-2 2h-44c-2 0-3-1-3-2v-29c0-2 1-3 3-3" class="st2"/><path d="m669 385-22 17-22-17m44 0-22-16-22 16m15 12-16 21m30-21 16 21" class="st2"/></g><g class="st1"><path d="M361 324c2 0 3 1 3 2v29c0 1-1 2-3 2h-44l-2-2v-29l2-2" class="st2"/><path d="m361 324-22 16-22-16m44 0-22-16-22 16m15 11-16 21m30-21 16 21" class="st2"/></g><g class="st1"><path d="M976 203c2 0 3 1 3 2v30c0 1-1 2-3 2h-44l-2-2v-29c0-2 1-3 2-3" class="st2"/><path d="m976 203-22 16-22-16m44 0-22-16-22 16m15 12-16 21m30-21 16 21" class="st2"/></g><path d="M376 263c0-11 6-13 14-13 4 0 8 2 11 6 2-4 6-6 11-6 7 0 13 2 13 13s-24 30-24 30-25-19-25-30zm431-59c0-11 6-14 13-14 5 0 9 3 11 6 3-3 7-6 11-6 8 0 14 3 14 14s-25 30-25 30-24-19-24-30zM7 386c0-11 6-14 14-14 4 1 8 3 11 7 2-4 6-6 11-6 7 0 13 2 13 13s-24 30-24 30-25-19-25-30zm923-62c0-11 6-13 13-13 5 0 9 2 11 6 3-4 7-6 11-6 8 0 14 3 14 13 0 11-25 30-25 30s-24-18-24-30z" class="promopath0"/><g class="st1"><path d="m1032 276-2 2c-1 0-2 0-2-2l2-2 2 2z" class="st2"/><circle cx="1015.7" cy="294" r="2.1" class="st2"/><path d="m1040 283-2 2h-44c-2 0-3-1-3-2v-13c0-2 1-3 3-3h44c1 0 2 1 2 3v13zm-8-28-2 2-2-2 2-2 2 2z" class="st2"/><path d="m1040 262-2 2h-44c-2 0-3-1-3-2v-13c0-2 1-3 3-3h44c1 0 2 1 2 3v13zm-24 26v4m-17 2h15m4 0h14" class="st2"/></g><g class="st1"><path d="M725 217c0 1-1 2-3 2l-2-2 2-2 2 2z" class="st2"/><circle cx="708.2" cy="234.8" r="2.1" class="st2"/><path d="M733 224c0 1-1 2-3 2h-44l-3-2v-13c0-2 2-3 3-3h44c2 0 3 1 3 3v13zm-8-28c0 1-1 2-3 2l-2-2 2-2 2 2z" class="st2"/><path d="M733 202c0 2-1 3-3 3h-44c-1 0-3-1-3-3v-13l3-2h44c2 0 3 1 3 2v13zm-25 27v4m-16 2h14m4 0h14" class="st2"/></g><g class="st1"><path d="m1278 399-2 2c-1 0-2 0-2-2l2-2 2 2z" class="st2"/><circle cx="1261.8" cy="416.9" r="2.1" class="st2"/><path d="m1287 406-3 2h-44c-2 0-3-1-3-2v-13c0-2 1-3 3-3h44c1 0 3 1 3 3v13zm-9-28-2 2-2-2 2-2 2 2z" class="st2"/><path d="m1287 385-3 2h-44c-2 0-3-1-3-3v-13c0-1 1-2 3-2h44l3 2v13zm-25 26v4m-16 2h14m4 0h14" class="st2"/></g><g class="st1"><path d="m749 294-2 2c-1 1-2 0-2-2l2-2 2 2zm21-23v5m0 8v8m-3-34h-3m11 0h-2" class="st2"/><circle cx="769.7" cy="256.6" r="11" class="st2"/><path d="M783 276v4h-27v-5c0-2 3-4 5-4h17c3 0 5 2 5 5zm-23-24 17-4m-29 45 9-9m33 10 2 2c2 1 2 0 2-2 1-1 0-2-2-2l-2 2zm-22 0 2 2c1 1 2 0 2-2l-2-2-2 2zm23-1-9-9" class="st2"/></g><g class="st1"><path d="m257 417-2 2c-1 1-2 0-2-2l2-2 2 2zm21-23v5m0 8v8m-3-34h-3m11 0h-2" class="st2"/><circle cx="277.8" cy="379.6" r="11" class="st2"/><path d="M291 399v4h-27v-5c0-2 3-4 5-4h17c3 0 5 2 5 5zm-23-24 17-4m-28 45 8-9m33 10 2 2c2 1 3 0 3-2l-2-2c-2 0-3 1-3 2zm-22 0 2 2c1 1 2 0 2-2l-2-2-2 2zm23-1-9-9" class="st2"/></g><g class="st1"><path d="m442 356-2 2c-2 0-3-1-3-2s1-2 3-2l2 2zm20-24v6m0 8v8m-2-35h-3m11 0h-3" class="st2"/><circle cx="462.4" cy="318.1" r="11" class="st2"/><path d="M476 337v5h-27v-5c0-3 2-5 5-5h17c3 0 5 2 5 5zm-23-23 16-4m-28 44 9-8m33 10 2 2 2-2-2-2-2 2zm-23 0 2 2c2 0 3-1 3-2l-2-2c-2 0-3 1-3 2zm24-2-9-8" class="st2"/></g><g class="st1"><path d="m900 286-2 2-2-2 2-2 2 2zm9 0-2 2-2-2c0-1 0-2 2-2l2 2zm-9-17-2 2-2-2 2-2 2 2zm9 0-2 2-2-2c0-1 0-2 2-2l2 2zm-9-17-2 2-2-2 2-2 2 2zm9 0-2 2-2-2c0-1 0-2 2-2l2 2z" class="st2"/><path d="M916 247c0-2-2-3-3-3h-41c-1 0-2 1-2 3v45l2 2h41c1 0 3-1 3-3v-44zm-40 14h34m-34 16h34m-26 17v4h-7v-4m32 0v4h-7v-4" class="st2"/></g><g class="st1"><path d="m531 409-2 2-2-2 2-2c1 0 2 0 2 2zm9 0-2 2-2-2 2-2c1 0 2 0 2 2zm-9-17-2 2-2-2 2-2 2 2zm9 0-2 2-2-2 2-2 2 2zm-9-17-2 2-2-2 2-2 2 2zm9 0-2 2-2-2 2-2 2 2z" class="st2"/><path d="m547 369-3-2h-41l-2 2v45c0 2 1 3 2 3h41c1 0 3-1 3-3v-45zm-40 15h34m-34 16h34m-26 17v4h-7v-4m32 0v4h-7v-4" class="st2"/></g><g class="st1"><path d="m1207 347-2 2-2-2 2-2 2 2zm9 0-2 2-2-2 2-2 2 2zm-9-16-2 2-2-2c0-2 1-3 2-3l2 2zm9 0-2 2-2-2c0-2 1-3 2-3l2 2zm-9-17-2 2-2-2 2-2 2 2zm9 0-2 2-2-2 2-2 2 2z" class="st2"/><path d="m1223 308-2-2h-41c-2 0-3 1-3 2v45c0 1 1 2 3 2h41l2-2v-45zm-40 15h34m-34 16h34m-26 16v4h-7v-4m32 0v4h-7v-4" class="st2"/></g><g class="st1"><path d="m524 247-3 3c-2 0 0 2 0 2l-2 2-4 2h-4l1-3 2-1v-3m-7 4v7l-1 7-3 1-3 1m0 7 3-1 3 2v1l2 3h1l3 1 1 1v1l-1 1v2l1 2 1 1 3 1 3 4m17-45-3 4v3l-2 1-3 1-1 3-3 2-1 4-3 5v2l2 3 3-1 2 1v3l1 1v1l-1 2h-1l1 3 2 2 2-1 2-4 3-3 2-3 1-3v-2l-1-1v-1l2-1 1 3 3-1h0l3-1" class="st2"/><path d="M524 247c14 0 24 12 24 24a24 24 0 1 1-24-24z" class="st2"/></g><g class="st1"><path d="m155 370-3 2c-2 1 0 2 0 2l-2 3-4 2-4-1 1-2 2-1v-3m-7 4v7l-1 7-3 1-3 1m0 7 3-1 3 2v1l2 3h1l3 1h1v2l-1 1v2l1 2 1 1 3 1 3 4m17-45-4 4 1 2v1l-2 1-3 1-1 3-2 2-2 4-3 5v2l2 3 3-1 2 1v3l1 1v1l-1 2h-1l1 3 2 2 2-1 2-4 3-3 2-3 1-3v-2l-1-1v-1l2-1 1 3 3-1h0l3-1" class="st2"/><path d="M155 370c14 0 24 11 24 24a24 24 0 1 1-24-24z" class="st2"/></g><g class="st1"><path d="m1077 308-2 3c-2 1 0 2 0 2l-3 3-3 1h-4v-2l2-2 1-2-1-1m-6 5v6h-1l-1 7-3 1-3 2m1 7 3-2 3 2-1 1 3 3h0l3 1 1 1v1l-1 2v2l2 1v1l3 2 3 4m17-45-3 4 1 2h-1l-2 1-2 1-2 3-2 2-2 4-2 5v3l2 2 2-1 2 1v3l2 1-1 1-1 2v3l2 3 3-2 1-3 3-4 2-2 2-4-1-2-1-1 1-1 2-1 1 3h2v-1l3-1" class="st2"/><path d="M1077 308c14 0 25 12 25 25a24 24 0 1 1-25-25z" class="st2"/></g><g class="st1"><path d="m1151 265-1 1-2-1 1-2c2 0 2 1 2 2zm0 13-1 2-2-2 1-2c2 0 2 1 2 2zm8-26c0 4-9 7-20 7s-20-3-20-7c0-3 9-6 20-6s20 3 20 6z" class="st2"/><path d="M1159 266c0 3-9 6-20 6s-20-3-20-6m40 13c0 3-9 6-20 6s-20-2-20-6m0 0v-27m40 27v-27m-19 42-2 2c-1 1-2 0-2-2l2-2 2 2zm-2-6v4m-13 2h11m4 0h12" class="st2"/></g><g class="st1"><path d="m782 386-1 2-2-2 1-2 2 2zm0 13-1 2-2-2 1-2 2 2zm8-26c0 4-9 7-20 7s-20-3-20-7c0-3 9-6 20-6s20 3 20 6z" class="st2"/><path d="M790 387c0 3-9 6-20 6s-20-3-20-6m40 13c0 4-9 7-20 7s-20-3-20-7m0 0v-27m40 27v-27m-19 43-2 2-2-2c0-2 1-3 2-3l2 2zm-2-7v4m-13 3h11m4 0h12" class="st2"/></g><g class="st1"><path d="m844 326-2 2-2-2 2-2 2 2zm0 14-2 1-2-1 2-2 2 2zm7-26c0 3-9 6-20 6s-20-3-20-6c0-4 9-7 20-7s20 3 20 7z" class="st2"/><path d="M851 327c0 4-9 7-20 7s-20-3-20-7m40 13c0 4-9 7-20 7s-20-3-20-7m0 0v-26m40 26v-26m-18 42-2 2-2-2c0-1 0-2 2-2s2 1 2 2zm-2-6v4m-14 2h12m4 0h11" class="st2"/></g><g class="st1"><path d="m1403 277-2 2-2-2 2-2 2 2z" class="st2"/><path d="m1409 282-2 2h-36l-2-2v-10l2-2h36l2 2v10zm-36-22v-1c1-7 7-12 14-12h-1a13 13 0 0 1 9 23" class="st2"/><path d="M1386 252c-4 0-7 3-8 7v1m-9-5a9 9 0 1 0 0 18m23 20-2 2-2-2c0-1 0-2 2-2l2 2zm-2-6v4m-14 2h12m4 0h11" class="st2"/></g><g class="st1"><path d="m1156 400-2 2-2-2 2-2 2 2z" class="st2"/><path d="m1163 405-2 2h-36l-2-2v-10l2-2h36l2 2v10zm-36-22v-1c0-7 6-12 13-12h0a13 13 0 0 1 9 23" class="st2"/><path d="M1140 375c-4 0-8 3-8 7v1m-9-5a9 9 0 1 0 0 18m22 20-2 2-2-2 2-2 2 2zm-2-6v4m-13 2h11m4 0h12" class="st2"/></g><g class="st1"><path d="M90 332v-7H76v6m0-8h14v-14l-14 2zm16-14v13h19v-16zm19 23v-7H92v6m16 8-2 2c-1 0-2 0-2-2l2-2 2 2z" class="st2"/><path d="m115 345-2 2H74l-2-2v-11l2-2h39c1 0 2 0 2 2v11zm-20 12c0 1 0 2-2 2l-2-2 2-2c2 0 2 1 2 2zm-2-6v4m-13 2h11m4 0h12" class="st2"/></g><g class="st1"><path d="M178 266h-47l-1 1v3l1 1h2v24l1 1h40l1-1v-24h3l1-1v-3l-1-1zm-33 0 7-20m5 1 7 19m-19 11v14m19-14v14" class="st2"/></g><g class="st1"><path d="M424 389h-46l-2 1v3l1 1h3v23l1 2h40l1-2v-23h2l1-1v-3l-1-1zm-33 0 7-20m5 0 7 20m-19 11v14m19-14v14" class="st2"/></g><g class="st1"><path d="M1346 327h-46l-1 1v4l1 1h2v23l1 1h40l1-1v-23h2l2-1v-4l-2-1zm-32 0 7-19m5 0 6 19m-18 12v13m18-13v13" class="st2"/></g><g class="st1"><path d="M287 268c-5 0-10 4-10 10m-12-6a12 12 0 0 0 0 23h22a17 17 0 0 0 0-33h0c-9 0-17 5-17 16" class="st2"/><circle cx="265.5" cy="254.1" r="2.1" class="st2"/><path d="m264 272-1-4c0-3 2-6 5-6s5 2 6 6" class="st2"/><circle cx="271.1" cy="254.1" r="2.1" class="st2"/><path d="m266 258 2 1 3-1" class="st2"/><path d="M279 263c-2-3-4-6-4-9v0a7 7 0 0 0-13 0v0c0 5-11 16-9 18" class="st2"/></g><g class="st1"><path d="M102 210c-5 0-10 4-10 10m-11-7a12 12 0 0 0 0 23h21a17 17 0 0 0 0-33h0c-8 0-16 6-16 17" class="st2"/><circle cx="81.1" cy="195.5" r="2.1" class="st2"/><path d="M79 213v-3c0-4 2-7 5-7s5 3 5 6" class="st2"/><circle cx="86.7" cy="195.5" r="2.1" class="st2"/><path d="m81 199 3 2 3-2" class="st2"/><path d="m95 205-5-9v0a7 7 0 0 0-13 0v0c0 5-10 15-9 17" class="st2"/></g><g class="st1"><path d="M594 330c-5 0-10 4-10 10m-11-7a12 12 0 0 0 0 23h21a17 17 0 0 0 0-33h0c-8 0-16 6-16 17" class="st2"/><circle cx="573.1" cy="315.6" r="2.1" class="st2"/><path d="M571 333v-3c0-4 2-7 5-7s5 3 5 6" class="st2"/><circle cx="578.7" cy="315.6" r="2.1" class="st2"/><path d="m573 319 3 2 3-2" class="st2"/><path d="m587 325-5-9v0a7 7 0 0 0-13 0v0c0 5-10 15-9 17" class="st2"/></g><g class="st1"><path d="m1260 256-6 1c-3-4-7-5-12-4l-1 1v1c2 2 3 5 3 7l-3 5h-1c-2 0-4 2-4 3v7c0 2 2 4 4 4h3l2 2v8c0 2 1 4 3 4h4c2 0 3-2 3-4v-3c6 2 12 2 18 0v3c0 2 1 4 3 4h3c2 0 4-2 4-4v-9c3-3 4-6 4-10 0-6-5-12-12-14" class="st2"/><circle cx="1267.6" cy="252.9" r="5.5" class="st2"/></g><g class="st1"><path d="m1014 379-6 1c-3-4-7-5-12-4l-1 1v1c3 2 4 5 3 7l-3 5h-1c-2 0-4 1-4 3v7c0 2 2 4 4 4h3l2 2v8c0 2 1 3 3 3h4c2 1 3-1 3-3v-3c6 2 12 2 18 0v3c0 2 1 4 3 4h3c2 0 4-2 4-4v-9c3-3 4-6 4-10 0-6-5-12-12-14" class="st2"/><circle cx="1021.7" cy="375.9" r="5.5" class="st2"/></g><g class="st1"><path d="m706 317-5 1c-3-4-7-5-13-3h-1l1 2c2 2 3 4 3 7l-3 4h-2c-1 0-3 2-3 4v7c0 2 2 3 3 3h4l2 2v9c0 1 1 3 3 3h3c2 0 4-1 4-3v-3c5 2 12 1 17 0v3c0 2 2 3 4 3h3c2 0 3-1 3-3v-9c3-3 5-7 5-10 0-6-5-12-12-15" class="st2"/><circle cx="714.3" cy="314.4" r="5.5" class="st2"/></g><g class="st1"><path d="M216 316v6m-18 7h36v28h-36zm18 0v28m-17-14h35m-27-21-2-5a6 6 0 1 1 11 0m0-1c0-4 3-7 7-7s8 3 8 7l-2 5m-35 1h44" class="st2"/></g><g class="st1"><path d="M1393 391c-5 0-10 4-10 10m-12-7a12 12 0 0 0 0 23h22a17 17 0 0 0 0-33h0c-9 0-17 6-17 17" class="st2"/><circle cx="1371.7" cy="376.7" r="2.1" class="st2"/><path d="m1370 394-1-3c0-4 2-7 5-7s6 3 6 6" class="st2"/><circle cx="1377.3" cy="376.7" r="2.1" class="st2"/><path d="m1372 381 3 1 2-1" class="st2"/><path d="m1385 386-4-9v0a7 7 0 0 0-13 0v0c0 5-10 15-9 17" class="st2"/></g><g class="st1"><path d="M636 529h-4l-1-5m26 5h-12m-23-33h9" class="st2"/><path d="m668 519-36 5s0 0 0 0l-4-24s0 0 0 0h44l-4 19h-1m-28-13v9m7-9v9m7-9v9m7-9v9m-15 17a5 5 0 1 1-5-5c3 0 5 2 5 5m21 0a5 5 0 1 1-5-5c3 0 5 2 5 5" class="st2"/></g><g class="st1"><path d="M1312 225h-3s0 0 0 0l-1-5m25 5h-12m-23-33h9" class="st2"/><path d="m1344 215-36 6v-1l-4-24h44l-4 19s0 0 0 0m-29-13v10m7-10v10m7-10v10m7-10v10m-15 16a5 5 0 1 1-9 0 5 5 0 0 1 9 0m22 0a5 5 0 1 1-10 0 5 5 0 0 1 10 0" class="st2"/></g><g class="st1"><path d="M54 507c1 0 2 1 2 3v29l-2 2H10l-2-2v-29c0-2 1-3 2-3" class="st2"/><path d="m54 507-22 17-22-17m44 0-22-16-22 16m15 12L9 540m30-21 16 21" class="st2"/></g><g class="st1"><path d="M361 569c2 0 3 1 3 2v29c0 1-1 2-3 2h-44l-2-2v-29l2-2" class="st2"/><path d="m361 569-22 16-22-16m44 0-22-16-22 16m15 11-16 21m30-21 16 21" class="st2"/></g><path d="M376 508c0-11 6-13 14-13 4 0 8 2 11 6 2-4 6-6 11-6 7 0 13 2 13 13s-24 30-24 30-25-19-25-30zm554 61c0-11 6-13 13-13 5 0 9 2 11 6 3-4 7-6 11-6 8 0 14 3 14 13 0 11-25 30-25 30s-24-18-24-30z" class="promopath0"/><g class="st1"><path d="m1032 521-2 2-2-2 2-2 2 2z" class="st2"/><circle cx="1015.7" cy="538.9" r="2.1" class="st2"/><path d="m1040 528-2 2h-44c-2 0-3-1-3-2v-13c0-2 1-3 3-3h44c1 0 2 1 2 3v13zm-8-28-2 2-2-2 2-2 2 2z" class="st2"/><path d="m1040 507-2 2h-44c-2 0-3-1-3-3v-13c0-1 1-2 3-2h44l2 2v13zm-24 26v4m-17 2h15m4 0h14" class="st2"/></g><g class="st1"><path d="m749 539-2 2c-1 1-2 0-2-2l2-2 2 2zm21-23v5m0 8v8m-3-34h-3m11 0h-2" class="st2"/><circle cx="769.7" cy="501.6" r="11" class="st2"/><path d="M783 521v4h-27v-5c0-2 3-4 5-4h17c3 0 5 2 5 5zm-23-24 17-4m-29 45 9-9m33 10 2 2c2 1 2 0 2-2 1-1 0-2-2-2l-2 2zm-22 0 2 2c1 1 2 0 2-2l-2-2-2 2zm23-1-9-9" class="st2"/></g><g class="st1"><path d="m442 601-2 2c-2 0-3-1-3-2s1-2 3-2l2 2zm20-24v6m0 8v8m-2-35h-3m11 0h-3" class="st2"/><circle cx="462.4" cy="563.1" r="11" class="st2"/><path d="M476 582v5h-27v-5c0-3 2-5 5-5h17c3 0 5 2 5 5zm-23-23 16-4m-28 44 9-8m33 10 2 2 2-2-2-2-2 2zm-23 0 2 2c2 0 3-1 3-2l-2-2c-2 0-3 1-3 2zm24-2-9-8" class="st2"/></g><g class="st1"><path d="m900 531-2 2-2-2 2-2 2 2zm9 0-2 2-2-2c0-1 0-2 2-2l2 2zm-9-17-2 2-2-2 2-2 2 2zm9 0-2 2-2-2c0-1 0-2 2-2l2 2zm-9-17-2 2-2-2 2-2 2 2zm9 0-2 2-2-2c0-1 0-2 2-2l2 2z" class="st2"/><path d="m916 491-3-2h-41l-2 2v45c0 2 1 3 2 3h41c1 0 3-1 3-3v-45zm-40 15h34m-34 16h34m-26 17v4h-7v-4m32 0v4h-7v-4" class="st2"/></g><g class="st1"><path d="m1207 592-2 2-2-2 2-2 2 2zm9 0-2 2-2-2 2-2 2 2zm-9-17-2 2c-1 1-2 0-2-2l2-2 2 2zm9 0-2 2c-1 1-2 0-2-2l2-2 2 2zm-9-16-2 2-2-2 2-2 2 2zm9 0-2 2-2-2 2-2 2 2z" class="st2"/><path d="m1223 553-2-2h-41c-2 0-3 1-3 2v45c0 1 1 2 3 2h41l2-2v-45zm-40 14h34m-34 16h34m-26 17v4h-7v-4m32 0v4h-7v-4" class="st2"/></g><g class="st1"><path d="m524 492-3 3c-2 0 0 2 0 2l-2 2-4 2-4-1 1-2 2-1v-3m-7 4v7l-1 7-3 1-3 1m0 7 3-1 3 2v1l2 3h1l3 1h1v2l-1 1v2l1 2 1 1 3 1 3 4m17-45-3 4v3l-2 1-3 1-1 3-3 2-1 4-3 5v2l2 3 3-1 2 1v3l1 1v1l-1 2h-1l1 3 2 2 2-1 2-4 3-3 2-3 1-3v-2l-1-1v-1l2-1 1 3 3-1h0l3-1" class="st2"/><path d="M524 492c14 0 24 12 24 24a24 24 0 1 1-24-24z" class="st2"/></g><g class="st1"><path d="m1077 553-2 3c-2 1 0 2 0 2l-3 2-3 2h-4v-2l2-2 1-2-1-1m-6 5v6h-1l-1 7-3 1-3 2m1 7 3-2 3 2-1 1 3 3h0l3 1 1 1v1l-1 2v2l2 2h0l3 2 3 4m17-45-3 4 1 2h-1l-2 1-2 1-2 3-2 2-2 4-2 5v3l2 2 2-1 2 1v3l2 1-1 1-1 2v3l2 3 3-2 1-3 3-4 2-2 2-4-1-2-1-1 1-1 2-1 1 3h2v-1l3-1" class="st2"/><path d="M1077 553c14 0 25 12 25 25a24 24 0 1 1-25-25z" class="st2"/></g><g class="st1"><path d="m1151 510-1 1-2-1 1-2c2 0 2 1 2 2zm0 13-1 2-2-2 1-2c2 0 2 1 2 2zm8-26c0 4-9 7-20 7s-20-3-20-7 9-6 20-6 20 2 20 6z" class="st2"/><path d="M1159 511c0 3-9 6-20 6s-20-3-20-6m40 13c0 3-9 6-20 6s-20-3-20-6m0 0v-27m40 27v-27m-19 42-2 2c-1 1-2 0-2-2l2-2 2 2zm-2-6v4m-13 2h11m4 0h12" class="st2"/></g><g class="st1"><path d="m844 571-2 2-2-2 2-2 2 2zm0 14-2 1-2-1 2-2 2 1zm7-26c0 3-9 6-20 6s-20-3-20-6c0-4 9-7 20-7s20 3 20 7z" class="st2"/><path d="M851 572c0 4-9 7-20 7s-20-3-20-7m40 13c0 4-9 7-20 7s-20-3-20-7m0 0v-26m40 26v-26m-18 42-2 2-2-2c0-1 0-2 2-2s2 1 2 2zm-2-6v4m-14 2h12m4 0h11" class="st2"/></g><g class="st1"><path d="m1403 522-2 2-2-2 2-2 2 2z" class="st2"/><path d="m1409 527-2 2h-36l-2-2v-10c0-2 1-2 2-2h36l2 2v10zm-36-22v-1c1-7 7-12 14-12h-1a13 13 0 0 1 9 23" class="st2"/><path d="M1386 497c-4 0-7 3-8 7v1m-9-5a9 9 0 1 0 0 18m23 20-2 2-2-2c0-1 0-2 2-2l2 2zm-2-6v4m-14 2h12m4 0h11" class="st2"/></g><g class="st1"><path d="M90 577v-7H76v6m0-8h14v-14l-14 2zm16-14v13h19v-16zm19 23v-7H92v6m16 8-2 2-2-2 2-2 2 2z" class="st2"/><path d="m115 590-2 2H74l-2-2v-11c0-2 1-3 2-3h39l2 2v12zm-20 12c0 1 0 2-2 2l-2-2 2-2c2 0 2 1 2 2zm-2-7v4m-13 3h11m4 0h12" class="st2"/></g><g class="st1"><path d="M178 511h-47l-1 1v3l1 1h2v23l1 2h40l1-2v-23h3l1-1v-3l-1-1zm-33 0 7-19m5 0 7 19m-19 11v14m19-14v14" class="st2"/></g><g class="st1"><path d="M1346 572h-46l-1 1v4l1 1h2v23l1 1h40l1-1v-23h2l2-1v-4l-2-1zm-32 0 7-19m5 0 6 19m-18 12v13m18-13v13" class="st2"/></g><g class="st1"><path d="M287 513c-5 0-10 4-10 10m-12-6a12 12 0 0 0 0 23h22a17 17 0 0 0 0-33h0c-9 0-17 5-17 16" class="st2"/><circle cx="265.5" cy="499" r="2.1" class="st2"/><path d="m264 517-1-4c0-3 2-6 5-6s5 2 6 6" class="st2"/><circle cx="271.1" cy="499" r="2.1" class="st2"/><path d="m266 503 2 1 3-1" class="st2"/><path d="M279 508c-2-3-4-6-4-9v0a7 7 0 0 0-13 0v0c0 5-11 15-9 18" class="st2"/></g><g class="st1"><path d="M594 575c-5 0-10 4-10 10m-11-7a12 12 0 0 0 0 23h21a17 17 0 0 0 0-33h0c-8 0-16 6-16 17" class="st2"/><circle cx="573.1" cy="560.5" r="2.1" class="st2"/><path d="M571 578v-3c0-4 2-7 5-7s5 3 5 6" class="st2"/><circle cx="578.7" cy="560.5" r="2.1" class="st2"/><path d="m573 564 3 2 3-2" class="st2"/><path d="m587 570-5-9v-1a7 7 0 0 0-13 1v0c0 4-10 15-9 17" class="st2"/></g><g class="st1"><path d="m1260 501-6 1c-3-4-7-5-12-4l-1 1v1c2 2 3 5 3 7l-3 5h-1c-2 0-4 1-4 3v7c0 2 2 4 4 4h3l2 2v8c0 2 1 3 3 3h4c2 0 3-1 3-3v-3c6 2 12 2 18 0v3c0 2 1 4 3 4h3c2 0 4-2 4-4v-9c3-3 4-6 4-10 0-6-5-12-12-15" class="st2"/><circle cx="1267.6" cy="497.8" r="5.5" class="st2"/></g><g class="st1"><path d="m706 562-5 1c-3-3-7-5-13-3l-1 1 1 1c2 2 3 4 3 7-1 1-3 3-3 5h-2c-1 0-3 1-3 3v7c0 2 2 3 3 3h4l2 2v9c0 2 1 3 3 3h3c2 0 4-1 4-3v-3h17v3c0 2 2 3 4 3h3c2 0 3-1 3-3v-9c3-3 5-7 5-10 0-7-5-12-12-15" class="st2"/><circle cx="714.3" cy="559.3" r="5.5" class="st2"/></g><g class="st1"><path d="M216 561v6m-18 6h36v28h-36zm18 0v28m-17-14h35m-27-20-2-5a6 6 0 1 1 11 0m0-1c0-4 3-7 7-7s8 3 8 7l-2 5m-35 1h44" class="st2"/></g><g class="st1"><path d="M1209 209c-5 0-10 4-10 10m-11-6a12 12 0 0 0 0 23h21a17 17 0 0 0 0-33h0c-8 0-17 5-17 16" class="st2"/><circle cx="1187.9" cy="194.9" r="2.1" class="st2"/><path d="m1186 213-1-4c0-4 3-7 6-7 3 1 5 3 5 6" class="st2"/><circle cx="1193.5" cy="194.9" r="2.1" class="st2"/><path d="m1188 199 3 1 3-1" class="st2"/><path d="M1202 204c-3-3-5-7-5-9v0a7 7 0 0 0-13 0v0c0 5-10 15-9 18" class="st2"/></g><g class="st1"><path d="M451 469h-2l-1-1-1-5m25 6h-12m-23-34h9" class="st2"/><path d="m483 459-35 5h-1l-3-24v-1h43v1l-4 18v1m-29-13v9m8-9v9m7-9v9m7-9v9m-15 16a5 5 0 1 1-10 0 5 5 0 0 1 10 0m21 0a5 5 0 1 1-5-4c3 0 5 2 5 4" class="st2"/></g><g class="st1"><path d="M238 447c2 0 3 1 3 2v29c0 2-1 3-3 3h-44c-1 0-2-1-2-3v-29l2-2" class="st2"/><path d="m238 447-22 16-22-16m44 0-22-16-22 16m15 12-16 20m30-20 17 20" class="st2"/></g><g class="st1"><path d="m1056 479-2 2-2-2 2-2 2 2zm21-24v6m0 8v8m-3-35h-2m10 0h-2" class="st2"/><circle cx="1077" cy="441.1" r="11" class="st2"/><path d="M1090 460v5h-26v-5c0-3 2-5 5-5h17c2 0 4 2 4 5zm-23-23 17-4m-28 44 8-8m34 10c0 1 0 2 2 2l2-2-2-2c-2 0-3 1-3 2zm-23 0 2 2 2-2-2-2-2 2zm23-2-9-8" class="st2"/></g><g class="st1"><path d="m340 432-3 2c-2 1 0 2 0 2l-3 3-3 2-4-1v-2l3-1v-3m-7 4v6l-1 1-1 6-2 1-4 2m1 7 3-1 3 2h-1l3 3h1l2 2h1v1l-1 2v2l2 2h1l3 2 2 4m17-45-3 4 1 2-1 1-2 1-2 1-2 2-2 2-2 5-2 5v2l2 3 3-2 1 1 1 3 1 2v1l-1 2h-1v3l3 2 2-2 1-3 4-3 2-3 1-3-1-2-1-1 1-1 2-2 1 4 2-1v-1h4" class="st2"/><path d="M339 432c15 0 25 11 25 24a24 24 0 1 1-25-24z" class="st2"/></g><g class="st1"><path d="m598 449-2 2-2-2 2-1 2 1zm0 14-2 2-2-2 2-2 2 2zm7-26c0 3-9 6-20 6-11 1-20-2-20-6s9-7 20-7 20 3 20 7z" class="st2"/><path d="M605 450c0 4-9 7-20 7s-20-3-20-7m40 14c0 3-9 6-20 6s-20-3-20-6m0 0v-27m40 27v-27m-18 42-2 2-2-2c0-1 0-2 2-2s2 1 2 2zm-2-6v4m-14 2h12m4 0h11" class="st2"/></g><g class="st1"><path d="M976 447c2 0 3 1 3 2v29c0 2-1 3-3 3h-44c-1 0-2-1-2-3v-29l2-2" class="st2"/><path d="m976 447-22 16-22-16m44 0-22-16-22 16m15 12-16 20m30-20 16 20" class="st2"/></g><path d="M807 448c0-12 6-14 13-14 5 0 9 3 11 6 3-3 7-6 11-6 8 0 14 3 14 14 0 10-25 29-25 29s-24-18-24-29z" class="promopath0"/><g class="st1"><path d="M725 461c0 1-1 2-3 2l-2-2 2-2 2 2z" class="st2"/><circle cx="708.2" cy="478.6" r="2.1" class="st2"/><path d="M733 468c0 1-1 2-3 2h-44l-3-2v-13c0-2 2-3 3-3h44c2 0 3 1 3 3v13zm-8-28c0 1-1 2-3 2l-2-2 2-2 2 2z" class="st2"/><path d="M733 446c0 1-1 3-3 3h-44l-3-3v-13l3-2h44c2 0 3 1 3 2v13zm-25 27v3m-16 3h14m4 0h14" class="st2"/></g><g class="st1"><path d="M102 454c-5 0-10 4-10 10m-11-7a12 12 0 0 0 0 23h21a17 17 0 0 0 0-33h0c-8 0-16 6-16 16" class="st2"/><circle cx="81.1" cy="439.3" r="2.1" class="st2"/><path d="M79 457v-3c0-4 2-7 5-7s5 2 5 6" class="st2"/><circle cx="86.7" cy="439.3" r="2.1" class="st2"/><path d="m81 443 3 1 3-1" class="st2"/><path d="M95 448c-2-3-5-6-5-8v-1a7 7 0 0 0-13 0v1c0 4-10 15-9 17" class="st2"/></g><g class="st1"><path d="M1312 469h-3s0 0 0 0l-1-5m25 5h-12m-23-33h9m37 23-36 5s0 0 0 0l-4-24h44l-4 19s0 0 0 0m-29-13v9m7-9v9m7-9v9m7-9v9m-15 17a5 5 0 1 1-9 0 5 5 0 0 1 9 0m22 0a5 5 0 1 1-10 0 5 5 0 0 1 10 0" class="st2"/></g><g class="st1"><path d="M1209 453c-5 0-10 4-10 10m-11-7a12 12 0 0 0 0 23h21a17 17 0 0 0 0-33h0c-8 0-17 6-17 17" class="st2"/><circle cx="1187.9" cy="438.7" r="2.1" class="st2"/><path d="m1186 456-1-3c0-4 3-7 6-7s5 3 5 6" class="st2"/><circle cx="1193.5" cy="438.7" r="2.1" class="st2"/><path d="m1188 443 3 1 3-1" class="st2"/><path d="m1202 448-5-9v0a7 7 0 0 0-13 0v0c0 5-10 15-9 17" class="st2"/></g><g class="st1"><path d="M1469 84h-46l-1 1v3l1 1h2v23l1 1h40l1-1V89h2l1-1v-3l-1-1zm-32 0 7-20m5 0 6 20m-18 11v14m18-14v14" class="st2"/></g><g class="st1"><path d="M1469 327h-46l-1 1v4l1 1h2v23l1 1h40l1-1v-23h2l1-1v-4l-1-1zm-32 0 7-19m5 0 6 19m-18 12v13m18-13v13" class="st2"/></g><g class="st1"><path d="M1435 225h-3s0 0 0 0l-1-5m25 5h-12m-23-33h9" class="st2"/><path d="m1467 215-36 6v-1l-4-24h44l-4 19s0 0 0 0m-29-13v10m7-10v10m7-10v10m7-10v10m-15 16a5 5 0 1 1-9 0 5 5 0 0 1 9 0m21 0a5 5 0 1 1-9 0 5 5 0 0 1 9 0" class="st2"/></g><g class="st1"><path d="M1469 572h-46l-1 1v4l1 1h2v23l1 1h40l1-1v-23h2l1-1v-4l-1-1zm-32 0 7-19m5 0 6 19m-18 12v13m18-13v13" class="st2"/></g><g class="st1"><path d="M1435 469h-3s0 0 0 0l-1-5m25 5h-12m-23-33h9m37 23-36 5s0 0 0 0l-4-24h44l-4 19s0 0 0 0m-29-13v9m7-9v9m7-9v9m7-9v9m-15 17a5 5 0 1 1-9 0 5 5 0 0 1 9 0m21 0a5 5 0 1 1-9 0 5 5 0 0 1 9 0" class="st2"/></g></svg>