<svg version="1.1" id="Layer_1" xmlns="http://www.w3.org/2000/svg" x="0" y="0" viewBox="0 0 1105.7 406" style="enable-background:new 0 0 1105.7 406" xml:space="preserve"><style>.quarantine0,.quarantine1,.quarantine2,.quarantine3{stroke-linecap:round;stroke-linejoin:round;stroke-miterlimit:10}.quarantine0{fill:#fff;stroke:#ee5586;stroke-width:2}.quarantine1,.quarantine2,.quarantine3{fill:none;stroke:gray}.quarantine2,.quarantine3{stroke-width:2}.quarantine3{fill:#fff;stroke:#ee5586;stroke-width:3}</style><path id="svg-concept" class="quarantine0" d="M977.7 251.4h127M690.1 251.4h187.6M226 251.4h182.3M-.8 251.4H126"/><path class="quarantine1" d="m18 255.3-10.1-10m5.6 13.6V243M11 253.2l4.9-4.9m83.6 7-10-10m5.5 13.6V243m-2.4 10.2 4.9-4.9m205.9 7-10.1-10m5.6 13.6V243m-2.5 10.2 4.9-4.9M384.9 255.3l-10-10m5.5 13.6V243m-2.4 10.2 4.9-4.9M751.9 255.3l-10.1-10m5.6 13.6V243m-2.5 10.2 4.9-4.9M833.4 255.3l-10-10m5.5 13.6V243m-2.4 10.2 4.9-4.9M1037.3 255.3l-10.1-10m5.6 13.6V243m-2.5 10.2 4.9-4.9"/><path id="svg-concept" class="quarantine0" d="M984.3 191.4h120.4M655.3 191.4h216.8M232.6 191.4h212.2M-.8 191.4h120.2"/><path class="quarantine1" d="m78.1 195.2-10.1-10m5.6 13.6v-15.9m-2.5 10.3 4.9-5m246.7 7-10-10m5.5 13.6v-15.9m-2.5 10.3 5-5M404.2 195.2l-10-10m5.5 13.6v-15.9m-2.4 10.3 4.9-5M730.4 195.2l-10-10m5.5 13.6v-15.9m-2.4 10.3 4.9-5M811.9 195.2l-10-10m5.6 13.6v-15.9m-2.5 10.3 4.9-5M1056.6 195.2l-10.1-10m5.6 13.6v-15.9m-2.5 10.3 4.9-5"/><path id="svg-concept" class="quarantine0" d="M620.4 131.3h484.3M-.8 131.3h480.5"/><path class="quarantine1" d="m18 135.1-10.1-10m5.6 13.6v-15.9M11 133.1l4.9-4.9m83.6 6.9-10-10m5.5 13.6v-15.9m-2.4 10.3 4.9-4.9m83.6 6.9-10.1-10m5.6 13.6v-15.9m-2.5 10.3 4.9-4.9m83.6 6.9-10-10m5.5 13.6v-15.9m-2.4 10.3 4.9-4.9m83.5 6.9-10-10m5.6 13.6v-15.9m-2.5 10.3 4.9-4.9M425.7 135.1l-10-10m5.5 13.6v-15.9m-2.5 10.3 5-4.9M670.3 135.1l-10-10m5.5 13.6v-15.9m-2.4 10.3 4.9-4.9M751.9 135.1l-10.1-10m5.6 13.6v-15.9m-2.5 10.3 4.9-4.9M833.4 135.1l-10-10m5.5 13.6v-15.9m-2.4 10.3 4.9-4.9M914.9 135.1l-10-10m5.6 13.6v-15.9m-2.5 10.3 4.9-4.9M996.5 135.1l-10-10m5.5 13.6v-15.9m-2.5 10.3 5-4.9M1078 135.1l-10-10m5.5 13.6v-15.9m-2.4 10.3 4.9-4.9M185.7 74.7h-18.6V60l9.5-51.1 9.1 51.1v14.7zM176 277.1l.6 128.9M176.6 63.7v90.4M937 74.7h-18.6V60l9.5-51.1L937 60v14.7zM927.9 277.1V406M927.9 63.7v90.4"/><circle class="quarantine2" cx="927.7" cy="215.6" r="61.5"/><path class="quarantine1" d="M955 222.3c.2-1.3.3-2.7.3-4l-.2-3.5 7.3-4.6c.3-.5.1-1.2-.4-1.5l-8 1-1-2.7 11.7-11.3c.2-.6-.1-1.2-.7-1.3l-15.6 5.4a28.1 28.1 0 0 0-3.5-3.4l4.8-9.9c0-.6-.5-1-1.1-1l-9.1 7.4a28 28 0 0 0-10-2.7l-6.1-15.3c-.5-.4-1.1-.3-1.5.1l-.8 15.8-1.7.5-2.8-4c-.5-.3-1.2 0-1.4.5l.9 4.8c-3 1.4-5.8 3.3-8.1 5.6l-15.7-6.6c-.6.1-1 .6-1 1.2l11.4 12.6-.4.8-10.9.1c-.5.3-.7.9-.4 1.5l9.4 4.2a28 28 0 0 0 1.2 16.3L891 238.6c-.2.6.1 1.2.7 1.3l13.8-4.7c1.3 1.7 2.8 3.3 4.4 4.6l-3.9 8c0 .6.5 1 1.1 1l7.3-5.9 2 1 3.4 1.2c2.5.7 5.1 1.1 7.8 1.1l3.9 9.8c.4.4 1.1.3 1.5-.1l.5-10.3 3.9-1.1 1.8 2.5c.5.3 1.2 0 1.4-.5l-.6-3.1c3.4-1.7 6.3-4 8.8-6.8l14.7 6.2c.6-.1 1-.6 1-1.2l-11.2-12.3.4-1.1 10.7-.1c.5-.3.7-.9.4-1.5l-9.8-4.3h0z"/><path id="svg-concept" class="quarantine3" d="M971.3 172.2 884.5 259"/><circle class="quarantine2" cx="176" cy="215.6" r="61.5"/><path class="quarantine1" d="M207.1 218.2h7.8m-77.7 0h7.8m58-15.5 6.7-3.9m-67.3 38.9 6.7-3.9m0-31.1-6.7-3.9m67.3 38.9-6.7-3.9m-27-46.6a31 31 0 1 1 0 62.1 31 31 0 0 1 0-62.1zm-17.8 5.6a31 31 0 0 0 35.6 0m-11.2-2.2c0-6.2 5-11.2 11.2-11.2m-24.3 11.2c0-6.2-5-11.2-11.2-11.2"/><path id="svg-concept" class="quarantine3" d="M219.6 172.2 132.8 259"/><path class="quarantine2" d="m478.6 133.1 33.2-57.2c21-36.3 55.4-36.3 76.5 0l123.4 212.7c20.9 36.4 2.7 71.7-39.2 71.8H427.7c-41.9-.1-60.1-35.7-39.2-72l90.1-155.3"/><g><path id="svg-concept" d="M550.1 139.2v100.5m18.2 50.3c0 10.4-8.5 18.9-18.9 18.9s-18.9-8.5-18.9-18.9 8.5-18.9 18.9-18.9c10.5 0 18.9 8.5 18.9 18.9z" style="fill:none;stroke-width:3;stroke-linecap:round;stroke-linejoin:round;stroke-miterlimit:10"/><animate accumulate="none" additive="replace" attributeName="opacity" calcMode="linear" dur="1s" fill="remove" repeatCount="indefinite" restart="always" values="0;1;0"/></g></svg>