<svg xmlns="http://www.w3.org/2000/svg" xml:space="preserve" id="Layer_1" x="0" y="0" style="enable-background:new 0 0 646.6 652.5" version="1.1" viewBox="0 0 647 653"><style>.radiostream0{stroke:gray}.radiostream0,.radiostream1,.radiostream2,.radiostream3{fill:none;stroke-linecap:round;stroke-linejoin:round;stroke-miterlimit:10}.radiostream1,.radiostream2{stroke:#ee5586;stroke-width:2}.radiostream2{stroke:gray}.radiostream3{stroke:#ee5586;stroke-width:3}</style><g><ellipse id="svg-concept" cx="125.6" cy="121.4" class="radiostream1" rx="109.2" ry="18.2" transform="rotate(-42 126 121)"/><animate fill="remove" accumulate="none" additive="replace" attributeName="opacity" begin="1s" calcMode="linear" dur="2s" repeatCount="indefinite" restart="always" values="0;3;0"/></g><g><ellipse id="svg-concept" cx="85.1" cy="59.5" class="radiostream1" rx="48.7" ry="8" transform="rotate(-42 85 60)"/><animate fill="remove" accumulate="none" additive="replace" attributeName="opacity" begin="2s" calcMode="linear" dur="2s" repeatCount="indefinite" restart="always" values="0;3;0"/></g><path id="svg-concept" d="m155 156 21 34c1 1 3 2 5 0l21-20c2-1 2-3 0-4l-32-23h-4l-10 9c-1 1-2 3-1 4h0zm6-9 82 87m-41-64 82 25m-82 76-20-82" class="radiostream1"/><path d="m56 402 78 6m-25-52 68 16m-2-76 55 29m89-164 25 57m37-118 10 70m36-117 1 76M464 9l-7 85c-48 69-263 272-363 345l-86-1" class="radiostream2"/><path d="m457 94-24 97-53 81-46 45-16 15-49 45-79 43-96 19m96-19c58-41 205-178 243-229" class="radiostream2"/><path id="svg-concept" d="M257 187C370 82 460 5 464 9c4 5-94 105-220 223S12 443 8 438s77-88 188-193" class="radiostream3"/><path d="M357 362a8 8 0 1 1-7-7c4 0 7 3 7 7z" class="radiostream0"/><path d="M353 362a3 3 0 1 1-6 0 3 3 0 0 1 6 0zm4 0h-4m-6 0h-5" class="radiostream0"/><path d="M361 403h-23c-4 0-8-4-8-8v-47c0-5 4-9 8-9h23c5 0 8 4 8 9v47c0 4-3 8-8 8zm-22 0h21v140h-21V403z" class="radiostream0"/><path d="M373 505v-11l-13-4h-21l-12 2v13m12 14h21m-33-18-117 71m16 4-15-4m102-51-87 54m-33-2v7m36 8-36-8m23-11-5-1-18 5 36 8m3-9 11 1v7l-14 8v-7l14-8m84-68L218 628m121-125L229 629m110-110-91 104m79-118 12-3M218 628l11 1m19-6-19 6m-29 0v8l26 6v-9l-26-5zm26 14 31-9v-9l-31 9m-4-12-22 7m48-6 9 2m103-106 121 101M360 503l145 122M373 505l140 117m-53-54-87-63m101 63-18-2m-1 7 19-5m0 7v-7m-12 10 12-3m-14-7-8 2m61 52-8 3m-24-5 24 5m-37-2v9l42 9v-10l-42-8zm11-4-11 4m65-3-23 11m23-3-23 13m23-21v8m-24-10 24 2m-194-77-8 3v9l13 4h11l14-4v-9l-9-3m-21 14v-14m21 0v14m0-54 13 2M13 623h119m-64-21h172m27 0h97m167-68h104m-219-13h167" class="radiostream0"/></svg>