<svg xmlns="http://www.w3.org/2000/svg" xml:space="preserve" id="Layer_1" x="0" y="0" style="enable-background:new 0 0 543.5 398.4" version="1.1" viewBox="0 0 544 398"><style>.ranking0{fill:none;stroke:gray;stroke-linecap:round;stroke-linejoin:round;stroke-miterlimit:10}.ranking1{stroke:#ee5586;stroke-width:2}.ranking1,.ranking2,.ranking3{fill:none;stroke-linecap:round;stroke-linejoin:round;stroke-miterlimit:10}.ranking2{stroke:gray;stroke-dasharray:5}.ranking3{stroke:#ee5586;stroke-width:3}</style><path d="m456 286 61 18-244 90-244-90 61-18" class="ranking0"/><path id="svg-concept" d="m320 188 223 67-270 98L3 255l169-51" class="ranking1"/><path d="M373 255h164m-525 0h185m76 95v-67" class="ranking2"/><g><path id="svg-concept" d="M263 113V31l-45-16-44 16v215l44 17 9-4M174 31l44 17m0 0 45-17m-45 17v215" class="ranking3"/><animate attributeName="opacity" begin="0s" dur="2s" repeatCount="indefinite" values="0;1;0"/></g><path d="M284 286v-63l45-16 44 16v63l-44 16-45-16z" class="ranking0"/><path d="m329 207-45 16 45 16" class="ranking0"/><path d="m274 282-45-15V127l45-16 44 16v84m11 28 44-16m-44 16v63M229 127l45 16m44-16-44 16" class="ranking0"/><path d="M274 143v139l10-5" class="ranking0"/></svg>