<svg version="1.1" id="Layer_1" xmlns="http://www.w3.org/2000/svg" x="0" y="0" viewBox="0 0 595.3 595.3" style="enable-background:new 0 0 595.3 595.3" xml:space="preserve"><style>.salesman0{fill:none;stroke:#ee5586;stroke-width:3;stroke-linecap:round;stroke-linejoin:round;stroke-miterlimit:10}</style><path id="svg-concept" class="salesman0" d="M468 238.5c-1.9-2.9-4.7-.1-7.1.7-4.7 1.6-9.3 4-15.1 2.2 3.8-2.2 7.6-3.6 10.4-6.3 5.3-5.2 10.8-10.5 8-19.2-.4-1.4 1-4.2-2.4-3.2-17.3 9.8-35.8 15.8-55.7 16.4-22.7.7-40.3-8.4-52-28.4-2.9-4.9-6.1-9.5-9.5-14.1-8.1-10.8-16.9-20.9-29.1-27.3-13.4-7.1-27-7.2-39.8.8-12.1 7.5-15.9 22-11.2 37.7-1.7 3.4-5.3 3-8.1 4-26.3 9.4-40.8 32.1-39.8 60.7-.9 11.9 1.2 23.5 4.2 35-2.9 2-6 3.7-9.5 4.4-.8-.1-2.2-.3-2.3.5-.1 1.3 1.2 1.4 2.3 1.4 2.5.7 5 1.5 7.4 2.2-3.6 12.3-.3 23.4 6.3 33.7 3.4 5.2 8.4 7.9 14.8 7.8.5 2.6 1.1 5.2 1.6 7.8 3.2 16.1 10.9 29.7 22.8 40.9.8 7.9 2.3 15.8 4.3 23.5l-.6 2.6c-3.4 5.4-16 25.3-32.4 28.5-12.6 2.5-23.2 7.9-33 15.7-6.6 5.2-11.2 11.8-13 20-1.6 7.4-3 14.8-4.5 22.3 41.3 52.4 191.3 50.3 226.4 0 1.6-11.4-.7-22.4-6.1-32.1-8.1-14.6-22.1-22.6-37.6-26.5-16.1-4-33.5-24-38.5-28.1 3.4-7.3 3.8-15.3 4.6-23.1 0-.4-.1-.9-.3-1.3 2.6-2.3 5.1-4.9 7.5-7.4 11.3-12 17.1-26.4 18.1-42.8 5.7-.3 10.2-3 13.5-7.7 6.1-8.7 8.4-18.5 7.6-29.1-.2-3-1.4-5.5-3.9-7 0-.1.1-.2.1-.3 2.3-6 3.2-12.3 4.4-18.5.6-3 2.1-4.1 5.1-4.2 3.9 0 7.8.3 11.6-.4 26.3-4.3 48.4-16.9 67.4-35.3 1.8-1.7 4.7-4 3.1-6.5h0z"/><g><path d="M42 445.4c81.6 141.2 262.2 189.5 403.4 107.9s189.5-262.2 107.9-403.4S291.1-39.6 149.9 42-39.6 304.2 42 445.4zM209.5 80c27.6 47.7 88.5 64 136.2 36.4a99.17 99.17 0 0 0 48-67.8c54.8 21.4 102.9 60.8 134.6 115.6s41.8 116.2 33 174.4a99.48 99.48 0 0 0-82.7 7.8c-47.7 27.6-64 88.5-36.4 136.2 5.8 10 13 18.6 21.3 25.7a281.2 281.2 0 0 1-33.2 22.7c-98.4 56.9-217.9 44.3-301.7-22.5 35.7-30.6 45.7-83.3 21.3-125.5s-75-59.8-119.4-44.2c-16-106 32.7-215.8 131.1-272.7 11.8-6.8 23.9-12.6 36.2-17.5 2.1 10.9 5.9 21.4 11.7 31.4h0z" style="fill:none;stroke:gray;stroke-linecap:round;stroke-linejoin:round;stroke-miterlimit:10"/><animateTransform accumulate="none" additive="replace" attributeName="transform" begin="0s" calcMode="linear" dur="4s" fill="remove" from="0 298 298" repeatCount="indefinite" restart="always" to="360 298 298" type="rotate"/></g><path id="svg-concept" class="salesman0" d="M553.3 149.9C471.7 8.7 291.1-39.6 149.9 42S-39.6 304.2 42 445.4s262.2 189.5 403.4 107.9 189.5-262.2 107.9-403.4z"/></svg>