<svg xmlns="http://www.w3.org/2000/svg" xml:space="preserve" id="Layer_1" x="0" y="0" version="1.1" viewBox="0 0 1099.5 361.5"><style>.scalable0{stroke:#ee5586;stroke-width:3;stroke-linecap:square}.scalable0,.scalable1,.scalable2{fill:none;stroke-miterlimit:10}.scalable1{stroke:gray;stroke-linecap:round;stroke-linejoin:round}.scalable2{stroke:#ee5586;stroke-width:2;stroke-linecap:square}.scalable3{fill:#ee5586}</style><g><path id="svg-concept" d="M745.2 81.2h342.2" class="scalable0"/><animateMotion fill="freeze" begin="0s" dur="3s" path="M0, 0 0 -70"/><animate fill="remove" attributeName="opacity" begin="3s" calcMode="linear" dur="1s" repeatCount="indefinite" restart="always" values="0;1;0"/></g><g><path id="svg-concept" d="m2.4 81.9 342.1.1v.1" class="scalable0"/><animateMotion fill="freeze" begin="0s" dur="3s" path="M0, 0 0 70"/></g><path d="M286.1 312.7c0 4.6-3.4 8.3-7.6 8.3H9.9c-4.2 0-7.6-3.7-7.6-8.3v-29.4c0-4.6 3.4-8.3 7.6-8.3h268.5c4.2 0 7.6 3.7 7.6 8.3v29.4h.1zM18 275v45.9M270.4 275v46" class="scalable1"/><circle id="svg-concept" cx="240.5" cy="298" r="9.8" class="scalable2"/><path id="svg-concept" d="M244.1 298c0 2-1.6 3.7-3.7 3.7-2 0-3.6-1.6-3.6-3.7s1.6-3.6 3.6-3.6c2.1 0 3.7 1.6 3.7 3.6zm6.2.1h-6.2m-7.3 0h-6.1" class="scalable2"/><circle id="svg-concept_1_" cx="144.2" cy="350.2" r="8.7" class="scalable1"/><path id="svg-concept_2_" d="M144.2 325.9v15M75 350.2h60.2m18 0h60.2" class="scalable1"/><path d="M686.7 251.6c0 4.6-3.4 8.3-7.6 8.3H410.6c-4.2 0-7.6-3.7-7.6-8.3v-29.4c0-4.6 3.4-8.3 7.6-8.3h268.5c4.2 0 7.6 3.7 7.6 8.3v29.4h0zm-268-37.7v45.8m252.4-45.8v46" class="scalable1"/><circle id="svg-concept" cx="641.2" cy="236.9" r="9.8" class="scalable2"/><path id="svg-concept" d="M644.8 236.9c0 2-1.6 3.7-3.7 3.7-2 0-3.6-1.6-3.6-3.7s1.6-3.6 3.6-3.6c2.1 0 3.7 1.6 3.7 3.6zm6.2 0h-6.2m-7.3 0h-6.2" class="scalable2"/><path d="M686.7 312.7c0 4.6-3.4 8.3-7.6 8.3H410.6c-4.2 0-7.6-3.7-7.6-8.3v-29.4c0-4.6 3.4-8.3 7.6-8.3h268.5c4.2 0 7.6 3.7 7.6 8.3v29.4h0zm-268-37.7v45.9M671.1 275v46" class="scalable1"/><circle id="svg-concept" cx="641.2" cy="298" r="9.8" class="scalable2"/><path id="svg-concept" d="M644.8 298c0 2-1.6 3.7-3.7 3.7-2 0-3.6-1.6-3.6-3.7s1.6-3.6 3.6-3.6c2.1 0 3.7 1.6 3.7 3.6zm6.2.1h-6.2m-7.3 0h-6.2" class="scalable2"/><circle id="svg-concept_3_" cx="544.9" cy="350.2" r="8.7" class="scalable1"/><path d="M544.9 325.9v15m-69.2 9.3h60.2m18 0h60.2m473.3-159.7c0 4.6-3.4 8.3-7.6 8.3H811.3c-4.2 0-7.6-3.7-7.6-8.3v-29.4c0-4.6 3.4-8.3 7.6-8.3h268.5c4.2 0 7.6 3.7 7.6 8.3v29.4zm-268.1-37.7v45.8m252.5-45.8v46" class="scalable1"/><path id="svg-concept" d="M1051.7 175.8a9.8 9.8 0 1 1-19.6 0 9.8 9.8 0 0 1 19.6 0z" class="scalable2"/><path id="svg-concept" d="M1045.5 175.8c0 2-1.6 3.7-3.7 3.7-2 0-3.6-1.6-3.6-3.7s1.6-3.6 3.6-3.6a3.5 3.5 0 0 1 3.7 3.6zm6.2 0h-6.2m-7.3 0h-6.2" class="scalable2"/><path d="M1087.4 251.6c0 4.6-3.4 8.3-7.6 8.3H811.3c-4.2 0-7.6-3.7-7.6-8.3v-29.4c0-4.6 3.4-8.3 7.6-8.3h268.5c4.2 0 7.6 3.7 7.6 8.3v29.4h0zm-268.1-37.7v45.8m252.5-45.8v46" class="scalable1"/><circle id="svg-concept" cx="1041.9" cy="236.9" r="9.8" class="scalable2"/><path id="svg-concept" d="M1045.5 236.9c0 2-1.6 3.7-3.7 3.7-2 0-3.6-1.6-3.6-3.7s1.6-3.6 3.6-3.6c2.1 0 3.7 1.6 3.7 3.6zm6.2 0h-6.2m-7.3 0h-6.2" class="scalable2"/><path d="M1087.4 312.7c0 4.6-3.4 8.3-7.6 8.3H811.3c-4.2 0-7.6-3.7-7.6-8.3v-29.4c0-4.6 3.4-8.3 7.6-8.3h268.5c4.2 0 7.6 3.7 7.6 8.3v29.4zM819.3 275v45.9m252.5-45.9v46" class="scalable1"/><circle id="svg-concept" cx="1041.9" cy="298" r="9.8" class="scalable2"/><path id="svg-concept" d="M1045.5 298c0 2-1.6 3.7-3.7 3.7-2 0-3.6-1.6-3.6-3.7s1.6-3.6 3.6-3.6c2.1 0 3.7 1.6 3.7 3.6zm6.2.1h-6.2m-7.3 0h-6.2" class="scalable2"/><circle id="svg-concept" cx="945.6" cy="350.2" r="8.7" class="scalable1"/><path id="svg-concept" d="M945.6 325.9v15m-69.2 9.3h60.1m18.1 0h60.2" class="scalable1"/><circle id="svg-ico" cx="345" cy="82" r="5" class="scalable3"/><path id="svg-concept" d="m345.5 81.4 399.7-.1" class="scalable0"/><circle id="svg-ico" cx="745.2" cy="81.2" r="5" class="scalable3"/></svg>