<svg xmlns="http://www.w3.org/2000/svg" xml:space="preserve" id="animaclock" x="0" y="0" style="enable-background:new 0 0 644.6 630.5" version="1.1" viewBox="0 0 644.6 630.5"><style>.soon0,.soon1{fill:none;stroke-miterlimit:10}.soon0{stroke:#ee5586;stroke-width:2;stroke-linecap:round;stroke-linejoin:round}.soon1{stroke:gray}.soon2{fill:#ee5586}.soon3{fill:none;stroke:#ee5586;stroke-width:3;stroke-linecap:round;stroke-linejoin:round;stroke-miterlimit:10}.soon4{stroke-width:2}.soon4,.soon5{fill:none;stroke:gray;stroke-linecap:round;stroke-linejoin:round;stroke-miterlimit:10}</style><path id="svg-concept" d="M153.4 233.3c41.9-74.3 121.5-124.4 212.8-124.4 134.8 0 244.1 109.3 244.1 244.1S501 597.1 366.2 597.1c-90.7 0-169.9-49.5-212-123" class="soon0"/><path d="M121.7 233.4c44.4-90.5 137.4-152.7 245-152.7 150.6 0 272.7 122.1 272.7 272.7S517.3 626.1 366.7 626.1c-107.5 0-200.6-62.3-245-152.7" class="soon1"/><path id="svg-ico" d="M373.5 597.1c0 3.3-2.7 6-6 6s-6-2.7-6-6 2.7-6 6-6 6 2.7 6 6z" class="soon2"/><path d="M367.4 128.2v22.2m45.8-17-4.5 21.5m49.1-7-8.9 20.2m49.4 3.2-12.9 17.9m47.7 13.5-16.4 14.8m43.9 23-19 11.1m38.1 31.7-20.9 6.9m30.6 38.9-21.8 2.3m21.8 44.3-20.1-2.1m10.3 48.4-20.7-6.7m1.7 49.3-18.7-10.8m-8.9 48.7-16-14.4m-18.8 45.8-12.6-17.4m-27.9 40.8-8.6-19.5m-35.8 33.9-4.4-20.7M200.1 202.2l16.2 14.7m18.6-46 12.8 17.8m27.6-41.2 8.9 20.2m35.6-34.3 4.7 21.4m41.7 421.8v-21.1m-46.1 16 4.2-20.4m-48.8 5.9 8.3-19m-48.8-4.5 12.1-16.8m-46.9-14.5 15.3-13.9" class="soon1"/><g><animateTransform fill="remove" accumulate="none" additive="replace" attributeName="transform" calcMode="linear" dur="3s" from="0 365 355" repeatCount="indefinite" restart="always" to="360 368 355" type="rotate"/></g><g><path id="svg-concept" d="M464.8 353h-98" class="soon3"/><animateTransform fill="remove" accumulate="none" additive="replace" attributeName="transform" calcMode="linear" dur="10s" from="0 365 355" repeatCount="indefinite" restart="always" to="360 368 355" type="rotate"/></g><path id="svg-ico" d="M374.3 353c0 4.2-3.3 7.5-7.5 7.5s-7.5-3.3-7.5-7.5 3.3-7.5 7.5-7.5 7.5 3.3 7.5 7.5z" class="soon2"/><path d="M216.7 234.9h16.5c4.4 0 7.9 3.6 7.9 7.9v221.4c0 4.4-3.5 7.9-7.9 7.9H11.8c-4.4 0-7.9-3.5-7.9-7.9V242.8c0-4.4 3.5-7.9 7.9-7.9h204.9z" class="soon4"/><path id="svg-ico" d="M3.9 392.5H241M3.2 353.4h237.1M3.2 431.6h237.1M3.9 313.5H241m-158 .3V472m79-158.2V472M54.9 361l-24 24m105 14.2-24 24" class="soon5"/><g><circle id="svg-ico" cx="147.8" cy="364.8" r="5" class="soon2"/><animate fill="remove" accumulate="none" additive="replace" attributeName="opacity" calcMode="linear" dur="1s" repeatCount="indefinite" restart="always" values="0;1;0"/></g><path d="M381.8 62.1h-30.1c-.8 0-1.4-.6-1.4-1.4v-9.8c0-.8.6-1.4 1.4-1.4h30.1c.8 0 1.4.6 1.4 1.4v9.8c0 .7-.7 1.4-1.4 1.4zm120.3 43.4L475.2 92c-.7-.3-1-1.2-.6-1.9l4.4-8.8c.3-.7 1.2-1 1.9-.6l26.9 13.5c.7.3 1 1.2.6 1.9l-4.4 8.8c-.3.7-1.2 1-1.9.6zM358.9 62.1v18.6h14.9V62.1" class="soon1"/><path d="M358.9 75.1a37.36 37.36 0 0 1-30.2-36.7 37.3 37.3 0 1 1 45.1 36.5" class="soon1"/></svg>