<svg version="1.1" id="Layer_1" xmlns="http://www.w3.org/2000/svg" x="0" y="0" viewBox="0 0 1100 452.3" style="enable-background:new 0 0 1100 452.3" xml:space="preserve"><style>.ssd1,.ssd2,.ssd3{fill:none;stroke:gray;stroke-linecap:round;stroke-linejoin:round;stroke-miterlimit:10}.ssd2,.ssd3{stroke:#ee5586;stroke-width:2}.ssd3{stroke:gray}.ssd4{enable-background:new}.ssd5{fill:#ee5586}</style><path d="m337 292.7-2.5-8.5a223.5 223.5 0 1 1 2.5 8.5" style="fill:none"/><path class="ssd1" d="M116.2 226.5H.3"/><g><path class="ssd1" d="M148.9 259.6H136v-66.2h12.9v66.2zm-67.5-26.3H50.3v-12.9h31.1v12.9z"/><path id="svg-concept" class="ssd2" d="M82.6 184.2h52c.7 0 1.3.6 1.3 1.3v82.1c0 .7-.6 1.3-1.3 1.3h-52c-.7 0-1.3-.6-1.3-1.3v-82.1c.1-.7.7-1.3 1.3-1.3z"/><animateMotion accumulate="none" additive="replace" begin="0s" calcMode="paced" dur="2s" fill="freeze" path="M0, 0 65 0 -65" restart="always"/></g><path class="ssd3" d="M570.8 237a23.5 23.5 0 0 1-32.1 8.6s0 0 0 0a23.5 23.5 0 0 1-8.6-32.1s0 0 0 0a23.4 23.4 0 0 1 31.9-8.7h.1a23.7 23.7 0 0 1 8.7 32.2z"/><path id="svg-concept" class="ssd3" d="m337 291.9-2.5-8.5a223.5 223.5 0 1 1 2.5 8.5"/><path class="ssd1" d="M984.3 225.6h116"/><g><path class="ssd1" d="M951.6 192.5h12.9v66.2h-12.9v-66.2h0zm67.5 26.3h31.1v12.9h-31.1v-12.9z"/><path id="svg-concept" class="ssd2" d="M1017.9 267.9h-52c-.7 0-1.3-.6-1.3-1.3v-82.1c0-.7.6-1.3 1.3-1.3h52c.7 0 1.3.6 1.3 1.3v82.1c-.1.7-.6 1.3-1.3 1.3z"/><animateMotion accumulate="none" additive="replace" begin="3s" calcMode="paced" dur="2s" fill="freeze" path="M0, 0 -65 0 65" restart="always"/></g><path class="ssd1" d="M365.7 354.9H187a4.7 4.7 0 0 1-4.6-4.6v-70.5h19.1V173.2h-19.1v-71.4c0-2.6 2.1-4.7 4.6-4.7h176.8"/><path class="ssd1" d="M330.8 279.7h-90.6V173.2h90.1"/><g class="ssd4"><path id="svg-ico" class="ssd5" d="M259.4 215.2v8.5h9.7v-8.5h2.7v20.2h-2.7v-9.5h-9.7v9.5h-2.6v-20.2h2.6zm16.9.3c1.6-.2 3.5-.4 5.6-.4 3.7 0 6.4.8 8.1 2.5 1.8 1.7 2.8 4 2.8 7.2 0 3.3-1 6-2.9 7.8-1.9 1.9-5 2.9-8.9 2.9l-4.7-.2v-19.8zm2.7 17.8 2.7.2c5.6 0 8.6-3.1 8.6-8.6 0-4.7-2.7-7.8-8.1-7.8a24 24 0 0 0-3.1.2v16h-.1zm17.3-17.8c1.6-.2 3.5-.4 5.6-.4 3.7 0 6.4.8 8.1 2.5 1.8 1.7 2.8 4 2.8 7.2 0 3.3-1 6-2.9 7.8-1.9 1.9-5 2.9-8.9 2.9l-4.7-.2v-19.8zm2.6 17.8 2.7.2c5.6 0 8.6-3.1 8.6-8.6 0-4.7-2.7-7.8-8.1-7.8a24 24 0 0 0-3.1.2v16h-.1z"/></g><path class="ssd1" d="M735.3 97.2h178.2c2.5 0 4.6 2.1 4.6 4.6v70.5H899V279h19.1v71.4c0 2.5-2.1 4.6-4.6 4.6H735"/><path class="ssd1" d="M770.2 172.4h90.1v106.5h-90.8"/><g class="ssd4"><path id="svg-ico" class="ssd5" d="M791.7 232.6c1.2.8 3.1 1.4 4.9 1.4 2.8 0 4.5-1.5 4.5-3.6 0-2-1.1-3.2-4.1-4.2-3.5-1.2-5.7-3.1-5.7-6.1 0-3.4 2.7-5.8 6.9-5.8 2.2 0 3.8.5 4.8 1.1l-.8 2.3a8.4 8.4 0 0 0-4.1-1.1c-2.9 0-4.1 1.8-4.1 3.2 0 2 1.3 3 4.2 4.2 3.6 1.4 5.5 3.2 5.5 6.3 0 3.3-2.5 6.2-7.5 6.2-2 0-4.3-.6-5.5-1.3l1-2.6zm15.7 0c1.2.8 3.1 1.4 4.9 1.4 2.8 0 4.5-1.5 4.5-3.6 0-2-1.1-3.2-4.1-4.2-3.5-1.2-5.7-3.1-5.7-6.1 0-3.4 2.7-5.8 6.9-5.8 2.2 0 3.8.5 4.8 1.1l-.8 2.3a8.4 8.4 0 0 0-4.1-1.1c-2.9 0-4.1 1.8-4.1 3.2 0 2 1.3 3 4.2 4.2 3.6 1.4 5.5 3.2 5.5 6.3 0 3.3-2.5 6.2-7.5 6.2-2 0-4.3-.6-5.5-1.3l1-2.6zm16.1-17.7a35 35 0 0 1 5.9-.4c4 0 6.8.9 8.7 2.7s3 4.2 3 7.7-1.1 6.4-3.1 8.3c-2 2-5.3 3.1-9.5 3.1-1.9 0-3.6-.1-5-.3v-21.1zm2.8 18.9 2.8.2c5.9 0 9.1-3.3 9.1-9.1 0-5-2.8-8.3-8.7-8.3-1.4 0-2.5.1-3.3.3v16.9h.1z"/></g><g><path id="svg-concept" class="ssd2" d="M450 50.2s54.3 43.3 83.3 142.2m-143.1-89.9s66.6 18.7 131.5 98.8m-166.4-27.6s68.7-8.2 159.3 40.9m-164.3 36.9s60.1-33.7 162.5-22.6m-137 97.5s43-54.2 141.9-83M428.5 386s19-66.6 99.3-131.2m216.9 23.8s-68.1 8.1-158.4-41.6m163.9-37.7s-59.8 33.8-162.3 22.7m136.9-97.7s-41.7 53.9-140.6 83m89.3-141.8s-19.2 66.6-99.6 131m28.7-166.1s8.5 69.2-41.3 159.5M523.2 25.3s34.6 60.4 23.2 162.8m-46.8 232.6s-8-69.2 41.2-159.7m37.6 164.2s-33.9-60.6-23.2-163.1m96.4 137.8s-55.9-48.2-83.4-142.3m142.2 90.8s-66.5-18.3-131.1-98.6"/><animateTransform accumulate="none" additive="replace" attributeName="transform" begin="2s" calcMode="linear" dur="3s" fill="remove" from="0 555 222" repeatCount="indefinite" restart="always" to="360 546 227" type="rotate"/><animateTransform accumulate="none" additive="replace" attributeName="transform" begin="5s" calcMode="linear" dur="1.5s" fill="remove" from="0 555 222" repeatCount="indefinite" restart="always" to="360 546 227" type="rotate"/></g></svg>