<svg version="1.1" id="Layer_1" xmlns="http://www.w3.org/2000/svg" x="0" y="0" viewBox="0 0 608.9 401" style="enable-background:new 0 0 608.9 401" xml:space="preserve"><style>.st0{stroke-linecap:round;stroke-linejoin:round}.st0,.st1{fill:none;stroke:gray;stroke-miterlimit:10}.st2{stroke-width:2}.st2,.st3{fill:none;stroke:#ee5586;stroke-linecap:round;stroke-linejoin:round;stroke-miterlimit:10}</style><path class="st0" d="M2.6 364.5a4 4 0 0 1 3.9-4h595.6a4 4 0 0 1 3.9 4v12s-.3 14.5-30.6 14.5H33.2c-30.3 0-30.6-14.5-30.6-14.5v-12zm535.5-24.4V29.6c0-8.8-7-15.9-15.6-15.9H86.2c-8.6 0-15.6 7.1-15.6 15.9v310.5h467.5z"/><path class="st1" d="M605 376.4H3.7M308.2 29.6c0 2.2-1.7 4-3.9 4s-3.9-1.8-3.9-4 1.7-4 3.9-4 3.9 1.8 3.9 4z"/><path class="st0" d="M238.2 360.6s.7 6.6 7.8 6.6h116.2c7.2 0 7.8-6.6 7.8-6.6"/><path class="st1" d="M93.2 48.7h423.2v273.5H93.2V48.7z"/><path class="st1" d="M109.4 61.5c0 1.8-1.5 3.3-3.3 3.3s-3.3-1.5-3.3-3.3 1.5-3.3 3.3-3.3c1.8.1 3.3 1.5 3.3 3.3zM124.9 61.5c0 1.8-1.5 3.3-3.3 3.3s-3.3-1.5-3.3-3.3 1.5-3.3 3.3-3.3c1.9.1 3.3 1.5 3.3 3.3zM140.5 61.5c0 1.8-1.5 3.3-3.3 3.3s-3.3-1.5-3.3-3.3 1.5-3.3 3.3-3.3c1.8.1 3.3 1.5 3.3 3.3zM93.2 73h423.2M93.2 114.7h423.2"/><path id="svg-concept" class="st2" d="M316.9 303.8H120.2c-8.2 0-15-6.8-15-15V153.2c0-8.2 6.8-15 15-15h196.7c8.2 0 15 6.8 15 15v135.6c0 8.2-6.8 15-15 15z"/><path class="st0" d="M200.6 169.5h104m-104 15.7h54.2m-54.2 15.6h104m-104 15.7h86.2"/><path id="svg-concept" class="st3" d="M200.6 261.9h66.6M200.6 277.5h104M178.6 261.6v-4.7c0-9.6-13.9-10.3-13.9 0v4.7M179.8 261.6h1.1c.5 0 .9.4.9.9v14.2c0 .5-.4.9-.9.9h-18.7a.9.9 0 0 1-.9-.9v-14.2c0-.5.4-.9.9-.9h17.6zM161.4 267.6h20.4M162.4 261.6l6.2 6M167.6 261.6l6 6M172.6 261.6l6 6M177.6 261.6l4.2 4.2M161.4 264.9l2.7 2.7"/><path id="svg-concept" class="st0" d="M172.2 218.2h-37.6a10 10 0 0 1-10-10v-37.6a10 10 0 0 1 10-10h37.6a10 10 0 0 1 10 10v37.6a10 10 0 0 1-10 10h0z"/><path id="svg-concept" class="st2" d="M125.3 121.7v16.5"/><path id="svg-concept" class="st3" d="M148.3 197.3v13.1l4.3-4.3.1-.1c.2-.2.5-.3.7-.3.3 0 .5.1.7.3l.1.1 4.3 4.3v-13.1h-1.6l-3.6 2.1-3.6-2.1h-1.4zm16.6-18.7V175l-3.1-1.7-1.8-3.1h-3.5l-3.1-1.8-3 1.8h-3.5l-1.8 3.1-3.1 1.7v3.6l-1.7 3 1.7 3.1v3.5l3.1 1.8 1.8 3h3.5l3 1.8 3.1-1.8h3.5l1.8-3 3.1-1.8v-3.5l1.7-3.1-1.7-3z"/><path class="st1" d="m369.6 360.4-65.3-.1h-65.5"/><g><path id="svg-concept" class="st3" d="M129.6 93.9V91c0-5.9-8.7-6.4-8.7 0v2.9M130.5 93.9h.6c.3 0 .5.3.5.5v8.8c0 .3-.3.5-.5.5h-11.6c-.3 0-.5-.3-.5-.5v-8.8c0-.3.3-.5.5-.5h11z"/><path id="svg-concept" class="st3" d="M125.2 101.1a2 2 0 0 1-2-2c0-1.1.9-2 2-2s2 .9 2 2c.1 1.1-.9 2-2 2z"/><animate accumulate="none" additive="replace" attributeName="opacity" calcMode="linear" dur="1s" fill="remove" repeatCount="indefinite" restart="always" values="0;1;0"/></g><path id="svg-concept" d="M153.2 96.2h154.3" style="fill:#fff;stroke-width:2;stroke-linecap:round;stroke-linejoin:round;stroke-miterlimit:10"/><g><path id="svg-ico" d="M99.2 340.1c0 3.3-2.7 6-6 6s-6-2.7-6-6 2.7-6 6-6 6 2.7 6 6z"/><animateMotion accumulate="none" additive="replace" begin="0s" calcMode="paced" dur="12s" fill="remove" path="M-20, 0 440 0 -20 0" repeatCount="indefinite" restart="always"/></g><path class="st1" d="M495.1 108.7H116.4a13.6 13.6 0 0 1 0-27.2H495c7.5 0 13.6 6.1 13.6 13.6.1 7.5-6 13.6-13.5 13.6z"/></svg>