<svg xmlns="http://www.w3.org/2000/svg" xml:space="preserve" id="Layer_1" x="0" y="0" style="enable-background:new 0 0 631.3 460.5" version="1.1" viewBox="0 0 631.3 460.5"><style>.support0{stroke:#ee5586;stroke-width:3}.support0,.support2,.support3,.support4{stroke-linecap:round;stroke-linejoin:round;stroke-miterlimit:10;fill:none}.support2{stroke:#ee5586;stroke-width:2}.support3{stroke:gray}.support4{stroke:#ee5586}.support5{fill:#ee5586}</style><path id="svg-concept" d="M569.1 81.3C499.3.7 380-21.7 284.3 33.6c-108.4 62.7-145.5 201.3-82.8 309.8s201.3 145.5 309.8 82.8c108.4-62.7 145.5-201.3 82.8-309.8" class="support0"/><path id="svg-concept" d="M170.9 237.3v-4.7m.1-5.5v-4.7" class="support2"/><g><path d="M389.8 60c-26.3 1.2-52.7 8.6-77.1 22.7a169.61 169.61 0 0 0-83.6 126m307.2 119.6c37.3-52.6 43-124.2 8.6-183.6-30-52-83.5-82.1-139.3-84.7M229 251.1c2.7 21.9 9.8 43.6 21.5 63.8 47 81.3 151 109.1 232.3 62.1 17.3-10 32.1-22.5 44.3-36.9M397.7 67.3v49.2M390.3 60c0-4.1 3.3-7.5 7.4-7.5s7.4 3.3 7.5 7.4c0 4.1-3.3 7.4-7.4 7.4-4.2.1-7.5-3.2-7.5-7.3z" class="support3"/><path d="M395 59.9a2.8 2.8 0 1 1 5.6 0c0 1.6-1.2 2.8-2.8 2.8-1.6 0-2.8-1.2-2.8-2.8zm132.2 280.3a7.56 7.56 0 0 1-1.3-10.5c2.5-3.2 7.2-3.8 10.5-1.3 3.2 2.5 3.8 7.2 1.3 10.4a7.51 7.51 0 0 1-10.5 1.4z" class="support3"/><path d="M530 336.5c-1.2-.9-1.4-2.7-.5-3.9.9-1.2 2.7-1.4 3.9-.5s1.4 2.7.5 3.9c-.9 1.2-2.7 1.4-3.9.5z" class="support3"/><animateTransform fill="remove" accumulate="none" additive="replace" attributeName="transform" calcMode="linear" dur="10s" from="0 397 229" repeatCount="indefinite" restart="always" to="-360 397 230" type="rotate"/></g><g><path d="M284.6 237.7c1.2 16.7 6 33.4 15 48.9 31.4 54.2 100.7 72.8 154.9 41.4 29.7-17.1 48.7-45.7 54.6-76.9m-40.6-109.9c-35.4-28.2-85.9-33.6-127.5-9.5-33.8 19.5-53.9 54.5-56.5 90.7m224.6-13.8a114.2 114.2 0 0 0-13.2-35.5c-4.6-8-10.1-15.2-16.2-21.6" class="support3"/><path d="m428.9 191.3 39.8-39.8m-120.6 78.4H292m187.4-78.6a7.44 7.44 0 1 1-.5-10.5c3 2.8 3.2 7.5.5 10.5z" class="support3"/><path d="M475.9 148.2c-1 1.1-2.8 1.2-3.9.2s-1.2-2.8-.2-3.9 2.8-1.2 3.9-.2 1.2 2.7.2 3.9zm-191.4 74.2c4.1 0 7.4 3.3 7.5 7.4.1 4.2-3.2 7.5-7.4 7.5-4.1 0-7.5-3.3-7.5-7.4 0-4.1 3.3-7.5 7.4-7.5" class="support3"/><path d="M284.6 232.6a2.8 2.8 0 1 1 0-5.6c1.6 0 2.8 1.2 2.8 2.7 0 1.7-1.3 2.9-2.8 2.9h0z" class="support3"/><animateTransform fill="remove" accumulate="none" additive="replace" attributeName="transform" calcMode="linear" dur="15s" from="0 397 229" repeatCount="indefinite" restart="always" to="360 397 230" type="rotate"/></g><path d="m140.9 63.2-1 .1h-.9a2.4 2.4 0 0 0-2.3 2.3v10.6c0 .5.1.9.4 1.3l.7.5s0 3.3-.4 4.4c-1.7 8.4-8.8 13.8-17.3 13.8-9.8 0-17.7-7.2-17.7-18.4l.5-.4c.5-.4.3-.6.3-1.2V65.5c0-1.2-1.1-2.3-2.3-2.3h-1.4" class="support3"/><path id="svg-concept" d="M99.5 63.2c0-11.4 9.3-21.3 20.7-21.3 11.1 0 20.7 9.3 20.7 21.3" class="support2"/><path d="M114.8 74.4c0 1.3-1 2.3-2.3 2.3s-2.3-1-2.3-2.3 1-2.3 2.3-2.3c1.2.1 2.3 1.1 2.3 2.3zm15 0c0 1.3-1 2.3-2.3 2.3s-2.3-1-2.3-2.3 1-2.3 2.3-2.3c1.3.1 2.3 1.1 2.3 2.3z" class="support3"/><circle id="svg-concept" cx="124" cy="87.9" r="3" class="support2"/><path d="m103.3 67.2 8.1-9.2c.5-.6 1.4-.6 1.8 0 0 0 8.5 9.9 23.6 9.2" class="support3"/><path id="svg-concept" d="M150.4 27.7c5.3 0 9.7 4.4 9.7 9.7v102.1c0 5.3-4.4 9.7-9.7 9.7H11.9c-5.3 0-9.7-4.4-9.7-9.7V37.4c0-5.3 4.4-9.7 9.7-9.7h138.5z" class="support2"/><path id="svg-concept" d="M160.3 58.5h1.8c.5 0 .8.4.8.8v6.1c0 .5-.4.8-.8.8h-1.8m0-19.8h1.8c.5 0 .8.4.8.8v6.1c0 .5-.4.8-.8.8h-1.8" class="support4"/><path d="M58.3 102.1H18.9M82 87.7H18.9m29.9-14.5H18.9m51.5-14.4H18.9M82 44.4H18.9m122.5 87.7H21.9a3 3 0 0 1-3-3v-6.2c0-1.6 1.4-3 3-3h119.5a3 3 0 0 1 3 3v6.2a3 3 0 0 1-3 3zm29.5 100.5H82m-.8-83.4v83.4" class="support3"/><circle id="svg-ico" cx="81.1" cy="232.5" r="4.3" class="support5"/><g><path id="svg-concept" d="M418.4 275c1.4-.6 2.8-1.4 4.1-2.1 23.7-13.7 31.8-44 18.1-67.8a49.64 49.64 0 0 0-67.8-18.1 49.64 49.64 0 0 0 3 87.5" class="support2"/><animateTransform fill="remove" accumulate="none" additive="replace" attributeName="transform" calcMode="linear" dur="12s" from="0 397 229" repeatCount="indefinite" restart="always" to="-360 397 230" type="rotate"/></g><g><path id="svg-ico" d="M406.9 229.9a8.5 8.5 0 1 1-16.99.01 8.5 8.5 0 0 1 16.99-.01z" class="support5"/><animateMotion fill="remove" accumulate="none" additive="replace" begin="0s" calcMode="paced" dur="2s" path="M0, 0 -15 0 -15 -15 -25 10 0 0" repeatCount="indefinite" restart="always"/></g><path id="svg-concept" d="M127.2 87.8h2.8s8.2-.1 8.2-9.4m-34.9-2.2c0 1.2-1.1 2.3-2.3 2.3h-3a2.4 2.4 0 0 1-2.3-2.3V65.5c0-1.2 1.1-2.3 2.3-2.3h3c1.2 0 2.3 1.1 2.3 2.3v10.7zm41.1-.1c0 1.2-1.1 2.3-2.3 2.3h-3a2.4 2.4 0 0 1-2.3-2.3V65.5c0-1.2 1.1-2.3 2.3-2.3h3c1.2 0 2.3 1.1 2.3 2.3v10.6z" class="support2"/></svg>