<svg version="1.1" id="Layer_1" xmlns="http://www.w3.org/2000/svg" x="0" y="0" viewBox="0 0 595.3 595.3" style="enable-background:new 0 0 595.3 595.3" xml:space="preserve"><style>.supportman0{fill:none;stroke:#ee5586;stroke-width:3;stroke-linecap:round;stroke-linejoin:round;stroke-miterlimit:10}</style><path id="svg-concept" class="supportman0" d="M415.7 478.7c-11.9-15.8-26.4-28.4-46.1-32.6-15.7-3.3-43-18.1-45.6-20.5.4-2.9.7-5.8 1.1-8.7 2.6-1.5 5.2-2.9 7.7-4.5 14.4-8.9 24.5-21.1 28.9-37.7 2.3-8.8 2.1-17.7 1.9-26.7 8.8 0 14.1-5.1 17.4-12.6 3.8-8.5 4.5-17.6 3.5-26.8-.6-5.7-3.6-9.7-9.9-10.3 1.5-7.8 2.4-15.7 2-23.7.8-13.4-1.5-26.4-3.5-39.6-2.7-16.9-12.7-26.8-28.4-32.2-8.7-3-17.5-5.6-26.5-7.1-3.7-.6-5.4-2.1-5.6-6.1a58.9 58.9 0 0 0-5.8-22.1c-3.8-8-9.3-14.6-18.2-19 .7 5.2 1.3 9.4 1.8 13.6v16.8c0 .8-.1 1.5-.1 2.3-1.6 2.6-1.3 6.2-4.5 8.4-2.9-8.3-4.2-17.2-11.5-23 .5 5.4 0 10.6.2 15.8l-.3 2.1c-1.3 7.9-5.4 12-14 13-8.8 1-17.3 4.4-25.5 8.2-10.4 4.8-17.9 12-20.3 23.7-1.2 5.9-2.9 11.6-3.7 17.5-1.5 10.7-2.8 21.4-1.7 32.3-.3 6.4.4 12.8 1.5 19.1-6.2.4-9.5 4.2-10.2 10-1.1 9.4-.4 18.7 3.7 27.5 3.4 7.3 8.6 12.2 17.2 12.2-.2 10.1 0 20.1 3.2 29.9 6 18.2 18.9 30 35.2 38.7.1 2.2.1 4.5 1.3 6.5 0 .8-.1 1.7-.1 2.5-2.8 2.7-41.7 21.6-53.5 29.5-19 12.7-34.7 48.8-34.7 48.8C221 551.1 376 544 428.2 502.6c0 .1-6.1-15.5-12.5-23.9z"/><g><path d="M210 81.2c27.4 47.4 88.1 63.6 135.5 36.2 26-15 42.6-40.1 47.8-67.5 54.5 21.3 102.3 60.5 133.9 115s41.6 115.6 32.8 173.4a98.91 98.91 0 0 0-82.3 7.7c-47.4 27.4-63.6 88.1-36.2 135.5 5.7 9.9 13 18.5 21.2 25.6-10.3 8.2-21.3 15.7-33 22.5-97.9 56.6-216.7 44.1-300.1-22.4 35.5-30.5 45.5-82.8 21.2-124.8s-74.6-59.5-118.7-43.9C16 233.2 64.5 124 162.4 67.5a264.4 264.4 0 0 1 36-17.4c2 10.6 5.8 21.2 11.6 31.1z" style="fill:none;stroke:gray;stroke-linecap:round;stroke-linejoin:round;stroke-miterlimit:10"/><animateTransform accumulate="none" additive="replace" attributeName="transform" begin="0s" calcMode="linear" dur="5s" fill="remove" from="0 298 298" repeatCount="indefinite" restart="always" to="360 298 298" type="rotate"/></g><path id="svg-concept" class="supportman0" d="M551.9 150.7C470.7 10.3 291.1-37.8 150.7 43.4 10.3 124.5-37.8 304.2 43.4 444.6s260.8 188.5 401.2 107.3 188.5-260.8 107.3-401.2z"/></svg>