<svg version="1.1" id="Layer_1" xmlns="http://www.w3.org/2000/svg" x="0" y="0" viewBox="0 0 1100.6 600.5" style="enable-background:new 0 0 1100.6 600.5" xml:space="preserve"><style>.virtualnumbers2,.virtualnumbers4{fill:none;stroke:gray;stroke-width:2;stroke-linecap:round;stroke-linejoin:round;stroke-miterlimit:10}.virtualnumbers4{stroke:#ee5586}.virtualnumbers6{stroke-width:2;stroke-miterlimit:10.0002}.virtualnumbers11,.virtualnumbers6,.virtualnumbers8{fill:none;stroke:gray;stroke-linecap:round;stroke-linejoin:round}.virtualnumbers8{stroke-width:3;stroke-miterlimit:10}.virtualnumbers11{stroke-dasharray:6,6}.virtualnumbers12{fill:none;stroke:gray;stroke-miterlimit:10}</style><radialGradient id="SVGID_1_" cx="672.5" cy="-51.4" r="0" gradientTransform="translate(0 274.1)" gradientUnits="userSpaceOnUse"><stop offset="0" style="stop-color:#27aae1"/><stop offset=".2" style="stop-color:#2aabe1"/><stop offset=".3" style="stop-color:#33aee1"/><stop offset=".5" style="stop-color:#44b3e2"/><stop offset=".6" style="stop-color:#5abae3"/><stop offset=".7" style="stop-color:#78c4e4"/><stop offset=".8" style="stop-color:#9ccfe5"/><stop offset=".9" style="stop-color:#c6dde7"/><stop offset="1" style="stop-color:#e6e7e8"/></radialGradient><path d="M672.5 222.7c-.1 0-.1 0 0 0z" style="fill:url(#SVGID_1_)"/><path d="M719.4 347.5c-1.2 5.4-1.7 7.1-3.3 12.3m.8-126.5c1.4 4.8 1.9 6.9 3 11.8" style="fill:none;stroke:gray;stroke-width:5;stroke-linecap:round;stroke-linejoin:round;stroke-miterlimit:10"/><path class="virtualnumbers2" d="M752.2 325c-1.8-5.3-7.2-8-7.4-8.1"/><path id="svg-concept" d="M683.3 426.5a223.2 223.2 0 0 1-183.1 94 225.4 225.4 0 1 1 184.6-354.8" style="fill:none;stroke-width:4;stroke-linecap:round;stroke-linejoin:round;stroke-miterlimit:10"/><path class="virtualnumbers2" d="M736.8 321.5c2.1 0 3.8-.6 4.9-1.6l.9-.9c1.9-1.8 4.3-4.1 4.2-7-.1-2-1.3-4-3.8-5.9-2.9-2.3-5.2-3.4-7.2-3.4-2.5 0-4 1.6-5.7 3.3l-.5.5-.6.2c-1.1 0-3.8-1-10.2-7.3-2.8-2.8-4.8-5.1-6-7s-1.6-3.3-1.1-3.8l.5-.5c1.5-1.5 3-2.9 3.2-5 .3-2.2-.7-4.6-3.4-7.9-2-2.5-4.1-3.8-6.2-3.8-2.8 0-5 2.3-6.8 4.2l-.9.9c-1.1 1.1-1.6 2.8-1.6 5 0 2.1.6 4.6 1.6 7.3a54.8 54.8 0 0 0 12.7 18.5c4.5 4.5 9.5 8.3 14.3 10.8 4.5 2.2 8.5 3.4 11.7 3.4h0zm7.5-28a17.6 17.6 0 0 0-17.8-17.8m27.1 16.4a24.9 24.9 0 0 0-25-25"/><circle class="virtualnumbers2" cx="703.8" cy="198" r="36.4"/><path class="virtualnumbers2" d="M685.7 187.2c0-1 .8-1.7 1.7-1.7h32.8c1 0 1.7.8 1.7 1.7v21.6c0 1-.8 1.7-1.7 1.7h-32.8c-1 0-1.7-.8-1.7-1.7v-21.6z"/><path class="virtualnumbers2" d="m720.2 185.5-16.4 12.1-16.4-12.1m11.2 8.6-12 15.5m22.4-15.5 12.1 15.5"/><circle class="virtualnumbers2" cx="703.8" cy="395.3" r="36.4"/><path class="virtualnumbers2" d="M703.8 377.3v36m-18-18h36"/><circle id="svg-concept" class="virtualnumbers4" cx="414.9" cy="171" r="32.7"/><circle class="virtualnumbers2" cx="412.5" cy="253.7" r="32.7"/><circle class="virtualnumbers2" cx="414.9" cy="336.4" r="32.7"/><circle class="virtualnumbers2" cx="414.9" cy="419.1" r="32.7"/><circle transform="rotate(-80 497.7 171)" cx="497.6" cy="171" style="fill:none;stroke:gray;stroke-width:1.9999;stroke-linecap:round;stroke-linejoin:round;stroke-miterlimit:9.9997" r="32.7"/><circle transform="rotate(-80.8 497.7 253.6)" class="virtualnumbers6" cx="497.7" cy="253.6" r="32.7"/><circle id="svg-concept" transform="rotate(-71.6 500 336.4)" cx="500.1" cy="336.4" style="fill:none;stroke-width:2;stroke-linecap:round;stroke-linejoin:round;stroke-miterlimit:10.0002" r="32.7"/><circle transform="rotate(-71.6 499.9 419.1)" class="virtualnumbers6" cx="499.9" cy="419.1" r="32.7"/><circle class="virtualnumbers2" cx="582.9" cy="171" r="32.7"/><circle id="svg-concept" class="virtualnumbers4" cx="585.4" cy="253.7" r="32.7"/><circle class="virtualnumbers2" cx="582.9" cy="336.4" r="32.7"/><circle class="virtualnumbers2" cx="582.9" cy="419.1" r="32.7"/><path class="virtualnumbers8" d="M419.4 187.1V155m0 0h-9m6.8 197.4v-32m0 0h-8.8m13.1 16h-13.1M508 170.9V155m-15.8 16.1h15.9M508 155h-15.4m-.5 16.1v16m0 0h15.5m.4 66.7v16m-15.8-16.2h15.9m-.1 16.2h-15.4m-.5-16.2v-15.9m0 0h15.5m.4 82.7v32.1m-15.8-16.1H508m0 16.1h-15.4m-.4 0v-32.1m0 0h15.4m.3 82.6v32.2m0 0h-15.6m-.4 0V403m0 0h15.5m85.9-215.9V155m-15.9 16.1h16m-.1-16.1h-15.4m-.6 32.1h15.5m-185.8 67V238m15.7 16.1h-15.8m15.9-16.1v31.4m154.7 0V238m15.7 16.1h-15.8m15.8 15.3h-15.8m15.9-15.3v15.3m-.1 51.3v31.4M577.5 336h15.8m-15.8-15.3h15.8M577.4 336v-15.3M422.9 408.9l-4 20.4m-17-6.8h25.9m-25.9-7h25.9m-20.6 13.8 4-20.4M585.6 431.5v-24.9m-9 21.3 17.5-17.6m-17.3 0 17.6 17.6"/><g><circle id="svg-concept" cx="725.1" cy="296" r="50.6" style="fill:none;stroke-width:3;stroke-linecap:round;stroke-linejoin:round;stroke-miterlimit:10"/><animate accumulate="none" additive="replace" attributeName="opacity" calcMode="linear" dur="1s" fill="remove" repeatCount="indefinite" restart="always" values="0;1;0"/></g><g><path id="svg-ico" d="M687.3 160.4a6 6 0 0 1-6 6c-3.3 0-6-2.6-6-6s2.6-6 6-6 6 2.6 6 6z"/><animateTransform accumulate="none" additive="replace" attributeName="transform" calcMode="linear" dur="5s" fill="remove" from="0 495 305" repeatCount="indefinite" restart="always" to="-285 510 295" type="rotate"/></g><path class="virtualnumbers11" d="M753.6 223.9h322.3M19.7 223.9H244M698.6 449.5h377.3M19.7 449.5h282.6M791.7 337.3h284.1M19.7 337.3h242.7"/><path class="virtualnumbers12" d="m791.7 336.6 46.9 85.9 48.6-393.6 54.6 544.4L991 239.2l38.6 156.1c11.2-20.9 35.1-37.2 46.3-58M11 336.6l29.9-24.3L81.3 403l31.6-157.9 43.7 204.4 47.8-379.8 50.8 489.5 47.1-107.4"/></svg>