<?xml version="1.0" encoding="utf-8"?>
<!-- Generator: Adobe Illustrator 25.3.0, SVG Export Plug-In . SVG Version: 6.00 Build 0)  -->
<svg version="1.1" id="Layer_1" xmlns="http://www.w3.org/2000/svg" xmlns:xlink="http://www.w3.org/1999/xlink" x="0px" y="0px"
	 viewBox="0 0 1100.6 600.5" style="enable-background:new 0 0 1100.6 600.5;" xml:space="preserve">
<style type="text/css">
	.voip0{fill:none;stroke:#808080;stroke-width:2;stroke-linecap:round;stroke-linejoin:round;stroke-miterlimit:10;}
	.voip1{fill:none;stroke:#808080;stroke-width:5;stroke-linecap:round;stroke-linejoin:round;stroke-miterlimit:10;}
	.voip2{fill:none;stroke:#EE5586;stroke-width:4;stroke-linecap:round;stroke-linejoin:round;stroke-miterlimit:10;}
	.voip3{fill:none;stroke:#EE5586;stroke-width:2;stroke-linecap:round;stroke-linejoin:round;stroke-miterlimit:10;}
	.voip4{fill:none;stroke:#808080;stroke-width:3;stroke-linecap:round;stroke-linejoin:round;stroke-miterlimit:10;}
	.voip5{fill:none;stroke:#EE5586;stroke-width:3;stroke-linecap:round;stroke-linejoin:round;stroke-miterlimit:10;}
	.voip6{fill:#EE5586;}
</style>
<g>
	<path class="voip0" d="M780.8,288.3c1.2-1.5,2.7-2.9,3.5-4.6c1.7-3.3,4.3-5.4,7.6-6.8c2.6-1.1,4.4-3,5.4-5.6c0.6-1.6,1.3-3.7,2.6-4.5
		c3.6-2.5,7.3-5.3,12.2-4.9c1.1,0.1,2.3-0.4,3.2-1c3.3-1.9,5-1.7,7.9,1c0.9,0.9,1.9,1.9,3.1,2.4c4.8,2.2,6.8,7.9,4.4,12.7
		c-0.5,1.1-0.7,2.8-0.1,3.8c2.1,3.8,7.6,4.1,10.4,0.7c1.7-2.1,4-1.9,5.2,0.5c0.5,1,0.8,2.2,1,3.3c0.5,3.3,0.7,6.6,1.5,9.8
		c1.2,4.3,1,8.3-0.7,12.4c-0.7,1.6-0.4,4,0.3,5.5c1.8,3.8,4,7.3,6.2,10.8c1.1,1.8,2.9,3.2,3.5,5.1c1.3,4,3.7,7.1,6.5,10
		c1.4,1.4,2.8,2.9,4.4,4c1.4,1,3.3,0.5,3.6-1.1c0.7-2.8,1.2-5.7,1-8.5c-0.3-2.9-2.2-5.1-4.8-6.8c-3.1-2.1-6.5-4.1-7.6-8
		c-0.8-2.8-2.2-5.1-4.5-6.9c-1.2-1-1.7-2.1-0.8-3.6c1.8-2.9,1.8-6,1.3-9.2c-0.2-1.1-0.3-2.3-0.1-3.5c0.1-0.5,0.8-1.2,1.2-1.2
		c2.2-0.1,4.6,2.5,4.9,4.7c0.2,1.6,0.3,3.4,1.2,4.6c1.4,1.8,2.2,3.6,2.8,5.7c1,3.5,4,5,7.3,5.7c2.2,0.5,4-1.1,4.6-2.9
		c1.5-4.6,4.4-7.6,8.4-10.1c2.4-1.4,3.1-4.8,1.7-6.3c-2.6-2.8-2.6-6.1-2.7-9.5c-0.1-1.7-0.7-3.5-1.7-4.8c-2.7-3.6-5.8-6.9-8.8-10.3
		c-4-4.7-3.7-6.5,1.3-10.2c0.4-0.3,0.8-0.5,1.2-0.8c1.5-0.9,2.8-1,4.3,0.4c3.1,2.9,8.4,2.5,11.6-0.2c1.8-1.5,4.1-2.9,6.4-3.3
		c4.9-0.9,8.7-3.6,11.5-7.2c5.3-6.7,9.4-14.3,10.6-23c0.3-1.8-0.1-3.8-0.6-5.6c-0.6-2.4-1.5-4.7-2.5-7c-0.6-1.3-1.2-3.1-2.3-3.7
		c-2.9-1.7-6-2.9-9.2-4.2c-2.2-0.9-2.5-1.7-0.9-3.5c0.9-1,2-2,2.7-3.1c1.2-1.8,2.3-4,1-6.1c-1.3-2.1-3.7-2.2-6-2
		c-0.4,0-0.8,0.3-1.1,0.3c-0.4,0-1-0.1-1.2-0.4c-1.5-2.8-4-3.6-7.6-4c0.9-1.5,1.4-2.6,2.3-3.5c0.9-0.9,2.1-1.5,3.3-2.1
		c3.4-2,3.7-2.1,6,1c1.8,2.4,3.7,2.4,6,1.6c3.2-1,5.9,1,6.2,4.4c0.2,3.4,0.5,3.8,3.6,4.3c1.4,0.2,1.8,0.9,2.2,2.1
		c0.6,1.9,1.4,3.8,2.4,5.6c0.7,1.3,1.8,2.5,2.6,3.8c1,1.5,2.1,2.8,4.1,2.5c3.6-0.5,6.1-6.5,4.2-9.6c-0.8-1.3-1.4-2.8-1.5-4.3
		c-0.3-5.2-0.6-5.7-5.6-7.4c-2.8-1-3.4-3.3-1.4-5.4c2.2-2.3,2.4-3.9,1-6.4c-1.2-2.2-0.4-4.1,2.2-4.3c1.5-0.1,3.1,0.1,4.6,0.3
		c3.4,0.6,6-1,6.8-4.4c0.5-2.4,0.9-4.8,1.4-7.3c0.5-2.5,0-4.8-1-7.2c-0.6-1.4-0.9-3.1-0.8-4.7c0.3-3.8-0.4-7.3-2.6-10.3
		c-2.3-3-3.9-6.2-5-9.8c-0.5-1.8-1.8-2.9-3.6-2.7c-4,0.5-7.7-0.5-11.5-1.6c-1-0.3-2-0.3-3-0.3c-3.4-0.1-4.2-1-3.5-4.2
		c0.3-1.3,1.2-2.4,1.9-3.6c0.9-1.7,1.8-3.3,2.9-4.9c0.7-1,1.5-2.2,2.5-2.6c4.1-1.7,8.2-2.6,12.5-0.7c1,0.4,2.1,0.6,3.2,0.6
		c5.3-0.1,10.7-1.3,11.2-7.5c0-0.2,0.1-0.3,0.1-0.4c0.6-1.6,2-2.2,3.5-1.2c0.6,0.4,1.1,0.9,1.6,1.3c4.2,3.4,8.2,2.2,9.5-3.1
		c0.5-1.8,1.6-2.2,3.1-1.9c3.4,0.7,5.1,6,3.2,8.9c-1,1.5-1.5,3.3-2,5.1c-0.5,1.7-0.8,3.4-1.4,5c-0.9,2.6-0.8,4.9,1.3,6.8
		c7.5,6.9,15,13.8,22.5,20.7c1.1,1,2.3,2.3,4,1.4c1.9-1,2.1-2.8,1.8-4.6c-0.2-1.1-0.4-2.4-1.1-3.2c-1.3-1.5-1.3-2.7,0.1-4.1
		c3.7-3.7,1-12.2-4.2-13c-1.1-0.2-2.3-1.5-2.9-2.5c-1.1-1.9-2.4-3.4-4.4-4.2c-0.8-0.3-1.8-1-1.9-1.7c-0.3-1.8-0.7-4.1,0.1-5.5
		c1-1.8,3.3-2.2,5.6-1.8c2.6,0.5,5.3,1,8,1.1c2.8,0.1,3.8-1.2,4-3.9c0-0.7,0.5-1.7,1-2c1.2-0.9,2.6-1.6,4.1-2.1
		c2.4-0.9,3.1-2.7,1.3-4.5c-1.6-1.5-3.6-2.6-5.5-3.8c-0.8-0.5-1.5-1-2.3-1.5c0.1-0.3,0.1-0.6,0.2-0.9c1.8,0,3.7-0.4,5.4,0.1
		c3.6,1.2,7.1,2.6,10.4,4.3c1.8,0.9,3.5,1.5,5.5,1c0.8-0.2,1.7-0.1,2.5-0.4c0.9-0.3,1.8-0.9,2.7-1.4c-0.6-0.9-1-2-1.7-2.7
		c-1-1.1-2.4-1.8-3.2-2.9c-2.9-4.5-7.3-6.5-12.2-7.3c-5-0.8-10.2-0.4-14.9-2.8c-4.2-2.2-8.6-3.7-13.4-3.9
		c-9.3-0.4-18.6-0.8-27.9-1.2c-3.8-0.1-7.4-0.2-11.2-1.2c-4.1-1.1-8.5-1-12.8-1.3c-4.1-0.3-8.3-0.1-12.4-0.8
		c-3.5-0.6-6.8-2.4-10.4-3.2c-3.7-0.8-7.6-1-11.4-1.2c-2.8-0.2-5.7,0.2-8.5,0.1c-0.8,0-1.9-0.6-2.2-1.2c-1.2-2-3-2.6-5-2.9
		c-3.6-0.5-7.1-0.3-10.2,1.8c-0.7,0.5-1.6,0.9-2.4,0.9c-5.9,0-11.3,2.4-16.9,3.7c-1.5,0.4-3.3,0.2-4.7-0.2
		c-4.8-1.7-9.6-3.5-14.2-5.5c-3.2-1.3-6.4-1.4-9.7-1c-3.1,0.3-6.2,0.3-9.4,0.2c-3.1-0.1-6.3-0.8-9.4-0.8c-5.1,0.1-10.3,0.5-15.4,0.9
		c-1.8,0.1-2.5-0.6-2.3-2.5c0.3-2.9-0.8-4-3.6-4.6c-2.8-0.6-5.6-1.5-8.4-2.2c-1.7-0.4-3.4-1.1-5.2-1.1c-3.9,0-7.4-1-11-2.1
		c-3.8-1.2-7.9-1-10.9,2.6c-0.4,0.5-1.5,0.6-2.3,0.8c-2.5,0.5-5,0.9-7.4,1.5c-1.9,0.4-3.8,0.9-5.8,1.3c-2.2,0.5-4.7,0.3-6.4,1.4
		c-2.3,1.6-4.5,1.9-7.1,1.8c-1.4,0-2.8,0.3-4.1,0.7c-0.9,0.3-2.2,1-2.3,1.7c-0.5,3.3-2.7,3-5,2.9c-0.8,0-1.7,0-2.5,0.2
		c-3.8,0.9-5.5,4.9-3.6,8c1.4,2.2,2.4,4.7,3.2,7.2c0.5,1.5-0.5,2.8-2,3.1c-0.7,0.1-2-0.4-2.2-0.9c-0.8-2.1-1.4-4.2-1.8-6.4
		c-0.7-3.2-1.9-6.1-4.5-8.1c-3.5-2.7-7.1-5.6-11.9-3.1c-0.9,0.5-2,1.3-2.4,2.3c-1.9,5.1-1.9,5.1,2.3,8.8c0.1,0.1,0.2,0.3,0.6,1.2
		c-5.2-3.4-11.6-2.4-15.7-6.8c-0.6-0.6-1.7-0.7-2.5-1.1c-3.1-1.3-6.1-2.6-9.2-3.9c5.5-0.9,9.7-4.1,14.2-6.6c2.3-1.3,2.5-3.4,0.5-5
		c-0.8-0.7-2.1-1.1-3.1-1.1c-2.8,0.1-5.5,0.4-8.3,0.8c-2.9,0.4-5.8,1.1-7.7,3.7c-0.3,0.4-0.9,0.7-1.4,0.7c-4.8-0.2-7.5,2.1-9.2,6.6
		c-0.9,2.4-1,4,0.3,5.9c1.4,2,3.5,2.3,5.7,2.7c2.3,0.5,4.7,0.9,6.9,1.6c3.2,0.9,6.3,2,9.4,3.1c0.8,0.3,1.6,0.7,2.4,1.1
		c-0.1,0.2-0.2,0.4-0.3,0.7c-0.7-0.1-1.3-0.4-2-0.3c-3,0-5.9,0.2-8.9,0.2c-1.5,0-2.9,0-4.4-0.1c-1.8,0-3.6-0.2-5.3-0.1
		c-3.2,0.1-6.6,1.2-9.5,0.5c-5.4-1.4-7.9-0.1-7.8,5.6c-1.1,0.1-2,0.1-2.9,0.4c-1.9,0.5-2.9,1.6-2.6,3.7c0.6,3.4,0.3,3.8-3.1,3.6
		c-2.2-0.1-4.1,0.5-5.5,2.3c-0.4,0.5-1.3,1.1-1.7,0.9c-3.4-1.2-6.7-2.4-10-3.8c-0.4-0.2-0.5-1.4-0.4-2c0-0.2,1-0.6,1.5-0.5
		c1.3,0.1,2.6,0.4,3.9,0.6c3.8,0.7,7.4,0.2,10.7-1.8c1.9-1.1,3-3,2.5-5.3c-0.5-2.4-2.6-2.2-4.5-2.4c-1.4-0.2-3-0.3-4.1-1.1
		c-2-1.4-3.9-2-6.3-1.5c-0.8,0.2-1.7,0.1-2.5-0.1c-4.5-1.5-9.3-2.4-13.4-4.7c-4.7-2.5-9.1-3.4-14.4-3.3c-5.2,0.1-10.1,0.6-14.9,2.3
		c-1.9,0.7-3.5,2.3-5.3,3.4c-1,0.7-2,1.8-3.2,2c-2.8,0.6-5,1.9-6.5,4"/>
	<path class="voip0" d="M329.6,443.2c-1.6,0.2-3.1,1-4.5,1.8c-5.9,3.5-7.1,6-5.2,12.6c0.9,3.3,0.2,5.9-1.4,8.8c-1.2,2.1-2,4.5-2.4,6.9
		c-0.5,2.5-1.4,4.3-3.5,5.9c-1.7,1.2-3,3.1-4,4.9c-2,3.7-3.5,4.6-7.6,3.9c-4.3-0.7-6.8,0.3-8.4,3.2c-1.1,1.9-0.8,3.3,1.1,4.6
		c0.4,0.3,0.8,0.4,1.2,0.7c1.4,1.2,3.8,2.4,3.9,3.8c0.2,3.1-0.7,6.4-3.3,8.5c-1,0.8-3,0.6-4.6,0.5c-1.2-0.1-2.3-0.8-3.5-1
		c-2.9-0.6-4.8,1.2-4.3,4.1c0.2,1.3-0.3,1.6-1.4,1.8c-3.4,0.7-4.3,1.9-4.4,5.4c-0.1,3.3,0.8,6.3,2.9,8.8c1,1.2,0.9,2-0.4,2.8
		c-0.3,0.2-0.5,0.3-0.8,0.5c-1.8,1.3-4.3,2.3-4,5.2c0.3,3.5,1.6,6.8,4.9,8.4c2.1,1,2.3,2.1,1.3,3.9c-0.6,1.1-1.2,2.3-1.7,3.5
		c-1.7,3.9-0.5,8.2,3.3,10.1c5,2.6,7.4,7.5,11.6,11.7c-4.9,0.2-8.7-1-12.1-3.7c-1.1-0.9-2.7-1.5-4.1-1.9c-1.6-0.5-2.7-1.2-3.4-2.8
		c-1.9-4.3-5.3-7.1-9.9-8.4c-0.7-0.2-1.4-0.5-1.9-0.9c-3.7-3.2-7.5-6.4-11-9.8c-2.4-2.3-2.3-5.4-0.7-7.9c4.1-6.2,2.9-13.2,2.5-19.8
		c-0.2-2.9-2.7-5.8-4.5-8.4c-1.1-1.5-1.6-2.8-0.9-4.4c1.4-3.2,0.7-5.9-0.8-9c-1.4-2.7-1.9-5.8-2.4-8.9c-0.7-5.2-1-10.4-1.5-15.7
		c-0.1-0.8-0.1-1.6,0.1-2.3c1.8-5.6,0.5-11.1-0.5-16.7c-0.8-4.3-1.5-8.7-1.6-13c-0.1-2.5,1.2-5.1,1.8-7.6c1.1-4.8-0.8-8.6-3.9-12
		c-2.3-2.5-4.5-5-6.7-7.6c-1.9-2.2-4.1-3.4-7.1-2.9c-2.7,0.5-4.1-0.5-5.4-2.8c-0.8-1.4-1.9-2.8-3.2-3.8c-1.4-1.1-2-2.2-1.9-3.9
		c0.4-4.6-1.5-8.3-4.6-11.7c-1.9-2.1-3.1-4.7-4.6-7.1c-0.5-0.8-1-1.7-1.5-2.6c-1.8-2.8-3.7-5.7-5.5-8.5c-0.9-1.3-0.6-2.4,0.3-3.6
		c2.7-3.7,2.5-5.9-0.7-9.1c-2-2-2.2-3.3-0.5-5.7c1.8-2.5,2.6-5.2,2.9-8.2c0.2-2.4,1.2-4.4,3.2-5.9c2.9-2.1,4.9-5,6.2-8.5
		c0.9-2.4,0.6-4.4-0.8-6.3c-2.2-2.7-4.5-5.4-7-8c-2.2-2.3-3.3-2.3-6.1-0.6c-4,2.4-4.6,2.3-8-1c-1.4-1.4-3.1-2.5-4.8-3.5
		c-1.4-0.9-1.9-1.7-1.3-3.4c1.4-4.2,1-5.1-3.3-6.3c-2-0.6-3.4-1.5-3.9-3.7c-0.7-2.8-2.7-3.7-5.2-5c-4.2-2.1-9.5-2.8-12.1-7.5
		c-1.8-3.2-4.8-4.2-8.1-3.2c-3.7,1.1-7,0-9.6-2c-6.1-4.8-12.8-8.5-19.6-12.1c-3-1.6-4.3-3.9-4.7-7.2c-0.3-2.5-0.8-4.9-1-7.3
		c-0.3-5.4-3.9-8.8-7.3-12.2c-1.2-1.2-1.9-2.3-1.5-4c0.4-2.1-0.1-4-1.3-5.9c-0.6-0.9-0.7-2.4-0.5-3.5c0.7-4.1-1.2-7.2-3.8-10
		c-1.6-1.7-4.7-1.8-6.6-0.3c-1.9,1.4-2.1,3.6-0.9,6c0.6,1.3,1.2,2.8,1.1,4.1c-0.5,5.9,2,10.9,4,16.1c0.7,1.9,1.2,3.9,1.6,6
		c0.1,0.6-0.7,1.3-1.1,2c-0.7-0.4-1.4-0.9-2-1.4c-0.2-0.2-0.4-0.5-0.4-0.8c-0.3-5.9-4.7-10.2-6.1-15.6c-0.6-2.3-0.9-4.8-0.8-7.2
		c0.1-2.7,0.4-5.4-1-7.9c-0.4-0.6-0.7-1.5-0.5-2.2c1.2-5.9-1.9-10-5.4-14c-1-1.1-2.1-2.5-2.2-3.9c-0.7-5.9-1.7-11.8-0.5-17.7
		c0.2-1.2,0.8-2.3,1.3-3.4c0.3-0.6,0.8-1.2,1-1.8c1.9-5.2,4.4-9.9,8.9-13.4c1.5-1.1,1.9-3.6,2.7-5.5c0.7-1.6,1.1-3.2,1.8-4.8
		c0.8-1.9,1.8-3.3,4.4-3.3c2.7,0,4.9-5.2,3.9-8.5c-1.1-3.4-2.4-4.9-6.5-7.1c0.4-0.8,0.9-1.7,1.3-2.5c0.4-1,1-1.9,1.1-3
		c0.3-2.4,0.3-4.8,0.5-7.3c0.1-2.1-1.2-4-3.3-3.9c-4,0.2-4.8-3-6.3-5.4c-0.3-0.5,0.2-1.6,0.6-2.3c1.8-3.6,1.6-4.8-1.8-6.9
		C83.7,98,78.4,94.8,71.9,95c-4.3,0.1-8.3,1-11.5,4.4c-1.2,1.3-3.3,1.9-5,2.8c-2.8,1.5-5.7,3-8.5,4.5c-2.5,1.3-4.9,3-7.5,4
		c-7.4,3-14.9,5.9-22.5,8.4c-3.7,1.2-7.6,1.6-12.1,2.5c0.6-0.7,0.7-0.9,0.9-0.9c6.6-2.8,13.3-5.6,19.9-8.6c2.8-1.3,2.8-2.4,0.3-4.2
		c-0.9-0.6-1.9-1.1-2.7-1.7c-2.6-1.9-2.4-5.1,0.5-6.5c1-0.5,2.1-0.5,3.1-1c1-0.6,2.2-1.2,2.8-2.2c2.4-3.9,5.5-5.1,9.6-2.9
		c2.1,1.1,4.1,1.2,5.7-0.5c0.9-0.9,1.8-2.6,1.6-3.7c-0.3-1.3-1.7-2.4-2.9-3.3c-0.8-0.6-2.1-0.4-3.1-0.8c-0.5-0.2-1.1-0.8-1.1-1.2
		c0-0.4,0.6-1,1.1-1.2c2.3-1.1,4.5-2.2,6.9-3.1c1.6-0.6,3.4-1,5.1-1c4-0.2,5.8-2.4,5-6.4c-0.4-2.1,0-2.6,2.3-2.5
		c2.4,0.1,4.9,0.3,7.3,0.2c5-0.3,9.6-2,14-4.2c2.7-1.4,5.6-2.5,8.9-1.6c0.6,0.2,1.4,0.1,2.1-0.1c5-1.8,9.8-0.8,14.6,0.6
		c1.2,0.3,2.4,0.4,3.6,0.4c6.2,0,12.5-0.1,18.7,0.1c1.9,0.1,3.9,0.8,5.5,1.8c6,3.7,12.2,5.4,19.1,3c5-1.7,9.9-2.7,15.1-0.8
		c1.1,0.4,2.6,0.2,3.9-0.1c3.6-0.8,6.9-0.2,9.9,1.9c2.1,1.5,4.2,2.1,6.7,1.6c2.2-0.5,4,0.2,5.5,2c1.7,2.1,4.1,3.1,6.9,3.4
		c6.6,0.7,12.9-0.7,19-2.9c1.9-0.7,3.6-0.6,5.6-0.3c6.5,1.2,13.1,1.6,19.5-0.9c0.9-0.3,1.8-1.4,2.1-2.2c0.8-2.3,2-3.7,4.5-4.4
		c2.1-0.6,3.9-2.1,5.9-3c0.8-0.3,2.5-0.4,2.7,0c0.5,1,1,2.6,0.5,3.4c-1.9,3.2-1.4,6.2,0.1,9.3c0.8,1.7,0.4,2.8-1.2,3.6
		c-5.2,2.5-10,5.7-16.1,5.7c-1.6,0-3.2,1.4-4.7,2.5c-2.4,1.7-4.6,3.6-6.8,5.3c-0.1,0-0.1,0.1-0.2,0.1c-3.2,3-6.9,5.6-9.6,9.1
		c-3,3.8-0.6,8.7,4,9.8c0.4,0.1,0.8,0.3,1.1,0.3c3.4-0.2,5.8,1.1,7.8,3.9c0.7,1,2.6,1.4,4,1.8c1,0.3,2.5-0.4,2.7,1.3
		c0.3,1.7,0.8,3.4-1.2,4.5c-2.3,1.3-2.7,3.2-2.1,5.8c0.7,2.7,1.8,4.7,4.7,5.3c3.1,0.7,5.8,0.3,8-2.2c2-2.1,3.4-4.4,2.8-7.5
		c-0.3-1.5,0.5-2.3,1.7-2.9c2.3-1,4.8-1.9,6.9-3.2c2-1.2,3.8-2.8,5.6-4.4c1.5-1.4,1.7-3.2,1.4-5.3c-0.3-1.9,0.1-4,0.4-5.9
		c0.1-0.4,0.8-0.9,1.3-1.1c2.2-0.9,3.2-2.5,3.6-4.7c0.6-3.1,3.3-5,6.3-4c3.8,1.2,7.5,2.1,11.5,1.3c1.7-0.3,2.7,1.5,1.9,3.4
		c-0.6,1.5-1.4,2.9-1.9,4.5c-0.9,3.2,0.8,5.6,4.1,5.8c3.3,0.2,6.4-0.4,8.9-3c1-1,2.4-1.7,3.7-2.2c2.1-0.8,3.5,0.4,3.3,2.6
		c-0.1,0.7-0.3,1.4-0.4,2c-0.4,2.1,0.2,3.9,1.7,5.5c1.4,1.7,2.5,3.6,3.8,5.4c0.9,1.2,1.8,2.5,2.9,3.5c1.7,1.6,2,3,0.4,4.8
		c-2.2,2.7-5,4.4-8.4,5.4c-2.4,0.7-4.6,2.1-6.9,3c-1.7,0.7-3.6,1.5-5.4,1.5c-3.6,0-7.2-0.7-10.8-0.8c-1.4,0-3,0.5-4.3,1.1
		c-4.1,2.1-8.2,4.3-12.2,6.5c-1.5,0.8-3.2,1.3-4.4,2.4c-0.9,0.8-1.8,2.3-1.6,3.4c0.1,0.8,2,1.9,3,1.8c3.2-0.4,6.6-0.8,9.6-2
		c3.1-1.2,6-2.6,9.4-2.9c1.4-0.1,2.8-1,4.2-1.3c0.8-0.2,2.4,0,2.5,0.2c0.2,1.1,0.2,2.4-0.2,3.4c-0.4,0.8-1.5,1.3-2.3,1.9
		c-2.1,1.9-2.4,3.3-1.1,5.9c0.8,1.7-0.1,4.2-1.7,5c-3,1.5-6,3-9,4.5c-1.2,0.6-2.4,1-3.5,1.4c-0.3-0.2-0.5-0.3-0.6-0.4
		c-1.8-4.7-6.1-6.8-10.7-4.5c-3.8,1.9-7.3,4.5-10.7,7.1c-0.9,0.7-1.4,2.4-1.6,3.7c-0.3,1.7-0.9,2.8-2.7,2.9
		c-7,0.7-10.7,5.7-14.6,10.6c-0.8,1-1.8,2-2.9,2.6c-2.9,1.7-4.5,4.1-5.1,7.5c-0.3,2-1.7,4.2-3.2,5.6c-2.4,2.2-5.2,4.2-8.2,5.6
		c-8.9,4.4-11,10.3-9.5,19.4c0.8,4.3-0.3,8.3-1,12.3c-0.2,0.9-1,1.6-1.6,2.8c-0.6-0.8-1.1-1.2-1.3-1.7c-1.2-3-2.5-6-3.6-9
		c-0.2-0.6,0-1.5,0.2-2.2c0.8-2.6,0.1-4.7-2.1-6.1c-1.7-1.1-3.7-1.8-5.5-2.8c-1-0.5-1.9-1.2-2.9-1.7c-1.4-0.8-2.7-1.8-4.2-2.2
		c-2.2-0.6-4.3,0.3-4.8,2.5c-0.9,3.4-3.2,3.7-6,3.4c-0.5,0-1,0-1.4-0.2c-9.5-4.5-15.8,1.9-22.3,6.7c-2,1.5-3.2,4.6-3.8,7.2
		c-1.3,5.3-2.7,10.6-2,16.2c0.1,1.1-0.4,2.3-0.7,3.3c-2.2,6.4-0.6,9.9,5.8,11.9c2.6,0.8,5.4,1.4,8.1,1.6c3,0.2,5.2-1.4,6.6-4.2
		c2.2-4.2,5.9-6.6,10.4-7.6c0.8-0.2,1.9,0.5,2.5,1.1c0.3,0.4,0,1.5-0.2,2.2c-0.8,2.8-1.7,5.5-2.6,8.3c-0.3,0.9-0.7,1.7-1.2,2.4
		c-0.4,0.7-1.1,1.3-1.6,2c-1.3,2.1-1.3,5,0,6.5c1.4,1.7,4.3,2.3,6.6,1.4c1.2-0.5,2.4-1.3,3.6-1.4c1.2-0.1,2.9,0.3,3.6,1.2
		c0.6,0.7,0.4,2.4,0.1,3.6c-0.2,1-1,1.9-1.6,2.8c-1,1.8-1.1,3.4,0.3,5.1c0.7,0.9,1.2,2.3,0.9,3.4c-0.8,4,0.9,7.5,1.9,11
		c0.7,2.2,3.2,3.2,5.5,2.6c1.1-0.3,2.3-0.4,3.4-0.8c3.2-1.3,5.2,0.4,7.1,2.6c1.1,1.3,2.6,2.2,3.9,3.4c1.3,1.2,2,0.3,2.7-0.7
		c1-1.3,2-2.8,3.3-3.8c2.3-1.7,3.6-3.8,3.5-6.6c-0.1-1.8,0.7-3.1,2.3-3.9c1.4-0.7,2.8-1.7,4.2-2.5c3.9-2.2,6-1.7,8.8,1.7
		c1.9,2.3,4.2,3.1,6.5,1.5c2.5-1.7,4.4-0.9,6.2,0.8c2.9,2.9,6.1,3.1,9.8,1.9c3.6-1.2,6.8-0.5,9.3,2.8c0.7,0.9,1.9,1.5,2.9,2.1
		c1.7,1.1,3.5,2.2,5.2,3.4"/>
	<path class="voip0" d="M447.4,63.5c0.8-2.3,1.5-4.7,2-7.1c0.5-2.2,1.4-4,3.3-5c3.9-2.2,5.2-6,6-9.9c0.4-1.9,1.2-3.3,3-4.1
		c3.2-1.4,6.5-2.8,9.7-4.2c1.7-0.8,3.3-1.8,2.8-4c-0.5-2-2.1-2.8-4-2.9c-9.1-0.6-18.1-1.2-27.2-1.8c-3.4-0.2-6.8-0.6-10.1-0.4
		c-3.7,0.3-7.3,1.7-10.9,1.7c-8.3,0.2-16.7,0.1-25-0.2c-3.8-0.1-7.3,0.5-10.7,2.3c-1.5,0.8-3.3,0.9-5,1.1c-3.1,0.3-6.2,0.4-9.4,0.7
		c-2.5,0.2-4.9,0.6-7.4,0.9c0.3-0.8,0.7-1.1,1.1-1.4c0.5-0.4,1.1-0.6,1.5-1.1c1.4-1.3,1.4-2.6-0.2-3.6c-0.7-0.5-1.5-0.9-2.3-0.9
		c-3.8-0.2-7.7-0.5-11.5-0.3c-7.3,0.4-14.6,1-21.9,1.7c-5.8,0.5-11.6,1.2-17.5,1.7c-1.9,0.2-3.8,0-5.7,0.1c-2.3,0.1-4.5,0.3-6.8,0.5
		c-1.7,0.2-3.4,1-5.1,0.9c-3.7-0.1-6.5,1.7-9.1,3.9c-0.6,0.5-1.2,1.7-1,2.4c0.8,3,1.5,6.2,3,8.9c1.6,2.9,4.5,3.4,7.7,2.5
		c4.1-1.2,8.2-1.4,12.1,0.7c2.3,1.2,4.1,0.6,6-0.8c1-0.8,2.2-1.4,3.4-2c2.9-1.3,5.8-2.4,8.7-3.6c5.1-2.2,10.1-4.6,15.2-6.7
		c1.8-0.8,3.8-1.2,5.8-1.4c4.4-0.5,8.9-0.7,13.4-1c-4.2,2.8-8.4,5.7-13.6,6.2c-1.6,0.1-3.2,0.1-4.8,0.2c-2.6,0.2-4.4,1.7-5,4.1
		c-0.5,1.9,0.4,3.8,2.2,4.2c5,1.3,10,1.7,15.1,0.8c4.8-0.9,6.6,1.1,5.7,5.9c-0.3,1.4-0.2,3,0.3,4.2c0.7,1.4,0.5,2-0.5,3.1
		c-2.8,3.1-1.3,7.7,2.7,8.7c0.7,0.2,1.4,0.4,2.1,0.6c0.1,0.3,0.1,0.6,0.2,0.9c-1.4,0.6-2.7,1.2-4.1,1.7c-3.3,1-6,2.3-6.3,6.4
		c-0.1,1.1-0.9,2.3-1.7,3.2c-1.9,2.2-2.2,4.6-1,7.1c0.8,1.6,2.2,2.9,3.2,4.4c0.7,1,1.5,2.1,1.9,3.3c0.7,2,1.9,3.2,3.9,3.8
		c2,0.6,4,1.5,5.9,2.5c4.2,2.5,8.6,1.6,11.3-2.5c1.5-2.3,3-4.5,4.4-6.8c3.4-5.6,7.9-9.5,14.7-10.4c1.6-0.2,3.8-1.6,4.3-3
		c1-2.6,2.8-3.7,5-4.7c2.5-1,4.9-2.3,7.5-2.9c1.9-0.5,4.2-0.7,6-0.2c3.5,1,6.6,0.7,9.9-0.5c2.8-1,5.8-1.6,8.7-2
		C443.3,68.9,446.1,67.2,447.4,63.5z"/>
	<path class="voip0" d="M1029.8,440.3c-1.8-2.9-4.3-5.3-6.5-8c-0.6-0.8-1.1-1.6-1.6-2.5c-0.9-1.8-1.5-3.7-2.5-5.5
		c-2-3.5-2.5-7.1-1.7-11c0.6-2.8,0-5.1-1.9-7c-1.7-1.8-2.4-3.9-2.4-6.3c0-0.9-0.2-1.9-0.4-2.7c-0.8-2.9-3-3.9-5.2-2
		c-1.9,1.6-3.5,3.9-4.4,6.2c-1.9,4.5-3.2,9.3-4.8,14c-0.8,2.4-1.4,2.5-3.4,1.1c-3.3-2.5-6.6-4.8-9.8-7.3c-0.5-0.4-0.8-1.5-0.8-2.2
		c0.2-2,0.6-4,1-5.9c0.3-1.8-0.3-3-1.9-3.8c-2.1-1-4.3-2.1-6.5-3c-2-0.8-3.8-0.6-5.8,0.5c-1.4,0.8-3,1.3-4.5,1.5
		c-4.1,0.7-6.8,4-6.5,8.1c0.1,0.7,0,1.3,0,2.5c-1.9-0.4-3.5-0.3-4.7-1c-4.6-2.4-6.2-2.1-9.5,1.9c-1,1.2-2.1,2.7-3.5,3.3
		c-4.7,1.8-7.4,5.6-10.1,9.5c-4,6-9.4,9.6-16.7,10c-1.6,0.1-3.2,0.3-4.8,0.7c-6.5,1.6-12.1,8.2-13.2,14.8c-1.2,6.9-2,13.8-0.7,20.7
		c0.7,4,0,7.4-1.8,10.9c-1,1.9-1.5,4-2.3,6c-0.4,1-0.8,2-1.4,2.9c-1.4,2.3-1,4.3,1.5,5.5c2.8,1.3,5.8,1.4,8.3-0.8
		c2.5-2.1,5.3-2.4,8.3-2.8c4.8-0.6,9.5-1.8,14.2-2.7c3.5-0.7,6.9-1.3,10.4-2.1c3-0.7,5.9-1.5,8.9-2.3c2.1-0.5,4.1-1.4,6.2-1.6
		c4.8-0.4,8.4,2.2,8.7,6.1c0.1,1.9,0.3,4,2.2,4.4c1.4,0.3,3.1-0.8,4.5-1.3c1.4-0.5,2.6-1.2,3.9-1.9c0.2,0.3,0.4,0.6,0.7,0.9
		c-0.7,0.9-1.3,2-2.1,2.8c-2.7,2.8-2.1,5.5,1.4,7.1c0.6,0.2,1.1,0.5,1.7,0.7c1.4,0.4,1.8,1.2,1.8,2.7c-0.1,1.1,0.5,2.9,1.3,3.4
		c2.3,1.2,5,2.8,7.2,2.5c3.2-0.5,6-0.2,9,0.6c0.4,0.1,0.8,0.1,1.1,0c6.1-1.4,12.6-2,16.3-8.3c0.5-0.8,1.4-1.4,2.1-2.2
		c2.2-2.4,4.4-4.7,6.5-7.2c4-4.7,8.1-9.3,11.9-14.1c3.1-4.1,6.2-8.2,7.3-13.5c1-4.7,0.1-9-1.5-13.3
		C1032.6,446.3,1031.5,443.1,1029.8,440.3z"/>
	<path class="voip0" d="M272.1,65.8c0.6,1.4,0.3,2.1-0.7,2.9c-1.5,1.1-3,2.2-4.3,3.5c-1.7,1.6-1.5,3.4,0.5,4.5
		c1.1,0.6,2.5,0.6,3.7,0.8c1.4,0.2,2.9,0.2,4.3,0.6c1.9,0.6,3.5,0.2,5-0.9c2.1-1.6,4.2-3.3,6.2-5.1c0.8-0.7,1.2-1.9,1.4-3
		c0.5-2.1,2.1-4,4.3-3.7c2,0.3,3.9,1.9,5.7,3c0.1,0.1-0.4,1.2-0.6,1.8c-0.3,1.1-0.7,2.2-0.6,3.3c0.3,3.4-1.6,5.4-4.9,4.8
		c-3.8-0.7-6.7,1-9.1,3.4c-2.1,2.1-1,4.9,2,5.6c1.1,0.2,2.3,0.2,3.4,0.5c2.2,0.7,4.4,1.4,6.4,2.5c1.9,1.1,3.5,2.7,5.4,3.9
		c4.1,2.4,8.7,1.7,11.8-1.9c1-1.2,1.9-1.6,3.5-1.3c3.3,0.6,5.4-2.2,4.3-5.4c-0.2-0.6-0.6-1.1-0.7-1.7c-0.1-0.9-0.3-2.4,0.1-2.7
		c0.8-0.4,2-0.3,3-0.1c1.7,0.3,3.4,1,5.1,1.1c2.2,0.1,3.8-1.1,4.7-3.1c0.9-2.1,0.6-4-1-5.5c-1.3-1.2-3-2.1-4.5-3
		c-1.1-0.6-2.3-1.1-3.5-1.6c0.6-1.8,1.6-3.4,1.3-4.5c-1-3.1-1.8-6.7-4.9-8.4c-4.3-2.3-9-4.1-14.1-3.6c-3.4,0.3-6.8,0.8-10.2-0.6
		c-1.2-0.5-2.7-0.1-4.1-0.1c-2.5,0.1-5,0.5-7.5,0.2c-3-0.4-5.3,0.6-7.2,2.7c-0.5,0.6-1,1.3-1.6,1.6
		C270.4,58.2,270.2,61.3,272.1,65.8z"/>
	<path class="voip0" d="M1042.3,390.1c0.6-2.4-1.1-3.6-2.8-4.5c-2.3-1.2-4-2.8-5.3-5c-0.8-1.3-2.1-2.2-3.1-3.4
		c-0.6-0.7-1.1-1.5-1.2-2.3c-0.3-2.8-1.8-4.6-4.2-6c-1.3-0.9-2.6-2.2-3.4-3.5c-1.4-2.5-3.3-4.3-6-4.5c-2.7-0.2-4.6-1.5-6.6-2.8
		c-1.8-1.2-3.8-2.3-5.7-3.5c-4.4-2.5-7.5-2.2-11.4,1.1c-1,0.9-2.2,1.7-3.4,2.3c-3.1,1.4-4.8,0.4-4.6-3.1c0.2-3.7-1.4-6-6.4-6.4
		c-1.6-0.1-3.2-0.3-4.8-0.6c-1.9-0.4-3,0.4-3.6,2c-0.7,2-0.1,4.1,1.8,5.5c0.9,0.6,1.5,1,1.1,2.4c-1.3,4,0.2,6.3,4.4,7.1
		c0.9,0.2,1.9,0.2,2.6,0.7c3.5,2.6,7.4,3.9,11.7,4.2c1.6,0.1,2.3,0.8,2.6,2.4c0.3,1.6,0.3,2.8-1.2,3.8c-1.8,1.2-2.4,3.4-1.4,5.1
		c0.6,1,2.7,1.2,4.1,1.8c0.3,0.1,0.6,0,0.9-0.1c2.5-0.9,4.3-0.2,5.7,2c1,1.5,2.5,1.9,4.3,1.7c1.8-0.2,3.7-0.3,5.5-0.3
		c2.2,0,3.7-0.7,4.6-2.8c1-2.4,3-2.7,4.9-0.8c1.2,1.2,2.6,2.4,3.2,3.9c2.5,5.7,8,5.2,12,6.6C1039.7,393.1,1041.9,391.9,1042.3,390.1
		z"/>
	<path class="voip0" d="M972.4,175c3.3,0.4,5.6-1,6.3-3.7c0.5-2.1-1.3-5.1-4.2-5.5c-4.6-0.7-8.3-3.1-12.2-5.2
		c-2.8-1.5-4.4-0.6-5.1,2.5c-1,4.2,0.3,7.9,2.7,11.3c0.6,0.9,0.8,2.1,0.9,3.2c0.1,3.8,0.1,7.6,0.2,11.3c0,0.7,0.5,1.4,0.9,2.1
		c2.2,3.3,1.7,4.4-2.3,4.7c-2.4,0.2-4.7,0.4-6.7,2c-1.6,1.2-3.5,2.2-5.4,2.8c-2.3,0.8-3.3,2.1-3.7,4.4c-0.8,4.3,0.2,8.1,2.1,11.8
		c0.7,1.3,1.1,2.7,3.3,2.5c2.2-0.2,3.2-1.1,3.6-3.1c0.4-2.1,1.5-3.3,3.9-2.8c1.6,0.3,3.3-0.2,3.4-2c0.3-3.5,2.5-3.2,5-3.4
		c3-0.2,5.9-0.7,8.8-1.4c1.7-0.4,3.2-1.9,2.4-3.8c-0.8-2.1,0.1-3.9,0.2-5.8c0.2-2.2,0.2-4.5-0.3-6.5c-0.4-1.6-1.8-3-2.7-4.6
		c-2-3.3-3.9-6.7-2.6-11C971.7,174.9,972.1,175,972.4,175z"/>
	<path class="voip0" d="M1095,507.2c-1.1-1.6-1.1-3.1-0.8-4.8c0.2-1,0.3-2,0.5-3.2c-0.3-1.2-0.6-2.7-1.1-4c-0.9-2.2-2.7-2.6-4.1-0.8
		c-1.8,2.4-3.2,5-4.9,7.5c-2.1,3-3.9,6.4-6.4,8.9c-2.2,2.2-5.3,3.4-8,5c-1.6,0.9-3.3,1.7-4.8,2.7c-5.3,3.4-10.5,6.9-15.8,10.3
		c-3,1.9-6.2,3.5-9.2,5.4c-2.4,1.5-2.6,2.8-1.1,5.2c1.3,2.2,3.3,2.3,5.5,1.9c6.9-1.2,12.8-4.7,18.7-8.3c7.5-4.6,15-9.1,22.5-13.8
		c2.7-1.7,5.4-3.6,7.8-5.7C1095.8,511.8,1096.3,509.1,1095,507.2z"/>
	<path class="voip0" d="M920.2,322.5c4,3.3,4,3.1,1.4,7.4c-0.7,1.1-1,2.9-0.6,4.1c0.6,2.2,1.8,4.2,2.7,6.3c0.8,1.7,1.2,3-0.2,4.9
		c-3.5,4.6-7.5,8.8-8.6,14.8c-0.2,0.9-1.8,1.5-2.6,2.1c-0.8-0.3-1.2-0.4-1.5-0.5c-2.3-0.8-4.7-2.3-7-2.1c-6.2,0.5-8.6-4.2-11.4-8
		c-1.6-2.2-1.7-5.5-2.1-8.4c-0.2-1.4,0.8-2.3,2.4-2.1c2.7,0.3,4.4-0.8,6-2.9c1-1.3,3.1-2.2,4.9-2.5c3.5-0.5,4.8-1.2,5.6-4.7
		c0.4-2,1.3-3.2,3-4.3c1.4-0.9,2.3-2.5,3.5-3.7C917,321.5,918.3,321,920.2,322.5z"/>
	<path class="voip0" d="M938.6,348.1c1.6,0.5,3.5,0.6,5.2,0.5c3.6-0.3,7.2-4.2,6.9-7.2c-0.2-2.4-2.1-3.7-4-2.4
		c-3.5,2.5-7.1,2.4-11,1.6c-2.8-0.6-5.1,0.7-6.4,3.1c-0.9,1.6-1.4,3.5-2.1,5.3c-0.7,1.9-1.1,3.9-2,5.6c-1.8,3.2-2.4,6.6-2.3,10.2
		c0.1,3.4,3,6.4,6.3,6.6c2.5,0.1,3.7-1,3.9-3.4c0.1-0.7,0.1-1.5,0.3-2.7c0.6,1,1,1.5,1.3,2c1.4,2.3,3.2,2.9,5.5,1.8
		c2-1,2.7-2.8,1.7-5.3c-0.5-1.2-1.1-2.4-1.7-3.6c1.9-1.6,4.4-2.9,3-6c-1.9-4.1-5-2.2-8.1-1.1c0.1-1.3,0.2-2.1,0.3-2.9
		C935.7,348,936.5,347.4,938.6,348.1z"/>
	<path class="voip0" d="M241.1,263.9c-4.5-0.8-8.7-3.1-13.5-2.6c-2.4,0.3-4.3-0.8-5.8-2.7c-0.7-0.9-1.9-1.4-3-2
		c-0.9-0.6-2-0.9-2.7-1.6c-3.4-3-7.6-4-11.9-4.6c-1.6-0.2-3.4,0.2-5,0.7c-2.3,0.9-2.6,3.8-0.6,4.9c3.8,2,7.7,3.9,11.5,5.8
		c2.4,1.2,4.6,2.5,6.2,4.9c0.8,1.3,2.5,2.5,3.9,2.7c2.6,0.3,4.6,1.4,6.7,2.7c2.2,1.4,4.6,2.4,6.8,3.5c3.7-1.5,7.1-2.7,10.3-4.4
		c0.7-0.4,1.3-2.6,0.9-3.4C244.1,266.3,242.6,264.2,241.1,263.9z"/>
	<path class="voip0" d="M235.2,57c-1.8,1.9-2.2,4.2-2.1,6.7c0.1,2-0.8,2.6-2.6,2.5c0-0.2,0-0.4,0-0.6c-3.9,0-7.8,0-11.6,0
		c-0.7,0-1.6,0.1-2.2,0.5c-3.1,2.2-6.7,2.2-10.2,2.1c-2,0-3.9-1.5-5.8-2.4c-0.3-0.1-0.4-0.8-0.3-1.2c0.2-1.9,3.9-5.2,5.8-5.5
		c3.1-0.6,6.1-1.4,9.2-2.1c1-0.2,2.1-0.3,3.2-0.2c3.6,0.3,7-0.2,10.2-2.1c1.3-0.8,3-1.3,4.6-1.4c0.9-0.1,2.1,0.8,2.7,1.5
		C236.3,55.1,235.8,56.5,235.2,57z"/>
	<path class="voip0" d="M257.8,44.8c2.7-0.6,5.4-1.3,8.1-1.6c0.7-0.1,1.8,0.7,2.4,1.4c0.7,0.7,1,1.7,1.8,3c-5.2,1.1-10.2,0.1-15.3,0.5
		C255,45.8,256.3,45.1,257.8,44.8z"/>
</g>
<path class="voip1" d="M719.4,347.5c-1.2,5.4-1.7,7.1-3.3,12.3 M716.9,233.3c1.4,4.8,1.9,6.9,3,11.8"/>
<path class="voip0" d="M752.2,325c-1.8-5.3-7.2-8-7.4-8.1"/>
<path id="svg-concept" class="voip2" d="M683.3,426.5c-40.9,57.4-107.3,94-183.1,94c-124.5,0-225.4-100.9-225.4-225.4
	S375.7,69.6,500.2,69.7c76.8,0,145.9,40.3,184.6,96"/>
<path class="voip0" d="M736.8,321.5c2.1,0,3.8-0.6,4.9-1.6l0.9-0.9c1.9-1.8,4.3-4.1,4.2-7c-0.1-2-1.3-4-3.8-5.9
	c-2.9-2.3-5.2-3.4-7.2-3.4c-2.5,0-4,1.6-5.7,3.3c-0.2,0.2-0.3,0.4-0.5,0.5c-0.1,0.1-0.3,0.2-0.6,0.2c-1.1,0-3.8-1-10.2-7.3
	c-2.8-2.8-4.8-5.1-6-7s-1.6-3.3-1.1-3.8l0.5-0.5c1.5-1.5,3-2.9,3.2-5c0.3-2.2-0.7-4.6-3.4-7.9c-2-2.5-4.1-3.8-6.2-3.8
	c-2.8,0-5,2.3-6.8,4.2l-0.9,0.9c-1.1,1.1-1.6,2.8-1.6,5c0,2.1,0.6,4.6,1.6,7.3c2.3,6.1,6.8,12.6,12.7,18.5
	c4.5,4.5,9.5,8.3,14.3,10.8C729.6,320.3,733.6,321.5,736.8,321.5L736.8,321.5L736.8,321.5z M744.3,293.5c0-4.6-1.7-9.1-5.2-12.6
	s-8-5.2-12.6-5.2 M753.6,292.1c0.1-13.8-11-24.9-24.8-25c-0.1,0-0.1,0-0.2,0"/>
<circle class="voip0" cx="703.8" cy="198" r="36.4"/>
<path class="voip0" d="M685.7,187.2c0-1,0.8-1.7,1.7-1.7h32.8c1,0,1.7,0.8,1.7,1.7v21.6c0,1-0.8,1.7-1.7,1.7h-32.8
	c-1,0-1.7-0.8-1.7-1.7V187.2z"/>
<path class="voip0" d="M720.2,185.5l-16.4,12.1l-16.4-12.1 M698.6,194.1l-12,15.5 M709,194.1l12.1,15.5"/>
<circle class="voip0" cx="703.8" cy="395.3" r="36.4"/>
<path class="voip0" d="M703.8,377.3v36 M685.8,395.3h36"/>
<circle id="svg-concept" class="voip3" cx="414.9" cy="171" r="32.7"/>
<circle class="voip0" cx="412.5" cy="253.7" r="32.7"/>
<circle class="voip0" cx="414.9" cy="336.4" r="32.7"/>
<circle class="voip0" cx="414.9" cy="419.1" r="32.7"/>
<ellipse transform="matrix(0.1736 -0.9848 0.9848 0.1736 242.8549 631.3578)" class="voip0" cx="497.6" cy="171" rx="32.7" ry="32.7"/>
<ellipse transform="matrix(0.1564 -0.9877 0.9877 0.1564 169.3573 705.5483)" class="voip0" cx="497.7" cy="253.6" rx="32.7" ry="32.7"/>
<ellipse id="svg-concept" transform="matrix(0.4574 -0.8893 0.8893 0.4574 -27.7746 627.3117)" class="voip3" cx="500.1" cy="336.4" rx="32.7" ry="32.7"/>
<ellipse transform="matrix(0.4574 -0.8893 0.8893 0.4574 -101.431 672.0208)" class="voip0" cx="499.9" cy="419.1" rx="32.7" ry="32.7"/>
<circle class="voip0" cx="582.9" cy="171" r="32.7"/>
<circle id="svg-concept" class="voip3" cx="585.4" cy="253.7" r="32.7"/>
<circle class="voip0" cx="582.9" cy="336.4" r="32.7"/>
<circle class="voip0" cx="582.9" cy="419.1" r="32.7"/>
<path class="voip4" d="M419.4,187.1V155 M419.4,155h-9 M417.2,352.4v-32 M417.2,320.4h-8.8 M421.5,336.4h-13.1 M508,170.9V155
	 M492.2,171.1h15.9 M508,155h-15.4 M492.1,171.1v16 M492.1,187.1h15.5 M508,253.8v16 M492.2,253.6h15.9 M508,269.8h-15.4
	 M492.1,253.6v-15.9 M492.1,237.7h15.5 M508,320.4v32.1 M492.2,336.4H508 M508,352.5h-15.4 M492.2,352.5v-32.1 M492.2,320.4h15.4
	 M507.9,403v32.2 M507.9,435.2h-15.6 M491.9,435.2V403 M491.9,403h15.5 M593.3,187.1V155 M577.4,171.1h16 M593.3,155h-15.4
	 M577.3,187.1h15.5 M407,254.1V238 M422.7,254.1h-15.8 M422.8,238v31.4 M577.5,269.4V238 M593.2,254.1h-15.8 M593.2,269.4h-15.8
	 M593.3,254.1v15.3 M593.2,320.7v31.4 M577.5,336h15.8 M577.5,320.7h15.8 M577.4,336v-15.3 M422.9,408.9l-4,20.4 M401.9,422.5h25.9
	 M401.9,415.5h25.9 M407.2,429.3l4-20.4 M585.6,431.5v-24.9 M576.6,427.9l17.5-17.6 M576.8,410.3l17.6,17.6"/>
<g>
	<circle id="svg-concept" class="voip5" cx="725.1" cy="296" r="50.6"/>
	
		<animate  accumulate="none" additive="replace" attributeName="opacity" calcMode="linear" dur="1s" fill="remove" repeatCount="indefinite" restart="always" values="0;1;0">
		</animate>
</g>
<g>
	<path id="svg-ico" class="voip6" d="M687.3,160.4c0,3.3-2.6,6-6,6c-3.3,0-6-2.6-6-6s2.6-6,6-6S687.3,157,687.3,160.4z"/>
	
		<animateTransform  accumulate="none" additive="replace" attributeName="transform" calcMode="linear" dur="5s" fill="remove" from="0 495 305" repeatCount="indefinite" restart="always" to="-285 510 295" type="rotate">
		</animateTransform>
</g>
</svg>
