<svg version="1.1" id="Layer_1" xmlns="http://www.w3.org/2000/svg" x="0" y="0" viewBox="0 0 646.6 652.5" style="enable-background:new 0 0 646.6 652.5" xml:space="preserve"><style>.vpn1,.vpn2,.st5{fill:none;stroke:gray;stroke-linecap:round;stroke-linejoin:round;stroke-miterlimit:10}.vpn2,.st5{stroke:#ee5586;stroke-width:2}.st5{stroke:gray}</style><g><path id="svg-concept" d="M128 197c34 35 115 34 115 34v112c0 61-115 111-115 111S19 406 19 344V231c1 0 76 1 109-34" style="fill:none;stroke-width:4;stroke-linecap:round;stroke-linejoin:round;stroke-miterlimit:10"/><path class="vpn1" d="M129 235c27 27 84 27 84 27v75c0 45-85 81-85 81s-80-36-80-81v-75c1 0 54 0 81-27M82 279l-7 8M107 274l-41 41"/><circle id="svg-concept" class="vpn2" cx="128.2" cy="336.2" r="24.1"/><path id="svg-concept" class="vpn2" d="M128 332v11m-11-35v-7c0-4 3-8 7-8h8c4 0 8 3 8 8v7"/><animateMotion accumulate="none" additive="replace" begin="1s" calcMode="paced" dur="3s" fill="remove" path="M0, 0 -10 0 0 0 10 0 0 0 -10" repeatCount="indefinite" restart="always"/></g><path d="M437 60h205v411h1-206" style="fill:none;stroke:gray;stroke-width:2;stroke-miterlimit:10"/><path d="M128 177V4h309v611l-1 33h0-308V479" style="fill:none;stroke:gray;stroke-width:3;stroke-linecap:round;stroke-linejoin:round;stroke-miterlimit:10"/><path class="st5" d="M410 94c0 5-4 8-8 8H160c-3 0-6-3-6-8V68c0-4 3-7 6-7h242c4 0 8 3 8 7v26s0 0 0 0z"/><circle id="svg-concept" class="vpn2" cx="374.2" cy="81.4" r="10.6"/><circle id="svg-concept" class="vpn2" cx="332" cy="81.3" r="2.6"/><circle class="st5" cx="320.9" cy="81.3" r="2.6"/><path class="vpn1" d="M344 81h0c0 4-3 7-7 7H184c-4 0-7-3-7-7h0c0-3 3-7 7-7h153c4 0 7 4 7 7h0z"/><circle id="svg-concept" class="vpn2" cx="374.2" cy="81.4" r="4.3"/><path class="st5" d="M410 178c0 4-4 8-8 8H160c-3 0-6-4-6-8v-26c0-4 3-8 6-8h242c4 0 8 4 8 8v26s0 0 0 0z"/><circle id="svg-concept" class="vpn2" cx="374.2" cy="165" r="10.6"/><circle id="svg-concept" class="vpn2" cx="332" cy="164.9" r="2.6"/><circle class="st5" cx="320.9" cy="164.9" r="2.6"/><path class="vpn1" d="M344 165h0c0 4-3 7-7 7H184c-4 0-7-3-7-7h0c0-4 3-7 7-7h153c4 0 7 3 7 7h0z"/><circle id="svg-concept" class="vpn2" cx="374.2" cy="165" r="4.3"/><path class="st5" d="M278 228h124c4 0 8 3 8 7v27s0 0 0 0c0 4-4 7-8 7H278"/><circle id="svg-concept" class="vpn2" cx="374.2" cy="248.6" r="10.6"/><circle id="svg-concept" class="vpn2" cx="332" cy="248.5" r="2.6"/><circle class="st5" cx="320.9" cy="248.5" r="2.6"/><path class="vpn1" d="M278 241h59c4 0 7 4 7 8h0c0 4-3 6-7 6h-59"/><circle id="svg-concept" class="vpn2" cx="374.2" cy="248.6" r="4.3"/><path class="st5" d="M625 278c0 3-2 5-5 5H458c-3 0-4-2-4-5v-24c0-3 1-5 4-5h162c2 0 4 2 4 5l1 24h0z"/><circle id="svg-concept" class="vpn2" cx="590.4" cy="266" r="10.3"/><circle id="svg-concept" class="vpn2" cx="590.4" cy="266" r="4.3"/><path class="st5" d="M625 334c0 2-2 5-5 5H458c-3 0-4-3-4-5v-25c0-2 1-5 4-5h162c2 0 4 3 4 5l1 25h0z"/><circle id="svg-concept" class="vpn2" cx="590.4" cy="321.6" r="10.3"/><circle id="svg-concept" class="vpn2" cx="590.4" cy="321.7" r="4.3"/><path class="st5" d="M625 390c0 2-2 5-5 5H458c-3 0-4-3-4-5v-25c0-3 1-5 4-5h162c2 0 4 2 4 5l1 25h0z"/><circle id="svg-concept" class="vpn2" cx="590.4" cy="377.3" r="10.3"/><circle id="svg-concept" class="vpn2" cx="590.4" cy="377.2" r="4.3"/><path class="st5" d="M625 445c0 3-2 5-5 5H458c-3 0-4-2-4-5v-24c0-3 1-5 4-5h162c2 0 4 2 4 5l1 24h0z"/><circle id="svg-concept" class="vpn2" cx="590.4" cy="433.4" r="10.3"/><circle id="svg-concept" class="vpn2" cx="590.4" cy="433.2" r="4.3"/><path class="st5" d="M625 222c0 3-2 5-5 5H458c-3 0-4-2-4-5v-24c0-3 1-5 4-5h162c2 0 4 2 4 5l1 24h0z"/><circle id="svg-concept" class="vpn2" cx="590.4" cy="210.4" r="10.3"/><circle id="svg-concept" class="vpn2" cx="590.4" cy="210.4" r="4.3"/><path class="st5" d="M625 167c0 2-2 5-5 5H458c-3 0-4-3-4-5v-25c0-3 1-5 4-5h162c2 0 4 2 4 5l1 25h0z"/><circle id="svg-concept" class="vpn2" cx="590.4" cy="154.7" r="10.3"/><circle id="svg-concept" class="vpn2" cx="590.4" cy="154.7" r="4.3"/><path class="st5" d="M625 111c0 2-2 5-5 5H458c-3 0-4-3-4-5V86c0-2 1-5 4-5h162c2 0 4 3 4 5l1 25h0z"/><circle id="svg-concept" class="vpn2" cx="590.4" cy="99.1" r="10.3"/><circle id="svg-concept" class="vpn2" cx="590.4" cy="99.1" r="4.3"/><path class="st5" d="M278 311h124c4 0 8 4 8 8v26s0 0 0 0c0 4-4 8-8 8H278"/><circle id="svg-concept" class="vpn2" cx="374.2" cy="332" r="10.6"/><circle id="svg-concept" class="vpn2" cx="332" cy="331.9" r="2.6"/><circle class="st5" cx="320.9" cy="331.9" r="2.6"/><path class="vpn1" d="M278 325h59c4 0 7 3 7 7h0c0 4-3 7-7 7h-59"/><circle id="svg-concept" class="vpn2" cx="374.2" cy="332" r="4.3"/><path class="st5" d="M278 395h124c4 0 8 3 8 7v27c0 4-4 7-8 7H278"/><circle id="svg-concept" class="vpn2" cx="374.2" cy="415.6" r="10.6"/><circle id="svg-concept" class="vpn2" cx="332" cy="415.5" r="2.6"/><circle class="st5" cx="320.9" cy="415.5" r="2.6"/><path class="vpn1" d="M278 408h59c4 0 7 4 7 8h0c0 4-3 6-7 6h-59"/><circle id="svg-concept" class="vpn2" cx="374.2" cy="415.6" r="4.3"/><path class="st5" d="M410 512c0 5-4 8-8 8H160c-3 0-6-3-6-8v-26c0-4 3-7 6-7h242c4 0 8 3 8 7v26s0 0 0 0z"/><circle id="svg-concept" class="vpn2" cx="374.2" cy="499.4" r="10.6"/><circle id="svg-concept" class="vpn2" cx="332" cy="499.3" r="2.6"/><circle class="st5" cx="320.9" cy="499.3" r="2.6"/><path class="vpn1" d="M344 500h0c0 3-3 6-7 6H184c-4 0-7-3-7-7v1c0-4 3-8 7-8h153c4 0 7 4 7 8h0z"/><circle id="svg-concept" class="vpn2" cx="374.2" cy="499.4" r="4.3"/><path class="st5" d="M410 596c0 4-4 7-8 7H160c-3 0-6-3-6-8v-26c0-4 3-7 6-7h242c4 0 8 3 8 7v27s0 0 0 0z"/><circle id="svg-concept" class="vpn2" cx="374.2" cy="582.6" r="10.6"/><circle id="svg-concept" class="vpn2" cx="332" cy="582.5" r="2.6"/><circle class="st5" cx="320.9" cy="582.5" r="2.6"/><path class="vpn1" d="M344 583h0c0 4-3 6-7 6H184c-4 0-7-2-7-6h0c0-4 3-8 7-8h153c4 0 7 4 7 8h0z"/><circle id="svg-concept" class="vpn2" cx="374.2" cy="582.7" r="4.3"/></svg>