<svg version="1.1" id="Layer_1" xmlns="http://www.w3.org/2000/svg" x="0" y="0" viewBox="0 0 650 650" style="enable-background:new 0 0 650 650" xml:space="preserve"><style>.vpnmonitoring0,.vpnmonitoring1,.vpnmonitoring2{fill:none;stroke:#ee5586;stroke-width:2;stroke-linecap:round;stroke-linejoin:round;stroke-miterlimit:10}.vpnmonitoring1,.vpnmonitoring2{stroke:gray}.vpnmonitoring2{stroke:#ee5586;stroke-width:3}</style><path id="svg-concept" class="vpnmonitoring0" d="M506.9 249.3c0 3-2.4 5.6-5.4 5.6s-5.4-2.4-5.4-5.6c0-3 2.4-5.4 5.4-5.4s5.4 2.4 5.4 5.4zM283.2 360c0 3-2.4 5.6-5.4 5.6s-5.4-2.4-5.4-5.6c0-3 2.4-5.4 5.4-5.4s5.4 2.4 5.4 5.4zM148.6 114.8c0 3-2.4 5.6-5.4 5.6s-5.4-2.4-5.4-5.6c0-3 2.4-5.4 5.4-5.4s5.4 2.4 5.4 5.4z"/><path id="svg-concept" class="vpnmonitoring1" d="M33.8 46.5c0 3-2.4 5.6-5.4 5.6S23 49.7 23 46.5c0-3 2.4-5.4 5.4-5.4s5.4 2.4 5.4 5.4zM66.1 245.4c0 3-2.4 5.6-5.4 5.6s-5.4-2.4-5.4-5.6c0-3 2.4-5.4 5.4-5.4s5.4 2.4 5.4 5.4zM370 215.4c0 3-2.4 5.6-5.4 5.6s-5.4-2.4-5.4-5.6c0-3 2.4-5.4 5.4-5.4s5.4 2.4 5.4 5.4zM618.2 402.1c0 3-2.4 5.6-5.4 5.6s-5.4-2.4-5.4-5.6c0-3 2.4-5.4 5.4-5.4s5.4 2.4 5.4 5.4zM325.6 71.4c0 3-2.4 5.6-5.4 5.6s-5.4-2.4-5.4-5.6c0-3 2.4-5.4 5.4-5.4s5.4 2.4 5.4 5.4zM616.7 57.4c0 3-2.4 5.6-5.4 5.6s-5.4-2.4-5.4-5.6c0-3 2.4-5.4 5.4-5.4s5.4 2.4 5.4 5.4zM148.6 360.1c0 3-2.4 5.6-5.4 5.6s-5.4-2.4-5.4-5.6c0-3 2.4-5.4 5.4-5.4s5.4 2.4 5.4 5.4zM569.3 215.5c0 3-2.4 5.6-5.4 5.6s-5.4-2.4-5.4-5.6c0-3 2.4-5.4 5.4-5.4s5.4 2.4 5.4 5.4zM130.3 389.3c0 3-2.4 5.6-5.4 5.6s-5.4-2.4-5.4-5.6c0-3 2.4-5.4 5.4-5.4s5.4 2.4 5.4 5.4z"/><path class="vpnmonitoring1" d="m415.2 176.9-179.3-1.5a3 3 0 0 0-3 3v113.8a3 3 0 0 0 3 3h179.3a3 3 0 0 0 3-3V179.9c-.1-1.6-1.4-3-3-3zm-404 260.7 179.3-3.7a3 3 0 0 0 3-3v-113a3 3 0 0 0-3-3H11.2a3 3 0 0 0-3 3v116.8a3 3 0 0 0 3 2.9h0zm179.3-262.1-179.3-6.7a3 3 0 0 0-3 3v120.5a3 3 0 0 0 3 3h179.3a3 3 0 0 0 3-3V178.4a3 3 0 0 0-3-2.9zM415.2 37.2l-179.3-1.5a3 3 0 0 0-3 3v113.8a3 3 0 0 0 3 3h179.3a3 3 0 0 0 3-3V40.2c-.1-1.6-1.4-3-3-3zm223.6-11.4L459.5 36.5a3 3 0 0 0-3 3v113.1a3 3 0 0 0 3 3l179.3-7a3 3 0 0 0 3-3V28.8a3 3 0 0 0-3-3h0zM459.5 434.7l179.3 6.6a3 3 0 0 0 3-3V317.9a3 3 0 0 0-3-3H459.5a3 3 0 0 0-3 3v113.8c.1 1.6 1.4 3 3 3h0zM247.1 638.8l155.9 1.6c1.8 0 3.3-1.5 3.3-3.3l20.9-120.4c1.1-5.7 0-9.7-7.7-9.7H231.6c-7.2 0-9.2 4.3-8.6 10.1l20.8 118.4c0 1.8 1.5 3.3 3.3 3.3h0zM382.7 507H267.4a57.7 57.7 0 1 1 115.3 0z"/><g><path id="svg-concept" class="vpnmonitoring2" d="m638.8 172.5-179.3 3.7a3 3 0 0 0-3 3v113.1a3 3 0 0 0 3 3h179.3a3 3 0 0 0 3-3V175.5a3 3 0 0 0-3-3z"/><animate accumulate="none" additive="replace" attributeName="opacity" begin="1s" calcMode="linear" dur="1.5s" fill="remove" repeatCount="indefinite" restart="always" values="0;1;0"/></g><g><path id="svg-concept" class="vpnmonitoring2" d="m235.4 433.2 179.3 1.5a3 3 0 0 0 3-3V317.9a3 3 0 0 0-3-3H235.4a3 3 0 0 0-3 3v112.4a3 3 0 0 0 3 2.9h0z"/><animate accumulate="none" additive="replace" attributeName="opacity" begin="1s" calcMode="linear" dur="0.5s" fill="remove" repeatCount="indefinite" restart="always" values="0;1;0"/></g><g><path id="svg-concept" class="vpnmonitoring2" d="M190.5 35.8 11.2 22.1a3 3 0 0 0-3 3v120.5a3 3 0 0 0 3 3l179.3 7a3 3 0 0 0 3-3V38.7a3 3 0 0 0-3-2.9z"/><animate accumulate="none" additive="replace" attributeName="opacity" begin="0s" calcMode="linear" dur="1s" fill="remove" repeatCount="indefinite" restart="always" values="0;1;0"/></g></svg>