<svg version="1.1" id="Layer_1" xmlns="http://www.w3.org/2000/svg" x="0" y="0" viewBox="0 0 650 650" style="enable-background:new 0 0 650 650" xml:space="preserve"><style>.vpnresources0,.vpnresources1,.vpnresources2{fill:none;stroke:gray;stroke-linecap:round;stroke-linejoin:round;stroke-miterlimit:10}.vpnresources1,.vpnresources2{stroke:#ee5586;stroke-width:2}.vpnresources2{stroke:gray}</style><path class="vpnresources0" d="m375.4 115.5-4.7 25.2c36.4 9.2 66.1 41.4 77.9 83.7h13.1l-7.6 47.8-14 4.3v1.9c-2.4 64.1-42.1 115-90.8 115s-88.5-50.9-90.8-115v-1.9l-14.2-4.5-7.5-47.8h13.1c11.8-42.1 41.3-74.4 77.7-83.7l-4.6-25.2 52.4.2h0zM349.1 138v-22.5M349.1 391v-60"/><g><path id="svg-concept" class="vpnresources1" d="M349.1 304.6v-80.3m0 80.3-105-32.4m105 32.4L454 272.2m-217.4-47.8h225m-225 0 7.5 47.8m217.5-47.8-7.6 47.8m-29.1-47.8V262m-151.4-37.6V262M385 224.4V277m-70.9-52.6V277"/><animate accumulate="none" additive="replace" attributeName="opacity" begin="1s" calcMode="linear" dur="1.5s" fill="remove" repeatCount="indefinite" restart="always" values="0;1;0"/></g><path class="vpnresources0" d="M322.8 115.5h52.6m-41.3 61h30m-36.7-35.9 6.7 35.9m36.6-35.9-6.5 35.9m-53 234.2h117.9a45.9 45.9 0 0 1 45.8 45.8v45.8m-45.8-91.6 45.8 45.8M201.4 94.9h-26V74.6l13.2-71.1 12.8 71.1v20.3zm-12.8-15.3v259.5"/><path id="svg-concept" class="vpnresources1" d="M189.7 352c29.9 30.5 101.6 29.9 101.6 29.9v99.4c0 55-101.8 99.4-101.8 99.4S93 536.2 93 481.3v-99.4s66.9.7 96.7-29.9"/><path class="vpnresources0" d="M190.4 385.3c23.9 24.6 74.6 23.9 74.6 23.9l.2 67c0 39.9-75.3 71.6-75.3 71.6s-70.6-31.9-70.6-71.6l-.2-67c.2 0 47.4.5 71.3-23.9M149.3 425l-6.6 6.6m33.1-6.6-36.5 36.5"/><path class="vpnresources2" d="M265.2 543.4h355.7c9.7 0 18 8.3 18 18v65.1s0 0 0 0c0 11.1-8.3 19.4-18 19.4H22.6c-9.7 0-16.6-8.3-16.6-19.4v-65.1c0-9.7 6.9-18 16.6-18h96.5"/><circle id="svg-concept" class="vpnresources1" cx="551.2" cy="594.6" r="26.3"/><circle id="svg-concept" class="vpnresources1" cx="447" cy="594.4" r="6.5"/><circle class="vpnresources2" cx="419.5" cy="594.4" r="6.5"/><path class="vpnresources0" d="M211.5 576.8h248.8c9.7 0 16.6 8.3 16.6 18h0a16 16 0 0 1-16.6 16.6H80.8a16 16 0 0 1-16.6-16.6h0c0-9.7 6.9-18 16.6-18h85.5"/><circle id="svg-concept" class="vpnresources1" cx="551.2" cy="594.6" r="10.7"/></svg>