<svg version="1.1" id="Layer_1" xmlns="http://www.w3.org/2000/svg" x="0" y="0" viewBox="0 0 650 650" style="enable-background:new 0 0 650 650" xml:space="preserve"><style>.vpnremote2{fill:#ee5586}.vpnremote3{fill:none;stroke:#ee5586;stroke-width:2;stroke-miterlimit:10}.vpnremote3,.vpnremote4{stroke-linecap:round;stroke-linejoin:round}.vpnremote4,.vpnremote5{fill:none;stroke:gray;stroke-width:2;stroke-miterlimit:10}</style><path id="svg-concept" d="M577.8 335.1a264.4 264.4 0 1 1-528.8-.2 264.4 264.4 0 0 1 528.8.2h0z" style="fill:none;stroke-width:3;stroke-linecap:round;stroke-linejoin:round;stroke-miterlimit:10"/><animateMotion accumulate="none" additive="replace" begin="0s" calcMode="paced" dur="2s" fill="freeze" path="M0, 0 65 0 -65" restart="always"/><path d="M166.9 257.2c0 .1-.1.1 0 0z" style="fill:none"/><g><circle id="svg-ico" class="vpnremote2" cx="474.1" cy="544.2" r="7.5"/><animateTransform accumulate="none" additive="replace" attributeName="transform" calcMode="linear" dur="10s" fill="remove" from="0 320 335" repeatCount="indefinite" restart="always" to="-360 310 335" type="rotate"/></g><path id="svg-concept" class="vpnremote3" d="M522.3 349.9c0 3-2.4 5.6-5.4 5.6s-5.4-2.4-5.4-5.6c0-3 2.4-5.4 5.4-5.4s5.4 2.4 5.4 5.4zM298.6 460.6c0 3-2.4 5.6-5.4 5.6s-5.4-2.4-5.4-5.6c0-3 2.4-5.4 5.4-5.4s5.4 2.4 5.4 5.4zM164.1 215.4c0 3-2.4 5.6-5.4 5.6s-5.4-2.4-5.4-5.6c0-3 2.4-5.4 5.4-5.4s5.4 2.4 5.4 5.4z"/><path class="vpnremote4" d="M235.6 110.4c0 3-2.4 5.6-5.4 5.6s-5.4-2.4-5.4-5.6c0-3 2.4-5.4 5.4-5.4s5.4 2.4 5.4 5.4zM81.5 345.9c0 3-2.4 5.6-5.4 5.6s-5.4-2.4-5.4-5.6c0-3 2.4-5.4 5.4-5.4s5.4 2.4 5.4 5.4zM385.4 316c0 3-2.4 5.6-5.4 5.6s-5.4-2.4-5.4-5.6c0-3 2.4-5.4 5.4-5.4s5.4 2.4 5.4 5.4zM380 551.6c0 3-2.4 5.6-5.4 5.6s-5.4-2.4-5.4-5.6c0-3 2.4-5.4 5.4-5.4s5.4 2.4 5.4 5.4zM341 172c0 3-2.4 5.6-5.4 5.6s-5.4-2.4-5.4-5.6c0-3 2.4-5.4 5.4-5.4s5.4 2.4 5.4 5.4zM511.5 190.5c0 3-2.4 5.6-5.4 5.6s-5.4-2.4-5.4-5.6c0-3 2.4-5.4 5.4-5.4s5.4 2.4 5.4 5.4zM164.1 460.7c0 3-2.4 5.6-5.4 5.6s-5.4-2.4-5.4-5.6c0-3 2.4-5.4 5.4-5.4s5.4 2.4 5.4 5.4zM145.7 489.9c0 3-2.4 5.6-5.4 5.6s-5.4-2.4-5.4-5.6c0-3 2.4-5.4 5.4-5.4s5.4 2.4 5.4 5.4z"/><path class="vpnremote4" d="M590.3 335.1c39.7 28.3 60.6 56.4 54.4 79.5-14.2 53.4-167.8 58.9-343.2 12.3S-4.6 299.2 9.6 245.8c4.7-17.7 24.9-30.8 57-31.5"/><path class="vpnremote5" d="M75.3 199.6c-7.5-45.7 0-83.8 24.8-107.1 63.3-59.5 215.2-.6 339.2 131.4s173.2 287.3 109.9 346.7c-27.9 26.2-73 29.4-125.3 13.6"/><path class="vpnremote5" d="M293.2 609c-40.3 24.5-79.1 31.9-110.3 17.2-78.6-37-79.6-199.9-2.4-363.7S384.1-4.2 462.6 32.9c36.9 17.4 56.7 62.6 59.3 122.6"/><path id="svg-ico" class="vpnremote2" d="M207.1 225.9c0 4.1-3.4 7.5-7.5 7.5s-7.5-3.4-7.5-7.5 3.4-7.5 7.5-7.5c4.1.1 7.5 3.4 7.5 7.5z"/></svg>