<svg xmlns="http://www.w3.org/2000/svg" xml:space="preserve" id="Layer_1" x="0" y="0" style="enable-background:new 0 0 438.8 435.8" version="1.1" viewBox="0 0 438.8 435.8"><style>.woo0{stroke:#ee5586;stroke-width:3;stroke-miterlimit:10}.woo0,.woo1,.woo2,.woo3{fill:none;stroke-linecap:round;stroke-linejoin:round}.woo1{stroke:gray;stroke-miterlimit:10}.woo2,.woo3{stroke-width:2}.woo2,.woo3,.woo4{stroke:gray;stroke-miterlimit:10}.woo3,.woo4{stroke:#ee5586}.woo4{fill:none;stroke-linecap:round;stroke-linejoin:round}.woo6{fill:#ee5586}</style><g><path id="svg-concept" d="M360.9 58.3c-2.1 0-4.2 1.6-6.3 4.8-2.2 3-3.7 6.5-4.5 10.1-.4 2-.6 4.1-.6 6.2 0 2.6.6 5.1 1.5 7.5.7 1.9 1.9 4.1 3.7 4.5 2.1.1 4-.8 5.4-2.4 3.3-3.3 5.5-7.7 6.2-12.3.4-2.1.6-4.2.6-6.3 0-2.6-.6-5.1-1.5-7.5-.7-1.8-1.9-4.1-3.7-4.5-.3-.1-.5-.1-.8-.1h0zm-57.5.3c-2.1 0-4.2 1.6-6.3 4.8-2.2 3-3.7 6.5-4.5 10.1-.4 2-.6 4.1-.6 6.2 0 2.6.6 5.1 1.5 7.5.7 1.9 1.9 4.1 3.7 4.5a7 7 0 0 0 5.4-2.4c3.3-3.3 5.5-7.7 6.2-12.3.4-2 .6-4.1.6-6.2 0-2.6-.6-5.2-1.5-7.6h0c-.7-1.8-1.9-4.1-3.7-4.5-.3-.1-.6-.1-.8-.1zm-46.2 63.7c-3.3-.1-6.4-1.6-8.5-4.2-7.8-8-14.2-19.6-19.1-34.5-4.6 9.1-8.2 16.2-10.6 21.1-6 11.5-11 16.9-15.8 17.3-3.6.3-6.5-2.4-8.8-7.8-4.7-12.2-9.8-35.8-15.2-70.2-.5-2.8.2-5.7 2-8s4.6-3.7 7.5-3.7c4.9-.8 9.6 2.5 10.4 7.4.1.4.1.8.1 1.2a535 535 0 0 0 7.7 42.4l17.2-32.7c2.2-4.3 5.2-6.5 8.8-6.8 3.7-.2 8.4 1.2 10 9.7 1.3 7.2 3.1 14.4 5.2 21.4 2.5-18.4 6.3-32.2 11.3-41.2 1.5-3.1 4.6-5.1 8-5.2 2.7-.2 5.3.6 7.4 2.4 2.2 1.7 3.5 4.2 3.7 6.9.2 2-.3 4-1.2 5.7-3.4 6.2-6.3 17.1-8.7 32.4-2 11.4-2.9 22.9-2.6 34.4.3 2.5-.2 5.1-1.4 7.3a8.22 8.22 0 0 1-6.8 4.5c-.2.1-.4.2-.6.2z" class="woo0"/><path d="M318.8 156.3c-.4 0-.8-.1-1.2-.3L278 132.7h-82c-12.3 0-26-10.1-26-23.6V38.2c.1-5.8 2.6-11.4 6.8-15.4 5.1-5.2 12-8.1 19.2-8.2h174.8c12.3 0 26 10.1 26 23.6V109c-.2 6.5-3.2 12.6-8.3 16.8-4.9 4.3-11.2 6.7-17.7 6.9h-58l8.2 20.4c.5 1.2-.1 2.6-1.3 3.1-.3 0-.6.1-.9.1z" class="woo1"/><path id="svg-concept" d="M303.2 43.3c-8 0-14.3 4.1-19.5 12.6-4.5 7.4-6.9 15.9-6.9 24.6-.2 5.9 1.2 11.8 4.1 17 2.7 5 7.5 8.5 13.1 9.5 1.5.4 3 .5 4.5.5 8 0 14.4-4.1 19.5-12.6h0c4.6-7.4 6.9-16 6.9-24.7.2-5.9-1.2-11.7-4-16.9a19 19 0 0 0-13.1-9.6c-1.6-.3-3.1-.4-4.6-.4zm57.4.1c-8 0-14.3 4.1-19.5 12.6-4.5 7.4-6.9 15.9-6.9 24.6-.2 5.9 1.2 11.8 4.1 17 2.7 5 7.5 8.5 13.1 9.5 1.5.3 3 .5 4.5.5 8 0 14.4-4.1 19.5-12.6h0c4.6-7.4 6.9-16 6.9-24.7.2-5.9-1.2-11.7-4-16.9a19 19 0 0 0-13.1-9.6c-1.5-.3-3-.4-4.6-.4h0z" class="woo0"/><animateMotion fill="remove" accumulate="none" additive="replace" begin="0s" calcMode="paced" dur="6s" path="M10, 0 10 0 -10 0 10 0" repeatCount="indefinite" restart="always"/></g><path d="M156.4 355.9H97.8m11.6-9.5h-9.8c-.4 0-.9-.4-.9-.9v-16c0-.4.4-.9.9-.9h9.8c.4 0 .9.4.9.9v16c-.1.5-.5.9-.9.9zm23.1 0h-9.8c-.4 0-.9-.4-.9-.9v-30.9c0-.4.4-.9.9-.9h9.8c.4 0 .9.4.9.9v30.9c-.1.5-.4.9-.9.9z" class="woo2"/><path id="svg-concept" d="M155.2 346.4h-8.9c-.6 0-1.2-.5-1.2-1.2V297c0-.6.5-1.2 1.2-1.2h8.9c.6 0 1.2.5 1.2 1.2v48.2c0 .7-.5 1.2-1.2 1.2zm1.2-72.5L130 302.3l-7.1-6.7-25 24.3m58.5-46-6.7.8m6.7-.8v6.8" class="woo3"/><path d="M171.9 366.4H86.2c-4 0-7.2-3.2-7.2-7.2v-85.7c0-4 3.2-7.2 7.2-7.2h85.7c4 0 7.2 3.2 7.2 7.2v85.7c0 3.9-3.2 7.2-7.2 7.2zm181.5 0h-85.7c-4 0-7.2-3.2-7.2-7.2v-85.7c0-4 3.2-7.2 7.2-7.2h85.7c4 0 7.2 3.2 7.2 7.2v85.7c.1 3.9-3.2 7.2-7.2 7.2zM55.6 75.8c-.6 0-1.1.5-1 1.1l5.6 36.1 53.7-8.2 5.6-28.3c.1-.4-.2-.8-.6-.8l-63.3.1zM78.8 120h19m-37.6-6.9 1.2 6.9h5.3" class="woo1"/><path d="M78.8 120.1c.5 1 .8 2.1.8 3.3 0 3.8-3.1 6.9-6.9 6.9s-6.9-3.1-6.9-6.9c0-3.8 3.1-6.9 6.9-6.9 2.7 0 5 1.5 6.1 3.6" class="woo1"/><circle cx="104" cy="123.4" r="6.9" class="woo1"/><path d="m63.4 75.8-4.5-6H45m362.5 335.6V147.1h-56.9M4.5 405.4h429.7M268.9 147.1H32.2v258.3m404.7 12.8H1.8" class="woo1"/><path d="M51.8 405.4H4.5c-1.5 0-2.7 1.5-2.7 3.2v9.7s.3 11.7 22 11.7H415c21.7 0 22-11.7 22-11.7v-9.7c0-1.7-1.2-3.2-2.7-3.2H387" class="woo1"/><path id="svg-concept" d="M388.6 254.4v139.4h-340l.2-139.4" class="woo4"/><path id="svg-concept" d="M342.1 336.6a2.9 2.9 0 0 0-5.8 0c0 1.5 1.2 2.7 2.9 2.9 1.8.2 3.1 1.4 3.1 3 0 1.7-1.3 3-3 3h0c-1.7 0-3-1.3-3-3m3.1 3v1.6m0-15.1v1.7" class="woo4"/><path d="m58.9 104.6 56.7-8.2m-58.1-.9 60-8.6m-48.6 7.2v17.7m8.9-19.1v17.7m8.9-19v17.7m8.9-19v17.7m8.9-19v17.7M72.8 228.8c0 10.4-8.4 18.8-18.8 18.8s-18.8-8.4-18.8-18.8m78.9 0c0 10.4-8.4 18.8-18.8 18.8s-18.8-8.4-18.8-18.8m79 0c0 10.4-8.4 18.8-18.8 18.8s-18.8-8.4-18.8-18.8m78.9 0c0 10.4-8.4 18.8-18.8 18.8s-18.8-8.4-18.8-18.8m79 0c0 10.4-8.4 18.8-18.8 18.8s-18.8-8.4-18.8-18.8m78.9 0c0 10.4-8.4 18.8-18.8 18.8s-18.8-8.4-18.8-18.8m79 0c0 10.4-8.4 18.8-18.8 18.8s-18.8-8.4-18.8-18.8m78.9 0c0 10.4-8.4 18.8-18.8 18.8s-18.8-8.4-18.8-18.8m79 0c0 10.4-8.4 18.8-18.8 18.8s-18.8-8.4-18.8-18.8m-330.8 0 15.6-55.6m352.8 55.6-15-55.6M35.3 228.8h368.3M239.6 382h-38.7c-4 0-7.2-3.2-7.2-7.2V272.2c0-4 3.2-7.2 7.2-7.2h38.7c4 0 7.2 3.2 7.2 7.2v102.5c0 4-3.2 7.3-7.2 7.3z" class="woo1"/><circle cx="235.3" cy="327.7" r="5.4" class="woo1"/><path d="M50.8 173.2h337.8" class="woo1"/><path id="svg-ico" d="M69.2 160c0 2.5-1.9 4.4-4.4 4.4s-4.1-1.9-4.1-4.4 1.9-4.1 4.1-4.1a4.2 4.2 0 0 1 4.4 4.1z" class="woo6"/><path d="M80.2 160c0 1.5-1.2 2.7-2.7 2.7S75 161.5 75 160s1.2-2.5 2.5-2.5c1.5 0 2.7 1.1 2.7 2.5zm12.3 0c0 1.5-1.2 2.7-2.7 2.7s-2.5-1.2-2.5-2.7 1.2-2.5 2.5-2.5c1.6 0 2.7 1.1 2.7 2.5zM333 325.5h11.4c.2 0 .3-.1.4-.2l1.1-3c.2-.5.1-1-.2-1.4-.3-.5-.7-.7-1.3-.7h-3c-.7-.7-1.7-1.1-2.8-1.1-1 0-2 .5-2.8 1.1h-3c-.5 0-1 .2-1.3.7s-.4 1-.2 1.4l1.1 3c.1 0 .3.2.6.2zm.1 25.2h13.5c2.5 0 6.1-2.5 6.1-7.2 0-8.1-7.9-15-8-15.1-.1-.1-.3-.1-.5-.1h-11.4c-.1 0-.2.1-.2.1-.2.2-2.6 2.3-4.7 5.5" class="woo1"/><path id="svg-concept" d="M320.3 351.6c-.8 2.1-2.8 3.6-5.1 3.6-3 0-5.5-2.5-5.5-5.5v-5.9c0-3 2.5-5.5 5.5-5.5 2.3 0 4.4 1.4 5.1 3.6m-12.3 3.7h10.2m0 2.4H308" class="woo4"/><circle cx="315" cy="346.6" r="15.2" class="woo1"/><path d="M297.6 349.8c-1.2 0-2.3.1-3.5.1-10.7 0-19.4-1.7-19.4-3.9 0-.2.1-.5.4-.8m22.5-1.9c-3.4.5-7.6.9-12.3.9-10.7 0-19.4-1.7-19.4-3.9 0-1.3 3.4-2.5 8.5-3.2m25.2 1.1c-1.7.1-3.6.2-5.5.2-10.7 0-19.4-1.7-19.4-3.9 0-.6.6-1.1 1.7-1.6" class="woo2"/><ellipse id="svg-concept" cx="290.2" cy="328.8" class="woo4" rx="19.4" ry="3.9"/><path id="svg-concept" d="M129 112.4 125.5 99l13.3 7.1-5.8 3.7zm11.1 3.8-6-7.1" class="woo3"/><g><path id="svg-ico" d="M159.7 356c0 1.9-1.6 3.6-3.6 3.6s-3.6-1.6-3.6-3.6c0-1.9 1.6-3.6 3.6-3.6s3.6 1.7 3.6 3.6z" class="woo6"/><animateMotion fill="remove" accumulate="none" additive="replace" begin="0s" calcMode="paced" dur="4s" path="M0, 0 -55 0 0 0" repeatCount="indefinite" restart="always"/></g></svg>