<svg version="1.1" id="Layer_1" xmlns="http://www.w3.org/2000/svg" x="0" y="0" viewBox="0 0 646.6 652.5" style="enable-background:new 0 0 646.6 652.5" xml:space="preserve"><style>.worldstream0,.worldstream4{fill:none;stroke:gray;stroke-width:2;stroke-linecap:round;stroke-linejoin:round;stroke-miterlimit:10}.worldstream4{stroke:#ee5586;stroke-width:3}</style><path class="worldstream0" d="M63.4 300a268.4 268.4 0 0 1 519.2-.7"/><radialGradient id="SVGID_1_" cx="178.6" cy="16" r="0" gradientTransform="translate(0 274.1)" gradientUnits="userSpaceOnUse"><stop offset="0" style="stop-color:#27aae1"/><stop offset=".2" style="stop-color:#2aabe1"/><stop offset=".3" style="stop-color:#33aee1"/><stop offset=".5" style="stop-color:#44b3e2"/><stop offset=".6" style="stop-color:#5abae3"/><stop offset=".7" style="stop-color:#78c4e4"/><stop offset=".8" style="stop-color:#9ccfe5"/><stop offset=".9" style="stop-color:#c6dde7"/><stop offset="1" style="stop-color:#e6e7e8"/></radialGradient><path d="M178.6 290.1c-.1 0-.1 0 0 0z" style="fill:url(#SVGID_1_)"/><path class="worldstream0" d="M324.5 99.1v536.3M545.4 365.3H103.7M99.4 219.4c81.2 82.7 359.9 82 447.1 0M543.7 518.4c-80.3-82.7-355.9-82-442.1 0"/><ellipse class="worldstream0" cx="325.8" cy="367.2" rx="124" ry="268.2"/><path class="worldstream0" d="M583.3 432.2a268.3 268.3 0 0 1-519.9 2.4"/><radialGradient id="SVGID_2_" cx="488.4" cy="120.2" r="0" gradientTransform="translate(0 274.1)" gradientUnits="userSpaceOnUse"><stop offset="0" style="stop-color:#27aae1"/><stop offset=".2" style="stop-color:#2aabe1"/><stop offset=".3" style="stop-color:#33aee1"/><stop offset=".5" style="stop-color:#44b3e2"/><stop offset=".6" style="stop-color:#5abae3"/><stop offset=".7" style="stop-color:#78c4e4"/><stop offset=".8" style="stop-color:#9ccfe5"/><stop offset=".9" style="stop-color:#c6dde7"/><stop offset="1" style="stop-color:#e6e7e8"/></radialGradient><path d="M488.4 394.3c-.5-.3-.6-.3 0 0z" style="fill:url(#SVGID_2_)"/><g><path id="svg-ico" d="M73.7 446c0 3.9-3.2 7.1-7.1 7.1s-7.1-3.2-7.1-7.1 3.2-7.1 7.1-7.1c4 .1 7.1 3.3 7.1 7.1z"/><animateTransform accumulate="none" additive="replace" attributeName="transform" calcMode="linear" dur="2s" fill="remove" from="0 323 365" repeatCount="indefinite" restart="always" to="-145 323 365" type="rotate"/></g><path id="svg-concept" class="worldstream4" d="M5.3 367.1v-49.5C5.3 149.4 147.6 13 323.1 13s317.8 136.4 317.8 304.6V366"/><path id="svg-concept" class="worldstream4" d="M89.9 399.5a35 35 0 0 1-35 35h0a35 35 0 0 1-35-35V335a35 35 0 0 1 35-35h0a35 35 0 0 1 35 35v64.5zM626.2 399.5a35 35 0 0 1-35 35h0a35 35 0 0 1-35-35V335a35 35 0 0 1 35-35h0a35 35 0 0 1 35 35v64.5z"/></svg>