<svg xmlns="http://www.w3.org/2000/svg" viewBox="0 0 32 32"><path fill="#5e686b" d="M14.1 31.7a11.5 11.5 0 0 1 0-23c.2 0 .4.2.4.4s-.2.4-.4.4A10.8 10.8 0 1 0 25 20.2c0-.2.2-.4.4-.4s.3.2.3.4c0 6.4-5.1 11.5-11.5 11.5z"/><path fill="#5e686b" d="M16 26.2h-3.7a.4.4 0 0 1-.4-.4v-3.4H8.6a.4.4 0 0 1-.4-.3v-3.7c0-.2.2-.4.4-.4h3.3v-3.3c0-.2.2-.4.4-.4H16c.2 0 .4.2.4.4V18h3.3c.2 0 .4.2.4.4V22c0 .2-.2.3-.4.3h-3.3v3.4c0 .2-.2.4-.4.4zm-3.3-.8h3v-3.3c0-.2 0-.4.3-.4h3.3v-3H16a.4.4 0 0 1-.4-.3V15h-3v3.4c0 .2-.1.3-.3.3H8.9v3h3.4c.2 0 .4.2.4.4v3.3z"/><path id="svg-ico" fill="#ee5586" d="M24.9 15h-3a.4.4 0 0 1-.3-.3V12H19a.4.4 0 0 1-.4-.4v-3c0-.2.2-.3.4-.3h2.6V5.7c0-.2.1-.3.3-.3h3c.2 0 .4.1.4.3v2.6h2.6c.2 0 .3.2.3.4v3c0 .2-.1.4-.3.4h-2.6v2.6c0 .2-.2.3-.4.3zm-2.6-.7h2.2v-2.6c0-.2.2-.4.4-.4h2.6V9.1h-2.6a.4.4 0 0 1-.4-.4V6.1h-2.2v2.6c0 .2-.2.4-.4.4h-2.6v2.2H22c.2 0 .4.2.4.4v2.6zm-4.1-8.2H16a.4.4 0 0 1-.4-.3V4.6h-1a.4.4 0 0 1-.5-.3V2c0-.2.2-.3.4-.3h1.1V.6c0-.3.2-.4.4-.4h2.2c.2 0 .4.2.4.4v1h1.1c.2 0 .4.2.4.4v2.3c0 .2-.2.3-.4.3h-1.1v1.2c0 .2-.2.3-.4.3zm-1.8-.7h1.4V4.3c0-.2.2-.4.4-.4h1.1V2.4h-1a.4.4 0 0 1-.5-.4V1h-1.4v1c0 .2-.2.4-.4.4h-1.1V4h1c.3 0 .5.2.5.4v1z"/></svg>