<svg xmlns="http://www.w3.org/2000/svg" viewBox="0 0 32 32"><path fill="#5e686b" d="M28 5.5H4.5c-.8 0-1.4.7-1.4 1.5v23.4c0 .8.6 1.4 1.4 1.4H28c.8 0 1.4-.6 1.4-1.4V7c0-.8-.6-1.5-1.4-1.5zm.4 24.9c0 .2-.2.4-.4.4H4.5a.5.5 0 0 1-.4-.4V7c0-.2.2-.5.4-.5H28c.2 0 .4.3.4.5v23.4z"/><path id="svg-ico" fill="#ee5586" d="M23.2 15.5h-3.6v-3.6c0-.3-.2-.5-.5-.5h-5.7c-.3 0-.5.2-.5.5v3.6H9.3c-.3 0-.5.2-.5.5v5.7c0 .3.2.5.5.5h3.6v3.6c0 .3.2.5.5.5H19c.3 0 .5-.2.5-.5v-3.6h3.6c.3 0 .5-.2.5-.5V16c0-.3-.2-.5-.5-.5zm-.5 5.7h-3.6c-.3 0-.5.2-.5.5v3.6H14v-3.6c0-.3-.2-.5-.5-.5H9.8v-4.7h3.6c.3 0 .5-.2.5-.5v-3.6h4.7V16c0 .3.2.5.5.5h3.6v4.7z"/><path fill="#5e686b" d="M23.8 1.4h-15c-.3 0-.6-.2-.6-.5s.3-.5.5-.5h15c.3 0 .6.2.6.5s-.3.5-.5.5z"/></svg>