<svg xmlns="http://www.w3.org/2000/svg" viewBox="0 0 32 32"><path id="svg-ico" fill="#ee5586" d="M16.42 17.4v-.03l.01-.02V5.95c0-.24-.2-.44-.43-.44s-.43.2-.43.44v10.72L6.3 13.11c-.22-.08-.47.03-.55.25s.02.47.24.55l9.84 3.79h.03l.02.01h.17l.12-.03a.36.36 0 0 0 .1-.07v-.01l.05-.04v-.01l.03-.04.01-.01a.25.25 0 0 0 .03-.06v-.04h.02z"/><path fill="#5e686b" d="M24.91 28.26A14.4 14.4 0 0 0 16 2.49 14.44 14.44 0 0 0 1.57 16.92c0 4.6 2.16 8.7 5.52 11.34l-2.77 2.76a.43.43 0 0 0 0 .6c.09.09.2.13.3.13.12 0 .22-.04.3-.13l2.86-2.85a14.4 14.4 0 0 0 16.44 0l2.85 2.85c.09.09.2.13.3.13.12 0 .22-.04.3-.13a.43.43 0 0 0 0-.6l-2.76-2.76zm-16.9-.37a13.56 13.56 0 1 1 21.55-10.97 13.56 13.56 0 0 1-5.6 10.98h-.01a13.52 13.52 0 0 1-15.93-.01z"/><path id="svg-ico" fill="#ee5586" d="M13.43 1.07h5.14a.43.43 0 0 0 0-.86h-5.14a.43.43 0 0 0 0 .86z"/></svg>