<svg xmlns="http://www.w3.org/2000/svg" viewBox="0 0 32 32"><path fill="#5e686b" d="M27.1 30.4h-22c-2 0-3.5-.8-4.3-2.2-.8-1.4-.7-3.2.3-5L12.2 4.1c1-1.8 2.4-2.7 3.9-2.7s2.8 1 3.8 2.7L31 23.2c1 1.8 1.1 3.6.3 5s-2.3 2.2-4.2 2.2zm-11-28.2c-1.2 0-2.3.8-3.1 2.3L1.9 23.6c-.9 1.5-1 3-.3 4.2.6 1 1.8 1.7 3.4 1.7h22.1c1.6 0 2.9-.6 3.5-1.7.6-1.1.5-2.7-.3-4.1L19.2 4.5c-.9-1.5-2-2.3-3.1-2.3z"/><path id="svg-ico" fill="#ee5586" d="M16 19.5a.4.4 0 0 1-.4-.4V10a.4.4 0 0 1 .9 0v9c0 .3-.2.5-.4.5zm0 6.2a2.1 2.1 0 1 1 0-4.3 2.1 2.1 0 0 1 0 4.3zm0-3.4c-.7 0-1.3.6-1.3 1.3a1.3 1.3 0 0 0 2.6 0c0-.7-.6-1.3-1.3-1.3z"/></svg>