<svg xmlns="http://www.w3.org/2000/svg" viewBox="0 0 32 32"><path id="svg-ico" fill="#ee5586" d="M15.762 22.613c-3.7 0-6.713-3.012-6.713-6.713s3.013-6.706 6.713-6.706 6.713 3.012 6.713 6.713-3.012 6.706-6.713 6.706zm0-12.582c-3.238 0-5.875 2.631-5.875 5.875s2.637 5.875 5.875 5.875 5.875-2.631 5.875-5.875-2.637-5.875-5.875-5.875z"/><path fill="#5e686c" d="M15.931 31.587c-8.65 0-15.688-7.038-15.688-15.681 0-4.188 1.631-8.131 4.594-11.094S11.737.218 15.925.218c8.65 0 15.688 7.037 15.688 15.681v1.525c0 2.756-2.244 5-5 5s-5-2.244-5-5V9.793a.42.42 0 0 1 .838 0v7.631c0 2.294 1.869 4.163 4.162 4.163s4.163-1.869 4.163-4.163v-1.525c0-8.188-6.663-14.844-14.844-14.844-3.969 0-7.694 1.544-10.5 4.35s-4.35 6.531-4.35 10.5c0 8.188 6.662 14.844 14.844 14.844 3.244 0 6.45-1.087 9.025-3.056a.417.417 0 1 1 .506.662 15.742 15.742 0 0 1-9.525 3.231z"/></svg>