<svg xmlns="http://www.w3.org/2000/svg" viewBox="0 0 32 32"><path id="svg-ico" fill="#ee5586" d="M31.09 17.59c-2.27 0-4.07-3.77-5.82-7.4a47.44 47.44 0 0 0-1.7-3.37.44.44 0 0 1 .14-.6c.2-.12.48-.06.6.16.56.94 1.14 2.15 1.75 3.43C27.6 13 29.53 17 31.3 16.7a.44.44 0 0 1 .16.86l-.37.03zM12.5 22.4c-.1 0-.2-.03-.28-.1a.43.43 0 0 1-.06-.61c1.48-1.78 2.85-5.18 4.17-8.47 1.02-2.53 1.98-4.92 2.96-6.5.13-.22.4-.28.6-.15.21.12.27.4.15.6-.95 1.52-1.9 3.88-2.9 6.37-1.34 3.35-2.73 6.81-4.3 8.7a.45.45 0 0 1-.34.16z"/><path fill="#5e686c" d="M.72 23.74a.44.44 0 0 1-.2-.06.43.43 0 0 1-.18-.6c1.15-2.05 2.18-3.1 3.25-3.3 1.14-.22 2.08.55 3.08 1.37.35.29.72.59 1.1.86.2.13.25.4.11.6a.43.43 0 0 1-.6.12c-.42-.3-.8-.6-1.17-.9-.87-.72-1.62-1.34-2.36-1.2-.77.15-1.64 1.1-2.64 2.89a.45.45 0 0 1-.38.22zm30.66 5.36H.79c-.24 0-.43-.2-.43-.44s.19-.44.43-.44h30.59c.24 0 .43.2.43.44s-.2.44-.43.44z"/><path id="svg-ico" fill="#ee5586" d="M21.8 8.13a3.06 3.06 0 1 1 0-6.12 3.06 3.06 0 0 1 0 6.12zm0-5.24a2.19 2.19 0 1 0 0 4.38 2.19 2.19 0 0 0 0-4.38z"/><path fill="#5e686c" d="M10.22 26.31a3.06 3.06 0 1 1 0-6.12 3.06 3.06 0 0 1 0 6.12zm0-5.24a2.19 2.19 0 1 0 0 4.38 2.19 2.19 0 0 0 0-4.38z"/></svg>