<svg xmlns="http://www.w3.org/2000/svg" viewBox="0 0 32 32"><path fill="#5e686c" d="M24.04 10.64H8.45a.42.42 0 0 0-.42.42v12.58a2.2 2.2 0 0 0 2.18 2.23h2.33v5.39a.42.42 0 0 0 .84 0v-5.4h5.53v5.4a.42.42 0 0 0 .83 0v-5.4h2.52c1.2 0 2.2-1 2.2-2.22V11.06a.4.4 0 0 0-.42-.42zm-.42 13c0 .77-.6 1.38-1.35 1.38H19.5c-.05-.01-.1-.03-.16-.03s-.12.02-.17.03h-6.03c-.05-.01-.1-.03-.17-.03s-.1.02-.16.03h-2.59c-.73 0-1.34-.62-1.34-1.38V11.48h14.75l-.01 12.16z"/><path id="svg-ico" fill="#ee5586" d="m20.43 2.98 1.24-1.9a.42.42 0 0 0-.13-.59.42.42 0 0 0-.58.13l-1.31 2.01a9.54 9.54 0 0 0-6.83 0l-1.3-2c-.12-.2-.38-.25-.58-.13s-.25.4-.12.58l1.23 1.91C9.57 4.24 8.03 6.53 8.03 9c0 .23.19.42.42.42h15.59c.23 0 .42-.18.42-.42 0-2.46-1.53-4.75-4.03-6.02zM8.9 8.57c.17-2.04 1.56-3.9 3.7-4.92l.5-.23a8.76 8.76 0 0 1 6.3 0l.2.08.11.05.2.08c2.15 1.03 3.54 2.9 3.7 4.92H8.9z"/><path id="svg-ico" fill="#ee5586" d="M13.18 4.16a1.69 1.69 0 1 0 0 3.38 1.69 1.69 0 0 0 0-3.38zm0 2.53c-.47 0-.85-.38-.85-.85s.38-.83.85-.83a.84.84 0 1 1 0 1.68zm6.22-2.53a1.69 1.69 0 1 0 0 3.38 1.69 1.69 0 0 0 0-3.38zm0 2.53c-.46 0-.84-.38-.84-.85s.38-.83.84-.83c.46 0 .84.37.84.83 0 .47-.38.85-.84.85z"/><path fill="#5e686c" d="M5.59 10.64a.42.42 0 0 0-.42.42v10.77a.42.42 0 0 0 .84 0V11.06a.42.42 0 0 0-.42-.42zm21.31 0a.42.42 0 0 0-.41.42v10.77a.42.42 0 0 0 .84 0V11.06a.42.42 0 0 0-.42-.42z"/></svg>