<svg xmlns="http://www.w3.org/2000/svg" viewBox="0 0 32 32"><path id="svg-ico" fill="#ee5586" d="M16 8.2h-.4a.4.4 0 0 1-.4-.4 6 6 0 0 1 1.9-5A8 8 0 0 1 22.2.2c.3 0 .4.1.5.3.2 1.8-.5 3.7-1.8 5.3a6.8 6.8 0 0 1-5 2.3zm5.9-7c-1.5.1-3.2 1-4.2 2A6 6 0 0 0 16 7.4a6 6 0 0 0 4.2-2C21.2 4 22 2.5 21.8 1z"/><path fill="#5e686c" d="M10.8 31.8c-2.2 0-3.8-2-5.4-4-3.2-4.4-5-11.4-2.1-16 1.5-2.5 4.3-4 7.2-4 1.3 0 2.5.4 3.5.7.7.3 1.4.6 1.9.6.4 0 1-.3 1.8-.5 1.3-.5 2.9-1 4.5-1 1.3.1 4.4.5 6.4 3.3v.3c0 .1 0 .2-.2.3-.8.5-3.3 2.2-3.3 5.5 0 4.2 4 5.7 4.1 5.8.1 0 .2 0 .3.2v.3c-.3.7-1 2.6-2.3 4.5-1.4 1.8-3 3.9-5.4 4h-.1c-1.1 0-1.9-.4-2.6-.7a6.5 6.5 0 0 0-5.6 0c-.8.3-1.5.6-2.5.7h-.2zm-.3-23.2A7.8 7.8 0 0 0 4 12.2c-2.7 4.3-1 11 2 15 1.5 2 3 3.7 4.8 3.7h.1c1 0 1.6-.3 2.3-.6.8-.3 1.7-.7 3.1-.7 1.4 0 2.3.4 3 .7.8.3 1.4.6 2.4.6 2.2 0 3.6-2 4.8-3.6a13 13 0 0 0 2-3.9 7.2 7.2 0 0 1-4.2-6.4 7 7 0 0 1 3.3-6 7.5 7.5 0 0 0-5.9-2.5c-1.3 0-2.6.5-3.7.9-.8.3-1.5.5-2 .5-.7 0-1.4-.2-2.3-.5-1-.4-2-.8-3.1-.8z"/></svg>