<svg xmlns="http://www.w3.org/2000/svg" viewBox="0 0 32 32"><path id="svg-ico" fill="#ee5586" d="M27 28.1h-.3a.4.4 0 0 1 0-.7c2.6-2.7 4.2-6.8 4.2-11S29.3 8 26.7 5.1a.4.4 0 0 1 0-.6h.6a17 17 0 0 1 4.4 11.7A17 17 0 0 1 27.3 28l-.3.1z"/><path id="svg-ico" fill="#ee5586" d="m23.6 25-.3-.1a.4.4 0 0 1 0-.6c2-2 3.2-4.8 3.2-8s-1.2-6-3.2-8a.4.4 0 0 1 0-.5c.2-.2.5-.2.6 0 2.2 2 3.4 5.2 3.4 8.5S26.1 22.8 24 25l-.3.1z"/><path fill="#5e686c" d="m20.3 21.8-.3-.1a.4.4 0 0 1 0-.6c1.3-1 2-2.9 2-4.8s-.7-3.7-2-4.8a.4.4 0 0 1 0-.6c0-.1.3-.2.5 0a7 7 0 0 1 2.4 5.4 7 7 0 0 1-2.3 5.4l-.3.1zM14.1 29l-.2-.1-8.5-6.4H.9a.4.4 0 0 1-.5-.4V10.6c0-.2.2-.4.5-.4h4.5l8.5-6.4h.4c.2 0 .2.2.2.4v24.3c0 .2 0 .3-.2.4h-.2zM1.3 21.6h4.5l7.9 6V5l-8 6H1.4v10.7z"/></svg>