<svg xmlns="http://www.w3.org/2000/svg" viewBox="0 0 32 32"><path id="svg-ico" fill="#ee5586" d="M16.32 31.57a7.5 7.5 0 1 1 .01-15.01 7.5 7.5 0 0 1-.01 15zm0-14.16a6.67 6.67 0 1 0 .01 13.34 6.67 6.67 0 0 0-.01-13.34z"/><path fill="#5e686c" d="M13.29 24.5a.42.42 0 0 1-.42-.43c0-1.9 1.55-3.45 3.45-3.45a.42.42 0 0 1 0 .84 2.62 2.62 0 0 0-2.62 2.62.4.4 0 0 1-.41.42zm4.04-11.12a.42.42 0 0 1-.4-.3.41.41 0 0 1 .27-.52l8.75-2.92L25 4.95v-3.7H7.64v3.62L6.7 9.64l8.75 2.92c.22.08.34.3.27.53s-.31.34-.53.26l-9.1-3.03a.41.41 0 0 1-.27-.48l1-5.05V.83c0-.23.19-.42.42-.42h18.2c.23 0 .41.2.41.42v4.05l1 4.96a.4.4 0 0 1-.27.48l-9.1 3.03a.43.43 0 0 1-.14.03z"/><path fill="#5e686c" d="M13.29 8.38a.42.42 0 0 1-.42-.42V3.8a.42.42 0 0 1 .84 0v4.16c0 .23-.2.42-.42.42zm6.06 0a.42.42 0 0 1-.42-.42V3.8a.42.42 0 0 1 .84 0v4.16c0 .23-.19.42-.42.42z"/></svg>