<svg xmlns="http://www.w3.org/2000/svg" viewBox="0 0 32 32"><path fill="#5e686c" d="M16.1.4C7 .4 2.5 3.4 2.5 9.6c0 7 12.9 15.3 13.4 15.6h.2c.1 0 0 0 0 0h.2c.6-.3 13.5-8.5 13.5-15.6C29.8 3.4 25.3.4 16 .4zm4 9.2c0 5.5-3 12.1-4 14.3-1-2.2-4-8.8-4-14.3 0-7.5 2.3-8.3 4-8.3s4 .8 4 8.3zm-8.8 0a35 35 0 0 0 3.4 13.3C12 20 7.3 14.4 7.3 9.6c0-4.7 2-7.3 6-8-1.3 1.3-2 4-2 8zm9.7 0c0-4-.7-6.7-2-8 4 .7 6 3.3 6 8 0 4.8-4.8 10.5-7.4 13.2A36 36 0 0 0 21 9.6zm-17.7 0c0-4 2.1-6.6 6.5-7.7-2.3 1.5-3.4 4-3.4 7.7 0 4.3 3.4 9 6.1 12.1-3.8-3-9.2-7.9-9.2-12.1zm16.5 12.1c2.7-3 6-7.8 6-12.1 0-3.7-1-6.2-3.3-7.7 4.4 1.1 6.4 3.6 6.4 7.7 0 4.2-5.3 9.1-9.1 12.1z"/><path id="svg-ico" fill="#ee5586" d="M18.6 26.9h-5c-.2 0-.4.2-.4.4v3c0 .7.7 1.4 1.5 1.4h2.9c.8 0 1.4-.7 1.4-1.5v-2.9c0-.2-.2-.4-.4-.4zm-.5 3.4c0 .3-.2.5-.5.5h-3a.5.5 0 0 1-.5-.6v-2.5h4v2.6z"/></svg>