<svg xmlns="http://www.w3.org/2000/svg" viewBox="0 0 32 32"><path id="svg-ico" fill="#ee5586" d="M10.4 13.2a.4.4 0 0 1-.4-.6l4.4-12a.4.4 0 0 1 .8.3l-4.3 12c-.1.2-.3.3-.4.3zm11.6 0a.4.4 0 0 1-.4-.3L17.4.9c0-.3 0-.5.3-.6s.5 0 .5.3l4.2 12c.1.2 0 .5-.2.6H22z"/><path fill="#5e686c" d="M10.4 28.7a.4.4 0 0 1-.4-.4v-8.6c0-.2.2-.4.4-.4s.5.2.5.4v8.6c0 .2-.2.4-.5.4zm11.6 0a.4.4 0 0 1-.4-.4v-8.6c0-.2.2-.4.4-.4s.5.2.5.4v8.6c0 .2-.2.4-.5.4z"/><path fill="#5e686c" d="M28.6 31.7H3.8c-.6 0-1-.5-1-1.1v-14h-1c-.6 0-1.1-.5-1.1-1.1v-2c0-.7.5-1.2 1-1.2h29c.6 0 1.1.5 1.1 1.2v2c0 .6-.5 1.1-1.1 1.1h-1v14c0 .6-.4 1.1-1 1.1zM1.8 13.2c-.2 0-.3.1-.3.3v2c0 .1.1.3.3.3h1.4c.2 0 .4.2.4.4v14.4c0 .1.1.2.3.2h24.7c.2 0 .3 0 .3-.2V16.2c0-.3.2-.4.4-.4h1.4l.3-.3v-2c0-.2-.2-.3-.3-.3h-29z"/></svg>