<svg xmlns="http://www.w3.org/2000/svg" viewBox="0 0 32 32"><path id="svg-ico" fill="#ee5586" d="M11.4 8.6H9v-3c0-.3-.2-.5-.5-.5s-.4.2-.4.4v3h-3v-3c0-.2-.2-.4-.5-.4s-.4.2-.4.4v3H2.1c-.3 0-.4.3-.4.5v3a3 3 0 0 0 3 3h1.6v16.4c0 .2.2.4.4.4s.5-.2.5-.4V14.9h1.5a3 3 0 0 0 3.1-3V9c0-.2-.2-.4-.4-.4zm-.4 3.3C11 13 10 14 8.7 14h-4c-1.2 0-2.2-1-2.2-2.2V9.4H11V12z"/><path fill="#5e686c" d="M29.2 3.1H14.8c-.8 0-1.4.7-1.4 1.6v25.5c0 .8.6 1.5 1.4 1.5h14.4c.7 0 1.4-.7 1.4-1.5V4.7c0-.9-.7-1.6-1.4-1.6zm.6 27c0 .5-.4.8-.6.8H14.8c-.3 0-.6-.4-.6-.7V4.6c0-.3.3-.6.6-.6h14.4c.3 0 .6.3.6.6v25.6zM17 1.1h10c.3 0 .5-.2.5-.4s-.2-.4-.4-.4H16.9c-.2 0-.4.2-.4.4s.2.4.4.4z"/><path id="svg-ico" fill="#ee5586" d="m24.5 17.8-4.3-.5 2.5-6c0-.2 0-.4-.3-.5-.2-.1-.4 0-.5.2L19 17.5v.4l.4.2 4.4.5-2 5.5a.4.4 0 0 0 .4.6l.4-.3 2.1-6V18l-.3-.2z"/></svg>