<svg xmlns="http://www.w3.org/2000/svg" viewBox="0 0 32 32"><path id="svg-ico" fill="#ee5586" d="M10.14 24.88a.42.42 0 0 1-.3-.72l2.7-2.8a.42.42 0 1 1 .6.6l-2.69 2.79a.41.41 0 0 1-.3.13z"/><path fill="#5e686c" d="M26.3 5.94a.4.4 0 0 1-.21-.07.42.42 0 0 1-.15-.58c.5-.85.63-1.7.35-2.47a2.7 2.7 0 0 0-5.13.33.42.42 0 0 1-.51.32.42.42 0 0 1-.32-.51l.1-.33a3.54 3.54 0 0 1 6.65-.1c.26.7.4 1.85-.41 3.2a.41.41 0 0 1-.36.2z"/><path fill="#5e686c" d="M27.39 30.6a.42.42 0 0 1-.42-.36c-.05-.3-1.06-7.23.74-12.5 1.05-3.1 1.33-5.76.81-7.9-.66-2.77-2.68-4.75-5.99-5.87-5.86-2-10.07.61-12.5 7.75C8.23 17 3.2 21.87 3 22.07a.42.42 0 1 1-.59-.6c.05-.06 5.1-4.95 6.82-10.02C11.8 3.88 16.5 1.01 22.81 3.16c3.6 1.23 5.8 3.4 6.55 6.48.55 2.3.26 5.12-.84 8.38-1.73 5.07-.71 12.03-.7 12.1a.42.42 0 0 1-.36.48h-.07z"/><path id="svg-ico" fill="#ee5586" d="M25.15 14.9a.42.42 0 0 1-.42-.4 6.18 6.18 0 0 0-2.57-5.08c-.2-.13-.24-.4-.1-.59s.4-.23.6-.1a7 7 0 0 1 2.92 5.74c0 .24-.17.43-.41.44h-.02z"/><path fill="#5e686c" d="M24.05 31.75c-.34 0-.71-.01-1.1-.04a37.4 37.4 0 0 1-9.17-2.02c-1.4-.48-2.74-1-4-1.57a.42.42 0 0 1-.21-.56c.1-.21.35-.31.56-.21 1.24.55 2.56 1.07 3.93 1.54a36.81 36.81 0 0 0 8.95 1.98c2.67.17 3.8-.31 3.98-.83s-.43-1.6-2.65-3.08a36.78 36.78 0 0 0-8.3-3.9 36.81 36.81 0 0 0-8.95-1.97c-2.67-.18-3.8.3-3.98.82-.18.52.45 1.62 2.74 3.14a.42.42 0 1 1-.47.7c-1.67-1.1-3.55-2.71-3.07-4.12.37-1.1 2.05-1.58 4.84-1.4 2.58.17 5.84.89 9.17 2.03s6.35 2.55 8.5 3.99c2.33 1.56 3.36 2.96 2.99 4.06-.34.95-1.62 1.44-3.76 1.44z"/><path id="svg-ico" fill="#ee5586" d="M8.1 28.96a2.99 2.99 0 1 1 .96-5.8 2.95 2.95 0 0 1 1.85 3.78 2.96 2.96 0 0 1-2.82 2.01zm0-5.12A2.13 2.13 0 0 0 7.4 28c1.1.37 2.34-.25 2.7-1.33a2.13 2.13 0 0 0-2-2.82z"/></svg>