<svg xmlns="http://www.w3.org/2000/svg" viewBox="0 0 32 32"><path fill="#5e686c" d="M16.012.219C7.943.219 1.199 6.263.331 14.269a.421.421 0 0 0 .369.463.43.43 0 0 0 .463-.369 14.903 14.903 0 0 1 14.85-13.306c8.238 0 14.931 6.7 14.931 14.931s-6.7 14.938-14.931 14.938c-7.637 0-14.025-5.719-14.844-13.306a.416.416 0 0 0-.463-.369.416.416 0 0 0-.369.462c.869 8.012 7.612 14.05 15.675 14.05 8.694 0 15.769-7.075 15.769-15.769 0-8.7-7.075-15.775-15.769-15.775z"/><path fill="#5e686c" d="M16.012 27.525c6.363 0 11.537-5.175 11.537-11.537S22.374 4.451 16.011 4.451 4.474 9.626 4.474 15.988s5.175 11.537 11.537 11.537zm0-22.231c5.9 0 10.7 4.8 10.7 10.7s-4.8 10.7-10.7 10.7c-5.9-.006-10.7-4.806-10.7-10.706s4.8-10.694 10.7-10.694z"/><path id="svg-ico" fill="#ee5586" d="M12.944 15.988v4.344h-.637a.42.42 0 0 0 0 .838h1.7v.644a.42.42 0 0 0 .838 0v-.637h2.338v.637a.42.42 0 0 0 .838 0v-.725a2.81 2.81 0 0 0 2.119-2.719 2.803 2.803 0 0 0-1.994-2.681 2.791 2.791 0 0 0-.125-4.269v-1.25a.42.42 0 0 0-.838 0v.794a2.7 2.7 0 0 0-.906-.15h-1.431v-.637a.42.42 0 0 0-.838 0v.637h-1.7a.42.42 0 0 0 0 .838h.637v4.338zm4.393.418c1.081 0 1.962.881 1.962 1.962a1.967 1.967 0 0 1-1.738 1.95h-.025c-.069.006-.137.012-.206.012h-3.55v-3.925h3.556zm.901-2.8a1.966 1.966 0 0 1-1.962 1.963h-2.494v-3.925h2.494c1.081 0 1.962.881 1.962 1.963z"/></svg>