<svg xmlns="http://www.w3.org/2000/svg" viewBox="0 0 32 32"><path fill="#5e686c" d="M21.2 31.6H11A10.5 10.5 0 0 1 .5 21V11C.5 5.2 5.2.5 11.1.5h4.4c5.7 0 10.1 4.3 10.4 10v.2c.2.4.6 1.1 1.8 1.1H29c1.3 0 2.5 1.2 2.5 2.4v6.9c0 6-5.4 10.3-10.3 10.5h-.1zm-10-.9H21c4.6 0 9.7-4 9.7-9.7v-6.8c0-.8-.8-1.5-1.7-1.5h-1.4a2.6 2.6 0 0 1-2.6-2v-.3c-.3-5.1-4.4-9-9.5-9.1H11A9.6 9.6 0 0 0 1.4 11v10c0 5.4 4.2 9.7 9.7 9.7z"/><path id="svg-ico" fill="#ee5586" d="M22.7 22H8.4a.4.4 0 0 1 0-.8h14.3c.2 0 .4.2.4.4s-.2.4-.4.4zM18 12.7H8.3a.4.4 0 0 1 0-.9h9.5a.4.4 0 0 1 0 .9z"/></svg>