<svg xmlns="http://www.w3.org/2000/svg" viewBox="0 0 32 32"><path fill="#5e686c" d="M15.4 31.87a.46.46 0 0 1-.17-.03.43.43 0 0 1-.26-.4V15.91l-6.04-5.57c-.18-.16-.2-.43-.03-.6s.43-.19.6-.03l14.36 13.24c.09.08.14.19.14.3s-.04.24-.13.32l-8.18 8.18a.43.43 0 0 1-.3.12zm.42-15.17v13.7l7.13-7.12-7.13-6.58z"/><path fill="#5e686c" d="M9.3 21.88a.43.43 0 0 1-.3-.74l6.11-5.7a.43.43 0 0 1 .6.01c.17.18.16.44-.01.6l-6.11 5.71a.41.41 0 0 1-.3.12z"/><path id="svg-ico" fill="#ee5586" d="M15.4 16.18a.43.43 0 0 1-.43-.43V.43c0-.18.1-.34.26-.4a.42.42 0 0 1 .47.1l7.94 7.93a.42.42 0 0 1-.01.62l-7.93 7.38a.38.38 0 0 1-.3.12zm.42-14.72v13.32l6.9-6.43-6.9-6.9z"/></svg>