<svg xmlns="http://www.w3.org/2000/svg" viewBox="0 0 32 32"><path fill="#5e686c" d="M15.09 30.07c-.22 0-.45-.05-.67-.14-.52-.24-1.98-.84-2.7-.92a48.8 48.8 0 0 0-4.4-.15c-2.64 0-5.18.1-5.2.1a1.9 1.9 0 0 1-1.98-1.91V3.9c0-1.08.88-1.96 1.96-1.96h12.36c1.08 0 1.96.88 1.96 1.96v24.7c0 .87-.55 1.47-1.33 1.47zm-7.77-2.05c1.92 0 3.43.06 4.47.16 1.02.1 2.89.94 2.96.98.11.05.23.07.33.07.44 0 .5-.44.5-.64V3.9c0-.62-.5-1.13-1.12-1.13H2.1c-.62 0-1.12.51-1.12 1.13v23.15c0 .6.47 1.07 1.06 1.07.07 0 2.63-.1 5.28-.1z"/><path id="svg-ico" fill="#ee5586" d="M16.9 30.07c-.26 0-.5-.07-.72-.21a1.5 1.5 0 0 1-.6-1.27h.84c0 .27.08.47.23.57s.36.1.6 0c.07-.04 1.94-.88 2.95-.98 3.16-.32 9.44-.07 9.71-.06a1.05 1.05 0 0 0 1.1-1.07V3.9c0-.62-.5-1.12-1.12-1.12H17.54c-.62 0-1.12.5-1.12 1.12h-.84c0-1.08.88-1.96 1.96-1.96H29.9c1.08 0 1.96.88 1.96 1.96v23.15a1.9 1.9 0 0 1-1.97 1.91c-.07 0-6.5-.25-9.6.05-.73.08-2.2.68-2.7.92-.23.1-.47.14-.68.14z"/></svg>