<svg xmlns="http://www.w3.org/2000/svg" viewBox="0 0 32 32"><path fill="#5e686c" d="M29 12h-3.6a.4.4 0 0 1 0-.7h3.2v-5h-3.2a.4.4 0 0 1 0-.8H29c.3 0 .4.1.4.4v5.8c0 .2-.1.4-.4.4z"/><path fill="#5e686c" d="M29 12h-5a.4.4 0 0 1-.5-.3V5.9c0-.3.2-.5.4-.5H29c.3 0 .4.2.4.5v5.8c0 .2-.1.4-.4.4zm-4.6-.8h4.2v-5h-4.2v5z"/><path id="svg-ico" fill="#ee5586" d="M8.7 31.7H3a.4.4 0 0 1-.4-.4V.8c0-.2.2-.4.4-.4h5.8a.4.4 0 0 1 0 .8H3.3v29.6h5.4c.2 0 .4.2.4.5s-.2.4-.4.4z"/><path fill="#5e686c" d="M22.5 31.7H8.8a.4.4 0 0 1 0-.9h13.7c1.4 0 2.5-1 2.5-2.4V3.7c0-1.4-1.1-2.5-2.5-2.5H8.8a.4.4 0 0 1 0-.8h13.7c1.8 0 3.3 1.5 3.3 3.3v24.7c0 1.8-1.5 3.3-3.3 3.3z"/><path fill="#5e686c" d="M22.5 31.7H2.9a.4.4 0 0 1-.4-.4V.8c0-.2.2-.4.4-.4h19.6c1.8 0 3.3 1.5 3.3 3.3v24.7c0 1.8-1.5 3.3-3.3 3.3zm-19.2-.9h19.2c1.4 0 2.5-1 2.5-2.4V3.7c0-1.4-1.1-2.5-2.5-2.5H3.3v29.6z"/><path id="svg-ico" fill="#ee5586" d="M8.7 31.7a.4.4 0 0 1-.4-.4V.8a.4.4 0 0 1 .8 0v30.5c0 .2-.2.4-.4.4z"/><path fill="#5e686c" d="M19.6 8.4a.4.4 0 0 1-.4-.4V3.8a.4.4 0 0 1 .8 0V8c0 .2-.2.4-.4.4z"/></svg>