<svg xmlns="http://www.w3.org/2000/svg" viewBox="0 0 32 32"><path id="svg-ico" fill="#ee5586" d="M11.49 20a.44.44 0 0 1-.3-.13.42.42 0 0 1 0-.59L22.63 7.84c.16-.17.43-.17.59 0s.16.43 0 .6L11.79 19.86a.45.45 0 0 1-.3.13z"/><path fill="#5e686c" d="M14.01 3.52a.44.44 0 0 1-.3-.12l-2.23-2.23L9.25 3.4c-.16.16-.43.16-.6 0s-.16-.43 0-.6L11.2.29a.42.42 0 0 1 .6 0l2.52 2.53a.42.42 0 0 1-.3.71z"/><path id="svg-ico" fill="#ee5586" d="M22.93 12.13a.42.42 0 0 1-.42-.42V8.56h-3.15a.42.42 0 0 1 0-.84h3.57c.23 0 .42.2.42.42v3.58c0 .22-.2.41-.42.41z"/><path fill="#5e686c" d="M11.49 31.88a2.53 2.53 0 1 1 0-5.06 2.53 2.53 0 0 1 0 5.05zm0-4.22a1.68 1.68 0 1 0 0 3.37 1.68 1.68 0 0 0 0-3.37z"/><path fill="#5e686c" d="M11.49 27.66a.42.42 0 0 1-.42-.42V.57a.42.42 0 0 1 .84 0v26.67c0 .24-.2.42-.42.42z"/></svg>