<svg xmlns="http://www.w3.org/2000/svg" viewBox="0 0 32 32"><path id="svg-ico" fill="#ee5586" d="M21.6 7.5h-11a.4.4 0 0 1-.5-.4V5.2c0-1.5 1.3-2.8 2.9-2.8h6.2c1.6 0 2.9 1.3 2.9 2.8v1.9c0 .2-.2.4-.5.4zM11 6.7h10.2V5.2a2 2 0 0 0-2-2H13a2 2 0 0 0-2 2v1.5z"/><path fill="#5e686c" d="M10.6 29.7H5a.4.4 0 0 1-.4-.5v-2c0-.3.2-.5.4-.5s.4.2.4.5v1.6h4.7v-1.6c0-.3.2-.5.4-.5s.5.2.5.5v2c0 .3-.2.5-.4.5zm16.5 0h-5.5a.4.4 0 0 1-.4-.5v-2c0-.3.2-.5.4-.5s.4.2.4.5v1.6h4.7v-1.6c0-.3.2-.5.5-.5s.4.2.4.5v2c0 .3-.2.5-.4.5z"/><path fill="#5e686c" d="M27.8 27.6H4.3a3.9 3.9 0 0 1-3.9-3.9V10.6a4 4 0 0 1 4-4h23.4a4 4 0 0 1 4 4v13.1a4 4 0 0 1-4 3.9zM4.3 7.6a3 3 0 0 0-3 3v13.1a3 3 0 0 0 3 3h23.5a3 3 0 0 0 3-3V10.6a3 3 0 0 0-3-3H4.3z"/></svg>