<svg xmlns="http://www.w3.org/2000/svg" viewBox="0 0 32 32"><path fill="#5e686c" d="M31.42 3.59H.73A.42.42 0 0 0 .31 4v24.55c0 .24.18.43.42.43h30.69c.24 0 .42-.2.42-.43V4.01a.42.42 0 0 0-.42-.42zm-.43.85v6.47H1.16V4.44h29.83zM1.16 28.14V11.77h29.83v16.37H1.16z"/><path id="svg-ico" fill="#ee5586" d="M5.06 9.38a1.7 1.7 0 1 0 0-3.41 1.7 1.7 0 0 0 0 3.41zm0-2.56a.85.85 0 1 1-.85.86c0-.47.38-.85.85-.85zm4.49 2.56a1.7 1.7 0 1 0 0-3.4 1.7 1.7 0 0 0 0 3.4zm0-2.56a.85.85 0 1 1-.85.86c0-.47.38-.85.85-.85zm4.49 2.56a1.7 1.7 0 1 0 0-3.41 1.7 1.7 0 0 0 0 3.41zm0-2.56a.85.85 0 1 1-.85.86c0-.47.39-.85.85-.85z"/></svg>