<svg xmlns="http://www.w3.org/2000/svg" viewBox="0 0 32 32"><path id="svg-ico" fill="#ee5586" d="M16.35 31.75c-1.8 0-2.97-1.37-2.97-3.5 0-.4.08-.82.23-1.22l.03-.1.1-.2c.2-.46.75-1.68.75-4.3 0-1.52-1.78-1.6-2.13-1.6H7.43c-1 0-1.82-.82-1.82-1.82V1.95c0-1 .81-1.83 1.82-1.83h17.83c1 0 1.83.82 1.83 1.83v17.06c0 1-.82 1.82-1.83 1.82h-4.54c-1.8 0-2.46.96-2.46 1.6 0 2.93.46 3.79.68 4.2l.1.2c.06.08.1.17.1.28.14.37.2.76.2 1.15 0 2.08-1.2 3.49-3 3.49zm-1.91-4.5-.01.04c-.13.32-.2.65-.2.97 0 1.28.56 2.64 2.12 2.64 1.58 0 2.15-1.36 2.15-2.64a2.59 2.59 0 0 0-.2-1.01l-.01-.01-.1-.2c-.25-.47-.78-1.46-.78-4.6 0-.99.88-2.45 3.31-2.45h4.54c.54 0 .97-.44.97-.98V1.95a.97.97 0 0 0-.97-.97H7.43a.97.97 0 0 0-.97.97v17.06c0 .53.44.97.97.97h4.9c1.14 0 3.02.52 3.02 2.45 0 2.8-.61 4.15-.84 4.65l-.05.1c.01 0 0 .04-.02.07z"/><path fill="#5e686c" d="M26.66 16.86H6.04c-.24 0-.43-.2-.43-.42s.2-.43.43-.43h20.63a.42.42 0 1 1-.01.85zm0-4.9H6.04c-.24 0-.43-.2-.43-.43s.2-.42.43-.42h20.63c.24 0 .42.19.42.42s-.19.43-.43.43z"/></svg>