<svg xmlns="http://www.w3.org/2000/svg" viewBox="0 0 32 32"><path id="svg-ico" fill="#ee5586" d="M24.6 8.6c-.38 0-.79-.09-1.2-.26a2.63 2.63 0 0 1-1.46-1.4 2.6 2.6 0 0 1 .05-2c.15-.37.41-.7.7-1.05.67-.87 1.32-1.68.48-2.96a.42.42 0 0 1 .45-.64 4.8 4.8 0 0 1 3.69 5.36c-.2 1.76-1.29 2.95-2.7 2.95zm-.26-7.16c.35 1.29-.4 2.24-1 2.98-.23.3-.46.6-.57.84-.2.48-.21.95-.04 1.36.17.41.52.74 1 .94.31.13.6.2.88.2 1.18 0 1.75-1.2 1.86-2.22a4.01 4.01 0 0 0-2.13-4.1z"/><path id="svg-ico" fill="#ee5586" d="M19.67 14.43a.43.43 0 0 1-.2-.06.42.42 0 0 1-.17-.57l3.5-6.28c.1-.2.37-.28.57-.16.2.1.28.37.16.57l-3.5 6.28a.42.42 0 0 1-.36.22zm2.67 0c-.05 0-.1 0-.15-.02a.43.43 0 0 1-.25-.55l2.2-5.82a.43.43 0 0 1 .8.3l-2.2 5.82a.42.42 0 0 1-.4.27z"/><path fill="#5e686c" d="M25.02 25.15H23.7c-.24 0-.43-.19-.43-.42s.2-.43.43-.43h1.33a3.6 3.6 0 0 0 0-7.19H23.7c-.24 0-.43-.19-.43-.42s.2-.43.43-.43h1.33a4.45 4.45 0 0 1 0 8.89z"/><path fill="#5e686c" d="M21 31.85H8.96a3.1 3.1 0 0 1-3.1-3.1V14.01c0-.24.18-.43.42-.43H23.7c.24 0 .42.19.42.43v14.73a3.1 3.1 0 0 1-3.1 3.1zM6.7 14.43v14.31A2.26 2.26 0 0 0 8.94 31H21a2.26 2.26 0 0 0 2.25-2.26V14.43H6.7z"/><path fill="#5e686c" d="M11.64 14.43H7.61a.45.45 0 0 1-.39-.24l-2-4.02a.41.41 0 0 1-.05-.12l-.66-4.01c-.02-.17.05-.33.18-.42s.32-.1.46-.02L8.5 7.62c.06.03.12.1.15.15l3.3 5.94c.07.08.12.18.12.3 0 .23-.19.42-.43.42zm-3.77-.84h3.04l-2.95-5.3L5.5 6.8 6 9.86l1.87 3.73z"/><path fill="#5e686c" d="M5.6 10.41a.41.41 0 0 1-.34-.17.42.42 0 0 1 .09-.6l2.68-2a.43.43 0 0 1 .6.08c.14.2.1.46-.1.6l-2.67 2.01a.45.45 0 0 1-.26.08zm12.72 4.02h-5.35a.42.42 0 0 1-.43-.42V.6c0-.24.2-.42.43-.42h5.35c.24 0 .43.18.43.42V14c0 .23-.19.42-.42.42zm-4.93-.84h4.52V1.04h-4.52v12.55z"/><path fill="#5e686c" d="M18.32 3.72h-2.68c-.23 0-.42-.19-.42-.43s.19-.42.42-.42h2.68c.24 0 .43.19.43.42s-.19.43-.42.43zm0 2.68H17a.43.43 0 1 1 0-.85h1.34c.23 0 .42.18.42.42s-.19.42-.42.42zm0 2.67h-2.68c-.23 0-.42-.18-.42-.42s.19-.43.42-.43h2.68a.43.43 0 1 1 0 .85zm0 2.69H17a.43.43 0 1 1 0-.85h1.34c.23 0 .42.18.42.42 0 .23-.19.43-.42.43z"/></svg>