<svg xmlns="http://www.w3.org/2000/svg" viewBox="0 0 32 32"><path fill="#5e686c" d="M16.3 26.9c-2.2 0-3.3-.3-4-1-.5-.4-.5-1.1-.5-1.9 0-.8 0-1.6-.6-2.6-.5-.9-1.2-1.8-2-2.8-1.8-2.5-3.7-5-3.7-7.3C5.5 5.3 10.3.4 16.3.4s10.7 5 10.7 11c0 2.2-1.9 4.7-3.7 7.2l-2 2.8c-.6 1-.6 1.8-.6 2.6s0 1.5-.6 2c-.6.6-1.7.8-3.8.8zm0-25.6a10 10 0 0 0-10 10c0 2 1.8 4.4 3.6 6.8l2 2.9c.8 1.1.8 2.2.8 3 0 .7 0 1.1.2 1.4.5.4 1.5.6 3.3.6s3-.2 3.4-.6c.2-.3.2-.7.2-1.4 0-.8 0-1.9.8-3 .5-1 1.2-2 2-3 1.8-2.3 3.6-4.7 3.6-6.7a10 10 0 0 0-10-10zM19 29.6h-5.5a.4.4 0 0 1 0-.8H19a.4.4 0 0 1 0 .8zm0 2.1h-5.5a.4.4 0 0 1 0-.9H19a.4.4 0 0 1 0 .9z"/><path id="svg-ico" fill="#ee5586" d="m19 13-.3-.1L15 9l-4 4c-.1.2-.4.2-.6 0s-.1-.4 0-.6l4.2-4.1.3-.2s.2 0 .3.2l4.1 4.1a.4.4 0 0 1-.3.7z"/><path id="svg-ico" fill="#ee5586" d="m22.1 13-.3-.1L18 9l-4 4h-.6c-.2 0-.1-.5 0-.7l4.2-4.1c.1-.2.4-.2.6 0l4.1 4.1c.2.2.2.4 0 .6l-.3.1z"/></svg>