<svg xmlns="http://www.w3.org/2000/svg" viewBox="0 0 32 32"><path fill="#5e686c" d="M21.4 9.3h-9.2a.4.4 0 0 1-.4-.3L9.8.8a.4.4 0 0 1 .4-.5h13.2c.1 0 .3 0 .3.2l.1.3-2 8.2c0 .2-.2.3-.4.3zm-8.9-.9H21l2-7.3H10.7l1.8 7.3z"/><path id="svg-ico" fill="#ee5586" d="M16.3 31.7H16l-7.2-4.1a.4.4 0 0 1-.2-.5l3-15.3c.1-.2.4-.3.6-.3.2 0 .4.3.3.5l-3 15 6.7 3.8L23 27l-2-15a.4.4 0 1 1 .8-.1l2 15.3c0 .1 0 .3-.2.4l-7.1 4-.2.1z"/><path fill="#5e686c" d="M13.2 22.5a.4.4 0 0 1 0-.8l6-1c.3 0 .5.1.5.3 0 .3 0 .5-.3.5l-6.1 1zm0 4.1a.4.4 0 0 1 0-.8l6-1c.3 0 .5 0 .5.3 0 .2 0 .5-.3.5l-6.1 1z"/></svg>