<svg xmlns="http://www.w3.org/2000/svg" viewBox="0 0 32 32"><path fill="#5e686c" d="M31 1.7h-6V.6a.4.4 0 0 0-.8 0v1.1H8.5V.6a.4.4 0 0 0-.9 0v1.1H1c-.2 0-.4.2-.4.5v29.2c0 .3.2.4.4.4h30c.3 0 .5-.2.5-.4V2.2c0-.3-.2-.5-.4-.5zm-29.6.9h6.2V3a.4.4 0 0 0 .9 0v-.4h15.7V3c0 .2.2.4.4.4s.5-.2.5-.4v-.4h5.4v6.3H1.4V2.6zm0 28.4V9.7h29.1V31H1.4z"/><path id="svg-ico" fill="#ee5586" d="M6.8 12.1a.4.4 0 0 0-.6 0c-.2.2-.2.5 0 .6l2 2 .3.2.3-.1v-.6l-2-2zm0 6.4c-.2-.2-.5-.2-.6 0s-.2.4 0 .6l2 2 .3.1.3-.1v-.6l-2-2zm8.6 0a.4.4 0 0 0-.6 0v.6l2 2 .4.1.3-.1v-.6l-2-2z"/><path fill="#5e686c" d="M23.4 18.5a.4.4 0 0 0-.6 0c-.2.1-.2.4 0 .6l2 2 .3.1.3-.1v-.6l-2-2zm-8 6.3c-.1-.2-.4-.2-.6 0s-.1.4 0 .6l2 2 .4.1.3-.1v-.6l-2-2zm-8.6 0c-.2-.2-.5-.2-.6 0s-.2.4 0 .6l2 2 .3.1.3-.1v-.6l-2-2z"/><path id="svg-ico" fill="#ee5586" d="m16.4 14.9.3-.1v-.6l-2-2c-.2-.2-.5-.2-.6 0s-.2.4 0 .5l2 2 .3.2zm7-2.8h-.6c-.1.1-.2.5 0 .6l2 2 .3.2.3-.1v-.6l-2-2z"/></svg>