<svg xmlns="http://www.w3.org/2000/svg" viewBox="0 0 32 32"><path fill="#5e686c" d="M27.5 27.3H4.6A4.2 4.2 0 0 1 .4 23V12.5c0-.2.2-.4.4-.4h30.5c.3 0 .4.2.4.4v10.6c0 2.3-1.9 4.2-4.2 4.2zM1.2 13v10c0 2 1.5 3.4 3.4 3.4h23c1.8 0 3.3-1.5 3.3-3.3V13H1.2z"/><path id="svg-ico" fill="#ee5586" d="M31.3 10.5H.8a.4.4 0 0 1-.4-.5v-.2c0-2.3 1.9-4.2 4.2-4.2h23c2.2 0 4.1 1.9 4.1 4.2v.2c0 .3-.1.5-.4.5zm-30-.9h29.6a3.5 3.5 0 0 0-3.4-3.2H4.6a3.4 3.4 0 0 0-3.4 3.2z"/><path fill="#5e686c" d="M27 19.4H16a.4.4 0 0 1 0-.9h11c.3 0 .5.3.5.5s-.2.4-.4.4z"/></svg>