<svg xmlns="http://www.w3.org/2000/svg" viewBox="0 0 32 32"><path fill="#5e686c" d="M6.55 3.375a.422.422 0 0 0-.425-.425H.6c-.237 0-.425.188-.425.425S.363 3.8.6 3.8h5.525a.422.422 0 0 0 .425-.425zm24.519 2.088H4.744c-.412 0-.75.338-.744.813L6.213 20.57a.437.437 0 0 0-.013.181l.506 3.087a.856.856 0 0 0 .85.738h1.119a3.397 3.397 0 1 0 6.47 0h6.631a3.397 3.397 0 1 0 6.631 1.044c0-1.875-1.525-3.4-3.4-3.4a3.402 3.402 0 0 0-2.819 1.5h-7.462a3.394 3.394 0 0 0-2.819-1.5 3.402 3.402 0 0 0-2.819 1.5h-.006l-1.537-.019-.35-2.156 21.675-3.194c.375 0 .681-.337.675-.663l2.269-11.481a.738.738 0 0 0-.744-.744zM25 23.069c1.406 0 2.55 1.144 2.55 2.55s-1.144 2.55-2.55 2.55-2.544-1.144-2.544-2.55 1.144-2.55 2.544-2.55zm-13.088 0c1.406 0 2.55 1.144 2.55 2.55s-1.144 2.55-2.55 2.55-2.55-1.144-2.55-2.55 1.144-2.55 2.55-2.55zm16.813-5.544L7.094 20.713l-2.231-14.4h26.075l-2.212 11.213z"/><path id="svg-ico" fill="#ee5586" d="M17.444 15.706c.019.019.044.037.069.056 0 0 .006 0 .006.006.006.006.019.012.031.019.006 0 .006.006.012.006.006.006.019.006.025.012.006 0 .006 0 .012.006s.019.006.025.006c.006 0 .012 0 .012.006.006 0 .019.006.025.006h.019c.006 0 .012 0 .019.006h.126c.006 0 .019-.006.025-.006s.012 0 .012-.006c.006 0 .019-.006.025-.006s.006 0 .012-.006.019-.006.025-.012c.006 0 .006-.006.012-.006.012-.006.019-.012.031-.019 0 0 .006 0 .006-.006.025-.019.05-.037.069-.056l2.606-2.6a.418.418 0 0 0 0-.6.418.418 0 0 0-.6 0l-1.881 1.881V9.937c0-.238-.188-.425-.425-.425s-.425.188-.425.425v4.45l-1.881-1.881a.418.418 0 0 0-.6 0 .418.418 0 0 0 0 .6l2.606 2.6z"/></svg>