<svg xmlns="http://www.w3.org/2000/svg" viewBox="0 0 32 32"><path fill="#5e686c" d="M6.563 3.375a.422.422 0 0 0-.425-.425H.607c-.237 0-.425.188-.425.425S.37 3.8.607 3.8h5.531a.426.426 0 0 0 .425-.425zm24.524 2.081H4.756c-.412 0-.75.338-.744.813l2.213 14.3a.437.437 0 0 0-.013.181l.506 3.087a.861.861 0 0 0 .85.744h1.119a3.423 3.423 0 0 0-.162 1.05c0 1.875 1.525 3.4 3.4 3.4s3.4-1.525 3.4-3.4c0-.363-.056-.719-.169-1.05h6.631a3.404 3.404 0 0 0 3.237 4.45c1.875 0 3.4-1.525 3.4-3.4s-1.525-3.4-3.4-3.4a3.394 3.394 0 0 0-2.819 1.5h-7.462c-.613-.906-1.644-1.5-2.819-1.5s-2.206.594-2.819 1.5h-.006l-1.537-.019-.35-2.156 21.681-3.2c.375 0 .681-.337.675-.663l2.269-11.488a.752.752 0 0 0-.75-.75zm-6.068 17.619c1.406 0 2.55 1.144 2.55 2.55s-1.144 2.55-2.55 2.55a2.553 2.553 0 0 1-2.55-2.55 2.557 2.557 0 0 1 2.55-2.55zm-13.094 0c1.406 0 2.55 1.144 2.55 2.55s-1.144 2.55-2.55 2.55-2.55-1.144-2.55-2.55 1.144-2.55 2.55-2.55zm16.813-5.55L7.101 20.713 4.876 6.307h26.087l-2.225 11.219z"/><path id="svg-ico" fill="#ee5586" d="M15.313 12.963a.433.433 0 0 0 .3-.125l1.881-1.881v4.45c0 .238.188.425.425.425s.425-.188.425-.425v-4.45l1.881 1.881c.081.081.194.125.3.125s.219-.044.3-.125a.418.418 0 0 0 0-.6l-2.606-2.606c-.019-.019-.044-.037-.069-.056l-.006-.006c-.006-.006-.019-.012-.025-.019-.006 0-.006-.006-.012-.006-.006-.006-.019-.006-.025-.012-.006 0-.006-.006-.012-.006s-.019-.006-.025-.006c-.006 0-.012 0-.019-.006-.006 0-.012-.006-.025-.006-.006 0-.012 0-.019-.006h-.119c-.007 0-.012 0-.025.006-.006 0-.012.006-.025.006-.006 0-.012 0-.019.006-.006 0-.012.006-.025.006-.006 0-.012.006-.019.006-.006.006-.012.006-.025.012-.006 0-.012.006-.012.006-.006.006-.019.012-.025.012s-.006.006-.012.006a.097.097 0 0 0-.031.025c-.012.012-.025.019-.031.031l-2.606 2.606a.418.418 0 0 0 0 .6c.088.094.2.131.306.131z"/></svg>