<svg xmlns="http://www.w3.org/2000/svg" viewBox="0 0 32 32"><path fill="#5e686c" d="M6.644 3.5a.42.42 0 0 0-.419-.419H.75a.42.42 0 0 0 0 .838h5.475a.416.416 0 0 0 .419-.419zm24.275 2.063H4.856c-.406 0-.737.331-.737.806l2.194 14.15a.437.437 0 0 0-.013.181l.5 3.056a.854.854 0 0 0 .844.731H8.75a3.364 3.364 0 0 0 3.2 4.401 3.364 3.364 0 0 0 3.201-4.401h6.562a3.364 3.364 0 1 0 6.563 1.038 3.363 3.363 0 0 0-3.363-3.363 3.348 3.348 0 0 0-2.788 1.488h-7.387c-.606-.894-1.631-1.488-2.787-1.488s-2.188.587-2.787 1.488h-.006l-1.525-.019-.35-2.131 21.456-3.163c.375 0 .675-.331.669-.656l2.25-11.369a.746.746 0 0 0-.738-.75zM24.913 23a2.526 2.526 0 0 1 0 5.05 2.525 2.525 0 0 1 0-5.05zM11.95 23a2.526 2.526 0 1 1-.001 5.051A2.526 2.526 0 0 1 11.95 23zm16.644-5.494-21.413 3.15-2.213-14.25h25.819l-2.194 11.1z"/><path id="svg-ico" fill="#ee5586" d="M11.194 16.05a.42.42 0 0 0 .419-.419V9.744a.42.42 0 0 0-.838 0v5.887a.42.42 0 0 0 .419.419zm4.318 0a.42.42 0 0 0 .419-.419V9.744a.42.42 0 0 0-.838 0v5.887a.42.42 0 0 0 .419.419zm4.325 0a.42.42 0 0 0 .419-.419V9.744a.42.42 0 0 0-.838 0v5.887a.411.411 0 0 0 .419.419zm4.319 0a.42.42 0 0 0 .419-.419V9.744a.42.42 0 0 0-.838 0v5.887a.42.42 0 0 0 .419.419z"/></svg>