<svg xmlns="http://www.w3.org/2000/svg" viewBox="0 0 32 32"><path fill="#5e686c" d="M6.675 3.5a.42.42 0 0 0-.419-.419H.781a.42.42 0 0 0 0 .838h5.475a.416.416 0 0 0 .419-.419zM30.95 5.563H4.887c-.406 0-.737.331-.737.806l2.194 14.15a.437.437 0 0 0-.013.181l.5 3.056a.854.854 0 0 0 .844.731h1.106a3.364 3.364 0 0 0 3.2 4.401 3.364 3.364 0 0 0 3.201-4.401h6.562a3.364 3.364 0 1 0 6.563 1.038 3.363 3.363 0 0 0-3.363-3.363 3.339 3.339 0 0 0-2.788 1.488h-7.387c-.606-.894-1.631-1.488-2.787-1.488s-2.188.587-2.787 1.488h-.006l-1.525-.019-.35-2.131 21.462-3.163c.375 0 .675-.331.669-.656l2.25-11.369a.75.75 0 0 0-.744-.75zM24.944 23a2.526 2.526 0 1 1-.001 5.051A2.526 2.526 0 0 1 24.944 23zm-12.963 0a2.526 2.526 0 1 1-.001 5.051 2.526 2.526 0 0 1 0-5.051zm16.644-5.494-21.419 3.15L5 6.406h25.819l-2.194 11.1z"/><path id="svg-ico" fill="#ee5586" d="m17.163 12.706-2.225 2.225a.424.424 0 0 0 .3.719.444.444 0 0 0 .3-.125l2.225-2.225 2.225 2.225a.422.422 0 0 0 .6-.594l-2.225-2.225 2.225-2.225c.163-.162.163-.431 0-.594s-.431-.162-.594 0l-2.225 2.225-2.225-2.225c-.162-.162-.431-.162-.594 0s-.162.431 0 .594l2.213 2.225z"/></svg>