<svg xmlns="http://www.w3.org/2000/svg" viewBox="0 0 32 32"><path id="svg-ico" fill="#ee5586" d="M27.63 14.8a.43.43 0 0 1-.38-.6l3.7-7.6c.1-.2.36-.3.56-.2s.3.36.2.57L28 14.56a.42.42 0 0 1-.38.23z"/><path fill="#5e686c" d="M12.85 28.32H1.05a.42.42 0 0 1 0-.83h11.38V14.83a.42.42 0 0 1 .84 0v13.08a.4.4 0 0 1-.42.41z"/><path id="svg-ico" fill="#ee5586" d="m21.59 15.68-.06-.01-19.39-2.5a2.15 2.15 0 0 1-1.53-.83 2.27 2.27 0 0 1-.37-1.6l1.02-7.85C1.49 1.07 3.09.93 3.57.93l.27.01 23.74 3.07c.14.02.26.1.32.23.06.12.06.27 0 .4l-5.95 10.81a.41.41 0 0 1-.36.23zM3.57 1.78c-.6 0-1.35.2-1.48 1.23l-1.02 7.85c0 .03-.08.58.22.99.2.26.52.42.96.47l19.1 2.47 5.51-10.02-23.12-3h-.17z"/><path fill="#5e686c" d="m12.87 10.96-.33-.02a2.5 2.5 0 0 1-1.67-.97 2.53 2.53 0 1 1 2 .98zm0-4.21a1.68 1.68 0 1 0 1.68 1.9 1.68 1.68 0 0 0-1.46-1.87.97.97 0 0 0-.23-.03zM1.05 30.66a.42.42 0 0 1-.42-.42v-4.67a.42.42 0 0 1 .84 0v4.67c0 .24-.19.42-.42.42z"/></svg>