<svg xmlns="http://www.w3.org/2000/svg" viewBox="0 0 32 32"><path fill="#5e686c" d="M16 9a4.3 4.3 0 1 1 0-8.7A4.3 4.3 0 0 1 16 9zm0-7.8a3.5 3.5 0 1 0 0 7 3.5 3.5 0 0 0 0-7zM18 25h-4a.4.4 0 0 1-.3-.4v-5.4c-2.6-1.2-4-4.9-4-7.9 0-.2.2-.4.4-.4h12c.2 0 .4.2.4.4 0 3-1.4 6.7-4 7.9v5.4c0 .2-.2.4-.4.4zm-3.5-.8h3.1v-5.3c0-.2.2-.4.3-.4 2.4-.9 3.6-4.3 3.7-6.7h-11c0 2.4 1.2 5.8 3.6 6.7.2 0 .3.2.3.4v5.3z"/><path fill="#5e686c" d="M16 28.3c-3.8 0-9.6-.7-9.6-2.7 0-1.3 2.3-2 4.3-2.3.2 0 .4 0 .5.3s-.1.5-.4.5c-2.6.5-3.6 1.2-3.6 1.5 0 .6 3.2 1.9 8.9 1.9s8.9-1.3 8.9-2c0-.2-1-1-3.6-1.4a.4.4 0 0 1-.4-.5c0-.2.3-.4.5-.3 2 .3 4.3 1 4.3 2.3 0 2-5.8 2.7-9.7 2.7z"/><path id="svg-ico" fill="#ee5586" d="M16 31.7C7.4 31.7.5 29 .5 25.9c0-2.5 4-4.6 10.3-5.4.3 0 .5.1.5.4s-.1.4-.4.5c-5.6.7-9.6 2.6-9.6 4.5 0 2.4 6 4.9 14.9 4.9S31 28.3 31 25.9c0-2-4-3.8-9.6-4.5a.4.4 0 0 1 .1-.9c6.3.8 10.4 3 10.4 5.4 0 3.2-7 5.8-15.7 5.8z"/></svg>