<svg xmlns="http://www.w3.org/2000/svg" viewBox="0 0 32 32"><path fill="#5e686c" d="M24.93 17.82h-.07a.4.4 0 0 1-.34-.47l1.19-7.72a7.19 7.19 0 0 0-7.12-8.3h-5.1a7.2 7.2 0 0 0-7.12 8.3l1.2 7.72a.4.4 0 0 1-.35.46.4.4 0 0 1-.47-.34L5.57 9.75A8 8 0 0 1 13.49.51h5.1a8 8 0 0 1 7.92 9.24l-1.19 7.72a.4.4 0 0 1-.4.35zM9.06 31.69a.4.4 0 0 1-.4-.4v-2.46a.4.4 0 1 1 .8 0v2.45a.4.4 0 0 1-.4.4zm13.96-.41a.4.4 0 0 1-.4-.4v-1.64a.4.4 0 1 1 .81 0v1.64a.4.4 0 0 1-.4.4z"/><path id="svg-ico" fill="#ee5586" d="M24.3 29.24H7.8a4.21 4.21 0 0 1-4.21-4.21v-2.54c0-.47-.3-.9-.73-1.09A2.94 2.94 0 0 1 4 15.74a4.85 4.85 0 0 1 4.85 4.85v1.25c.97-.4 3.16-1.03 7.2-1.03s6.23.63 7.2 1.03v-1.25a4.85 4.85 0 0 1 4.86-4.85 2.95 2.95 0 0 1 1.13 5.66c-.44.18-.73.6-.73 1.09v2.53a4.22 4.22 0 0 1-4.2 4.22zM4 16.55a2.13 2.13 0 0 0-.82 4.1c.74.3 1.22 1.03 1.22 1.84v2.54a3.4 3.4 0 0 0 3.4 3.4h16.5a3.4 3.4 0 0 0 3.4-3.4v-2.54c0-.82.48-1.54 1.22-1.84a2.13 2.13 0 0 0-.82-4.1 4.03 4.03 0 0 0-4.03 4.03v1.9c0 .16-.08.3-.21.37a.42.42 0 0 1-.42-.02c-.02-.01-1.92-1.2-7.39-1.2-5.46 0-7.37 1.19-7.38 1.2-.13.08-.3.09-.42.02s-.22-.2-.22-.36v-1.9A4.05 4.05 0 0 0 4 16.55z"/></svg>