<svg xmlns="http://www.w3.org/2000/svg" viewBox="0 0 32 32"><path fill="#5e686c" d="M13.97 31.6A13.6 13.6 0 0 1 .4 18.03 13.6 13.6 0 0 1 13.97 4.44c.24 0 .43.2.43.42s-.2.43-.42.43A12.75 12.75 0 0 0 1.23 18.02c0 7.02 5.72 12.74 12.73 12.74S26.7 25.04 26.7 18.02c0-.23.19-.42.42-.42s.43.2.43.42a13.6 13.6 0 0 1-13.58 13.59z"/><path id="svg-ico" fill="#ee5586" d="M31.2 15.41H17a.43.43 0 0 1-.43-.42V.82c0-.24.2-.43.43-.43 7.46 0 14.51 7.02 14.59 14.48a.42.42 0 0 1-.4.54zm-13.76-.85h13.3C30.5 7.8 24.2 1.5 17.44 1.25v13.3z"/></svg>