<svg xmlns="http://www.w3.org/2000/svg" viewBox="0 0 32 32"><path fill="#5e686c" d="M16.03 31.53A15.77 15.77 0 0 1 .28 15.78c0-8.02 6-14.74 13.95-15.65.23-.03.46.14.49.39a.44.44 0 0 1-.39.48A14.85 14.85 0 0 0 1.16 15.77c0 8.2 6.67 14.88 14.87 14.88s14.88-6.68 14.88-14.88A14.86 14.86 0 0 0 17.73 1c-.24-.02-.41-.24-.39-.48s.25-.41.5-.39a15.76 15.76 0 0 1-1.81 31.41z"/><path id="svg-ico" fill="#ee5586" d="M16.03 24.24a.41.41 0 0 1-.2-.05l-7.29-3.64c-.22-.1-.3-.37-.2-.59s.38-.3.6-.2l6.84 3.43 5.3-15.57a.44.44 0 0 1 .83.28l-5.46 16.04a.43.43 0 0 1-.25.26.41.41 0 0 1-.17.04z"/></svg>