<svg xmlns="http://www.w3.org/2000/svg" viewBox="0 0 32 32"><path id="svg-ico" fill="#ee5586" d="M16.3 31.88a8.02 8.02 0 0 1-7.89-8.12V5.73c0-.05 0-.1.03-.14A5.91 5.91 0 0 1 14.33.12a.43.43 0 0 1 0 .87 5.06 5.06 0 0 0-5.06 4.85v17.92c0 4 3.16 7.26 7.04 7.26s7.03-3.26 7.03-7.26V5.1c0-.23.2-.43.44-.43s.43.2.43.43v18.65a8.03 8.03 0 0 1-7.9 8.11z"/><path fill="#5e686c" d="M16.39 27.93a3.86 3.86 0 0 1-3.86-3.86V7.9c0-.24.2-.43.43-.43s.43.19.43.43v16.15a3 3 0 0 0 6 0V5.76A5.06 5.06 0 0 0 14.33.99V.12a5.92 5.92 0 0 1 5.92 5.61v18.33a3.88 3.88 0 0 1-3.87 3.86z"/></svg>