<svg xmlns="http://www.w3.org/2000/svg" viewBox="0 0 32 32"><path fill="#5e686c" d="M28.07 5.72c-.16-.18-.43-.2-.62-.05s-.2.44-.05.62a14.94 14.94 0 1 1-1.74-1.73c.18.15.46.14.62-.05a.44.44 0 0 0-.05-.62A15.83 15.83 0 0 0 .2 15.94c0 8.72 7.1 15.81 15.81 15.81A15.83 15.83 0 0 0 28.07 5.73z"/><path id="svg-ico" fill="#ee5586" d="M16 7.46c-.24 0-.44.2-.44.44v5.44a2.64 2.64 0 1 0 1.97 4.75l6.03 6.03a.44.44 0 0 0 .63 0 .44.44 0 0 0 0-.62l-6.03-6.03a2.62 2.62 0 0 0-1.7-4.13V7.91a.45.45 0 0 0-.46-.45zm1.76 8.48a1.76 1.76 0 1 1-3.52 0 1.76 1.76 0 0 1 3.52 0z"/></svg>