<svg xmlns="http://www.w3.org/2000/svg" viewBox="0 0 32 32"><path fill="#5e686c" d="M27.19 4.78A15.67 15.67 0 0 0 17.8.24c-.25-.03-.46.15-.5.4-.02.24.15.45.4.48a14.96 14.96 0 0 1 8.86 25.41 14.96 14.96 0 0 1-21.14 0A14.97 14.97 0 0 1 14.3 1.11c.25-.02.41-.24.39-.49s-.25-.41-.49-.38a15.84 15.84 0 0 0-9.38 26.91c3.09 3.08 7.14 4.62 11.19 4.62s8.1-1.54 11.19-4.62a15.84 15.84 0 0 0 0-22.38z"/><path id="svg-ico" fill="#ee5586" d="M21.59 10.38a.44.44 0 0 0-.62 0L16 15.34l-4.96-4.96c-.17-.17-.45-.17-.62 0s-.17.44 0 .61l4.96 4.97-4.96 4.96a.44.44 0 0 0 .31.75c.11 0 .22-.04.31-.13l4.97-4.96 4.96 4.96a.44.44 0 0 0 .62 0 .44.44 0 0 0 0-.62l-4.97-4.96 4.97-4.97a.44.44 0 0 0 0-.62z"/></svg>