<svg xmlns="http://www.w3.org/2000/svg" viewBox="0 0 32 32"><path fill="#5e686c" d="M21.381 3.544h-.232c-5.494.1-10.15 4.313-10.65 9.688-.019.225-.012.45-.006.675.006.106.006.213.006.325 0 .238.194.425.425.425s.425-.194.425-.425c0-.119-.006-.238-.006-.356-.006-.194-.012-.381 0-.569.463-4.969 4.813-8.869 9.913-8.906 5.387.044 9.756 4.438 9.756 9.831 0 5.419-4.413 9.831-9.831 9.831a.425.425 0 0 0 0 .85c5.894 0 10.688-4.794 10.688-10.688.006-5.819-4.681-10.575-10.488-10.681z"/><path fill="#5e686c" d="M21.275 8.5a.427.427 0 0 0 .425-.431.434.434 0 0 0-.425-.425h-.006c-3.381.044-6.375 2.719-6.675 6.044l.006.075c.006.156.012.313.012.469 0 .238.194.425.425.425s.425-.194.425-.425c0-.162-.006-.331-.012-.525l-.012-.019c.262-2.819 2.881-5.15 5.838-5.188zM10.931 24.063H7.862c-3.725 0-6.756-3.031-6.756-6.756s3.031-6.756 6.756-6.756c.238 0 .425-.194.425-.425s-.194-.425-.425-.425c-4.2 0-7.612 3.412-7.612 7.606s3.413 7.606 7.612 7.606h3.069a.425.425 0 0 0 0-.85z"/><path id="svg-ico" fill="#ee5586" d="m18.85 25.206-2.35 2.219v-7.056a.418.418 0 0 0-.425-.406.413.413 0 0 0-.425.406v7.056l-2.363-2.219c-.175-.163-.444-.156-.606.019s-.156.444.019.606l3.081 2.9c.081.075.188.119.294.119s.212-.038.294-.119l3.075-2.9a.427.427 0 0 0 .019-.606.435.435 0 0 0-.613-.019z"/></svg>