<svg xmlns="http://www.w3.org/2000/svg" viewBox="0 0 32 32"><path fill="#5e686c" d="M15.52 20.68a5.61 5.61 0 0 1 5.66-5.58c.23 0 .4-.2.4-.42a.4.4 0 0 0-.41-.41c-3.19.04-6.48 2.45-6.48 6.41 0 .23.19.42.42.42.22-.01.4-.2.4-.42z"/><path id="svg-ico" fill="#ee5586" d="M21.28 10.27h-.22c-5.2.08-10.38 3.66-10.38 10.4a.42.42 0 0 0 .84 0c0-6.54 4.99-9.53 9.65-9.57a9.58 9.58 0 0 1-.08 19.15H8.12a6.58 6.58 0 0 1 0-13.15.42.42 0 0 0 0-.84 7.41 7.41 0 0 0 0 14.81h12.97a10.41 10.41 0 0 0 .19-20.8z"/><path fill="#5e686c" d="M4.3 8.7h1.66a.42.42 0 0 0 0-.83H4.3a.42.42 0 0 0-.42.42c0 .23.19.42.42.42zm4.99 0h1.66a.42.42 0 0 0 0-.83H9.29a.42.42 0 0 0 0 .84z"/><path fill="#5e686c" d="M7.63 14.59a7.08 7.08 0 0 0 0-14.15 7.08 7.08 0 0 0 0 14.15zm0-13.32a6.2 6.2 0 0 1 3.31.96L2.27 4.3a6.24 6.24 0 0 1 5.35-3.04zm-5.83 4 10-2.4a6.23 6.23 0 1 1-10 2.4z"/></svg>