<svg xmlns="http://www.w3.org/2000/svg" viewBox="0 0 32 32"><path id="svg-ico" fill="#ee5586" d="M20.194 21.406a.424.424 0 0 1-.394-.569l1.219-3.356-2.625-.294c-.131-.012-.25-.094-.319-.206s-.075-.256-.025-.375l1.756-4.219a.417.417 0 0 1 .556-.225.417.417 0 0 1 .225.556l-1.538 3.694 2.6.288a.428.428 0 0 1 .351.569l-1.406 3.856a.423.423 0 0 1-.4.281z"/><path fill="#5e686c" d="M21.087 26.631H7.893c-4.156 0-7.537-3.381-7.537-7.538 0-4.15 3.381-7.531 7.531-7.531a.426.426 0 0 1 0 .85c-3.688 0-6.688 3-6.688 6.688s3 6.688 6.688 6.688h13.194c5.369 0 9.738-4.369 9.738-9.731 0-5.344-4.325-9.694-9.663-9.738-4.744.031-9.813 3.081-9.813 9.738a.426.426 0 0 1-.85 0c0-6.863 5.275-10.494 10.55-10.581h.226c5.75.1 10.387 4.806 10.387 10.581.012 5.825-4.738 10.575-10.569 10.575z"/></svg>