<svg xmlns="http://www.w3.org/2000/svg" viewBox="0 0 32 32"><path fill="#5e686c" d="M22.7 15.88a.42.42 0 0 1-.3-.14.42.42 0 0 1 .02-.6 7.78 7.78 0 0 0-5.26-13.41 7.9 7.9 0 0 0-7.83 7.03v.73c0 .24-.18.43-.42.43s-.42-.19-.42-.43v-.25a3.37 3.37 0 0 1 0-.55 8.75 8.75 0 0 1 8.57-7.8h.2a8.62 8.62 0 0 1 5.75 14.87.46.46 0 0 1-.3.12z"/><path fill="#5e686c" d="M12.18 9.92a.42.42 0 0 1-.42-.43l-.01-.37V9a5.54 5.54 0 0 1 5.4-4.83c.24 0 .43.18.43.42s-.19.42-.42.43a4.68 4.68 0 0 0-4.57 4.06l.02.42c0 .24-.2.43-.43.43zM6.46 18.1a6.16 6.16 0 0 1 0-12.31c.24 0 .43.19.43.42s-.19.43-.43.43a5.31 5.31 0 0 0 0 10.61.42.42 0 1 1 0 .85zm12.67 13.5a1.7 1.7 0 1 1 0-3.39 1.7 1.7 0 0 1 0 3.4zm0-2.54a.85.85 0 1 0 0 1.7.85.85 0 0 0 0-1.7z"/><path fill="#5e686c" d="M19.13 29.06a.42.42 0 0 1-.42-.42v-2.55c0-.23.18-.42.42-.42s.43.19.43.42v2.55c0 .23-.2.42-.43.42zm-1.27 1.27h-7.1c-.24 0-.43-.19-.43-.42s.19-.43.43-.43h7.1c.23 0 .42.19.42.43s-.19.42-.42.42zm9.64 0h-7.1c-.24 0-.42-.19-.42-.42s.18-.43.42-.43h7.1c.24 0 .42.19.42.43s-.18.42-.42.42z"/><path id="svg-ico" fill="#ee5586" d="M26 21.62a1.7 1.7 0 1 1 0-3.4 1.7 1.7 0 0 1 0 3.4zm0-2.55a.85.85 0 1 0 0 1.7.85.85 0 0 0 0-1.7z"/><path id="svg-ico" fill="#ee5586" d="M29.98 24.82H7.83c-.95 0-1.73-.72-1.73-1.6v-6.59c0-.89.78-1.6 1.73-1.6h22.15c.96 0 1.73.71 1.73 1.6v6.58c0 .89-.77 1.6-1.73 1.6zM7.83 15.87c-.49 0-.89.34-.89.76v6.58c0 .42.4.76.9.76h22.14c.49 0 .88-.34.88-.76v-6.58c0-.42-.4-.75-.88-.75H7.83z"/></svg>