<svg xmlns="http://www.w3.org/2000/svg" viewBox="0 0 32 32"><path id="svg-ico" fill="#ee5586" d="M15.55 31.94a4.66 4.66 0 1 1 0-9.32 4.66 4.66 0 0 1 0 9.32zm0-8.47a3.82 3.82 0 1 0 0 7.63 3.82 3.82 0 0 0 0-7.63z"/><path id="svg-ico" fill="#ee5586" d="M15.55 29.18a.43.43 0 0 1-.42-.42v-2.37a.43.43 0 0 1 .85 0v2.37c0 .23-.2.42-.43.42zm2.06-6.49a.43.43 0 0 1-.42-.43v-1.32a.43.43 0 0 1 .85 0v1.32c0 .24-.19.43-.43.43z"/><path fill="#5e686c" d="M20.9 21.33H7.7a7.55 7.55 0 0 1 0-15.07.43.43 0 0 1 0 .85 6.7 6.7 0 0 0 0 13.37h13.2a9.75 9.75 0 0 0 .07-19.47c-4.75.03-9.81 3.08-9.81 9.74a.43.43 0 0 1-.85 0C10.3 3.88 15.58.25 20.86.16h.22a10.6 10.6 0 0 1-.19 21.17z"/><path fill="#5e686c" d="M14.8 11.17a.43.43 0 0 1-.43-.43l-.01-.46v-.07a6.78 6.78 0 0 1 6.6-5.98c.23 0 .42.18.43.41s-.18.43-.42.44a5.9 5.9 0 0 0-5.78 5.13l.02.02v.51c0 .24-.18.43-.42.43z"/><path id="svg-ico" fill="#ee5586" d="M13.48 22.69a.43.43 0 0 1-.42-.43v-1.32c0-.97.78-1.75 1.75-1.75a.43.43 0 0 1 0 .85.9.9 0 0 0-.91.9v1.33c0 .23-.18.42-.42.42z"/></svg>