<svg xmlns="http://www.w3.org/2000/svg" viewBox="0 0 32 32"><path fill="#5e686c" d="m4.91 17.46-.05-.01-3.97-.5a.42.42 0 0 1-.37-.43V10.4c0-.23.2-.42.42-.42H8.3c.23 0 .42.19.42.42V16a.42.42 0 0 1-.84 0v-5.2h-6.5v5.35l3.6.46c.23.03.4.24.36.47a.42.42 0 0 1-.42.37zM8.3 9.57H.94a.42.42 0 0 1-.42-.41V3.03c0-.21.16-.39.36-.42L8.24 1.6a.42.42 0 0 1 .48.42v7.14c0 .23-.19.42-.43.42zm-6.93-.84h6.5V2.5l-6.5.9v5.33zm17.79.84H9.54a.42.42 0 0 1-.42-.41V1.92c0-.21.15-.39.36-.42L19.1.17a.4.4 0 0 1 .33.1c.1.08.14.2.14.32v8.56a.42.42 0 0 1-.41.43zm-9.2-.84h8.77V1.07L9.96 2.3v6.44zm-.42 7.4a.42.42 0 0 1-.42-.42v-5.32c0-.23.19-.42.42-.42h9.62a.42.42 0 0 1 0 .84h-9.2v4.9c0 .23-.2.42-.42.42zm5.56 4.64a.42.42 0 0 1-.42-.41c0-4.01 3.34-6.45 6.56-6.5.24 0 .43.2.43.43 0 .23-.18.42-.42.42-2.81.04-5.73 2.16-5.73 5.65 0 .23-.18.42-.42.42z"/><path id="svg-ico" fill="#ee5586" d="M21.17 30.89H8.03a7.5 7.5 0 0 1 0-15 .42.42 0 0 1 0 .84 6.67 6.67 0 0 0 0 13.31h13.14a9.7 9.7 0 0 0 .07-19.37c-4.72.03-9.77 3.07-9.77 9.68a.42.42 0 0 1-.84 0c0-6.83 5.25-10.45 10.5-10.53h.23a10.54 10.54 0 0 1-.19 21.06z"/></svg>