<svg xmlns="http://www.w3.org/2000/svg" width="32" height="32" viewBox="0 0 32 32"><path fill="#5e686c" d="M5.76 17.57a.42.42 0 0 1-.42-.41v-.4l-.71-.7-2.84-.01a.43.43 0 0 1-.38-.26l-.84-2.05a.43.43 0 0 1 .08-.45l1.97-2.08v-.98L.65 8.2a.41.41 0 0 1-.1-.46l.86-2.04a.42.42 0 0 1 .37-.25l2.86-.08.7-.7.03-2.83c0-.17.1-.32.26-.39L7.66.62a.43.43 0 0 1 .45.08l2.08 1.98h1l2-1.99c.12-.12.3-.15.46-.08l2.04.85c.15.06.25.2.25.37l.08 2.86.7.7 2.83.02c.17 0 .32.1.39.26l.84 2.05c.06.15.03.33-.09.45l-1.97 2.07v.87a.42.42 0 0 1-.84 0v-1.04c0-.1.04-.21.12-.29l1.9-2-.63-1.53-2.73-.02a.4.4 0 0 1-.3-.12l-.93-.94a.45.45 0 0 1-.12-.29l-.07-2.75-1.53-.64-1.94 1.91a.52.52 0 0 1-.3.12h-1.33a.44.44 0 0 1-.29-.12l-2-1.9-1.53.64-.02 2.72a.4.4 0 0 1-.13.3l-.94.94a.43.43 0 0 1-.29.12l-2.75.07-.64 1.53 1.91 1.94c.08.08.12.19.12.3v1.32c0 .1-.05.22-.12.29l-1.9 2 .63 1.54 2.73.02a.4.4 0 0 1 .3.12l.94.95c.07.07.12.18.12.28l.02.56c0 .23-.18.42-.42.43z"/><path fill="#5e686c" d="M10.67 14.51a3.76 3.76 0 0 1-3.48-5.24 3.78 3.78 0 1 1 3.48 5.24zm.01-6.72a2.94 2.94 0 1 0-.01 5.88 2.94 2.94 0 0 0 .01-5.88zm4.42 13.44a.42.42 0 0 1-.42-.42l-.01-.45v-.08a6.73 6.73 0 0 1 6.55-5.94c.22 0 .42.18.42.42a.4.4 0 0 1-.4.42c-2.9.04-5.48 2.32-5.74 5.1l.01.01.01.52c0 .23-.19.42-.42.42z"/><path id="svg-ico" fill="#ee5586" d="M21.09 31.31H7.99a7.48 7.48 0 0 1 0-14.95.42.42 0 0 1 0 .84 6.64 6.64 0 0 0 0 13.28h13.1a9.67 9.67 0 0 0 .07-19.33c-4.7.03-9.73 3.06-9.73 9.66a.42.42 0 0 1-.84 0c0-6.81 5.24-10.42 10.47-10.5h.22a10.51 10.51 0 0 1-.2 21z"/></svg>