<svg xmlns="http://www.w3.org/2000/svg" viewBox="0 0 32 32"><path fill="#5e686c" d="M21.3 3.62h-.23c-5.46.1-10.1 4.3-10.6 9.64v.99a.43.43 0 0 0 .87 0l-.01-.35c0-.2-.01-.38 0-.56a9.95 9.95 0 0 1 9.86-8.86 9.79 9.79 0 0 1 9.7 9.78 9.79 9.79 0 0 1-9.78 9.77.43.43 0 0 0 0 .86 10.64 10.64 0 0 0 .2-21.27z"/><path fill="#5e686c" d="M21.2 8.56c.24 0 .42-.2.42-.44a.42.42 0 0 0-.43-.42 6.82 6.82 0 0 0-6.65 6.01l.01.08.01.46a.43.43 0 0 0 .86 0v-.52l-.01-.02c.25-2.8 2.85-5.12 5.79-5.15zM10.91 24.02H7.86a6.72 6.72 0 0 1-.01-13.42.43.43 0 0 0 0-.86 7.58 7.58 0 0 0 .01 15.15h3.06c.24 0 .43-.2.43-.43 0-.24-.2-.43-.44-.43z"/><path id="svg-ico" fill="#ee5586" d="M16.3 20.24a.43.43 0 0 0-.58 0l-3.06 2.89a.43.43 0 0 0-.02.6c.1.09.2.14.32.14.1 0 .2-.04.29-.12l2.33-2.2v7.01c0 .23.2.4.43.4s.43-.18.43-.4v-7.02l2.35 2.2c.17.17.44.16.6-.02s.16-.44-.02-.6l-3.06-2.88z"/></svg>