<svg xmlns="http://www.w3.org/2000/svg" viewBox="0 0 32 32"><path fill="#5e686c" d="M18.84 11.97h-7.08a4.25 4.25 0 0 1 0-8.5.43.43 0 0 1 0 .86 3.39 3.39 0 0 0 0 6.76h7.08a5.02 5.02 0 0 0 .04-10.02c-2.44.02-5.05 1.58-5.05 5.01a.44.44 0 0 1-.87 0c0-3.81 2.93-5.83 5.86-5.88h.14a5.89 5.89 0 0 1-.12 11.77zm-.07 19.77h-6.89a4.16 4.16 0 0 1 0-8.29.43.43 0 0 1 0 .86 3.28 3.28 0 0 0 0 6.56h6.9a4.87 4.87 0 0 0 .03-9.73c-2.37.02-4.9 1.54-4.9 4.87a.43.43 0 0 1-.87 0c0-3.72 2.86-5.7 5.71-5.74h.14a5.75 5.75 0 0 1-.11 11.47z"/><path id="svg-ico" fill="#ee5586" d="M4.01 26.04a.44.44 0 0 1-.3-.12 9.4 9.4 0 0 1-2.6-6.65 9.4 9.4 0 0 1 2.6-6.64l.9-.9a.43.43 0 1 1 .61.6l-.9.91c-1.5 1.5-2.35 3.7-2.35 6.03s.85 4.54 2.35 6.04c.17.16.17.44 0 .6a.44.44 0 0 1-.3.13z"/><path id="svg-ico" fill="#ee5586" d="M4.92 15.26a.43.43 0 0 1-.43-.43v-2.36H2.17a.43.43 0 0 1 0-.86h2.75c.12 0 .23.04.31.12s.13.2.13.3v2.8a.45.45 0 0 1-.44.43zm22.06 9.41a.43.43 0 0 1-.31-.13.43.43 0 0 1 0-.6l.9-.92c3.16-3.15 3.16-8.9 0-12.05a.43.43 0 0 1 .62-.61c3.47 3.47 3.47 9.8 0 13.28l-.9.9a.46.46 0 0 1-.31.13z"/><path id="svg-ico" fill="#ee5586" d="M26.98 24.67a.44.44 0 0 1-.43-.43v-2.79a.43.43 0 0 1 .86 0v2.36h2.32a.43.43 0 0 1 0 .86h-2.75z"/></svg>