<svg xmlns="http://www.w3.org/2000/svg" viewBox="0 0 32 32"><path fill="#5e686c" d="M15.22 20.64a.41.41 0 0 1-.41-.4c0-3.96 3.28-6.36 6.45-6.4.22 0 .42.18.42.42a.4.4 0 0 1-.41.41c-2.77.04-5.64 2.13-5.64 5.56a.4.4 0 0 1-.41.41zM8.49 7.3a1.66 1.66 0 0 1 0-3.32 1.66 1.66 0 0 1 0 3.31zm0-2.5a.83.83 0 1 0 0 1.67.83.83 0 0 0 0-1.66zM7.36 16.66a.4.4 0 0 1-.38-.24c-.3-.66-.46-1.4-.46-2.17 0-2.45 1.64-4.45 3.67-4.45 1.87 0 3.43 1.7 3.64 3.94a.41.41 0 0 1-.37.45c-.24.02-.44-.14-.45-.37-.17-1.82-1.38-3.19-2.82-3.19-1.57 0-2.84 1.63-2.84 3.62 0 .64.13 1.27.39 1.82.1.21 0 .46-.2.55a.5.5 0 0 1-.18.04zm4.52-9.36a1.66 1.66 0 0 1 0-3.32 1.66 1.66 0 0 1 0 3.31zm0-2.5a.83.83 0 1 0 0 1.67.83.83 0 0 0 0-1.66zm-1.7 4.32a.42.42 0 0 1-.17-.04l-1.7-.8c-.2-.1-.3-.35-.2-.55s.35-.3.56-.2l1.51.71 1.52-.71a.4.4 0 0 1 .55.2c.1.2.01.45-.2.55l-1.7.8a.4.4 0 0 1-.17.04z"/><path fill="#5e686c" d="M.72 16.74a.41.41 0 0 1-.36-.23c-.46-.87.53-2.37 2.32-4.97C4.11 9.47 5.73 7.12 5.73 5.8v-.17a4.46 4.46 0 0 1 8.9 0v.2c0 1.2 1.2 3.12 2.5 5.01a.41.41 0 1 1-.68.47c-1.28-1.87-2.64-3.98-2.64-5.48v-.2a3.63 3.63 0 0 0-7.24 0v.17c0 1.6-1.63 3.95-3.2 6.22-1 1.45-2.52 3.65-2.28 4.12a.42.42 0 0 1-.37.61z"/><path id="svg-ico" fill="#ee5586" d="M21.2 30.6H8.25a7.4 7.4 0 0 1 0-14.77.41.41 0 0 1 0 .83 6.56 6.56 0 0 0 0 13.1h12.93a9.55 9.55 0 0 0 .07-19.07c-4.65.04-9.62 3.02-9.62 9.54 0 .23-.2.41-.42.41s-.4-.18-.4-.4c0-6.73 5.16-10.3 10.33-10.38h.23a10.38 10.38 0 0 1-.19 20.74z"/></svg>