<svg xmlns="http://www.w3.org/2000/svg" viewBox="0 0 32 32"><path id="svg-ico" fill="#ee5585" d="M14.96 16.43a.43.43 0 0 1-.43-.43c0-4.1 3.42-6.6 6.72-6.65.22-.03.43.19.44.42s-.19.44-.43.44c-2.88.04-5.87 2.22-5.87 5.79 0 .24-.19.43-.43.43z"/><path fill="#5e686c" d="M21.18 26.8H7.71a7.7 7.7 0 0 1 0-15.36c.23 0 .42.19.42.42s-.2.43-.43.43a6.83 6.83 0 0 0 0 13.64h13.46a9.94 9.94 0 0 0 .08-19.86c-4.84.04-10 3.14-10 9.93a.44.44 0 0 1-.87 0c0-7 5.38-10.7 10.76-10.8h.23a10.8 10.8 0 0 1-.2 21.59z"/></svg>