<svg xmlns="http://www.w3.org/2000/svg" viewBox="0 0 32 32"><path fill="#5e686c" d="M2.944 5.456A2.53 2.53 0 0 1 .413 2.931a2.532 2.532 0 0 1 5.062 0 2.535 2.535 0 0 1-2.531 2.525zm0-4.212a1.689 1.689 0 0 0 0 3.376 1.687 1.687 0 1 0-.001-3.376zm13.119 28.325c-7.631 0-13.844-6.212-13.844-13.844S8.425 1.881 16.063 1.881c7.631 0 13.844 6.213 13.844 13.844s-6.212 13.844-13.844 13.844zm0-26.844c-7.169 0-13 5.831-13 13s5.831 13 13 13 13-5.831 13-13-5.831-13-13-13z"/><path fill="#5e686c" d="M27.288 27.625a.433.433 0 0 1-.3-.125L18.9 19.419c-.163-.163-.163-.431 0-.594s.431-.163.594 0l8.087 8.081a.422.422 0 0 1 0 .594.397.397 0 0 1-.294.125zM12.637 12.981a.433.433 0 0 1-.3-.125L4.231 4.762c-.162-.162-.162-.431 0-.594s.431-.162.594 0l8.106 8.094a.424.424 0 0 1-.294.719z"/><path fill="#ef5587" d="M4.475 27.631a.424.424 0 0 1-.3-.719l8.394-8.337c.162-.163.431-.163.594 0s.162.431 0 .594l-8.387 8.344a.439.439 0 0 1-.3.119z"/><path id="svg-ico" fill="#ee5586" d="M28.813 5.456c-1.394 0-2.525-1.131-2.525-2.525S27.419.4 28.813.4a2.536 2.536 0 0 1 2.531 2.531 2.535 2.535 0 0 1-2.531 2.525zm0-4.212a1.689 1.689 0 0 0 0 3.376c.931 0 1.688-.756 1.688-1.688a1.697 1.697 0 0 0-1.688-1.688zM2.944 31.337a2.53 2.53 0 0 1-2.531-2.525 2.532 2.532 0 0 1 5.062 0 2.535 2.535 0 0 1-2.531 2.525zm0-4.212c-.931 0-1.688.756-1.688 1.688s.756 1.681 1.688 1.681 1.687-.756 1.687-1.681c0-.931-.756-1.688-1.688-1.688z"/><path fill="#5e686c" d="M28.813 31.337c-1.394 0-2.525-1.131-2.525-2.525s1.131-2.531 2.525-2.531a2.536 2.536 0 0 1 2.531 2.531 2.535 2.535 0 0 1-2.531 2.525zm0-4.212c-.931 0-1.688.756-1.688 1.688s.756 1.681 1.688 1.681c.931 0 1.688-.756 1.688-1.681a1.697 1.697 0 0 0-1.688-1.688z"/><path id="svg-ico" fill="#ee5586" d="M16.063 20.619c-2.7 0-4.894-2.194-4.894-4.894s2.194-4.894 4.894-4.894 4.894 2.194 4.894 4.894-2.194 4.894-4.894 4.894zm0-8.95a4.054 4.054 0 0 0 0 8.106 4.053 4.053 0 0 0 0-8.106z"/><path id="svg-ico" fill="#ee5586" d="M19.256 12.931a.422.422 0 0 1-.3-.719l8.031-7.975c.169-.162.431-.162.594 0s.163.431 0 .594l-8.025 7.975a.422.422 0 0 1-.3.125z"/></svg>