<svg xmlns="http://www.w3.org/2000/svg" viewBox="0 0 32 32"><path fill="#5e686c" d="M16 31.587C7.4 31.587.412 24.593.412 15.999S7.399.405 16 .405c3.7 0 7.281 1.319 10.087 3.706.175.15.2.419.05.594a.42.42 0 0 1-.594.05 14.753 14.753 0 0 0-9.544-3.5c-8.131 0-14.744 6.612-14.744 14.744 0 8.125 6.612 14.737 14.744 14.737 8.125 0 14.744-6.613 14.744-14.738a14.72 14.72 0 0 0-3.488-9.519.42.42 0 0 1 .05-.594.42.42 0 0 1 .594.05 15.571 15.571 0 0 1 3.688 10.069c0 8.587-6.994 15.581-15.588 15.581z"/><path id="svg-ico" fill="#ee5586" d="M20.844 20.269a.433.433 0 0 1-.3-.125.43.43 0 0 1 0-.6L24.088 16l-3.544-3.544a.43.43 0 0 1 0-.6.431.431 0 0 1 .6 0l3.844 3.844a.43.43 0 0 1 0 .6l-3.844 3.844a.433.433 0 0 1-.3.125zm-9.694 0a.433.433 0 0 1-.3-.125L7.006 16.3a.431.431 0 0 1 0-.6l3.844-3.844a.431.431 0 0 1 .6 0 .431.431 0 0 1 0 .6L7.906 16l3.544 3.544a.431.431 0 0 1 0 .6.422.422 0 0 1-.3.125z"/><path fill="#5e686c" d="M13.919 22.769a.451.451 0 0 1-.131-.019.427.427 0 0 1-.269-.538L17.75 9.518c.075-.219.319-.344.538-.269s.344.313.269.537L14.326 22.48a.437.437 0 0 1-.406.288z"/></svg>