<svg xmlns="http://www.w3.org/2000/svg" viewBox="0 0 32 32"><path fill="#5e686c" d="m24.7 14.06.41-4.4a.43.43 0 0 0-.43-.47H2.96a.42.42 0 0 0-.32.14.43.43 0 0 0-.11.33L4.25 28.5c.26 2.7 1.95 3.27 3.32 3.27h12.35c1.93 0 3.25-1.32 3.46-3.45l1.24-13.39c2.73.18 4.9 2.2 4.9 4.65 0 1.81-1.2 3.48-3.08 4.24a.43.43 0 1 0 .32.8 5.54 5.54 0 0 0 3.62-5.04c0-2.91-2.5-5.3-5.67-5.52zm-2.18 14.18c-.16 1.7-1.1 2.67-2.6 2.67H7.57c-1.5 0-2.29-.8-2.45-2.5a7443.6 7443.6 0 0 1-1.68-18.35H24.2l-1.69 18.18z"/><path id="svg-ico" fill="#ee5586" d="M8.4 6.21c.23 0 .42-.2.42-.43V1.64a.43.43 0 0 0-.86 0v4.14c0 .24.2.43.43.43z"/><path fill="#ef5587" d="M13.82 7.29c.24 0 .44-.2.44-.43V.57c0-.23-.2-.43-.44-.43s-.43.2-.43.44v6.28c0 .23.2.43.43.43zm5.43-1.08c.24 0 .43-.2.43-.43V1.64a.43.43 0 0 0-.86 0v4.14c0 .24.2.43.43.43z"/></svg>