<svg xmlns="http://www.w3.org/2000/svg" viewBox="0 0 32 32"><path fill="#5e686c" d="M25.07 16.37a.43.43 0 0 0-.08-.45L13.65 4.59V3.54a2.95 2.95 0 0 0-5.89 0v6.22L2.24 15.3a2.92 2.92 0 0 0 0 4.16l5.92 5.92a2.92 2.92 0 0 0 4.16 0l8.74-8.75h3.63a.4.4 0 0 0 .38-.25zM8.6 3.54a2.13 2.13 0 0 1 4.25 0V4.7L8.59 8.94v-5.4zM20.9 15.8a.4.4 0 0 0-.28.12l-8.87 8.87c-.8.8-2.2.8-3 0l-5.92-5.92a2.12 2.12 0 0 1 0-3l5.64-5.64 4.36-4.37v7.82c0 .23.19.41.42.41s.4-.18.4-.4V5.74L23.7 15.8h-2.8z"/><path id="svg-ico" fill="#ee5586" d="M26.31 19.8a.4.4 0 0 0-.7 0c-.33.54-3.22 5.37-3.22 7.18a3.58 3.58 0 0 0 7.15 0c0-1.82-2.9-6.64-3.23-7.18zm-.35 9.93a2.76 2.76 0 0 1-2.75-2.75c0-1.2 1.75-4.44 2.75-6.17 1 1.73 2.76 4.98 2.76 6.17a2.76 2.76 0 0 1-2.76 2.75z"/></svg>