<svg xmlns="http://www.w3.org/2000/svg" viewBox="0 0 32 32"><path fill="#5e686c" d="M20.13 6.18h7.23a.42.42 0 0 0 0-.84h-7.23a4.19 4.19 0 0 0-8.32 0H4.59a.42.42 0 0 0 0 .84h7.22a4.19 4.19 0 0 0 8.32 0zm-4.15 2.93a3.35 3.35 0 1 1 0-6.7 3.35 3.35 0 0 1 0 6.7z"/><path id="svg-ico" fill="#ee5586" d="M14.88 23.08a.4.4 0 0 0-.06-.14l-6.88-12.5a.25.25 0 0 0-.05-.07l-.03-.03-.02-.03-.04-.02h-.02l-.02-.01a.47.47 0 0 0-.15-.05H7.5a.4.4 0 0 0-.11.04l-.01.01-.02.01-.04.02a.04.04 0 0 0-.03.03l-.03.03-.03.03-.03.05-6.9 12.5a.47.47 0 0 0-.05.17v.03a7.32 7.32 0 0 0 14.63 0v-.07zM7.57 11.51l6.19 11.23H1.38L7.57 11.5zm0 18.12a6.5 6.5 0 0 1-6.47-6.06h12.93a6.48 6.48 0 0 1-6.46 6.06z"/><path fill="#5e686c" d="m31.54 22.95-6.93-12.51-.01-.01-.01-.02-.01-.02c-.01-.02-.02 0-.02-.01v-.02c-.01 0-.02 0-.03-.02h-.01l-.02-.02h-.01l-.03-.03-.03-.01-.01-.02h-.03l-.01-.01h-.03v-.02h-.08a.4.4 0 0 0-.23.04l-.02.01-.01.01-.02.01-.01.01-.02.02-.01.02-.02.01v.02c-.01 0-.02 0-.03.02v.01l-.02.03-6.8 12.39a.4.4 0 0 0-.17.33 7.33 7.33 0 0 0 14.64.18.42.42 0 0 0-.01-.39zm-7.3-11.44 6.23 11.22H18.09l6.15-11.22zm0 18.12a6.5 6.5 0 0 1-6.47-6.06H30.7a6.48 6.48 0 0 1-6.46 6.06z"/></svg>