<svg xmlns="http://www.w3.org/2000/svg" viewBox="0 0 32 32"><path fill="#5e686c" d="M15.96.19C7.26.19.18 7.27.18 15.97s7.08 15.78 15.78 15.78 15.78-7.08 15.78-15.78S24.66.19 15.96.19zm.44 30.68V28c0-.24-.2-.44-.44-.44s-.44.2-.44.44v2.87A14.92 14.92 0 0 1 1.07 16.4h2.87c.24 0 .43-.2.43-.44s-.19-.44-.43-.44H1.07A14.93 14.93 0 0 1 15.52 1.07V4c0 .24.2.43.44.43s.44-.19.44-.43V1.07a14.93 14.93 0 0 1 14.46 14.45H28c-.24 0-.43.2-.43.44s.19.44.43.44h2.87A14.93 14.93 0 0 1 16.4 30.87z"/><path fill="#5e686c" d="M16.32 16.94a.44.44 0 0 0 .62 0 .44.44 0 0 0 0-.62L15.61 15c-.17-.17-.45-.17-.62 0s-.16.45 0 .62l1.33 1.33z"/><path id="svg-ico" fill="#ee5586" d="m22.77 8.56-8.78 5.27-.05.03-.03.02-.02.02v.01l-.03.03c0 .02-.02.03-.03.04l-5.27 8.78c-.1.18-.07.4.07.54.08.09.2.13.31.13.08 0 .16-.02.23-.06l8.79-5.27.03-.02.04-.04.03-.03.01-.02.03-.03v-.01l5.27-8.79a.42.42 0 0 0-.06-.53.46.46 0 0 0-.54-.07zm-5.37 8.85-7.19 4.3 4.31-7.18 7.2-4.31-4.32 7.19z"/></svg>