<svg xmlns="http://www.w3.org/2000/svg" viewBox="0 0 32 32"><path fill="#5e686c" d="M8.01 14.52a.41.41 0 0 1-.41-.38L7.24 9.9a.41.41 0 0 1 .82-.07l.37 4.23a.41.41 0 0 1-.38.45l-.04.01zm15.8.03h-.03a.41.41 0 0 1-.38-.44l.31-4.27c.02-.23.22-.4.45-.38.23.02.4.21.38.45l-.31 4.26a.41.41 0 0 1-.42.38zm-1.28-4.26a.41.41 0 0 1-.37-.24L19.54 4.5h-7.32L9.5 10.06a.4.4 0 0 1-.55.18.42.42 0 0 1-.2-.55L11.6 3.9a.4.4 0 0 1 .38-.23h7.84c.16 0 .3.09.37.23l2.71 5.8c.1.2 0 .46-.2.55a.4.4 0 0 1-.17.05z"/><path fill="#5e686c" d="M17.9 4.36a.41.41 0 0 1-.4-.42V1.42h-3.21v2.52c0 .23-.2.42-.42.42s-.4-.2-.4-.42V1.01a.4.4 0 0 1 .4-.41h4.04c.23 0 .41.19.41.41v2.93c0 .23-.18.42-.41.42z"/><path id="svg-ico" fill="#ee5586" d="M9.17 30.45a.4.4 0 0 1-.4-.31L5.12 15.56a.41.41 0 0 1 .19-.45c.26-.17 6.5-3.92 10.5-3.92h.16c3.98 0 10.22 3.75 10.49 3.92a.4.4 0 0 1 .18.45L23 30.13a.41.41 0 0 1-.5.3.41.41 0 0 1-.3-.5l3.57-14.27c-1.23-.71-6.49-3.64-9.8-3.64h-.15c-3.33 0-8.59 2.93-9.82 3.64l3.57 14.28a.4.4 0 0 1-.3.5h-.1z"/><path id="svg-ico" fill="#ee5586" d="M15.97 30.46a.41.41 0 0 1-.41-.42V11.61a.41.41 0 0 1 .82 0v18.43c0 .23-.18.42-.41.42z"/><path fill="#5e686c" d="M24.4 31.54c-.7 0-1.03-.18-1.4-.37a2.6 2.6 0 0 0-1.44-.4c-.71 0-1.07.2-1.43.4-.37.2-.71.37-1.4.37s-1.04-.18-1.4-.37c-.36-.2-.73-.4-1.44-.4s-1.08.2-1.43.39c-.37.2-.7.38-1.4.38s-1.04-.18-1.4-.38c-.37-.2-.73-.4-1.45-.4s-1.08.2-1.43.4c-.37.2-.71.38-1.4.38s-1.03-.19-1.4-.38c-.37-.2-.73-.4-1.45-.4a.41.41 0 0 1 0-.82c.93 0 1.43.27 1.83.49.33.18.52.28 1.01.28s.68-.1 1-.28c.41-.22.91-.49 1.84-.49s1.42.27 1.82.49c.33.18.53.28 1.02.28s.68-.1 1-.28c.4-.22.9-.49 1.83-.49s1.43.27 1.83.49c.34.18.53.28 1.01.28.49 0 .68-.1 1-.28.41-.22.91-.49 1.84-.49s1.42.27 1.83.49c.33.17.52.28 1 .28.5 0 .69-.1 1-.28.42-.22.92-.49 1.84-.49a.41.41 0 0 1 0 .83c-.72 0-1.08.2-1.43.38-.36.2-.7.39-1.4.39zm-.27-21.25H7.64a.41.41 0 0 1 0-.83h16.48a.41.41 0 1 1 0 .83z"/></svg>