<svg xmlns="http://www.w3.org/2000/svg" viewBox="0 0 32 32"><path fill="#5e686c" d="M5.86 12.85a5.51 5.51 0 1 1 .01-11.02 5.51 5.51 0 0 1 0 11.02zm0-10.16A4.66 4.66 0 1 0 5.87 12a4.66 4.66 0 0 0 0-9.32zm0 27.84a5.51 5.51 0 1 1 .01-11.02 5.51 5.51 0 0 1 0 11.02zm0-10.16a4.66 4.66 0 1 0 0 9.32 4.66 4.66 0 0 0 0-9.32zm14.17-5.27a.42.42 0 0 1-.36-.2.42.42 0 0 1 .14-.58l10.77-6.78c.2-.13.46-.07.58.13.13.2.06.46-.13.58l-10.77 6.79a.4.4 0 0 1-.23.06z"/><path fill="#5e686c" d="M9.57 21.63a.42.42 0 0 1-.23-.78l5.87-3.64a.42.42 0 0 1 .44.72l-5.86 3.64a.39.39 0 0 1-.22.06zm21.24 2.77a.4.4 0 0 1-.22-.06l-10.78-6.51c-.2-.12-.26-.39-.14-.59s.38-.26.58-.14l10.77 6.52c.2.12.27.38.15.58a.4.4 0 0 1-.36.2zm-15.38-9.3a.4.4 0 0 1-.22-.06l-5.86-3.52a.42.42 0 0 1-.14-.58c.11-.2.38-.27.58-.15l5.86 3.52c.2.12.27.38.14.58a.4.4 0 0 1-.36.2z"/><path id="svg-ico" fill="#ee5586" d="M31.04 16.44H28.5a.43.43 0 0 1 0-.85h2.54a.43.43 0 0 1 0 .85z"/><path fill="#ef5587" d="M25.11 16.44h-2.53a.43.43 0 0 1 0-.85h2.53a.43.43 0 0 1 0 .85z"/><path id="svg-ico" fill="#ee5586" d="M17.76 18.98a2.97 2.97 0 1 1 0-5.93 2.97 2.97 0 0 1 0 5.93zm0-5.08a2.12 2.12 0 1 0 0 4.24 2.12 2.12 0 0 0 0-4.24z"/></svg>