<svg xmlns="http://www.w3.org/2000/svg" viewBox="0 0 32 32"><path id="svg-ico" fill="#ee5586" d="M22 9.5H10c-.3 0-.5.2-.5.4v12c0 .3.2.5.5.5h12c.2 0 .4-.2.4-.5V10c0-.2-.2-.4-.4-.4zm-.4 12H10.4V10.4h11.2v11.1z"/><path fill="#5e686b" d="M31.4 13.8a.4.4 0 0 0 0-.9h-4.7V8.6h4.7a.4.4 0 0 0 0-.8h-4.7V5.6c0-.2-.2-.4-.4-.4H24V.5c0-.2-.2-.4-.4-.4s-.4.2-.4.4v4.7H19V.5c0-.2-.2-.4-.5-.4s-.4.2-.4.4v4.7h-4.3V.5c0-.2-.2-.4-.4-.4s-.4.2-.4.4v4.7H8.7V.5c0-.2-.2-.4-.5-.4s-.4.2-.4.4v4.7H5.7c-.3 0-.5.2-.5.4v2.2H.5c-.2 0-.4.2-.4.4s.2.5.4.5h4.8v4.2H.5c-.2 0-.4.2-.4.5s.2.4.4.4h4.8v4.3H.5c-.2 0-.4.2-.4.4s.2.4.4.4h4.8v4.3H.5c-.2 0-.4.2-.4.5s.2.4.4.4h4.8v2.1c0 .3.1.5.4.5h2.1v4.7a.4.4 0 0 0 .9 0v-4.7H13v4.7a.4.4 0 0 0 .8 0v-4.7h4.3v4.7a.4.4 0 0 0 .9 0v-4.7h4.3v4.7a.4.4 0 0 0 .8 0v-4.7h2.2c.2 0 .4-.2.4-.5v-2.1h4.7a.4.4 0 0 0 0-.9h-4.7V19h4.7a.4.4 0 0 0 0-.8h-4.7v-4.3h4.7zm-5.6 12H6.1V6.1h19.7v19.7z"/></svg>