<svg xmlns="http://www.w3.org/2000/svg" viewBox="0 0 32 32"><path fill="#5e686b" d="M25.6 24.6H6.3a.4.4 0 0 1-.4-.4v-5.4l-2.2-7.5A3.2 3.2 0 0 1 .3 8c0-1.7 1.4-3.2 3.2-3.2a3.2 3.2 0 0 1 3.1 4c3.6 1.1 6.4.8 7.8-1-1-.6-1.7-1.7-1.7-2.9C12.7 3.4 14.2 2 16 2s3.2 1.4 3.2 3.2a3 3 0 0 1-1.7 2.7c1.6 2.4 4.3 2.9 8 1.4-.2-.4-.2-.7-.2-1.1 0-1.7 1.4-3.2 3.2-3.2a3.2 3.2 0 1 1-.2 6.4L26 18.9v5.3c0 .3-.2.4-.4.4zm-18.9-.8h18.5v-5l2.3-8.1c0-.2.2-.4.4-.3h.5c1.3 0 2.3-1 2.3-2.3 0-1.3-1-2.3-2.3-2.3C27 5.8 26 6.8 26 8c0 .4.1.7.3 1a.4.4 0 0 1-.2.7c-1.7.7-3.2 1.1-4.5 1.1a5.6 5.6 0 0 1-5.2-3 .4.4 0 0 1 .3-.6c1-.4 1.6-1.2 1.6-2.2 0-1.3-1-2.4-2.4-2.4s-2.3 1-2.3 2.4c0 1 .6 1.8 1.6 2.2.1 0 .2 0 .3.2v.4c-1 1.6-2.8 2.5-5 2.5-1.4 0-3-.3-4.6-.9a.4.4 0 0 1-.2-.5l.2-.9c0-1.3-1-2.3-2.4-2.3-1.3 0-2.4 1-2.4 2.3A2.3 2.3 0 0 0 4 10.4c.3 0 .5 0 .5.3l2.3 7.9v5.2z"/><path id="svg-ico" fill="#ee5586" d="M25.5 30.3H6.2a.4.4 0 0 1 0-.8h19.3c.3 0 .4.2.4.4s-.1.4-.4.4z"/></svg>