<svg xmlns="http://www.w3.org/2000/svg" xml:space="preserve" id="Layer_1" x="0" y="0" version="1.1" viewBox="0 0 32 32"><style>.cryptowallet0{fill:#5e686b}.cryptowallet1{fill:#ee5586}</style><path d="M27.4 31.8H4.6a4.2 4.2 0 0 1-4.2-4.2V10.3C.4 8 2.3 6.1 4.6 6.1h22.9c2.3 0 4.2 1.9 4.2 4.2v17.3c-.1 2.3-2 4.2-4.3 4.2zM4.6 7.1a3.2 3.2 0 0 0-3.2 3.2v17.3c0 1.8 1.4 3.2 3.2 3.2h22.9c1.8 0 3.2-1.4 3.2-3.2V10.3c0-1.8-1.4-3.2-3.2-3.2H4.6z" class="cryptowallet0"/><path d="M.9 10.8c-.3 0-.5-.2-.5-.5 0-1.5.6-2.9 1.8-4.1 6-6 25.2-6 26-6 .3 0 .5.2.5.5v6c0 .3-.2.5-.5.5s-.5-.2-.5-.5V1.2c-3.1 0-19.6.5-24.8 5.7-1 1-1.5 2.1-1.5 3.4 0 .2-.3.5-.5.5zm30.2 11.1h-5.9c-1.2 0-2.2-1-2.2-2.2V18c0-1.2 1-2.2 2.2-2.2h5.9v1h-5.9c-.7 0-1.2.5-1.2 1.2v1.7c0 .7.5 1.2 1.2 1.2h5.9v1z" class="cryptowallet0"/><path id="svg-ico" d="M19.2 23.2h-6.5a.5.5 0 0 1-.5-.3c-.1-.2 0-.4.1-.5l5.9-6.4h-5.5c-.3 0-.5-.2-.5-.5s.2-.5.5-.5h6.6c.2 0 .4.1.5.3.1.2 0 .4-.1.5l-5.9 6.4h5.4c.3 0 .5.2.5.5s-.2.5-.5.5z" class="cryptowallet1"/><path id="svg-ico" d="M16 25.7c-.3 0-.5-.2-.5-.5v-2.4c0-.3.2-.5.5-.5s.5.2.5.5v2.4c0 .3-.2.5-.5.5zm0-9.7c-.3 0-.5-.2-.5-.5v-2.6c0-.3.2-.5.5-.5s.5.2.5.5v2.6c0 .3-.2.5-.5.5z" class="cryptowallet1"/><path id="svg-ico" d="M16 28.5a9.6 9.6 0 1 1 7.9-15.1c.2.2.1.5-.1.7-.2.2-.5.1-.7-.1a8.6 8.6 0 0 0-7.1-3.7c-4.7 0-8.6 3.9-8.6 8.6s3.9 8.6 8.6 8.6c2.8 0 5.4-1.4 7.1-3.7.2-.2.5-.3.7-.1.2.2.3.5.1.7a9.6 9.6 0 0 1-7.9 4.1z" class="cryptowallet1"/><circle cx="26.5" cy="18.8" r=".8" class="cryptowallet0"/></svg>