<svg xmlns="http://www.w3.org/2000/svg" xml:space="preserve" id="Layer_1" x="0" y="0" version="1.1" viewBox="0 0 32 32"><style>.criptoinvisible0{fill:#ee5586}.criptoinvisible1{fill:#656565}</style><path id="svg-ico" d="m24.4 9.9-.2-.1a12.5 12.5 0 0 0-4.9-4.5c-.2 0-.3-.2-.2-.3.1-.1.2-.2.3-.1 2.1 1 3.9 2.6 5.2 4.6.1.1 0 .3-.1.3l-.1.1zm-9.7 13.5a8.6 8.6 0 1 1 0-17.2 8.6 8.6 0 0 1 0 17.2zm0-16.2a7.6 7.6 0 1 0 7.6 7.6 7.7 7.7 0 0 0-7.6-7.6z" class="criptoinvisible0"/><path id="svg-ico" d="M16.8 14.5c.4-.5.7-1.1.7-1.7 0-1.3-1-2.3-2.3-2.3v-.9c0-.3-.2-.5-.5-.5s-.5.2-.5.5v.9h-.5v-.9c0-.3-.2-.5-.5-.5s-.5.2-.5.5v.9h-1.1c-.3 0-.5.2-.5.5s.2.5.5.5h1.1v6.7h-1.1c-.3 0-.5.2-.5.5s.2.5.5.5h1.1v.9c0 .3.2.5.5.5s.5-.2.5-.5v-.9h.5v.9c0 .3.2.5.5.5s.5-.2.5-.5v-.9h.7c1.3 0 2.3-1.1 2.3-2.3 0-1.1-.6-2-1.4-2.4zm-1.7-3c.7 0 1.3.6 1.3 1.3 0 .8-.7 1.5-1.3 1.5h-1.5v-2.9h1.5zm.8 6.7h-2.2v-2.8h2.2c.7 0 1.3.7 1.3 1.5 0 .7-.6 1.3-1.3 1.3z" class="criptoinvisible0"/><path d="M14.7 29.4a14.6 14.6 0 1 1 0-29.2 14.6 14.6 0 0 1 0 29.2zm0-28.2a13.6 13.6 0 1 0 0 27.2 13.6 13.6 0 0 0 0-27.2z" class="criptoinvisible1"/><path d="m30.6 31.6-.4-.1-6.1-6.1c-.2-.2-.2-.5 0-.7s.5-.2.7 0l6.1 6.1c.2.2.2.5 0 .7l-.3.1z" class="criptoinvisible1"/></svg>