<svg xmlns="http://www.w3.org/2000/svg" xml:space="preserve" id="Layer_1" x="0" y="0" version="1.1" viewBox="0 0 32 32"><style>.criptographic1{fill:#ee5586}</style><path fill="#656565" d="M2.5 31.9c-.3 0-.5-.2-.5-.5V5.5c0-.3.2-.5.5-.5s.5.2.5.5v25.9c0 .3-.2.5-.5.5zm7.6-5.3H6.4a.8.8 0 0 1-.8-.8v-6.1c0-.5.4-.8.8-.8h3.7c.5 0 .8.4.8.8v6.1c.1.4-.3.8-.8.8zm-3.5-1H10v-5.8H6.6v5.8zm12.8 1h-3.7a.8.8 0 0 1-.8-.8V11.1c0-.5.4-.8.8-.8h3.7c.5 0 .8.4.8.8v14.7c0 .4-.3.8-.8.8zm-3.6-1h3.4V11.3h-3.4v14.3zm12.7 1h-3.4a1 1 0 0 1-1-1v-9.4c0-.5.4-1 1-1h3.4c.5 0 1 .4 1 1v9.4c0 .6-.5 1-1 1zm0-10.4h-3.4v9.3h3.4v-9.3zm0 9.4z"/><path id="svg-ico" d="M26.8 13.2a4 4 0 0 1-4-4c0-2.2 1.8-4 4-4s4 1.8 4 4a4 4 0 0 1-4 4zm0-7.5c-1.9 0-3.5 1.6-3.5 3.5s1.6 3.5 3.5 3.5 3.5-1.6 3.5-3.5-1.6-3.5-3.5-3.5z" class="criptographic1"/><path id="svg-ico" d="M27.4 11.2h-2l-.2-.2.2-.2h2l.2.2-.2.2zM27 7.7h-1.6l-.2-.2.2-.2H27l.2.2c0 .1 0 .2-.2.2zm.4 1.8h-1.2l-.2-.2.1-.3h1.2l.2.2-.1.3z" class="criptographic1"/><path id="svg-ico" d="m27 9.4-.2-.2.2-.2c.3 0 .6-.3.6-.7 0-.3-.3-.6-.6-.6l-.2-.2.2-.2c.6 0 1.1.5 1.1 1.1 0 .5-.5 1-1.1 1z" class="criptographic1"/><path id="svg-ico" d="m27.4 11.2-.2-.2.2-.2c.3 0 .6-.3.6-.6 0-.4-.3-.7-.6-.7l-.2-.2c0-.1 0-.3.2-.3.6 0 1.1.5 1.1 1.2 0 .5-.5 1-1.1 1zm-1.3.7a.2.2 0 0 1-.2-.2V6.8l.2-.2.2.2v4.8c.1.2 0 .3-.2.3zm.7 0a.2.2 0 0 1-.2-.2V11l.2-.2.2.2v.6c.1.2-.1.3-.2.3zm0-4.2a.2.2 0 0 1-.2-.2v-.7l.2-.2.2.2v.6c.1.2-.1.3-.2.3zm-9.3.6a4 4 0 0 1-4-4c0-2.2 1.8-4 4-4s4 1.8 4 4a4 4 0 0 1-4 4zm0-7.5C15.6.8 14 2.4 14 4.3s1.6 3.5 3.5 3.5S21 6.2 21 4.3 19.5.8 17.5.8zM8.3 17a4 4 0 0 1-4-4 4 4 0 0 1 4-4 4 4 0 0 1 4 4 4 4 0 0 1-4 4zm0-7.5c-1.9 0-3.5 1.6-3.5 3.5s1.6 3.5 3.5 3.5 3.5-1.6 3.5-3.5-1.6-3.5-3.5-3.5z" class="criptographic1"/><path id="svg-ico" d="M18.8 6h-2.5l-.3-.1v-.3l2.2-2.4h-2L16 3l.2-.2h2.6l.2.1v.3l-2.2 2.4h1.9l.2.2-.1.2z" class="criptographic1"/><path id="svg-ico" d="M17.5 7a.2.2 0 0 1-.2-.2v-1l.2-.2.2.2v.9c.1.2 0 .3-.2.3zm0-3.8a.2.2 0 0 1-.2-.2V2l.2-.2.2.2v1c.1.1 0 .2-.2.2zM8.3 15.3c-.8 0-1.3-.5-1.3-1.3l.2-.2.2.2c0 .4.4.8.8.8s.8-.4.8-.8-.3-.7-.9-.8c-.6-.1-1.1-.6-1.1-1.3 0-.7.6-1.3 1.3-1.3.7 0 1.3.6 1.3 1.3l-.2.2c-.1 0-.4 0-.4-.2 0-.4-.4-.8-.8-.8s-.8.3-.8.8c0 .4.3.7.8.8.8.1 1.3.6 1.3 1.3.1.8-.5 1.3-1.2 1.3z" class="criptographic1"/><path id="svg-ico" d="M8.3 15.9a.2.2 0 0 1-.2-.2v-.6l.2-.2.2.2v.6l-.2.2zm0-4.7a.2.2 0 0 1-.2-.2v-.6l.2-.2.2.2v.6l-.2.2zM31.5 30H.6c-.3 0-.5-.2-.5-.5s.2-.5.5-.5h30.9c.3 0 .5.2.5.5s-.3.5-.5.5z" class="criptographic1"/></svg>