<svg xmlns="http://www.w3.org/2000/svg" xml:space="preserve" id="Layer_1" x="0" y="0" version="1.1" viewBox="0 0 32 32"><style>.criptosecurity0{fill:gray}.criptosecurity1{fill:#ee5586}</style><path d="M16.8 31.1c-5.5 0-10.5-3-13.1-7.9 0-.1-.1-.2-.1-.2V9.5c0-.1 0-.2.1-.2 2.6-4.9 7.6-7.9 13.1-7.9C25 1.4 31.7 8 31.7 16.2c0 8.2-6.7 14.9-14.9 14.9zM4.6 22.9a13.87 13.87 0 0 0 26.1-6.6c0-7.7-6.2-13.9-13.9-13.9-5.1 0-9.8 2.7-12.2 7.2v13.3z" class="criptosecurity0"/><path d="M4.8 24.5h-4c-.4 0-.7-.3-.7-.7V8.6c0-.4.3-.7.7-.7h4c.2 0 .4.2.4.4s-.2.4-.4.4h-4v15.1h3.9c.2 0 .4.2.4.4s-.1.3-.3.3z" class="criptosecurity0"/><path d="M3.9 8.7H.6c-.2 0-.4-.2-.4-.4 0-1.1.9-2 2-2s2 .9 2 2c.1.3-.1.4-.3.4zM1.1 8h2.4c-.2-.5-.7-.9-1.2-.9s-1.1.4-1.2.9zm1.2 18.2a2 2 0 0 1-2-2c0-.2.2-.4.4-.4H4c.2 0 .4.2.4.4-.1 1.1-1 2-2.1 2zm-1.2-1.7c.2.5.6.9 1.2.9s1.1-.4 1.2-.9H1.1zm16-1.1c-3.8 0-6.9-3.1-6.9-6.9 0-3.8 3.1-6.9 6.9-6.9 3.8 0 6.9 3.1 6.9 6.9 0 3.8-3.1 6.9-6.9 6.9zm0-12.9a5.91 5.91 0 0 0 0 11.8c3.3 0 5.9-2.7 5.9-5.9s-2.7-5.9-5.9-5.9z" class="criptosecurity0"/><path d="M17.1 10.5c-.3 0-.5-.2-.5-.5V8.3c0-.3.2-.5.5-.5s.5.2.5.5V10c0 .3-.3.5-.5.5zm4.7 13.1c-.2 0-.3-.1-.4-.2l-1-1.4c-.2-.2-.1-.5.1-.7.2-.2.5-.1.7.1l1 1.4c.2.2.1.5-.1.7 0 .1-.1.1-.3.1z" class="criptosecurity0"/><path id="svg-ico" d="M17 8.6c-1 0-1.8-.8-1.8-1.8S16 5 17 5s1.8.8 1.8 1.8S18 8.6 17 8.6zm0-2.5c-.4 0-.8.3-.8.8s.3.8.8.8c.4 0 .8-.3.8-.8s-.4-.8-.8-.8zM22.7 26c-1 0-1.8-.8-1.8-1.8s.8-1.8 1.8-1.8 1.8.8 1.8 1.8-.8 1.8-1.8 1.8zm0-2.5c-.4 0-.8.3-.8.8s.3.8.8.8.8-.3.8-.8-.4-.8-.8-.8z" class="criptosecurity1"/><path d="M12.4 23.6c-.1 0-.2 0-.3-.1-.2-.2-.3-.5-.1-.7l1-1.4c.2-.2.5-.3.7-.1.2.2.3.5.1.7l-1 1.4c-.1.1-.3.2-.4.2z" class="criptosecurity0"/><path id="svg-ico" d="M11.5 26.1c-1 0-1.8-.8-1.8-1.8s.8-1.8 1.8-1.8 1.8.8 1.8 1.8-.8 1.8-1.8 1.8zm0-2.5c-.4 0-.8.3-.8.8s.3.8.8.8.8-.3.8-.8-.4-.8-.8-.8z" class="criptosecurity1"/><path d="M10.9 15h-.1l-1.6-.5c-.3-.1-.4-.4-.3-.6.1-.3.4-.4.6-.3l1.6.5c.3.1.4.4.3.6-.1.2-.3.3-.5.3z" class="criptosecurity0"/><path id="svg-ico" d="M7.9 15.3c-1 0-1.8-.8-1.8-1.8s.8-1.8 1.8-1.8 1.8.8 1.8 1.8-.9 1.8-1.8 1.8zm0-2.5c-.4 0-.8.3-.8.8s.3.8.8.8.8-.3.8-.8-.4-.8-.8-.8z" class="criptosecurity1"/><path d="M23.2 15c-.2 0-.4-.1-.5-.3-.1-.3.1-.5.3-.6l1.6-.5c.3-.1.5.1.6.3s-.1.5-.3.6l-1.5.5h-.2z" class="criptosecurity0"/><path id="svg-ico" d="M26.2 15.3c-1 0-1.8-.8-1.8-1.8s.8-1.8 1.8-1.8 1.8.8 1.8 1.8-.8 1.8-1.8 1.8zm0-2.5c-.4 0-.8.3-.8.8s.3.8.8.8.8-.3.8-.8-.4-.8-.8-.8zm-9.1 8c-2.5 0-4.6-2-4.6-4.6s2-4.6 4.6-4.6c2.5 0 4.6 2 4.6 4.6s-2.1 4.6-4.6 4.6zm0-8.1c-2 0-3.6 1.6-3.6 3.6s1.6 3.6 3.6 3.6 3.6-1.6 3.6-3.6c-.1-2-1.7-3.6-3.6-3.6z" class="criptosecurity1"/><path id="svg-ico" d="M18.2 18h-2.3c-.2 0-.4-.1-.5-.3-.1-.2 0-.4.1-.5l1.6-1.7h-1.2c-.3 0-.5-.2-.5-.5s.2-.5.5-.5h2.4c.2 0 .4.1.5.3.1.2 0 .4-.1.5L17 17h1.2c.3 0 .5.2.5.5s-.2.5-.5.5z" class="criptosecurity1"/><path id="svg-ico" d="M17.1 18.8c-.3 0-.5-.2-.5-.5v-.9c0-.3.2-.5.5-.5s.5.2.5.5v.9c0 .3-.3.5-.5.5zm0-3.4c-.3 0-.5-.2-.5-.5V14c0-.3.2-.5.5-.5s.5.2.5.5v.9c0 .3-.3.5-.5.5z" class="criptosecurity1"/></svg>