<svg xmlns="http://www.w3.org/2000/svg" xml:space="preserve" id="Layer_1" x="0" y="0" version="1.1" viewBox="0 0 32 32"><style>.cryptolock0{fill:#ee5586}</style><path id="svg-ico" d="M21.3 5.4a.4.4 0 0 1-.4-.4V4a3 3 0 0 0-3-3h-3.8a3 3 0 0 0-3 3v3.4c0 .2-.2.4-.4.4s-.4-.2-.4-.4V4c0-2.1 1.7-3.8 3.8-3.8h3.8c2.1 0 3.8 1.7 3.8 3.8v1c0 .3-.2.4-.4.4z" class="cryptolock0"/><path fill="#5e686b" d="M21 32.3H11c-5 0-9.1-4.1-9.1-9.1v-5c0-5 4.1-9.1 9.1-9.1h10c5 0 9.1 4.1 9.1 9.1v5c0 5-4.1 9.1-9.1 9.1zM11 10.1a8 8 0 0 0-8.1 8.1v5a8 8 0 0 0 8.1 8.1h10a8 8 0 0 0 8.1-8.1v-5a8 8 0 0 0-8.1-8.1H11z"/><path id="svg-ico" d="M18.7 20.3c.7-.6 1.2-1.6 1.2-2.6 0-1.8-1.4-3.2-3.2-3.2h-.2V13c0-.3-.2-.5-.5-.5s-.5.2-.5.5v1.5h-1.2V13c0-.3-.2-.5-.5-.5s-.5.2-.5.5v1.5h-1.9c-.3 0-.5.2-.5.5s.2.5.5.5h1.9v10.3h-1.9c-.3 0-.5.2-.5.5s.2.5.5.5h1.9v1.5c0 .3.2.5.5.5s.5-.2.5-.5v-1.5h1.2v1.5c0 .3.2.5.5.5s.5-.2.5-.5v-1.5h1.3c1.8 0 3.2-1.4 3.2-3.2 0-1.5-1-2.8-2.3-3.3zm-2-4.8c1.2 0 2.2 1 2.2 2.2 0 1.2-1.1 2.4-2.2 2.4l-.2.1h-2.1v-4.7h2.3zm1.1 10.3h-3.4v-4.6h3.4c1.2 0 2.2 1.1 2.2 2.4 0 1.2-1 2.2-2.2 2.2z" class="cryptolock0"/></svg>