<svg xmlns="http://www.w3.org/2000/svg" xml:space="preserve" id="Layer_1" x="0" y="0" version="1.1" viewBox="0 0 32 32"><style>.cryptoset0{fill:#ee5586}.cryptoset1{fill:#5e686b}</style><path id="svg-ico" d="M21.5 17.5 16 20.7l-5.5-3.1c-.2-.1-.5-.1-.6.1-.2.2-.2.4 0 .6l5.8 7.6.1.1.2.1h.2l.1-.1.1-.1 5.7-7.7v-.6c-.1-.2-.4-.3-.6-.1zm-6 4.1v2.5l-3.4-4.4 3.4 1.9zm1 2.5v-2.5l3.4-2-3.4 4.5z" class="cryptoset0"/><path id="svg-ico" d="M9.8 15.9s0 .1 0 0c0 .1 0 .1 0 0v.1l.1.2 5.8 3.2.2.1.2-.1 5.7-3.4.1-.1.1-.1v-.4L16.4 6l-.1-.1h-.1l-.2-.1-.2.1h-.1l-.1.1-5.7 9.6v.1l-.1.2zm5.7 2.3-4.2-2.3 4.2-1.9v4.2zm1-4.2 4.1 1.8-4.1 2.4V14zm0-1.1V8.1l4 6.6-4-1.8zm-1 0-4 1.8 4-6.7v4.9z" class="cryptoset0"/><path d="M16 31.8A15.6 15.6 0 0 1 16 .6c.3 0 .5.2.5.5s-.2.5-.5.5a14.6 14.6 0 1 0 14 10.5c-.1-.3.1-.5.3-.6.3-.1.5.1.6.3a15.5 15.5 0 0 1-14.9 20z" class="cryptoset1"/><path d="M22.7 11.5h-.2a.5.5 0 0 1-.3-.5V9.4h-1.6c-1 0-1.8-.8-1.8-1.8V2c0-1 .8-1.8 1.8-1.8h9.2c1 0 1.8.8 1.8 1.8v5.7c0 1-.8 1.8-1.8 1.8h-4.4l-2.4 2h-.3zM20.6 1.2c-.4 0-.8.4-.8.8v5.7c0 .4.4.8.8.8h2.1l.4.1.1.4v1l1.7-1.4.3-.1h4.6c.4 0 .8-.4.8-.8V2c0-.4-.4-.8-.8-.8h-9.2z" class="cryptoset1"/><path id="svg-ico" d="M22.5 4.4v-2c0-.2-.2-.4-.4-.4s-.4.2-.4.4v1.9c-.4.1-.6.5-.6.9s.3.8.6.9v.5c0 .2.2.4.4.4s.4-.2.4-.4v-.4c.4-.1.6-.5.6-.9s-.2-.8-.6-.9zm3-1.3v-.7c0-.2-.2-.4-.4-.4s-.4.2-.4.4v.7c-.4.1-.6.5-.6.9s.3.8.6.9v1.8c0 .2.2.4.4.4s.4-.2.4-.4V5c.4-.1.6-.5.6-.9 0-.5-.3-.8-.6-1zm2.9 2.4V2.4c0-.2-.2-.4-.4-.4s-.4.2-.4.4v3.1c-.3.2-.6.5-.6 1 0 .6.4 1 1 1s1-.4 1-1c0-.5-.2-.8-.6-1z" class="cryptoset0"/></svg>