<svg xmlns="http://www.w3.org/2000/svg" viewBox="0 0 32 32"><path id="svg-ico" fill="#ee5586" d="M13.9 8.4a.4.4 0 0 1-.4-.5V4.3a4 4 0 0 1 8 0 2.5 2.5 0 0 0 5 0c0-1 .8-1.8 1.8-1.8a.4.4 0 0 1 0 .8 1 1 0 0 0-1 1 3.3 3.3 0 0 1-6.6 0 3.2 3.2 0 0 0-6.4 0V8c0 .3-.2.5-.4.5z"/><path fill="#5e686c" d="M8 25.2s-.2 0-.3-.2a8.3 8.3 0 0 1 2.1-11.6.4.4 0 0 1 .5.6 7.9 7.9 0 0 0-1.9 10.5.4.4 0 0 1-.3.7z"/><path fill="#5e686c" d="M14.6 31.5a11.3 11.3 0 0 1-4-21.8V8c0-.2.2-.4.4-.4h7.2c.3 0 .4.2.4.4v1.8a11.3 11.3 0 0 1-4 21.8zM11.4 8.4V10c0 .2 0 .3-.3.4a10.4 10.4 0 1 0 7 0 .4.4 0 0 1-.3-.4V8.4h-6.4z"/></svg>