<svg xmlns="http://www.w3.org/2000/svg" viewBox="0 0 32 32"><path id="svg-ico" fill="#ee5586" d="M22.5 13.6a1.4 1.4 0 1 0 0-2.8 1.4 1.4 0 0 0 0 2.8zm0-2a.6.6 0 1 1 0 1.2.6.6 0 0 1 0-1.2zm0 7.3a1.4 1.4 0 1 0 0 2.8 1.4 1.4 0 0 0 0-2.8zm0 2c-.3 0-.6-.3-.6-.6s.3-.6.6-.6a.6.6 0 0 1 0 1.2z"/><path fill="#5e686c" d="M28.4 20.7v-16c0-3-6.4-4.5-12.4-4.5S3.5 1.8 3.5 4.6v16.2c0 2.8 6.5 4.4 12.5 4.4s12.4-1.6 12.4-4.4zM4.4 6.3C6.1 8.1 11.1 9.1 16 9.1s9.7-1 11.6-2.8v6.4c0 1.7-4.8 3.6-11.6 3.6-6.9 0-11.7-2-11.7-3.6V6.3zM16 1.1C22.8 1 27.6 3 27.6 4.6c0 1.7-4.8 3.6-11.6 3.6-7 0-11.7-1.9-11.7-3.6C4.3 3 9.1 1.1 16 1.1zm0 23.2c-6.9 0-11.7-1.9-11.7-3.6v-6.3c2 1.8 7 2.7 11.7 2.7s9.7-1 11.6-2.7v6.3c0 1.7-4.8 3.6-11.6 3.6zm7.9 5.4h-6.6c-.2-.6-.6-1-1.2-1.2v-2.1c0-.2-.2-.4-.4-.4s-.4.2-.4.4v2.1c-.6.2-1 .6-1.2 1.2H7.5a.4.4 0 0 0 0 .8H14a1.7 1.7 0 0 0 3.2 0h6.6c.2 0 .4-.1.4-.4 0-.2-.2-.4-.4-.4zM15.7 31c-.5 0-.9-.4-.9-.9s.4-.8.9-.8c.4 0 .8.4.8.8s-.4.9-.8.9z"/></svg>