<svg xmlns="http://www.w3.org/2000/svg" width="32" height="32" viewBox="0 0 32 32"><path id="svg-ico" fill="#ee5586" d="M24.68 17.74a1.68 1.68 0 1 0 0 3.36 1.68 1.68 0 0 0 0-3.36zm0 2.53a.84.84 0 1 1 0-1.68.84.84 0 1 1 0 1.68z"/><path fill="#5e686c" d="M29.54 13.54H2.46c-1.12 0-2.02.84-2.02 1.86v8.05c0 1.03.9 1.86 2.02 1.86h27.08c1.12 0 2.02-.83 2.02-1.86V15.4c0-1.02-.9-1.86-2.02-1.86zm1.18 9.91c0 .56-.53 1.02-1.18 1.02H2.46c-.65 0-1.18-.45-1.18-1.02V15.4c0-.56.53-1.03 1.18-1.03h27.08c.65 0 1.18.46 1.18 1.03v8.05z"/><path id="svg-ico" fill="#ee5586" d="M24.68 4.66a1.68 1.68 0 1 0 0 3.36 1.68 1.68 0 0 0 0-3.36zm0 2.53c-.46 0-.84-.38-.84-.85s.37-.83.84-.83.85.37.85.83c0 .47-.39.85-.85.85z"/><path fill="#5e686c" d="M29.54.46H2.46C1.34.46.44 1.29.44 2.32v8.05c0 1.02.9 1.86 2.02 1.86h27.08c1.12 0 2.02-.84 2.02-1.86V2.32c0-1.03-.9-1.86-2.02-1.86zm1.18 9.9c0 .57-.53 1.03-1.18 1.03H2.46c-.65 0-1.18-.45-1.18-1.02V2.32c0-.56.53-1.03 1.18-1.03h27.08c.65 0 1.18.46 1.18 1.03v8.05zM25.99 29.8h-8.36a1.7 1.7 0 0 0-1.2-1.21V26.7a.42.42 0 0 0-.84 0v1.88c-.59.15-1.06.62-1.2 1.21H6a.42.42 0 0 0 0 .84h8.36a1.69 1.69 0 0 0 3.26 0H26a.42.42 0 0 0 0-.84zM16 31.06a.84.84 0 1 1 0-1.69.84.84 0 0 1 0 1.7z"/></svg>