<svg xmlns="http://www.w3.org/2000/svg" viewBox="0 0 32 32"><path fill="#5e686c" d="M25.62 31.57H6.58a.42.42 0 0 1-.42-.4L4.57 5a.42.42 0 1 1 .84-.05l1.57 25.79h18.25l1.56-25.8c.01-.22.22-.4.44-.39.23.02.4.22.4.45l-1.59 26.18c-.01.22-.2.4-.42.4z"/><path fill="#5e686c" d="M11.74 23a.42.42 0 0 1-.42-.36l-1.19-8.27a.42.42 0 0 1 .36-.47c.23-.04.44.13.47.36l1.19 8.26a.42.42 0 0 1-.36.47h-.05zm9.12 0h-.06a.42.42 0 0 1-.36-.48l1.2-8.26c.02-.23.24-.39.47-.36s.38.24.35.48l-1.18 8.26a.42.42 0 0 1-.42.36zm-4.55 0a.42.42 0 0 1-.42-.42v-8.26a.42.42 0 0 1 .84 0v8.26c0 .23-.19.42-.42.42z"/><path id="svg-ico" fill="#ee5586" d="M29.6 5.38H2.61a.42.42 0 0 1 0-.84H29.6a.42.42 0 0 1 0 .84z"/><path id="svg-ico" fill="#ee5586" d="M21.66 5.38a.42.42 0 0 1-.42-.42V1.42h-9.48v3.54a.42.42 0 0 1-.84 0V1c0-.23.2-.42.42-.42h10.31c.24 0 .42.2.42.42v3.97c0 .23-.18.42-.42.42z"/></svg>