<svg xmlns="http://www.w3.org/2000/svg" viewBox="0 0 32 32"><path fill="#5e686c" d="M21.5 26.38a.44.44 0 0 1-.39-.22l-4.42-7.89c-.12-.2-.04-.47.17-.59s.48-.04.6.17l4.42 7.88c.12.21.04.48-.17.6a.43.43 0 0 1-.22.05zm-11.3-.12a.44.44 0 0 1-.38-.66l4.57-7.9a.43.43 0 0 1 .6-.16c.22.12.29.39.17.6l-4.58 7.9a.44.44 0 0 1-.39.22zm16.76-9.66h-8.75c-.24 0-.44-.2-.44-.44s.2-.44.44-.44h8.75c.24 0 .43.2.43.44a.42.42 0 0 1-.43.44zm-13.09 0H5.06c-.25 0-.44-.2-.44-.44s.2-.44.44-.44h8.82c.24 0 .43.2.43.44s-.2.44-.43.44zm1.09-1.87a.44.44 0 0 1-.39-.22l-4.43-7.92c-.12-.2-.05-.47.17-.59s.47-.04.59.17l4.44 7.91c.12.22.04.48-.17.6a.42.42 0 0 1-.21.05zm1.98-.1a.46.46 0 0 1-.22-.06.44.44 0 0 1-.16-.6l4.53-7.82a.44.44 0 1 1 .75.44l-4.53 7.82a.42.42 0 0 1-.37.22zM8.65 26.26a.45.45 0 0 1-.38-.22l-4.52-7.88a.44.44 0 0 1 .76-.44l4.52 7.89c.12.2.05.47-.16.6a.59.59 0 0 1-.22.05zm11.78 1.56H11.6c-.25 0-.44-.2-.44-.44s.2-.44.44-.44h8.84c.25 0 .44.2.44.44s-.2.44-.44.44zm2.94-1.56a.46.46 0 0 1-.22-.06.44.44 0 0 1-.16-.6l4.52-7.88a.44.44 0 0 1 .76.44l-4.52 7.88a.43.43 0 0 1-.38.22zm4.51-11.44a.45.45 0 0 1-.38-.22l-4.51-7.87a.44.44 0 0 1 .76-.44l4.51 7.87a.44.44 0 0 1-.38.66zm-7.45-9.43H11.6c-.25 0-.44-.2-.44-.44s.2-.44.44-.44h8.84c.25 0 .44.2.44.44s-.2.44-.44.44zm-16.3 9.44a.46.46 0 0 1-.22-.06.44.44 0 0 1-.16-.6L8.27 6.3c.12-.2.39-.28.6-.16s.28.39.16.6l-4.52 7.88a.43.43 0 0 1-.38.22z"/><path fill="#5e686c" d="M9.47 7.13a2.62 2.62 0 1 1 0-5.25 2.62 2.62 0 0 1 0 5.25zm0-4.38c-.96 0-1.75.79-1.75 1.75s.79 1.75 1.75 1.75 1.75-.79 1.75-1.75-.79-1.75-1.75-1.75zM2.89 18.79a2.62 2.62 0 1 1 0-5.25 2.62 2.62 0 0 1 0 5.25zm0-4.38c-.96 0-1.75.79-1.75 1.75s.79 1.75 1.75 1.75 1.75-.79 1.75-1.75-.79-1.75-1.75-1.75zm6.58 16.04a2.62 2.62 0 1 1 0-5.25 2.62 2.62 0 0 1 0 5.25zm0-4.38c-.96 0-1.75.8-1.75 1.75s.79 1.75 1.75 1.75a1.75 1.75 0 0 0 0-3.5zm13.08 4.36a2.6 2.6 0 1 1 0-5.22 2.6 2.6 0 0 1 0 5.22zm0-4.34a1.73 1.73 0 1 0 0 3.47 1.73 1.73 0 0 0 0-3.47z"/><path id="svg-ico" fill="#ee5586" d="M16.04 18.79a2.62 2.62 0 1 1 0-5.25 2.62 2.62 0 0 1 0 5.25zm0-4.38c-.96 0-1.75.79-1.75 1.75s.8 1.75 1.75 1.75 1.75-.79 1.75-1.75-.78-1.75-1.75-1.75zm13.09 4.38a2.62 2.62 0 1 1 0-5.25 2.62 2.62 0 0 1 0 5.25zm0-4.38a1.75 1.75 0 0 0 0 3.5 1.75 1.75 0 0 0 0-3.5zm-6.58-7.28a2.62 2.62 0 1 1 0-5.25 2.62 2.62 0 0 1 0 5.25zm0-4.38c-.96 0-1.75.79-1.75 1.75s.79 1.75 1.75 1.75 1.75-.79 1.75-1.75-.79-1.75-1.75-1.75z"/></svg>