<svg xmlns="http://www.w3.org/2000/svg" viewBox="0 0 32 32"><path fill="#5e686c" d="M19.12 24.97H.74a.43.43 0 0 1-.42-.43V5.23c0-.24.19-.43.42-.43h18.38a.43.43 0 0 1 0 .85H1.17v18.48h17.95c.24 0 .43.18.43.42 0 .23-.2.42-.43.42z"/><path fill="#5e686c" d="M19.12 19.16H.82a.43.43 0 0 1 0-.85h18.3a.43.43 0 0 1 0 .85zm-5.73 9.32a.43.43 0 0 1-.43-.42v-3.52a.43.43 0 0 1 .85 0v3.52c0 .23-.2.42-.42.42z"/><path fill="#5e686c" d="M19.12 28.48H7.2a.43.43 0 0 1 0-.85h11.92a.42.42 0 1 1-.01.85z"/><path id="svg-ico" fill="#ee5586" d="M29.5 31.56h-8.67c-1.17 0-2.13-.78-2.13-1.74V2.18c0-.97.96-1.75 2.13-1.75h8.68c1.17 0 2.13.78 2.13 1.75v27.64c0 .96-.96 1.74-2.13 1.74zM20.84 1.27c-.7 0-1.29.42-1.29.9v27.65c0 .49.59.9 1.3.9h8.67c.7 0 1.28-.42 1.28-.9V2.17c0-.48-.58-.89-1.28-.89h-8.68z"/><path fill="#5e686c" d="M25.19 10.16c-.1 0-.22 0-.33-.02a2.54 2.54 0 1 1 .33.02zm0-4.23a1.7 1.7 0 0 0-.22 3.37 1.7 1.7 0 0 0 .43-3.36l-.22-.01z"/></svg>