<svg xmlns="http://www.w3.org/2000/svg" viewBox="0 0 32 32"><path id="svg-ico" fill="#ee5586" d="M16.25 24.8a.43.43 0 0 1-.23-.08L8.9 20a.4.4 0 0 1-.2-.35v-2.37a.42.42 0 0 1 .85 0v2.14l6.92 4.61c.2.14.24.4.12.59a.43.43 0 0 1-.35.18z"/><path id="svg-ico" fill="#ee5586" d="M11.24 17.41h-4.2a.42.42 0 0 1-.42-.42V12.8c0-.23.2-.42.42-.42h4.2c.23 0 .42.19.42.42V17c0 .22-.2.41-.42.41zm-3.78-.84h3.35v-3.35H7.46v3.35z"/><path fill="#5e686c" d="M19.8 4.65a.42.42 0 0 1-.29-.13l-3.26-3.25-3.26 3.26c-.16.16-.43.16-.59 0s-.16-.44 0-.6L15.95.38a.42.42 0 0 1 .6 0l3.55 3.55a.42.42 0 0 1-.3.72z"/><path fill="#5e686c" d="M16.25 27.16a.42.42 0 0 1-.42-.42V.68a.42.42 0 0 1 .84 0v26.06c0 .24-.19.42-.42.42z"/><path fill="#5e686c" d="M16.25 31.63a2.52 2.52 0 0 1 0-5.04 2.52 2.52 0 0 1 0 5.04zm0-4.2a1.68 1.68 0 1 0 0 3.36 1.68 1.68 0 0 0 0-3.35zm0-6.19a.41.41 0 0 1-.35-.19.42.42 0 0 1 .12-.58l6.92-4.61V13.7a.42.42 0 0 1 .84 0v2.37a.4.4 0 0 1-.2.35l-7.1 4.74a.4.4 0 0 1-.23.07z"/><path fill="#5e686c" d="M23.36 13.86a2.52 2.52 0 0 1 0-5.04 2.52 2.52 0 0 1 0 5.04zm0-4.2a1.68 1.68 0 1 0 0 3.35 1.68 1.68 0 0 0 0-3.35z"/></svg>