<svg xmlns="http://www.w3.org/2000/svg" viewBox="0 0 32 32"><path fill="#5e686c" d="M27.837 31.656c-2.087 0-3.788-1.7-3.788-3.788s1.7-3.788 3.788-3.788 3.788 1.7 3.788 3.788-1.7 3.788-3.788 3.788zm0-6.731a2.945 2.945 0 0 0 0 5.888 2.945 2.945 0 0 0 0-5.888zM4.013 31.656c-2.087 0-3.788-1.7-3.788-3.788s1.7-3.788 3.788-3.788 3.788 1.7 3.788 3.788-1.7 3.788-3.787 3.788zm0-6.731a2.945 2.945 0 0 0 0 5.888 2.945 2.945 0 0 0 2.944-2.944 2.949 2.949 0 0 0-2.944-2.944zm11.912 3.363c-2.088 0-3.787-1.7-3.787-3.788s1.7-3.788 3.787-3.788 3.788 1.7 3.788 3.788-1.7 3.788-3.787 3.788zm0-6.725a2.945 2.945 0 0 0 0 5.888 2.945 2.945 0 0 0 0-5.888z"/><path fill="#5e686c" d="M15.925 21.563a.42.42 0 0 1-.419-.419V10.519a.42.42 0 0 1 .838 0v10.625a.42.42 0 0 1-.419.419z"/><path fill="#5e686c" d="M27.837 16.337H4.012a.42.42 0 0 1 0-.838h23.831a.42.42 0 1 1-.006.838z"/><path fill="#5e686c" d="M27.837 24.925a.42.42 0 0 1-.419-.419v-8.588a.42.42 0 0 1 .838 0v8.588a.411.411 0 0 1-.419.419zm-23.824 0a.42.42 0 0 1-.419-.419v-8.588a.42.42 0 0 1 .838 0v8.588a.42.42 0 0 1-.419.419z"/><path id="svg-ico" fill="#ee5586" d="M15.925 10.931c-3.012 0-5.469-2.45-5.469-5.469s2.456-5.463 5.469-5.463 5.469 2.45 5.469 5.469-2.456 5.463-5.469 5.463zm0-10.087c-2.55 0-4.625 2.075-4.625 4.625s2.075 4.625 4.625 4.625 4.625-2.075 4.625-4.625A4.63 4.63 0 0 0 15.925.844z"/></svg>