<svg xmlns="http://www.w3.org/2000/svg" viewBox="0 0 32 32"><path fill="#5e686c" d="M31.3 11h-9.8a.4.4 0 0 1 0-.8h9.8a.4.4 0 0 1 0 .8z"/><path id="svg-ico" fill="#ee5586" d="M21.5 11h-11a.4.4 0 0 1 0-.8h11a.4.4 0 0 1 0 .8z"/><path fill="#5e686c" d="M10.5 11H.6c-.2 0-.4-.2-.4-.4s.2-.4.4-.4h9.9c.2 0 .4.1.4.4 0 .2-.2.4-.4.4z"/><path fill="#5e686c" d="M10.5 11c-.2 0-.3 0-.4-.2L5.7 2a.4.4 0 1 1 .8-.4l4.4 8.8a.4.4 0 0 1-.4.6zm11 0a.4.4 0 0 1-.4-.6l4.4-8.8c0-.2.3-.3.5-.2.2.1.3.4.2.6l-4.4 8.8-.3.2z"/><path fill="#5e686c" d="m16 30.8-.4-.2L.3 10.8a.4.4 0 0 1 0-.4l5.4-8.8.4-.2h19.8c.1 0 .2 0 .3.2l5.5 8.8c.1.1 0 .3 0 .4L16.3 30.6l-.3.2zM1 10.6l14.9 19 14.8-19-5.2-8.4H6.3l-5.2 8.4z"/><path id="svg-ico" fill="#ee5586" d="M16 30.8h-.1a.4.4 0 0 1-.3-.6L21 10.7 15.6 2a.4.4 0 1 1 .7-.4l5.5 8.8v.3l-5.4 19.8c0 .1-.2.3-.4.3z"/><path id="svg-ico" fill="#ee5586" d="M16 30.8a.4.4 0 0 1-.4-.4L10 10.7v-.4l5.5-8.7a.4.4 0 0 1 .7.4L11 10.6l5.4 19.6c0 .2 0 .5-.3.5H16z"/></svg>