<svg xmlns="http://www.w3.org/2000/svg" viewBox="0 0 32 32"><path fill="#5e686c" d="M16.24 31.63a.41.41 0 0 1-.41-.42v-8.29a.41.41 0 1 1 .82 0v8.3a.4.4 0 0 1-.41.4zm0-28.54a.41.41 0 0 1-.41-.42V1.01a.41.41 0 0 1 .82 0v1.66c0 .23-.18.42-.41.42z"/><path id="svg-ico" fill="#ee5586" d="M20.4 12.1H7.24c-.39 0-.89-.2-1.17-.46L2.73 9.02c-.2-.19-.31-.43-.31-.67s.1-.48.29-.65l3.38-2.66c.26-.24.77-.44 1.15-.44H20.4c.51 0 .93.41.93.92v5.65c0 .52-.42.93-.93.93zM7.24 5.44c-.18 0-.48.12-.6.23l-3.4 2.67 3.37 2.68c.15.14.45.25.63.25H20.4c.05 0 .1-.04.1-.09V5.52c0-.05-.05-.09-.1-.09H7.24z"/><path fill="#5e686c" d="M25.07 20.67H11.9a.93.93 0 0 1-.93-.92V14.1c0-.5.41-.92.93-.92h13.16c.38 0 .89.2 1.17.46l3.34 2.62c.2.19.3.43.3.67s-.1.48-.28.65l-3.39 2.66c-.25.23-.75.43-1.14.43zM11.9 14c-.06 0-.1.04-.1.1v5.64c0 .05.04.1.1.1h13.16c.17 0 .47-.12.6-.24l3.4-2.66-3.37-2.68a1.12 1.12 0 0 0-.63-.26H11.9z"/></svg>