<svg xmlns="http://www.w3.org/2000/svg" viewBox="0 0 32 32"><path id="svg-ico" fill="#ee5586" d="M22.32 8.48H4.37a.43.43 0 0 1-.42-.42V.68c0-.24.2-.43.42-.43s.43.2.43.42v6.95h17.09V.67a.43.43 0 0 1 .85 0v7.38a.41.41 0 0 1-.42.43zM20.5 23.53H7.69a.43.43 0 0 1 0-.85H20.5c.24 0 .42.2.42.43a.41.41 0 0 1-.42.42zm0 3.74H7.69a.43.43 0 0 1 0-.85H20.5c.24 0 .42.2.42.42a.41.41 0 0 1-.42.43z"/><path fill="#5e686c" d="M31.3 31.76H.63a.43.43 0 0 1-.43-.43V.68C.2.44.4.25.63.25h23.61c.11 0 .23.04.3.13l7.05 7.26c.08.09.12.2.12.3v23.4c0 .22-.2.42-.42.42zM1.06 30.9h29.8V8.11l-6.8-7h-23V30.9z"/></svg>