<svg xmlns="http://www.w3.org/2000/svg" viewBox="0 0 32 32"><path fill="#5e686c" d="M31.36 5.13H.64a.42.42 0 0 0-.43.43v19.02c0 .23.2.42.43.42h14.94v1.7h-1.7c-.24 0-.43.19-.43.42s.19.43.43.43h4.24c.24 0 .42-.19.42-.42s-.18-.43-.42-.43h-1.7V25h14.94c.24 0 .42-.19.42-.42V5.55a.42.42 0 0 0-.42-.43zm-.42 19.03H1.06V5.98h29.88v18.18z"/><path id="svg-ico" fill="#ee5586" d="M13.6 18a.44.44 0 0 0 .43 0l4.38-2.57c.13-.07.2-.21.2-.37s-.07-.29-.2-.37l-4.39-2.56c-.13-.08-.3-.08-.43 0s-.2.22-.2.37v5.12c0 .16.07.3.2.37zm.63-4.75 3.13 1.82-3.13 1.82v-3.64z"/></svg>