<svg xmlns="http://www.w3.org/2000/svg" viewBox="0 0 32 32"><path fill="#5e686c" d="M15.97 26.31a7.35 7.35 0 0 1-7.34-7.33.43.43 0 0 1 .86 0 6.48 6.48 0 0 0 12.95 0 .43.43 0 0 1 .86 0 7.34 7.34 0 0 1-7.33 7.33z"/><path fill="#5e686c" d="M31.32 31.68H.62a.43.43 0 0 1-.43-.43V18.97a.43.43 0 0 1 .86 0v11.86h29.84V18.98a.43.43 0 0 1 .86 0v12.27c0 .24-.2.43-.43.43z"/><path id="svg-ico" fill="#ee5586" d="M31.32 19.4H.62a.43.43 0 0 1-.43-.43V6.69c0-.23.2-.43.43-.43h8.44c.24 0 .43.2.43.43a6.48 6.48 0 0 0 12.95 0c0-.23.2-.43.43-.43h8.45c.24 0 .43.2.43.43v12.28c0 .24-.2.43-.43.43zm-30.27-.86h29.84V7.13h-7.6a7.35 7.35 0 0 1-14.65 0h-7.6v11.41z"/><path id="svg-ico" fill="#ee5586" d="M31.32 7.13a.42.42 0 0 1-.4-.29L28.72.98H3.22l-2.2 5.86c-.08.23-.33.34-.55.25s-.33-.33-.25-.55L2.52.41a.43.43 0 0 1 .4-.28h26.1c.17 0 .33.1.4.28l2.3 6.13a.43.43 0 0 1-.26.55.37.37 0 0 1-.14.04z"/></svg>