<svg xmlns="http://www.w3.org/2000/svg" viewBox="0 0 32 32"><path id="svg-ico" fill="#ee5586" d="M10.5 22.19a2.59 2.59 0 1 0 0 5.18 2.59 2.59 0 0 0 0-5.18zm0 4.32a1.73 1.73 0 0 1 0-3.45 1.73 1.73 0 0 1 0 3.45zm12.07-3.33h-6.04a.43.43 0 0 0 0 .86h6.04a.43.43 0 0 0 0-.86zm0 3.43h-6.04a.43.43 0 0 0 0 .87h6.04c.24 0 .44-.2.44-.44a.42.42 0 0 0-.44-.43z"/><path fill="#5e686c" d="M27.93 7.71c0-.15-.09-.3-.21-.37L20.68.3l-.03-.03-.03-.03-.03-.02-.01-.01-.03-.01h-.01L20.5.18l-.03-.01h-.02l-.03-.01H4.5c-.24 0-.43.2-.43.43v30.96c0 .23.2.43.43.43h23c.24 0 .43-.2.43-.43V7.7zm-7.12-6.05 5.62 5.62h-5.62V1.66zM4.9 31.14V1.04h15.03v6.67c0 .24.2.43.44.43h6.68v23H4.92z"/></svg>