<svg xmlns="http://www.w3.org/2000/svg" viewBox="0 0 32 32"><path fill="#5e686c" d="M6.45 20.13a.41.41 0 0 1-.2-.06 10.52 10.52 0 1 1 14.34-3.54.4.4 0 1 1-.7-.43A9.72 9.72 0 1 0 1.9 11.02c0 3.4 1.82 6.6 4.76 8.35a.4.4 0 0 1 .13.55.4.4 0 0 1-.34.2z"/><path fill="#5e686c" d="M6.93 16.95a.4.4 0 0 1-.38-.27 16.8 16.8 0 0 1-.93-5.66c0-5.9 2.64-10.51 6-10.51s5.99 4.62 5.99 10.52c0 1.92-.3 3.79-.85 5.42a.4.4 0 0 1-.5.25.4.4 0 0 1-.26-.52c.53-1.54.8-3.33.8-5.16 0-5.35-2.32-9.71-5.18-9.71s-5.19 4.35-5.19 9.71a16 16 0 0 0 .88 5.39.4.4 0 0 1-.38.54z"/><path fill="#5e686c" d="M11.61 7.84c-3.17 0-6.1-.89-8.28-2.5a.4.4 0 0 1-.09-.56.4.4 0 0 1 .57-.09c2 1.5 4.85 2.34 7.8 2.34s5.8-.85 7.81-2.34a.4.4 0 0 1 .56.08.4.4 0 0 1-.08.57 13.95 13.95 0 0 1-8.29 2.5zm10.12 3.91H1.5c-.23 0-.4-.18-.4-.4s.17-.4.4-.4h20.23c.23 0 .4.17.4.4s-.18.4-.4.4z"/><path fill="#5e686c" d="M11.61 16.71a.4.4 0 0 1-.4-.4V.9c0-.23.18-.4.4-.4s.4.18.4.4v15.4a.4.4 0 0 1-.4.4zm6.29 14.95a1.62 1.62 0 1 1 1.61-1.61c0 .89-.72 1.61-1.62 1.61zm0-2.42c-.45 0-.81.37-.81.81s.36.8.8.8c.45 0 .81-.36.81-.8s-.36-.8-.8-.8z"/><path fill="#5e686c" d="M17.9 29.24a.4.4 0 0 1-.41-.4v-2.41a.4.4 0 1 1 .81 0v2.41a.4.4 0 0 1-.4.4zm-1.21 1.21H9.94c-.23 0-.4-.18-.4-.4s.18-.4.4-.4h6.75c.22 0 .4.18.4.4a.4.4 0 0 1-.4.4zm9.16 0h-6.74c-.23 0-.41-.18-.41-.4s.18-.4.4-.4h6.75a.4.4 0 1 1 0 .8z"/><path id="svg-ico" fill="#ee5586" d="M24.96 22.17a1.62 1.62 0 0 1 0-3.23 1.62 1.62 0 0 1 0 3.23zm0-2.42c-.44 0-.8.36-.8.8s.36.81.8.81c.45 0 .8-.36.8-.8s-.36-.81-.8-.81z"/><path id="svg-ico" fill="#ee5586" d="M28.74 25.21H7.69c-.9 0-1.65-.68-1.65-1.52v-6.26c0-.84.74-1.52 1.65-1.52h21.05c.9 0 1.64.68 1.64 1.52v6.26c0 .83-.74 1.52-1.64 1.52zm-21.05-8.5c-.46 0-.84.33-.84.72v6.26c0 .4.37.72.84.72h21.05c.46 0 .84-.33.84-.72v-6.26c0-.4-.38-.72-.84-.72H7.69z"/></svg>