<svg xmlns="http://www.w3.org/2000/svg" viewBox="0 0 32 32"><path id="svg-ico" fill="#ee5586" d="M30.93 31.63a.4.4 0 0 1-.27-.1L12.34 16.27c-.1-.08-.15-.2-.15-.33s.06-.24.15-.32L30.66.36a.42.42 0 0 1 .69.32V31.2c0 .16-.1.31-.24.38a.31.31 0 0 1-.18.05zM13.28 15.94 30.5 30.3V1.59L13.28 15.94z"/><path fill="#5e686c" d="M19.11 31.63c-.1 0-.2-.03-.27-.1L.53 16.27c-.1-.08-.15-.2-.15-.33s.05-.24.15-.32L18.83.36c.13-.1.31-.13.46-.06.15.07.24.22.24.38v4.73a.43.43 0 0 1-.85 0V1.59L1.46 15.94 18.7 30.3v-3.82c0-.24.19-.42.42-.42s.43.18.43.42v4.73c0 .16-.1.3-.25.38a.4.4 0 0 1-.18.04z"/></svg>