<svg xmlns="http://www.w3.org/2000/svg" viewBox="0 0 32 32"><path id="svg-ico" fill="#ee5586" d="M22.67 30.31a.43.43 0 0 1-.43-.37C20.92 19.3 17.2 10.95 9.78 2a.43.43 0 0 1 .06-.6.43.43 0 0 1 .6.05c7.52 9.08 11.3 17.57 12.66 28.37a.43.43 0 0 1-.38.48h-.05z"/><path fill="#5e686c" d="M15.97 31.84a15.85 15.85 0 0 1 0-31.68 15.84 15.84 0 0 1-.01 31.68zm0-30.83a15 15 0 0 0 0 29.97c8.26 0 14.99-6.72 14.99-14.98s-6.73-14.99-15-14.99z"/><path fill="#5e686c" d="M.63 14.93a.43.43 0 0 1-.01-.86c13.94-.32 20.75-2.68 26.03-9.07.15-.18.42-.2.6-.05.19.15.21.42.06.6-5.45 6.6-12.43 9.05-26.67 9.37H.63zM5.4 27.64a.43.43 0 0 1-.36-.66c6.54-9.96 14.92-13.01 26.35-9.62.23.06.36.3.3.53s-.31.35-.54.28c-11.02-3.26-19.09-.31-25.4 9.28a.43.43 0 0 1-.35.2z"/></svg>