<svg xmlns="http://www.w3.org/2000/svg" viewBox="0 0 32 32"><path fill="#5e686c" d="M14.16 31.3a.42.42 0 0 1-.42-.41V17.54a.42.42 0 0 1 .84 0V30.9c0 .23-.19.42-.42.42z"/><path fill="#5e686c" d="M17.68 31.78h-7.04a.42.42 0 0 1 0-.84h7.04c.23 0 .41.2.41.42a.4.4 0 0 1-.41.42zm6.57-20.15a5.34 5.34 0 0 1-3.19-1.06c-.19-.14-.22-.4-.08-.59s.4-.22.58-.09c.79.58 1.71.9 2.68.9 2.53 0 4.58-2.1 4.58-4.7a4.64 4.64 0 0 0-4.58-4.68 4.64 4.64 0 0 0-4.57 4.69.42.42 0 0 1-.84 0c0-3.06 2.43-5.54 5.42-5.54s5.42 2.48 5.42 5.53a5.48 5.48 0 0 1-5.42 5.53z"/><path id="svg-ico" fill="#ee5586" d="M14.16 17.96a.42.42 0 0 1-.3-.12L2.76 6.48c-.12-.12-.15-.3-.1-.46s.23-.25.4-.25h22.2c.18 0 .33.1.4.25.06.16.03.34-.1.46l-11.1 11.36a.42.42 0 0 1-.3.12zM4.06 6.61l10.1 10.33 10.1-10.33H4.07z"/></svg>