<svg xmlns="http://www.w3.org/2000/svg" viewBox="0 0 32 32"><path fill="#5e686b" d="M27.656.469H4.343A.432.432 0 0 0 3.912.9v30.113c0 .238.194.431.431.431h23.313a.432.432 0 0 0 .431-.431V.9a.432.432 0 0 0-.431-.431zm-.431 30.112H4.775V1.331h22.456l-.006 29.25z"/><path id="svg-ico" fill="#ee5586" d="M16 22.7a6.671 6.671 0 0 0 3.563-1.025l1.925 2.887a.427.427 0 1 0 .713-.469l-1.944-2.913a6.737 6.737 0 0 0 2.481-5.219c0-3.719-3.025-6.744-6.744-6.744S9.25 12.242 9.25 15.961c.006 3.712 3.031 6.738 6.75 6.738zm0-12.631c3.244 0 5.887 2.638 5.887 5.888S19.25 21.844 16 21.844c-3.244 0-5.887-2.637-5.887-5.887S12.757 10.07 16 10.07z"/><path fill="#5e686b" d="M16 18.813c1.575 0 2.856-1.281 2.856-2.856S17.575 13.101 16 13.101s-2.856 1.281-2.856 2.856 1.281 2.856 2.856 2.856zm0-4.857c1.1 0 2 .9 2 2s-.9 2-2 2-2-.9-2-2c0-1.106.9-2 2-2z"/></svg>