<svg xmlns="http://www.w3.org/2000/svg" viewBox="0 0 32 32"><path fill="#5e686c" d="M20.525 12a.42.42 0 0 1-.294-.719l4.037-4.037c.163-.162.431-.162.594 0s.163.431 0 .594l-4.038 4.037a.395.395 0 0 1-.3.125zM7.563 24.969a.424.424 0 0 1-.294-.719l4.069-4.069c.162-.163.431-.163.594 0s.162.431 0 .594l-4.069 4.069a.446.446 0 0 1-.3.125zm16.962-.069a.42.42 0 0 1-.294-.125l-4-4c-.163-.163-.163-.431 0-.594s.431-.163.594 0l4 4a.422.422 0 0 1-.3.719zM11.631 12a.42.42 0 0 1-.294-.125L7.262 7.812c-.162-.162-.162-.431 0-.594s.431-.162.594 0l4.069 4.069a.424.424 0 0 1 0 .594.413.413 0 0 1-.294.119zM4.594 4.969a.42.42 0 0 1-.294-.125L3.194 3.738c-.163-.163-.163-.431 0-.594s.431-.163.594 0L4.894 4.25a.424.424 0 0 1-.3.719z"/><path fill="#5e686c" d="M6.081 8.55c-1.388 0-2.519-1.131-2.519-2.519s1.131-2.519 2.519-2.519S8.6 4.643 8.6 6.031A2.527 2.527 0 0 1 6.081 8.55zm0-4.2a1.675 1.675 0 1 0 0 3.35 1.675 1.675 0 0 0 0-3.35z"/><path fill="#5e686c" d="M7.563 4.969a.424.424 0 0 1-.294-.719L10.788.731c.162-.162.431-.162.594 0s.162.431 0 .594L7.863 4.844a.446.446 0 0 1-.3.125zM1.075 11.45a.424.424 0 0 1-.294-.719L4.3 7.212c.162-.162.431-.162.594 0s.162.431 0 .594l-3.519 3.525a.427.427 0 0 1-.3.119zm2.412 17.525a.42.42 0 0 1-.294-.719l1.106-1.106c.162-.163.431-.163.594 0s.162.431 0 .594L3.787 28.85a.444.444 0 0 1-.3.125z"/><path fill="#5e686c" d="M6.081 28.475c-1.388 0-2.519-1.131-2.519-2.519s1.131-2.519 2.519-2.519S8.6 24.568 8.6 25.956a2.523 2.523 0 0 1-2.519 2.519zm0-4.194a1.675 1.675 0 1 0 0 3.35 1.675 1.675 0 0 0 0-3.35z"/><path fill="#5e686c" d="M4.594 24.9a.42.42 0 0 1-.294-.125L.781 21.256c-.162-.163-.162-.431 0-.594s.431-.163.594 0l3.519 3.519a.424.424 0 0 1-.3.719zm6.487 6.481a.42.42 0 0 1-.294-.125l-3.519-3.519c-.162-.163-.162-.431 0-.594s.431-.163.594 0l3.519 3.519a.424.424 0 0 1-.3.719zM27.494 4.963a.42.42 0 0 1-.294-.719l1.106-1.106c.163-.163.431-.163.594 0s.163.431 0 .594l-1.106 1.106a.414.414 0 0 1-.3.125z"/><path fill="#5e686c" d="M26.012 8.55c-1.387 0-2.519-1.131-2.519-2.519s1.131-2.519 2.519-2.519a2.524 2.524 0 0 1 2.519 2.519 2.527 2.527 0 0 1-2.519 2.519zm0-4.2a1.675 1.675 0 1 0 1.675 1.675c0-.919-.756-1.675-1.675-1.675z"/><path fill="#5e686c" d="M31.012 11.45a.42.42 0 0 1-.294-.125L27.199 7.8c-.163-.162-.163-.431 0-.594s.431-.162.594 0l3.519 3.525a.422.422 0 0 1-.3.719zm-6.487-6.481a.42.42 0 0 1-.294-.125l-3.519-3.519c-.163-.163-.163-.431 0-.594s.431-.162.594 0l3.519 3.519a.422.422 0 0 1-.3.719zM28.6 28.975a.42.42 0 0 1-.294-.125L27.2 27.744c-.163-.163-.163-.431 0-.594s.431-.163.594 0l1.106 1.106a.422.422 0 0 1-.3.719z"/><path fill="#5e686c" d="M26.006 28.475c-1.387 0-2.519-1.131-2.519-2.519s1.131-2.519 2.519-2.519a2.52 2.52 0 0 1 0 5.038zm0-4.194a1.675 1.675 0 1 0 0 3.35 1.675 1.675 0 0 0 0-3.35z"/><path fill="#5e686c" d="M21.006 31.381a.42.42 0 0 1-.294-.719l3.519-3.519c.163-.163.431-.163.594 0s.163.431 0 .594l-3.519 3.519a.418.418 0 0 1-.3.125zm6.488-6.481a.42.42 0 0 1-.294-.719l3.519-3.519c.163-.163.431-.163.594 0s.163.431 0 .594l-3.519 3.519a.444.444 0 0 1-.3.125z"/><path id="svg-ico" fill="#ee5586" d="M16.081 22.744c-3.7 0-6.713-3.012-6.713-6.712s3.013-6.713 6.713-6.713 6.713 3.013 6.713 6.713-3.012 6.712-6.712 6.712zm0-12.588c-3.238 0-5.875 2.637-5.875 5.875s2.631 5.875 5.875 5.875 5.875-2.637 5.875-5.875c-.006-3.238-2.637-5.875-5.875-5.875z"/></svg>