<svg xmlns="http://www.w3.org/2000/svg" viewBox="0 0 32 32"><path fill="#5e686c" d="M16.25 31.45A12 12 0 0 1 7 26.5a7.67 7.67 0 0 1-1.06-7.2C8.17 13.2 15.59 1.23 15.9.73a.4.4 0 0 1 .35-.2c.13 0 .28.07.36.19.3.47 7.74 11.69 9.97 18.58a8.2 8.2 0 0 1-1.12 7.6 11.87 11.87 0 0 1-9.21 4.54zm0-29.71c-1.51 2.48-7.6 12.57-9.54 17.84-1 2.73-.03 5.01.97 6.44 1.89 2.7 5.41 4.6 8.57 4.6a11 11 0 0 0 8.53-4.2 7.4 7.4 0 0 0 1-6.86c-1.93-5.92-7.98-15.45-9.52-17.82z"/><path id="svg-ico" fill="#ee5586" d="M16.25 27.6a6.8 6.8 0 0 1-6.8-6.79.42.42 0 0 1 .84 0 5.96 5.96 0 0 0 5.96 5.96.42.42 0 0 1 0 .84z"/></svg>