<svg xmlns="http://www.w3.org/2000/svg" viewBox="0 0 32 32"><path fill="#5e686c" d="M28.07 5.72c-.16-.18-.43-.2-.62-.05s-.2.44-.05.62a14.94 14.94 0 0 1-14.72 24.2c3.1-.1 4.7-1.41 5.53-2.66 2.15-3.24.86-8.68-1.44-12.16-2.24-3.39-3.62-8.5-1.76-11.3 1.26-1.9 3.84-2.51 7.65-1.8h.02c1.06.54 2.07 1.2 2.98 1.98.18.16.46.14.62-.05s.14-.46-.05-.62A15.8 15.8 0 0 0 .2 15.94c0 8.72 7.1 15.81 15.81 15.81A15.83 15.83 0 0 0 28.07 5.73zm-27 10.22A14.94 14.94 0 0 1 19.5 1.43c-2.95.09-4.47 1.3-5.24 2.47-2.09 3.14-.7 8.55 1.76 12.26 2.18 3.3 3.31 8.38 1.44 11.2-1.34 2.02-4.11 2.71-8.03 2a14.95 14.95 0 0 1-8.37-13.42z"/><path id="svg-ico" fill="#ee5586" d="M10.87 25a2.2 2.2 0 1 0 0-4.38 2.2 2.2 0 0 0 0 4.37zm0-3.52c.72 0 1.32.59 1.32 1.31s-.6 1.32-1.32 1.32c-.73 0-1.32-.6-1.32-1.32 0-.72.6-1.31 1.32-1.31zm8.51-12.33a2.2 2.2 0 1 0 4.4 0 2.2 2.2 0 0 0-4.4 0zm3.51 0a1.32 1.32 0 1 1-2.63 0 1.32 1.32 0 1 1 2.63 0z"/></svg>