<svg xmlns="http://www.w3.org/2000/svg" viewBox="0 0 32 32"><path id="svg-ico" fill="#ee5586" d="M15.95 23.7a.43.43 0 0 1 0-.86c3.81 0 6.92-3.1 6.92-6.92 0-.23.2-.42.42-.42s.43.2.43.42a7.77 7.77 0 0 1-7.77 7.77z"/><path fill="#5e686c" d="M15.95 31.81A15.9 15.9 0 0 1 .06 15.93C.06 7.8 6.14 1.02 14.2.13c.23-.02.45.15.47.38a.42.42 0 0 1-.37.47A15 15 0 0 0 .9 15.92c0 8.29 6.75 15.04 15.04 15.04s15.04-6.75 15.04-15.04A15 15 0 0 0 17.6.98a.42.42 0 0 1-.37-.47c.02-.24.24-.4.47-.38a15.86 15.86 0 0 1 14.13 15.8A15.9 15.9 0 0 1 15.95 31.8z"/><path id="svg-ico" fill="#ee5586" d="M15.95 20.6a4.69 4.69 0 1 1 .01-9.37 4.69 4.69 0 0 1-.01 9.37zm0-8.5a3.83 3.83 0 0 0 0 7.65 3.83 3.83 0 0 0 0-7.65z"/></svg>