<svg xmlns="http://www.w3.org/2000/svg" viewBox="0 0 32 32"><path fill="#5e686c" d="M16.8 25h-1.1c-2.7-.8-8.2-2.4-8.2-9 0-6.5 4.4-11.3 8-15.2l.5-.5c.1-.2.4-.2.6 0l.5.5c3.5 3.9 8 8.7 8 15.1 0 6.7-5.6 8.3-8.2 9.1h-.1zm-1-.8h1c2.6-.8 7.4-2.3 7.4-8.3 0-6-4.3-10.8-7.7-14.5l-.2-.2-.2.2C12.6 5 8.4 9.8 8.4 15.9c0 6 4.8 7.5 7.4 8.3z"/><path id="svg-ico" fill="#ee5586" d="M16.3 31.7a.4.4 0 0 1-.5-.4V8a.4.4 0 0 1 1 0v23.3c0 .2-.3.4-.5.4z"/><path id="svg-ico" fill="#ee5586" d="M16.3 13.7c-.1 0-.2 0-.3-.2l-3-3V10c.1-.2.5-.2.6 0l3 3c.2.1.2.4 0 .5l-.3.2zm0 7.1H16a.4.4 0 0 1 0-.7l3.4-3.4c.2-.2.5-.2.6 0s.2.4 0 .6l-3.4 3.4-.3.1z"/></svg>