<svg xmlns="http://www.w3.org/2000/svg" viewBox="0 0 32 32"><path fill="#5e686b" d="M31.7 12.3 29.8 1.1a1 1 0 0 0-1-.9H3.2a1 1 0 0 0-1 .9l-2 11.3c0 1.4.7 2.8 1.9 3.7v14.7c0 .6.4 1 1 1h25.8c.5 0 1-.4 1-1V16.1a4.7 4.7 0 0 0 1.8-3.7zM24.2 31h-5.4v-9.2h5.4V31zm4.7 0H25v-9.6c0-.2-.2-.4-.5-.4h-6.2c-.3 0-.5.2-.5.4V31H3.1c-.1 0-.2 0-.2-.2V16.6H3l.6.2 1.3.3c1.4 0 2.8-.7 3.7-1.9a4.7 4.7 0 0 0 7.4 0 4.7 4.7 0 0 0 7.4 0 4.7 4.7 0 0 0 3.6 1.9c.5 0 .9-.1 1.4-.3l.5-.2h.1v14.2l-.1.2zm2-18.6a4 4 0 0 1-1.7 3.1l-.7.3-.4.2-1 .2c-1.4 0-2.7-.7-3.4-2l-.4-.2c-.2 0-.3.1-.3.3-.7 1.2-2 1.9-3.4 1.9s-2.6-.7-3.3-2c-.1-.2-.6-.2-.7 0a3.8 3.8 0 0 1-6.7 0c-.1-.2-.6-.2-.7 0A3.8 3.8 0 0 1 3.8 16l-.4-.2-.7-.3c-1-.7-1.6-1.9-1.6-3L2.9 1.3l.2-.1h25.8l.1.1 1.8 11z"/><path id="svg-ico" fill="#ee5586" d="M13.6 21H7.3c-.2 0-.4.2-.4.4v6.3c0 .2.2.4.4.4h6.3c.2 0 .4-.2.4-.4v-6.3c0-.2-.2-.4-.4-.4zm-.4 6.3H7.7v-5.5h5.5v5.5z"/></svg>