<svg xmlns="http://www.w3.org/2000/svg" viewBox="0 0 32 32"><path fill="#5e686c" d="M27.3 21.8a.42.42 0 0 1-.42-.42v-1.02c0-4.96-3.17-9.17-7.9-10.47a.43.43 0 1 1 .24-.82c5.1 1.4 8.52 5.94 8.52 11.29v1.02c0 .23-.2.43-.43.43zm-22.56 0a.42.42 0 0 1-.43-.42v-1.02c0-5.23 3.5-9.87 8.52-11.3.23-.05.46.08.53.3s-.07.47-.3.53a10.9 10.9 0 0 0-7.9 10.47v1.02c0 .23-.2.43-.42.43z"/><path id="svg-ico" fill="#ee5586" d="M12.94 8.47H6.8a.42.42 0 1 1 0-.85h6.15c.24 0 .43.19.43.42s-.2.43-.43.43zm12.32 0H19.1c-.24 0-.42-.19-.42-.43s.18-.42.42-.42h6.16c.23 0 .42.19.42.42s-.2.43-.42.43z"/><path id="svg-ico" fill="#ee5586" d="M3.7 11.44a3.4 3.4 0 1 1 .01-6.8 3.4 3.4 0 0 1 0 6.8zm0-5.95a2.55 2.55 0 1 0 .01 5.11 2.55 2.55 0 0 0 0-5.1zm24.63 5.95a3.4 3.4 0 1 1 0-6.8 3.4 3.4 0 0 1 0 6.8zm0-5.95a2.55 2.55 0 1 0 0 5.11 2.55 2.55 0 0 0 0-5.1z"/><path fill="#5e686c" d="M7.7 27.86H1.77a.42.42 0 0 1-.42-.43V21.5c0-.24.19-.43.42-.43h5.95c.23 0 .42.19.42.43v5.94c0 .24-.19.43-.42.43zM2.2 27h5.1v-5.1H2.2V27zm28.08.86h-5.94a.42.42 0 0 1-.43-.43V21.5c0-.24.19-.43.43-.43h5.94c.24 0 .43.19.43.43v5.94a.44.44 0 0 1-.43.43zM24.76 27h5.09v-5.1h-5.1V27zM19 11.44h-5.95a.42.42 0 0 1-.42-.43V5.07c0-.24.18-.43.42-.43h5.94c.24 0 .43.2.43.43V11c0 .24-.2.43-.43.43zm-5.53-.85h5.1v-5.1h-5.1v5.1z"/></svg>