<svg xmlns="http://www.w3.org/2000/svg" viewBox="0 0 32 32"><path fill="#5e686c" d="M29.6 31.9H2.4A2 2 0 0 1 .5 30V12c0-1 .9-1.8 1.9-1.8.2 0 .4.2.4.4s-.2.5-.4.5a1 1 0 0 0-1 1V30c0 .6.4 1 1 1h27.2c.6 0 1-.4 1-1V12c0-.5-.4-1-1-1-.2 0-.4-.1-.4-.4s.2-.4.4-.4c1 0 1.9.9 1.9 1.9v18c0 1-.8 1.8-1.9 1.8z"/><path fill="#5e686c" d="M1.7 31.1h-.3a.4.4 0 0 1 0-.6l10-13c.1-.1.4-.2.6 0 .2.1.2.4 0 .6L2 31l-.3.1zm28.7 0L30 31 20 18a.4.4 0 0 1 0-.5c.2-.2.5-.1.7 0l10 13v.5l-.3.1z"/><path id="svg-ico" fill="#ee5586" d="M16 21.1h-.2L2 11a.4.4 0 0 1 0-.6c0-.2.4-.2.6 0L16 20.1l13.4-9.9h.6c.2 0 0 .6-.1.7L16.3 21l-.3.1z"/><path id="svg-ico" fill="#ee5586" d="M29.6 11h-.2L16 1 2.6 11c-.1.1-.4 0-.5-.1v-.6L15.8.3h.5l13.6 10c.2.1.2.4 0 .6 0 .1-.1.2-.3.2z"/></svg>