<svg xmlns="http://www.w3.org/2000/svg" width="32" height="32" viewBox="0 0 32 32"><path fill="#5e686c" d="M1.4 26.58a.42.42 0 0 1-.34-.68l10.26-13.18a.42.42 0 0 1 .6-.08c.18.15.21.42.07.6L1.74 26.42c-.08.1-.2.16-.33.16zm29.3 0a.43.43 0 0 1-.34-.16L20.1 13.24a.42.42 0 0 1 .07-.6.42.42 0 0 1 .6.08L31.03 25.9c.14.19.1.45-.08.6a.37.37 0 0 1-.25.08z"/><path id="svg-ico" fill="#ee5586" d="M16.05 16.33a.41.41 0 0 1-.25-.08L1.89 5.99a.42.42 0 0 1-.09-.59c.14-.19.4-.23.6-.09l13.66 10.07L29.7 5.31a.43.43 0 1 1 .51.69L16.3 16.24a.41.41 0 0 1-.25.08z"/><path fill="#5e686c" d="M29.97 27.31H2.14a1.88 1.88 0 0 1-1.89-1.88V7.11a1.9 1.9 0 0 1 1.89-1.88.43.43 0 0 1 0 .85c-.58 0-1.04.46-1.04 1.04v18.32c0 .57.47 1.04 1.04 1.04h27.83c.57 0 1.04-.47 1.04-1.04V7.1c0-.57-.47-1.03-1.04-1.03a.43.43 0 0 1 0-.85c1.04 0 1.89.84 1.89 1.88v18.32c0 1.04-.85 1.88-1.9 1.88z"/><path id="svg-ico" fill="#ee5586" d="M29.97 6.08H2.14a.43.43 0 0 1 0-.85h27.83a.42.42 0 0 1 0 .85z"/></svg>