<svg xmlns="http://www.w3.org/2000/svg" viewBox="0 0 32 32"><path fill="#5e686c" d="M16.21 16.68a2.11 2.11 0 1 1 0-4.22 2.11 2.11 0 0 1 0 4.21zm0-3.4a1.27 1.27 0 1 0 0 2.55 1.27 1.27 0 0 0 0-2.54zm3.15 18.38h-6.3c-.12 0-.24-.05-.32-.15s-.12-.21-.1-.33l1.57-13.12c.03-.23.25-.4.47-.37.23.02.4.23.37.47L13.54 30.8h5.34l-1.52-12.65a.42.42 0 0 1 .84-.1l1.58 13.13a.46.46 0 0 1-.1.33.42.42 0 0 1-.32.14z"/><path id="svg-ico" fill="#ee5586" d="M27.04 22.21c-.19 0-.38-.03-.57-.1l-7.73-3.57h-4.89c-1.98.91-7.86 3.56-7.86 3.56a1.6 1.6 0 0 1-2.05-.74c-.4-.71-.25-1.6.37-2.15.1-.07 5.1-3.57 6.8-4.84l2.79-3.88.67-8.66A1.7 1.7 0 0 1 16.22.37c.8 0 1.48.58 1.64 1.41l.68 8.7 2.78 3.89c1.71 1.27 6.71 4.77 6.76 4.8.66.58.81 1.47.41 2.18-.3.54-.84.86-1.45.86zM13.76 17.7h5.08c.06 0 .12.01.17.04l7.78 3.6a.8.8 0 0 0 .25.03.8.8 0 0 0 .72-.41.9.9 0 0 0-.2-1.11c-.02 0-5.13-3.59-6.8-4.83a.29.29 0 0 1-.09-.09l-2.9-4.04a.42.42 0 0 1-.08-.24c0-.18-.45-5.8-.68-8.74-.07-.38-.4-.68-.8-.68s-.73.3-.8.72l-.68 8.72a.4.4 0 0 1-.08.23l-2.9 4.04a.42.42 0 0 1-.08.09c-1.67 1.24-6.79 4.81-6.84 4.85a.88.88 0 0 0-.16 1.07c.2.35.62.5 1 .37 0 0 6.02-2.7 7.91-3.58a.51.51 0 0 1 .17-.04z"/></svg>