<svg xmlns="http://www.w3.org/2000/svg" viewBox="0 0 32 32"><path fill="#5e686c" d="M18.13 31.75c-5.65 0-10.24-4.6-10.24-10.24V10.42C7.89 4.77 12.49.18 18.13.18c4.28 0 8.14 2.72 9.6 6.78.09.22-.03.48-.25.56s-.48-.04-.57-.26a9.38 9.38 0 0 0-8.78-6.2 9.38 9.38 0 0 0-9.37 9.37v11.08c0 5.16 4.2 9.36 9.37 9.36a9.38 9.38 0 0 0 8.78-6.19c.08-.22.34-.34.56-.26s.35.33.27.56a10.26 10.26 0 0 1-9.6 6.77z"/><path id="svg-ico" fill="#ee5586" d="M23.66 14.57H4.62c-.24 0-.43-.19-.43-.43s.2-.44.43-.44h19.04c.24 0 .43.2.43.44s-.19.43-.43.43zm0 3.66H4.62a.44.44 0 0 1 0-.87h19.04c.24 0 .43.19.43.43s-.19.44-.43.44z"/></svg>