<svg xmlns="http://www.w3.org/2000/svg" viewBox="0 0 32 32"><path fill="#5e686c" d="M16.113 25.344C7.794 25.344.938 16.9.65 16.538a.422.422 0 0 1 0-.519c.281-.363 7.031-8.806 15.463-8.806 8.319 0 15.175 8.444 15.463 8.806a.422.422 0 0 1 0 .519c-.288.363-7.144 8.806-15.462 8.806zM1.519 16.281c1.231 1.419 7.469 8.231 14.594 8.231s13.363-6.806 14.594-8.231c-1.231-1.425-7.469-8.231-14.594-8.231-7.225 0-13.381 6.8-14.594 8.231z"/><path id="svg-ico" fill="#ee5586" d="M16.113 21.025c-3.806 0-6.906-3.1-6.906-6.906s3.094-6.906 6.906-6.906c3.806 0 6.9 3.1 6.9 6.906.006 3.806-3.094 6.906-6.9 6.906zm0-12.975a6.075 6.075 0 0 0-6.069 6.069c0 3.35 2.725 6.069 6.069 6.069s6.069-2.725 6.069-6.069a6.071 6.071 0 0 0-6.069-6.069z"/><path fill="#5e686c" d="M16.113 16.694a2.584 2.584 0 0 1-2.581-2.575.42.42 0 0 1 .838 0c0 .963.781 1.744 1.744 1.744.231 0 .419.188.419.419s-.188.413-.419.413z"/></svg>