<svg xmlns="http://www.w3.org/2000/svg" viewBox="0 0 32 32"><path fill="#5e686c" d="M18.6 31.9h-6.2a.4.4 0 0 1-.4-.5v-15H9.3A.4.4 0 0 1 9 16v-4.6c0-.3.2-.4.4-.4H12V6.8c0-4.4 1.7-6.6 5-6.6h6.3a.4.4 0 0 1 0 .8H17c-3.8 0-4.3 3.3-4.3 5.8v4.6c0 .2-.2.4-.4.4H9.7v3.8h2.7c.2 0 .4.2.4.4v15h5.8c.3 0 .4.2.4.4 0 .3-.1.4-.4.4z"/><path id="svg-ico" fill="#ee5586" d="M18.6 31.9a.4.4 0 0 1-.4-.5V16c0-.2.2-.4.4-.4h4.2v-3.8h-4.2l-.3-.1a.4.4 0 0 1-.1-.3V8.8c0-1.8.8-2.5 2.9-2.5h1.7V.6c0-.2.2-.4.5-.4s.4.2.4.4v6.2c0 .2-.2.4-.4.4H21c-1.8 0-2 .5-2 1.6v2.1h4.2c.2 0 .4.2.4.5V16c0 .2-.2.4-.4.4H19v15c0 .3-.2.5-.5.5z"/></svg>