<svg xmlns="http://www.w3.org/2000/svg" viewBox="0 0 32 32"><path fill="#5e686c" d="M9.6 5.6H.7A.4.4 0 0 1 .3 5V.8C.3.5.5.3.7.3h8.9c.2 0 .4.2.4.5V5c0 .3-.2.5-.4.5zM1 4.7h8V1.2H1v3.5zm30.4 27.1H.7a.4.4 0 0 1-.4-.4v-24c0-.3.2-.5.4-.5h8.9c.2 0 .4.2.4.5v6L31.2 7h.4l.2.4v24c0 .3-.2.4-.4.4zM1 31h30V8L9.7 14.2h-.4l-.2-.4v-6h-8V31z"/><path id="svg-ico" fill="#ee5586" d="M16 25.1H9.6a.4.4 0 0 1-.4-.4v-6.4c0-.2.2-.4.4-.4H16c.3 0 .5.2.5.4v6.4c0 .2-.2.4-.5.4zm-6-.8h5.6v-5.5H10v5.5zm17 .8h-6.5a.4.4 0 0 1-.4-.4v-6.4c0-.2.2-.4.4-.4h6.4c.3 0 .5.2.5.4v6.4c0 .2-.2.4-.5.4zm-6-.8h5.5v-5.5H21v5.5z"/></svg>