<svg xmlns="http://www.w3.org/2000/svg" viewBox="0 0 32 32"><path id="svg-ico" fill="#ee5586" d="M18.4 31.4a.5.5 0 0 1-.16-.03l-2.02-.85a.42.42 0 0 1-.25-.37l-.07-2.83-.69-.7-2.8-.01a.4.4 0 0 1-.38-.26l-.83-2.02a.42.42 0 0 1 .08-.45l1.95-2.05v-.99l-1.96-1.99a.42.42 0 0 1-.1-.45l.85-2.02a.4.4 0 0 1 .38-.25l2.83-.08.7-.7.01-2.8c0-.16.1-.31.26-.37l2.02-.84a.42.42 0 0 1 .45.09l2.05 1.95h.98l2-1.97c.12-.12.3-.15.45-.09l2.02.85c.15.06.25.2.25.37l.08 2.83.7.7 2.8.02c.16 0 .31.1.37.25l.83 2.03a.4.4 0 0 1-.08.44l-1.95 2.05v.99l1.97 2c.12.11.15.3.09.44l-.85 2.02a.42.42 0 0 1-.38.26l-2.83.07-.7.7-.02 2.8a.4.4 0 0 1-.25.38l-2.03.83a.42.42 0 0 1-.45-.08l-2.05-1.96h-.98l-2 1.97a.44.44 0 0 1-.29.12zm-1.6-1.54 1.52.63 1.92-1.89a.42.42 0 0 1 .3-.12h1.31c.1 0 .2.05.29.12l1.97 1.88 1.53-.62.02-2.7a.4.4 0 0 1 .12-.3l.94-.92a.4.4 0 0 1 .28-.12l2.73-.07.63-1.51-1.9-1.93a.42.42 0 0 1-.12-.3V20.7c0-.1.05-.2.12-.29l1.88-1.97-.63-1.52-2.69-.02a.44.44 0 0 1-.3-.12l-.92-.93a.4.4 0 0 1-.12-.28l-.07-2.73-1.52-.63-1.91 1.9c-.09.07-.22.13-.3.11h-1.32c-.1 0-.2-.05-.28-.11l-1.99-1.89-1.52.63-.01 2.7a.4.4 0 0 1-.13.29l-.94.9a.4.4 0 0 1-.28.13l-2.72.07-.63 1.5 1.89 1.93c.07.07.12.18.12.3v1.31c0 .1-.05.2-.12.28l-1.88 1.98.62 1.52 2.7.02a.4.4 0 0 1 .3.13l.92.93a.4.4 0 0 1 .12.28l.07 2.74z"/><path id="svg-ico" fill="#ee5586" d="M21.2 25.09a3.7 3.7 0 0 1-3.45-2.32 3.73 3.73 0 0 1 4.9-4.88 3.72 3.72 0 0 1 2 4.9 3.75 3.75 0 0 1-3.46 2.3zm0-6.66a2.91 2.91 0 1 0-.01 5.82 2.91 2.91 0 0 0 .02-5.82z"/><path fill="#5e686b" d="M8.92 15.89H7.33a.42.42 0 0 1-.38-.25l-.82-1.83-.57-.24-1.84.75a.4.4 0 0 1-.45-.09l-1.13-1.12a.42.42 0 0 1-.09-.45l.72-1.88-.24-.57L.7 9.44a.4.4 0 0 1-.25-.38v-1.6c0-.15.09-.3.24-.37l1.84-.82.23-.58L2 3.86a.41.41 0 0 1 .1-.45L3.21 2.3a.4.4 0 0 1 .44-.1l1.88.71.58-.23.77-1.83a.4.4 0 0 1 .38-.26h1.59c.16 0 .31.1.38.24l.82 1.84.57.23 1.84-.75a.41.41 0 0 1 .45.1l1.13 1.12c.11.12.15.29.09.45l-.72 1.88.24.57 1.83.77c.16.06.26.22.26.38V9c0 .16-.1.31-.25.38l-1.84.82-.23.57.75 1.84a.4.4 0 0 1-.1.45l-1.12 1.13a.4.4 0 0 1-.44.09l-1.88-.72-.57.24-.77 1.83a.4.4 0 0 1-.38.26zm-1.32-.83h1.04l.73-1.74c.04-.1.12-.18.22-.23l.9-.37c.1-.03.2-.04.3 0l1.78.68.74-.74-.72-1.74a.4.4 0 0 1 0-.32l.37-.89a.4.4 0 0 1 .2-.22l1.75-.78V7.7l-1.73-.73a.44.44 0 0 1-.23-.22l-.37-.9a.43.43 0 0 1 0-.3l.68-1.78-.74-.74-1.75.72a.4.4 0 0 1-.31 0l-.9-.37a.4.4 0 0 1-.21-.2l-.78-1.75H7.52l-.7 1.73a.44.44 0 0 1-.23.22l-.88.37a.4.4 0 0 1-.31 0l-1.79-.67-.74.74.72 1.74a.4.4 0 0 1 0 .32l-.37.89a.4.4 0 0 1-.22.22l-1.73.77V8.8L3 9.52c.1.04.19.12.23.22l.37.88c.04.1.04.21 0 .31l-.68 1.78.74.74 1.74-.71a.4.4 0 0 1 .32 0l.89.37c.1.03.17.12.21.2l.78 1.75z"/><path fill="#5e686b" d="M8.09 10.73a2.5 2.5 0 1 1 0-5 2.5 2.5 0 0 1 0 5zm0-4.16a1.66 1.66 0 1 0 0 3.33 1.66 1.66 0 0 0 0-3.32z"/></svg>