<svg xmlns="http://www.w3.org/2000/svg" viewBox="0 0 32 32"><path fill="#5e686b" d="M16.081 7.037c-1.881 0-3.412-1.531-3.412-3.413S14.2.211 16.081.211s3.413 1.531 3.413 3.413-1.531 3.413-3.413 3.413zm0-5.968a2.567 2.567 0 0 0-2.563 2.563 2.56 2.56 0 1 0 2.563-2.563zM8.894 21.506h-.025a.422.422 0 0 1-.4-.45l.512-9.244a.424.424 0 0 1 .15-.3l3.594-3.081a.426.426 0 0 1 .556.644l-3.456 2.963-.506 9.063a.425.425 0 0 1-.425.406zm14.375 0a.425.425 0 0 1-.425-.406l-.506-9.063-3.456-2.963a.42.42 0 0 1-.044-.6.42.42 0 0 1 .6-.044l3.594 3.081a.424.424 0 0 1 .15.3l.512 9.244a.426.426 0 0 1-.4.45h-.025z"/><path id="svg-ico" fill="#ee5586" d="M21.219 24.587H10.95a.406.406 0 0 1-.331-.163c-.081-.1-.113-.231-.081-.356l2.05-9.244a.426.426 0 0 1 .831.181l-1.938 8.725h9.206l-1.938-8.725c-.05-.231.094-.456.325-.506s.456.094.506.325l2.05 9.244a.428.428 0 0 1-.412.519z"/><path fill="#5e686b" d="M18.137 31.775h-4.106a.432.432 0 0 1-.425-.387l-.4-4.081a.432.432 0 0 1 .381-.469c.231-.006.444.15.469.381l.363 3.694h3.331l.369-3.794a.436.436 0 0 1 .469-.381.428.428 0 0 1 .381.469l-.406 4.175a.428.428 0 0 1-.425.394z"/></svg>