<svg xmlns="http://www.w3.org/2000/svg" viewBox="0 0 32 32"><path fill="#5e686b" d="M29.6 5c-.2 0-.4.2-.4.4v15.4c0 .2-.2.5-.5.5H3.4a.5.5 0 0 1-.5-.5V5.4c0-.2-.2-.4-.4-.4s-.5.2-.5.4v15.4c0 .7.6 1.3 1.4 1.3h25.3c.8 0 1.4-.6 1.4-1.3V5.4c0-.2-.2-.4-.5-.4zm1.8-3.6H.8c-.3 0-.5.2-.5.4s.2.4.5.4h30.8c.2 0 .4-.1.4-.4s-.2-.4-.4-.4z"/><path id="svg-ico" fill="#ee5586" d="M12.7 9.6a.4.4 0 0 0-.5 0L6.7 14a.4.4 0 0 0 .6.7l5.1-4.3 5.2 5.1a.4.4 0 0 0 .6 0L24.7 9v3.5c0 .3.2.5.4.5s.4-.2.4-.5V8l-.1-.1h-.1v-.1h-.1c-.1 0 0 0 0 0h-4.6c-.2 0-.4.2-.4.4s.2.4.4.4h3.5l-6.2 6.2-5.2-5z"/><path fill="#5e686b" d="m22.6 30.4-6.1-3.2v-3c0-.2-.2-.4-.4-.4s-.5.2-.5.4v3l-6 3.2c-.3 0-.4.3-.3.5s.4.3.6.2l6.2-3.2 6 3.2h.3c.1 0 .3 0 .4-.2 0-.2 0-.4-.2-.5z"/></svg>