<svg xmlns="http://www.w3.org/2000/svg" viewBox="0 0 32 32"><path fill="#5e686c" d="M31.24 1.28H.68a.42.42 0 0 1 0-.84h30.56a.42.42 0 0 1 0 .84zm0 22.62H.68a.42.42 0 0 1 0-.84h30.56a.42.42 0 0 1 0 .84zm0 7.4H.68a.42.42 0 0 1 0-.84h30.56a.42.42 0 0 1 0 .84z"/><path fill="#5e686c" d="M23.19 8.82a.42.42 0 0 1-.42-.41V.87a.42.42 0 0 1 .84 0V8.4c0 .23-.2.41-.42.41zm-15.12 0a.42.42 0 0 1-.41-.42V.87a.42.42 0 0 1 .83 0V8.4c0 .23-.18.4-.42.4zm6.25 22.48a.42.42 0 0 1-.41-.42v-7.33a.42.42 0 0 1 .83 0v7.34a.4.4 0 0 1-.42.41zm14.08 0a.42.42 0 0 1-.43-.42v-7.33a.42.42 0 0 1 .84 0v7.34a.4.4 0 0 1-.42.41zm-8.2-7.37a.42.42 0 0 1-.43-.42v-7.53a.42.42 0 0 1 .84 0v7.54a.4.4 0 0 1-.42.41zm-15.7 0a.42.42 0 0 1-.43-.42v-7.53a.42.42 0 0 1 .84 0v7.54c0 .23-.19.41-.42.41z"/><path id="svg-ico" fill="#ee5586" d="M31.24 8.82H.68a.42.42 0 0 1 0-.84h30.56a.42.42 0 1 1 0 .84zm0 7.54H.68a.42.42 0 0 1 0-.84h30.56a.42.42 0 0 1 0 .84z"/><path id="svg-ico" fill="#ee5586" d="M15.54 16.36a.42.42 0 0 1-.41-.42V8.41a.42.42 0 0 1 .83 0v7.53c0 .23-.18.42-.42.42zm10.56 0a.42.42 0 0 1-.42-.42V8.41a.42.42 0 0 1 .84 0v7.53c0 .23-.19.42-.42.42z"/></svg>