<svg xmlns="http://www.w3.org/2000/svg" viewBox="0 0 32 32"><path fill="#5e686c" d="M29.12 29.98H2.95a2.81 2.81 0 0 1-2.82-2.8V12.66c0-.24.19-.43.43-.43s.42.19.42.43v14.52c0 1.07.88 1.95 1.97 1.95h26.17c1.09 0 1.97-.88 1.97-1.95V9.68c0-.24.19-.42.42-.42s.43.18.43.42v17.5c0 1.54-1.26 2.8-2.82 2.8z"/><path fill="#5e686c" d="M10.33 15.94H5.1c-2.47 0-4.04-.99-4.94-3.12a.42.42 0 0 1 .23-.56c.22-.08.47.02.55.23.77 1.82 2.02 2.6 4.15 2.6h5.23c1.4 0 1.76-.5 2.23-1.12.58-.77 1.24-1.64 3.54-1.64h13.04c.9 0 1.95-.27 1.95-2.39 0-.23.18-.42.42-.42s.42.19.42.42c0 2.67-1.51 3.24-2.79 3.24H16.11c-1.88 0-2.34.6-2.87 1.3-.51.69-1.1 1.46-2.9 1.46z"/><path id="svg-ico" fill="#ee5586" d="M.14 12.56V8.5c0-2.8.56-6.03 4.96-6.03h5.23c1.81 0 2.4.78 2.9 1.47.53.7.99 1.32 2.87 1.32h13.04c1.28 0 2.8.56 2.8 3.25v1.45h-.86V8.5c0-2.13-1.03-2.4-1.94-2.4H16.11c-2.31 0-3-.92-3.55-1.66-.47-.63-.85-1.13-2.23-1.13H5.1C2.18 3.33.98 4.83.98 8.53v4.04H.14z"/></svg>