<svg xmlns="http://www.w3.org/2000/svg" viewBox="0 0 32 32"><path fill="#5e686c" d="M16.3 19a3 3 0 1 1 0-6 3 3 0 0 1 0 6zm0-5.2c-1.2 0-2.1 1-2.1 2.2s1 2 2 2a2.1 2.1 0 0 0 0-4.2z"/><path fill="#5e686c" d="M27.8 31.8c-4.2 0-11.2-4.2-17.3-10.3C2.3 13.3-1.8 4.4 1.4 1.3a4 4 0 0 1 3-1c4.1 0 11 4 17.2 10.2 3.9 3.8 7 8 8.7 11.8 1.9 3.9 2 6.9.5 8.4a4 4 0 0 1-3 1zM4.3 1c-1 0-1.8.3-2.3.8-2.7 2.7 1.5 11.4 9.1 19 6 6 12.7 10 16.7 10 1 0 1.8-.3 2.4-.8 1.2-1.2 1-4-.6-7.4A43.4 43.4 0 0 0 21 11C15 5 8.3 1 4.3 1z"/><path id="svg-ico" fill="#ee5586" d="M4.3 31.8a4 4 0 0 1-3-1c-1.5-1.6-1.3-4.6.5-8.4a45 45 0 0 1 8.8-11.9C16.6 4.4 23.6.3 27.9.3a4 4 0 0 1 2.9 1c3 3.1-1 12-9.2 20.2-6.2 6.2-13.1 10.3-17.3 10.3zM27.9 1c-4 0-10.8 4-16.7 10-3.9 3.9-7 8-8.6 11.6C.9 26.2.7 29 1.9 30.2c.6.5 1.3.7 2.4.7 4 0 10.7-4 16.7-10 7.6-7.6 11.8-16.3 9.2-19-.5-.5-1.3-.8-2.3-.8z"/></svg>