<svg xmlns="http://www.w3.org/2000/svg" viewBox="0 0 32 32"><path fill="#5e686c" d="m11.6 9-1.9-.2s-.2 0-.3-.2v-.3l.2-1.2s0-.2.2-.2l.8-.6.1-.6-.1-.4c0-.3 0-.5.3-.6.2 0 .5.1.5.4l.2.5v.2l-.2.9c0 .1 0 .2-.2.3l-.8.5-.1.5 1.2.1 1.4-.7.9-.9a1 1 0 0 1-.2-.6c0-.2.1-.5.6-.8.6-.3 1-.8 1-.8.1-.2.4-.2.6-.1s.2.4 0 .6c0 0-.4.6-1.2 1l-.1.2.1.2.2.3-.1.3L13.5 8l-1.7 1h-.2zM4 15.3a.4.4 0 0 1 0-.8l1.6-.7h.1l1-.4.3-3 .2-.3h.2V7.3c0-.3.2-.4.4-.4s.4.1.4.4v3c0 .2 0 .3-.2.4l-.4 3c0 .2 0 .4-.2.4l-1.4.5-1.7.7h-.1zm9.6 12.1-.3-.1-1.2-1.5-1.3-.7-.4-.4-.8-1-.1-.2v-1.1l.4-.6v-.2l-.3-.2-1.2-.6h-.2l-.3-.1-1.2-1.4a.4.4 0 0 1 0-.5l-.8-.6-1 .4c-.2.1-.5 0-.6-.2 0-.2 0-.5.2-.6l1.3-.5h.4l1.2 1c.2.1.3.4.1.6l.9 1h.3l1.8 1c.2.1.3.3.2.5v.3s.2.3-.4 1v.7l1 1 1.3.7h.1l1.2 1.6c.2.2.2.5 0 .6l-.3.1zm5.2-2-.3-.1-1.1-1.1-.2-.3-.2-1.2c0-.2 0-.4.2-.5h.3l.3-.8.1-.3-.5-.5v-.3l-.2-1.2-.4-.2-1 .6h-.6l-1-1.3-.1-.3v-1.4l1.1-2.3 1-2.1v-.2l1.1-1c.2 0 .5-.6.7-1l.1-.2 2.1-1-.3-.8v-.4C21 6 21.3 5.8 21.6 6a.4.4 0 0 1 0 .8l-.7 1 .3.8c.1.2 0 .4-.1.5l-.3.2-2 1a4 4 0 0 1-.8 1.3l-1 .9-.9 2-1.1 2.3v1l.7.8 1-.5s.2-.1.4 0l.8.4c.2 0 .3.2.3.3v1.3l.6.6c.1.1.2.3.1.4l-.2.6-.4 1-.2.1H18l.2.9.7.7.7-.4a39 39 0 0 0 .7-1.7l1.6-1.6.8-1.1.6-1.4-.2-.7-.4-.5a.4.4 0 0 1 0-.5l.3-.6c.9-.9 1.1-.8 1.3-.8s.3.2.3.4l.3 1.1.5-.1v-.1c0-.2.2-.3.4-.3l1-.2a.4.4 0 1 1 .1.8l-.7.1v.1c0 .2-.1.3-.3.3l-1.2.4h-.3l-.2-.3-.3-1.1-.2.2-.2.2.3.4.4 1v.4l-.7 1.5v.1l-1 1.3-1.5 1.5-.7 1.6c0 .1-.2.3-1.2 1h-.2z"/><path fill="#5e686c" d="M15.7 28a12 12 0 1 1 0-24.3 12 12 0 0 1 0 24.2zm0-23.4a11.2 11.2 0 1 0 0 22.5 11.2 11.2 0 0 0 0-22.5z"/><path id="svg-ico" fill="#ee5586" d="M3.4 25.8c-1.4 0-2.5-.4-3-1.2-.8-1.4.5-4 3.5-7h.6c.1.2.2.5 0 .7-3 2.8-3.8 5-3.3 5.8 1 1.8 8.3.4 17-4.6 6.7-3.9 11.9-8.5 12.6-11.3V7.1c-.8-1.1-3.6-1-7.5.2-.2 0-.4 0-.5-.3 0-.2 0-.5.3-.5 4.4-1.5 7.4-1.4 8.4.2.2.4.3 1 .1 1.7-.8 3-6 7.8-13 11.9-5.4 3-11.5 5.5-15.2 5.5z"/></svg>