<svg xmlns="http://www.w3.org/2000/svg" viewBox="0 0 32 32"><path fill="#5e686b" d="M22.8 31.4V31l-5.4-19.4a3.3 3.3 0 1 0-1.8 0L10 31.1v.1a.4.4 0 0 0 .1.3h12.7zm-9.4-8.9h6.2l2.3 8.2H11l2.4-8.2zm.5-14a2.5 2.5 0 1 1 5 0 2.5 2.5 0 0 1-5 0zm2.5 3.3h.2l2.7 9.9h-5.7l2.8-9.9z"/><path id="svg-ico" fill="#ee5586" d="m11.9 13.7.3-.1V13a6.3 6.3 0 0 1 0-8.7.4.4 0 1 0-.6-.6 7 7 0 0 0 0 9.9l.3.1z"/><path id="svg-ico" fill="#ee5586" d="M9.2.7a.4.4 0 0 0-.6 0 11.1 11.1 0 0 0 0 15.9l.3.1.3-.1V16a10.3 10.3 0 0 1 0-14.7V.7zm11.3 3c-.2.2-.2.4 0 .6a6.3 6.3 0 0 1 0 8.7.4.4 0 0 0 .3.7h.2a7 7 0 0 0 0-10 .4.4 0 0 0-.5 0z"/><path id="svg-ico" fill="#ee5586" d="M24 .7a.4.4 0 1 0-.5.6 10.3 10.3 0 0 1 0 14.7.4.4 0 0 0 .3.7h.3a11.1 11.1 0 0 0 0-16z"/></svg>