<svg xmlns="http://www.w3.org/2000/svg" viewBox="0 0 32 32"><path id="svg-ico" fill="#ee5586" d="M28.2 19.4a.4.4 0 0 1 0-.8 2.6 2.6 0 1 0 0-5.2.4.4 0 0 1 0-1 3.5 3.5 0 0 1 0 7z"/><path fill="#5e686b" d="M25.1 24.5H8c-.2 0-.4-.2-.4-.4s.2-.5.4-.5h16.8V8.3H8c-.2 0-.4-.2-.4-.4s.2-.5.4-.5h17.2c.3 0 .5.2.5.5V24c0 .2-.2.4-.5.4z"/><path id="svg-ico" fill="#ee5586" d="M14 21.6a.4.4 0 0 1-.4-.6l2-10.2a.4.4 0 1 1 .8.2l-2 10.2c0 .2-.2.3-.4.3zm-5 0h-.2a.4.4 0 0 1-.3-.6l2-10.2c0-.2.3-.4.5-.3.2 0 .4.3.4.5l-2 10.2c0 .2-.3.4-.5.4zm10 0a.4.4 0 0 1-.4-.6l2-10.2a.4.4 0 1 1 .9.2l-2 10.2c0 .2-.2.4-.4.4z"/><path fill="#5e686b" d="M4.9 24.5h-4a.4.4 0 0 1-.5-.4V7.9c0-.3.2-.5.4-.5h4c.3 0 .5.2.5.5V24c0 .2-.2.4-.4.4zm-3.7-.8h3.2V8.3H1.2v15.4z"/></svg>