<svg xmlns="http://www.w3.org/2000/svg" width="32" height="32" viewBox="0 0 32 32"><path fill="#5e686b" d="M19.2 27.07a1.76 1.76 0 0 0 1.96-1.52 1.76 1.76 0 1 0-1.96 1.53zm-.65-1.84a.88.88 0 1 1 1.73.22.88.88 0 0 1-1.73-.22zm7.12 1.84a1.76 1.76 0 0 0 1.96-1.52 1.76 1.76 0 1 0-1.96 1.53zm-.65-1.84a.88.88 0 1 1 1.74.22.88.88 0 0 1-1.73-.22z"/><path fill="#5e686b" d="M31.34 13.4h-14.9V.43c0-.25-.2-.44-.44-.44s-.44.2-.44.44v12.95H.66c-.24 0-.44.2-.44.44v17.53c0 .25.2.44.44.44h30.68c.25 0 .44-.2.44-.44V13.83c0-.24-.2-.44-.44-.44zm-.43 17.52H1.1V14.27h29.8v16.65z"/><path id="svg-ico" fill="#ee5586" d="M3.84 23.04h3.94v3.94c0 .25.2.44.44.44s.44-.2.44-.44v-3.94h3.94c.25 0 .44-.2.44-.44s-.2-.44-.44-.44H8.66v-3.94c0-.25-.2-.44-.44-.44s-.44.2-.44.44v3.94H3.84a.44.44 0 0 0 0 .88z"/></svg>