<svg xmlns="http://www.w3.org/2000/svg" viewBox="0 0 32 32"><path fill="#5e686b" d="M27.63 12.97H4.38c-.24 0-.44.2-.44.44v17.96c0 .25.2.44.44.44h23.25c.25 0 .44-.2.44-.43V13.4c0-.24-.2-.43-.44-.43zm-.44 8.99H16.45v-8.11h10.74v8.1zm-11.62-8.11v8.1H4.82v-8.1h10.75zM4.82 22.84h10.74v8.1H4.82v-8.1zm11.63 8.1v-8.1h10.74v8.1H16.45z"/><path id="svg-ico" fill="#ee5586" d="M30.1 8.57h-5.42A5.2 5.2 0 0 0 20.55.22a4.96 4.96 0 0 0-4.82 3.8 4.03 4.03 0 0 0-6.66 4.55H1.92c-.24 0-.44.2-.44.44s.2.43.44.43H30.1c.24 0 .44-.2.44-.43s-.2-.44-.44-.44zM20.54 1.1a4.32 4.32 0 0 1 2.98 7.47h-7.09V5.41c0-2.46 1.77-4.31 4.12-4.31zM9.24 6.3a3.15 3.15 0 0 1 6.3 0v2.27h-5.33a3.19 3.19 0 0 1-.97-2.27z"/></svg>