<svg xmlns="http://www.w3.org/2000/svg" viewBox="0 0 32 32"><path id="svg-ico" fill="#ee5586" d="M15.6 22.8h-.2l-8.4-5a.4.4 0 0 1-.1-.7c0-.2.3-.2.5-.1l8.4 5c.2 0 .3.3.2.6l-.4.2z"/><path fill="#5e686c" d="M15.6 5.3a2.6 2.6 0 0 1 0-5.2 2.6 2.6 0 0 1 0 5.2zm0-4.3a1.7 1.7 0 0 0 0 3.5 1.7 1.7 0 0 0 0-3.5zm9 16.2a2.6 2.6 0 0 1 0-5.2 2.6 2.6 0 0 1 0 5.2zm0-4.3a1.7 1.7 0 0 0 0 3.4 1.7 1.7 0 0 0 0-3.4z"/><path id="svg-ico" fill="#ee5586" d="M7.2 12.1a2.6 2.6 0 1 1 0-5.2 2.6 2.6 0 0 1 0 5.2zm0-4.3a1.7 1.7 0 0 0 0 3.5 1.7 1.7 0 0 0 0-3.5z"/><path fill="#5e686c" d="M15.6 31.7a.4.4 0 0 1-.4-.4V5c0-.2.2-.4.4-.4s.4.2.4.4v26.3c0 .3-.2.4-.4.4z"/><path fill="#5e686c" d="M26.8 31.7H4.4c-.3 0-.5-.1-.5-.4s.2-.4.5-.4h22.4c.3 0 .5.2.5.4 0 .3-.2.4-.5.4zm-11.2-3.9-.4-.2c0-.2 0-.5.2-.6l9-6c.1-.1.4 0 .5.1.2.2.1.5 0 .6l-9 6h-.3z"/><path fill="#5e686c" d="M24.6 21.8a.4.4 0 0 1-.5-.4v-4.6a.4.4 0 0 1 .9 0v4.6c0 .2-.2.4-.4.4z"/><path id="svg-ico" fill="#ee5586" d="M7.2 17.8a.4.4 0 0 1-.4-.4v-5.6a.4.4 0 0 1 .8 0v5.6c0 .2-.1.4-.4.4z"/></svg>