<svg xmlns="http://www.w3.org/2000/svg" viewBox="0 0 32 32"><path fill="#5e686c" d="M17.9 15.53h-4.24c-.24 0-.42-.2-.42-.43s.18-.42.42-.42h4.25c.23 0 .42.18.42.42 0 .23-.19.42-.42.42zm10.66-2.41a.43.43 0 0 1-.3-.13.42.42 0 0 1 0-.6l2.55-2.55a.42.42 0 0 1 .6 0c.17.17.17.44 0 .6L28.86 13a.43.43 0 0 1-.3.13zm-25.17-.34a.43.43 0 0 1-.3-.12L.54 10.1a.42.42 0 0 1 0-.6.42.42 0 0 1 .6 0l2.55 2.55c.17.17.17.43 0 .6a.4.4 0 0 1-.3.12z"/><path id="svg-ico" fill="#ee5586" d="M7.56 24.04a6.8 6.8 0 0 1 0-13.59 6.8 6.8 0 0 1 0 13.59zm0-12.74a5.95 5.95 0 0 0 0 11.89 5.95 5.95 0 0 0 0-11.89zm16.45 12.74a6.8 6.8 0 0 1 0-13.59 6.8 6.8 0 0 1 0 13.59zm0-12.74a5.95 5.95 0 0 0 0 11.89 5.95 5.95 0 0 0 0-11.89z"/></svg>