<svg xmlns="http://www.w3.org/2000/svg" viewBox="0 0 32 32"><path id="svg-ico" fill="#ee5586" d="M16 24.6C7.2 24.6.3 21 .3 16.6v-1.2c0-4.5 7-8 15.7-8s15.7 3.5 15.7 8v1.1c0 4.5-6.9 8-15.7 8zm0-16.3c-8.2 0-14.8 3.2-14.8 7.1v1.1c0 4 6.6 7.2 14.8 7.2s14.8-3.2 14.8-7.2v-1c0-4-6.6-7.2-14.8-7.2z"/><path fill="#5e686c" d="M16 31.7A15.7 15.7 0 1 1 16 .3a15.7 15.7 0 0 1 0 31.4zm0-30.5a14.8 14.8 0 1 0 0 29.6 14.8 14.8 0 0 0 0-29.6z"/><path fill="#5e686c" d="M15.5 31.6c-4.5 0-8-6.8-8-15.6S11 .3 15.4.3c.2 0 .4.2.4.5s-.2.4-.4.4c-4 0-7.2 6.6-7.2 14.8s3.2 14.8 7.2 14.8a.4.4 0 1 1 0 .8zm1.4 0c-.3 0-.5-.2-.5-.4s.2-.5.5-.5c4 0 7.1-6.6 7.1-14.7 0-8.2-3.2-14.8-7-14.8-.3 0-.5-.2-.5-.4s.2-.5.5-.5c4.5 0 8 6.9 8 15.7s-3.5 15.6-8 15.6z"/></svg>