<svg xmlns="http://www.w3.org/2000/svg" viewBox="0 0 32 32"><path fill="#5e686b" d="M16 12.925c-1.694 0-3.075 1.381-3.075 3.075s1.381 3.075 3.075 3.075c1.694 0 3.075-1.381 3.075-3.075S17.694 12.925 16 12.925zm0 5.269A2.197 2.197 0 0 1 13.806 16c0-1.213.988-2.194 2.194-2.194 1.212 0 2.194.988 2.194 2.194A2.19 2.19 0 0 1 16 18.194z"/><path id="svg-ico" fill="#ee5586" d="M16 6.775c-5.088 0-9.225 4.138-9.225 9.225s4.138 9.225 9.225 9.225 9.225-4.137 9.225-9.225S21.088 6.775 16 6.775zm0 17.569c-4.6 0-8.344-3.744-8.344-8.344S11.4 7.65 16 7.65s8.344 3.744 8.344 8.35S20.6 24.344 16 24.344z"/><path fill="#5e686b" d="M16 .188C7.281.188.187 7.282.187 16.001S7.281 31.814 16 31.814c8.719 0 15.813-7.094 15.813-15.813S24.719.188 16 .188zm.438 30.737v-2.188c0-.244-.194-.438-.438-.438s-.438.194-.438.438v2.188c-7.888-.231-14.262-6.6-14.488-14.488h2.188c.244 0 .438-.194.438-.438s-.194-.438-.438-.438H1.074c.225-7.888 6.6-14.262 14.488-14.494v2.188c0 .244.194.438.438.438s.438-.194.438-.438V1.067c7.887.231 14.256 6.6 14.488 14.488h-2.294c-.244 0-.438.194-.438.438s.194.437.438.437h2.294c-.225 7.894-6.6 14.262-14.488 14.494z"/></svg>