<svg xmlns="http://www.w3.org/2000/svg" viewBox="0 0 32 32"><path fill="#5e686c" d="M.7 12.3c-.2 0-.3 0-.4-.2-.1-.2 0-.5.2-.6l14.9-7.7c.4-.3 1-.3 1.4 0l14.6 7.5c.2 0 .3.3.2.6-.1.2-.4.3-.6.1L16.3 4.5c-.2-.1-.3-.1-.4 0h-.1l-15 7.8zm23.1 8.1H8.4c-.6 0-1-.4-1-.9v-6.1a.4.4 0 0 1 .8 0v6.1H24V13a.4.4 0 0 1 .9 0v6.4c0 .5-.5 1-1.1 1z"/><path id="svg-ico" fill="#ee5586" d="M5 29.3a.4.4 0 0 1-.4-.5V13a.4.4 0 0 1 .8 0v16c0 .2-.2.4-.4.4z"/><path fill="#5e686c" d="M16 15.3.7 12.6a.4.4 0 0 1 .1-.9l15.3 2.8a.4.4 0 0 1 0 .8z"/><path fill="#5e686c" d="M16 15.3a.4.4 0 0 1 0-.8l15-3.3c.2 0 .5.1.5.4s0 .4-.3.5l-15.1 3.2H16z"/></svg>