<svg xmlns="http://www.w3.org/2000/svg" viewBox="0 0 32 32"><path id="svg-ico" fill="#ee5586" d="M29.43 30.19h-.08l-3.53-.66a.41.41 0 0 1-.26-.17L17.8 18.53a.41.41 0 0 1-.07-.36l3.84-13.92a.4.4 0 0 1 .38-.3.4.4 0 0 1 .4.26l3.44 8.75c.2.48-.01 1.09-.48 1.38l-1.33.82 7.53 10.48c.07.1.1.2.07.32l-.6 3.17a.42.42 0 0 1-.19.28l-1.15.71a.44.44 0 0 1-.22.07zm-3.3-1.45 3.21.6.87-.55.53-2.82-7.7-10.7c-.07-.09-.1-.2-.07-.32s.1-.21.2-.28l1.71-1.05a.36.36 0 0 0 .15-.37l-3-7.58L18.6 18.2l7.55 10.54z"/><path fill="#5e686b" d="M10.81 31.5h-1.4a.41.41 0 0 1-.28-.12l-2.4-2.34a.42.42 0 0 1-.13-.3V16.3H5.12c-.54 0-1.06-.38-1.2-.88L.4 2.54a.93.93 0 0 1 .12-.75 1 1 0 0 1 .7-.42l7.67-1a11.7 11.7 0 0 1 2.64-.01l7.66 1c.3.05.56.2.71.44.14.22.19.5.11.75L16.5 15.44c-.13.48-.65.87-1.2.87h-1.48v12.44a.4.4 0 0 1-.13.3l-2.56 2.31a.48.48 0 0 1-.3.14zm-1.22-.83h1.07l2.33-2.1V15.88c0-.23.2-.42.42-.42h1.9c.19 0 .37-.14.4-.26l3.52-12.9c-.03-.1-.08-.12-.13-.12l-7.67-1a11.24 11.24 0 0 0-2.44 0l-7.65 1a.18.18 0 0 0-.12.07l3.5 12.95c.04.12.22.26.4.26h1.9c.23 0 .42.19.42.42v12.69l2.15 2.09z"/><path id="svg-ico" fill="#ee5586" d="M10.23 8.39a2.91 2.91 0 1 1 0-5.83 2.91 2.91 0 0 1 0 5.83zm0-5a2.08 2.08 0 1 0 0 4.17 2.08 2.08 0 0 0 0-4.17z"/></svg>