<svg xmlns="http://www.w3.org/2000/svg" viewBox="0 0 32 32"><path fill="#5e686b" d="M29.27 11.93a4.04 4.04 0 0 0-3.8-1.21 4.27 4.27 0 0 0-3.29-1.44c-.55 0-1.09.1-1.6.29a4.6 4.6 0 0 0-3.03-1.1h-.12v-3.3c0-1.32-.47-2.48-1.39-3.44A4.55 4.55 0 0 0 12.64.3c-1.3 0-2.45.47-3.38 1.4s-1.4 2.07-1.4 3.38v8.63a4.73 4.73 0 0 0-5.14 1.07 4.65 4.65 0 0 0-1.4 3.38c0 1.06.32 2.03.96 2.87l6.53 8.73a4.8 4.8 0 0 0 3.83 1.9h12.22a3.7 3.7 0 0 0 3.58-2.8l1.57-6.26c.32-1.27.5-2.6.5-3.94v-3.69c0-1.17-.42-2.2-1.23-3.04zm.38 6.73c0 1.28-.16 2.53-.46 3.73l-1.57 6.26c-.15.64-.48 1.14-1 1.54s-1.1.6-1.75.6H12.64c-.6 0-1.2-.14-1.75-.42s-1.03-.67-1.4-1.14l-6.53-8.71a3.81 3.81 0 0 1-.78-2.37c0-1.09.37-2 1.14-2.77s1.67-1.16 2.75-1.16c.72 0 1.4.18 2 .54a.4.4 0 0 0 .42 0 .43.43 0 0 0 .22-.37V5.08c0-1.1.37-2 1.15-2.78s1.68-1.15 2.78-1.15c1.1 0 2.01.39 2.78 1.19a3.9 3.9 0 0 1 1.15 2.84v5.57c0 .24.19.43.42.43s.43-.2.43-.43V9.33l.12-.01c.96 0 1.79.3 2.52.94v2.4c0 .24.19.42.42.42s.43-.2.43-.42v-2.3c.4-.15.82-.23 1.25-.23 1.12 0 2 .4 2.72 1.23v3.47a.43.43 0 1 0 .85 0v-3.3c.17-.02.35-.03.52-.03.95 0 1.73.33 2.4 1.01s.98 1.5.98 2.46l.02 3.7z"/><path id="svg-ico" fill="#ee5586" d="M15.91 17.73a.42.42 0 0 0-.42.43v6.53c0 .24.18.43.42.43s.43-.19.43-.43v-6.53c0-.24-.2-.43-.43-.43zm4.55 0a.42.42 0 0 0-.43.43v6.53c0 .24.19.43.43.43s.42-.19.42-.43v-6.53c0-.24-.2-.43-.42-.43zm4.54 0a.42.42 0 0 0-.43.43v6.53c0 .24.19.43.42.43s.43-.19.43-.43v-6.53a.42.42 0 0 0-.43-.43z"/></svg>