<svg xmlns="http://www.w3.org/2000/svg" viewBox="0 0 32 32"><path fill="#5e686c" d="M25.9 21.66H6.06a.43.43 0 1 1 0-.85h19.86c.23 0 .42.18.42.42s-.2.43-.42.43z"/><path fill="#5e686c" d="M25.9 25.56a.42.42 0 0 1-.42-.42v-9.87c0-5.23-4.26-9.5-9.5-9.5a9.51 9.51 0 0 0-9.5 9.5v9.87c0 .24-.2.42-.43.42s-.43-.18-.43-.42v-9.87c0-5.7 4.65-10.35 10.35-10.35s10.35 4.65 10.35 10.35v9.87a.4.4 0 0 1-.41.42z"/><path id="svg-ico" fill="#ee5586" d="M25.24 25.63H6.71a6.39 6.39 0 0 1-6.38-6.39c0-.23.19-.42.43-.42s.42.19.42.42a5.54 5.54 0 0 0 5.53 5.54h18.53a5.54 5.54 0 0 0 5.54-5.54c0-.23.18-.42.42-.42s.42.19.42.42a6.39 6.39 0 0 1-6.38 6.39z"/></svg>