<svg xmlns="http://www.w3.org/2000/svg" viewBox="0 0 32 32"><path fill="#5e686b" d="M.76 22.31a.42.42 0 0 1-.42-.42v-3.65C.34 9.57 7.4 2.51 16.07 2.51s15.74 7.06 15.74 15.73v3.34a.42.42 0 0 1-.84 0v-3.34A14.9 14.9 0 0 0 16.08 3.36a14.9 14.9 0 0 0-14.9 14.88v3.65c0 .23-.18.42-.42.42z"/><path id="svg-ico" fill="#ee5586" d="M6.49 29.16a3.42 3.42 0 0 1-3.42-3.42V20.2a3.42 3.42 0 0 1 6.84 0v5.53a3.42 3.42 0 0 1-3.42 3.42zm0-11.53a2.58 2.58 0 0 0-2.58 2.58v5.53a2.58 2.58 0 0 0 5.15 0v-5.53a2.58 2.58 0 0 0-2.57-2.58zm19.17 11.53a3.42 3.42 0 0 1-3.42-3.42V20.2a3.42 3.42 0 0 1 6.84 0v5.53a3.42 3.42 0 0 1-3.42 3.42zm0-11.53a2.58 2.58 0 0 0-2.58 2.58v5.53a2.58 2.58 0 0 0 5.15 0v-5.53a2.57 2.57 0 0 0-2.57-2.58z"/></svg>