<svg xmlns="http://www.w3.org/2000/svg" viewBox="0 0 32 32"><path fill="#5e686c" d="M12 20.76a1.72 1.72 0 1 1 0-3.43 1.72 1.72 0 0 1 0 3.43zm0-2.57c-.48 0-.86.38-.86.86s.38.86.85.86a.86.86 0 0 0 0-1.72zm8.54 2.57a1.71 1.71 0 1 1 0-3.43 1.71 1.71 0 0 1 0 3.43zm0-2.57c-.47 0-.85.38-.85.86s.38.86.85.86a.86.86 0 0 0 0-1.72z"/><path id="svg-ico" fill="#ee5586" d="M18.5 28.79a2.15 2.15 0 1 1 0-4.3 2.15 2.15 0 0 1 0 4.3zm0-3.43a1.29 1.29 0 0 0 0 2.58 1.29 1.29 0 0 0 0-2.58z"/><path fill="#5e686c" d="M24.83 15.38a17.47 17.47 0 0 1-12.75-5.37c-.16-.2-.26-.18-.37-.02L7.1 15.2a.43.43 0 0 1-.6.04.43.43 0 0 1-.04-.6l4.57-5.2c.37-.5 1.29-.53 1.7.02.03.03 4.8 5.45 13 5.03.26-.01.44.17.45.4s-.17.44-.4.46l-.96.02zM16.37 31.8c-6.05 0-10.44-4.55-10.44-10.83a.43.43 0 0 1 .86 0c0 5.78 4.03 9.98 9.58 9.98s9.58-4.05 9.58-9.63a.43.43 0 0 1 .87 0A10.25 10.25 0 0 1 16.37 31.8z"/><path id="svg-ico" fill="#ee5586" d="M28.79 21.72h-1.71c-.93 0-1.72-.79-1.72-1.71v-6c0-.93.8-1.72 1.72-1.72h1.7c.94 0 1.72.8 1.72 1.72v6c0 .93-.79 1.7-1.71 1.7zm-1.71-8.57c-.45 0-.86.4-.86.86v6c0 .45.4.85.85.85h1.72c.45 0 .85-.4.85-.85v-6c0-.45-.4-.86-.85-.86h-1.72z"/><path id="svg-ico" fill="#ee5586" d="M20.3 27.06a.43.43 0 0 1 0-.86h1.6c.13-.01 4.05-.35 4.05-5.13a.43.43 0 0 1 .86 0c0 5.6-4.84 5.98-4.89 5.99h-1.61zM5.5 21.75H3.77c-.93 0-1.72-.79-1.72-1.73V14c0-.93.79-1.73 1.73-1.73h.51A12.17 12.17 0 0 1 16.46.2c6.7 0 12.15 5.61 12.15 12.5a.43.43 0 0 1-.87 0c0-6.42-5.06-11.65-11.29-11.65-6.2 0-11.26 5.03-11.3 11.23h.35c.93 0 1.73.79 1.73 1.72v6.04c-.01.93-.8 1.72-1.73 1.72zm-1.73-8.63a.9.9 0 0 0-.86.87v6.03c0 .45.41.87.86.87H5.5a.9.9 0 0 0 .87-.87V14a.9.9 0 0 0-.87-.87H3.77z"/></svg>