<svg xmlns="http://www.w3.org/2000/svg" viewBox="0 0 32 32"><path fill="#5e686c" d="M31 31.4H19a.4.4 0 0 1-.4-.4V19c0-.3.2-.5.4-.5h12c.3 0 .5.2.5.5v12c0 .3-.2.4-.4.4zm-11.5-.8h11.1V19.4H19.5v11.2zm-6.5.8H1a.4.4 0 0 1-.5-.4V19c0-.3.2-.5.4-.5h12c.3 0 .5.2.5.5v12c0 .3-.2.4-.4.4zm-11.7-.8h11.2V19.4H1.3v11.2zM25 16.2H7c-.3 0-.5-.2-.5-.4s.2-.5.4-.5H25a.4.4 0 0 1 0 .9z"/><path fill="#5e686c" d="M25 19.2a.4.4 0 0 1-.4-.4v-3a.4.4 0 0 1 .9 0v3c0 .2-.2.4-.4.4zm-18 0a.4.4 0 0 1-.5-.4v-3a.4.4 0 0 1 .9 0v3c0 .2-.2.4-.5.4zm9-3a.4.4 0 0 1-.4-.4V13a.4.4 0 0 1 .8 0v2.7c0 .2-.2.4-.4.4z"/><path id="svg-ico" fill="#ee5586" d="M22 13.6H10a.4.4 0 0 1-.4-.5V.7c0-.3.2-.5.4-.5h12c.3 0 .5.2.5.5V13c0 .3-.2.5-.5.5zm-11.6-1h11.2V1.2H10.4v11.6z"/></svg>