<svg xmlns="http://www.w3.org/2000/svg" viewBox="0 0 32 32"><path id="svg-ico" fill="#ee5586" d="M20.26 31.44a.43.43 0 0 1-.43-.43V18.68H12.2v12.15a.43.43 0 0 1-.86 0V18.26c0-.24.2-.43.43-.43h8.5c.23 0 .42.19.42.43V31c0 .23-.19.43-.43.43z"/><path fill="#5e686c" d="M26.68 31.69H5.36a.43.43 0 0 1-.43-.43V13.98a.43.43 0 0 1 .86 0v16.85h20.46V13.98a.43.43 0 0 1 .86 0v17.28c0 .24-.2.43-.43.43zm4.78-18.25a.41.41 0 0 1-.25-.08L16.01 2.5.83 13.36a.43.43 0 0 1-.5-.7L15.77 1.62c.15-.1.35-.1.5 0L31.7 12.67a.43.43 0 0 1-.25.78z"/></svg>