<svg xmlns="http://www.w3.org/2000/svg" viewBox="0 0 32 32"><path fill="#5e686b" d="M31.2 15.65 16.47.93a.42.42 0 0 0-.58 0L1.18 15.65a.4.4 0 0 0 .58.58L16.19 1.8 30.6 16.23a.4.4 0 0 0 .59 0 .4.4 0 0 0 0-.58z"/><path fill="#5e686b" d="M28.34 15.54a.41.41 0 0 0-.49.3l-3.59 14.4h-3.65v-5.9a.4.4 0 0 0-.4-.4h-8.03a.4.4 0 0 0-.4.4v5.9H8.1l-3.67-14.4a.41.41 0 0 0-.8.2L7.4 30.76l.02.06v.01l.04.05.03.05h.01l.04.04.01.01c.03.03.07.04.11.06h.08l.06.01h16.86l.06-.01a.33.33 0 0 0 .11-.06l.05-.04.01-.02c.02 0 .03-.03.04-.04l.03-.05v-.01l.03-.06 3.66-14.72a.42.42 0 0 0-.3-.5zM12.6 24.76h7.2v5.48h-7.2v-5.48z"/><path id="svg-ico" fill="#ee5586" d="M16.19 16.16a4.43 4.43 0 1 0-.02-8.87 4.43 4.43 0 0 0 .02 8.87zm0-8.04a3.61 3.61 0 1 1-.01 7.23 3.61 3.61 0 0 1 0-7.23z"/></svg>