<svg xmlns="http://www.w3.org/2000/svg" viewBox="0 0 32 32"><path fill="#5e686b" d="m16.22 31.88-.12-.02-11.04-3.12a.42.42 0 0 1-.3-.37L2.3.7c-.02-.12.03-.24.1-.33s.2-.13.32-.13h27.07c.12 0 .23.05.31.13s.12.21.11.33l-2.46 27.67a.43.43 0 0 1-.31.37l-11.11 3.12a.3.3 0 0 1-.1.02zM5.58 28l10.63 3 10.72-3 2.4-26.91H3.18L5.58 28z"/><path id="svg-ico" fill="#ee5586" d="M23.89 14.86H8.47a.43.43 0 0 1-.43-.4l-.71-8.1a.43.43 0 0 1 .42-.46h17c.24 0 .42.19.42.42s-.18.43-.42.43H8.22L8.85 14h15.03c.24 0 .43.19.43.42 0 .24-.2.44-.42.44z"/><path id="svg-ico" fill="#ee5586" d="M16.3 25.99c-.04 0-.16 0-.2-.02l-6.96-1.93a.43.43 0 0 1-.31-.37l-.42-5.35c-.02-.23.15-.44.39-.46s.44.16.45.4l.4 5.05 6.57 1.82 6.57-1.82.67-8.9a.43.43 0 0 1 .85.05l-.7 9.2a.43.43 0 0 1-.3.39l-6.8 1.88a.41.41 0 0 1-.22.06z"/></svg>