<svg xmlns="http://www.w3.org/2000/svg" width="32" height="32" viewBox="0 0 32 32"><path fill="#5e686b" d="M28.45 31.59H4.02a.42.42 0 0 1-.43-.43V8.76c0-.24.2-.42.43-.42h24.43c.24 0 .42.18.42.42v22.4c0 .23-.18.43-.42.43zm-24-.85h23.57V9.19H4.45v21.55z"/><path id="svg-ico" fill="#ee5586" d="M25.6 5.12H6.87c-.23 0-.42-.19-.42-.43s.19-.42.42-.42H25.6c.24 0 .42.19.42.42s-.19.43-.42.43zm-4.26-4.07H11.13c-.24 0-.43-.19-.43-.42s.19-.43.43-.43h10.2c.25 0 .43.19.43.42 0 .24-.19.43-.42.43z"/><path fill="#5e686b" d="M21.32 18.35H11.14a.42.42 0 0 1-.42-.42v-2.04c0-.24.19-.43.42-.43s.43.2.43.43v1.61h9.33v-1.61c0-.24.19-.43.42-.43s.43.19.43.43v2.03c0 .24-.19.43-.42.43z"/></svg>