<svg xmlns="http://www.w3.org/2000/svg" viewBox="0 0 32 32"><path fill="#5e686b" d="M3.65 25.01a3.39 3.39 0 1 0 0 6.78 3.39 3.39 0 0 0 0-6.78zm0 5.93a2.54 2.54 0 1 1 0-5.08 2.54 2.54 0 0 1 0 5.08zm12.37-5.93c-.78 0-1.5.27-2.08.73l-7.67-7.66a3.38 3.38 0 0 0-2.2-5.5V6.83a3.38 3.38 0 1 0-.85 0v5.75a3.38 3.38 0 1 0 2.44 6.07l7.68 7.68a3.38 3.38 0 1 0 2.69-1.32zM1.12 3.47a2.54 2.54 0 1 1 5.07 0 2.54 2.54 0 0 1-5.08 0zm0 12.46a2.54 2.54 0 1 1 4.3 1.81c0 .02-.03.03-.04.04l-.02.03a2.55 2.55 0 0 1-4.24-1.88zm14.9 15a2.54 2.54 0 1 1 0-5.07 2.54 2.54 0 0 1 0 5.08z"/><path fill="#5e686b" d="M16.02 12.55a3.38 3.38 0 1 0 .01 6.77 3.38 3.38 0 0 0 0-6.77zm0 5.92a2.54 2.54 0 1 1 0-5.08 2.54 2.54 0 0 1 0 5.08zm12.38 6.54a3.38 3.38 0 1 0 0 6.77 3.38 3.38 0 0 0 0-6.77zm0 5.93a2.54 2.54 0 1 1 0-5.08 2.54 2.54 0 0 1 0 5.08z"/><path id="svg-ico" fill="#ee5586" d="M28.4 12.55c-.77 0-1.48.26-2.04.69l-7.68-7.68a3.39 3.39 0 1 0-.6.6l7.67 7.67a3.38 3.38 0 1 0 2.65-1.28zM13.49 3.47a2.54 2.54 0 1 1 4.31 1.81l-.02.02a2.54 2.54 0 0 1-4.3-1.83zm14.91 15a2.54 2.54 0 1 1 0-5.08 2.54 2.54 0 0 1 0 5.08z"/><path fill="#5e686b" d="M28.4 6.86a3.38 3.38 0 1 0 0-6.77 3.38 3.38 0 0 0 0 6.77zm0-5.93a2.54 2.54 0 1 1 0 5.08 2.54 2.54 0 0 1 0-5.08z"/></svg>