<svg xmlns="http://www.w3.org/2000/svg" viewBox="0 0 32 32"><path fill="#5e686c" d="m14.97 28.06-.05-.01-14.25-2a.42.42 0 0 1-.36-.41V9.32A.4.4 0 0 1 .48 9l5.43-4.07a.41.41 0 0 1 .25-.08h6.78a.4.4 0 0 1 .3.13L15.26 7a.42.42 0 0 1-.59.58l-1.91-1.9H6.29L1.14 9.53v15.74l13.57 1.9 4.45-10.9a.42.42 0 0 1 .77.32l-4.57 11.2a.4.4 0 0 1-.38.26z"/><path id="svg-ico" fill="#ee5586" d="M28.2 10.76H8.87a.42.42 0 0 1 0-.84H28.2a.42.42 0 0 1 0 .84zm-13.23 6.12a.42.42 0 0 1 0-.84H28.2a.42.42 0 0 1 0 .83l-13.23.01z"/><path id="svg-ico" fill="#ee5586" d="M28.2 16.86a.42.42 0 0 1 0-.84 2.64 2.64 0 1 0 0-5.27.42.42 0 0 1 0-.83 3.47 3.47 0 0 1 0 6.94z"/></svg>