<svg xmlns="http://www.w3.org/2000/svg" viewBox="0 0 32 32"><path id="svg-ico" fill="#ee5586" d="M23.2 10.9H3.9a.4.4 0 0 1 0-.9h19.3a.4.4 0 0 1 0 .9z"/><path id="svg-ico" fill="#ee5586" d="M3.9 17a3.5 3.5 0 1 1 0-7 .4.4 0 0 1 0 .9 2.6 2.6 0 1 0 0 5.3.4.4 0 0 1 0 .8z"/><path fill="#5e686c" d="M17 28.1a.4.4 0 0 1-.3-.2L12 16.7a.4.4 0 1 1 .8-.3l4.4 10.8L31 25.3V9.6l-5.2-3.8h-6.4l-2 1.9a.4.4 0 1 1-.5-.6l2-2 .3-.1h7l5.4 4.1.2.3v16.3c0 .2-.1.4-.3.4l-14.3 2z"/><path id="svg-ico" fill="#ee5586" d="M17 17H4a.4.4 0 0 1 0-.9h13c.2 0 .4.2.4.4 0 .3-.2.5-.4.5z"/></svg>