<svg xmlns="http://www.w3.org/2000/svg" viewBox="0 0 32 32"><path fill="#5e686c" d="M16.156 29.625c-7.581 0-13.75-6.169-13.75-13.75s6.169-13.75 13.75-13.75 13.75 6.169 13.75 13.75-6.169 13.75-13.75 13.75zm0-26.669c-7.125 0-12.919 5.794-12.919 12.919s5.794 12.913 12.912 12.913c7.119 0 12.913-5.794 12.913-12.912.006-7.125-5.788-12.919-12.906-12.919z"/><path fill="#5e686c" d="M12.756 13.15a.42.42 0 0 1-.294-.125L.656 1.238C.494 1.075.494.807.656.644s.431-.162.594 0l11.8 11.794a.424.424 0 0 1 0 .594.413.413 0 0 1-.294.119z"/><path id="svg-ico" fill="#ee5586" d="M19.331 13.094a.446.446 0 0 1-.3-.125.422.422 0 0 1 0-.594L30.806.662c.163-.162.431-.162.594 0s.163.431 0 .594L19.631 12.975a.427.427 0 0 1-.3.119z"/><path fill="#5e686c" d="M.925 31.425a.424.424 0 0 1-.294-.719L12.694 18.7c.162-.163.431-.163.594 0s.162.431 0 .594L1.225 31.3a.418.418 0 0 1-.3.125zm.031-26.15a.42.42 0 0 1-.419-.419V.943a.42.42 0 0 1 .838 0v3.919a.417.417 0 0 1-.419.412z"/><path fill="#5e686c" d="M4.769 1.363H.956a.42.42 0 0 1 0-.838h3.819c.231 0 .419.188.419.419s-.194.419-.425.419zm.069 30.062H.925a.42.42 0 0 1 0-.838h3.919c.231 0 .419.188.419.419s-.194.419-.425.419z"/><path fill="#5e686c" d="M.925 31.425a.42.42 0 0 1-.419-.419v-3.819a.42.42 0 0 1 .838 0v3.819a.42.42 0 0 1-.419.419zm30.188.069a.42.42 0 0 1-.419-.419v-3.919a.42.42 0 0 1 .838 0v3.919a.42.42 0 0 1-.419.419z"/><path fill="#5e686c" d="M31.113 31.494h-3.819a.42.42 0 0 1 0-.838h3.819a.42.42 0 0 1 0 .838z"/><path id="svg-ico" fill="#ee5586" d="M31.1 1.381h-3.913a.42.42 0 0 1 0-.838h3.919a.42.42 0 0 1 .419.419.429.429 0 0 1-.425.419z"/><path id="svg-ico" fill="#ee5586" d="M31.1 5.194a.42.42 0 0 1-.419-.419V.962a.42.42 0 0 1 .838 0v3.819a.417.417 0 0 1-.419.412z"/><path fill="#5e686c" d="M31.113 31.494a.42.42 0 0 1-.294-.125L18.975 19.544c-.163-.163-.163-.431 0-.594s.431-.163.594 0l11.837 11.831a.422.422 0 0 1 0 .594.413.413 0 0 1-.294.119z"/><path id="svg-ico" fill="#ee5586" d="M16.156 20.481c-2.537 0-4.606-2.069-4.606-4.606s2.069-4.606 4.606-4.606c2.538 0 4.606 2.069 4.606 4.606s-2.069 4.606-4.606 4.606zm0-8.375c-2.075 0-3.769 1.688-3.769 3.769s1.688 3.769 3.769 3.769c2.075 0 3.769-1.688 3.769-3.769s-1.694-3.769-3.769-3.769z"/></svg>