<svg xmlns="http://www.w3.org/2000/svg" viewBox="0 0 32 32"><path fill="#5e686c" d="M31.344 16.65h-8.756c-.244 0-.438-.194-.438-.438s.194-.438.438-.438h8.756c.244 0 .438.194.438.438s-.194.438-.438.438zm-21.988 0H.775c-.244 0-.438-.194-.438-.438s.194-.438.438-.438h8.581c.244 0 .438.194.438.438s-.194.438-.438.438z"/><path fill="#5e686c" d="M28.813 31.844H3.307a2.972 2.972 0 0 1-2.969-2.969V3.369A2.972 2.972 0 0 1 3.307.4h25.506a2.972 2.972 0 0 1 2.969 2.969v25.506a2.972 2.972 0 0 1-2.969 2.969zM3.306 1.275a2.095 2.095 0 0 0-2.094 2.094v25.506c0 1.156.938 2.094 2.094 2.094h25.506a2.095 2.095 0 0 0 2.094-2.094V3.369a2.095 2.095 0 0 0-2.094-2.094H3.306z"/><path id="svg-ico" fill="#ee5586" d="M16.063 23.113c-3.85 0-6.988-3.131-6.988-6.988 0-3.85 3.131-6.988 6.988-6.988s6.988 3.131 6.988 6.988c0 3.85-3.137 6.988-6.988 6.988zm0-13.101c-3.369 0-6.113 2.744-6.113 6.113s2.744 6.113 6.113 6.113 6.113-2.744 6.113-6.113-2.744-6.113-6.113-6.113zm9.293-.125a3.056 3.056 0 1 1 0-6.113 3.056 3.056 0 0 1 0 6.113zm0-5.237c-1.206 0-2.181.981-2.181 2.181s.981 2.181 2.181 2.181c1.206 0 2.181-.981 2.181-2.181s-.981-2.181-2.181-2.181z"/></svg>