<svg xmlns="http://www.w3.org/2000/svg" viewBox="0 0 32 32"><path id="svg-ico" fill="#ee5586" d="M26.23 6.55v4.38a.48.48 0 0 0 .96 0V5.38a.48.48 0 0 0-.48-.49h-5.55a.48.48 0 0 0 0 .97h4.39l-7.05 7.12H.85a.48.48 0 0 0-.48.48V31.3c0 .27.22.48.48.48H18.7c.26 0 .48-.22.48-.48V13.66l7.04-7.11zm-8.01 24.28H1.33V13.94h16.89v16.9z"/><path fill="#5e686b" d="M31.27.24H.85a.48.48 0 0 0-.48.48v9.29a.48.48 0 0 0 .96 0V1.2H30.8v29.46h-8.17a.48.48 0 0 0 0 .96h8.65c.27 0 .49-.22.49-.48V.72a.48.48 0 0 0-.49-.48z"/></svg>