<svg xmlns="http://www.w3.org/2000/svg" viewBox="0 0 32 32"><path fill="#5e686c" d="M16.03 31.7a15.7 15.7 0 0 1 0-31.39 15.7 15.7 0 0 1 0 31.4zm0-30.54a14.86 14.86 0 0 0 0 29.7c8.2 0 14.86-6.66 14.86-14.85S24.22 1.16 16.03 1.16z"/><path fill="#5e686c" d="M16.03 11.02c-4.68 0-9.2-1.36-12.4-3.74-.19-.14-.22-.4-.09-.6s.41-.22.6-.08c3.05 2.27 7.4 3.57 11.9 3.57s8.83-1.3 11.89-3.57c.18-.14.45-.1.59.09s.1.45-.09.6c-3.2 2.37-7.72 3.73-12.4 3.73zM28.18 25.5a.41.41 0 0 1-.25-.07c-3.05-2.27-7.39-3.57-11.9-3.57s-8.83 1.3-11.89 3.57c-.19.13-.45.1-.6-.1s-.1-.45.1-.59c3.2-2.37 7.71-3.73 12.4-3.73s9.2 1.36 12.4 3.73c.18.14.22.41.08.6a.44.44 0 0 1-.34.17zm3.12-8.57H.77c-.24 0-.42-.2-.42-.43s.18-.42.42-.42h30.55c.23 0 .42.18.42.42s-.2.42-.42.42z"/><path fill="#5e686c" d="M16.03 31.7a.42.42 0 0 1-.42-.42V.74c0-.24.18-.43.42-.43s.43.19.43.43v30.54c0 .24-.2.43-.43.43z"/><path id="svg-ico" fill="#ee5586" d="M16.03 31.7c-4.89 0-8.87-7.04-8.87-15.69 0-8.65 3.98-15.7 8.87-15.7s8.87 7.05 8.87 15.7c0 8.66-3.98 15.7-8.87 15.7zm0-30.54c-4.42 0-8.02 6.67-8.02 14.85s3.6 14.85 8.02 14.85 8.02-6.66 8.02-14.85-3.6-14.85-8.02-14.85z"/></svg>