<svg xmlns="http://www.w3.org/2000/svg" viewBox="0 0 32 32"><path id="svg-ico" fill="#ee5586" d="M12.88 23H9.9a1.68 1.68 0 0 0-1.2-1.2v-2.98a.42.42 0 0 0-.84 0v2.97a1.69 1.69 0 1 0 2.05 2.05h2.96c.24 0 .42-.18.42-.41s-.18-.43-.42-.43zm-4.6 1.26a.84.84 0 1 1 0-1.7.84.84 0 0 1 0 1.7zM18.86 9.04h2.97c.15.6.61 1.06 1.2 1.21v2.98a.42.42 0 0 0 .84 0v-2.98a1.68 1.68 0 1 0-2.05-2.05h-2.98a.42.42 0 0 0-.41.42c0 .24.19.42.43.42zm4.6-1.26a.85.85 0 0 1 0 1.69.84.84 0 0 1 0-1.69z"/><path fill="#5e686b" d="M12.31 14.76a.42.42 0 0 0-.42-.42H8.95v-1.3h7.29c.23 0 .42-.2.42-.42V.84a.42.42 0 0 0-.42-.42H.8a.42.42 0 0 0-.4.42v11.78c0 .23.2.42.42.42H8.1v1.3H5.16a.42.42 0 0 0 0 .84h6.73c.23 0 .42-.2.42-.42zm3.5-13.5v7.39H1.24v-7.4H15.8zM1.24 9.49H15.8v2.71H1.24V9.5zm29.96 7.29H15.8a.42.42 0 0 0-.42.42v11.78c0 .23.19.42.42.42h7.29v1.3h-2.95a.42.42 0 0 0 0 .84h6.73a.42.42 0 0 0 0-.84H23.9v-1.3h7.29c.23 0 .42-.19.42-.42V17.21a.41.41 0 0 0-.41-.43zm-.42.84v7.4H16.21v-7.4h14.57zM16.21 28.57v-2.7h14.58v2.7H16.2z"/></svg>