<svg xmlns="http://www.w3.org/2000/svg" viewBox="0 0 32 32"><path id="svg-ico" fill="#ee5586" d="M31.38 8.5 27.5 4.64l2.84-2.84a.4.4 0 0 0 0-.57.4.4 0 0 0-.58 0l-3.12 3.12v.01L22.46 8.5l-.01.01-6.25 6.25a.4.4 0 0 0 0 .57c.08.08.18.12.3.12s.2-.04.28-.12l5.96-5.96 3.88 3.88c.08.08.18.12.29.12s.2-.04.29-.12l4.17-4.17a.4.4 0 0 0 0-.58zm-4.46 3.89-3.59-3.6 3.59-3.58 3.59 3.58-3.6 3.6z"/><path fill="#5e686b" d="M8.16 15.63a7.7 7.7 0 0 0-5.48 2.27A7.7 7.7 0 0 0 .4 23.38c0 2.08.8 4.02 2.27 5.49 1.46 1.47 3.41 2.27 5.49 2.27s4.02-.8 5.49-2.27c1.47-1.47 2.27-3.41 2.27-5.49s-.8-4.02-2.27-5.49a7.74 7.74 0 0 0-5.5-2.27zm4.91 12.66a6.9 6.9 0 0 1-11.84-4.9 6.9 6.9 0 0 1 6.94-6.95c1.86 0 3.6.73 4.9 2.04a6.91 6.91 0 0 1 0 9.81z"/></svg>