<svg xmlns="http://www.w3.org/2000/svg" viewBox="0 0 32 32"><path fill="#5e686b" d="M6.19 31.8a.39.39 0 0 1-.19-.04.43.43 0 0 1-.24-.39V.43c0-.24.2-.43.43-.43H25.8c.24 0 .43.2.43.43v30.95c0 .16-.09.3-.23.38s-.33.06-.45-.04L16 24.37 6.45 31.7a.4.4 0 0 1-.26.1zM16 23.4c.1 0 .19.03.26.09l9.12 7V.87H6.62V30.5l9.12-7.01a.4.4 0 0 1 .26-.09z"/><path id="svg-ico" fill="#ee5586" d="M22.44 5.5H9.56a.43.43 0 0 1 0-.87h12.88a.43.43 0 0 1 0 .86zm0 5.17H9.56a.43.43 0 0 1 0-.86h12.88a.43.43 0 0 1 0 .86z"/></svg>