<svg xmlns="http://www.w3.org/2000/svg" viewBox="0 0 32 32"><path id="svg-ico" fill="#ee5586" d="M16.06 5.82a4.66 4.66 0 1 0 0 9.32 4.66 4.66 0 0 0 0-9.32zm0 8.59a3.94 3.94 0 1 1 0-7.89 3.94 3.94 0 0 1 0 7.89z"/><path fill="#5e686b" d="M16.06 17.52a4.66 4.66 0 1 0 0 9.32 4.66 4.66 0 0 0 0-9.32zm0 8.59a3.94 3.94 0 1 1 0-7.89 3.94 3.94 0 0 1 0 7.89z"/><path fill="#5e686b" d="M23.58 15.43h2.92c.12 0 .23-.06.3-.15l5-7.11a.35.35 0 0 0 .08-.2V6.7c0-.2-.17-.36-.36-.36h-8V5.05c0-1.12-.91-2.03-2.03-2.03H10.62A2 2 0 0 0 8.6 5.04v1.31h-8c-.2 0-.35.16-.35.36v1.25c0 .08.02.15.06.2l5.01 7.12c.07.09.18.15.3.15H8.6v2.63l-.06-.01H.6c-.2 0-.35.16-.35.36v1.25c0 .08.02.15.06.2l5.01 7.11c.07.1.18.15.3.15H8.6v.48c0 1.12.9 2.03 2.03 2.03h10.86c1.12 0 2.03-.91 2.03-2.03v-.48h2.98c.12 0 .23-.05.3-.15l5-7.1a.35.35 0 0 0 .08-.2V18.4c0-.2-.17-.36-.36-.36h-8v-2.63h.06zM5.8 14.7.96 7.85v-.78H8.6v7.64H5.8zm2.75 11.7H5.79L.96 19.55v-.78H8.6v7.64h-.06zm14.25 1.2c0 .72-.59 1.31-1.31 1.31H10.62a1.3 1.3 0 0 1-1.3-1.31V5.04c0-.73.58-1.31 1.3-1.31H21.5c.72 0 1.31.58 1.31 1.3V27.6zm.78-20.53h7.58v.78l-4.84 6.86h-2.8V7.07h.06zm0 11.7h7.58v.78l-4.84 6.86h-2.8v-7.65h.06z"/><path id="svg-ico" fill="#ee5586" d="M16.06 8.68a1.79 1.79 0 1 0 0 3.58 1.79 1.79 0 0 0 0-3.58zm0 2.86a1.07 1.07 0 1 1 0-2.15 1.07 1.07 0 0 1 0 2.15z"/><path fill="#5e686b" d="M16.06 20.38a1.79 1.79 0 1 0 0 3.57 1.79 1.79 0 0 0 0-3.57zm0 2.86a1.07 1.07 0 1 1 0-2.15 1.07 1.07 0 0 1 0 2.15z"/></svg>