<svg xmlns="http://www.w3.org/2000/svg" viewBox="0 0 32 32"><path fill="#5e686b" d="M21.34 27.74c-.59 0-1.14-.23-1.55-.64l-.63-.62a2.18 2.18 0 0 1-.27-2.77L8.2 13c-.83.57-2.04.46-2.77-.26l-.63-.63a2.18 2.18 0 0 1 0-3.09L12.93.91a2.25 2.25 0 0 1 3.1 0l.63.63a2.19 2.19 0 0 1 .27 2.77l10.7 10.68a2.25 2.25 0 0 1 2.77.27l.63.63a2.17 2.17 0 0 1 0 3.1l-8.14 8.11c-.42.41-.97.64-1.55.64zM8.22 12.04c.11 0 .22.04.3.12l11.25 11.22a.42.42 0 0 1 0 .6 1.33 1.33 0 0 0 0 1.9l.62.63c.51.5 1.4.5 1.91 0l8.13-8.12a1.33 1.33 0 0 0 0-1.9l-.62-.63a1.37 1.37 0 0 0-1.91 0 .42.42 0 0 1-.6 0L16.07 4.63a.42.42 0 0 1 0-.6 1.34 1.34 0 0 0-.01-1.9l-.62-.62a1.37 1.37 0 0 0-1.9 0L5.38 9.63a1.34 1.34 0 0 0 0 1.9l.62.63c.5.5 1.4.5 1.9 0a.5.5 0 0 1 .31-.13z"/><path id="svg-ico" fill="#ee5586" d="M31.18 31.69H16a.42.42 0 0 1 0-.84h15.18a.42.42 0 0 1 0 .84z"/><path fill="#5e686b" d="M.78 31.66a.42.42 0 0 1-.3-.72l9.33-9.33c.16-.16.43-.16.59 0s.16.43 0 .6l-9.33 9.32a.42.42 0 0 1-.29.13z"/></svg>