<svg xmlns="http://www.w3.org/2000/svg" viewBox="0 0 32 32"><path fill="#5e686b" d="M15.95 17.06c-1 0-1.93-.21-2.57-.57L2 10.06C1.34 9.69.97 9.18.97 8.66c0-.51.36-1 1.02-1.38L13.4.85a6.07 6.07 0 0 1 5.13 0l11.4 6.43c.65.37 1.02.86 1.02 1.38 0 .51-.37 1.02-1.03 1.39l-11.39 6.44c-.64.36-1.58.57-2.57.57zm0-15.96c-.82 0-1.6.17-2.16.49L2.41 8c-.44.25-.6.52-.6.66s.16.4.6.66l11.38 6.42a5.5 5.5 0 0 0 4.32 0l11.38-6.42c.45-.26.6-.51.6-.66s-.15-.4-.6-.66L18.11 1.6a4.48 4.48 0 0 0-2.16-.49z"/><path id="svg-ico" fill="#ee5586" d="M15.95 24.63c-1.07 0-2.1-.24-2.88-.69L2.54 18c-.94-.53-1.46-1.3-1.46-2.16a.43.43 0 0 1 .85 0c0 .54.37 1.05 1.03 1.43l10.54 5.95c1.32.74 3.6.74 4.93 0l10.54-5.95c.67-.38 1.04-.88 1.04-1.43a.43.43 0 0 1 .85 0c0 .86-.52 1.63-1.46 2.16l-10.54 5.95c-.8.45-1.82.7-2.9.7z"/><path fill="#5e686b" d="M15.95 31.67a5.94 5.94 0 0 1-2.88-.69L2.54 25.03c-.94-.54-1.46-1.3-1.46-2.17a.43.43 0 0 1 .85 0c0 .55.37 1.05 1.03 1.43l10.54 5.95c1.33.75 3.6.75 4.93 0l10.54-5.95c.67-.37 1.04-.88 1.04-1.43a.43.43 0 0 1 .85 0c0 .87-.52 1.63-1.46 2.17l-10.54 5.95a6 6 0 0 1-2.9.69z"/></svg>