<svg xmlns="http://www.w3.org/2000/svg" width="32" height="32" viewBox="0 0 32 32"><path fill="#5e686c" d="M15.66 30.81a.4.4 0 0 1-.17-.03.48.48 0 0 1-.13-.1.36.36 0 0 1-.08-.1v-.02c-.7-1.58-3.73-2.06-4.84-2.11H1.47a.42.42 0 0 1-.42-.42V2.48c0-.23.19-.42.42-.42h9.94c.16 0 3.04.16 4.2 1.64 1.08-1.48 4.14-1.63 4.3-1.64h1.43a.42.42 0 0 1 0 .84h-1.41c-.02 0-3.84.22-3.84 1.94a.42.42 0 0 1-.1.28.4.4 0 0 1-.16.11.33.33 0 0 1-.14.03c-.05 0-.1 0-.15-.02a.47.47 0 0 1-.15-.08.4.4 0 0 1-.11-.15l-.04-.12c-.23-1.77-3.82-1.99-3.86-1.99h-9.5v24.7h8.58c.18.01 3.75.2 5.2 2 1.45-1.8 5.02-1.99 5.2-2h8.58V2.9h-3.35a.42.42 0 0 1 0-.84h3.77c.23 0 .42.19.42.42v25.55c0 .23-.19.42-.42.42h-9c-.01 0-3.98.2-4.81 2.11l-.08.13a.35.35 0 0 1-.13.08c-.06.03-.1.05-.18.04z"/><path id="svg-ico" fill="#ee5586" d="M26.07 12.04a.4.4 0 0 1-.26-.09l-2.1-1.68-2.1 1.68c-.13.1-.3.12-.45.05s-.23-.22-.23-.38V2.48a.42.42 0 0 1 .83 0v8.27l1.68-1.35a.41.41 0 0 1 .53 0l1.68 1.35V2.01c0-.08.08-.46-.14-.72-.15-.19-.44-.28-.86-.28h-2.84c-.07 0-.72-.1-1.13.23-.2.17-.32.43-.33.8-.02.22-.22.42-.45.39a.42.42 0 0 1-.4-.45c.04-.6.26-1.08.66-1.4.7-.56 1.68-.42 1.72-.4l2.78-.01c.68 0 1.2.2 1.5.6.47.55.34 1.24.33 1.32v9.54c0 .16-.09.3-.23.38a.47.47 0 0 1-.18.03z"/><path fill="#5e686c" d="M15.66 31.76a.42.42 0 0 1-.42-.42V4.84a.42.42 0 0 1 .84 0v26.5c0 .23-.19.42-.42.42z"/></svg>