<svg xmlns="http://www.w3.org/2000/svg" viewBox="0 0 32 32"><path id="svg-ico" fill="#ee5586" d="M24.13 8.94a.43.43 0 0 1-.42-.43 7.49 7.49 0 0 0-14.97 0 .43.43 0 0 1-.85 0 8.34 8.34 0 0 1 16.67 0c0 .23-.2.43-.43.43z"/><path id="svg-ico" fill="#ee5586" d="M8.31 20.95a.43.43 0 0 1-.42-.42V8.5a.43.43 0 0 1 .85 0v12.01c0 .24-.19.43-.43.43zm15.82 0a.43.43 0 0 1-.42-.42V8.5a.43.43 0 0 1 .85 0v12.01c0 .24-.2.43-.43.43z"/><path fill="#5e686c" d="M12.38 31.69a.43.43 0 0 1-.43-.43V20.52a.43.43 0 0 1 .85 0v10.74c0 .23-.19.43-.42.43zm7.69 0a.43.43 0 0 1-.43-.43V20.52a.43.43 0 0 1 .85 0v10.74a.42.42 0 0 1-.42.43z"/><path fill="#5e686c" d="M26.7 20.95H5.32a.43.43 0 0 1 0-.85H26.7a.43.43 0 0 1 0 .85zm-6.63-4.49h-7.7a.43.43 0 0 1 0-.85h7.7a.43.43 0 0 1 0 .85z"/></svg>