<svg xmlns="http://www.w3.org/2000/svg" viewBox="0 0 32 32"><path fill="#5e686b" d="M5.16 25.03a4.54 4.54 0 0 1-3.97-2.29l-.23-.4a4.57 4.57 0 0 1 1.68-6.25l10.48-6.05a4.58 4.58 0 0 1 6.25 1.67l.23.4a4.57 4.57 0 0 1-1.68 6.24l-.93.55c-.2.12-.46.05-.58-.15s-.05-.47.16-.58l.93-.54a3.72 3.72 0 0 0 1.36-5.08l-.23-.41a3.73 3.73 0 0 0-5.09-1.36L3.06 16.83a3.73 3.73 0 0 0-1.37 5.09l.23.4A3.72 3.72 0 0 0 7 23.7l2.34-1.35c.2-.12.46-.05.57.15.12.2.05.47-.15.58l-2.33 1.34c-.7.4-1.49.62-2.28.62z"/><path id="svg-ico" fill="#ee5586" d="M16.63 23.46a4.54 4.54 0 0 1-3.96-2.29l-.23-.4a4.57 4.57 0 0 1 1.67-6.24l.93-.54c.2-.11.47-.05.58.16.12.2.05.46-.16.58l-.92.53a3.73 3.73 0 0 0-1.37 5.08l.23.41a3.72 3.72 0 0 0 5.1 1.36l10.47-6.05a3.72 3.72 0 0 0 1.37-5.08l-.23-.4a3.73 3.73 0 0 0-5.09-1.37l-2.35 1.35a.42.42 0 0 1-.57-.15.42.42 0 0 1 .15-.58l2.35-1.35a4.58 4.58 0 0 1 6.24 1.67l.23.4a4.56 4.56 0 0 1-1.68 6.24l-10.48 6.06c-.71.4-1.5.61-2.28.61z"/></svg>