<svg xmlns="http://www.w3.org/2000/svg" viewBox="0 0 32 32"><path id="svg-ico" fill="#ee5586" d="M6.47 31.5H.76a.42.42 0 0 1-.43-.42V8.28c0-.24.19-.43.43-.43h5.7c.25 0 .43.19.43.42v22.81c0 .24-.19.43-.42.43zm-5.29-.84h4.86V8.7H1.18v21.96z"/><path fill="#5e686b" d="M31.19 31.53H25.5a.42.42 0 0 1-.42-.42V17.78c-.05-.2-1.26-3.24-3.42-3.38a7.6 7.6 0 0 0-.87-.06 4.38 4.38 0 0 0-4.39 3.44v13.3c0 .24-.19.43-.42.43h-5.71a.42.42 0 0 1-.43-.43V8.28c0-.24.2-.43.43-.43h5.7c.24 0 .43.19.43.42v2.77a10.24 10.24 0 0 1 7.19-3.2c6.66.1 7.83 5.23 8.02 7.44V31.1c0 .24-.18.43-.42.43zm-5.27-.85h4.84V15.32c-.2-2.42-1.43-6.55-7.17-6.62-3.92.07-6.15 2.46-6.99 3.36-.21.23-.31.34-.43.4-.13.06-.29.05-.41-.02s-.2-.22-.2-.37V8.7h-4.87v21.96h4.87V17.78c0-.5 1.1-4.29 5.24-4.29.3 0 .63.03.95.07 2.73.18 4.09 3.68 4.17 4.15v12.97z"/><path id="svg-ico" fill="#ee5586" d="M3.61 6.5a2.97 2.97 0 1 1 0-5.95 2.97 2.97 0 0 1 0 5.94zm0-5.1a2.12 2.12 0 1 0 0 4.25 2.12 2.12 0 0 0 0-4.24z"/></svg>