<svg xmlns="http://www.w3.org/2000/svg" viewBox="0 0 32 32"><path id="svg-ico" fill="#ee5586" d="M13.45 9.06a2.17 2.17 0 1 1 .01-4.35 2.17 2.17 0 0 1-.01 4.35zm0-3.47a1.3 1.3 0 1 0 0 2.6c.72 0 1.3-.59 1.3-1.3s-.58-1.3-1.3-1.3zm2.62 21.31c-3.01 0-5.46-2.99-5.46-6.67s2.45-6.67 5.46-6.67 5.46 2.99 5.46 6.67c0 3.68-2.45 6.68-5.46 6.68zm0-12.47c-2.54 0-4.6 2.6-4.6 5.8s2.07 5.8 4.6 5.8 4.6-2.6 4.6-5.8c0-3.2-2.06-5.8-4.6-5.8zm2.62-5.37a2.17 2.17 0 1 1 0-4.34 2.17 2.17 0 0 1 0 4.34zm0-3.47a1.3 1.3 0 1 0 0 2.6 1.3 1.3 0 0 0 0-2.6zm-2.62 6.48a.4.4 0 0 1-.19-.04l-2.62-1.24c-.22-.1-.31-.37-.2-.58s.36-.31.58-.21l2.43 1.15L18.52 10c.2-.1.47-.01.58.2.1.23 0 .48-.2.58l-2.63 1.24a.37.37 0 0 1-.2.05z"/><path fill="#5e686b" d="M16.16 31.94c-4.92 0-9.12-3.12-11.05-8.17a8.86 8.86 0 0 1-2.62.54c-.7 0-1.19-.22-1.43-.68C.41 22.4 2 20 4.64 16.16c2.23-3.23 4.76-6.9 4.76-9v-.27a6.68 6.68 0 0 1 13.35 0v.3c0 2.25 2.54 5.9 4.77 9.11 2.57 3.7 4.1 6.02 3.46 7.25-.45.87-1.72.94-4.14.21-1.72 5.06-5.78 8.18-10.68 8.18zm-10.8-9.15c.19 0 .36.11.42.29 1.74 4.92 5.71 7.98 10.38 7.98 4.65 0 8.47-3.05 9.99-7.97.03-.11.11-.2.21-.26a.4.4 0 0 1 .33-.02c1.2.39 2.13.59 2.76.59.29 0 .65-.05.75-.25.44-.82-1.6-3.76-3.4-6.35-2.3-3.32-4.93-7.09-4.93-9.6v-.3a5.81 5.81 0 0 0-11.6 0v.26c0 2.39-2.5 6-4.92 9.5-1.76 2.56-3.96 5.75-3.53 6.58.1.17.42.21.67.21.6 0 1.52-.21 2.73-.63l.15-.03z"/></svg>