<svg xmlns="http://www.w3.org/2000/svg" viewBox="0 0 32 32"><path fill="#5e686c" d="M15.04 6.33a1.66 1.66 0 0 1 0-3.32 1.66 1.66 0 0 1 0 3.32zm0-2.49a.82.82 0 1 0 0 1.65.82.82 0 0 0 0-1.65zm4.5 11.82a.41.41 0 0 1-.38-.59c.27-.55.4-1.17.4-1.8 0-2-1.27-3.61-2.83-3.61s-2.84 1.61-2.84 3.6c0 .64.14 1.27.4 1.81.09.21 0 .45-.2.55a.42.42 0 0 1-.56-.2 5.2 5.2 0 0 1-.46-2.16c0-2.44 1.64-4.43 3.65-4.43s3.66 1.98 3.66 4.43c0 .76-.16 1.5-.46 2.17a.41.41 0 0 1-.38.23z"/><path fill="#5e686c" d="M18.41 6.33a1.66 1.66 0 1 1 0-3.32 1.66 1.66 0 0 1 0 3.32zm0-2.49a.82.82 0 1 0 0 1.65.82.82 0 0 0 0-1.65zm-1.68 4.3a.42.42 0 0 1-.18-.04l-1.69-.8c-.2-.1-.3-.34-.2-.55s.35-.3.56-.2l1.51.73 1.51-.72c.2-.1.45-.02.55.19s.02.45-.2.55l-1.68.8a.53.53 0 0 1-.19.04z"/><path fill="#5e686c" d="M7.3 15.74a.41.41 0 0 1-.37-.22c-.45-.86.54-2.37 2.32-4.95 1.43-2.07 3.04-4.4 3.04-5.73v-.17a4.44 4.44 0 0 1 8.87 0v.2c0 1.4 1.62 3.73 3.05 5.79 1.72 2.46 2.66 3.9 2.27 4.77-.1.2-.34.3-.55.2a.42.42 0 0 1-.21-.55c.22-.49-1.18-2.49-2.19-3.95-1.57-2.26-3.2-4.6-3.2-6.26v-.2a3.61 3.61 0 0 0-7.21 0v.17c0 1.58-1.62 3.93-3.19 6.2-1 1.45-2.5 3.63-2.26 4.1.1.2.02.45-.18.56a.58.58 0 0 1-.2.04zm8.68 16.07c-.91 0-1.66-.74-1.66-1.65a1.66 1.66 0 1 1 1.66 1.65zm0-2.48a.82.82 0 0 0-.82.83.83.83 0 1 0 1.65 0 .82.82 0 0 0-.83-.83z"/><path fill="#5e686c" d="M15.98 29.33a.41.41 0 0 1-.41-.41v-2.48c0-.23.19-.42.41-.42s.41.2.41.42v2.48c0 .22-.18.41-.4.41zm-1.24 1.24H7.82a.41.41 0 0 1 0-.83h6.92c.23 0 .41.2.41.42a.4.4 0 0 1-.41.4zm9.4 0h-6.92a.41.41 0 0 1 0-.83h6.92c.23 0 .41.2.41.42a.4.4 0 0 1-.41.4z"/><path id="svg-ico" fill="#ee5586" d="M23.45 21.73a1.66 1.66 0 1 1 0-3.32 1.66 1.66 0 0 1 0 3.32zm0-2.48a.82.82 0 1 0 0 1.65.82.82 0 0 0 0-1.65z"/><path id="svg-ico" fill="#ee5586" d="M27.63 25.2H4.32c-.99 0-1.8-.75-1.8-1.66V16.6c0-.9.81-1.65 1.8-1.65h23.3c.98 0 1.78.74 1.78 1.65v6.93c0 .91-.8 1.65-1.78 1.65zm-23.3-9.41c-.53 0-.96.37-.96.82v6.93c0 .45.43.83.96.83h23.3c.53 0 .96-.37.96-.83V16.6c0-.45-.43-.82-.97-.82H4.34z"/></svg>