<svg xmlns="http://www.w3.org/2000/svg" width="32" height="32" viewBox="0 0 32 32"><path fill="#5e686c" d="M12.82 9.14a.46.46 0 0 1-.46-.43c-.18-2.55-2.62-4.55-5.54-4.55a.46.46 0 0 1 0-.91c3.4 0 6.24 2.37 6.46 5.4a.46.46 0 0 1-.43.5l-.03-.01z"/><path fill="#5e686c" d="M3.4 14.99a.65.65 0 0 1-.66-.64l-.15-.94A5.53 5.53 0 0 1 .36 9.03c0-3.2 2.9-5.79 6.47-5.79.26 0 .46.21.46.46 0 .26-.2.46-.46.46-3.06 0-5.55 2.18-5.55 4.87 0 1.45.73 2.81 2 3.75.1.06.17.18.19.3l.14.87.87-.37c.1-.05.22-.05.33-.02 1.07.37 2.27.43 3.37.2a.46.46 0 0 1 .2.9c-1.2.25-2.51.2-3.7-.16l-1 .43a.67.67 0 0 1-.27.06z"/><path id="svg-ico" fill="#ee5586" d="M26.22 28.8a.88.88 0 0 1-.43-.13l-2.08-.88c-1.37.44-2.8.67-4.24.67-6.77 0-12.28-4.9-12.28-10.94s5.5-10.94 12.28-10.94c6.77 0 12.28 4.9 12.28 10.94 0 3.24-1.59 6.28-4.37 8.37l-.34 2.14c0 .4-.36.76-.82.76zm-2.49-1.96c.06 0 .13 0 .18.03l2.25.97.35-2.28a.47.47 0 0 1 .18-.3 9.58 9.58 0 0 0 4.14-7.74c0-5.52-5.1-10.01-11.36-10.01S8.1 12 8.1 17.52s5.1 10.02 11.36 10.02a12.78 12.78 0 0 0 4.26-.7z"/><path fill="#5e686c" d="M24.56 14.99H13.83c-.25 0-.45-.2-.45-.46s.2-.45.45-.45h10.73c.26 0 .46.2.46.45s-.2.46-.46.46zm0 3.19H13.83c-.25 0-.45-.2-.45-.45s.2-.46.45-.46h10.73c.26 0 .46.2.46.46s-.2.45-.46.45zm0 3.13H13.83a.45.45 0 0 1-.45-.45c0-.26.2-.46.45-.46h10.73c.26 0 .46.2.46.46 0 .25-.2.45-.46.45z"/></svg>