<svg xmlns="http://www.w3.org/2000/svg" viewBox="0 0 32 32"><path id="svg-ico" fill="#ee5586" d="M16.05 31.66c-5.65 0-11.66-1.29-11.66-3.67 0-2.04 4.16-3 6.64-3.37.24-.04.45.12.49.35s-.13.45-.36.5c-4.37.67-5.92 1.77-5.92 2.52 0 1.33 4.62 2.82 10.8 2.82 6.14 0 10.72-1.49 10.72-2.82 0-.7-1.56-1.73-4.98-2.34a.43.43 0 0 1 .15-.84c3.6.64 5.68 1.8 5.68 3.18 0 2.38-5.95 3.66-11.56 3.66z"/><path fill="#5e686b" d="M16.05 25.94a.44.44 0 0 1-.35-.18c-.35-.5-8.55-12.06-8.55-16.72 0-4.8 3.95-8.7 8.8-8.7 4.83 0 8.9 3.98 8.9 8.7 0 4.65-8.1 16.23-8.45 16.72a.42.42 0 0 1-.35.18zm-.1-24.75A7.91 7.91 0 0 0 8 9.04c0 3.87 6.46 13.43 8.04 15.73C17.62 22.47 24 12.9 24 9.04c0-4.25-3.69-7.85-8.05-7.85z"/><path fill="#5e686b" d="M16 13.57a4.23 4.23 0 1 1 0-8.47 4.23 4.23 0 0 1 0 8.47zm0-7.62a3.39 3.39 0 0 0 0 6.76 3.39 3.39 0 0 0 0-6.76z"/></svg>