<svg xmlns="http://www.w3.org/2000/svg" viewBox="0 0 32 32"><path fill="#5e686b" d="M16 31.813c-6.348 0-11.512-5.164-11.512-11.512S9.652 8.789 16 8.789c6.348 0 11.512 5.164 11.512 11.512S22.348 31.813 16 31.813zm0-22.172c-5.878 0-10.659 4.782-10.659 10.659S10.123 30.96 16 30.96c5.878 0 10.659-4.782 10.659-10.66S21.877 9.641 16 9.641z"/><path id="svg-ico" fill="#ee5586" d="M16 24.04a.426.426 0 0 1-.426-.426v-5.116a.426.426 0 1 1 .852 0v5.117a.426.426 0 0 1-.426.426zm5.29-16.16a.426.426 0 0 1-.426-.426v-3.4a2.98 2.98 0 0 0-2.979-2.975h-3.768a2.98 2.98 0 0 0-2.979 2.975v3.4a.426.426 0 1 1-.852 0v-3.4A3.834 3.834 0 0 1 14.118.227h3.768a3.834 3.834 0 0 1 3.832 3.827v3.4a.426.426 0 0 1-.427.426z"/></svg>