<svg xmlns="http://www.w3.org/2000/svg" viewBox="0 0 32 32"><path fill="#5e686c" d="M4.8 32c-1.3 0-2.5-.5-3.4-1.5A4.8 4.8 0 1 1 4.8 32zm0-8.8c-1 0-2 .4-2.8 1.2a4 4 0 1 0 2.8-1.2zm22.6-6.4a4.8 4.8 0 1 1 3.4-1.4c-.9.9-2 1.4-3.4 1.4zm0-8.8c-1 0-2 .5-2.7 1.2A4 4 0 1 0 27.4 8zM16.1 24.5a4.8 4.8 0 1 1 3.4-8.2 4.8 4.8 0 0 1-3.4 8.2zm0-8.7c-1 0-2 .4-2.8 1.1a4 4 0 1 0 2.8-1.1z"/><path id="svg-ico" fill="#ee5586" d="M4.8 9.6a4.8 4.8 0 1 1 3.4-8.2 4.8 4.8 0 0 1-3.4 8.2zm0-8.7c-1 0-2 .4-2.8 1.2A4 4 0 1 0 4.8.9z"/><path fill="#5e686c" d="m19.8 17.9-.3-.2c-.2-.2 0-.5.1-.6l4.2-2.7c.2-.1.5 0 .6.1.2.2.1.5-.1.6L20 17.8h-.3zM8.4 25.1a.4.4 0 0 1-.2-.8l4-2.6c.2-.1.5 0 .6.2.2.2.1.4 0 .6L8.5 25h-.2z"/><path id="svg-ico" fill="#ee5586" d="M4.8 23.1a.4.4 0 0 1-.4-.4V9.2c0-.2.2-.4.4-.4s.5.2.5.4v13.5c0 .2-.2.4-.5.4z"/><path fill="#5e686c" d="M16.1 15.8a.4.4 0 0 1-.4-.5V1.8c0-.2.2-.4.4-.4s.5.2.5.4v13.5c0 .3-.2.5-.5.5z"/></svg>