<svg xmlns="http://www.w3.org/2000/svg" viewBox="0 0 32 32"><path fill="#5e686b" d="M31.29 9.21h-5.2c-.25 0-.44.2-.44.43v6.42a9.53 9.53 0 0 1-9.55 9.49 9.53 9.53 0 0 1-9.55-9.5v-6.4c0-.24-.2-.44-.43-.44H.9c-.24 0-.43.2-.43.43v6.6c0 8.57 7.01 15.54 15.62 15.54s15.63-6.97 15.63-15.54v-6.6c0-.23-.2-.43-.43-.43zm-.44.87v5.65h-4.34v-5.65h4.34zm-25.18 0v5.65H1.35v-5.65h4.34zM16.1 30.91A14.73 14.73 0 0 1 1.34 16.6H5.7a10.4 10.4 0 0 0 10.4 9.82 10.4 10.4 0 0 0 10.4-9.82h4.35A14.73 14.73 0 0 1 16.1 30.91z"/><path id="svg-ico" fill="#ee5586" d="M3.5 6.26c.24 0 .44-.2.44-.43V.62A.42.42 0 0 0 3.5.19c-.24 0-.43.2-.43.43v5.2c0 .25.19.44.43.44zm2.61 0c.24 0 .43-.2.43-.43v-2.6c0-.24-.2-.43-.43-.43s-.43.19-.43.43v2.6c0 .24.2.43.43.43zm-5.21 0c.24 0 .44-.2.44-.43v-2.6c0-.24-.2-.43-.43-.43s-.44.19-.44.43v2.6c0 .24.2.43.44.43zm27.67 0c.24 0 .44-.2.44-.43V.62a.44.44 0 0 0-.87 0v5.2c0 .25.2.44.43.44zm2.61 0c.23 0 .43-.2.43-.43v-2.6c0-.24-.2-.43-.43-.43s-.44.19-.44.43v2.6c0 .24.2.43.44.43zm-5.21 0c.24 0 .43-.2.43-.43v-2.6c0-.24-.2-.43-.43-.43s-.43.19-.43.43v2.6c0 .24.19.43.43.43z"/></svg>