<svg xmlns="http://www.w3.org/2000/svg" viewBox="0 0 32 32"><path id="svg-ico" fill="#ee5586" d="M15.5 29.43a.42.42 0 0 1-.41-.42v-4.43a.42.42 0 0 1 .84 0v4.43c0 .23-.2.42-.42.42zm8.33-26.15h-8.32a.42.42 0 0 1 0-.84h8.32a.42.42 0 0 1 0 .84z"/><path fill="#5e686c" d="M31.06 24.8H.9a.42.42 0 0 1-.42-.41V14.6a6.39 6.39 0 0 1 12.77 0v4.78a.42.42 0 0 1-.84 0V14.6a5.55 5.55 0 0 0-11.09 0v9.36h29.33V13.73c0-2.79-1.96-4.66-4.88-4.66H17.8a.42.42 0 0 1 0-.84h7.96c3.42 0 5.71 2.21 5.71 5.5v10.66c0 .23-.18.42-.41.42z"/><path fill="#5e686c" d="M8.94 19.8H4.76a.42.42 0 0 1 0-.83h4.18a.42.42 0 0 1 0 .84zm9.68-10.73H6.85a.42.42 0 0 1 0-.84h11.77a.42.42 0 0 1 0 .84z"/><path id="svg-ico" fill="#ee5586" d="M15.5 14.16a.42.42 0 0 1-.41-.42V2.86a.42.42 0 0 1 .84 0v10.88c0 .23-.2.42-.42.42z"/></svg>