<svg xmlns="http://www.w3.org/2000/svg" viewBox="0 0 32 32"><path id="svg-ico" fill="#ee5586" d="M31 17H1.2a.4.4 0 0 1-.4-.4V2.9c0-.2.2-.4.4-.4H31c.3 0 .4.2.4.4v13.7c0 .2-.2.4-.4.4zm-29.4-.8h29V3.4h-29v12.8z"/><path fill="#5e686c" d="M6.3 31.6a.4.4 0 0 1-.4-.4v-14c0-.2.2-.4.4-.4s.5.2.5.4v14c0 .2-.2.4-.5.4zm19.4 0a.4.4 0 0 1-.4-.4v-14c0-.2.2-.4.4-.4s.4.2.4.4v14c0 .2-.2.4-.4.4zM6.3 3a.4.4 0 0 1-.4-.5V.8c0-.2.2-.4.4-.4s.5.2.5.4v1.7c0 .3-.2.4-.5.4zm19.4 0a.4.4 0 0 1-.4-.5V.8c0-.2.2-.4.4-.4s.4.2.4.4v1.7c0 .3-.2.4-.4.4z"/><path fill="#5e686c" d="M27.8 31.6h-4.2c-.3 0-.4-.2-.4-.4s.1-.4.4-.4h4.2c.3 0 .5.1.5.4s-.2.4-.5.4zm-19.3 0H4.2c-.2 0-.4-.2-.4-.4s.2-.4.4-.4h4.3c.2 0 .4.1.4.4s-.2.4-.4.4zm12.4-17.8-.3-.1a.4.4 0 0 1 0-.6l5.6-7.7c.2-.2.4-.3.6-.1s.2.4.1.6l-5.7 7.7-.3.2zm-5.1 0-.2-.1a.4.4 0 0 1-.1-.6L21 5.4c.2-.2.4-.3.6-.1s.3.4.1.6l-5.6 7.7-.4.2zm-5.1 0-.2-.1a.4.4 0 0 1-.1-.6L16 5.4c.2-.2.5-.3.6-.1s.3.4.1.6l-5.6 7.7-.4.2zm-5.1 0-.2-.1a.4.4 0 0 1-.1-.6L11 5.4c.1-.2.4-.3.6-.1s.2.4 0 .6L6 13.6l-.4.2z"/></svg>