<svg xmlns="http://www.w3.org/2000/svg" viewBox="0 0 32 32"><path fill="#5e686b" d="M18.8 12.3c-1 0-1.7.7-1.7 1.7a.4.4 0 0 0 .8 0 .9.9 0 0 1 1.7 0 .4.4 0 0 0 .9 0c0-1-.8-1.7-1.7-1.7zm-5.8 0c-.9 0-1.7.7-1.7 1.7a.4.4 0 0 0 .9 0 .9.9 0 0 1 1.7 0 .4.4 0 0 0 .8 0c0-1-.7-1.7-1.7-1.7z"/><path id="svg-ico" fill="#ee5586" d="M5.6 10.5a10.4 10.4 0 1 0 .8-4c-.5 1.2-.8 2.6-.8 4zM16 20A9.6 9.6 0 0 1 7 7h18a9.6 9.6 0 0 1-9 13zM16 .9c3.8 0 7 2.2 8.6 5.3H7.4A9.6 9.6 0 0 1 16 1z"/><path fill="#5e686b" d="M23.4 22.3H8.6A4.7 4.7 0 0 0 3.9 27v4.2c0 .3.2.4.4.4h23.4c.2 0 .4-.1.4-.4V27c0-2.6-2-4.7-4.7-4.7zm3.9 8.5H4.7V27a4 4 0 0 1 3.9-3.9h14.8a4 4 0 0 1 3.9 3.9v3.8z"/></svg>