<svg xmlns="http://www.w3.org/2000/svg" width="32" height="32" viewBox="0 0 32 32"><path id="svg-ico" fill="#ee5586" d="M25.7 18.4a1.6 1.6 0 1 0 0 3.2 1.6 1.6 0 0 0 0-3.2zm0 2.4a.8.8 0 0 1 0-1.6.8.8 0 0 1 0 1.6zm-14.4-6.5a3 3 0 1 0 0-6 3 3 0 0 0 0 6zm0-5.2a2.2 2.2 0 1 1 0 4.4 2.2 2.2 0 0 1 0-4.4zm15.8 20.5h-6.4c-.1-.6-.6-1-1.2-1.2v-2a.4.4 0 1 0-.8 0v2c-.5.2-1 .6-1.1 1.2h-6.4a.4.4 0 1 0 0 .8h6.4c.1.7.8 1.2 1.5 1.2s1.4-.5 1.6-1.2H27c.2 0 .4-.2.4-.4s-.2-.4-.4-.4zm-8 1.2c-.4 0-.8-.3-.8-.8s.4-.8.8-.8c.5 0 .8.4.8.8 0 .5-.3.8-.8.8z"/><path fill="#5e686c" d="M6.2 19.2c-.5 0-1-.1-1.4-.4-.6-.5-1.1-1-1.6-1.7a2 2 0 0 1 .2-2.8c.1 0 .2-.2.1-.4l-.3-.2c-1 0-2-.6-2.2-1.8V9.5a2 2 0 0 1 2.1-1.8l.5-.2-.1-.4a2 2 0 0 1-.2-2.9l1.6-1.6c.9-.7 2.2-.6 2.9.2l.3.1c.2 0 .3-.2.3-.3 0-1.1.7-2 1.8-2.2h2.3c1.1.1 2 1.1 1.9 2.2 0 .2 0 .3.2.3h.4c.7-.8 2-1 2.8-.3.6.5 1.2 1 1.7 1.7.6.8.5 2-.3 2.8 0 .1-.1.3 0 .4 0 .1.1.2.3.2 1 0 2 .7 2.1 1.9v2.3a2 2 0 0 1-2 1.9h-.2c-.1 0-.3 0-.3.2v.4c.5.3.7.8.8 1.3 0 .2-.2.4-.4.4a.4.4 0 0 1-.4-.3c0-.3-.2-.6-.5-.8-.3-.4-.4-.9-.2-1.3.1-.4.6-.7 1-.7h.2c.6 0 1.2-.5 1.2-1.2V9.7c0-.7-.7-1.2-1.3-1.2-.5 0-1-.2-1-.7a1 1 0 0 1 .2-1.3c.5-.4.6-1.2.1-1.7-.4-.6-1-1-1.5-1.5-.5-.4-1.3-.4-1.7.1a1.2 1.2 0 0 1-1.3.3c-.5-.2-.7-.6-.7-1.1 0-.7-.5-1.3-1.1-1.4h-2.2c-.6.1-1.1.7-1.1 1.3 0 .5-.3 1-.7 1.2-.4.1-1 0-1.3-.3-.4-.5-1.2-.6-1.8-.2L4 4.7c-.4.6-.4 1.3.1 1.8.4.3.5.8.3 1.3-.1.4-.6.7-1.2.7S2 9 2 9.6v2.2c0 .7.8 1.1 1.4 1.1a1.1 1.1 0 0 1 .7 2c-.5.5-.5 1.2-.1 1.7.4.6 1 1.1 1.5 1.6.4.3 1.1.3 1.6 0h.5c.2.2.1.5 0 .6-.4.3-.9.4-1.3.4z"/><path fill="#5e686c" d="M11.3 14.3a3 3 0 1 1 0-6 3 3 0 0 1 0 6zm0-5.2a2.2 2.2 0 1 0 0 4.4 2.2 2.2 0 0 0 0-4.4zm7.8 22.4c-.8 0-1.6-.7-1.6-1.6s.8-1.6 1.6-1.6c1 0 1.7.7 1.7 1.6 0 1-.8 1.6-1.7 1.6zm0-2.4c-.4 0-.8.4-.8.8s.4.8.8.8c.5 0 .8-.3.8-.8s-.3-.8-.8-.8z"/><path fill="#5e686c" d="M19.1 29.1a.4.4 0 0 1-.4-.4v-2.4c0-.2.2-.4.4-.4s.4.2.4.4v2.4c0 .2-.1.4-.4.4zM18 30.3h-6.8a.4.4 0 0 1-.4-.4c0-.2.2-.4.4-.4h6.7c.3 0 .4.2.4.4s-.1.4-.4.4zm9 0h-6.6a.4.4 0 0 1-.4-.4c0-.2.1-.4.4-.4H27c.2 0 .4.2.4.4s-.2.4-.4.4z"/><path id="svg-ico" fill="#ee5586" d="M25.7 21.5c-1 0-1.6-.7-1.6-1.6s.7-1.6 1.6-1.6c.9 0 1.6.7 1.6 1.6s-.7 1.6-1.6 1.6zm0-2.4c-.5 0-.8.4-.8.8s.3.8.8.8c.4 0 .8-.3.8-.8 0-.4-.4-.8-.8-.8z"/><path id="svg-ico" fill="#ee5586" d="M29.4 24.6h-21c-.9 0-1.6-.7-1.6-1.5v-6.3c0-.8.7-1.5 1.6-1.5h21c1 0 1.7.7 1.7 1.5v6.3c0 .8-.8 1.5-1.7 1.5zM8.4 16c-.4 0-.8.3-.8.7V23c0 .3.4.7.8.7h21c.5 0 .9-.3.9-.7v-6.3c0-.4-.4-.7-.9-.7h-21z"/></svg>