<svg xmlns="http://www.w3.org/2000/svg" viewBox="0 0 32 32"><path fill="#5e686c" d="m.8 29.9-.2-.1a.4.4 0 0 1-.2-.3V5.6c0-.2.1-.4.3-.4L11 2.7c.2 0 .4.1.5.3 0 .3-.1.5-.3.5L1.3 6v23l9.6-2.3c.2 0 .4 0 .5.3 0 .2-.1.5-.3.5L.9 30zm20.2 0a.4.4 0 0 1-.3-.3c0-.3 0-.5.3-.6l9.8-2.3v-23L21.2 6c-.2 0-.5 0-.5-.3 0-.2 0-.5.3-.5l10-2.5a.4.4 0 0 1 .5.4V27c0 .2 0 .4-.3.4l-10 2.6H21z"/><path id="svg-ico" fill="#ee5586" d="m21 29.9-10.1-2.5a.4.4 0 0 1-.4-.4V3a.4.4 0 0 1 .6-.4l10 2.5c.3 0 .4.2.4.4v23.9c0 .1 0 .2-.2.3h-.2zm-9.6-3.2 9.3 2.2V6l-9.3-2.2v23z"/></svg>