<svg xmlns="http://www.w3.org/2000/svg" viewBox="0 0 32 32"><path id="svg-ico" fill="#ee5586" d="M20 31.8c-.2 0-.3 0-.3-.2l-3.4-3.3V28h-.6v.2l-3.5 3.3c0 .2-.3.2-.4.1a.4.4 0 0 1-.3-.4V21l.4-.2h1.5l2.6 1.5 2.5-1.5H20c.2 0 .3 0 .4.2v10.3a.4.4 0 0 1-.3.4zm-4-4.6c.3 0 .6.1.8.3l.1.2 2.6 2.6v-8.7H19l-2.7 1.6h-.5L13 21.6h-.6v8.7l2.6-2.6v-.2c.3-.2.6-.3 1-.3z"/><path fill="#5e686b" d="M16 21.4h-.3L13.5 20h-2.6c-.2 0-.3 0-.4-.2l-1.3-2.2-2.3-1.3a.4.4 0 0 1-.2-.4v-2.6L5.4 11v-.4l1.3-2.3V5.7c0-.1 0-.3.2-.4L9.2 4l1.3-2.2c0-.2.2-.2.4-.2h2.6L15.7.3h.5l2.2 1.3H21c.2 0 .3 0 .4.2L22.7 4 25 5.3l.2.4v2.6l1.3 2.3v.4l-1.3 2.3v2.6l-.2.3-2.3 1.4-1.3 2.2c0 .2-.2.2-.4.2h-2.6l-2.2 1.3-.3.1zm-5-2.2h2.7l2.2 1.3 2-1.3h2.8L22 17l.2-.1 2.1-1.3V13l1.3-2.1-1.2-2.2V6l-2.2-1.3-.2-.1-1.2-2.2H18L16 1l-2.2 1.3h-2.7L10 4.6l-.2.1L7.6 6v2.6l-1.3 2.2 1.2 2.1v2.7L9.8 17l.2.1 1.2 2.2z"/></svg>