<svg xmlns="http://www.w3.org/2000/svg" width="32" height="32" viewBox="0 0 32 32"><path fill="#5e686c" d="M8.89 27.46h-6.1a.43.43 0 0 1-.42-.42v-6.7H.77a.43.43 0 0 1-.43-.42v-5.07a3.47 3.47 0 0 1 3.47-3.47h4.06A3.5 3.5 0 0 1 11 13.37c.1.21 0 .46-.2.56s-.47.01-.57-.2a2.64 2.64 0 0 0-2.37-1.5H3.8a2.62 2.62 0 0 0-2.62 2.62v4.66H2.8c.23 0 .42.18.42.42v6.69H8.9c.23 0 .43.19.43.42s-.2.42-.43.42zM5.84 9.09a3.38 3.38 0 1 1 0-6.76 3.38 3.38 0 0 1 0 6.76zm0-5.9a2.53 2.53 0 1 0 0 5.06 2.53 2.53 0 0 0 0-5.07zM29.2 27.46h-6.1a.43.43 0 0 1 0-.85h5.67v-6.69c0-.23.2-.42.43-.42h1.61v-4.66a2.62 2.62 0 0 0-2.62-2.62h-4.07c-1 0-1.93.59-2.37 1.5-.1.22-.35.3-.56.2s-.3-.35-.2-.56a3.5 3.5 0 0 1 3.13-1.99h4.07a3.47 3.47 0 0 1 3.47 3.47v5.08c0 .23-.2.42-.43.42h-1.61v6.69c0 .24-.19.43-.42.43zM26.15 9.09a3.38 3.38 0 1 1 0-6.76 3.38 3.38 0 0 1 0 6.76zm0-5.9a2.54 2.54 0 0 0 0 5.05 2.54 2.54 0 0 0 0-5.06z"/><path id="svg-ico" fill="#ee5586" d="M19.04 31.52h-6.09a.43.43 0 0 1-.42-.42v-7.7H9.9a.43.43 0 0 1-.43-.42v-7.11a4.48 4.48 0 0 1 4.49-4.48h4.06a4.48 4.48 0 0 1 4.48 4.48v7.1c0 .24-.19.43-.42.43h-2.63v7.7a.4.4 0 0 1-.4.42zm-5.66-.84h5.24v-7.7c0-.23.2-.42.43-.42h2.63v-6.7c0-2-1.64-3.63-3.64-3.63h-4.06a3.64 3.64 0 0 0-3.64 3.64v6.69h2.62c.23 0 .43.18.43.42l-.01 7.7zM16 8.92a4.23 4.23 0 1 1 .01-8.45A4.23 4.23 0 0 1 16 8.92zm0-7.6a3.38 3.38 0 1 0 0 6.75 3.38 3.38 0 0 0 0-6.75z"/></svg>