<svg xmlns="http://www.w3.org/2000/svg" viewBox="0 0 32 32"><path fill="#5e686b" d="M21.9 3.6c-.4 0-.8 0-1.1.3l-1 .5c-2.6 1.6-9.8 6-19 6-.2 0-.4.2-.4.4v8.5c0 .2.2.4.4.4 3 0 6 .5 8.5 1.3v7.8a.4.4 0 0 0 .9 0v-7.5c4.8 1.5 8.3 3.9 9.9 4.9l.7.4a2.3 2.3 0 0 0 2 0c.4-.1.5-.4.5-.7V4.7c0-.7-.6-1.1-1.4-1.1zM1.2 11.2l2.8-.1v8a28 28 0 0 0-2.8-.3v-7.6zM22.5 26l-.6.1-.7-.1-.7-.4c-2.1-1.4-8-5.3-15.7-6.4V11a40 40 0 0 0 16.4-6.3l.7-.2c.4 0 .6.2.6.3V26z"/><path id="svg-ico" fill="#ee5586" d="M27.4 11c-.3 0-.5.2-.5.4v7.7a.4.4 0 0 0 .9 0v-7.7c0-.2-.2-.4-.4-.4zm3.8 2c-.2 0-.4.1-.4.4v4.3a.4.4 0 0 0 .9 0v-4.3c0-.3-.2-.5-.5-.5z"/></svg>