<svg xmlns="http://www.w3.org/2000/svg" viewBox="0 0 32 32"><path fill="#5e686b" d="M24.58 31.84H7.42a.98.98 0 0 1-.98-.98V1.04c0-.54.43-.98.98-.98h17.17c.53 0 .97.44.97.98v29.82c0 .54-.44.98-.98.98zM7.42.92a.13.13 0 0 0-.13.12v29.82c0 .07.06.13.13.13h17.17c.07 0 .12-.06.12-.13V1.04a.13.13 0 0 0-.12-.12H7.42z"/><path id="svg-ico" fill="#ee5586" d="M17.29 3.7h-2.57a.43.43 0 0 1 0-.86h2.57a.43.43 0 0 1 0 .87zM16 29.11a1.72 1.72 0 0 1 0-3.42 1.71 1.71 0 0 1 0 3.42zm0-2.57a.86.86 0 1 0 .86.86.85.85 0 0 0-.86-.86z"/></svg>