<svg xmlns="http://www.w3.org/2000/svg" viewBox="0 0 32 32"><path fill="#5e686b" d="M9.5 6.69c.06.17.22.28.4.28h11.84c.18 0 .35-.11.42-.28l1.09-3.1a1.61 1.61 0 0 0-1.5-2.21h-3.09a4.01 4.01 0 0 0-5.68 0H9.89a1.62 1.62 0 0 0-1.5 2.2l1.1 3.1zm-.22-4.12c.15-.2.37-.33.62-.33h3.25c.13 0 .25-.05.34-.15a3.1 3.1 0 0 1 4.65 0l.01.01.02.02.01.01.02.01.02.02.02.01.02.01.02.01.01.01h.02l.03.01.02.01.11.01h3.27c.25 0 .48.12.62.33.14.21.17.47.07.72l-1 2.82H10.21l-1-2.84a.72.72 0 0 1 .07-.69zm12.74 6.01a.44.44 0 0 0-.28-.1H9.9c-.1 0-.2.03-.28.1-.34.3-8.44 7.33-8.44 15.72 0 4.92 3.69 7.54 6.36 7.54H24.1c2.66 0 6.36-2.62 6.36-7.54 0-8.4-8.1-15.43-8.45-15.72zm2.09 22.39H7.54c-2.3 0-5.49-2.32-5.49-6.67 0-7.46 7.01-14.05 8.02-14.96h11.5c1 .9 8.02 7.5 8.02 14.96 0 4.35-3.18 6.67-5.48 6.67z"/><path id="svg-ico" fill="#ee5586" d="M16.26 12.78v-1a.44.44 0 0 0-.88 0v1a4.13 4.13 0 0 0-3.69 4.1c0 2 1.53 3.66 3.69 4.06v5.88a2.94 2.94 0 0 1-2.36-2.88.44.44 0 0 0-.88 0c0 1.9 1.4 3.48 3.23 3.77v.33a.44.44 0 0 0 .88 0v-.3a3.81 3.81 0 0 0 3.51-3.8c0-1.9-1.4-3.36-3.51-3.74v-6.54a3.26 3.26 0 0 1 2.82 3.23c0 .23.2.43.43.43s.44-.19.44-.43a4.13 4.13 0 0 0-3.69-4.1zm-3.7 4.1a3.26 3.26 0 0 1 2.83-3.22v6.4c-1.68-.37-2.82-1.63-2.82-3.18zm6.34 7.06a2.94 2.94 0 0 1-2.64 2.92v-5.78c1.6.35 2.64 1.46 2.64 2.87z"/></svg>