<svg xmlns="http://www.w3.org/2000/svg" viewBox="0 0 32 32"><path fill="#5e686c" d="M31.3 25.2H.7a.4.4 0 0 1-.4-.4V19c0-.3.2-.4.4-.4s.4.2.4.4v5.4H31V19c0-.3.2-.4.4-.4s.4.2.4.4v5.8c0 .3-.2.4-.4.4zM16 30.7a.4.4 0 0 1-.4-.4V26c0-.2.2-.4.4-.4s.4.2.4.4v4.3c0 .2-.2.4-.4.4z"/><path fill="#5e686c" d="M23.5 30.7h-15c-.2 0-.4-.2-.4-.4s.2-.5.4-.5h15c.2 0 .4.2.4.5s-.2.4-.4.4z"/><path id="svg-ico" fill="#ee5586" d="M31.3 19.4H.7a.4.4 0 0 1-.4-.4V2.7c0-.3.2-.5.4-.5h30.6c.2 0 .4.2.4.5V19c0 .2-.2.4-.4.4zM1 18.6h30V3H1v15.5z"/></svg>