<svg xmlns="http://www.w3.org/2000/svg" viewBox="0 0 32 32"><path id="svg-ico" fill="#ee5586" d="M16 31.7c-5.319 0-9.644-4.325-9.644-9.644v-7.081c0-5.319 4.325-9.644 9.644-9.644s9.644 4.325 9.644 9.644v7.088c0 5.313-4.325 9.637-9.644 9.637zm0-25.494c-4.838 0-8.769 3.931-8.769 8.769v7.087c0 4.837 3.938 8.769 8.769 8.769 4.837 0 8.769-3.931 8.769-8.769v-7.088c0-4.838-3.931-8.769-8.769-8.769z"/><path fill="#656565" d="M16 31.7c-5.319 0-9.644-4.325-9.644-9.644v-7.081c0-5.319 4.325-9.644 9.644-9.644s9.644 4.325 9.644 9.644v7.088c0 5.313-4.325 9.637-9.644 9.637zm0-25.494c-4.838 0-8.769 3.931-8.769 8.769v7.087c0 4.837 3.938 8.769 8.769 8.769 4.837 0 8.769-3.931 8.769-8.769v-7.088c0-4.838-3.931-8.769-8.769-8.769z"/><path fill="#656565" d="M16 6.206a.435.435 0 0 1-.438-.438V.612c0-.244.194-.438.438-.438s.438.194.438.438v5.156a.435.435 0 0 1-.438.438z"/><path id="svg-ico" fill="#ee5586" d="M16 15.469a2.615 2.615 0 0 1 0-5.231 2.616 2.616 0 0 1 0 5.232zm0-4.363a1.744 1.744 0 1 0 0 3.488 1.744 1.744 0 0 0 0-3.488z"/></svg>