<svg xmlns="http://www.w3.org/2000/svg" viewBox="0 0 32 32"><path id="svg-ico" fill="#ee5586" d="M19.77 21.34a.45.45 0 0 1-.3-.12.42.42 0 0 1 0-.6l3.8-3.8-3.8-3.8c-.16-.16-.16-.43 0-.59s.44-.16.6 0l4.1 4.1c.16.16.16.43 0 .59l-4.1 4.1a.38.38 0 0 1-.3.12z"/><path fill="#5e686c" d="M31.26 28.22H.84a.43.43 0 0 1-.42-.43V5.01c0-.23.18-.42.42-.42h10.03a.43.43 0 0 1 0 .85h-9.6v21.94h29.57V5.44H18.57a.43.43 0 0 1 0-.85h12.69c.23 0 .42.19.42.42v22.8c0 .22-.19.41-.42.41z"/><path id="svg-ico" fill="#ee5586" d="M21.81 17.32h-4.84a6.52 6.52 0 0 1-6.51-6.51V5a.43.43 0 0 1 .85 0v5.84a5.68 5.68 0 0 0 5.67 5.62h4.83c.23 0 .43.19.43.42 0 .24-.2.43-.43.43z"/><path id="svg-ico" fill="#ee5586" d="M19.81 21.44a.43.43 0 0 1-.3-.13.43.43 0 0 1 0-.6l3.82-3.82-3.82-3.82a.43.43 0 0 1 0-.6.43.43 0 0 1 .6 0l4.12 4.12c.16.17.16.44 0 .6l-4.12 4.12a.43.43 0 0 1-.3.13z"/></svg>