<svg xmlns="http://www.w3.org/2000/svg" viewBox="0 0 32 32"><path id="svg-ico" fill="#ee5586" d="M23.53 19.26a2.93 2.93 0 1 1 0-5.86 2.93 2.93 0 0 1 0 5.86zm0-5.02a2.1 2.1 0 0 0 0 4.18 2.1 2.1 0 0 0 0-4.18zm-7.46-2.44a2.93 2.93 0 1 1 .01-5.86 2.93 2.93 0 0 1 0 5.86zm0-5.01a2.1 2.1 0 0 0 0 4.17 2.1 2.1 0 0 0 0-4.17zM8.61 19.26a2.93 2.93 0 1 1 0-5.86 2.93 2.93 0 0 1 0 5.86zm0-5.02a2.1 2.1 0 0 0 0 4.18 2.1 2.1 0 0 0 0-4.18zm7.46 12.48a2.93 2.93 0 1 1 .01-5.86 2.93 2.93 0 0 1 0 5.86zm0-5.01a2.1 2.1 0 0 0 0 4.17 2.1 2.1 0 0 0 0-4.17z"/><path fill="#5e686b" d="M16.07 31.76A15.7 15.7 0 0 1 16.06.35 15.72 15.72 0 0 1 25 28.96a.42.42 0 0 1-.58-.1.42.42 0 0 1 .1-.58 14.89 14.89 0 0 0-8.45-27.12A14.9 14.9 0 0 0 1.19 16.05a14.9 14.9 0 0 0 14.88 14.87.42.42 0 0 1 0 .84z"/><path fill="#5e686b" d="M31.08 31.76h-15a.42.42 0 0 1 0-.84h15a.42.42 0 0 1 0 .84z"/></svg>