<svg xmlns="http://www.w3.org/2000/svg" viewBox="0 0 32 32"><path fill="#5e686b" d="M25.281 31.75H7.212c-1 0-1.819-.813-1.819-1.813V2.168c0-1 .813-1.813 1.819-1.813h18.069c1 0 1.819.813 1.819 1.819v27.762c0 1-.813 1.813-1.819 1.813zM7.213 1.206a.963.963 0 0 0-.963.963v27.769c0 .531.431.962.963.962h18.069a.962.962 0 0 0 .962-.962V2.169a.962.962 0 0 0-.962-.962H7.213z"/><path id="svg-ico" fill="#ee5586" d="M16.25 29.131c-3.769 0-6.831-3.063-6.831-6.831s3.063-6.831 6.831-6.831a6.836 6.836 0 0 1 6.831 6.831c0 3.762-3.063 6.831-6.831 6.831zm0-12.812c-3.294 0-5.975 2.681-5.975 5.975s2.681 5.975 5.975 5.975c3.294 0 5.975-2.681 5.975-5.975s-2.681-5.975-5.975-5.975z"/><path fill="#5e686b" d="M22.656 13.806H9.843a.425.425 0 0 1-.425-.425V4.837c0-.237.194-.425.425-.425h12.806c.238 0 .425.194.425.425v8.537a.422.422 0 0 1-.419.431zm-12.381-.856h11.956V5.262H10.275v7.688z"/><path id="svg-ico" fill="#ee5586" d="M16.25 25.288a2.992 2.992 0 0 1-2.988-2.988 2.992 2.992 0 0 1 2.988-2.988c1.65 0 2.988 1.344 2.988 2.988s-1.337 2.988-2.988 2.988zm0-5.125a2.136 2.136 0 1 0-.002 4.276 2.136 2.136 0 0 0 .002-4.276z"/></svg>