<svg xmlns="http://www.w3.org/2000/svg" viewBox="0 0 32 32"><path id="svg-ico" fill="#ee5586" d="m20.6 21.4-.3-.1a.4.4 0 0 1 0-.7l5-5-5-5a.4.4 0 0 1 0-.6c.2-.2.5-.2.6 0l5.4 5.3v.6l-5.4 5.3-.3.2z"/><path id="svg-ico" fill="#ee5586" d="m31.3 21.4-.3-.1-5.3-5.4a.4.4 0 0 1 0-.6L31 10c.2-.2.4-.2.6 0 .2.1.2.4 0 .6l-5 5 5 5c.2.2.2.5 0 .6l-.3.2z"/><path fill="#5e686b" d="M14.1 28.9H14l-8.5-6.4H.8a.4.4 0 0 1-.4-.5V10.5c0-.2.2-.4.4-.4h4.6l8.5-6.4h.4l.2.4v24.4c0 .1 0 .3-.2.4h-.2zM1.2 21.6h4.3l.3.1 7.9 6V4.8l-8 6H1.3v10.7z"/></svg>