<svg xmlns="http://www.w3.org/2000/svg" viewBox="0 0 32 32"><path fill="#5e686b" d="M15.981 31.813C7.237 31.813.125 24.7.125 15.957.125 7.888 6.162 1.113 14.169.201c.238-.031.463.144.488.387s-.144.463-.387.488C6.707 1.939 1.008 8.332 1.008 15.957c0 8.256 6.719 14.975 14.975 14.975s14.975-6.719 14.975-14.975c0-7.619-5.7-14.019-13.262-14.881-.244-.025-.413-.244-.387-.488s.25-.419.488-.388c8.006.912 14.044 7.681 14.044 15.756 0 8.744-7.113 15.856-15.856 15.856z"/><path id="svg-ico" fill="#ee5586" d="M16.769 26.769h-.031a.438.438 0 0 1-.4-.344L14.4 17.544l-8.881-1.95c-.194-.044-.331-.206-.344-.4s.106-.375.287-.444l17.531-6.369a.437.437 0 0 1 .562.563l-6.369 17.531a.452.452 0 0 1-.419.294zM7.188 15.063l7.675 1.675c.169.038.3.169.338.337l1.675 7.669 5.531-15.213-15.219 5.531z"/></svg>