<svg xmlns="http://www.w3.org/2000/svg" width="32" height="32" viewBox="0 0 32 32"><path fill="#5e686b" d="M16.256 24.875c6.806 0 12.344-5.538 12.344-12.344.006-6.813-5.538-12.35-12.344-12.35S3.912 5.718 3.906 12.525c0 6.812 5.544 12.35 12.35 12.35zM6.813 6.006c.894.625 1.912 1.15 3.012 1.575a20.143 20.143 0 0 0-.581 4.513H4.788a11.392 11.392 0 0 1 2.025-6.088zm20.912 6.088h-4.456a20.556 20.556 0 0 0-.581-4.513c1.1-.419 2.113-.95 3.012-1.575a11.389 11.389 0 0 1 2.025 6.088zM25.7 19.05c-.894-.625-1.913-1.15-3.012-1.575.35-1.387.55-2.912.581-4.512h4.456a11.409 11.409 0 0 1-2.025 6.088zm-9.875-2.725a18.232 18.232 0 0 0-5.194.85 20.285 20.285 0 0 1-.525-4.219h5.713v3.369zm0 .869v6.781c-2.144-.281-3.988-2.613-4.963-5.95 1.537-.5 3.225-.788 4.963-.831zm.863 6.781v-6.781c1.731.044 3.425.331 4.962.831-.975 3.337-2.819 5.675-4.962 5.95zm0-7.644v-3.369H22.4a19.99 19.99 0 0 1-.525 4.231 18.091 18.091 0 0 0-5.188-.863zm5.718-4.237h-5.719V8.731a18.377 18.377 0 0 0 5.188-.862c.313 1.3.5 2.725.531 4.225zm-5.718-4.232V1.075c2.144.281 3.988 2.612 4.962 5.95a17.36 17.36 0 0 1-4.962.838zm-.863-6.787v6.781a17.611 17.611 0 0 1-4.963-.831c.975-3.337 2.819-5.669 4.963-5.95zm0 7.656v3.363h-5.713c.031-1.5.213-2.925.525-4.225 1.613.519 3.381.819 5.188.863zm-6.581 4.232c.031 1.594.238 3.119.581 4.506-1.094.419-2.106.95-3.013 1.581a11.389 11.389 0 0 1-2.025-6.088h4.456zm-1.913 6.781a13.2 13.2 0 0 1 2.725-1.431c.688 2.262 1.756 4.106 3.063 5.256a11.492 11.492 0 0 1-5.787-3.825zm12.063 3.825c1.306-1.15 2.381-2.994 3.063-5.256.994.387 1.913.863 2.725 1.425a11.469 11.469 0 0 1-5.787 3.831zm5.787-18.256a13.2 13.2 0 0 1-2.725 1.431c-.688-2.263-1.756-4.106-3.063-5.256a11.506 11.506 0 0 1 5.788 3.825zM13.119 1.481c-1.306 1.15-2.381 2.994-3.063 5.256a12.9 12.9 0 0 1-2.725-1.425 11.576 11.576 0 0 1 5.787-3.831z"/><path id="svg-ico" fill="#ee5586" d="M26.081 28.344c-.806 0-1.488.556-1.681 1.3h-6.463a1.74 1.74 0 0 0-1.244-1.244v-2.225a.432.432 0 0 0-.862 0V28.4a1.739 1.739 0 0 0-1.244 1.244H8.081a1.737 1.737 0 0 0-1.681-1.3c-.956 0-1.731.775-1.731 1.731s.775 1.738 1.731 1.738c.806 0 1.487-.556 1.681-1.3h6.494a1.737 1.737 0 0 0 3.362 0h6.462a1.737 1.737 0 0 0 3.419-.438 1.74 1.74 0 0 0-1.738-1.731zm-19.675 2.6a.867.867 0 0 1-.869-.869c0-.475.388-.869.869-.869.463 0 .838.363.862.819 0 .019-.006.031-.006.05s0 .031.006.05a.869.869 0 0 1-.862.819zm9.85 0a.867.867 0 0 1-.869-.869c0-.475.387-.869.869-.869s.869.387.869.869a.867.867 0 0 1-.869.869zm9.825 0a.872.872 0 0 1-.856-.725c.012-.044.025-.087.025-.137s-.006-.094-.025-.137a.867.867 0 0 1 .856-.725c.481 0 .869.387.869.869a.872.872 0 0 1-.869.856z"/></svg>