<svg xmlns="http://www.w3.org/2000/svg" viewBox="0 0 32 32"><path fill="#5e686b" d="M13.319 30.856H5.363c-1.225 0-2.225-.994-2.225-2.225V5.568c.563.588 1.35.95 2.225.95h22.119v5.538c0 .238.194.431.431.431s.431-.194.431-.431V6.087c0-.237-.194-.431-.431-.431H5.363c-1.225 0-2.225-1-2.225-2.225s1-2.225 2.225-2.225h22.544c.238 0 .431-.194.431-.431s-.194-.431-.431-.431H5.363c-1.7.013-3.081 1.394-3.081 3.094 0 .163.013.325.038.487a.4173.4173 0 0 0-.038.175v24.538c0 1.7 1.381 3.081 3.081 3.081h7.956c.238 0 .431-.194.431-.431s-.194-.431-.431-.431z"/><path fill="#5e686b" d="M22.606 14.944c-4.625 0-8.387 3.763-8.387 8.387s3.762 8.387 8.387 8.387 8.387-3.762 8.387-8.387-3.762-8.387-8.387-8.387zm0 15.912c-4.15 0-7.531-3.375-7.531-7.525S18.45 15.8 22.606 15.8c4.15 0 7.525 3.375 7.525 7.531 0 4.15-3.375 7.525-7.525 7.525z"/><path id="svg-ico" fill="#ee5586" d="m24.956 23.694-1.919 1.919v-5.594c0-.238-.194-.431-.431-.431s-.431.194-.431.431v5.594l-1.919-1.919c-.169-.169-.438-.169-.606 0s-.169.438 0 .606l2.65 2.65c.081.081.188.125.306.125s.225-.044.306-.125l2.65-2.65c.169-.169.169-.438 0-.606s-.438-.169-.606 0z"/><path fill="#5e686b" d="M5.362 3.006c-.237 0-.431.194-.431.431s.194.431.431.431h21.219c.238 0 .431-.194.431-.431s-.194-.431-.431-.431H5.362z"/></svg>