<svg xmlns="http://www.w3.org/2000/svg" viewBox="0 0 32 32"><path fill="#5e686b" d="M.9 8.9a.4.4 0 0 1-.4-.5V1a.4.4 0 0 1 .8 0v7.5c0 .3-.2.5-.4.5z"/><path fill="#5e686b" d="M8.4 1.3H1a.4.4 0 0 1 0-.8h7.5a.4.4 0 0 1 0 .8zm22.7 0h-7.5a.4.4 0 0 1 0-.8H31a.4.4 0 0 1 0 .8z"/><path fill="#5e686b" d="M31.1 8.9a.4.4 0 0 1-.4-.5V1a.4.4 0 0 1 .9 0v7.5c0 .3-.2.5-.5.5zm0 22.7a.4.4 0 0 1-.4-.5v-7.5a.4.4 0 0 1 .9 0V31c0 .3-.2.5-.5.5z"/><path fill="#5e686b" d="M31.1 31.6h-7.5a.4.4 0 0 1 0-.9H31c.3 0 .4.2.4.4 0 .3-.1.5-.4.5zm-22.7 0H1a.4.4 0 0 1 0-.9h7.5a.4.4 0 0 1 0 .9z"/><path fill="#5e686b" d="M.9 31.6a.4.4 0 0 1-.4-.5v-7.5a.4.4 0 0 1 .8 0V31c0 .3-.2.5-.4.5z"/><path id="svg-ico" fill="#ee5586" d="M16 20a4.6 4.6 0 1 1 0-9.2 4.6 4.6 0 0 1 0 9.2zm0-8.4a3.8 3.8 0 1 0 0 7.6 3.8 3.8 0 0 0 0-7.6z"/></svg>