<svg xmlns="http://www.w3.org/2000/svg" viewBox="0 0 32 32"><path fill="#5e686b" d="M16.256 31.706C8.643 31.706 2.45 25.512 2.45 17.9c0-5.694 3.412-10.725 8.694-12.825.225-.088.475.019.563.244s-.019.475-.244.563c-4.95 1.969-8.144 6.688-8.144 12.019 0 7.131 5.806 12.938 12.938 12.938s12.938-5.8 12.938-12.938c0-5.331-3.2-10.05-8.144-12.019a.434.434 0 0 1 .319-.807c5.281 2.1 8.694 7.138 8.694 12.825 0 7.613-6.194 13.806-13.806 13.806z"/><path id="svg-ico" fill="#ee5586" d="M16.256 11.719a.432.432 0 0 1-.431-.431V.863a.432.432 0 0 1 .862 0v10.425a.432.432 0 0 1-.431.431z"/></svg>