<svg xmlns="http://www.w3.org/2000/svg" viewBox="0 0 32 32"><path fill="#5e686b" d="M27.62 31.75H4.92a.42.42 0 0 1-.43-.42V.77c0-.24.19-.42.42-.42h3.42c.24 0 .43.18.43.42s-.2.43-.43.43H5.35v29.7h21.84V1.2h-15c-.24 0-.43-.18-.43-.42s.2-.42.43-.42h15.43c.24 0 .42.18.42.42v30.55c0 .23-.19.42-.42.42z"/><path id="svg-ico" fill="#ee5586" d="M23.09 11.3H9.72a.43.43 0 0 1 0-.85H23.1c.24 0 .43.18.43.42s-.2.42-.43.42zm-.26 4.24H10a.43.43 0 1 1 0-.85h12.84c.24 0 .43.18.43.42s-.2.43-.43.43zm-5.43 4.24h-7.16c-.23 0-.42-.19-.42-.42s.19-.43.42-.43h7.15c.24 0 .43.19.43.43s-.19.42-.43.42z"/><path fill="#5e686b" d="M22.83 19.78H20.6c-.23 0-.42-.19-.42-.42s.19-.43.42-.43h2.24a.42.42 0 1 1 0 .85z"/></svg>