<svg xmlns="http://www.w3.org/2000/svg" viewBox="0 0 32 32"><path fill="#5e686c" d="M14.47 31.52H5.65a.4.4 0 0 1-.33-.15c-.08-.1-.1-.23-.08-.36l1.08-4.77a.42.42 0 0 1 .5-.32c.22.05.37.27.32.5l-.96 4.27h7.96l1.48-6.75a.44.44 0 0 1 .42-.33h2.85c5.32 0 9.49-3.27 10.6-8.33.7-3.22-.3-5.32-1.26-6.53A7.03 7.03 0 0 0 26.11 7c-.2-.12-.27-.37-.16-.57s.37-.28.57-.17a7.9 7.9 0 0 1 2.36 1.97c1.08 1.35 2.2 3.7 1.43 7.24-1.2 5.46-5.7 9-11.42 9h-2.51l-1.5 6.74a.42.42 0 0 1-.4.32z"/><path id="svg-ico" fill="#ee5586" d="M6.72 26.75h-4.7a.4.4 0 0 1-.33-.16c-.08-.1-.1-.23-.08-.35L7.36.68c.05-.2.22-.33.41-.33h10.67c2.7 0 5.25 1.16 6.81 3.1.72.9 1.22 1.93 1.48 3.08.05.23-.1.45-.32.5a.42.42 0 0 1-.5-.32 6.7 6.7 0 0 0-1.32-2.74 7.9 7.9 0 0 0-6.15-2.78H8.1L2.54 25.9h4.19a.4.4 0 0 1 .41.42c0 .23-.18.42-.41.42z"/><path id="svg-ico" fill="#ee5586" d="M10.76 26.75H6.62a.42.42 0 0 1 0-.84h3.8l1.5-6.77a.4.4 0 0 1 .41-.33h2.86c5.35 0 9.53-3.3 10.65-8.38.3-1.4.31-2.7.03-3.9a.42.42 0 1 1 .82-.19c.32 1.31.3 2.75-.04 4.27-1.2 5.49-5.7 9.03-11.46 9.03h-2.54l-1.49 6.78a.4.4 0 0 1-.4.33z"/><path fill="#5e686c" d="M16.27 13.48h-2.99c-.12 0-.25-.06-.33-.16s-.1-.23-.08-.35l1.36-5.85a.42.42 0 0 1 .4-.32h3.12c.6 0 1.17.17 1.63.5.9.65 1.25 1.78.92 2.96a4.2 4.2 0 0 1-1.91 2.58 4 4 0 0 1-2.12.64zm-2.46-.84h2.46c.56 0 1.14-.18 1.67-.52a3.4 3.4 0 0 0 1.55-2.08c.24-.85.02-1.61-.59-2.05a1.96 1.96 0 0 0-1.14-.35h-2.78l-1.17 5z"/></svg>