<svg xmlns="http://www.w3.org/2000/svg" width="32" height="32" viewBox="0 0 32 32"><path fill="#5e686b" d="M27.06 5.16c-2.6-2.6-6.05-4.2-9.7-4.5a.42.42 0 1 0-.07.84 14.73 14.73 0 0 1 9.18 25.06 14.73 14.73 0 0 1-25.12-10.4A14.68 14.68 0 0 1 14.86 1.5c.23 0 .4-.2.39-.44a.42.42 0 0 0-.46-.4 15.54 15.54 0 0 0-9.73 26.5 15.52 15.52 0 0 0 22 0 15.58 15.58 0 0 0 0-22z"/><path id="svg-ico" fill="#ee5586" d="M17.56 16.26c-1.97 1.97-2.75 2.21-2.94 2.24l-.11-.11c-.58-.58-1.17-1.18-2.14-1.18-.74 0-1.56.38-2.58 1.19-.9.72-1.34 1.45-1.37 2.23-.03.56.17 1.04.46 1.46a5.18 5.18 0 0 0-2.17 2.61c-.08.22.04.46.26.54a.42.42 0 0 0 .53-.27 4.42 4.42 0 0 1 1.92-2.22l.47.46.3.29c.43.42 1.08.65 1.88.65 1.1 0 2.5-.42 3.93-1.17 1.6-.82 3.23-2.06 4.72-3.56a18.11 18.11 0 0 0 4.19-6.11c.34-.92.52-1.77.53-2.5 0-.82-.22-1.5-.65-1.92l-.28-.3c-.6-.62-1.4-1.48-2.5-1.48-.81 0-1.57.45-2.32 1.38-.93 1.17-1.3 2.05-1.17 2.88.11.8.64 1.32 1.16 1.84l.12.12c-.01.1-.1.35-.36.76-.37.57-1 1.3-1.88 2.17zm2.9-3.49-.19-.18c-.45-.44-.84-.83-.91-1.35-.09-.57.22-1.26 1-2.22.57-.71 1.11-1.06 1.65-1.06.73 0 1.35.64 1.88 1.2l.3.32c.27.27.4.73.4 1.33a6.6 6.6 0 0 1-.48 2.2 17.3 17.3 0 0 1-3.99 5.82 18.9 18.9 0 0 1-4.52 3.4 8.07 8.07 0 0 1-3.53 1.08c-.57 0-1.03-.15-1.28-.4l-.32-.3c-.58-.56-1.24-1.18-1.2-1.95.01-.52.36-1.05 1.05-1.6.85-.68 1.52-1.02 2.04-1.02.62 0 1.02.42 1.59 1l.12.11c.59.59 1.96-.17 4.08-2.3.91-.9 1.58-1.69 1.99-2.32.55-.82.65-1.42.32-1.75z"/></svg>