<svg xmlns="http://www.w3.org/2000/svg" viewBox="0 0 32 32"><path id="svg-ico" fill="#ee5586" d="M22.7 15.6a3.5 3.5 0 0 1 0-7 3.5 3.5 0 0 1 0 7zm0-6.2a2.7 2.7 0 1 0 0 5.4 2.7 2.7 0 0 0 0-5.4zM.7 31.3H.4a.4.4 0 0 1 0-.7l9.5-14.8c.1-.2.3-.2.4-.2.2 0 .3 0 .4.2l4.5 8 2.5-3.1c0-.1.1-.2.3-.2.1 0 .2 0 .3.2l7.6 10v.5c-.3.2-.5.1-.7 0L18 21.5 15.5 25l-.3.2-.4-.2-4.5-8L1 31l-.3.2z"/><path fill="#5e686c" d="M31.2 31.3H.7a.4.4 0 0 1-.4-.4V.9C.3.6.4.5.7.5h30.5c.2 0 .4.1.4.4v30c0 .2-.2.4-.4.4zM1 30.4h29.7v-29H1v29z"/></svg>