<svg xmlns="http://www.w3.org/2000/svg" viewBox="0 0 32 32"><path id="svg-ico" fill="#ee5586" d="M16 31.8a.4.4 0 0 1-.4-.4v-16c0-.2.2-.3.4-.3s.4.1.4.4v16c0 .1-.2.3-.4.3z"/><path fill="#5e686c" d="M24 16H8c-.3 0-.5-.3-.5-.5s.2-.4.4-.4h16.2c.2 0 .4.1.4.4 0 .2-.2.4-.4.4zM21.6 1H9.7c-.2 0-.4-.2-.4-.4s.2-.4.4-.4h12c.1 0 .3.1.3.4s-.2.4-.4.4z"/><path fill="#5e686c" d="M10.6 16a.4.4 0 0 1-.4-.5l1.1-15c0-.2.2-.3.5-.3s.4.2.3.4l-1 15c0 .1-.3.3-.5.3zm10.8 0a.4.4 0 0 1-.4-.5L19.2.6c0-.2.1-.4.3-.4.3 0 .5.1.5.3l1.8 15c0 .2-.1.4-.4.4z"/></svg>