<svg xmlns="http://www.w3.org/2000/svg" viewBox="0 0 32 32"><path fill="#5e686c" d="M9.6 31.9h-.2a.6.6 0 0 1-.5-.6c-.2-1.6-.5-4.4 0-6.9l2.3-9.5c-.1-.4-.5-1.4-.5-2.8 0-2.9 1.7-5 3.9-5 1.7 0 2.8 1.2 2.8 3a14 14 0 0 1-.9 4l-.7 2.4c-.2.7 0 1.4.4 2 .5.6 1.2.9 2 .9 3 0 5.2-3.9 5.2-9 0-3.9-2.7-6.3-7-6.3-4 0-8.3 2.8-8.3 8 0 1.3.3 2.4 1 3.2.5.5.5.8.4 1.4l-.2.6-.2.8a1 1 0 0 1-.5.7c-.3.1-.6.2-1 0-.2 0-.3-.3-.2-.5s.3-.4.6-.3h.2l.3-.9.2-.5-.2-.6c-.9-1-1.3-2.3-1.3-3.8 0-4.3 3.2-8.9 9.2-8.9 4.8 0 7.9 2.8 7.9 7.2 0 5.6-2.6 9.9-6 9.9-1.2 0-2.2-.5-2.8-1.3-.6-.7-.8-1.7-.5-2.7l.7-2.4c.4-1.5.8-2.8.8-3.8 0-.5-.1-2.2-2-2.2-1.6 0-3 1.8-3 4.2a6 6 0 0 0 .6 2.6v.3l-2.3 9.6c-.5 2.3-.3 5 0 6.3l.2.1c.2.1.2.4 0 .6 0 .2-.2.3-.4.3z"/><path id="svg-ico" fill="#ee5586" d="M9.7 30.7c.8-1 2.3-3.2 2.9-5.3l1.2-4.8c0-.2.2-.3.4-.4.2 0 .3.1.4.3.5 1 2.2 2 4 2 5.4 0 9.2-4.9 9.2-11.7 0-4.8-4-9.8-10.9-9.8C11.8 1 4.6 4.3 4.6 11.7c0 3.1 1.2 5.5 3.4 6.3a.4.4 0 1 1-.3.8c-2.5-1-4-3.6-4-7.1C3.7 4.5 10.4.2 17 .2c7.4 0 11.8 5.4 11.8 10.5 0 7.3-4.3 12.6-10.1 12.6a6 6 0 0 1-4.2-1.7l-1 4a19 19 0 0 1-3.3 6s-.5-.8-.4-.9z"/></svg>