<svg xmlns="http://www.w3.org/2000/svg" viewBox="0 0 32 32"><path id="svg-ico" fill="#ee5586" d="M23.6 21.6c-.1 0-.2 0-.3-.2L2.7 1.4a.4.4 0 0 1 0-.6c.1-.2.4-.2.6 0l20.6 20c.1.2.2.5 0 .6l-.3.2z"/><path id="svg-ico" fill="#ee5586" d="M3 31.3h-.3a.4.4 0 0 1 0-.7l20.6-20c.1-.2.4-.2.6 0s.1.4 0 .5L3.3 31.2l-.3.1z"/><path fill="#5e686c" d="M4.3 31.7a3.1 3.1 0 0 1-3-3.1V3.4A3 3 0 0 1 2.8.7c.9-.6 2-.6 3 0l23 12.5c1 .6 1.7 1.6 1.7 2.8s-.6 2.2-1.6 2.7l-23 12.6a3 3 0 0 1-1.6.4zm0-30.6A2.3 2.3 0 0 0 2 3.4v25.2c0 .8.5 1.5 1.2 2 .7.3 1.5.4 2.2 0l23-12.6c.8-.4 1.2-1.2 1.2-2 0-.9-.4-1.6-1.1-2L5.5 1.4 4.2 1z"/></svg>