<svg xmlns="http://www.w3.org/2000/svg" viewBox="0 0 32 32"><path id="svg-ico" fill="#ee5586" d="M12 10.4a.4.4 0 0 1-.5-.4V.7a.4.4 0 0 1 .8 0V10c0 .2-.1.4-.4.4zm8.8 0a.4.4 0 0 1-.5-.4V.7a.4.4 0 0 1 .9 0V10c0 .2-.2.4-.4.4z"/><path fill="#5e686c" d="M12.7 31.8H6a.4.4 0 0 1 0-.8h6.7c1.8 0 3.2-1.5 3.2-3.3a.4.4 0 0 1 .9 0c0 2.3-1.9 4.1-4.1 4.1z"/><path fill="#5e686c" d="M24.4 28.1H7.5c-1 0-1.9-.8-1.9-1.8V11.5a2 2 0 0 1 1.9-1.9h17c1 0 1.8.9 1.8 2v14.7c0 1-.8 1.8-1.9 1.8zM7.5 10.5a1 1 0 0 0-1 1v14.8c0 .5.4 1 1 1h17c.5 0 1-.5 1-1V11.5c0-.5-.5-1-1-1h-17z"/></svg>