<svg xmlns="http://www.w3.org/2000/svg" viewBox="0 0 32 32"><path fill="#5e686b" d="M15.98 31.67A15.69 15.69 0 0 1 .31 16C.31 8.03 6.28 1.33 14.2.43c.24-.03.46.14.48.38s-.14.46-.38.48a14.81 14.81 0 0 0 1.69 29.5 14.81 14.81 0 0 0 1.7-29.5.43.43 0 0 1-.39-.48.42.42 0 0 1 .48-.38c7.92.9 13.88 7.6 13.88 15.57 0 8.64-7.03 15.67-15.67 15.67z"/><path id="svg-ico" fill="#ee5586" d="M15.98 24.27a.44.44 0 0 1-.44-.44V8.16c0-.24.2-.44.44-.44s.44.2.44.44v15.67c0 .25-.2.44-.44.44z"/><path id="svg-ico" fill="#ee5586" d="M23.82 16.43H8.15c-.24 0-.44-.2-.44-.44s.2-.43.44-.43h15.67a.44.44 0 1 1 0 .87z"/></svg>