<svg xmlns="http://www.w3.org/2000/svg" viewBox="0 0 32 32"><path fill="#5e686b" d="M15.46 29.11v.02a16 16 0 0 1-.88 1.69H9.73a18.3 18.3 0 0 1-2.48-8.93 17.6 17.6 0 0 1 2.6-9.05.4.4 0 0 0 .07-.24V9.94c0-1.5-.4-2.6-.76-3.59a6.77 6.77 0 0 1-.57-2.4c0-1.21 1.1-2.91 3.57-2.91 2.47 0 3.58 1.7 3.58 2.9a6.8 6.8 0 0 1-.57 2.41 9.68 9.68 0 0 0-.76 3.59v2.66c0 .08.02.17.07.24.01.02 1.33 1.99 2.08 4.95.01.05.04.1.07.15.2-.2.45-.35.72-.46-.7-2.7-1.8-4.54-2.1-5V9.94c0-1.35.36-2.35.71-3.3.32-.86.62-1.69.62-2.69 0-1.56-1.37-3.75-4.4-3.75C9.4.2 7.75 2.1 7.75 3.95c0 1 .3 1.83.62 2.7.35.95.71 1.94.71 3.29v2.54c-.44.69-2.66 4.41-2.66 9.4 0 5.43 2.62 9.42 2.73 9.59.08.12.21.19.35.19h5.33c.13 0 .27-.07.35-.2.01-.02.46-.7.99-1.85a2.23 2.23 0 0 1-.71-.5z"/><path id="svg-ico" fill="#ee5586" d="M20.64 31.66a7.75 7.75 0 0 1 0-15.5 7.75 7.75 0 0 1 0 15.5zm0-14.65a6.9 6.9 0 1 0 0 13.81 6.9 6.9 0 0 0 0-13.8z"/><path fill="#5e686b" d="M14.82 13.02H9.49a.42.42 0 0 1 0-.84h5.33a.42.42 0 0 1 0 .84z"/></svg>