<svg xmlns="http://www.w3.org/2000/svg" viewBox="0 0 32 32"><path fill="#5e686c" d="M25.6 31.7h-19c-.3 0-.5-.2-.5-.4s.2-.4.5-.4h19a.4.4 0 0 1 0 .8z"/><path fill="#5e686c" d="M6.6 31.7c-.2 0-.3 0-.4-.2-.1-.2 0-.5.2-.6 3-1.4 5-4.5 5-7.8 0-2.5-2.8-6.4-2.9-6.4A9.8 9.8 0 0 1 6.1 10a10 10 0 0 1 20 0 .4.4 0 0 1-.9 0c0-5-4-9.1-9-9.1S7 5 7 10a9 9 0 0 0 2.2 6.1c.2.2 3 4.3 3 7a9.5 9.5 0 0 1-5.6 8.6z"/><path id="svg-ico" fill="#ee5586" d="M23.4 17.4H6.6c-.3 0-.5-.2-.5-.4s.2-.4.5-.4h16.8a.4.4 0 0 1 0 .8z"/></svg>