<svg xmlns="http://www.w3.org/2000/svg" viewBox="0 0 32 32"><path fill="#5e686b" d="M4.888 10V1.012a.42.42 0 0 0-.838 0V10c-1.644.206-2.919 1.613-2.919 3.313s1.275 3.106 2.919 3.313v14.363a.42.42 0 0 0 .838 0V16.62a3.335 3.335 0 0 0 0-6.619zm-.413 5.813c-1.381 0-2.506-1.125-2.506-2.506s1.125-2.506 2.506-2.506c1.381 0 2.5 1.125 2.5 2.506s-1.125 2.506-2.5 2.506z"/><path id="svg-ico" fill="#ee5586" d="M16.419 5.388V1.013a.42.42 0 0 0-.838 0v4.375C13.937 5.594 12.662 7 12.662 8.7s1.275 3.106 2.919 3.313v18.975a.42.42 0 0 0 .838 0V12.013c1.644-.206 2.919-1.613 2.919-3.313s-1.275-3.106-2.919-3.313zM16 11.2c-1.381 0-2.506-1.125-2.506-2.506S14.619 6.188 16 6.188c1.381 0 2.5 1.125 2.5 2.506S17.381 11.2 16 11.2z"/><path fill="#5e686b" d="M30.863 24.837c0-1.7-1.275-3.106-2.919-3.313V1.012a.42.42 0 0 0-.838 0v20.512c-1.644.206-2.919 1.613-2.919 3.313s1.275 3.106 2.919 3.313v2.837a.42.42 0 0 0 .838 0V28.15a3.342 3.342 0 0 0 2.919-3.313zm-3.338 2.507c-1.381 0-2.506-1.125-2.506-2.506s1.125-2.506 2.506-2.506c1.381 0 2.5 1.125 2.5 2.506s-1.119 2.506-2.5 2.506z"/></svg>