<svg xmlns="http://www.w3.org/2000/svg" viewBox="0 0 32 32"><path id="svg-ico" fill="#ee5586" d="M24.99 9.82a.42.42 0 0 1-.43-.42V1.27h-17V9.4c0 .24-.18.42-.42.42s-.42-.18-.42-.42V.85c0-.24.19-.43.42-.43H25c.24 0 .43.2.43.43V9.4c0 .24-.2.42-.43.42z"/><path fill="#5e686c" d="M31.31 25.51h-6.2c-.23 0-.42-.19-.42-.42s.19-.43.42-.43h5.78V9.82H1.24v14.83h5.77a.43.43 0 1 1 0 .85H.81a.42.42 0 0 1-.42-.42V9.39c0-.24.2-.42.43-.42h30.5c.23 0 .42.18.42.42v15.69c0 .24-.19.43-.43.43z"/><path fill="#5e686c" d="M25.11 31.4H7.01a.42.42 0 0 1-.42-.43V17.95c0-.24.2-.43.43-.43h18.1c.24 0 .42.2.42.43v13.01c0 .24-.19.43-.43.43zm-17.67-.86H24.7V18.38H7.44v12.16z"/><path id="svg-ico" fill="#ee5586" d="M26.6 15.6a1.91 1.91 0 1 1 0-3.83 1.91 1.91 0 0 1 0 3.82zm0-2.98a1.06 1.06 0 1 0 0 2.12 1.06 1.06 0 0 0 0-2.12z"/></svg>