<svg xmlns="http://www.w3.org/2000/svg" width="32" height="32" viewBox="0 0 32 32"><path fill="#5e686b" d="M31.69 3.69a.34.34 0 0 0-.34-.34H.56a.34.34 0 0 0-.3.34v24.6c0 .19.14.34.33.34h30.75c.19 0 .34-.15.34-.34V3.69zm-.68.34V9.5H.94V4.03H31zM.94 27.95V10.18H31v17.77H.94z"/><path fill="#5e686b" d="M5.1 8.02a1.36 1.36 0 1 0 0-2.72 1.36 1.36 0 0 0 0 2.72zm0-2.04a.68.68 0 0 1 0 1.36.68.68 0 0 1 0-1.36zm4.83 2.04c.75 0 1.36-.61 1.36-1.36a1.37 1.37 0 0 0-2.72 0c0 .75.61 1.36 1.36 1.36zm0-2.04a.68.68 0 0 1 0 1.36.68.68 0 0 1 0-1.36zm4.83 2.04c.75 0 1.37-.61 1.37-1.36a1.37 1.37 0 0 0-2.73 0c0 .75.61 1.36 1.36 1.36zm0-2.04a.68.68 0 0 1 0 1.36.68.68 0 0 1 0-1.36z"/><path id="svg-ico" fill="#ee5586" d="M15.97 16.72a4.42 4.42 0 1 0 .01 8.84 4.42 4.42 0 0 0 0-8.84zm0 8.16a3.74 3.74 0 1 1 0-7.48 3.74 3.74 0 0 1 0 7.48z"/><path id="svg-ico" fill="#ee5586" d="M15.97 20.08a.34.34 0 0 0-.33.34v2.04c0 .18.15.33.33.33s.34-.15.34-.33v-2.04a.34.34 0 0 0-.33-.34zm-2.1-3.72c.19 0 .34-.15.34-.33v-1.35c0-.56.45-1.02 1.02-1.02h1.5c.56 0 1.01.46 1.01 1.02v1.35c0 .18.15.33.34.33s.34-.15.34-.33v-1.35c0-.93-.76-1.7-1.7-1.7h-1.5a1.7 1.7 0 0 0-1.69 1.7v1.35c0 .18.15.33.34.33z"/></svg>