<svg xmlns="http://www.w3.org/2000/svg" viewBox="0 0 32 32"><path id="svg-ico" fill="#ee5586" d="M26.462 27.644c-1.837 0-3.337-1.5-3.337-3.337s1.494-3.337 3.337-3.337 3.337 1.5 3.337 3.337a3.34 3.34 0 0 1-3.337 3.337zm0-5.838a2.503 2.503 0 0 0-2.5 2.5c0 1.381 1.125 2.5 2.5 2.5s2.5-1.125 2.5-2.5-1.119-2.5-2.5-2.5zm-8.512 9.857c-1.837 0-3.338-1.494-3.338-3.337s1.5-3.337 3.338-3.337 3.337 1.5 3.337 3.337c0 1.837-1.5 3.337-3.337 3.337zm0-5.844a2.509 2.509 0 0 0-2.506 2.5 2.503 2.503 0 0 0 5.006 0c0-1.375-1.119-2.5-2.5-2.5zm7.269-14.044c-1.837 0-3.337-1.5-3.337-3.338s1.494-3.338 3.337-3.338c1.837 0 3.337 1.5 3.337 3.338s-1.5 3.338-3.337 3.338zm0-5.837a2.503 2.503 0 0 0-2.5 2.5c0 1.381 1.125 2.5 2.5 2.5 1.381 0 2.5-1.125 2.5-2.5s-1.125-2.5-2.5-2.5z"/><path id="svg-ico" fill="#ee5586" d="M20.031 14.075a.42.42 0 0 1-.294-.125.415.415 0 0 1 0-.588l3.144-3.144a.415.415 0 1 1 .587.588l-3.144 3.144a.392.392 0 0 1-.294.125zm4.413 8.544a.397.397 0 0 1-.294-.125l-4.375-4.375a.414.414 0 1 1 .587-.587l4.375 4.375a.42.42 0 0 1-.294.712zm-6.45 3.2a.42.42 0 0 1-.419-.419v-6.731a.42.42 0 0 1 .838 0V25.4a.415.415 0 0 1-.419.419z"/><path fill="#5e686c" d="M5.794 19.087c-1.837 0-3.337-1.5-3.337-3.338s1.5-3.338 3.337-3.338 3.337 1.5 3.337 3.338c0 1.844-1.5 3.338-3.338 3.338zm0-5.837c-1.381 0-2.5 1.125-2.5 2.5s1.125 2.5 2.5 2.5 2.5-1.125 2.5-2.5a2.5 2.5 0 0 0-2.5-2.5zm0-6.45c-1.837 0-3.337-1.5-3.337-3.337S3.951.126 5.794.126s3.337 1.5 3.337 3.337c0 1.837-1.5 3.337-3.338 3.337zm0-5.844c-1.381 0-2.5 1.125-2.5 2.5s1.125 2.5 2.5 2.5 2.5-1.125 2.5-2.5-1.119-2.5-2.5-2.5zm12.2 18.131c-1.837 0-3.338-1.5-3.338-3.338s1.494-3.338 3.338-3.338 3.337 1.5 3.337 3.338c0 1.844-1.5 3.338-3.337 3.338zm0-5.837c-1.381 0-2.5 1.125-2.5 2.5s1.125 2.5 2.5 2.5a2.5 2.5 0 1 0 0-5z"/><path fill="#5e686c" d="M15.906 14.075a.42.42 0 0 1-.294-.125L7.518 5.862a.416.416 0 0 1 .588-.588l8.094 8.094a.415.415 0 0 1-.294.707zm-.831 2.094H8.712a.42.42 0 0 1 0-.838h6.363a.42.42 0 0 1 .419.419.423.423 0 0 1-.419.419z"/></svg>