<svg xmlns="http://www.w3.org/2000/svg" viewBox="0 0 32 32"><path id="svg-ico" fill="#ee5586" d="M3.3 12H3a.4.4 0 0 1 0-.6L13.6.5a.4.4 0 1 1 .6.6L3.6 12l-.3.2z"/><path id="svg-ico" fill="#ee5586" d="M13.9 6.7a.4.4 0 0 1-.4-.4v-5h-5c-.2 0-.4-.2-.4-.5s.2-.4.4-.4H14c.2 0 .4.2.4.4v5.5c0 .2-.2.4-.4.4z"/><path fill="#5e686b" d="M30.9 31.7H1c-.2 0-.4-.2-.4-.4s.2-.4.4-.4h29.8c.2 0 .4.2.4.4s-.2.4-.4.4zm-5.7-4.6a.4.4 0 0 1-.5-.4V1c0-.2.2-.4.5-.4s.4.2.4.4v25.6c0 .2-.2.4-.4.4zm-9.2 0a.4.4 0 0 1-.4-.4V11.4c0-.3.2-.5.4-.5s.4.2.4.5v15.3c0 .2-.2.4-.4.4zm-9.8 0a.4.4 0 0 1-.4-.4v-8.5c0-.3.2-.5.4-.5s.4.2.4.5v8.5c0 .2-.2.4-.4.4z"/></svg>