<svg xmlns="http://www.w3.org/2000/svg" viewBox="0 0 32 32"><path fill="#5e686c" d="M16.34 31.79c-5.58 0-10.16-5.76-10.44-13.1 0-.24.17-.43.4-.44.23-.02.42.17.43.4.26 6.9 4.48 12.3 9.61 12.3 5.14 0 9.37-5.4 9.62-12.3 0-.23.2-.42.43-.4.23 0 .4.2.4.43-.28 7.35-4.87 13.1-10.45 13.1zm10.98-18.68a.41.41 0 0 1-.4-.3c-1.28-4.55-4.46-7.98-8.3-8.95a.42.42 0 0 1-.3-.5.42.42 0 0 1 .5-.3c4.14 1.04 7.55 4.7 8.9 9.53a.42.42 0 0 1-.28.51l-.12.01zM5.36 13.1h-.11a.42.42 0 0 1-.29-.52c1.36-4.83 4.77-8.48 8.9-9.53a.42.42 0 0 1 .2.8c-3.84.98-7.02 4.41-8.3 8.96a.44.44 0 0 1-.4.3zm10.98-9.53a.41.41 0 0 1-.4-.41V.66a.4.4 0 0 1 .4-.41c.24 0 .42.19.42.41v2.49c0 .23-.18.42-.42.42z"/><path id="svg-ico" fill="#ee5586" d="M16.34 21.96a.41.41 0 0 1-.4-.41v-8.86c0-.23.18-.4.4-.4a.4.4 0 0 1 .42.4v8.86a.4.4 0 0 1-.42.41z"/><path fill="#5e686c" d="M16.34 31.51a.41.41 0 0 1-.4-.41v-6.63a.41.41 0 1 1 .82 0v6.63a.4.4 0 0 1-.42.41z"/><path id="svg-ico" fill="#ee5586" d="M16.34 21.96c-.03 0-.08 0-.12-.02l-11.6-3.57a.42.42 0 1 1 .24-.79l11.6 3.58c.22.06.35.3.28.51a.41.41 0 0 1-.4.3z"/><path id="svg-ico" fill="#ee5586" d="M16.34 21.96a.4.4 0 0 1-.39-.3.42.42 0 0 1 .28-.51l11.58-3.57a.42.42 0 1 1 .25.8l-11.6 3.57-.12.01zm12.43-8.86H3.91a.41.41 0 1 1 0-.82h24.86a.41.41 0 1 1 0 .83z"/><path id="svg-ico" fill="#ee5586" d="M4.74 18.4a.4.4 0 0 1-.4-.36l-.84-5.28a.42.42 0 0 1 .82-.13l.83 5.28a.42.42 0 0 1-.34.47l-.07.01zm23.19 0-.07-.01a.42.42 0 0 1-.34-.48l.84-5.28a.41.41 0 0 1 .48-.34.4.4 0 0 1 .34.47l-.84 5.28a.4.4 0 0 1-.4.35zm-3.21-1.15a.41.41 0 0 1-.41-.41v-4.15a.41.41 0 0 1 .82 0v4.15a.4.4 0 0 1-.41.41zm-16.73 0a.41.41 0 0 1-.42-.41v-4.15a.41.41 0 0 1 .83 0v4.15a.4.4 0 0 1-.41.41zm12.32 1.66a.41.41 0 0 1-.41-.41v-5.8a.41.41 0 0 1 .83 0v5.8a.4.4 0 0 1-.42.41zm-7.84 0a.41.41 0 0 1-.4-.41v-5.8a.41.41 0 0 1 .82 0v5.8a.4.4 0 0 1-.42.41z"/><path fill="#5e686c" d="M19.24 1.08h-5.8a.41.41 0 0 1 0-.82h5.8a.41.41 0 1 1 0 .82zM18 7.83h-3.31a.41.41 0 0 1 0-.83H18a.41.41 0 1 1 0 .83z"/><path fill="#5e686c" d="M14.69 7.83a.41.41 0 0 1-.4-.34L13.02.74a.4.4 0 0 1 .33-.48.4.4 0 0 1 .48.33l1.25 6.74a.4.4 0 0 1-.33.48l-.07.01zm3.31 0-.07-.01a.41.41 0 0 1-.34-.48L18.84.59a.4.4 0 0 1 .48-.33c.22.04.37.25.33.48l-1.24 6.74a.4.4 0 0 1-.41.35z"/></svg>