<svg xmlns="http://www.w3.org/2000/svg" viewBox="0 0 32 32"><path fill="#5e686c" d="M19.2 30.9a.4.4 0 0 1-.4-.4v-7.9c0-.4-.4-.6-.8-.7-.5-.3-1.3-.4-2-.4-1.6 0-2.8.5-2.8 1.1v7.8a.4.4 0 0 1-.9 0v-7.8c0-1.4 1.8-2 3.7-2 1.8 0 3.6.7 3.6 2v7.8c0 .3-.2.5-.4.5zm-.9-16.2a.4.4 0 0 1-.5-.4v-3.7a.4.4 0 0 1 1 0v3.7c0 .2-.3.4-.5.4z"/><path fill="#5e686c" d="M22 13.3h-3.7a.4.4 0 0 1 0-.8H22a.4.4 0 0 1 0 .8zm9.2 17.6a.4.4 0 0 1-.4-.4v-12c0-.4-.2-.6-.5-.6h-5.1a.4.4 0 0 1 0-.8h5c.9 0 1.4.5 1.4 1.3v12c0 .3-.2.5-.4.5zm-30.5 0a.4.4 0 0 1-.4-.4v-12c0-.9.6-1.4 1.4-1.4h5c.3 0 .5.2.5.4s-.2.4-.5.4h-5c-.4 0-.5.2-.5.5v12c0 .3-.2.5-.5.5z"/><path fill="#5e686c" d="M7.2 30.9H.8a.4.4 0 0 1 0-.9h6.4c.2 0 .4.2.4.5s-.2.4-.4.4z"/><path id="svg-ico" fill="#ee5586" d="M24.7 30.9H7.2c-.2 0-.4-.2-.4-.4s.2-.5.4-.5h17.5a.4.4 0 0 1 0 .9z"/><path fill="#5e686c" d="M31.2 30.9h-6.5a.4.4 0 0 1 0-.9h6.5c.2 0 .4.2.4.5s-.2.4-.4.4zm-20.4-13a.4.4 0 0 1-.4-.5v-2.7a.4.4 0 0 1 .8 0v2.7c0 .3-.2.5-.4.5z"/><path id="svg-ico" fill="#ee5586" d="M24.7 30.9a.4.4 0 0 1-.4-.4V11.3L28 5.8v-3c0-.4-.2-.6-.5-.6H23c-.3 0-.5.2-.5.5v2.8c0 .2-.2.4-.4.4h-2.8a.4.4 0 0 1-.4-.4V2.7c0-.3-.2-.5-.5-.5h-4.7c-.3 0-.4.2-.4.5v2.8c0 .2-.2.4-.5.4H10a.4.4 0 0 1-.5-.4V2.7c0-.3-.2-.5-.5-.5H4.4c-.3 0-.5.2-.5.5v3.1l3.6 5.5.1.2v19a.4.4 0 0 1-.8 0v-19L3 6.2V2.7c0-.8.5-1.3 1.3-1.3H9c.8 0 1.4.5 1.4 1.3v2.4h1.9V2.7c0-.8.6-1.3 1.4-1.3h4.6c.8 0 1.3.5 1.3 1.3v2.4h2V2.7c0-.8.5-1.3 1.3-1.3h4.6c.8 0 1.4.5 1.4 1.3V6l-.1.2-3.6 5.4v18.8c0 .3-.2.5-.5.5z"/></svg>