<svg xmlns="http://www.w3.org/2000/svg" viewBox="0 0 32 32"><path fill="#5e686b" d="M10.97.47H.88a.41.41 0 0 0-.41.41v10.09c0 .23.19.41.41.41h10.09c.23 0 .41-.19.41-.41V.88a.4.4 0 0 0-.41-.41zm-.41 10.09H1.3V1.3h9.26v9.26z"/><path fill="#5e686b" d="M4.68 7.59h2.5a.4.4 0 0 0 .4-.41v-2.5a.41.41 0 0 0-.4-.41h-2.5a.41.41 0 0 0-.41.41v2.5c0 .23.18.4.41.4zm.41-2.5h1.67v1.67H5.09V5.09zm5.88 15.55H.88a.41.41 0 0 0-.41.41v10.09c0 .23.19.41.41.41h10.09c.23 0 .41-.19.41-.41V21.06a.41.41 0 0 0-.41-.42zm-.41 10.09H1.3v-9.26h9.26v9.26z"/><path fill="#5e686b" d="M4.68 27.76h2.5a.4.4 0 0 0 .4-.41v-2.5a.41.41 0 0 0-.4-.4h-2.5a.41.41 0 0 0-.41.4v2.5c0 .22.18.41.41.41zm.41-2.5h1.67v1.67H5.09v-1.66z"/><path id="svg-ico" fill="#ee5586" d="M31.14.47H21.06a.41.41 0 0 0-.42.41v10.09c0 .23.2.41.42.41h10.08c.23 0 .42-.19.42-.41V.88a.42.42 0 0 0-.42-.41zm-.41 10.09h-9.25V1.3h9.25v9.26z"/><path id="svg-ico" fill="#ee5586" d="M24.85 7.59h2.5c.22 0 .4-.19.4-.41v-2.5a.41.41 0 0 0-.4-.41h-2.5a.41.41 0 0 0-.41.41v2.5c0 .23.18.4.41.4zm.42-2.5h1.66v1.67h-1.66V5.09z"/><path fill="#5e686b" d="M31.14 30.73h-1.6V26.1a.41.41 0 0 0-.82 0v1.6h-1.6a.41.41 0 0 0-.42.41v2.62h-4.2V27.1a.41.41 0 0 0-.42-.42h-5.64v-1.6c0-.23-.19-.4-.41-.4s-.41.18-.41.4v6.05a.41.41 0 1 0 .82 0v-3.61h5.22v3.61c0 .24.19.42.41.42h9.08c.23 0 .41-.2.41-.42s-.2-.41-.42-.41zm-3.62-2.2h1.2v2.2h-1.2v-2.2zM1.9 13.58a.41.41 0 0 0-.42.41v2.02c0 .23.19.41.41.41h5.64v1.6a.41.41 0 1 0 .83 0v-1.6h1.6a.41.41 0 0 0 0-.82H2.3V14a.42.42 0 0 0-.42-.42zm29.24 8.07h-3.62v-5.22h3.62a.41.41 0 0 0 0-.82h-1.6V14a.41.41 0 0 0-.82 0v1.6h-1.6a.41.41 0 0 0-.42.4v5.64h-6.65a.41.41 0 0 0 0 .83h11.1c.22 0 .4-.19.4-.41a.41.41 0 0 0-.4-.42zm-13.7-2.61v-2.61h4.21v1.6a.41.41 0 0 0 .83 0V16a.41.41 0 0 0-.42-.42h-6.64v-4.2h1.6c.23 0 .41-.2.41-.42s-.19-.41-.41-.41h-1.6V6.34h2.61a.4.4 0 0 0 .41-.4V1.88a.41.41 0 0 0-.82 0V5.5H15a.41.41 0 0 0-.4.42v13.1c0 .24.18.42.4.42h2.02a.4.4 0 0 0 .42-.41zm-.83-.41h-1.2v-2.2h1.2v2.2z"/></svg>