<svg xmlns="http://www.w3.org/2000/svg" viewBox="0 0 32 32"><path id="svg-ico" fill="#ee5586" d="M16.113 25.962c-1.2 0-2.175-.975-2.175-2.175s.975-2.175 2.175-2.175 2.175.975 2.175 2.175-.975 2.175-2.175 2.175zm0-3.474c-.719 0-1.306.587-1.306 1.306s.588 1.306 1.306 1.306c.719 0 1.306-.587 1.306-1.306a1.309 1.309 0 0 0-1.306-1.306z"/><path fill="#5e686b" d="M16.106 31.594C7.475 31.594.45 24.569.45 15.938S7.475.282 16.106.282c7.969 0 14.656 5.963 15.556 13.869a.435.435 0 0 1-.381.481.44.44 0 0 1-.481-.381c-.85-7.463-7.162-13.094-14.688-13.094C7.95 1.151 1.318 7.788 1.318 15.938s6.631 14.788 14.788 14.788c7.525 0 13.837-5.631 14.688-13.094a.435.435 0 0 1 .862.1c-.894 7.9-7.581 13.863-15.55 13.863z"/><path id="svg-ico" fill="#ee5586" d="M16.206 18.1a.44.44 0 0 1-.438-.438v-1.175c0-.675.213-1.281.625-1.794.363-.456.762-.906 1.194-1.35.413-.425.788-.881 1.119-1.35.3-.425.45-.925.45-1.525 0-.444-.069-.9-.206-1.344-.131-.425-.344-.806-.619-1.125s-.65-.581-1.119-.787c-.469-.206-1.05-.313-1.719-.313-.544 0-1.05.106-1.512.313s-.869.494-1.2.863a4.459 4.459 0 0 0-.819 1.363 5.237 5.237 0 0 0-.331 1.781.436.436 0 0 1-.438.425h-.012a.437.437 0 0 1-.425-.444 6.3 6.3 0 0 1 .387-2.075c.244-.631.569-1.181.981-1.631a4.4 4.4 0 0 1 1.488-1.075 4.531 4.531 0 0 1 1.869-.388c.794 0 1.488.131 2.069.388s1.063.594 1.425 1.013c.356.412.625.894.794 1.438.163.531.25 1.069.25 1.6 0 .775-.206 1.456-.606 2.025-.356.506-.762.994-1.2 1.456-.413.425-.794.856-1.137 1.287a1.945 1.945 0 0 0-.431 1.25v1.175a.44.44 0 0 1-.438.438z"/></svg>