<svg xmlns="http://www.w3.org/2000/svg" viewBox="0 0 32 32"><path fill="#5e686b" d="M30.9 13.29a.43.43 0 0 0 0-.86h-5.44V6.1h5.44a.43.43 0 0 0 0-.87h-5.44V.55c0-.24-.2-.43-.43-.43H6.58c-.24 0-.43.2-.43.43v4.7H1a.43.43 0 0 0 0 .86h5.15v6.32H1a.43.43 0 0 0 0 .86h5.15v6.32H1a.43.43 0 0 0 0 .86h5.15v6.32H1a.43.43 0 0 0 0 .86h5.15v3.66c0 .24.2.43.43.43h18.46c.23 0 .43-.2.43-.43v-3.67h5.44a.43.43 0 0 0 0-.86h-5.44v-6.32h5.44a.43.43 0 0 0 0-.86h-5.44v-6.31h5.43zm-6.3 17.6H7.02V.98h17.6v29.9z"/><path id="svg-ico" fill="#ee5586" d="M19.91 7.3h-8.2a.42.42 0 0 0-.43.42v16.41c0 .24.19.43.43.43h8.2c.24 0 .43-.2.43-.43V7.73a.44.44 0 0 0-.43-.44zm-.43 16.4h-7.34V8.17h7.34V23.7z"/></svg>