<svg xmlns="http://www.w3.org/2000/svg" viewBox="0 0 32 32"><path fill="#5e686b" d="M27.09 13.3a.43.43 0 0 1-.3-.12.42.42 0 0 1 0-.6l3.93-3.93-3.93-3.93c-.17-.17-.17-.44 0-.6s.43-.17.6 0l4.23 4.23c.17.17.17.44 0 .6l-4.23 4.23a.43.43 0 0 1-.3.13z"/><path fill="#5e686b" d="M17.64 13.3a.43.43 0 0 1-.35-.67l2.85-4.22a.42.42 0 0 1 .35-.2h10.83c.24 0 .42.2.42.43s-.2.43-.42.43h-10.6L18 13.1a.43.43 0 0 1-.35.2zM9.32 25.63H.62a.43.43 0 0 1 0-.86h8.47l2.98-4.4c.13-.2.4-.25.6-.11s.24.39.1.59l-3.1 4.59a.44.44 0 0 1-.35.19z"/><path id="svg-ico" fill="#ee5586" d="M27.09 29.88a.43.43 0 0 1-.3-.12.42.42 0 0 1 0-.6l3.93-3.94-3.93-3.93a.42.42 0 0 1 0-.6.42.42 0 0 1 .6 0l4.23 4.24c.17.17.17.44 0 .6l-4.23 4.23a.43.43 0 0 1-.3.12z"/><path id="svg-ico" fill="#ee5586" d="M31.25 25.65H20.5a.4.4 0 0 1-.35-.19L9.09 9.1H.61C.38 9.1.2 8.9.2 8.67s.2-.42.42-.42h8.7a.4.4 0 0 1 .36.19L20.72 24.8h10.53c.24 0 .42.2.42.42s-.19.43-.42.43z"/></svg>