<svg xmlns="http://www.w3.org/2000/svg" viewBox="0 0 32 32"><path fill="#5e686b" d="M14.41 27.88 8.82 13.46a.54.54 0 0 0-.5-.35c-.18.03-.42.14-.5.35l-1.04 2.8c-.25.68-.83 1.44-1.26 1.44H.89a.54.54 0 0 0 0 1.08h4.63c1.16 0 1.98-1.4 2.26-2.14l.55-1.48 2.59 6.65c3.01 7.77 3.22 8.32 3.57 8.32l.08-.01c.22-.03.4-.18.46-.4l.03-.19-.65-1.65z"/><path id="svg-ico" fill="#ee5586" d="M31.36 17.7h-4.38a1.36 1.36 0 0 1-1.2-1.02L22.1 2.88c-.07-.23-.28-.4-.52-.4s-.46.17-.52.4l-6.66 25 .64 1.65 6.54-24.42 3.15 11.85a2.44 2.44 0 0 0 2.2 1.82h4.42a.54.54 0 0 0 0-1.08z"/></svg>