<svg xmlns="http://www.w3.org/2000/svg" viewBox="0 0 32 32"><path fill="#5e686b" d="M25.62 14.7c-.05 0-.12 0-.2-.02l-4.89-.98a.43.43 0 0 1-.34-.51.44.44 0 0 1 .52-.35l4.9.99.05-.02.03-.1.96-4.83a.44.44 0 0 1 .86.18l-.98 4.9-.02.04-.03.1c-.04.07-.06.13-.1.18a1.7 1.7 0 0 1-.08.1l-.16.15a.3.3 0 0 1-.12.08l-.05.01a1 1 0 0 1-.35.07z"/><path fill="#5e686b" d="M25.83 14.64a.42.42 0 0 1-.37-.22l-6.59-11.5C18.16 1.68 17.25 1 16.32 1c-.93 0-1.85.7-2.57 1.94L10.7 7.45a.43.43 0 1 1-.72-.48L13 2.47C13.88.98 15.05.14 16.3.14s2.44.83 3.33 2.36L26.2 14c.12.2.04.47-.17.6a.42.42 0 0 1-.2.05zM10.4 16.96a.42.42 0 0 1-.4-.27l-1.97-4.9-.02-.02-.07-.02-4.87.98c-.24.05-.46-.1-.52-.34s.11-.47.34-.52l4.9-.98a.62.62 0 0 1 .21 0c.04-.02.07 0 .11 0 .1 0 .22.05.32.1l.06.05c.08.05.14.1.2.17.02.02.05.09.07.1l.07.15 1.96 4.89a.43.43 0 0 1-.25.56.22.22 0 0 1-.15.05z"/><path fill="#5e686b" d="M9.45 28.43H5.04c-1.68 0-3.03-.67-3.7-1.84-.72-1.24-.6-2.85.3-4.42l6.22-10.98c.12-.2.38-.28.6-.17.2.12.28.39.16.6L2.39 22.6c-.75 1.3-.85 2.59-.3 3.55.52.9 1.6 1.41 2.95 1.41h4.41c.24 0 .43.2.43.43s-.2.44-.43.44z"/><path id="svg-ico" fill="#ee5586" d="M15.32 28.46c-.23 0-.43-.2-.43-.43s.2-.44.43-.44H27.1c1.36-.02 2.44-.52 2.95-1.42.55-.95.44-2.23-.3-3.5l-2.02-4.57a.43.43 0 1 1 .8-.36l2 4.53c.87 1.52.99 3.12.28 4.34-.67 1.16-2.02 1.83-3.7 1.83l-11.78.02z"/><path id="svg-ico" fill="#ee5586" d="M18.41 31.75a.43.43 0 0 1-.3-.13l-2.88-2.88a.86.86 0 0 1-.33-.69v-.04c0-.24.1-.46.27-.63l2.94-2.94a.43.43 0 0 1 .62.61l-2.94 2.94v.07l.06.07L18.73 31c.17.17.17.45 0 .62-.1.08-.2.12-.32.12z"/></svg>