<svg xmlns="http://www.w3.org/2000/svg" viewBox="0 0 32 32"><path id="svg-ico" fill="#ee5586" d="M16.17 31.6a.36.36 0 0 1-.18-.04.37.37 0 0 1-.1-.07c-.73-.63-1.9-2.18-1.97-3.66-.16-1.5.62-2.7.66-2.75a.42.42 0 0 1 .7.47c0 .01-.64 1-.52 2.21.06 1.07.86 2.21 1.4 2.81.56-.6 1.36-1.74 1.42-2.8a3.7 3.7 0 0 0-.52-2.22.42.42 0 1 1 .7-.47c.04.05.83 1.24.66 2.77-.07 1.45-1.24 3-1.96 3.64a.6.6 0 0 1-.1.07.33.33 0 0 1-.2.05z"/><path fill="#5e686c" d="M19.54 23.11a.43.43 0 0 1-.4-.58c5.61-14.3-1.79-20.58-2.75-21.31h-.45c-1.02.74-8.4 6.74-2.75 21.24.1.22-.02.47-.24.55s-.46-.02-.55-.24c-3.22-8.27-2.21-13.88-.8-17.14 1.56-3.56 3.87-5.12 3.97-5.2a.44.44 0 0 1 .24-.06h.73a.4.4 0 0 1 .24.07c.09.07 9.36 6.6 3.15 22.4a.42.42 0 0 1-.4.27z"/><path fill="#5e686c" d="M19.47 25.38h-6.6c-.82 0-1.52-.7-1.52-1.52s.7-1.53 1.52-1.53h6.6c.82 0 1.52.7 1.52 1.53 0 .83-.7 1.52-1.52 1.52zm-6.6-2.2a.7.7 0 0 0-.67.68c0 .35.32.68.68.68h6.58a.7.7 0 0 0 .68-.68.7.7 0 0 0-.68-.67h-6.59z"/><path id="svg-ico" fill="#ee5586" d="M16.17 11.04a2.55 2.55 0 1 1 0-5.1 2.55 2.55 0 0 1 0 5.1zm0-4.25a1.7 1.7 0 1 0 0 3.4 1.7 1.7 0 0 0 0-3.4z"/><path fill="#5e686c" d="M7.38 23.19a.4.4 0 0 1-.23-.07.42.42 0 0 1-.13-.59l3.74-5.85a.43.43 0 1 1 .71.46l-3.73 5.85a.42.42 0 0 1-.36.2z"/><path fill="#5e686c" d="M12.14 23.19H7.38c-.24 0-.42-.19-.42-.43s.18-.42.42-.42h4.76c.24 0 .43.19.43.42 0 .23-.19.43-.43.43zm12.86 0a.43.43 0 0 1-.36-.2l-3.78-5.85c-.12-.2-.07-.46.13-.58s.45-.07.59.12l3.77 5.85c.12.2.07.46-.13.59a.47.47 0 0 1-.23.07z"/><path fill="#5e686c" d="M25 23.19h-4.82c-.24 0-.42-.19-.42-.43s.18-.42.42-.42H25c.24 0 .43.19.43.42 0 .23-.2.43-.43.43z"/></svg>