<svg xmlns="http://www.w3.org/2000/svg" viewBox="0 0 32 32"><path fill="#5e686b" d="M15.994 31.606c-7.625 0-13.831-6.206-13.831-13.831S8.369 3.944 15.994 3.944a.42.42 0 0 1 0 .838c-7.162 0-12.988 5.825-12.988 12.987s5.825 12.988 12.988 12.988c7.162 0 12.988-5.825 12.988-12.988a.42.42 0 0 1 .838 0c.006 7.631-6.2 13.837-13.825 13.837z"/><path id="svg-ico" fill="#ee5586" d="M15.994 8.313a.388.388 0 0 1-.219-.063.417.417 0 0 1-.2-.356V.831c0-.144.075-.281.2-.356s.281-.081.406-.019l7.056 3.531a.416.416 0 0 1 .231.375.41.41 0 0 1-.231.375l-7.056 3.531a.397.397 0 0 1-.188.044zm.419-6.801v5.694l5.694-2.85-5.694-2.844z"/></svg>