<svg xmlns="http://www.w3.org/2000/svg" viewBox="0 0 32 32"><path id="svg-ico" fill="#ee5586" d="M28.88 12.07a.43.43 0 0 1-.3-.13L17.73 1.1a.42.42 0 0 1 0-.6.42.42 0 0 1 .6 0L29.2 11.34c.17.17.17.44 0 .6a.42.42 0 0 1-.3.13z"/><path id="svg-ico" fill="#ee5586" d="M28.88 12.07H23.4a.43.43 0 0 1 0-.85h5.06V6.16a.43.43 0 0 1 .85 0v5.48c0 .23-.2.43-.43.43z"/><path fill="#5e686b" d="M30.82 31.75H.97a.43.43 0 0 1 0-.85h29.85c.24 0 .42.2.42.42s-.19.43-.42.43zM6.53 27.11a.43.43 0 0 1-.42-.42V1.1c0-.24.19-.42.42-.42s.43.2.43.42v25.6c0 .24-.2.42-.43.42zm9.68 0a.43.43 0 0 1-.42-.42V11.34a.43.43 0 0 1 .85 0V26.7c0 .24-.2.42-.43.42zm9.69 0a.43.43 0 0 1-.43-.42v-8.53a.43.43 0 0 1 .85 0v8.53c0 .24-.2.42-.43.42z"/></svg>