<svg xmlns="http://www.w3.org/2000/svg" viewBox="0 0 32 32"><path id="svg-ico" fill="#ee5586" d="M5.36 12.16a.4.4 0 0 1-.4-.4V7.5H.72a.4.4 0 0 1-.4-.4c0-.22.18-.4.4-.4h4.64c.23 0 .4.18.4.4v4.64a.4.4 0 0 1-.4.4z"/><path fill="#5e686b" d="M31.26 25.94H26.6a.4.4 0 0 1-.4-.4V20.9c0-.23.18-.4.4-.4.23 0 .4.18.4.4v4.24h4.25c.22 0 .4.18.4.4s-.19.4-.4.4z"/><path id="svg-ico" fill="#ee5586" d="M15.99 30.8A14.5 14.5 0 0 1 5.02 6.84c.14-.17.4-.18.57-.04s.19.4.04.57a13.7 13.7 0 0 0 17.71 20.49.4.4 0 0 1 .56.12.4.4 0 0 1-.12.56 14.49 14.49 0 0 1-7.8 2.26z"/><path fill="#5e686b" d="M26.63 25.94a.38.38 0 0 1-.26-.1.4.4 0 0 1-.04-.57A13.68 13.68 0 0 0 8.67 4.74a.4.4 0 1 1-.43-.68 14.5 14.5 0 0 1 18.7 21.74.4.4 0 0 1-.3.15z"/></svg>