<svg xmlns="http://www.w3.org/2000/svg" viewBox="0 0 32 32"><path fill="#5e686b" d="M23.45 27.72A14.03 14.03 0 0 1 6.14 25.8 13.85 13.85 0 0 1 5.09 7.28v3.89a.41.41 0 0 0 .82 0V6.39a.41.41 0 0 0-.41-.41H.72a.41.41 0 0 0 0 .82H4.4a14.68 14.68 0 0 0 1.15 19.58 14.81 14.81 0 0 0 18.33 2.03.4.4 0 0 0 .13-.57.42.42 0 0 0-.57-.12zm7.87-2.62h-3.68a14.67 14.67 0 0 0-1.15-19.59A14.85 14.85 0 0 0 8.15 3.48c-.2.13-.25.38-.12.57s.37.25.56.13A14 14 0 0 1 25.91 6.1a13.85 13.85 0 0 1 1.05 18.52v-3.9a.41.41 0 0 0-.83 0v4.79c0 .23.19.41.41.41h4.79c.23 0 .4-.19.4-.41s-.18-.4-.4-.4z"/><path id="svg-ico" fill="#ee5586" d="M24.85 12.5v-.08l-.01-.03-.01-.03-.01-.02-.01-.01v-.02l-.03-.02a.14.14 0 0 0-.03-.04l-1.25-1.37a.4.4 0 0 0-.3-.13.37.37 0 0 0-.3.12l-.8.82a1.3 1.3 0 0 1-1.85 0 1.34 1.34 0 0 1 0-1.88l.8-.81a.4.4 0 0 0 0-.59l-1.22-1.23v-.01l-.03-.03-.02-.01-.02-.02c-.02-.02 0 0-.01 0l-.02-.01-.01-.02h-.04l-.02-.02h-.05l-.03-.01a.42.42 0 0 0-.33.12L17.8 8.65a3.92 3.92 0 0 0-.56 4.78L8 20.19a2.74 2.74 0 0 0 0 3.86 2.67 2.67 0 0 0 3.88-.05l6.65-9.29a3.8 3.8 0 0 0 4.72-.55l1.48-1.34c.06-.06.1-.14.13-.21v-.1zM11.23 23.48c-.36.36-.82.56-1.32.56a1.91 1.91 0 0 1-1.38-3.2l9.22-6.74.05.06.06.06-6.63 9.26zm11.44-9.9a2.98 2.98 0 0 1-3.97.27l-.04-.04c-.1-.07-.19-.15-.27-.24l-.23-.25-.01-.02a3.08 3.08 0 0 1 .24-4.06l1.15-1.18.64.65-.52.53c-.83.83-.83 2.2 0 3.03a2.13 2.13 0 0 0 3.02 0l.5-.5.68.72-1.19 1.08z"/><path id="svg-ico" fill="#ee5586" d="M10.5 21.69H9.33a.41.41 0 0 0 0 .82h1.15c.23 0 .42-.18.42-.4a.4.4 0 0 0-.42-.42z"/></svg>