<svg xmlns="http://www.w3.org/2000/svg" viewBox="0 0 32 32"><path fill="#5e686b" d="M6.24 20.5a.42.42 0 0 1-.38-.61l2.73-5.57a.42.42 0 0 1 .38-.24h13.95c.16 0 .3.09.38.24l2.78 5.55c.06.13.06.29-.02.41s-.21.2-.36.2l-19.46.01zm3-5.57-2.32 4.71h18.1l-2.36-4.71H9.24z"/><path id="svg-ico" fill="#ee5586" d="M20.17 9.37h-8.43a.41.41 0 0 1-.36-.2.42.42 0 0 1-.02-.42L15.63.51a.42.42 0 0 1 .75 0l4.17 8.24a.4.4 0 0 1-.02.41.4.4 0 0 1-.36.2zm-7.74-.85h7.05L16 1.63l-3.56 6.89z"/><path fill="#5e686b" d="M31.3 31.72H.7a.42.42 0 0 1-.38-.61l2.77-5.67a.42.42 0 0 1 .38-.23h24.99c.16 0 .3.08.38.23l2.83 5.67c.07.13.06.29-.01.41s-.22.2-.36.2zm-29.92-.84h29.23l-2.41-4.82H3.74l-2.36 4.82z"/></svg>