<svg xmlns="http://www.w3.org/2000/svg" width="32" height="32" viewBox="0 0 32 32"><path fill="#5e686b" d="M12.7 8.469h1.669a.42.42 0 0 0 0-.838H12.7a.42.42 0 0 0 0 .838zm4.994 0h1.669a.42.42 0 0 0 0-.838h-1.669a.42.42 0 0 0 0 .838z"/><path fill="#5e686b" d="M16.031 14.363c3.906 0 7.087-3.181 7.087-7.088a7.083 7.083 0 0 0-2.431-5.338.415.415 0 0 0-.188-.156A7.052 7.052 0 0 0 16.03.187c-3.906 0-7.088 3.181-7.088 7.088s3.181 7.088 7.088 7.088zm0-13.344c1.219 0 2.356.35 3.313.956l-8.675 2.081a6.254 6.254 0 0 1 5.363-3.038zm-5.837 4.012 10.012-2.406a6.232 6.232 0 0 1 2.075 4.65c0 3.45-2.806 6.25-6.25 6.25a6.256 6.256 0 0 1-5.838-8.494zm-2.288 17.1h16.256a.42.42 0 0 0 .419-.419v-2.956a3.376 3.376 0 0 0-3.375-3.375H10.862a3.376 3.376 0 0 0-3.375 3.375v2.962c0 .231.188.413.419.413zm.413-3.375c0-1.4 1.137-2.544 2.544-2.544h4.75v2.919a.42.42 0 0 0 .838 0v-2.919h4.75c1.4 0 2.544 1.137 2.544 2.544V21.3H8.32v-2.544z"/><path id="svg-ico" fill="#ee5586" d="m7.981 23.825-4.944 4.944a1.69 1.69 0 0 0-.844-.231c-.919 0-1.669.75-1.669 1.669s.75 1.669 1.669 1.669 1.669-.75 1.669-1.669c0-.306-.087-.6-.231-.844l4.944-4.944a.415.415 0 0 0 0-.587.417.417 0 0 0-.594-.006zm-5.787 7.219a.835.835 0 0 1 0-1.668.83.83 0 0 1 .831.831.836.836 0 0 1-.831.837zm27.6-2.506a1.66 1.66 0 0 0-.863.238l-5.056-4.95a.414.414 0 1 0-.581.593l5.044 4.944a1.63 1.63 0 0 0-.231.844c0 .919.756 1.669 1.694 1.669.931 0 1.694-.75 1.694-1.669a1.695 1.695 0 0 0-1.7-1.669zm0 2.506a.845.845 0 0 1-.856-.837c0-.456.387-.831.856-.831.475 0 .863.375.863.831a.86.86 0 0 1-.863.837zM16.45 28.6v-4.656a.42.42 0 0 0-.838 0v4.65a1.675 1.675 0 0 0-1.269 1.619c0 .919.75 1.669 1.669 1.669s1.669-.75 1.669-1.669c0-.775-.525-1.425-1.231-1.613zm-.438 2.444a.835.835 0 0 1 0-1.668.83.83 0 0 1 .831.831.828.828 0 0 1-.831.837z"/></svg>