<svg xmlns="http://www.w3.org/2000/svg" viewBox="0 0 32 32"><path fill="#5e686b" d="M31.3 31.7H.7a.4.4 0 0 1-.4-.4V.7C.3.5.5.3.7.3h30.6c.2 0 .4.2.4.4v30.6c0 .2-.2.4-.4.4zM1.2 31h29.7V1.2H1.2v29.7z"/><path id="svg-ico" fill="#ee5586" d="M26 12.8a.4.4 0 0 1-.5-.5V6.5h-5.8c-.3 0-.5-.2-.5-.4s.2-.5.5-.5H26c.2 0 .4.2.4.5v6.2c0 .3-.2.5-.4.5z"/><path fill="#5e686b" d="M12.4 26.4H6a.4.4 0 0 1-.5-.4v-6.3c0-.3.2-.5.5-.5s.4.2.4.5v5.8h5.9a.4.4 0 1 1 0 .9z"/><path id="svg-ico" fill="#ee5586" d="M19 13.6c-.2 0-.3 0-.4-.2a.4.4 0 0 1 0-.6l7-7h.6c.2.2.2.5 0 .6l-7 7-.3.2z"/><path fill="#5e686b" d="m6.2 26.3-.3-.1a.4.4 0 0 1 0-.6l7-7c.1-.2.4-.2.6 0v.6l-7 7h-.3z"/></svg>