<svg xmlns="http://www.w3.org/2000/svg" viewBox="0 0 32 32"><path fill="#5e686b" d="M16.11 31.85A15.68 15.68 0 0 1 .46 16.19C.46 7.56 7.48.54 16.1.54c7.87 0 14.54 5.87 15.53 13.65a.44.44 0 0 1-.86.12 14.8 14.8 0 0 0-29.46 1.9 14.8 14.8 0 0 0 14.8 14.78c7.62 0 13.95-5.72 14.7-13.3a.43.43 0 0 1 .48-.39c.24.03.41.24.39.48A15.6 15.6 0 0 1 16.1 31.85z"/><path id="svg-ico" fill="#ee5586" d="M11.8 25.26a.43.43 0 0 1-.31-.12.43.43 0 0 1 0-.62l8.33-8.33-8.33-8.33a.43.43 0 1 1 .61-.61l8.64 8.64a.44.44 0 0 1 0 .6l-8.64 8.65a.44.44 0 0 1-.3.12z"/></svg>