<svg xmlns="http://www.w3.org/2000/svg" viewBox="0 0 32 32"><path id="svg-ico" fill="#ee5586" d="M15.98 9.28a.43.43 0 0 1-.42-.42V5.48a.43.43 0 0 1 .85 0v3.38a.44.44 0 0 1-.43.42z"/><path fill="#5e686c" d="M26.52 30.48H5.37a.43.43 0 0 1-.43-.43V8.91c0-.23.2-.43.43-.43h21.15c.23 0 .42.19.42.43v21.15c0 .23-.19.42-.42.42zm-20.73-.85h20.3V9.33H5.8v20.3z"/><path fill="#5e686c" d="M5.37 22.23H.7a.43.43 0 0 1-.43-.42v-4.67c0-.23.19-.42.43-.42h4.65a.43.43 0 0 1 0 .85H1.13v3.81h4.24a.43.43 0 0 1 0 .85zm25.81 0h-4.66a.43.43 0 0 1 0-.85h4.23v-3.81h-4.24a.43.43 0 0 1 0-.85h4.66c.23 0 .42.19.42.42v4.67c0 .23-.18.42-.42.42zm-9.61 8.25a.43.43 0 0 1-.43-.43v-5.17H10.81v5.17a.43.43 0 0 1-.85 0v-5.59c0-.23.2-.42.43-.42h11.18c.23 0 .42.18.42.42v5.59c0 .24-.18.42-.42.42z"/><path id="svg-ico" fill="#ee5586" d="M15.98 5.9a2.17 2.17 0 0 1 0-4.34 2.17 2.17 0 0 1 0 4.34zm0-3.5a1.33 1.33 0 1 0 0 2.66 1.33 1.33 0 0 0 0-2.65zm-4.19 16.56a2.17 2.17 0 0 1 0-4.34 2.17 2.17 0 0 1 0 4.34zm0-3.5a1.33 1.33 0 1 0 0 2.66 1.33 1.33 0 0 0 0-2.65zm7.95 3.5a2.17 2.17 0 0 1 0-4.34 2.17 2.17 0 0 1 0 4.34zm0-3.5a1.33 1.33 0 1 0 0 2.66 1.33 1.33 0 0 0 0-2.65z"/></svg>