<svg xmlns="http://www.w3.org/2000/svg" viewBox="0 0 32 32"><path fill="#5e686b" d="M15.28 29.46a14 14 0 0 1-14-14c0-3.86 1.43-7.28 4.1-9.89a.42.42 0 0 1 .59.6 12.65 12.65 0 0 0-3.85 9.3 13.17 13.17 0 0 0 22.36 9.4.41.41 0 1 1 .58.59c-2.62 2.58-6.1 4-9.78 4z"/><path fill="#5e686b" d="M24.88 25.48a.42.42 0 0 1-.3-.12L5.38 6.16a.42.42 0 0 1 .6-.58l19.19 19.2c.16.16.16.42 0 .58a.44.44 0 0 1-.3.12z"/><path id="svg-ico" fill="#ee5586" d="M26.13 12.9a.42.42 0 0 1-.42-.42c0-1.98-.77-3.84-2.17-5.24S20.3 5.07 18.3 5.07a.42.42 0 0 1 0-.83 8.22 8.22 0 0 1 8.24 8.24c0 .23-.18.42-.41.42zm4.06-.63a.42.42 0 0 1-.42-.42c0-2.83-1.1-5.48-3.1-7.48s-4.65-3.1-7.48-3.1a.42.42 0 0 1 0-.84c3.05 0 5.92 1.19 8.07 3.34s3.35 5.03 3.35 8.07c0 .24-.2.43-.42.43z"/><path fill="#5e686b" d="M5.62 31.55a.42.42 0 0 1-.42-.42V25a.42.42 0 0 1 .84 0v6.13c0 .23-.19.42-.42.42z"/><path id="svg-ico" fill="#ee5586" d="M19.46 13.6a2.29 2.29 0 0 1 0-4.56 2.29 2.29 0 0 1 0 4.57zm0-3.72a1.44 1.44 0 1 0 0 2.89 1.44 1.44 0 0 0 0-2.89z"/></svg>