<svg xmlns="http://www.w3.org/2000/svg" viewBox="0 0 32 32"><path fill="#5e686b" d="M9.5 16.57a3.5 3.5 0 1 1 .01-7 3.5 3.5 0 0 1-.01 7zm0-6.1a2.62 2.62 0 1 0 0 5.24 2.62 2.62 0 0 0 0-5.25zm13 6.1a3.5 3.5 0 1 1 0-7 3.5 3.5 0 0 1 0 7zm0-6.1a2.62 2.62 0 1 0 0 5.24 2.62 2.62 0 0 0 0-5.25z"/><path fill="#5e686b" d="M16 31.86A15.73 15.73 0 0 1 .28 16.14C.28 8.1 6.28 1.4 14.25.5c.24-.03.46.15.48.39a.44.44 0 0 1-.39.48A14.83 14.83 0 0 0 1.15 16.14c0 8.18 6.66 14.84 14.84 14.84a14.83 14.83 0 0 0 1.74-29.59.44.44 0 1 1 .1-.87A15.7 15.7 0 0 1 16 31.85z"/><path id="svg-ico" fill="#ee5586" d="M23.86 23.84H8.14c-.25 0-.44-.19-.44-.43s.2-.44.44-.44h15.72c.24 0 .43.2.43.44s-.19.43-.43.43z"/></svg>