<svg xmlns="http://www.w3.org/2000/svg" viewBox="0 0 32 32"><path fill="#5e686c" d="M26.57 30.9h-1.99a2.38 2.38 0 0 1-2.4-2.4v-1.36c-3.17.83-6.68.88-9.79.14v1.15c0 1.34-1.05 2.4-2.4 2.4H7.93a2.38 2.38 0 0 1-2.4-2.4v-4.8a22.4 22.4 0 0 1-1.07-1.12H2.74c-1.3 0-2.4-1.1-2.4-2.4v-4.28a2.42 2.42 0 0 1 2.4-2.32h.51c.46-.94 1.1-1.84 1.86-2.61.15-1.32-.4-2.52-1.74-3.87-.3-.2-.47-.69-.32-1.11.11-.35.44-.68.8-.8C7 4.28 9.65 5 11.6 7.18c1-.3 2.04-.5 3.09-.64a.41.41 0 0 1 .1.82c-1.08.14-2.16.36-3.2.68a.42.42 0 0 1-.44-.13c-1.75-2.11-4.12-2.8-7.06-2a.57.57 0 0 0-.25.26c-.02.07 0 .17.07.22C5.54 8 6.16 9.5 5.92 11.14a.41.41 0 0 1-.12.23c-.8.8-1.45 1.74-1.9 2.71a.41.41 0 0 1-.38.24h-.78c-.82 0-1.57.71-1.57 1.5v4.27c0 .84.74 1.58 1.57 1.58h1.91a.4.4 0 0 1 .32.15c.37.44.82.9 1.26 1.33.08.07.14.2.14.3v4.97c0 .88.7 1.57 1.58 1.57H10c.88 0 1.57-.7 1.57-1.57v-1.67a.4.4 0 0 1 .16-.33c.1-.08.24-.1.37-.07 3.26.9 7.05.84 10.38-.15a.41.41 0 0 1 .54.4v1.91c0 .88.7 1.58 1.57 1.58h1.99c.92 0 1.65-.73 1.65-1.65v-5.35c0-.1.04-.2.11-.29a8.47 8.47 0 0 0 2.56-5.75c0-3.5-2.68-6.76-7-8.52-.21-.09-.31-.33-.23-.54s.33-.31.54-.22c4.63 1.88 7.51 5.44 7.51 9.28 0 2.15-.95 4.35-2.67 6.2v5.19a2.5 2.5 0 0 1-2.49 2.46z"/><path id="svg-ico" fill="#ee5586" d="M19.64 9.09a3.72 3.72 0 1 1 .01-7.44 3.72 3.72 0 0 1 0 7.44zm0-6.6a2.89 2.89 0 1 0 0 5.77 2.89 2.89 0 0 0 0-5.78z"/></svg>