<svg xmlns="http://www.w3.org/2000/svg" viewBox="0 0 32 32"><path id="svg-ico" fill="#ee5586" d="M13.24 23.34a1.72 1.72 0 0 0 0 3.44 1.72 1.72 0 0 0 0-3.44zm0 2.58a.86.86 0 1 1 0-1.73.86.86 0 0 1 0 1.73zm2.89-11.12a1.72 1.72 0 0 0 0-3.44 1.72 1.72 0 0 0 0 3.43zm0-2.59a.86.86 0 1 1 0 1.73.86.86 0 0 1 0-1.73zm4.27 13.43a1.72 1.72 0 0 0 0 3.44 1.72 1.72 0 0 0 0-3.44zm0 2.59a.86.86 0 1 1 .87-.87c0 .48-.4.87-.86.87z"/><path fill="#5e686c" d="M11.32 1.2h8.91a.43.43 0 0 0 0-.87h-8.9a.43.43 0 0 0 0 .86zm17.3 26.48-6.16-9.84-.08-.12c-.54-.77-2.71-4.56-2.71-7.8V2.74c0-.23-.2-.43-.43-.43H12.3c-.23 0-.43.2-.43.43v7.18c0 3.46-2.45 7.91-2.47 7.95l-5.46 9.79C2.9 29.12 3 30.07 3.3 30.62c.29.57 1.06 1.25 3.08 1.25h19.8c2 0 2.78-.68 3.08-1.25.27-.55.38-1.5-.64-2.94zM12.74 9.92V3.17h6.07V9.9c0 2.85 1.57 6.1 2.43 7.6a7.33 7.33 0 0 0-1-.07c-1.83 0-2.76.54-3.65 1.05-.83.49-1.62.94-3.22.94s-2.39-.45-3.22-.94l-.07-.04.08-.16c.1-.2 2.58-4.68 2.58-8.37zm15.75 20.3c-.26.52-1.08.8-2.31.8H6.38c-1.24 0-2.06-.28-2.32-.8-.24-.46-.03-1.2.6-2.1l4.99-8.91.06.03c.9.52 1.82 1.06 3.65 1.06s2.76-.54 3.65-1.05a5.57 5.57 0 0 1 3.22-.93c.61 0 1.15.07 1.63.2l6.04 9.65c.62.86.83 1.6.6 2.06z"/></svg>