<svg xmlns="http://www.w3.org/2000/svg" viewBox="0 0 32 32"><path fill="#5e686c" d="M15.93 31.69a.4.4 0 0 1-.17-.04c-.54-.24-13.1-6.11-13.1-13.61V4.8c0-.23.2-.45.43-.41.08-.02 8.75.03 12.55-3.85a.4.4 0 0 1 .1-.07.53.53 0 0 1 .2-.05.4.4 0 0 1 .29.12c3.64 3.7 12.29 3.84 13.16 3.85.25-.05.5.15.5.4v13.25c0 7.5-13.23 13.37-13.8 13.62a.52.52 0 0 1-.16.03zM3.5 5.22v12.82c0 6.52 10.93 12.04 12.44 12.77 1.55-.72 13.11-6.24 13.11-12.77V5.22c-1.88-.03-9.37-.38-13.1-3.8-3.7 3.4-10.65 3.76-12.45 3.8z"/><path id="svg-ico" fill="#ee5586" d="M15.91 27.27a.43.43 0 0 1-.17-.03c-.4-.18-9.63-4.42-9.63-9.92V8.77a.42.42 0 0 1 .83 0v8.56c0 4.6 7.74 8.47 8.98 9.07 1.3-.58 9.6-4.48 9.6-9.07V8.77a.42.42 0 0 1 .84 0v8.56c0 5.5-9.86 9.74-10.28 9.91a.36.36 0 0 1-.17.03z"/><path id="svg-ico" fill="#ee5586" d="M6.57 8.84h-.08a.42.42 0 0 1-.41-.43c0-.23.16-.4.42-.4.06 0 6.15.03 9.16-3.06a.42.42 0 0 1 .6 0c.16.16.17.42 0 .59-3.1 3.19-8.9 3.3-9.7 3.3z"/><path id="svg-ico" fill="#ee5586" d="M25.82 8.84c-.83 0-7.05-.12-10.16-3.3-.16-.16-.15-.43 0-.6s.44-.15.6.01c3.01 3.1 9.57 3.04 9.64 3.05a.42.42 0 1 1 0 .84h-.07z"/><path fill="#5e686c" d="M9.61 11.84a.42.42 0 0 1-.3-.72l.89-.88a.42.42 0 0 1 .6 0c.16.16.16.42 0 .6l-.89.87a.45.45 0 0 1-.3.13zm-.44 3.96a.42.42 0 0 1-.3-.72l4.86-4.84a.42.42 0 0 1 .6 0c.16.16.16.42 0 .6l-4.86 4.85a.42.42 0 0 1-.3.12z"/></svg>