<svg xmlns="http://www.w3.org/2000/svg" width="32" height="32" viewBox="0 0 32 32"><path fill="#5e686c" d="M14.9 8.36H9a.43.43 0 0 1-.43-.42v-5.9c0-.24.19-.43.42-.43h5.91c.23 0 .42.18.42.42v5.9c0 .24-.18.43-.42.43zm-5.49-.85h5.07V2.45H9.4v5.06z"/><path id="svg-ico" fill="#ee5586" d="M14.9 19.36H9.25a.43.43 0 0 1 0-.85h5.23v-5.07H9.42v2.1a.43.43 0 0 1-.85 0v-2.52c0-.23.19-.43.42-.43h5.9c.24 0 .43.2.43.43v5.92c0 .23-.18.42-.42.42z"/><path fill="#5e686c" d="M14.9 30.36H9a.43.43 0 0 1-.43-.43v-5.9c0-.24.19-.43.42-.43h5.91c.23 0 .42.19.42.42v5.91c0 .24-.18.43-.42.43zm-5.49-.85h5.07v-5.06H9.4v5.06zM31.14 3.67h-13.5a.43.43 0 0 1 0-.84h13.5c.23 0 .43.18.43.42s-.2.42-.43.42zM27.8 6.29H17.67a.43.43 0 0 1 0-.85h10.14c.23 0 .42.18.42.42s-.2.43-.43.43z"/><path id="svg-ico" fill="#ee5586" d="M31.14 14.91h-13.5a.43.43 0 0 1 0-.85h13.5c.23 0 .43.19.43.43s-.2.42-.43.42zm-3.34 2.61H17.67a.43.43 0 0 1 0-.85h10.14c.23 0 .42.2.42.43s-.2.42-.43.42z"/><path fill="#5e686c" d="M31.14 26.16h-13.5a.43.43 0 0 1 0-.85h13.5c.23 0 .43.18.43.42s-.2.43-.43.43zm-3.38 2.6H17.64a.43.43 0 0 1 0-.85h10.13a.42.42 0 1 1-.01.85zM7.03 25.05H7a.42.42 0 0 1-.38-.33l-1.04-4.76-4.76-1.04a.42.42 0 0 1-.06-.8l9.62-3.5c.15-.06.32-.03.44.1s.16.28.1.44l-3.5 9.62a.44.44 0 0 1-.4.27zM2.4 18.4l3.6.79c.17.04.29.16.33.32l.79 3.6 2.68-7.4-7.4 2.7z"/></svg>