<svg xmlns="http://www.w3.org/2000/svg" viewBox="0 0 32 32"><path fill="#5e686b" d="M11.54 31.32H3c-1.16 0-2.1-.77-2.1-1.72V2.37C.9 1.43 1.84.66 3 .66h8.54c1.16 0 2.1.76 2.1 1.71v27.24c0 .94-.94 1.7-2.1 1.7zM3 1.49c-.69 0-1.27.41-1.27.88v27.24c0 .48.58.88 1.27.88h8.54c.7 0 1.27-.4 1.27-.88V2.38c0-.49-.58-.89-1.27-.89H3zm26.46 29.83H20.9c-1.15 0-2.1-.77-2.1-1.72V2.37c0-.94.95-1.71 2.1-1.71h8.55c1.15 0 2.1.76 2.1 1.71v27.24c0 .94-.95 1.7-2.1 1.7zM20.9 1.49c-.68 0-1.27.41-1.27.88v27.24c0 .48.59.88 1.27.88h8.55c.68 0 1.27-.4 1.27-.88V2.38c0-.49-.59-.89-1.27-.89H20.9z"/><path id="svg-ico" fill="#ee5586" d="M7.27 10.24c-.1 0-.21 0-.33-.02a2.5 2.5 0 1 1 .33.02zm0-4.16a1.67 1.67 0 0 0-1.33 2.68 1.67 1.67 0 0 0 2.98-.8A1.66 1.66 0 0 0 7.48 6.1c-.07-.02-.15-.02-.22-.02zm17.93 4.16c-.1 0-.21 0-.32-.02a2.5 2.5 0 1 1 .33.02zm0-4.16a1.66 1.66 0 1 0 .23.01h-.23z"/></svg>