<svg xmlns="http://www.w3.org/2000/svg" viewBox="0 0 32 32"><path fill="#5e686b" d="M15.97 31.8c-.62 0-1.23-.03-1.82-.1a3 3 0 0 1-2.66-3.17.73.73 0 0 0-.44-.71c-.2-.09-.66.01-.83.2a3.1 3.1 0 0 1-4.11.32c-.93-.75-1.77-1.6-2.5-2.53a3.02 3.02 0 0 1 .33-4.08c.23-.22.3-.54.2-.82-.11-.26-.38-.45-.63-.45-1.4 0-3.01-.93-3.2-2.67a15.7 15.7 0 0 1 0-3.6 2.99 2.99 0 0 1 3-2.66c.43 0 .78-.17.89-.44a.73.73 0 0 0-.19-.82 3.02 3.02 0 0 1-.32-4.12 15.5 15.5 0 0 1 2.55-2.53 3.1 3.1 0 0 1 4.1.35c.12.14.57.28.81.19.27-.12.45-.4.44-.71a3.03 3.03 0 0 1 2.7-3.1c1.15-.13 2.37-.13 3.54 0a3.01 3.01 0 0 1 2.67 3.18c-.02.3.16.6.44.71.04.02.12.03.22.03.25 0 .5-.1.6-.21a3.1 3.1 0 0 1 4.12-.34c.92.74 1.77 1.6 2.5 2.54a3.03 3.03 0 0 1-.32 4.09c-.23.2-.3.54-.19.82.11.27.39.44.7.44 1.4 0 2.94 1 3.13 2.68.13 1.2.13 2.4 0 3.6a3.01 3.01 0 0 1-3 2.66h-.27a.73.73 0 0 0-.62.44.73.73 0 0 0 .18.82 3.02 3.02 0 0 1 .32 4.13c-.75.93-1.6 1.78-2.55 2.52a3.1 3.1 0 0 1-4.08-.33c-.17-.19-.62-.28-.82-.2a.74.74 0 0 0-.45.7 3.04 3.04 0 0 1-2.68 3.11c-.6.04-1.18.07-1.75.07zm-5.14-4.87c.2 0 .38.04.54.1.62.26 1 .88.97 1.54a2.15 2.15 0 0 0 1.9 2.28c1.08.13 2.23.14 3.37.01a2.18 2.18 0 0 0 1.93-2.23 1.6 1.6 0 0 1 .97-1.52 1.74 1.74 0 0 1 1.77.4c.74.8 2.06.92 2.94.25.9-.7 1.7-1.5 2.41-2.39.72-.9.62-2.2-.23-2.97a1.57 1.57 0 0 1 1.02-2.74l.26.01c1.1 0 2.01-.82 2.14-1.92.13-1.12.13-2.27 0-3.4-.13-1.2-1.26-1.92-2.27-1.92a1.6 1.6 0 0 1-1.49-.97 1.6 1.6 0 0 1 .4-1.77c.84-.76.94-2.05.24-2.93-.7-.88-1.5-1.7-2.36-2.38a2.23 2.23 0 0 0-2.97.24c-.39.43-1.25.62-1.77.4-.61-.26-1-.88-.96-1.54a2.16 2.16 0 0 0-1.92-2.29 14.71 14.71 0 0 0-3.35 0 2.18 2.18 0 0 0-1.93 2.23 1.6 1.6 0 0 1-.97 1.52c-.55.23-1.38.03-1.77-.4a2.23 2.23 0 0 0-2.94-.25c-.9.7-1.71 1.51-2.42 2.4-.72.89-.6 2.19.23 2.96.5.45.66 1.16.4 1.77-.25.6-.88.96-1.66.96-1.12 0-2.03.8-2.16 1.91a15.1 15.1 0 0 0 0 3.4c.13 1.25 1.31 1.92 2.36 1.92a1.58 1.58 0 0 1 1 2.74c-.84.77-.94 2.06-.24 2.94s1.49 1.69 2.36 2.4c.86.68 2.23.57 2.96-.24.29-.32.77-.52 1.24-.52z"/><path id="svg-ico" fill="#ee5586" d="M15.99 20.5a4.48 4.48 0 1 1 0-8.96 4.48 4.48 0 0 1 0 8.95zm0-8.1a3.63 3.63 0 1 0 0 7.26 3.63 3.63 0 0 0 0-7.26z"/></svg>