<svg xmlns="http://www.w3.org/2000/svg" viewBox="0 0 32 32"><path fill="#5e686c" d="M27.56 24.74H4.44a2.52 2.52 0 0 1-2.52-2.5V9.4a.4.4 0 1 1 .82 0v12.83c0 .93.77 1.7 1.7 1.7h23.12a1.7 1.7 0 0 0 1.71-1.7V6.78a.4.4 0 1 1 .81 0v15.46c0 1.38-1.13 2.5-2.52 2.5z"/><path id="svg-ico" fill="#ee5586" d="M2.33 9.82a.4.4 0 0 1-.4-.4V5.74c0-2.5.5-5.37 4.41-5.37h4.62c1.62 0 2.14.7 2.6 1.32.46.61.86 1.15 2.5 1.15h11.52c1.14 0 2.5.5 2.5 2.9v1.28a.4.4 0 1 1-.81 0V5.75c0-1.85-.9-2.1-1.69-2.1H16.07c-2.06 0-2.67-.81-3.16-1.47-.4-.55-.73-.98-1.94-.98H6.35c-2.56 0-3.6 1.32-3.6 4.56v3.66c-.01.22-.2.4-.42.4z"/><path fill="#5e686c" d="M10.96 12.35H6.34c-2.19 0-3.58-.88-4.38-2.77a.46.46 0 0 1-.04-.16v-.08h.82s-.02-.03 0 0c.67 1.54 1.76 2.2 3.6 2.2h4.62c1.2 0 1.53-.43 1.95-.98.5-.65 1.1-1.46 3.15-1.46h11.52c.79 0 1.69-.24 1.69-2.07h.81c0 2.38-1.35 2.88-2.5 2.88h-11.5c-1.66 0-2.06.53-2.52 1.13-.46.62-.98 1.3-2.6 1.3zM16 31.7zm0-2.43a.81.81 0 1 0 0 1.62.81.81 0 0 0 0-1.62zm0 0a.4.4 0 0 1-.4-.4v-2.44a.4.4 0 1 1 .81 0v2.43a.4.4 0 0 1-.4.4z"/><path fill="#5e686c" d="M14.79 30.49H8a.4.4 0 1 1 0-.81h6.79a.4.4 0 1 1 0 .8zm9.22 0h-6.8a.4.4 0 1 1 0-.81h6.8a.4.4 0 0 1 0 .81z"/></svg>