<svg xmlns="http://www.w3.org/2000/svg" viewBox="0 0 32 32"><path fill="#5e686b" d="m31.8 15.6-2.1-6.29a.35.35 0 0 0-.32-.24h-7.7V5.73c0-.2-.15-.35-.34-.35H3.84c-.2 0-.35.16-.35.35v3.9c0 .2.16.35.35.35s.35-.15.35-.35V6.08H21v3.34c0 .19.16.35.35.35h7.78l2 6v7.11h-2.35a.34.34 0 0 0-.17.05 3.49 3.49 0 0 0-6.95.01.39.39 0 0 0-.19-.05h-7.41a.34.34 0 0 0-.18.05 3.49 3.49 0 0 0-6.95.01.36.36 0 0 0-.2-.06H4.2v-5.57c0-.2-.15-.35-.35-.35s-.35.15-.35.35v5.92c0 .2.16.35.35.35h2.88c.08 0 .16-.02.22-.07a3.49 3.49 0 0 0 6.92.02c.06.03.12.05.2.05h7.4c.08 0 .15-.02.2-.06a3.5 3.5 0 0 0 6.93.01c.05.04.11.06.19.06h2.7c.2 0 .35-.16.35-.35v-7.53a.74.74 0 0 1-.03-.12zM10.4 25.93a2.79 2.79 0 1 1 0-5.58 2.79 2.79 0 0 1 0 5.58zm14.72 0a2.79 2.79 0 1 1 .01-5.58 2.79 2.79 0 0 1 0 5.58z"/><path id="svg-ico" fill="#ee5586" d="M29.63 16.36h.01c.2 0 .35-.15.35-.35a.34.34 0 0 0-.06-.2l-1.55-4.65a.35.35 0 0 0-.33-.24h-6.71c-.2 0-.35.15-.35.35v4.75c0 .2.15.35.35.35h8.29zm-7.94-4.75h6.1l1.35 4.06H21.7V11.6zm-14.35.89c0-.2-.15-.36-.35-.36H.55c-.2 0-.35.16-.35.35s.16.35.35.35h6.44c.2 0 .35-.15.35-.35zm0 1.92c0-.2-.15-.35-.35-.35H1.48c-.2 0-.35.16-.35.35s.15.35.35.35H7c.19 0 .34-.16.34-.35z"/></svg>