<svg xmlns="http://www.w3.org/2000/svg" viewBox="0 0 32 32"><path id="svg-ico" fill="#ee5586" d="M20 8.66a.43.43 0 0 1-.43-.43V2.25c0-.56-1.6-1.18-3.74-1.18a7.5 7.5 0 0 0-2.47.36c-.42.16-.9.42-.9.82v5.98a.43.43 0 0 1-.85 0V2.25c0-.49.25-1.16 1.45-1.61.71-.27 1.7-.42 2.76-.42 2.21 0 4.59.63 4.59 2.02v5.98c0 .25-.19.44-.42.44z"/><path fill="#5e686c" d="M27.27 31.78H4.75a.43.43 0 0 1-.42-.42V8.23c0-.23.18-.42.42-.42h22.52c.23 0 .42.18.42.42v23.13c0 .23-.18.42-.42.42zm-22.1-.84h21.68V8.66H5.17v22.28z"/></svg>