<svg xmlns="http://www.w3.org/2000/svg" viewBox="0 0 32 32"><path fill="#5e686b" d="M16 31.63A15.62 15.62 0 0 1 14.27.5a.42.42 0 1 1 .08.84A14.73 14.73 0 0 0 1.24 16.02a14.78 14.78 0 1 0 16.4-14.68.42.42 0 0 1 .1-.83A15.58 15.58 0 0 1 31.6 16c0 8.62-7 15.62-15.61 15.62z"/><path id="svg-ico" fill="#ee5586" d="M23.32 22.78a.42.42 0 0 1-.42-.42c0-6.95-5.24-12.2-12.19-12.2a.42.42 0 0 1 0-.83c7.43 0 13.03 5.6 13.03 13.03 0 .23-.2.42-.42.42zm-4.89 0a.42.42 0 0 1-.42-.42c0-4.56-2.8-7.4-7.3-7.4a.42.42 0 0 1 0-.83c4.95 0 8.15 3.23 8.15 8.23a.44.44 0 0 1-.43.42zm-6.28-.08a1.88 1.88 0 0 1 0-3.77c1.03 0 1.87.85 1.87 1.88 0 1.05-.83 1.89-1.87 1.89zm0-2.93c-.56 0-1.02.47-1.02 1.05s.46 1.04 1.02 1.04c.57 0 1.03-.47 1.03-1.04 0-.58-.46-1.05-1.03-1.05z"/></svg>