<svg xmlns="http://www.w3.org/2000/svg" viewBox="0 0 32 32"><path fill="#5e686b" d="M9.56 16.54a3.5 3.5 0 1 1 .02-7 3.5 3.5 0 0 1-.02 7zm0-6.11a2.62 2.62 0 1 0 0 5.24 2.62 2.62 0 0 0 0-5.24zm12.99 6.11a3.5 3.5 0 1 1 .01-7 3.5 3.5 0 0 1-.01 7zm0-6.11a2.62 2.62 0 1 0 0 5.24 2.62 2.62 0 0 0 0-5.24z"/><path id="svg-ico" fill="#ee5586" d="M16.06 25.73c-2.52 0-4.93-1.3-6.8-3.66-.15-.19-.12-.46.07-.61s.46-.12.61.07c1.7 2.14 3.87 3.33 6.11 3.33s4.4-1.18 6.1-3.33a.44.44 0 0 1 .69.55c-1.86 2.35-4.27 3.65-6.78 3.65z"/><path fill="#5e686b" d="M14.31 31.73h-.05A15.7 15.7 0 0 1 .34 16.1C.34 7.44 7.39.39 16.06.39S31.78 7.44 31.78 16.1c0 8-6 14.7-13.93 15.62a.44.44 0 0 1-.48-.4.44.44 0 0 1 .39-.47 14.86 14.86 0 0 0-1.7-29.6A14.86 14.86 0 0 0 1.2 16.11c0 7.55 5.66 13.9 13.15 14.75.24.02.41.24.39.48a.44.44 0 0 1-.44.39z"/></svg>