<svg xmlns="http://www.w3.org/2000/svg" viewBox="0 0 32 32"><path fill="#5e686b" d="M15.93 30.96c-1.39 0-2.74-.5-4.02-1.49-2.22-1.68-4.2-2.05-6.6-1.25a.4.4 0 0 1-.54-.4c.02-1.65-.9-1.86-2.17-2.15a4.66 4.66 0 0 1-2.4-1.04.42.42 0 0 1-.11-.38.42.42 0 0 1 .28-.3c2.9-.88 4.98-2.59 6.34-5.22.45-.87.58-1.48.42-1.9-.16-.43-.67-.8-1.65-1.2-.5-.21-.97-.45-1.44-.68l-.63-.3a.41.41 0 0 1-.22-.48l.2-.67c.06-.18.25-.3.45-.27l.71.1c.47.06.94.12 1.4.2.28.04.5.07.7.07.43 0 .55-.13.59-.18.16-.17.22-.55.19-1.14l-.02-.16a109 109 0 0 1-.15-2.42c-.16-3.59 1.29-6.26 4.19-7.72.95-.55 2.73-.9 4.6-.9 1.08 0 3.06.12 4.33.92 2.87 1.44 4.31 4.12 4.15 7.7-.04.86-.1 1.72-.16 2.59-.04.58.03.96.19 1.13.04.05.16.18.6.18a4 4 0 0 0 .7-.08c.45-.08.92-.14 1.39-.2l.7-.1a.4.4 0 0 1 .45.28l.2.67a.42.42 0 0 1-.22.48l-.62.3c-.47.23-.95.47-1.45.67-.98.4-1.49.77-1.65 1.21-.16.43-.02 1.04.42 1.91a10.06 10.06 0 0 0 6.34 5.21c.14.05.24.16.28.3s0 .28-.11.38c-.67.67-1.58.87-2.39 1.05-1.27.3-2.19.5-2.17 2.15 0 .13-.07.26-.17.34a.4.4 0 0 1-.37.06c-2.38-.8-4.39-.42-6.6 1.26a6.44 6.44 0 0 1-3.98 1.48zm-8.36-3.95c1.64 0 3.22.59 4.84 1.81a5.38 5.38 0 0 0 7.04 0c2.24-1.7 4.41-2.19 6.84-1.54.2-1.82 1.57-2.13 2.79-2.41.49-.12.97-.22 1.37-.42a10.76 10.76 0 0 1-6.04-5.36c-.57-1.11-.72-1.9-.47-2.57.25-.68.88-1.18 2.1-1.68.48-.2.95-.42 1.4-.65l.22-.11-.27.04-1.36.19c-1.02.19-1.64.08-2.04-.34-.33-.37-.46-.9-.4-1.76s.12-1.71.15-2.57c.15-3.29-1.1-5.62-3.73-6.95-.84-.52-2.25-.81-3.92-.81-1.72 0-3.38.31-4.22.8-2.65 1.34-3.9 3.67-3.76 6.96l.15 2.4v.17c.06.86-.06 1.4-.4 1.76-.4.42-1 .53-2.04.34l-1.36-.2-.27-.03.24.12c.47.23.91.45 1.38.64 1.23.5 1.86 1 2.1 1.69.25.66.11 1.46-.46 2.56a10.77 10.77 0 0 1-6.05 5.37c.41.19.88.3 1.38.4 1.22.28 2.58.6 2.79 2.42a7.87 7.87 0 0 1 2-.27z"/><path id="svg-ico" fill="#ee5586" d="M10.6 7.71h-.06a.4.4 0 0 1-.35-.46c0-.08.25-1.93 2.3-3.04a.41.41 0 0 1 .4.73c-1.68.9-1.88 2.35-1.9 2.42a.4.4 0 0 1-.4.35zm0 4.03a.41.41 0 0 1-.42-.4V9.31c0-.23.18-.41.41-.41s.42.18.42.41v2.01a.43.43 0 0 1-.42.41z"/></svg>