<svg xmlns="http://www.w3.org/2000/svg" viewBox="0 0 32 32"><path id="svg-ico" fill="#ee5586" d="M6.4 3.98c-.24 0-.44.2-.44.43V28.5H.63c-.24 0-.43.2-.43.43s.2.43.43.43H6.4c.24 0 .44-.2.44-.43V4.42c0-.25-.2-.44-.44-.44z"/><path fill="#5e686b" d="m31.6 18.48-2.7-2.03V8.74a3.32 3.32 0 0 0-3.32-3.32H22.7c-7.39 0-13.4 6.02-13.4 13.4v7.93c0 .24.2.43.44.43h3.25a4.73 4.73 0 0 0 7.9 0h3.27a3.01 3.01 0 0 0 5.75 0h1.45c.23 0 .43-.2.43-.43v-7.93a.44.44 0 0 0-.18-.34zm-14.66 9.98a3.87 3.87 0 1 1 0-7.74 3.87 3.87 0 0 1 0 7.74zm10.1 0a2.15 2.15 0 1 1 0-4.29 2.15 2.15 0 0 1 0 4.29zm3.89-2.14h-.9a3 3 0 0 0-6.01 0h-2.68a4.7 4.7 0 0 0-4.4-6.45 4.73 4.73 0 0 0-4.39 6.46h-2.38v-7.5c0-6.92 5.62-12.55 12.54-12.55h2.88c1.35 0 2.46 1.1 2.46 2.46v7.93c0 .14.06.26.17.34l2.72 2.03-.02 7.28z"/></svg>