<svg xmlns="http://www.w3.org/2000/svg" viewBox="0 0 32 32"><path id="svg-ico" fill="#ee5586" d="M7.7 19.4a.43.43 0 0 1-.4-.3c-.68-2.03-1.2-2.58-1.52-2.7-.3-.1-.64.12-1.19.48-.96.64-2.43 1.61-4.33-.6a.4.4 0 0 1-.1-.29V7.7c0-.24.19-.43.43-.43H9.9c1.5-1.35.95-2.16.33-3.11-.4-.6-.8-1.22-.57-1.93.27-.78 1.23-1.4 3.23-2.05a.4.4 0 0 1 .27 0c2 .66 2.97 1.28 3.23 2.05.25.7-.16 1.33-.56 1.93-.62.94-1.17 1.77.33 3.1h8.13a.43.43 0 0 1 0 .87H16c-.1 0-.2-.04-.28-.1-2.22-1.9-1.24-3.37-.6-4.34.36-.54.57-.9.47-1.18-.1-.32-.64-.82-2.55-1.47-1.92.65-2.45 1.15-2.56 1.47-.1.29.11.64.47 1.18.64.97 1.61 2.44-.6 4.34a.41.41 0 0 1-.28.1H1.01v7.72c1.34 1.5 2.16.95 3.11.32.6-.39 1.22-.8 1.93-.56.77.27 1.4 1.23 2.05 3.23a.43.43 0 0 1-.27.55H7.7z"/><path fill="#5e686c" d="M24.3 31.84H16c-.1 0-.2-.03-.28-.1-2.21-1.9-1.24-3.36-.6-4.33.36-.55.57-.89.47-1.18-.1-.32-.65-.82-2.56-1.47-1.91.65-2.45 1.15-2.55 1.47-.1.29.1.64.46 1.18.65.97 1.62 2.44-.6 4.34a.4.4 0 0 1-.28.1H.6a.43.43 0 0 1-.43-.43v-9.49c0-.1.04-.2.1-.28 1.9-2.21 3.36-1.24 4.34-.6.53.36.88.56 1.18.47.31-.1.82-.64 1.47-2.56l.85.14c-.66 2-1.28 2.96-2.05 3.23-.71.25-1.33-.16-1.93-.56-.94-.63-1.77-1.17-3.11.32V31h8.9c1.49-1.35.94-2.17.32-3.12-.4-.6-.8-1.21-.57-1.93.27-.77 1.24-1.38 3.24-2.05a.4.4 0 0 1 .26 0c2 .67 2.97 1.28 3.24 2.05.24.72-.17 1.33-.57 1.93-.62.95-1.17 1.77.33 3.12h7.71v-9.06c0-.1.04-.2.1-.28 1.9-2.21 3.37-1.24 4.34-.6.53.36.88.56 1.18.47.31-.1.82-.64 1.47-2.56-.65-1.91-1.16-2.45-1.47-2.55-.3-.1-.64.11-1.18.47-.98.64-2.45 1.6-4.34-.6a.41.41 0 0 1-.1-.28V7.27h.42c.23 0 .44.2.44.43v8.14c1.34 1.5 2.16.95 3.1.32.6-.4 1.23-.8 1.94-.56.77.27 1.39 1.23 2.05 3.23a.4.4 0 0 1 0 .27c-.66 2-1.28 2.96-2.05 3.23-.71.25-1.33-.16-1.93-.56-.95-.63-1.77-1.17-3.11.32v9.33c0 .23-.2.42-.43.42z"/></svg>