<svg xmlns="http://www.w3.org/2000/svg" viewBox="0 0 32 32"><path fill="#5e686c" d="M8.2 29a.8.8 0 0 1-.8-.9v-.2l1.3-2.7-1.3-1.4-4.9 1.7h-.2a.8.8 0 0 1-.6-1l.1-.2 3.8-3.7a11 11 0 0 1-.4-5.7L2 13.4l-.2-.2c-.2-.4 0-.9.3-1.1h.2L6 12 2 7.6l-.1-.2c0-.2 0-.5.2-.6l.5-.3H3l5.6 2.4A11 11 0 0 1 11 7V5.3a.8.8 0 0 1 1.1-.4l.2.2.9 1.2.3-5.6.1-.3.6-.3c.2 0 .4 0 .6.2l.1.2 2.3 5.7c.1.2 0 .5-.2.6-.2 0-.5 0-.6-.3l-2-5.1-.3 5.3-.4.4-.6.1-.5-.1-.7-1 .3 1.1c0 .2-.1.4-.3.5-1 .5-2 1.1-3 2 0 .1-.2.1-.4 0L3.1 7.6l3.8 4.3c.1.1.2.3 0 .5v.3l-.5.2H3l2.9 1.4c.2 0 .3.3.2.5a10.1 10.1 0 0 0 .4 5.9v.5l-3.6 3.4L7.4 23c.2 0 .4 0 .5.2l1.6 1.6c.2.2.2.4.1.6l-1.2 2.4 2.2-1.8h.5c.3 0 .5.2.8.3l1.2.5c.9.2 1.8.4 2.8.4a.4.4 0 1 1 0 .8c-1 0-2-.1-3-.4l-1.4-.5-.5-.2-2.5 2-.3.1z"/><path id="svg-ico" fill="#ee5586" d="M17.6 31.7c-.2 0-.3 0-.5-.2l-.1-.1-1.4-3.5.7-.6 1.2 3.1.2-3.2c0-.2.1-.3.3-.4.5 0 1-.2 1.4-.4.2 0 .4 0 .6.2l.2.4v-.5c-.1-.2 0-.4.2-.5a10 10 0 0 0 3.1-2.5c.2-.1.4-.2.5 0l5 2-3.7-4.1a.4.4 0 0 1-.1-.5l.1-.4c.1-.2.3-.3.4-.3h3.4l-3-1.4a.4.4 0 0 1-.2-.4 10.4 10.4 0 0 0 0-2.7c0-.2 0-.4.2-.5l2.2-1.4-2.3.3a.4.4 0 0 1-.5-.3c0-.3-.2-.6-.4-1l.1-.4 4-3.8-5.2 1.8-.5-.1L22.2 9a.4.4 0 0 1 0-.5l1.4-3.1-2.8 2.3c-.2.1-.4.2-.5 0a9.9 9.9 0 0 0-3.6-.9L17 6c1.2.1 2.3.4 3.4.9l3.2-2.6.3-.1c.4 0 .8.3.8.8v.2l-1.6 3.4.9.9 5.6-2h.2a.8.8 0 0 1 .6 1.1l-.1.2-4.2 4 .1.4L29 13h.3c.4.3.5.8.3 1.2l-.2.2-2.5 1.5a10.7 10.7 0 0 1 0 2.4l3.3 1.5s.2 0 .2.2v.6c0 .2-.1.4-.3.5h-.2l-3.6.1 3.9 4.3.1.3c0 .2 0 .4-.2.6-.1.2-.3.3-.5.3h-.2L24 24.4a11 11 0 0 1-3 2.2l.2 1v.2c-.2.4-.7.6-1.1.4l-.2-.2-.5-.6-.8.2-.2 3.6-.1.2-.6.3z"/></svg>