<svg xmlns="http://www.w3.org/2000/svg" viewBox="0 0 32 32"><path fill="#5e686c" d="M14.269 14.794a.393.393 0 0 1-.287-.119l-9.15-8.969c-.162-.156-.162-.419-.006-.581s.419-.162.581-.006l9.15 8.969a.413.413 0 0 1-.288.706zm12.794 12.543a.4.4 0 0 1-.288-.119l-9.269-9.087a.412.412 0 0 1 .575-.587l9.269 9.088a.412.412 0 0 1-.288.706zm-9.238-12.593a.41.41 0 0 1-.294-.7L26.7 4.869c.163-.162.419-.162.581 0s.163.419 0 .581l-9.163 9.169a.42.42 0 0 1-.294.125zM5.438 27.125a.408.408 0 0 1-.294-.7l8.825-8.825c.162-.163.419-.163.581 0s.162.419 0 .581l-8.819 8.825a.413.413 0 0 1-.294.119zm-2.069-.494a.412.412 0 0 1-.413-.413V5.956a.412.412 0 0 1 .826 0v20.262a.412.412 0 0 1-.413.413zM26.337 3.837H5.849a.412.412 0 0 1 0-.826h20.488a.412.412 0 1 1 0 .826zm2.469 22.782a.412.412 0 0 1-.413-.413V5.968a.412.412 0 0 1 .826 0v20.244a.415.415 0 0 1-.413.406zm-2.469 2.468H5.843c-.225 0-.412-.181-.412-.413s.181-.413.412-.413h20.494a.412.412 0 1 1 0 .826z"/><path fill="#5e686c" d="M3.413 6.369C1.857 6.369.494 5 .494 3.444.494 1.85 1.775.607 3.419.607c.413 0 .819.1 1.225.3 1.038.525 1.606 1.456 1.606 2.625a2.839 2.839 0 0 1-2.837 2.837zm0-4.938c-1.175 0-2.1.881-2.1 2.013 0 1.119.981 2.1 2.1 2.1a2.015 2.015 0 0 0 2.013-2.013c0-.85-.4-1.506-1.156-1.881a1.837 1.837 0 0 0-.856-.219z"/><path id="svg-ico" fill="#ee5586" d="M16.087 18.931c-1.588 0-2.881-1.294-2.881-2.881s1.294-2.881 2.881-2.881c1.563 0 2.881 1.319 2.881 2.881 0 1.219-.731 2.269-1.856 2.681-.3.1-.613.2-1.025.2zm0-4.937c-1.137 0-2.056.925-2.056 2.056s.925 2.056 2.056 2.056c.281 0 .5-.069.744-.15.806-.294 1.313-1.025 1.313-1.906 0-1.094-.962-2.056-2.056-2.056zM28.8 6.325c-1.587 0-2.881-1.294-2.881-2.881S27.213.563 28.8.563c.806 0 1.637.394 2.169 1.031.475.594.712 1.212.712 1.85A2.882 2.882 0 0 1 28.8 6.325zm0-4.938a2.062 2.062 0 0 0-2.056 2.056c0 1.138.925 2.056 2.056 2.056a2.058 2.058 0 0 0 2.056-2.056c0-.45-.175-.887-.525-1.331a2.046 2.046 0 0 0-1.531-.725zM3.131 31.569c-.544 0-1.069-.206-1.6-.631-.656-.544-1.038-1.387-1.038-2.256a2.88 2.88 0 0 1 2.881-2.869c1.563 0 2.881 1.313 2.881 2.869a2.885 2.885 0 0 1-2.881 2.875 2.21 2.21 0 0 1-.244.012zm.238-4.938a2.057 2.057 0 0 0-2.056 2.05c0 .631.275 1.238.731 1.619.444.35.837.5 1.263.438 1.194-.006 2.119-.925 2.119-2.056.006-1.094-.956-2.05-2.056-2.05z"/><path fill="#5e686c" d="M28.8 31.556c-1.587 0-2.881-1.294-2.881-2.881s1.294-2.881 2.881-2.881a2.886 2.886 0 0 1 2.881 2.881c0 .637-.212 1.244-.619 1.756-.587.706-1.431 1.125-2.262 1.125zm0-4.937a2.062 2.062 0 0 0-2.056 2.056c0 1.137.925 2.056 2.056 2.056.587 0 1.194-.306 1.625-.819.281-.356.431-.781.431-1.238a2.054 2.054 0 0 0-2.056-2.056z"/></svg>