<svg xmlns="http://www.w3.org/2000/svg" viewBox="0 0 32 32"><path fill="#5e686c" d="M25 31.6c-.1 0-.4 0-.7-.2L17 27.3a2 2 0 0 0-1-.3c-.3 0-.5-.1-.5-.4s.2-.4.4-.4c.6 0 1 .1 1.5.3l7.4 4.2h.3s.1 0 0-.4l-1.3-8.6c-.1-1 .3-2.2 1-2.9l6-6 .1-.4-.3-.2-8.3-1.3c-.9-.1-2-1-2.3-1.8l-3.7-7.8c0-.3-.2-.4-.2-.4a.4.4 0 0 1-.4-.4c0-.2.2-.4.4-.4.3 0 .7.1 1 .8l3.6 7.8c.3.7 1.1 1.3 1.8 1.4l8.2 1.3c.7.1 1 .5 1 .7s.2.7-.4 1.3l-6 6a3 3 0 0 0-.7 2.2l1.4 8.6c.1.8-.2 1.1-.4 1.3a1 1 0 0 1-.5.1z"/><path id="svg-ico" fill="#ee5586" d="M6.8 31.5a1 1 0 0 1-.6-.2c-.2-.1-.5-.5-.4-1.3l1.5-8.5a3 3 0 0 0-.7-2.2L.7 13.2c-.5-.6-.5-1-.4-1.3 0-.2.3-.6 1-.7L9.7 10c.6-.1 1.4-.7 1.7-1.3L15.1.9c.3-.8.8-.8 1-.8v.8l-.3.3L12.1 9c-.4 1-1.5 1.7-2.4 1.8L1.5 12c-.3 0-.4.1-.4.2l.2.4 6 6.1c.6.7 1 2 .8 3l-1.4 8.5v.4h.4l7.4-4c.4-.3.9-.4 1.4-.4v.8c-.4 0-.8.1-1 .3l-7.4 4-.8.2z"/></svg>