<svg xmlns="http://www.w3.org/2000/svg" viewBox="0 0 32 32"><path fill="#5e686c" d="M20.18 31.74h-4.16a.43.43 0 0 1 0-.85h4.16c.15 0 .27-.12.27-.27v-1.24a.27.27 0 0 0-.27-.27h-2.57a.42.42 0 0 1-.32-.15.43.43 0 0 1-.1-.35c.03-.17.02-.3.02-.32 0-.01-.42-2.05.18-3.3.48-.98.3-2.45.2-2.68-.18-.34-.38-1.77.02-2.45.26-.42.36-1.58.51-3.18l.02-.12c.13-1.42-.18-1.78-.19-1.79a.36.36 0 0 1-.14-.3v-1.49c0-.23.19-.42.43-.42h.31c.54-.04.75-1.72.84-2.44l.05-.38c.04-.28.11-.55.2-.81.2-.67.36-1.2-.13-1.87-.6-.83-2.04-1.29-2.55-1.4a.42.42 0 0 1-.34-.42l.04-1.03c0-.12.06-.23.15-.3s.38-.4.33-1.67c-.04-1.07-.78-1.13-.93-1.14h-.44a.43.43 0 0 1 0-.85h.45c.58 0 1.7.41 1.77 1.95.04 1.28-.29 1.91-.5 2.19l-.01.54c.64.18 2.02.67 2.72 1.63.72 1 .46 1.9.25 2.61-.08.25-.14.47-.18.7l-.05.36c-.15 1.2-.37 3-1.57 3.16v.91c.2.3.45.94.32 2.34v.12c-.18 1.84-.29 2.94-.64 3.54-.2.34-.1 1.39 0 1.62.2.35.41 2.2-.19 3.45-.4.82-.21 2.32-.1 2.83v.07h2.13c.62 0 1.12.5 1.12 1.12v1.23c0 .62-.5 1.12-1.11 1.12z"/><path id="svg-ico" fill="#ee5586" d="M16.02 31.74H11.8a1.1 1.1 0 0 1-1.11-1.11v-1.24c0-.62.5-1.12 1.1-1.12h2.14c.11-.6.3-2.08-.1-2.9a5.3 5.3 0 0 1-.2-3.46c.1-.22.2-1.27 0-1.61-.34-.58-.44-1.68-.62-3.5v-.15c-.14-1.4.1-2.05.31-2.34v-.91c-1.2-.18-1.42-1.96-1.57-3.16l-.05-.36c-.03-.22-.1-.46-.17-.7-.22-.71-.48-1.6.25-2.6.7-.97 2.07-1.45 2.72-1.63l-.02-.54c-.2-.28-.53-.91-.48-2.19C14.06.67 15.19.26 15.77.26l.01.85c-.15 0-.9.07-.92 1.14-.05 1.28.33 1.68.34 1.68a.5.5 0 0 1 .14.29l.03 1.03c.01.2-.13.39-.33.43-.02 0-1.84.39-2.55 1.38-.49.67-.33 1.2-.13 1.87.08.26.16.53.2.82l.05.38c.09.71.3 2.39.86 2.43h.3c.22 0 .42.18.42.42v1.48c0 .14-.07.26-.18.35.01 0-.27.38-.14 1.75v.15c.16 1.59.27 2.73.52 3.15.4.67.2 2.1 0 2.46-.08.22-.25 1.7.23 2.67.58 1.2.2 3.15.17 3.36 0 0 0 .1.03.26.02.13-.01.24-.1.34s-.2.15-.31.15h-2.59a.27.27 0 0 0-.26.27v1.25c0 .15.12.28.26.28h4.21l-.02.84z"/></svg>