<svg xmlns="http://www.w3.org/2000/svg" viewBox="0 0 32 32"><path fill="#5e686c" d="M11.03 31.63a.43.43 0 0 1-.19-.04L.74 26.8a.42.42 0 0 1-.24-.38V.77C.5.62.58.49.7.4a.41.41 0 0 1 .4 0l10.1 4.78c.16.07.25.22.25.38V31.2a.4.4 0 0 1-.2.35.43.43 0 0 1-.22.07zm-9.68-5.47 9.25 4.38V5.82L1.35 1.44v24.72zm29.87 5.47a.43.43 0 0 1-.18-.04l-10.1-4.79a.42.42 0 0 1 .36-.76l9.5 4.5V5.82l-9.86-4.67c-.21-.1-.3-.34-.2-.56s.36-.3.56-.2l10.1 4.78c.15.07.25.22.25.38v25.66c0 .14-.08.28-.2.36a.46.46 0 0 1-.23.06z"/><path fill="#5e686c" d="M11.03 31.63a.41.41 0 0 1-.39-.24.42.42 0 0 1 .2-.57l9.86-4.66V1.44l-9.5 4.5a.42.42 0 0 1-.36-.76l10.1-4.8a.42.42 0 0 1 .4.03c.13.08.2.22.2.36v25.65c0 .17-.1.32-.24.38l-10.1 4.8a.37.37 0 0 1-.18.04z"/><path id="svg-ico" fill="#ee5586" d="M28.07 13.24a.43.43 0 0 1-.3-.13L23.96 9.3a.43.43 0 0 1 0-.6.43.43 0 0 1 .6 0l3.82 3.82c.16.17.16.43 0 .6a.4.4 0 0 1-.3.13z"/><path id="svg-ico" fill="#ee5586" d="M24.26 13.24a.43.43 0 0 1-.3-.13.43.43 0 0 1 0-.6l3.82-3.82a.43.43 0 0 1 .6 0c.16.17.16.43 0 .6l-3.82 3.83a.44.44 0 0 1-.3.12zM4.06 23.7a.42.42 0 0 1-.42-.42 12.1 12.1 0 0 1 4.42-9.4c3.73-3.15 9.15-4.38 14.87-3.39.23.04.38.26.34.5a.41.41 0 0 1-.49.34c-5.47-.95-10.64.2-14.18 3.19a11.28 11.28 0 0 0-4.12 8.75c0 .24-.18.43-.42.43z"/></svg>