<svg xmlns="http://www.w3.org/2000/svg" viewBox="0 0 32 32"><path fill="#5e686c" d="M15.89 31.57a.47.47 0 0 1-.47-.47V6.49a.47.47 0 0 1 .94 0V31.1c0 .25-.21.46-.47.46z"/><path fill="#5e686c" d="M24.33 10.94H7.46a.47.47 0 0 1 0-.94h16.87a.47.47 0 0 1 0 .94zm-8.44-4.13a3.29 3.29 0 0 1 0-6.56 3.29 3.29 0 0 1 0 6.56zm0-5.62a2.34 2.34 0 1 0 0 4.69 2.34 2.34 0 0 0 0-4.7z"/><path id="svg-ico" fill="#ee5586" d="M15.89 31.57c-7.47 0-14.26-6.8-14.26-14.26v-1.97c0-.25.21-.47.47-.47s.47.22.47.47v1.97c0 6.97 6.34 13.32 13.32 13.32 6.97 0 13.32-6.35 13.32-13.32v-1.97a.47.47 0 1 1 .94 0v1.97c0 7.46-6.8 14.26-14.26 14.26z"/><path id="svg-ico" fill="#ee5586" d="M5.86 15.82H2.1a.47.47 0 0 1 0-.94h3.75a.47.47 0 0 1 0 .94zm23.9 0h-3.75c-.25 0-.47-.21-.47-.47s.22-.47.47-.47h3.75c.26 0 .47.21.47.47s-.2.47-.47.47z"/></svg>