<svg xmlns="http://www.w3.org/2000/svg" viewBox="0 0 32 32"><path fill="#5e686b" d="M15.994 25.869c-5.406 0-9.8-4.4-9.8-9.8 0-5.406 4.4-9.8 9.8-9.8 5.406 0 9.8 4.4 9.8 9.8s-4.394 9.8-9.8 9.8zm0-18.75c-4.938 0-8.95 4.013-8.95 8.95s4.013 8.95 8.95 8.95c4.937 0 8.95-4.012 8.95-8.95s-4.019-8.95-8.95-8.95z"/><path id="svg-ico" fill="#ee5586" d="M15.994 4.569a.425.425 0 0 1-.425-.425V.731a.426.426 0 0 1 .85 0v3.406a.427.427 0 0 1-.425.431zm15.294 11.925h-3.413c-.238 0-.425-.188-.425-.425s.188-.425.425-.425h3.406a.425.425 0 0 1 .006.85zm-27.169 0H.706c-.237 0-.425-.188-.425-.425s.188-.425.425-.425h3.406a.426.426 0 0 1 .006.85zm2.912-8.913a.433.433 0 0 1-.3-.125L4.318 5.043c-.169-.169-.169-.438 0-.6s.438-.169.6 0L7.33 6.855a.418.418 0 0 1 0 .6.422.422 0 0 1-.3.125zm20.3 20.294a.433.433 0 0 1-.3-.125l-2.413-2.413c-.169-.169-.169-.438 0-.6s.438-.169.6 0l2.413 2.413a.418.418 0 0 1 0 .6.433.433 0 0 1-.3.125zM24.95 7.55a.433.433 0 0 1-.3-.125.418.418 0 0 1 0-.6l2.413-2.413c.169-.169.438-.169.6 0s.169.438 0 .6L25.25 7.424a.433.433 0 0 1-.3.125zM4.65 27.844a.433.433 0 0 1-.3-.125.418.418 0 0 1 0-.6l2.413-2.413a.418.418 0 0 1 .6 0 .418.418 0 0 1 0 .6l-2.412 2.413a.399.399 0 0 1-.3.125zm11.344 3.831a.421.421 0 0 1-.425-.425v-3.406a.425.425 0 0 1 .85 0v3.406a.421.421 0 0 1-.425.425z"/></svg>