<svg xmlns="http://www.w3.org/2000/svg" viewBox="0 0 32 32"><path fill="#5e686c" d="M16.01 31.66a15.5 15.5 0 0 1-11.05-4.59C2 24.13.38 20.2.38 16.02S2 7.92 4.96 4.96a15.6 15.6 0 0 1 26.68 11.06c0 4.18-1.63 8.1-4.58 11.05A15.53 15.53 0 0 1 16 31.66zm0-30.41c-3.94 0-7.65 1.54-10.44 4.33s-4.33 6.5-4.33 10.44c0 3.94 1.54 7.66 4.33 10.44a14.72 14.72 0 0 0 20.88.01c2.78-2.78 4.32-6.5 4.32-10.44s-1.54-7.66-4.32-10.45A14.69 14.69 0 0 0 16 1.25z"/><path fill="#5e686c" d="M21.23 11.23a.43.43 0 0 1-.3-.12.43.43 0 0 1 0-.62l5.52-5.52a.43.43 0 0 1 .61.61l-5.52 5.53a.44.44 0 0 1-.3.12zM5.26 27.2a.44.44 0 0 1-.3-.13.43.43 0 0 1 0-.6l5.52-5.53a.43.43 0 0 1 .61.61l-5.52 5.52a.42.42 0 0 1-.3.13zm21.5 0a.43.43 0 0 1-.3-.13l-5.53-5.52a.43.43 0 0 1 .61-.61l5.53 5.52c.17.17.17.45 0 .61a.42.42 0 0 1-.3.13zM10.79 11.23a.43.43 0 0 1-.3-.12L4.95 5.58a.43.43 0 1 1 .6-.62l5.53 5.53c.17.17.17.44 0 .61a.41.41 0 0 1-.3.13z"/><path id="svg-ico" fill="#ee5586" d="M16.01 23.84a7.79 7.79 0 0 1-7.82-7.82 7.8 7.8 0 0 1 7.82-7.81 7.78 7.78 0 0 1 7.82 7.81 7.79 7.79 0 0 1-7.82 7.81zm0-14.77a6.92 6.92 0 0 0-4.91 11.86 6.9 6.9 0 0 0 9.82 0 6.9 6.9 0 0 0 0-9.82 6.9 6.9 0 0 0-4.9-2.04z"/></svg>