<svg xmlns="http://www.w3.org/2000/svg" viewBox="0 0 32 32"><path id="svg-ico" fill="#ee5586" d="M16.063 25.569c-2.637 0-4.781-2.144-4.781-4.781S13.426 16 16.063 16a4.787 4.787 0 0 1 4.781 4.788c.006 2.637-2.144 4.781-4.781 4.781zm0-8.7c-2.156 0-3.912 1.756-3.912 3.913s1.756 3.913 3.912 3.913c2.156 0 3.913-1.756 3.913-3.913s-1.75-3.913-3.913-3.913z"/><path fill="#5e686b" d="M9.594 13.919c-1.919 0-3.481-1.563-3.481-3.481s1.563-3.481 3.481-3.481a3.486 3.486 0 0 1 3.481 3.481 3.482 3.482 0 0 1-3.481 3.481zm0-6.088c-1.438 0-2.612 1.169-2.612 2.606s1.169 2.613 2.612 2.613a2.61 2.61 0 0 0 0-5.219zm12.937 6.088c-1.919 0-3.481-1.563-3.481-3.481s1.563-3.481 3.481-3.481a3.486 3.486 0 0 1 3.481 3.481 3.482 3.482 0 0 1-3.481 3.481zm0-6.088c-1.438 0-2.606 1.169-2.606 2.606s1.169 2.613 2.606 2.613a2.616 2.616 0 0 0 2.613-2.613 2.61 2.61 0 0 0-2.613-2.606z"/><path fill="#5e686b" d="M14.325 31.6h-.05C6.369 30.7.406 24.013.406 16.044.406 7.407 7.431.388 16.062.388s15.656 7.025 15.656 15.656c0 7.969-5.962 14.656-13.869 15.556-.238.019-.456-.144-.481-.381s.144-.456.381-.481c7.469-.85 13.094-7.162 13.094-14.694 0-8.156-6.631-14.787-14.787-14.787-8.15 0-14.787 6.631-14.787 14.787 0 7.525 5.631 13.844 13.1 14.694a.43.43 0 0 1 .381.481.422.422 0 0 1-.425.381z"/></svg>