<svg xmlns="http://www.w3.org/2000/svg" viewBox="0 0 32 32"><path fill="#5e686b" d="M24.169 14.556H7.832c-3.987 0-7.237-3.244-7.237-7.231S3.845.088 7.832.088h16.331c3.994 0 7.238 3.244 7.238 7.237s-3.244 7.231-7.231 7.231zM7.831 1.194C4.45 1.194 1.7 3.944 1.7 7.325s2.75 6.131 6.131 6.131h16.331c3.381 0 6.131-2.75 6.131-6.131s-2.75-6.131-6.131-6.131H7.831z"/><path id="svg-ico" fill="#ee5586" d="M7.831 11.194c-2.131 0-3.869-1.738-3.869-3.869S5.7 3.456 7.831 3.456c2.131 0 3.869 1.738 3.869 3.869s-1.738 3.869-3.869 3.869zm0-6.631c-1.525 0-2.763 1.237-2.763 2.763s1.237 2.763 2.763 2.763c1.525 0 2.763-1.238 2.763-2.763S9.356 4.563 7.831 4.563zm16.338 24.068c-2.131 0-3.869-1.738-3.869-3.869s1.738-3.869 3.869-3.869c2.131 0 3.869 1.738 3.869 3.869s-1.738 3.869-3.869 3.869zm0-6.631c-1.525 0-2.762 1.238-2.762 2.762s1.238 2.762 2.762 2.762c1.525 0 2.762-1.238 2.762-2.762 0-1.519-1.238-2.762-2.762-2.762z"/><path fill="#5e686b" d="M24.169 32H7.832C3.845 32 .595 28.756.595 24.762s3.244-7.238 7.237-7.238h16.331c3.994 0 7.238 3.244 7.238 7.238S28.157 32 24.17 32zM7.831 18.631c-3.381 0-6.131 2.75-6.131 6.131s2.75 6.131 6.131 6.131h16.331c3.381 0 6.131-2.75 6.131-6.131s-2.75-6.131-6.131-6.131H7.831z"/></svg>