<svg xmlns="http://www.w3.org/2000/svg" viewBox="0 0 32 32"><path id="svg-ico" fill="#ee5586" d="m27.2 10.5-.2-.1a.4.4 0 0 1 0-.6L30.8 6 27 2.2a.4.4 0 0 1 0-.6h.5l4.1 4.1c.2.1.2.4 0 .6l-4 4-.4.2zM.6 15.1a.4.4 0 0 1-.4-.4V9.4a4 4 0 0 1 4.1-4.1H25c.3 0 .4.1.4.4s-.1.4-.4.4H4.3A3.4 3.4 0 0 0 1 9.4v5.3c0 .2-.2.4-.4.4z"/><path fill="#5e686b" d="M27.6 26.4H6.9c-.2 0-.4-.2-.4-.4s.2-.4.4-.4h20.7c1.8 0 3.3-1.5 3.3-3.4v-5.4c0-.2.2-.4.4-.4s.4.2.4.4v5.4c0 2.3-1.8 4.2-4.1 4.2z"/><path fill="#5e686b" d="M11 30.5s-.2 0-.2-.2l-4.2-4v-.6l4.1-4.1c.2-.2.4-.2.6 0v.6L7.5 26l3.8 3.8v.6H11z"/></svg>