<svg xmlns="http://www.w3.org/2000/svg" viewBox="0 0 32 32"><path fill="#5e686b" d="M27.13 31.84H5.39c-.78 0-1.42-.63-1.42-1.4V1.77C3.97.99 4.61.36 5.4.36h21.73c.79 0 1.42.63 1.42 1.42v28.65a1.4 1.4 0 0 1-1.41 1.41zM5.39 1.21a.56.56 0 0 0-.57.56v28.66c0 .31.25.56.57.56h21.74c.3 0 .56-.25.56-.56V1.77a.56.56 0 0 0-.56-.56H5.39z"/><path id="svg-ico" fill="#ee5586" d="M16.26 29.31a1.7 1.7 0 1 1 0-3.4 1.7 1.7 0 0 1 0 3.4zm0-2.55a.85.85 0 1 0 0 1.7.85.85 0 0 0 0-1.7zm1.27-23.03h-2.55c-.24 0-.42-.2-.42-.43s.18-.42.42-.42h2.55c.24 0 .43.18.43.42 0 .23-.2.43-.43.43z"/></svg>