<svg xmlns="http://www.w3.org/2000/svg" viewBox="0 0 32 32"><path fill="#5e686c" d="M25.02 31.69h-5.8a.43.43 0 0 1-.43-.43c0-2.38-1.88-4.48-4.03-4.48-.68 0-.93.1-1.15.18l-.12.04a.43.43 0 0 1-.27-.8l.1-.04c.27-.1.62-.22 1.44-.22 2.47 0 4.66 2.25 4.87 4.9h4.97V28.6a.43.43 0 0 1 .85 0v2.68c0 .23-.2.42-.43.42zm-14.71 0H4.5a.43.43 0 0 1-.43-.43V3.61c0-.23.19-.42.43-.42h2.67a.43.43 0 0 1 0 .85H4.93v26.8H9.9c.03-.63.16-1.79.61-2.48.12-.2.39-.25.59-.12.2.12.25.39.12.59a5.6 5.6 0 0 0-.48 2.44c0 .23-.2.42-.42.42z"/><path id="svg-ico" fill="#ee5586" d="M27.7 29.01h-5.8a.43.43 0 0 1-.43-.42c0-2.39-1.89-4.48-4.04-4.48-2.17 0-4.08 2.09-4.08 4.48 0 .23-.19.42-.43.42H7.17a.43.43 0 0 1-.43-.42V.94c0-.23.2-.43.43-.43h5.8c.23 0 .42.19.42.43 0 2.39 1.9 4.48 4.04 4.48s4.04-2.1 4.04-4.48c0-.23.19-.43.42-.43h5.8c.24 0 .43.19.43.43v27.65c0 .24-.19.42-.42.42zm-5.4-.84h4.98V1.37H22.3c-.22 2.65-2.4 4.9-4.87 4.9s-4.66-2.25-4.87-4.9H7.6v26.8h4.92c.22-2.66 2.42-4.9 4.91-4.9 2.48 0 4.66 2.24 4.88 4.9z"/><path fill="#5e686c" d="M25.5 10.28H10.27a.43.43 0 0 1 0-.85h15.21a.43.43 0 0 1 0 .85z"/></svg>