<svg xmlns="http://www.w3.org/2000/svg" viewBox="0 0 32 32"><path fill="#5e686b" d="M12.5 9.19c.25-.2.54-.35.86-.43-.35-2.88-3.1-5.12-6.37-5.12a.46.46 0 0 0 0 .91c2.88 0 5.3 1.99 5.48 4.51l.03.13z"/><path fill="#5e686b" d="M8.53 14.04a.45.45 0 0 0-.21 0c-1.1.24-2.27.17-3.33-.19a.46.46 0 0 0-.32.01l-.86.38-.14-.87a.46.46 0 0 0-.18-.3 4.6 4.6 0 0 1-2-3.7C1.5 6.7 3.96 4.53 7 4.53c.25 0 .45-.2.45-.45s-.2-.46-.45-.46C3.47 3.62.6 6.2.6 9.36c0 1.67.8 3.24 2.21 4.33l.15.92a.64.64 0 0 0 .66.64c.1 0 .2-.03.26-.07l1-.43a7.2 7.2 0 0 0 3.23.24c.06-.35.21-.68.43-.96z"/><path id="svg-ico" fill="#ee5586" d="M26.18 28.93a.85.85 0 0 1-.42-.12l-2.06-.88c-1.34.45-2.76.66-4.2.66-6.7 0-12.14-4.85-12.14-10.81 0-5.97 5.45-10.82 12.15-10.82s12.15 4.85 12.15 10.81c0 3.21-1.58 6.22-4.33 8.28L27 28.17c0 .39-.37.75-.82.75zm-2.46-1.94a.4.4 0 0 1 .18.04l2.22.95.35-2.25a.46.46 0 0 1 .18-.3 9.5 9.5 0 0 0 4.1-7.66c0-5.47-5.04-9.91-11.24-9.91S8.27 12.3 8.27 17.77c0 5.46 5.04 9.91 11.24 9.91a12.53 12.53 0 0 0 4.2-.7z"/></svg>