<svg xmlns="http://www.w3.org/2000/svg" viewBox="0 0 32 32"><path id="svg-ico" fill="#ee5586" d="M12.069 23.488c-1.894 0-3.431-1.538-3.431-3.431s1.537-3.431 3.431-3.431 3.431 1.538 3.431 3.431-1.537 3.431-3.431 3.431zm0-6.007c-1.419 0-2.575 1.156-2.575 2.575s1.156 2.575 2.575 2.575c1.419 0 2.575-1.156 2.575-2.575s-1.156-2.575-2.575-2.575z"/><path fill="#5e686c" d="M12.069 27.775c-4.256 0-7.719-3.462-7.719-7.719s3.463-7.719 7.719-7.719 7.719 3.463 7.719 7.719-3.462 7.719-7.719 7.719zm0-14.581a6.87 6.87 0 0 0-6.862 6.862c0 3.781 3.075 6.863 6.862 6.863 3.781 0 6.862-3.075 6.862-6.863s-3.075-6.863-6.863-6.863z"/><path fill="#5e686c" d="M12.069 31.813C5.588 31.813.313 26.538.313 20.057c0-6.488 5.275-11.762 11.762-11.762s11.762 5.275 11.762 11.762c-.006 6.481-5.281 11.756-11.769 11.756zm0-22.663c-6.013 0-10.9 4.894-10.9 10.9 0 6.012 4.894 10.9 10.9 10.9 6.013 0 10.9-4.887 10.9-10.9.006-6.006-4.887-10.9-10.9-10.9zm13.612 2.163c-1.081 0-2.181-.544-3.25-1.619-1.337-1.338-1.85-2.7-1.525-4.037.831-3.369 6.781-5.263 7.031-5.344a.425.425 0 0 1 .556.407v2.906h2.906c.137 0 .262.063.344.175s.106.25.063.381c-.087.294-2.269 7.131-6.125 7.131zm1.956-9.982c-1.456.544-5.319 2.181-5.894 4.531-.25 1.031.181 2.112 1.294 3.225.906.906 1.8 1.369 2.644 1.369 2.663 0 4.525-4.388 5.113-5.969h-2.731a.432.432 0 0 1-.431-.431V1.331z"/><path fill="#5e686c" d="M.738 31.813a.445.445 0 0 1-.306-.125.426.426 0 0 1 0-.606l3.337-3.331c.169-.169.438-.169.606 0s.169.438 0 .606l-3.331 3.331a.449.449 0 0 1-.306.125zm22.662 0a.445.445 0 0 1-.306-.125l-3.331-3.331c-.169-.169-.169-.438 0-.606s.438-.169.606 0l3.331 3.331a.426.426 0 0 1 0 .606.422.422 0 0 1-.3.125z"/><path id="svg-ico" fill="#ee5586" d="M12.069 20.481a.445.445 0 0 1-.306-.125.426.426 0 0 1 0-.606l16-15.994c.169-.169.438-.169.606 0s.169.438 0 .606L12.375 20.356a.423.423 0 0 1-.306.125z"/><path id="svg-ico" fill="#ee5586" d="M24.738 7.819a.432.432 0 0 1-.431-.431V2.182a.432.432 0 0 1 .862 0v5.206a.44.44 0 0 1-.431.431z"/></svg>