<svg xmlns="http://www.w3.org/2000/svg" viewBox="0 0 32 32"><path fill="#5e686b" d="M28.8 31.8H3.2a.4.4 0 0 1 0-.9h25.6a.4.4 0 0 1 0 .9zm-8.6-4h-12a1 1 0 0 1-.6-.2 11 11 0 0 1-4.5-8.8v-6c0-.6.5-1 1-1h20.2c.5 0 1 .4 1 1v2a5 5 0 0 1 4 5 5 5 0 0 1-5 5h-.8a11 11 0 0 1-2.7 2.8 1 1 0 0 1-.6.2zm-16-15.2-.2.1v6A10.2 10.2 0 0 0 8.2 27h12c1.1-.8 2-1.8 2.7-3l.5-.2h.1l.7.2c2.3 0 4.2-1.9 4.3-4.2 0-2-1.6-3.9-3.7-4.2a.4.4 0 0 1-.4-.4v-2.5l-.1-.1H4z"/><path id="svg-ico" fill="#ee5586" d="M9.2 8.8a.4.4 0 0 1-.5-.5v-5c0-.3.2-.5.5-.5s.4.2.4.4v5.1c0 .3-.2.5-.4.5zm10 0a.4.4 0 0 1-.4-.5v-5c0-.3.2-.5.4-.5s.5.2.5.4v5.1c0 .3-.2.5-.5.5zm-5 0a.4.4 0 0 1-.4-.5V.6a.4.4 0 0 1 .8 0v7.7c0 .3-.2.5-.4.5z"/></svg>