<svg xmlns="http://www.w3.org/2000/svg" viewBox="0 0 32 32"><path fill="#5e686b" d="M15.569 31.731H1.738a1.415 1.415 0 0 1-1.413-1.413V1.681C.325.9.956.268 1.738.268h20.744c.781 0 1.413.631 1.413 1.413v4.938a.426.426 0 0 1-.85 0V1.681a.564.564 0 0 0-.563-.563H1.738a.564.564 0 0 0-.563.563v28.644c0 .313.256.563.563.563h13.825c.231 0 .425.188.425.425a.42.42 0 0 1-.419.419z"/><path id="svg-ico" fill="#ee5586" d="M30.381 31.731H19.518a1.412 1.412 0 0 1-1.413-1.413v-19.75a1.41 1.41 0 0 1 1.413-1.412h10.863c.775 0 1.413.631 1.413 1.412v19.756c0 .775-.637 1.406-1.413 1.406zM19.519 10.006a.564.564 0 0 0-.563.563v19.756c0 .313.256.563.563.563h10.863a.564.564 0 0 0 .563-.563V10.569a.56.56 0 0 0-.563-.563H19.519z"/><path fill="#5e686b" d="M12.106 29.544a1.695 1.695 0 0 1-1.694-1.694c0-.931.756-1.694 1.694-1.694s1.694.756 1.694 1.694a1.69 1.69 0 0 1-1.694 1.694zm0-2.538a.844.844 0 1 0 0 1.688.844.844 0 0 0 0-1.688z"/><path id="svg-ico" fill="#ee5586" d="M24.95 29.544a1.695 1.695 0 0 1-1.694-1.694c0-.931.756-1.694 1.694-1.694s1.694.756 1.694 1.694-.762 1.694-1.694 1.694zm0-2.538a.844.844 0 1 0 0 1.688.844.844 0 0 0 0-1.688z"/></svg>