<svg xmlns="http://www.w3.org/2000/svg" viewBox="0 0 32 32"><path fill="#5e686b" d="M25.05 3.17a.86.86 0 0 0-1.2-.44L13.33 8.27a.86.86 0 0 0-.4 1.07l.09.22-5.75 3.15a.86.86 0 0 0-.38 1.1l.05.1-6.09 2.9c-.4.2-.6.7-.42 1.12l1.32 3.18a.86.86 0 0 0 1.08.49l6.35-2.25.05.11a.86.86 0 0 0 1.04.5l6.05-1.75.06.14c.15.41.64.65 1.05.52l11.47-3.53a.87.87 0 0 0 .55-1.14l-4.4-11.03zM10.02 19.13l-.2-.49a.43.43 0 0 0-.53-.23l-6.73 2.38v.43l-.02-.43-1.31-3.22 6.43-3.07c.2-.1.3-.34.2-.54l-.18-.51 5.63-3.1 2.7 7.07-5.99 1.71zm7.16-1.08-3.44-9.04 10.53-5.53 4.4 11.06-11.5 3.51z"/><path id="svg-ico" fill="#ee5586" d="M31.66 14.64 26.36 1.4a.43.43 0 0 0-.54-.24.43.43 0 0 0-.24.55l5.3 13.23a.43.43 0 0 0 .54.23.4.4 0 0 0 .24-.53z"/><path fill="#5e686b" d="M18.5 24.34v-.94a2.2 2.2 0 0 0-2.2-2.25h-2.64c-1.25 0-2.2.94-2.2 2.19v1l-5.08 5.93c-.15.18-.13.45.04.6s.45.13.6-.05l5.19-6.05c.06-.07.1-.17.1-.27v-1.16c0-.78.56-1.35 1.34-1.35h2.65c.75 0 1.34.62 1.34 1.4v1.1c0 .1.04.2.1.28l5.2 6.05c.07.1.2.15.31.15a.42.42 0 0 0 .32-.7l-5.08-5.94z"/><path fill="#5e686b" d="M14.98 24.16a.43.43 0 0 0-.42.43v5.96a.43.43 0 0 0 .85 0V24.6a.42.42 0 0 0-.43-.43z"/></svg>