<svg xmlns="http://www.w3.org/2000/svg" viewBox="0 0 32 32"><path id="svg-ico" fill="#ee5586" d="M5.28 4.96a1.9 1.9 0 1 0 0 3.79 1.9 1.9 0 0 0 0-3.8zm0 2.83c-.53 0-.95-.42-.95-.95s.42-.94.95-.94a.95.95 0 1 1 0 1.9z"/><path fill="#5e686b" d="M30.93 14.83a4.37 4.37 0 0 0-.74-4.06c.05-1.97-.47-3.46-1.5-4.36a6.01 6.01 0 0 0-1.37-3.3 2.78 2.78 0 0 0-2.1-1.1H12c-.6 0-1.23.2-1.86.58A3 3 0 0 0 7.3.58H3.24A3 3 0 0 0 .25 3.57V18.6a3 3 0 0 0 2.99 2.99H7.3a3 3 0 0 0 2.9-2.27c1.48 1.5 2.43 3.64 3.43 6.5v3.77c0 .22.06.43.17.61a2.82 2.82 0 0 0 2.48 1.37c1.27 0 2.6-.75 3.55-2 .86-1.14 2.14-3.66 1.3-7.98h5.45c1.67 0 4.86-1.6 4.86-4.13 0-.8-.1-1.87-.52-2.63zM9.35 18.6c0 1.13-.91 2.04-2.04 2.04H3.24A2.04 2.04 0 0 1 1.2 18.6V3.57c0-1.13.91-2.04 2.04-2.04H7.3c1.13 0 2.04.91 2.04 2.04V18.6zm17.24 2.04h-6.03a.48.48 0 0 0-.46.58c.98 4.3-.21 6.7-1 7.77-.78 1.02-1.83 1.63-2.81 1.63a1.9 1.9 0 0 1-1.67-.91.28.28 0 0 1-.03-.13v-3.84c0-.05 0-.11-.02-.16-1.17-3.37-2.3-5.81-4.27-7.46V3.62a3.1 3.1 0 0 1 1.7-.66h13.22c.48 0 .96.27 1.4.77a5.02 5.02 0 0 1 1.13 2.93c0 .14.07.28.19.37.94.7 1.38 2.05 1.3 3.89 0 .13.04.26.13.35.99 1.03.94 2.51.6 3.46a.5.5 0 0 0 .06.44c.3.43.48 1.24.48 2.29 0 1.95-2.76 3.18-3.92 3.18z"/></svg>