<svg xmlns="http://www.w3.org/2000/svg" viewBox="0 0 32 32"><path id="svg-ico" fill="#ee5586" d="M5.4 23.16a1.9 1.9 0 1 0 .01 3.8 1.9 1.9 0 0 0 0-3.8zm0 2.85a.95.95 0 1 1 0-1.9.95.95 0 0 1 0 1.9z"/><path fill="#5e686b" d="M31.1 17.07c.42-.76.52-1.83.52-2.63 0-2.53-3.2-4.14-4.87-4.14h-5.46c.84-4.32-.43-6.84-1.29-7.98a4.67 4.67 0 0 0-3.56-2c-1.05 0-1.95.5-2.48 1.36-.11.18-.17.4-.17.61v3.78c-1 2.86-1.95 5.01-3.44 6.5a3 3 0 0 0-2.9-2.26H3.36a3 3 0 0 0-2.99 2.98v15.06a3 3 0 0 0 3 2.99h4.07a3 3 0 0 0 2.83-2.01c.63.38 1.27.57 1.87.57h13.23c.76 0 1.5-.38 2.12-1.1a6 6 0 0 0 1.36-3.3c1.04-.9 1.56-2.4 1.5-4.36a4.38 4.38 0 0 0 .75-4.07zM9.49 28.35c0 1.13-.92 2.04-2.05 2.04H3.36a2.05 2.05 0 0 1-2.04-2.04V13.29c0-1.12.92-2.03 2.04-2.03h4.08c1.13 0 2.05.9 2.05 2.03v15.06zm20.7-11.62a.5.5 0 0 0-.06.44c.35.95.39 2.44-.6 3.47a.48.48 0 0 0-.13.35c.09 1.85-.36 3.2-1.3 3.9a.46.46 0 0 0-.19.37 5.05 5.05 0 0 1-1.14 2.93c-.43.5-.9.76-1.39.76H12.14c-.52 0-1.12-.23-1.7-.66V13.78c1.97-1.65 3.1-4.1 4.27-7.47.02-.05.03-.1.03-.16V2.29c0-.04 0-.08.03-.12.35-.58.95-.91 1.66-.91.98 0 2.03.6 2.8 1.63.8 1.05 2 3.47 1 7.77-.02.15 0 .29.1.4.09.12.23.18.37.18h6.05c1.16 0 3.92 1.24 3.92 3.2 0 1.05-.17 1.86-.48 2.3z"/></svg>