<svg xmlns="http://www.w3.org/2000/svg" viewBox="0 0 32 32"><path fill="#5e686b" d="M9 4.79c.23 0 .42-.2.42-.43V1.3h3.37a.43.43 0 0 0 0-.85H9a.42.42 0 0 0-.42.43v3.5c0 .23.19.42.42.42zm6.82-3.49h5.94a.43.43 0 0 0 0-.85h-5.94c-.24 0-.43.18-.43.42s.2.42.43.42zm8.86 0h3.37v3.37c0 .24.19.42.42.42s.43-.18.43-.42V.87a.42.42 0 0 0-.42-.43h-3.8a.43.43 0 1 0 0 .85zm3.79 12.78a.42.42 0 0 0-.43.43v4.8a.43.43 0 0 0 .85 0v-4.8a.42.42 0 0 0-.42-.43zm0-7.44a.42.42 0 0 0-.43.42v4.8a.43.43 0 1 0 .85 0v-4.8a.42.42 0 0 0-.42-.42zm0 15.16a.42.42 0 0 0-.43.43v3.05L24 22.9v.95l4.26 2.54c.07.04.14.06.22.06a.42.42 0 0 0 .42-.42v-3.8a.42.42 0 0 0-.42-.42z"/><path id="svg-ico" fill="#ee5586" d="M23.99 6.1a.42.42 0 0 0-.43-.42H4.1a.42.42 0 0 0-.43.42v25.16c0 .15.08.29.21.36s.3.08.43 0l9.52-5.69 9.52 5.69c.07.04.14.06.22.06a.42.42 0 0 0 .42-.42V6.1zm-.85 24.4-9.1-5.42c-.07-.04-.15-.07-.22-.07s-.15.02-.22.06l-9.1 5.45v-24h18.63v23.99z"/></svg>