<svg xmlns="http://www.w3.org/2000/svg" viewBox="0 0 32 32"><path id="svg-ico" fill="#ee5586" d="M16.19 21.33a3 3 0 0 1-2.13-5.13 3.08 3.08 0 0 1 4.25 0 2.97 2.97 0 0 1 0 4.25c-.57.57-1.32.88-2.12.88zm0-5.14a2.14 2.14 0 0 0-1.52 3.66c.81.8 2.22.8 3.03 0a2.13 2.13 0 0 0-1.51-3.66z"/><path fill="#5e686c" d="M18.59 5.78a.43.43 0 0 1-.43-.44V3.08a1.97 1.97 0 1 0-3.94 0v2c0 .24-.2.43-.43.43s-.43-.2-.43-.43v-2a2.83 2.83 0 0 1 5.65 0v2.26a.41.41 0 0 1-.42.44z"/><path id="svg-ico" fill="#ee5586" d="M22.98 7.6a.37.37 0 0 1-.23-.06.43.43 0 0 1-.13-.6l1.44-2.3a.4.4 0 0 1 .27-.18c.11-.02.23 0 .33.06l1.57 1.03c.2.14.25.4.13.6-.13.2-.4.25-.6.12l-1.2-.79-1.22 1.93a.42.42 0 0 1-.37.2z"/><path id="svg-ico" fill="#ee5586" d="M24.41 5.3a.47.47 0 0 1-.23-.06L22.6 4.2a.43.43 0 0 1-.13-.6c.14-.2.4-.25.6-.12l1.57 1.03c.2.13.25.4.13.6a.43.43 0 0 1-.36.19zm-8.22 10.8a.43.43 0 0 1-.43-.44v-5.58a.43.43 0 0 1 .86 0v5.58c0 .24-.2.43-.43.43zm7.85 2.66h-5.18a.43.43 0 0 1 0-.87h5.18a.43.43 0 0 1 0 .87z"/><path fill="#5e686c" d="M3.25 17.04h-.06a.43.43 0 0 1-.36-.48A13.5 13.5 0 0 1 23.18 6.8a.43.43 0 0 1-.44.74 12.48 12.48 0 0 0-6.57-1.84c-6.31 0-11.7 4.71-12.51 10.96a.42.42 0 0 1-.42.38z"/><path fill="#5e686c" d="M16.2 31.8A13.49 13.49 0 0 1 2.81 19.96c-.03-.24.14-.45.38-.47s.45.13.47.37a12.62 12.62 0 1 0 19.1-12.32.43.43 0 0 1 .45-.73 13.4 13.4 0 0 1 6.46 11.51A13.5 13.5 0 0 1 16.2 31.8z"/></svg>