<svg xmlns="http://www.w3.org/2000/svg" viewBox="0 0 32 32"><path fill="#5e686c" d="M26.23 1.17H6.45c-.24 0-.42-.19-.42-.43s.18-.42.42-.42h19.78a.42.42 0 0 1 0 .85z"/><path id="svg-ico" fill="#ee5586" d="M16.34 13.84a.43.43 0 0 1-.32-.14l-4.36-4.92a.43.43 0 0 1 .31-.71h8.97c.16 0 .32.1.38.25a.4.4 0 0 1-.08.46l-4.6 4.93a.38.38 0 0 1-.3.13zm-3.42-4.91 3.42 3.86 3.62-3.86h-7.04z"/><path fill="#5e686c" d="M26.23 31.75H6.45c-.24 0-.42-.19-.42-.42s.18-.43.42-.43h19.78c.23 0 .42.19.42.42s-.19.43-.42.43z"/><path id="svg-ico" fill="#ee5586" d="M16.34 21.36a.42.42 0 0 1-.43-.43v-.91a.42.42 0 1 1 .85 0v.91c0 .23-.19.43-.42.43zm0-2.75a.42.42 0 0 1-.43-.42v-.92c0-.23.19-.42.43-.42s.42.19.42.42v.92c0 .24-.19.42-.42.42zm5.33 10.02a.43.43 0 0 1-.3-.13l-5.03-5.03-5.03 5.03c-.17.17-.43.17-.6 0s-.17-.43 0-.6l5.33-5.33a.42.42 0 0 1 .6 0l5.33 5.33c.17.17.17.43 0 .6a.43.43 0 0 1-.3.13z"/><path fill="#5e686c" d="M24.56 28.79H8.12a.42.42 0 0 1-.43-.43v-3.3c0-4.42 3.3-7.45 5.6-9.03-2-1.39-5.52-4.47-5.52-9.03V3.7c0-.24.19-.42.42-.42h16.37c.24 0 .43.18.43.42V7c0 4.43-3.3 7.46-5.6 9.03 2.03 1.4 5.6 4.51 5.6 9.06v3.27c0 .24-.2.43-.43.43zm-16.02-.85h15.6V25.1c0-4.57-4.01-7.6-5.74-8.7a.42.42 0 0 1 0-.7c2.14-1.36 5.74-4.3 5.74-8.68V4.13H8.62V7c0 4.59 3.96 7.6 5.66 8.68a.42.42 0 0 1 0 .7c-2.14 1.37-5.74 4.3-5.74 8.68v2.88z"/></svg>