<svg xmlns="http://www.w3.org/2000/svg" viewBox="0 0 32 32"><path fill="#5e686b" d="M2.12 5.21a2.44 2.44 0 0 0 3.16.28l6.16 6c.08.08.2.12.3.12.12 0 .23-.05.31-.13a.43.43 0 0 0 0-.61L5.88 4.88a2.5 2.5 0 0 0-.28-3.17L4.9.98a.45.45 0 0 0-.61 0L1.4 3.88a.43.43 0 0 0 0 .61l.72.72zM4.58 1.9l.42.42c.63.63.63 1.67 0 2.3a1.58 1.58 0 0 1-2.26 0L2.3 4.2l2.27-2.3zm16.56 19.37 5.55 5.62c.08.08.2.12.3.12a.4.4 0 0 0 .3-.12.43.43 0 0 0 .02-.6l-5.56-5.62a.43.43 0 1 0-.61.6z"/><path fill="#5e686b" d="m30.18 23.37-6.17-6.24a.43.43 0 0 0-.61 0 .43.43 0 0 0 0 .6l6.17 6.24a3.72 3.72 0 0 1 0 5.21 3.6 3.6 0 0 1-5.14.01l-6.18-6.24a.43.43 0 0 0-.6 0 .43.43 0 0 0-.01.6l6.18 6.24a4.46 4.46 0 0 0 6.36 0 4.57 4.57 0 0 0 0-6.42z"/><path id="svg-ico" fill="#ee5586" d="M23.72 14.66c1.74 0 3.39-.7 4.6-1.92l2.62-2.38v-.01l.05-.05.01-.01a.43.43 0 0 0-.02-.54h-.01l-2.2-2.4a.41.41 0 0 0-.3-.14.43.43 0 0 0-.32.13l-1.44 1.45c-.99 1-2.72 1-3.7 0a2.67 2.67 0 0 1 0-3.75l1.43-1.45a.44.44 0 0 0 0-.6L22.28.78V.77l-.02-.02h-.02l-.01-.02-.02-.01-.02-.01-.01-.01-.03-.01h-.01L22.1.67h-.01l-.03-.01h-.19l-.02.01h-.02l-.02.01h-.02l-.02.02h-.01l-.03.02-.03.02-.03.03L19.1 3.4a6.64 6.64 0 0 0 0 9.32 6.48 6.48 0 0 0 4.62 1.94zM19.72 4l2.25-2.31 1.57 1.58-1.14 1.15a3.54 3.54 0 0 0 0 4.96 3.45 3.45 0 0 0 4.92 0l1.12-1.13 1.6 1.75-2.31 2.1a5.6 5.6 0 0 1-8.02 0 5.76 5.76 0 0 1 0-8.1zM3.9 26.61c-.24 0-.43.2-.43.43s.2.44.43.44h2.04c.23 0 .43-.2.43-.44s-.2-.43-.43-.43H3.9z"/><path fill="#5e686b" d="M17.64 17.64a.44.44 0 0 0 .6 0 .43.43 0 0 0 0-.6L14.22 13c-.17-.17-.44-.17-.6 0s-.17.43 0 .6l4.03 4.03z"/><path id="svg-ico" fill="#ee5586" d="M15.66 19.01a.43.43 0 0 0-.6.1l-7.6 10.57a3.6 3.6 0 0 1-5.14 0 3.7 3.7 0 0 1-.06-5.16L12.8 16.8a.43.43 0 1 0-.5-.7L1.7 23.88a4.57 4.57 0 0 0 0 6.4 4.48 4.48 0 0 0 6.4-.05l7.66-10.61a.44.44 0 0 0-.1-.6z"/></svg>