<svg xmlns="http://www.w3.org/2000/svg" viewBox="0 0 32 32"><path fill="#5e686b" d="M16.106.338C7.431.338.381 7.394.381 16.063c0 8.675 7.056 15.725 15.725 15.725s15.725-7.05 15.725-15.725c0-8.669-7.05-15.725-15.725-15.725zm0 30.587c-8.194 0-14.863-6.669-14.863-14.863S7.912 1.206 16.106 1.206c8.194 0 14.863 6.669 14.863 14.863 0 8.188-6.669 14.856-14.863 14.856z"/><path id="svg-ico" fill="#ee5586" d="M27.45 16.125H16.837l5.319-9.669a.432.432 0 0 0-.163-.581c-3.594-2.075-8.194-2.075-11.775 0a.429.429 0 0 0-.162.581l5.319 9.669H4.756a.432.432 0 0 0-.431.431c0 4.056 2.094 7.5 5.894 9.7a.439.439 0 0 0 .588-.15l5.3-8.719 5.3 8.719a.437.437 0 0 0 .588.15c3.8-2.2 5.894-5.644 5.894-9.7a.433.433 0 0 0-.438-.431zm-6.262-9.706-5.081 9.244-5.081-9.244c3.131-1.656 7.019-1.662 10.163 0zM10.287 25.288c-3.156-1.962-4.95-4.881-5.088-8.3H15.33l-5.044 8.3zm11.638 0-5.05-8.294h10.131c-.137 3.413-1.925 6.338-5.081 8.294z"/></svg>