<svg xmlns="http://www.w3.org/2000/svg" viewBox="0 0 32 32"><path fill="#5e686c" d="M13.306 27.056c-3.056 0-8.781-.819-12.819-6.325-.125-.175-.1-.413.056-.556s.4-.144.562-.006c.219.194 5.444 4.7 10.756-.275a.423.423 0 0 1 .594.019.423.423 0 0 1-.019.594c-3.6 3.369-7.225 2.744-9.512 1.738 3.588 3.406 7.906 3.969 10.381 3.969 2.194 0 7.287-.931 10.825-4.45 2.087-2.075 2.8-3.969 3.031-5.188.038-.2.194-.337.419-.344.637.006 1.644-.063 2.469-.512-1.056.006-2.394-.088-2.5-.594-.044-.213.119-.456.319-.525a.263.263 0 0 1 .094-.019c.913-.081 1.512-.325 1.913-.594-.756.113-1.731.094-2.594-.412a.407.407 0 0 1-.194-.269c-.644-2.813-2.881-5.513-5.912-5.225a.411.411 0 0 1-.356-.144.431.431 0 0 1-.094-.375c.106-.45.113-1.056-.05-1.188-.056-.05-.238-.05-.569.088-1.281.563-2.8 3.1-4.169 6.95-.075.219-.319.331-.537.256s-.331-.319-.256-.537c.85-2.394 2.581-6.544 4.625-7.438.613-.269 1.094-.256 1.444.031.425.356.456 1.013.413 1.487 3.175 0 5.494 2.769 6.231 5.713 1.3.637 2.962-.056 2.981-.069a.426.426 0 0 1 .444.069.42.42 0 0 1 .125.425c-.012.05-.275.931-1.425 1.531.375 0 .788-.012 1.206-.056a.437.437 0 0 1 .413.213.43.43 0 0 1-.031.463c-.944 1.256-2.575 1.531-3.65 1.563-.313 1.331-1.131 3.238-3.194 5.288-3.738 3.725-9.106 4.706-11.419 4.706z"/><path id="svg-ico" fill="#ee5586" d="M11.669 20.65c-1.338 0-2.044-.688-2.15-1.438-.05-.375.044-.775.3-1.106-1.725-.325-2.225-1.119-2.569-1.919-.162-.375-.081-.65.013-.813.144-.244.394-.387.706-.481-1.281-.688-2.287-1.669-2.112-2.838.112-.475.569-.575 1.013-.594-.894-.675-2.244-1.881-1.794-3.669a.435.435 0 0 1 .231-.281c.119-.05.25-.05.362.006.706.362 1.581.688 2.513 1.031 2.369.881 5.319 1.975 7.675 4.444.163.169.156.431-.012.594s-.431.156-.594-.012c-2.225-2.331-4.95-3.344-7.362-4.237-.731-.275-1.438-.531-2.063-.813.019 1.056.938 1.825 1.831 2.475.356.262.537.394.606.6a.59.59 0 0 1-.063.45c-.188.256-.525.256-.95.25-.156 0-.425-.006-.569.019-.013.787 1.169 1.762 2.944 2.375.188.063.3.25.281.444s-.175.35-.369.369l-.325.037c-.375.037-1.069.113-1.213.25.006.006.012.031.025.063.294.681.625 1.45 3.15 1.556a.419.419 0 0 1 .05.832c-.637.106-.919.506-.869.85.063.425.637.825 1.75.688a.426.426 0 0 1 .469.369.426.426 0 0 1-.369.469 5.623 5.623 0 0 1-.537.031z"/></svg>