<svg xmlns="http://www.w3.org/2000/svg" viewBox="0 0 32 32"><path fill="#5e686c" d="M16.2 29.34a.42.42 0 0 1-.42-.43V14.3a.42.42 0 1 1 .85 0v14.6c0 .24-.19.43-.42.43zm0-26.01a.42.42 0 0 1-.42-.42V.84c0-.23.19-.42.43-.42s.42.18.42.42V2.9c0 .24-.19.43-.42.43z"/><path fill="#5e686c" d="M13.67 31.87a2.96 2.96 0 0 1-2.95-2.96c0-.23.19-.42.42-.42s.43.19.43.42a2.1 2.1 0 0 0 4.2 0c0-.24.19-.42.42-.42s.43.19.43.42a2.96 2.96 0 0 1-2.95 2.96z"/><path id="svg-ico" fill="#ee5586" d="M29.23 14.72H3.16a.43.43 0 0 1-.33-.15c-.25-.29-.03-2.53-.02-2.55.12-.9.4-1.78.88-2.7a11 11 0 0 1 1.88-2.6 13.25 13.25 0 0 1 4.82-3.21c1.5-.58 3.1-.94 4.77-1.03h2.03a15.96 15.96 0 0 1 7.4 2.37c1.2.77 2.26 1.76 3.15 2.96a8.5 8.5 0 0 1 1.8 4.01v.15c.26 2.32.14 2.45.02 2.6a.47.47 0 0 1-.32.15h-.02zm-25.67-.85h25.3a28.1 28.1 0 0 0-.16-1.8l-.01-.16a7.63 7.63 0 0 0-1.63-3.6 11.04 11.04 0 0 0-2.94-2.74 14.36 14.36 0 0 0-3.75-1.68 15.6 15.6 0 0 0-3.2-.56h-1.98a15 15 0 0 0-4.49.97 12.31 12.31 0 0 0-4.5 3.02 10.4 10.4 0 0 0-1.74 2.41 7.48 7.48 0 0 0-.8 2.42c-.02.15-.07 1.17-.08 1.72z"/></svg>