<svg xmlns="http://www.w3.org/2000/svg" viewBox="0 0 32 32"><path fill="#5e686b" d="M16 31.81c-6.22 0-11.28-5.06-11.28-11.28S9.78 9.25 16 9.25s11.28 5.06 11.28 11.28S22.22 31.81 16 31.81zm0-21.7a10.42 10.42 0 0 0 0 20.83 10.42 10.42 0 0 0 0-20.83z"/><path id="svg-ico" fill="#ee5586" d="M16 24.28a.43.43 0 0 1-.43-.43v-5.2a.43.43 0 0 1 .86 0v5.2c0 .24-.2.43-.43.43zM8.65 10a.42.42 0 0 1-.39-.24l-1.4-2.88A3.62 3.62 0 0 1 8.54 2l3.2-1.56a3.63 3.63 0 0 1 4.86 1.68c.1.21.01.47-.2.58s-.47.01-.58-.2a2.78 2.78 0 0 0-3.71-1.28L8.9 2.8a2.79 2.79 0 0 0-1.27 3.7l1.4 2.88c.11.21.03.48-.2.58a.5.5 0 0 1-.18.04z"/></svg>