<svg xmlns="http://www.w3.org/2000/svg" viewBox="0 0 32 32"><path fill="#5e686c" d="M31.05 30.9h-13.4v-6.71a.41.41 0 0 0 .02-.12c0-.05 0-.08-.02-.12V9.5a.43.43 0 0 0-.85 0v6.46H9.04V9.5a.43.43 0 0 0-.85 0v6.46h-7V.84a.43.43 0 0 0-.85 0v30.48c0 .24.2.43.42.43h30.3c.23 0 .42-.2.42-.43a.43.43 0 0 0-.43-.43zM1.19 24.5h7v6.39h-7v-6.4zm7.85 6.38v-6.39h7.76v6.41H9.04v-.02zM16.8 16.8v6.83H9.04V16.8h7.75zm-15.58 0H8.2v6.83h-7V16.8h.02z"/><path id="svg-ico" fill="#ee5586" d="M31.05 13.49a.43.43 0 0 1-.42-.43V8.6h-4.48a.43.43 0 0 1 0-.85h4.9c.24 0 .42.2.42.42v4.9c0 .24-.18.43-.42.43z"/><path id="svg-ico" fill="#ee5586" d="M30.88 8.29a.42.42 0 0 0-.6.04L17.26 23.4l-3.24-4.27-.02-.02-.01-.01a.4.4 0 0 0-.33-.13h-.02c-.04 0-.08 0-.12.02a.36.36 0 0 0-.13.08L.47 31.01a.43.43 0 0 0-.03.6c.08.1.2.15.32.15.1 0 .2-.04.28-.12l12.58-11.63 3.28 4.31.03.04s.02 0 .02.02h.01c.02.03.04.04.06.05l.06.03h.02l.06.03h.16l.05-.02c.03 0 .04 0 .06-.02h.01c.02 0 .03-.02.05-.03a.38.38 0 0 0 .08-.07L30.92 8.9c.16-.2.14-.46-.04-.61z"/></svg>