<svg xmlns="http://www.w3.org/2000/svg" viewBox="0 0 32 32"><path fill="#5e686b" d="M30.52 31.78H1.97a.42.42 0 0 1-.42-.42V25.1c0-.24.19-.43.42-.43s.43.19.43.43v5.82h27.7V25.1c0-.24.18-.43.42-.43s.42.19.42.43v6.25a.41.41 0 0 1-.42.42z"/><path id="svg-ico" fill="#ee5586" d="M24.49 9.11a.41.41 0 0 1-.3-.12l-7.9-7.63L8.4 9a.42.42 0 1 1-.59-.61l8.2-7.92a.42.42 0 0 1 .58 0l8.2 7.92a.43.43 0 0 1-.3.73z"/><path id="svg-ico" fill="#ee5586" d="M16.3 25.53a.42.42 0 0 1-.43-.42V.77c0-.24.19-.43.42-.43s.43.2.43.43V25.1c0 .24-.19.43-.43.43z"/></svg>