<svg xmlns="http://www.w3.org/2000/svg" viewBox="0 0 32 32"><path fill="#5e686b" d="M19.08 4.76h-6.14a.43.43 0 0 1-.43-.42V.7c0-.23.19-.43.43-.43h6.13c.23 0 .43.19.43.43v3.63c0 .24-.19.42-.42.42zm-5.72-.84h5.3V1.13h-5.3v2.79zm8.63 27.91H10.03a1.5 1.5 0 0 1-1.5-1.5V7.83c0-.82.67-1.5 1.5-1.5h11.96c.82 0 1.5.68 1.5 1.5v22.5c0 .83-.67 1.5-1.5 1.5zM10.03 7.18c-.37 0-.65.3-.65.66v22.5c0 .35.29.65.64.65H22c.36 0 .65-.3.65-.66V7.83a.65.65 0 0 0-.65-.65H10.03z"/><path id="svg-ico" fill="#ee5586" d="M19.08 28.59h-6.14a.43.43 0 0 1-.43-.43V12.08a.4.4 0 0 1 .3-.4l6.14-1.9a.45.45 0 0 1 .37.06c.11.08.17.21.17.34v17.98c0 .24-.18.43-.41.43zm-5.72-.85h5.3V10.76l-5.3 1.63v15.35z"/></svg>