<svg xmlns="http://www.w3.org/2000/svg" viewBox="0 0 32 32"><path fill="#5e686b" d="M13.95 5.09a.41.41 0 0 0-.41.41v2.3a.41.41 0 0 0 .82 0V5.5a.4.4 0 0 0-.41-.41zm4.61 0a.41.41 0 0 0-.41.41v2.3a.41.41 0 0 0 .83 0V5.5a.41.41 0 0 0-.42-.41zm1.16 11.53H12.8a.41.41 0 0 0 0 .82h6.92a.41.41 0 0 0 0-.82z"/><path fill="#5e686b" d="M24.33 12H8.2a.41.41 0 0 0-.41.42v10.37a8.5 8.5 0 0 0 16.97 0V12.42c0-.23-.2-.41-.42-.41zm-.42 10.8a7.66 7.66 0 0 1-15.31 0v-9.97h15.31v9.97z"/><path id="svg-ico" fill="#ee5586" d="M10.9 1.3h10.7V12h.84V.9a.41.41 0 0 0-.42-.41H10.5a.41.41 0 0 0-.4.4V12h.82V1.3z"/></svg>