<svg xmlns="http://www.w3.org/2000/svg" viewBox="0 0 32 32"><path fill="#5e686b" d="M16.1 7.1a3.39 3.39 0 1 1 0-6.77 3.39 3.39 0 0 1 0 6.78zm0-5.91a2.54 2.54 0 1 0 0 5.08 2.54 2.54 0 0 0 0-5.08zM8.97 21.46h-.03a.42.42 0 0 1-.4-.44l.51-9.17a.4.4 0 0 1 .15-.3l3.57-3.06c.17-.15.44-.13.6.05s.12.44-.05.6l-3.43 2.93-.5 8.99c0 .23-.2.4-.42.4zm14.26 0a.42.42 0 0 1-.42-.4l-.5-8.99-3.43-2.93c-.17-.15-.2-.42-.04-.6s.42-.2.6-.04l3.55 3.05c.1.08.14.19.15.3l.52 9.17a.42.42 0 0 1-.4.45h-.03z"/><path id="svg-ico" fill="#ee5586" d="M18.14 31.65h-4.08a.42.42 0 0 1-.42-.38l-1.02-10.19v-6.16a.43.43 0 0 1 .85 0v6.12l.98 9.76h3.31l.98-9.8v-6.07a.43.43 0 0 1 .85 0v6.11l-1.03 10.23a.43.43 0 0 1-.42.38z"/></svg>