<svg xmlns="http://www.w3.org/2000/svg" viewBox="0 0 32 32"><path fill="#5e686b" d="M16.16 31.47A15.48 15.48 0 0 1 3.04 24.4a.43.43 0 0 1 .13-.6c.2-.12.47-.06.6.14a14.6 14.6 0 0 0 12.39 6.67A14.69 14.69 0 1 0 3.26 8.83a.43.43 0 0 1-.58.16.42.42 0 0 1-.17-.58c2.7-4.93 7.94-8 13.65-8 8.56 0 15.53 6.97 15.53 15.53 0 8.56-6.97 15.53-15.53 15.53z"/><path id="svg-ico" fill="#ee5586" d="M15.7 6.93a1.72 1.72 0 1 1 0-3.44 1.72 1.72 0 0 1 0 3.44zm0-2.58c-.47 0-.86.39-.86.86s.4.86.86.86a.86.86 0 1 0 0-1.72z"/><path fill="#5e686b" d="M16.48 19.8a3.88 3.88 0 1 1 .01-7.75 3.88 3.88 0 0 1-.01 7.76zm0-6.88a3.01 3.01 0 1 0 0 6.02 3.01 3.01 0 0 0 0-6.02z"/><path id="svg-ico" fill="#ee5586" d="M15.7 28.33a1.72 1.72 0 1 1 0-3.45 1.72 1.72 0 0 1 0 3.45zm0-2.58a.86.86 0 0 0-.86.86c0 .47.4.86.86.86.47 0 .86-.39.86-.86a.86.86 0 0 0-.86-.86zm11.33-7.49a1.72 1.72 0 1 1 .01-3.44 1.72 1.72 0 0 1 0 3.44zm0-2.58c-.47 0-.86.39-.86.86s.4.87.86.87a.86.86 0 0 0 0-1.73zm-2.52-4.98a1.72 1.72 0 1 1 0-3.43 1.72 1.72 0 0 1 0 3.44zm0-2.57a.86.86 0 1 0 0 1.71.86.86 0 0 0 0-1.71zm-1.25 17.69a1.72 1.72 0 1 1 0-3.45 1.72 1.72 0 0 1 0 3.45zm0-2.59c-.48 0-.86.39-.86.86s.39.87.86.87a.86.86 0 0 0 0-1.73zM8.14 24.98a1.72 1.72 0 1 1 .01-3.45 1.72 1.72 0 0 1 0 3.45zm0-2.59a.86.86 0 0 0-.85.86c0 .47.39.86.85.86.48 0 .87-.38.87-.86a.86.86 0 0 0-.87-.86zm0-11.69a1.72 1.72 0 1 1 0-3.43 1.72 1.72 0 0 1 0 3.44zm0-2.57a.86.86 0 1 0 0 1.71.86.86 0 0 0 0-1.71z"/><path fill="#5e686b" d="M.84 22a.43.43 0 0 1-.43-.42V11.5a.43.43 0 0 1 .86 0v10.06c0 .24-.2.44-.43.44z"/></svg>