<svg xmlns="http://www.w3.org/2000/svg" viewBox="0 0 32 32"><path fill="#5e686b" d="M19.26 29.01H.8a.44.44 0 0 1-.44-.44v-11.7c0-.24.2-.43.44-.43h18.45c.24 0 .44.19.44.43v11.7c0 .24-.19.44-.43.44zm-18.02-.87h17.58V17.3H1.24v10.83z"/><path id="svg-ico" fill="#ee5586" d="m31.39 27.13-.1-.01-8.22-1.97a.44.44 0 0 1-.33-.42v-3.95c0-.2.13-.37.33-.42l8.21-2.04c.13-.03.27 0 .38.08s.16.2.16.34v7.95a.44.44 0 0 1-.43.44zm-7.78-2.75 7.34 1.76v-6.83l-7.34 1.81v3.26z"/><path fill="#5e686b" d="M4.19 13a3.06 3.06 0 1 1 0-6.12 3.06 3.06 0 0 1 0 6.12zm0-5.24a2.18 2.18 0 1 0 0 4.36 2.18 2.18 0 0 0 0-4.36zm10.7 5.45a4.81 4.81 0 1 1 0-9.62 4.81 4.81 0 0 1 0 9.62zm0-8.74a3.93 3.93 0 1 0 0 7.87 3.93 3.93 0 0 0 0-7.87z"/></svg>