<svg xmlns="http://www.w3.org/2000/svg" viewBox="0 0 32 32"><path fill="#5e686b" d="M14.41 29.2c-2.91-.22-3.97-4.33-4.67-7.08l-.28-1.06-.47-1.75c-1.22-4.75-2.36-8.72-4-9.15l-.15-.01c-.7 0-1.9.81-2.52 1.27l-.9-1.24c.65-.55 1.38-1.23 2.14-1.94 2.23-2.1 4.76-4.49 6.75-4.49 2.53 0 3.26 3.01 3.68 6.26 1.1 8.44 2.52 10.2 3.38 10.39 0-.3 0-.6-.02-.89-.73-.54-1.81-4.04-2.54-9.6-.31-2.45-.9-7-4.51-7-2.32 0-4.98 2.5-7.32 4.72a36.6 36.6 0 0 1-2.4 2.15.41.41 0 0 0-.07.57l1.4 1.91c.07.1.17.15.28.17s.23-.02.31-.09c.84-.65 1.96-1.35 2.32-1.36 1.25.33 2.69 5.87 3.37 8.54.17.69.33 1.3.47 1.77l.27 1.05c.78 3 1.93 7.52 5.5 7.71 0-.29 0-.56-.02-.84z"/><path id="svg-ico" fill="#ee5586" d="M26.48 2.59c-4.14 0-7.28 2.74-8.61 7.52-.05.15 0 .32.13.43s.3.13.45.05a4.84 4.84 0 0 1 1.94-.46c1.05 0 1.6.47 1.68 1.45.15 1.63-1.79 5.42-3.4 7.17-.46.5-.76.7-.95.79l-.37-.03.01.89c.03.03.37 0 .37 0 .45-.08.96-.43 1.56-1.08 1.77-1.92 3.79-5.9 3.62-7.8-.12-1.4-1.04-2.22-2.52-2.22-.46 0-.97.08-1.46.23 1.33-3.95 4-6.1 7.55-6.1 3.03 0 4.39 1.73 4.39 5.62 0 5.12-10.27 19.96-16.08 20.17h-.38l.02.83h.38c6.68-.22 16.9-16.13 16.9-21 0-1.6 0-6.47-5.23-6.47z"/></svg>