<svg xmlns="http://www.w3.org/2000/svg" viewBox="0 0 32 32"><path id="svg-ico" fill="#ee5586" d="M19.07 6.2c-.28-.1-.8-.2-.8-.2zm-.67-1.03c.19.06.6.13.83.2z"/><path fill="#5e686b" d="M31.18 17.08h-2.62c-.06-1.98-.6-3.84-1.47-5.49l2.27-1.31c.2-.12.27-.38.15-.57a.43.43 0 0 0-.57-.16l-2.28 1.31a12.58 12.58 0 0 0-12.8-5.72l-1.2.27a12.52 12.52 0 0 0-7.31 5.47L3.07 9.57a.42.42 0 0 0-.57.15c-.12.2-.05.46.16.58l2.26 1.31a12.53 12.53 0 0 0-1.47 5.49H.82a.42.42 0 0 0 0 .84h2.63c.06 1.98.6 3.84 1.47 5.49l-2.26 1.3a.43.43 0 0 0-.16.58.4.4 0 0 0 .36.22.4.4 0 0 0 .21-.06l2.28-1.31a12.56 12.56 0 0 0 21.32 0l2.27 1.3c.07.05.14.06.21.06.15 0 .3-.07.37-.2a.42.42 0 0 0-.16-.58l-2.27-1.31c.88-1.65 1.4-3.52 1.48-5.5h2.62c.23 0 .41-.19.41-.42a.42.42 0 0 0-.42-.43zm-15.6 12.13A11.73 11.73 0 0 1 9.07 8.07c1.98 1.31 4.25 2 6.53 2.08v19.06zM9.83 7.56c.97-.61 2.03-1.07 3.16-1.38s.83-.19.83-.19a11.6 11.6 0 0 1 4.21-.03c.37.03 1.02.24 1.02.23 1.13.3 2.2.77 3.17 1.37a11.8 11.8 0 0 1-12.4 0zm6.6 21.65V10.15a12.6 12.6 0 0 0 6.53-2.08 11.71 11.71 0 0 1-6.52 21.14z"/><path id="svg-ico" fill="#ee5586" d="m13.61 5.18-.13-.32A4.8 4.8 0 0 0 9.05 1.9a.42.42 0 0 0 0 .83c1.58 0 2.95.93 3.58 2.28l.14.35s.24.7.24 1.2v.14a.42.42 0 0 0 .83 0 4.6 4.6 0 0 0-.23-1.53zm5.62.18.16-.38c.65-1.32 2-2.23 3.57-2.23a.42.42 0 0 0 0-.84 4.8 4.8 0 0 0-4.4 2.9l-.15.37s-.28.88-.26 1.54a.42.42 0 0 0 .84 0 6.6 6.6 0 0 1 .24-1.36z"/></svg>