<svg xmlns="http://www.w3.org/2000/svg" width="32" height="32" viewBox="0 0 32 32"><path fill="#5e686b" d="M29.55 13.35H13.37a.42.42 0 0 0 0 .84h16.18c.65 0 1.18.45 1.18 1.02v8.05c0 .57-.53 1.03-1.18 1.03H2.47c-.65 0-1.18-.46-1.18-1.03v-8.05c0-.56.53-1.02 1.18-1.02h4.17a.42.42 0 0 0 0-.84H2.47c-1.11 0-2.03.84-2.03 1.86v8.05c0 1.03.91 1.87 2.03 1.87h27.08c1.11 0 2.02-.84 2.02-1.87v-8.05c0-1.02-.9-1.86-2.02-1.86zM29.55.27H13.37a.42.42 0 0 0 0 .84h16.18c.65 0 1.18.45 1.18 1.02v8.05c0 .57-.53 1.03-1.18 1.03H2.47c-.65 0-1.18-.46-1.18-1.03V2.13c0-.56.53-1.02 1.18-1.02h4.17a.42.42 0 0 0 0-.84H2.47C1.36.27.45 1.1.45 2.13v8.05c0 1.03.9 1.86 2.03 1.86h27.08c1.1 0 2.02-.83 2.02-1.86V2.13c0-1.02-.92-1.86-2.03-1.86z"/><path id="svg-ico" d="M25.77 19.66a.42.42 0 0 0 0-.84h-2.16a.42.42 0 0 0 0 .84h2.16zM25.77 6.58a.42.42 0 0 0 0-.84h-2.16a.42.42 0 0 0 0 .83h2.16z"/><path fill="#5e686b" d="M26 29.61h-8.36a1.7 1.7 0 0 0-1.2-1.2v-1.88a.42.42 0 0 0-.85 0v1.87c-.58.15-1.05.62-1.2 1.21H6.02a.42.42 0 0 0 0 .84h8.36a1.69 1.69 0 0 0 3.26 0H26c.23 0 .42-.19.42-.42 0-.23-.2-.42-.43-.42zM16 30.88a.84.84 0 1 1 0-1.7.84.84 0 0 1 0 1.7z"/></svg>