<svg xmlns="http://www.w3.org/2000/svg" viewBox="0 0 32 32"><path id="svg-ico" fill="#ee5586" d="M18.84 31.8a9.5 9.5 0 0 1-9.36-9.62c0-2.64 1.23-4.76 2.3-6.3.6-.9 1.28-1.77 1.93-2.6l.68-.89 2.1-2.84c0-.01 1.88-2.8 2.43-2.8.13 0 .27.06.35.17l5.67 7.65c1.6 2.17 3.27 4.41 3.27 7.62a9.5 9.5 0 0 1-9.37 9.61zm.04-24c-.52.6-1.54 2-1.7 2.23l-2.12 2.86-.7.9c-.64.83-1.3 1.69-1.9 2.56-1 1.45-2.15 3.42-2.15 5.84a8.66 8.66 0 0 0 8.53 8.77 8.65 8.65 0 0 0 8.52-8.75c0-2.95-1.5-4.98-3.1-7.14l-5.39-7.28z"/><path fill="#5e686b" d="M7.31 18.94a.36.36 0 0 1-.18-.05 7.4 7.4 0 0 1-4.17-6.74c0-2.06.95-3.7 1.78-4.89A39 39 0 0 1 6.2 5.27l.53-.68c.53-.73 1.07-1.45 1.62-2.18.23-.35 1.47-2.2 1.94-2.2.13 0 .27.08.35.18L15 6.25l.6.84c.08.1.1.23.07.35-.24.89-1.47 2.4-3 4.31C11 13.81 8.94 16.37 7.7 18.7a.41.41 0 0 1-.38.24zm2.95-17.65c-.41.5-1.11 1.44-1.22 1.6L7.42 5.1l-.55.7c-.48.64-1 1.29-1.44 1.95a7.8 7.8 0 0 0-1.63 4.42 6.57 6.57 0 0 0 3.34 5.8A52.5 52.5 0 0 1 12 11.22c1.26-1.56 2.45-3.04 2.79-3.82l-.48-.65-4.06-5.47z"/></svg>