<svg xmlns="http://www.w3.org/2000/svg" viewBox="0 0 32 32"><path fill="#5e686b" d="M15.63 28.45a4.06 4.06 0 1 1 0-8.12 4.06 4.06 0 0 1 0 8.12zm0-7.27a3.22 3.22 0 0 0 0 6.43 3.22 3.22 0 0 0 0-6.43zm6.17-2.54a.43.43 0 0 1-.3-.12c-1.56-1.57-3.64-2.43-5.86-2.43s-4.3.86-5.87 2.43a.43.43 0 0 1-.6 0 .43.43 0 0 1 0-.6c1.72-1.73 4.02-2.68 6.47-2.68s4.74.95 6.47 2.68c.16.16.16.43 0 .6a.44.44 0 0 1-.3.12z"/><path id="svg-ico" fill="#ee5586" d="M26.43 14.74a.43.43 0 0 1-.3-.12c-2.8-2.8-6.53-4.35-10.5-4.35s-7.7 1.54-10.5 4.35a.43.43 0 0 1-.6 0 .43.43 0 0 1 0-.6 15.6 15.6 0 0 1 11.1-4.6 15.6 15.6 0 0 1 11.09 4.6c.16.16.16.43 0 .6a.38.38 0 0 1-.29.12z"/><path id="svg-ico" fill="#ee5586" d="M31.16 10.74a.43.43 0 0 1-.3-.13C26.9 6.64 21.61 4.46 16 4.46S5.1 6.65 1.12 10.6a.43.43 0 0 1-.6 0 .43.43 0 0 1 0-.6 21.93 21.93 0 0 1 30.95.01c.16.17.16.44 0 .6a.47.47 0 0 1-.3.13z"/></svg>