<svg xmlns="http://www.w3.org/2000/svg" viewBox="0 0 32 32"><path fill="#5e686b" d="M20.74 27.6h-4.45a.5.5 0 0 0 .02-.14v-2.58a.42.42 0 0 0-.84 0v2.58l.02.13h-4.33a.42.42 0 0 0 0 .84h9.58a.42.42 0 0 0 0-.84zM6.5 14.5H4.33a3.05 3.05 0 0 1-3.05-3.06V5.02h4.36v-.85H.86a.42.42 0 0 0-.42.42v6.85a3.9 3.9 0 0 0 3.9 3.9h2.58a73.2 73.2 0 0 1-.42-.85zM31.27 4.17h-4.8v.85h4.38v6.42a3.05 3.05 0 0 1-3.05 3.05h-2.18l-.4.85h2.58a3.9 3.9 0 0 0 3.9-3.9V4.6a.42.42 0 0 0-.43-.42z"/><path id="svg-ico" fill="#ee5586" d="M25.7 14.33c.5-1.21.78-2.54.78-3.93V4.17H5.63v6.22a10.37 10.37 0 0 0 1.27 4.94 10.42 10.42 0 0 0 18.32 0l.47-1zm-9.63 5.63A9.57 9.57 0 0 1 6.5 10.4V5.02h19.11v5.38a9.57 9.57 0 0 1-9.55 9.56z"/></svg>