<svg xmlns="http://www.w3.org/2000/svg" viewBox="0 0 32 32"><path fill="#5e686b" d="M13.18 29.6h-.06L.8 28a.42.42 0 0 1-.37-.42v-10.3c0-.23.19-.42.43-.42h12.32c.24 0 .43.19.43.42v11.89c0 .12-.05.23-.15.31a.44.44 0 0 1-.28.11zm-11.9-2.38 11.48 1.47V17.72H1.28v9.5zm11.9-11.58H.86a.42.42 0 0 1-.43-.43V4.94c0-.22.16-.4.37-.42l12.32-1.7a.42.42 0 0 1 .48.41v11.98c0 .23-.19.43-.42.43zm-11.9-.85h11.48V3.72L1.28 5.3v9.49z"/><path id="svg-ico" fill="#ee5586" d="M31.4 15.64H15.27a.42.42 0 0 1-.42-.43V3.07c0-.21.15-.4.37-.42L31.35.42c.12-.02.24.02.34.1s.14.2.14.32V15.2c0 .23-.19.43-.42.43zm-15.71-.85h15.3V1.33l-15.3 2.11V14.8z"/><path fill="#5e686b" d="M31.4 31.82h-.05l-16.14-2.08a.42.42 0 0 1-.37-.43V17.3c0-.23.18-.42.42-.42h16.15c.23 0 .42.19.42.42v14.1c0 .13-.05.24-.14.32a.41.41 0 0 1-.28.1zm-15.7-2.87L31 30.91v-13.2H15.7v11.24z"/></svg>