<svg xmlns="http://www.w3.org/2000/svg" width="32" height="32" viewBox="0 0 32 32"><path id="svg-ico" fill="#ee5586" d="M11.41 13.74H5.47a.42.42 0 0 0-.42.43v10.17c0 .24.19.43.42.43h5.94c.24 0 .43-.19.43-.43V14.17a.42.42 0 0 0-.43-.43zM11 23.92H5.9v-9.33h5.09v9.33z"/><path fill="#5e686b" d="M31.72 10.2V4.03a.42.42 0 0 0-.43-.42H.71a.42.42 0 0 0-.42.42V28.5c0 .24.19.43.42.43H31.3c.23 0 .42-.19.42-.43V10.2zM1.13 4.46h29.75v5.27H1.13V4.47zm0 23.62v-17.5h29.75v17.5H1.13z"/><path fill="#5e686b" d="M5.19 5.3a1.7 1.7 0 1 0 0 3.4 1.7 1.7 0 0 0 0-3.4zm0 2.54a.85.85 0 0 1-.85-.85.85.85 0 0 1 1.7.01c0 .47-.38.84-.85.84zM10 5.3a1.7 1.7 0 1 0 0 3.4 1.7 1.7 0 0 0 0-3.4zm0 2.54a.85.85 0 1 1 0-1.7.85.85 0 0 1 0 1.7zm4.8-2.54a1.7 1.7 0 1 0 0 3.4 1.7 1.7 0 0 0 0-3.4zm0 2.54a.85.85 0 1 1 0-1.7.85.85 0 0 1 0 1.7z"/><path id="svg-ico" fill="#ee5586" d="M26.18 17.2H16.01c-.24 0-.43.19-.43.42s.19.43.43.43h10.17c.24 0 .43-.19.43-.42 0-.24-.2-.43-.43-.43zm0 3.29H16.01a.43.43 0 0 0 0 .85h10.17a.42.42 0 1 0 0-.85zm-2.47 3.29h-7.64c-.23 0-.42.19-.42.43s.19.42.42.42h7.64c.23 0 .42-.19.42-.42a.42.42 0 0 0-.42-.43z"/></svg>