<svg xmlns="http://www.w3.org/2000/svg" viewBox="0 0 32 32"><path fill="#5e686b" d="M5.94 10.57h8.12a.4.4 0 0 0 .4-.4V2.28a.4.4 0 0 0-.46-.4L5.88 3.01a.4.4 0 0 0-.35.4v6.76c0 .22.18.4.4.4zm.4-6.82 7.32-1.01v7.03H6.34V3.75zm9.09 6.82h10.64a.4.4 0 0 0 .4-.4V.71c0-.12-.05-.23-.14-.3s-.2-.12-.32-.1L15.38 1.77a.4.4 0 0 0-.35.4v8c0 .22.18.4.4.4zm.4-8.04 9.83-1.36v8.6h-9.83V2.54z"/><path id="svg-ico" fill="#ee5586" d="M23.26 18.38a1.6 1.6 0 1 0 0 3.21 1.6 1.6 0 0 0 0-3.2zm0 2.41c-.44 0-.8-.36-.8-.8s.36-.8.8-.8c.45 0 .8.35.8.8s-.35.8-.8.8z"/><path fill="#5e686b" d="M6.34 11.94h7.32v3.07h.8v-3.47a.4.4 0 0 0-.4-.4H5.94a.4.4 0 0 0-.4.4v3.47h.8v-3.07zm9.49 0h9.83v3.07h.8v-3.47a.4.4 0 0 0-.4-.4H15.44a.4.4 0 0 0-.4.4v3.47h.8v-3.07z"/><path id="svg-ico" fill="#ee5586" d="M27.32 15.01H4.68c-.96 0-1.74.72-1.74 1.6v6.74c0 .89.78 1.6 1.74 1.6h22.64c.97 0 1.74-.71 1.74-1.6v-6.73c0-.89-.77-1.6-1.73-1.6zm.94 8.34c0 .44-.42.8-.94.8H4.68c-.52 0-.94-.36-.94-.8v-6.73c0-.45.42-.8.94-.8h22.64c.52 0 .94.35.94.8v6.73z"/><path fill="#5e686b" d="M23.94 29.74h-6.38c-.14-.56-.6-1-1.15-1.16v-2.06c0-.23-.18-.4-.4-.4s-.4.18-.4.4v2.06c-.57.15-1.01.6-1.16 1.16H8.08a.4.4 0 0 0-.4.4c0 .22.18.4.4.4h6.37a1.6 1.6 0 0 0 3.11 0h6.38a.4.4 0 0 0 .4-.4.4.4 0 0 0-.4-.4zM16 30.94a.81.81 0 0 1-.8-.8c0-.45.36-.8.8-.8s.8.35.8.8a.8.8 0 0 1-.8.8z"/></svg>