<svg xmlns="http://www.w3.org/2000/svg" viewBox="0 0 32 32"><path fill="#5e686b" d="M17.64 15.83H4.1c-.24 0-.43-.19-.43-.42s.2-.43.43-.43h13.55a2.44 2.44 0 1 0-2.44-2.44c0 .23-.19.42-.42.42s-.43-.19-.43-.42a3.3 3.3 0 1 1 3.3 3.3zM23.76 24a2.3 2.3 0 0 1-2.3-2.3c0-.24.18-.42.42-.42s.43.18.43.42a1.46 1.46 0 1 0 1.45-1.46H7.53c-.24 0-.42-.18-.42-.42s.18-.43.42-.43h16.23a2.3 2.3 0 0 1 0 4.62z"/><path id="svg-ico" fill="#ee5586" d="M27.1 18.21H.65c-.24 0-.42-.19-.42-.42s.18-.43.42-.43H27.1a3.77 3.77 0 1 0-3.77-3.77c0 .24-.19.43-.42.43s-.43-.19-.43-.43a4.62 4.62 0 1 1 4.62 4.62z"/></svg>