<svg xmlns="http://www.w3.org/2000/svg" viewBox="0 0 32 32"><path fill="#5e686b" d="m6.78 26.03 4.96-5.14-.63-.58-4.94 5.11-5.03-5.03c-.17-.17-.44-.17-.6 0s-.18.44 0 .6l5.33 5.34.01.02 5.34 5.33c.08.08.2.13.3.13.11 0 .22-.05.3-.13a.43.43 0 0 0 0-.6l-5.04-5.05z"/><path id="svg-ico" fill="#ee5586" d="M8.97 16.7a9.87 9.87 0 0 0 2.04 3.5l.1.1c.24.3.68.63.8.79 1.83 1.6 4.18 2.5 6.63 2.5a9.99 9.99 0 0 0 7.11-2.95l3.94-3.94H8.97zm16.07 3.32a9.2 9.2 0 0 1-12.62.38l-.78-.77a9.3 9.3 0 0 1-1.4-2.07h17.27l-2.47 2.47z"/><path fill="#5e686b" d="M31.66 14 18.02.37c-.09-.09-.18-.15-.32-.14a.35.35 0 0 0-.3.15l-6 6.02a10.06 10.06 0 0 0-2.56 9.9l.13.4h.93l-.17-.4c-1-3.19-.24-6.8 2.26-9.3l5.72-5.72L30.76 14.3l-2.38 2.38h1.2l2.08-2.08a.43.43 0 0 0 0-.6z"/></svg>