<svg xmlns="http://www.w3.org/2000/svg" viewBox="0 0 32 32"><path fill="#5e686b" d="M9.563 16.512c-1.931 0-3.506-1.569-3.506-3.5s1.575-3.506 3.506-3.506c1.931 0 3.5 1.569 3.5 3.506a3.499 3.499 0 0 1-3.5 3.5zm0-6.131c-1.45 0-2.631 1.181-2.631 2.625s1.181 2.625 2.631 2.625a2.625 2.625 0 1 0 0-5.25zm16.093 6.131a.435.435 0 0 1-.438-.438 2.629 2.629 0 0 0-2.625-2.625 2.629 2.629 0 0 0-2.625 2.625c0 .244-.194.438-.438.438s-.438-.194-.438-.438c0-1.931 1.569-3.506 3.5-3.506s3.5 1.569 3.5 3.506a.435.435 0 0 1-.438.438z"/><path id="svg-ico" fill="#ee5586" d="M16.081 25.725c-2.525 0-4.944-1.306-6.813-3.669a.445.445 0 0 1 .069-.619.44.44 0 0 1 .613.069c1.7 2.15 3.875 3.337 6.125 3.337 2.244 0 4.419-1.188 6.125-3.337a.443.443 0 0 1 .619-.069c.188.15.219.425.069.619-1.869 2.369-4.288 3.669-6.806 3.669z"/><path fill="#5e686b" d="M16.081 31.837C7.387 31.837.312 24.768.312 16.075c0-8.025 6-14.756 13.963-15.662a.446.446 0 0 1 .488.387.446.446 0 0 1-.387.488c-7.519.85-13.188 7.213-13.188 14.787 0 8.213 6.681 14.887 14.888 14.887 8.212 0 14.887-6.681 14.887-14.887 0-7.581-5.669-13.938-13.188-14.794a.441.441 0 0 1 .101-.876c7.963.906 13.963 7.637 13.963 15.662.006 8.7-7.069 15.769-15.756 15.769z"/></svg>