<svg xmlns="http://www.w3.org/2000/svg" viewBox="0 0 32 32"><path id="svg-ico" fill="#ee5586" d="m30.54 17.81-4.03-6.73v-.45a10.48 10.48 0 0 0-1.34-5.14 10.53 10.53 0 0 0-19.68 5.6l-4.03 6.72a.43.43 0 0 0 0 .44c.07.13.21.21.37.21H9a10.47 10.47 0 0 0 14 0h7.18a.43.43 0 0 0 .36-.65zM16 .96c3.42 0 6.44 1.8 8.16 4.5L6.39 9.62A9.68 9.68 0 0 1 16 .96zM5.65 12.5c.35 1.94 1.23 3.7 2.5 5.12H2.56l3.08-5.12zm.69-1.87v-.11L24.6 6.23A9.67 9.67 0 0 1 16 20.3a9.68 9.68 0 0 1-9.66-9.66zm17.52 6.99a10.44 10.44 0 0 0 2.49-5.12l3.08 5.12h-5.57z"/><path fill="#5e686b" d="M18.57 12.45c-.94 0-1.71.77-1.71 1.72a.43.43 0 0 0 .85 0 .86.86 0 0 1 1.72 0 .43.43 0 0 0 .85 0 1.7 1.7 0 0 0-1.7-1.72zm-5.79 0c-.95 0-1.72.77-1.72 1.72 0 .24.19.42.42.42s.43-.19.43-.42a.86.86 0 0 1 1.72 0 .42.42 0 0 0 .85 0 1.7 1.7 0 0 0-1.7-1.72zm10.26 10.11h-15a4.73 4.73 0 0 0-4.71 4.72v4.3c0 .24.19.43.42.43h23.57c.24 0 .43-.2.43-.43v-4.3a4.7 4.7 0 0 0-4.7-4.72zm3.87 8.58H4.18v-3.86a3.87 3.87 0 0 1 3.86-3.86h15a3.87 3.87 0 0 1 3.87 3.86v3.86z"/></svg>