<svg xmlns="http://www.w3.org/2000/svg" viewBox="0 0 32 32"><path id="svg-ico" fill="#ee5586" d="M25.8 21.8c-.4-.1-.7-.3-.8-.8l-.2-1.1.1-.9c.1-.6.3-1.1.7-1.5.4-.5.8-.8 1.1-.8h.2c.3.1.6.3.8.8l.2 1.1-.1.9c-.1.7-.4 1.4-.9 1.9-.4.2-.7.4-1.1.4zm.8-4.6c-.2 0-.4.2-.6.5-.3.4-.5.8-.6 1.3l-.1.8.2.9.3.4.4-.2c.4-.4.7-1 .8-1.5l.1-.8-.2-.9c-.1-.4-.2-.4-.3-.5zM18 21.8s-.1 0 0 0a1 1 0 0 1-.8-.8l-.2-1.1.1-.9a3 3 0 0 1 .7-1.5c.4-.6.9-.9 1.3-.8.3.1.6.3.8.8l.2 1.1-.1.9c-.1.7-.4 1.3-.9 1.8-.4.3-.8.5-1.1.5zm.8-4.5c-.2 0-.4.2-.6.5-.3.4-.5.8-.6 1.3l-.1.8.2.9.3.4.4-.2c.4-.4.7-.9.8-1.5l.1-.8-.2-.9-.3-.5zM12.5 26c-.6 0-1.1-.3-1.4-.7-.9-1-1.8-2.3-2.4-4l-1.1 2.2C6.7 25.2 6 26 5.2 26c-.4 0-1.1-.2-1.5-1.3-.7-1.7-1.4-5-2.2-9.7-.1-.5 0-1 .3-1.3.4-.4.9-.7 1.4-.7.8-.1 1.6.4 1.8 1.3v.2l.8 4.8 1.9-3.6c.5-.9 1.1-1.1 1.5-1.1.5 0 1.4.1 1.7 1.6l.3 1.4a15 15 0 0 1 1.3-4.2c.3-.5.8-.9 1.4-.9.4 0 .9.1 1.2.4.4.3.6.7.6 1.2 0 .3 0 .7-.2 1A19.9 19.9 0 0 0 14 24c0 .4 0 .8-.2 1.2-.2.5-.7.8-1.2.8h-.1zm-3.7-6.5.3.8c.6 2 1.5 3.5 2.5 4.6.2.3.6.4.9.5v.3-.3c.3 0 .5-.2.7-.4l.2-.8a26 26 0 0 1 1.6-9.3l.1-.6c0-.3-.2-.5-.4-.7-.2-.2-.5-.3-.8-.3-.4 0-.7.2-.8.5-.7 1.2-1.2 3.1-1.5 5.5l-.2 1.5-.5-1.5-.7-3c-.2-1-.7-1.1-1-1-.4 0-.7.3-.9.7l-2.8 5.3-.2-.9-1.1-5.8v-.2c-.1-.5-.5-.8-1-.7a1 1 0 0 0-.8.4c-.2.2-.3.5-.2.8a55 55 0 0 0 2 9.5c.2.6.5.9.8.8.5 0 1.1-.8 1.9-2.2l1.4-2.9.5-.6z"/><path fill="#5e686b" d="m20.9 30.6-.3-.1-5.3-3.1H4.1c-1.8 0-3.9-1.5-3.9-3.6v-9.6c0-.9.4-1.7 1-2.3A4 4 0 0 1 4 10.7h23.8c1.8 0 3.9 1.5 3.9 3.6v9.6c0 1-.5 1.9-1.3 2.5-.7.6-1.7 1-2.6 1h-7.4l.9 2.3v.5l-.4.4c.1 0 .1 0 0 0zM4.1 11.3c-.9 0-1.7.4-2.4 1-.5.5-.8 1.2-.8 1.9v9.6c0 1.6 1.7 2.9 3.2 2.9h11.3l5.5 3.2-1.3-3.2H28c.8 0 1.6-.3 2.2-.8.6-.5 1-1.2 1-2v-9.6c0-1.6-1.7-2.9-3.2-2.9H4.1z"/><path id="svg-ico" fill="#ee5586" d="m18.1 24-.7-.1a3 3 0 0 1-2-1.5 6.2 6.2 0 0 1 .4-6c.8-1.3 1.7-1.9 3-1.9l.7.1c.9.2 1.6.7 2 1.5a6.2 6.2 0 0 1-.4 6c-.8 1.3-1.8 1.9-3 1.9zm.6-8.8c-1 0-1.7.5-2.4 1.6-.6 1-.9 2.1-.9 3.2 0 .8.2 1.5.5 2.2.3.6.9 1 1.5 1.1l.5.1c1 0 1.7-.5 2.4-1.5.6-1 .9-2.1.9-3.2 0-.8-.1-1.5-.5-2.1a2 2 0 0 0-1.6-1.1c0-.3-.2-.3-.4-.3zm7.2 8.8-.7-.1c-.9-.2-1.6-.7-2-1.5a6.2 6.2 0 0 1 .4-6c.8-1.3 1.7-1.9 2.9-1.9l.7.1a3 3 0 0 1 2 1.5 6.2 6.2 0 0 1-.4 6c-.7 1.3-1.6 1.9-2.9 1.9zm.7-8.8c-1 0-1.7.5-2.4 1.6-.6 1-.9 2.1-.9 3.2 0 .8.2 1.5.5 2.2.3.6.9 1 1.5 1.1l.6.1c1 0 1.7-.5 2.4-1.5.6-1 .9-2.1.9-3.2 0-.8-.1-1.5-.5-2.1a2 2 0 0 0-1.6-1.1c-.2-.3-.3-.3-.5-.3z"/></svg>