<svg xmlns="http://www.w3.org/2000/svg" viewBox="0 0 32 32"><path id="svg-ico" fill="#ee5586" d="m10.4 28-.2-.1a13.3 13.3 0 0 1-7.5-12c0-1.8.5-3.7 1.2-5.3l.4-.2c.2 0 .4.1.4.3l6 16.6.2.2c0 .3-.3.4-.5.4zM4.3 12a12.5 12.5 0 0 0 5.3 14.7L4.3 11.8zm18 12.2a.4.4 0 0 1-.4-.3L17.6 10a.4.4 0 0 1 .4-.5l1.4-.1.2.4-.1-.5-.2-.1a64.8 64.8 0 0 1-6.7 0h-.2v.2h1.4l.4.4 2 5.4v.3l-3 7.6c0 .1-.1.2-.3.2a.4.4 0 0 1-.4-.2L7.8 10v-.4l.4-.2 1.3-.1h.2l-.1-.2h-.1l-3.4.1h-.7c-.2 0-.3 0-.4-.2v-.5a13.2 13.2 0 0 1 20-2.3l.2.3c0 .3-.2.5-.4.5h-.2c-1 0-1.8 1-1.8 1.9 0 .8.5 1.5 1 2.4l.3.3c.5.8 1 2 1 3.7 0 .9-.2 1.8-.6 3l-.4 1.3-1.3 4.3c0 .2-.2.3-.4.3zm-3.7-13.9 3.7 12 1-3 .3-1.3c.4-1 .6-2 .6-2.7a5 5 0 0 0-1-3.2l-.1-.3c-.6-1-1.2-1.9-1.2-3 0-1 .7-2.1 1.8-2.5A12.4 12.4 0 0 0 6.2 8.4h3.3c.6 0 1 .4 1 1s-.4.8-.9.8l-.8.1 4 11.4 2.5-6.4-1.8-5-1-.1a1 1 0 0 1-1-1c0-.2.2-.4.4-.6.1-.2.4-.3.7-.3l3.4.1h3.3c.6 0 1 .4 1 1s-.3.8-.8.8l-.9.1z"/><path id="svg-ico" fill="#ee5586" d="M16.8 29.2c-1.5 0-2.6-.1-3.7-.5l-.3-.2v-.3L16.7 17c0-.2.2-.3.4-.3s.3.1.4.3l3.9 10.7.1.4-.2.3c-1.3.5-3 .8-4.5.8zm-3-1.2a11.7 11.7 0 0 0 6.7-.2L17 18.4 13.7 28zm8.6-.6h-.2a.4.4 0 0 1-.1-.5l3.8-11.3c.7-1.6 1-3 1-4.4V9.9c0-.2 0-.4.2-.4s.4 0 .5.2a13.3 13.3 0 0 1-5.2 17.7zm5.3-15.2a9 9 0 0 1-1 3.7l-3.4 10a12.4 12.4 0 0 0 4.4-13.7z"/><path fill="#5e686b" d="M16 31.8A15.8 15.8 0 1 1 31.8 16 16 16 0 0 1 16 31.8zM16 1a15 15 0 0 0 0 30c8 0 15-7 15-15A15 15 0 0 0 16 1z"/></svg>