<svg xmlns="http://www.w3.org/2000/svg" viewBox="0 0 32 32"><path fill="#5e686b" d="M28.61 28.8H3.4a3.08 3.08 0 0 1-3.08-3.07V7.14c0-1.7 1.38-3.08 3.08-3.08h25.22c1.7 0 3.08 1.38 3.08 3.08v18.59c0 1.7-1.38 3.08-3.08 3.08zM3.4 4.92c-1.23 0-2.23 1-2.23 2.23v18.58c0 1.23 1 2.23 2.23 2.23h25.22c1.23 0 2.23-1 2.23-2.23V7.14c0-1.23-1-2.23-2.23-2.23H3.4z"/><path id="svg-ico" fill="#ee5586" d="M13.35 20.84c-.6 0-1.09-.5-1.09-1.09v-6.64c0-.81.95-1.4 1.7-.88l5.11 3.2a1.07 1.07 0 0 1 .24 1.86L14 20.62c-.17.13-.4.22-.64.22zm0-7.96c-.13 0-.24.1-.24.23v6.64c0 .13.1.24.24.24.02 0 .07 0 .14-.06l5.34-3.34a.25.25 0 0 0 .07-.16c0-.12-.09-.2-.16-.22l-.08-.04-5.16-3.23c-.09-.06-.13-.07-.15-.07z"/></svg>