<svg xmlns="http://www.w3.org/2000/svg" xml:space="preserve" id="Layer_1" x="0" y="0" version="1.1" viewBox="0 0 100 100"><path id="svg-ico" fill="#ee5586" d="m64.2 15 6.9 7-16.7 16.7V15h9.8zm-35.6 7 16.7 16.8V15h-9.8l-6.9 7zm9.1-9.2h9.8v28l2.4 2.4 2.4-2.4v-28H62L49.8.6 37.7 12.8zm5.7 36.9L41 47.3H12.9v-9.8L.7 49.7l12.2 12.2v-9.8h28.2l2.3-2.4zm17.4-4.5h23.7v-9.8l-6.9-7-16.8 16.8zm38 4.5L86.6 37.5v9.8h-28l-2.4 2.4 2.4 2.4h28v9.8l12.2-12.2zM15 32.3l7.1-7L42 45.2h3.4v-3.4L25.5 22l6.9-7H15v17.3zM84.5 15H67.3l6.9 7-19.8 19.8v3.4h3.4l19.8-19.8 6.9 7V15zM45.3 84.4V60.7L28.6 77.5l6.9 7 9.8-.1zM15 45.2h23.9L22.2 28.4l-7.1 7-.1 9.8zm69.5 21.9-6.9 7-19.9-19.9h-3.4v3.4l19.8 19.8-6.9 7h17.2V67.1h.1zm0-12.9H60.8L77.5 71l6.9-7 .1-9.8zM71.1 77.4 54.4 60.7v23.7h9.8l6.9-7zM22.2 71l16.7-16.8H15V64l7.2 7zM62 86.6h-9.8v-28l-2.4-2.4-2.4 2.4v28h-9.8l12.2 12.2L62 86.6zm-36.5-9.2 19.8-19.8v-3.4H42L22.2 74.1l-7.1-7v17.3h17.4l-7-7z"/></svg>