<svg xmlns="http://www.w3.org/2000/svg" xml:space="preserve" id="Layer_1" x="0" y="0" version="1.1" viewBox="0 0 100 100"><style>.coreos0{fill:#ee5586}</style><path id="svg-ico" d="M67 35.6a22.4 22.4 0 0 0-17-7.9c-2.2 0-4.2 3.4-5.4 8.6a69.7 69.7 0 0 0-1.1 20.3 69.7 69.7 0 0 0 13.2 0A38 38 0 0 0 68 54.1c2.8-1.1 4.4-2.6 4.4-4.1-.1-4.6-1.6-8.9-4-12.5L67 35.6z" class="coreos0"/><path id="svg-ico" d="M50 1a49 49 0 1 0 .2 98.2A49 49 0 0 0 50 1zm18.4 61.5-1.2.2c-3.7.5-7.7.8-11.8 1l-5.4.1-5.4-.1a137 137 0 0 1-11.8-1c-.4-2.8-.6-5.6-.7-8.6L32 50l.1-4.1c.1-3 .4-5.8.7-8.6l.2-1.7c2.4-17.5 9.1-30.1 17-30.1A44.5 44.5 0 0 1 94.5 50c0 5.6-10.7 10.3-26.1 12.5z" class="coreos0"/></svg>