<svg xmlns="http://www.w3.org/2000/svg" xml:space="preserve" id="Layer_1" x="0" y="0" version="1.1" viewBox="0 0 100 100"><path id="svg-ico" fill="#ee5586" d="M99 36.3A24.4 24.4 0 0 0 75.1 17H57.8a6.8 6.8 0 0 0-6.7 5.1L34.7 83h11.6a7 7 0 0 0 6.7-5l12-44.9h9.3c3.9 0 7.6 2.6 8.6 6.9a8.8 8.8 0 0 1-8.6 10.6h-4.8a6.9 6.9 0 0 0-6.7 5.1l-3 11.2h15c17.4 0 27.3-17 24.2-30.6zM25.7 49.4h8.7a7 7 0 0 0 6.7-5.1L44 33.2H25.2a24.5 24.5 0 0 0-24 19.3A24.4 24.4 0 0 0 24.8 83h5.8L34 70.8a3 3 0 0 0-3-3.9h-5.3c-11.6 0-11.7-17.5 0-17.5z"/></svg>