<svg xmlns="http://www.w3.org/2000/svg" xml:space="preserve" id="Layer_1" x="0" y="0" version="1.1" viewBox="0 0 100 100"><style>.debian0{fill:#ee5586}</style><path id="svg-ico" d="M57.8 52.8c-1.6 0 .3.8 2.5 1.2.6-.5 1.1-.9 1.6-1.4-1.4.3-2.7.3-4.1.2m8.8-2.2c1-1.4 1.7-2.8 2-4.4-.2 1.1-.8 2-1.4 3-3.1 1.9-.3-1.2 0-2.3-3.3 4.2-.4 2.5-.6 3.7m3.3-8.5c.2-3-.6-2-.8-.9.3.2.5 2.1.8.9M51.5 1.6c.9.2 1.9.3 1.8.5 1-.3 1.2-.4-1.8-.5m1.8.5-.6.1.6-.1" class="debian0"/><path id="svg-ico" d="M80.7 43.2c.1 2.7-.8 4-1.6 6.2l-1.4.7c-1.2 2.3.1 1.4-.7 3.2-1.8 1.6-5.5 5.1-6.7 5.4-.9 0 .6-1 .8-1.4-2.4 1.7-2 2.5-5.7 3.5l-.1-.2c-9.2 4.3-21.9-4.2-21.8-15.9-.1.7-.3.6-.5.9-.5-6 2.8-12 8.3-14.5 5.4-2.7 11.6-1.6 15.5 2-2.1-2.8-6.3-5.7-11.3-5.4-4.9.1-9.4 3.2-11 6.5-2.5 1.6-2.8 6.1-3.9 6.9-1.5 10.8 2.8 15.4 9.9 20.9 1.1.8.3.9.5 1.4-2.4-1.1-4.5-2.8-6.3-4.8.9 1.4 2 2.7 3.3 3.8-2.2-.8-5.2-5.4-6.1-5.6 3.9 6.9 15.6 12.1 21.8 9.5-2.9.1-6.5.1-9.7-1.1-1.4-.7-3.2-2.1-2.9-2.4 8.4 3.1 17.1 2.4 24.4-3.5 1.9-1.4 3.9-3.9 4.5-3.9-.9 1.3.2.6-.5 1.8 1.8-3-.8-1.2 1.9-5.1l1 1.4c-.4-2.5 3.1-5.5 2.7-9.4.8-1.2.9 1.3 0 4 1.2-3.1.3-3.5.6-6.1.3.8.7 1.7 1 2.6-.8-2.9.8-5 1.2-6.7-.4-.2-1.2 1.3-1.4-2.2 0-1.5.4-.8.6-1.2-.3-.2-1.1-1.3-1.5-3.6.3-.5.9 1.4 1.4 1.4-.3-1.8-.8-3.1-.8-4.5-1.4-2.9-.5.4-1.6-1.2-1.5-4.5 1.2-1.1 1.4-3.1 2.2 3.2 3.5 8.1 4 10.2-.4-2.5-1.2-4.9-2-7.3.7.3-1.1-5.1.9-1.5-2.1-7.7-8.9-14.8-15.2-18.2.8.7 1.7 1.6 1.4 1.7-3.1-1.9-2.6-2-3-2.8-2.5-1-2.7.1-4.4 0-4.9-2.3-5.8-2-10.3-3.6l.2.9c-3.2-1.1-3.7.4-7.1 0-.2-.2 1.1-.6 2.2-.7-3.1.4-2.9-.6-5.9.1.7-.5 1.5-.9 2.3-1.3-2.5.2-6 1.5-4.9.3-4.1 1.8-11.3 4.4-15.4 8.2l-.1-.9c-1.9 2.2-8.1 6.7-8.6 9.6l-.5.1c-1 1.6-1.6 3.5-2.4 5.2-1.3 2.2-1.9.8-1.7 1.2-2.5 5.1-3.7 9.3-4.8 12.8.8 1.1 0 6.9.3 11.5-1.3 22.6 15.8 44.6 34.6 49.7 2.7 1 6.8.9 10.3 1-4.1-1.2-4.6-.6-8.6-2-2.9-1.4-3.5-2.9-5.6-4.7l.8 1.4c-4-1.4-2.3-1.8-5.6-2.8l.9-1.1c-1.3-.1-3.4-2.2-4-3.3l-1.4.1c-1.7-2.1-2.6-3.6-2.5-4.8l-.5.8c-.5-.9-6.3-7.9-3.3-6.3-.6-.5-1.3-.8-2.1-2.3l.6-.7c-1.4-1.8-2.6-4.2-2.6-5 .8 1 1.3 1.2 1.8 1.4-3.6-9-3.8-.5-6.6-9.2h.6c-.4-.7-.7-1.4-1.1-2.1l.3-2.5c-2.6-3-.7-12.8-.4-18.2.3-2.2 2.2-4.5 3.6-8.2l-.8-.2c1.7-3 9.7-11.9 13.4-11.4 1.8-2.3-.4 0-.7-.6 3.9-4.1 5.2-2.9 7.8-3.6 2.9-1.7-2.5.7-1.1-.6 5-1.3 3.5-2.9 10-3.5.7.4-1.6.6-2.2 1.1 4.1-2 13.1-1.6 18.9 1.1 6.7 3.2 14.3 12.5 14.6 21.2l.3.1c-.2 3.5.5 7.5-.7 11.2l1-1.8" class="debian0"/><path id="svg-ico" d="m39.8 55.1-.2 1.2c1.1 1.5 1.9 3.1 3.3 4.2-1-2-1.7-2.8-3.1-5.4m2.6-.1c-.6-.6-.9-1.4-1.3-2.2.4 1.3 1.1 2.5 1.8 3.7l-.5-1.5m45.3-9.9-.2.6c-.5 3.2-1.5 6.3-2.9 9.2 1.6-3 2.6-6.4 3.1-9.8M51.9.8C53 .4 54.6.6 55.8.3c-1.5.1-3.1.2-4.6.4l.7.1M12.8 21.6c.3 2.4-1.8 3.3.5 1.7 1.1-2.7-.5-.7-.5-1.7m-2.7 11c.5-1.6.6-2.5.8-3.5-1.4 1.8-.6 2.2-.8 3.5" class="debian0"/></svg>