<svg xmlns="http://www.w3.org/2000/svg" xml:space="preserve" id="Layer_1" x="0" y="0" version="1.1" viewBox="0 0 100 100"><path id="svg-ico" fill="#ee5586" d="M54.6 46.9H44.4v-9.2h10.2v9.2zm0-31.6H44.4v9.4h10.2v-9.4zm12.1 22.4H56.5v9.2h10.2v-9.2zM42.5 26.6H32.3v9.3h10.2v-9.3zm12.1 0H44.4v9.3h10.2v-9.3zM97.5 42c-2.2-1.5-7.4-2-11.3-1.3a15 15 0 0 0-6.4-9.9l-2.2-1.4-1.4 2.2c-2.8 4.3-3.6 11.4-.6 16.1-1.3.7-4 1.7-7.5 1.7H.8c-1.3 7.9.9 18.1 6.8 25.1 5.7 6.8 14.4 10.2 25.6 10.2 24.4 0 42.4-11.2 50.8-31.6 3.3.1 10.5 0 14.1-7l1.3-2.6-1.9-1.5zm-79.1-4.3H8.1v9.2h10.2l.1-9.2zm12 0H20.2v9.2h10.2v-9.2zm12.1 0H32.3v9.2h10.2v-9.2zM30.4 26.6H20.2v9.3h10.2v-9.3z"/></svg>