<svg xmlns="http://www.w3.org/2000/svg" xml:space="preserve" id="Layer_1" x="0" y="0" version="1.1" viewBox="0 0 100 100"><path id="svg-ico" fill="#ee5586" d="M71.1 18.6c-4.9-3.1-9.6-4.3-14.3-7.4A62.7 62.7 0 0 1 46.5.5c-.6 6.5-2.5 9.1-4.9 11-4.7 3.8-7.7 4.9-11.8 7.2A46 46 0 0 0 7.5 57.5c0 24.2 20.3 42 42.9 42a40.8 40.8 0 0 0 42.1-41.2 48 48 0 0 0-21.4-39.7zm.6 72.1c-4.5 4.5-20 6.4-25.8.9-1.1-1.1.1-2.7 1.4-2.7 0 0 3.8 2.9 11.4 2.9 6 0 10.2-1.7 12.1-3.1 1.3-.9 1.8 1.1.9 2zM59.6 79.1c1.9-.8 6.4-.8 8.1.3.9.6 3.6 4.2 1.4 5.2-1.9.9-.3-3.5-5.9-3.5-3.3 0-4.3 1.2-5.9 2.4-1.6 1.3-2.2 1.8-2.7 1-1.3-1.7 3.6-4.8 5-5.4zm20.5 3.8c-3.4-.2-10.1-10.8-14.4-11-6.8-.2-23.1 17.9-35.7 9.3-8.6-5.9-3.2-23.2 11.5-23.3 11-.1 18.6 10.9 24 10.7 4.7-.1 13.7-9.3 18.1-9.3 10.8.1 5.2 24.3-3.5 23.6z"/></svg>