<svg xmlns="http://www.w3.org/2000/svg" xml:space="preserve" id="Layer_1" x="0" y="0" version="1.1" viewBox="0 0 100 100"><style>.fedora0{fill:#ee5586}</style><path id="svg-ico" d="M39.5 58.6H29.1c-6.8 0-12.3 5.5-12.3 12.3a12.2 12.2 0 1 0 24.4 0V60.3c0-.9-.7-1.7-1.7-1.7zm25-35.3c-6.7 0-12.2 5.5-12.2 12.2v10.6c0 .9.7 1.7 1.7 1.7h10.5a12.3 12.3 0 1 0 0-24.5z" class="fedora0"/><path id="svg-ico" d="M50 .6A49.4 49.4 0 0 0 .6 50v38.2c0 6.2 5 11.2 11.2 11.2H50A49.4 49.4 0 1 0 50 .6zm14.5 58H52.3V71a23.2 23.2 0 0 1-46.4 0 23.1 23.1 0 0 1 23.2-23.1h12.2V35.6a23.2 23.2 0 0 1 23.2-23.2H66a23.1 23.1 0 0 1-1.5 46.2z" class="fedora0"/></svg>