<svg xmlns="http://www.w3.org/2000/svg" xml:space="preserve" id="Layer_1" x="0" y="0" version="1.1" viewBox="0 0 100 100"><style>.freebsd0{fill:#ee5586}</style><path id="svg-ico" d="M98.4 2.9c5.3 5.2-9.3 28.3-11.8 30.8s-8.7.2-14-5.1c-5.3-5.2-7.5-11.5-5.1-14 2.6-2.4 25.7-17 30.9-11.7M24.8 8.4c-8-4.5-19.4-9.6-23.1-6C-2 6.1 3.3 17.8 7.9 25.8A49.4 49.4 0 0 1 24.8 8.4" class="freebsd0"/><path id="svg-ico" d="M90.4 31.9c.7 2.5.6 4.6-.6 5.8-2.8 2.7-10.3-.2-17.2-6.7l-1.4-1.3a29.8 29.8 0 0 1-5.6-7.5c-2.4-4.3-3-8.1-1.2-9.9 1-1 2.6-1.2 4.5-.9l4.3-2.6a47.7 47.7 0 1 0 19.7 18.9l-2.5 4.2" class="freebsd0"/></svg>