<svg xmlns="http://www.w3.org/2000/svg" xml:space="preserve" id="Layer_1" x="0" y="0" version="1.1" viewBox="0 0 100 100"><path id="svg-ico" fill="#ee5586" d="M.6 13.8a13.2 13.2 0 0 1 26.3-2.2 22 22 0 0 1 21.3 6.6L38.5 28c-4.5-4.5-9.4-3.6-12.3-.8a8 8 0 0 0 0 11.5l22 22-9.7 9.8-22.1-22.1a22.1 22.1 0 0 1-5.5-21.9A12.8 12.8 0 0 1 .6 13.8zm28.6 25.7 9.8 9.8 22.1-22.1a8 8 0 0 1 11.5 0c2.8 2.8 3.8 7.7-.8 12.3l9.7 9.8c6.9-6.9 8.5-15 6.4-22.4 6.5-.9 11.5-6.5 11.5-13.2A13.3 13.3 0 0 0 73 11.8a21.8 21.8 0 0 0-21.7 5.6L29.2 39.5zm58.9 33.7a22 22 0 0 0-5.8-20.8l-22-22.1-9.8 9.8 22.1 22.1a8 8 0 0 1 0 11.5c-2.8 2.8-7.7 3.8-12.3-.8l-9.7 9.8c6.1 6.7 15 8.6 22.7 6.2a13.2 13.2 0 0 0 26.2-2.7c0-6.6-4.9-12.1-11.4-13zM69.5 61.4l-9.7-9.8C40.5 70.7 48.6 62.8 37.7 73.7a8 8 0 0 1-11.5 0c-2.9-3-3.7-7.8.7-12.3l-9.7-9.8a21.8 21.8 0 0 0-6.5 21.7 13.3 13.3 0 0 0-10.2 13c0 7.4 5.9 13.3 13.2 13.3 6.3 0 11.6-4.4 13-10.3 7.2 1.8 15.2-.1 20.8-5.8l22-22.1z"/></svg>