<svg xmlns="http://www.w3.org/2000/svg" xml:space="preserve" id="Layer_1" x="0" y="0" version="1.1" viewBox="0 0 100 100"><path id="svg-ico" fill="#ee5586" d="M92.2 7.8a23.8 23.8 0 0 0-33.7 0l-26 26c-.7.7-1.1 1.6-1.1 2.6v6.1a3 3 0 0 1-3 3c-.7 0-1.4-.3-1.9-.8a3.7 3.7 0 0 0-5.1.2l-7.9 7.9a4 4 0 0 0-1 2.6v9.4a3.7 3.7 0 0 0 3.9 3.6c.9 0 1.7-.4 2.4-1l44.8-44.9a2.9 2.9 0 0 1 4.2 0 2.9 2.9 0 0 1 0 4.2L1.4 93.4a3.7 3.7 0 0 0 1.2 5.2c1.2.8 2.8.8 4 0l19-19h26.9a4 4 0 0 0 2.6-1l9.8-9.4a4 4 0 0 0 .9-4.1c-.6-1.4-2-2.3-3.5-2.3l-12 .2a3.8 3.8 0 0 1-3.8-3.1 3.2 3.2 0 0 1 3.2-2.9l25.2.2c1 0 1.9-.4 2.6-1.1l14.7-14.7a23.7 23.7 0 0 0 0-33.6z"/></svg>