<svg xmlns="http://www.w3.org/2000/svg" xml:space="preserve" id="Layer_1" x="0" y="0" version="1.1" viewBox="0 0 100 100"><path id="svg-ico" fill="#ee5586" d="M99 50a3.5 3.5 0 0 0-3.1-1.8H45.1c-2 0-3.6 1.6-3.6 3.6v8.9c0 2 1.6 3.6 3.6 3.6h29.5l-7.7 14.3H35.3L18.8 50l15.5-28.5h33.1L74.6 34a3.5 3.5 0 0 0 3.1 1.8H88c2 0 3.6-1.6 3.6-3.5 0-.6-.2-1.3-.5-1.8L77.8 7.2a3.5 3.5 0 0 0-3.1-1.8H27.5c-1.3 0-2.5.7-3.2 1.8L.9 48.2a3.8 3.8 0 0 0 0 3.6l23.4 41a3.5 3.5 0 0 0 3.1 1.8h47.2c1.3 0 2.5-.7 3.1-1.8L99 53.6c.7-1.2.7-2.5 0-3.6z"/></svg>