<svg xmlns="http://www.w3.org/2000/svg" xml:space="preserve" id="Layer_1" x="0" y="0" version="1.1" viewBox="0 0 100 100"><style>.mediawiki0{fill:#ee5586}</style><path id="svg-ico" d="m14.1 83.4.1.3.2.5.3.4.3.4.4.3.4.3.5.2.3.1c.4 0 10 1.6 16.6-5a4 4 0 0 0 0-5.6c-2.3-2.3-5.5-1.6-8.4 0 1.6-2.9 2.3-6.1 0-8.4a4 4 0 0 0-5.6 0C12.5 73.4 14 83 14.1 83.4zm52.7-58.6c2.3 2.3 5.5 1.6 8.4 0-1.6 2.9-2.3 6.1 0 8.4a4 4 0 0 0 5.6 0 20.2 20.2 0 0 0 5-16.6l-.2-.5-.1-.3c-.1-.3-.3-.6-.6-.8l-.8-.6-.3-.1-.4-.2c-.4 0-10-1.6-16.6 5.1a3.9 3.9 0 0 0 0 5.6zM.9 48.3l-.1.3-.2.5-.1.5v1l.1.5.2.5.1.3c.1.1 6 8.2 15.4 8.2a4 4 0 0 0 4-4c0-3.3-2.8-5.1-5.9-5.9 3.2-.9 5.9-2.6 5.9-5.9a4 4 0 0 0-4-4c-9.4-.2-15.1 7.6-15.4 8zM79.7 44c0 3.3 2.8 5 5.9 5.9-3.2.9-5.9 2.6-5.9 5.9a4 4 0 0 0 4 4c9.4 0 15.1-7.9 15.4-8.2s.1-.3.2-.4l.1-.3.2-1-.2-1-.1-.3-.2-.4c-.2-.3-5.9-8.2-15.4-8.2-2.3.1-4 1.8-4 4zM16.5 14.1l-.3.1-.5.2-.4.3-.4.3-.3.4-.3.5-.2.5-.1.3c0 .4-1.6 10 5 16.6a4 4 0 0 0 5.6 0c2.3-2.3 1.6-5.5 0-8.4 2.9 1.6 6.1 2.3 8.4 0a4 4 0 0 0 0-5.6c-6.5-6.8-16.1-5.2-16.5-5.2zm58.7 52.7c-2.3 2.3-1.6 5.5 0 8.4-2.9-1.6-6.1-2.3-8.4 0a4 4 0 0 0 0 5.6 20.2 20.2 0 0 0 16.6 5l.4-.1.3-.1c.3-.1.6-.3.8-.6l.6-.9.1-.3.2-.5c0-.4 1.6-10-5-16.6a4 4 0 0 0-5.6.1zM51.7 1l-.3-.1a.8.8 0 0 0-.5-.2l-.5-.2H49l-.5.2-.3.1c-.3.2-8.2 6-8.2 15.4a4 4 0 0 0 4 4c3.3 0 5-2.8 5.9-5.9.9 3.2 2.6 5.9 5.9 5.9a4 4 0 0 0 4-4c.1-9.3-7.8-15-8.1-15.2zm4.2 78.7c-3.3 0-5 2.8-5.9 5.9-.9-3.2-2.6-5.9-5.9-5.9a4 4 0 0 0-4 4c0 9.3 7.8 15.1 8.2 15.4.3.3.3.1.4.2l.3.2 1 .2 1-.2.3-.2.4-.2c.1-.1 8.2-6 8.2-15.4a4 4 0 0 0-4-4z" class="mediawiki0"/><circle id="svg-ico" cx="49.9" cy="50" r="23.8" class="mediawiki0"/></svg>