<svg xmlns="http://www.w3.org/2000/svg" xml:space="preserve" id="Layer_1" x="0" y="0" version="1.1" viewBox="0 0 100 100"><path id="svg-ico" fill="#ee5586" d="M84.2 34.3c-4 0-7.9 1.6-10.7 4.5a26 26 0 0 0-46.8 0A15.6 15.6 0 0 0 5 61.2a15.4 15.4 0 0 0 21.4.1c3.7 9 12.5 14.7 22.1 14.7 10.4 0 19.9-5.6 24.8-14.9a15.6 15.6 0 0 0 22-.4 15.6 15.6 0 0 0-11.1-26.4zM15.8 58.1c-4.5 0-8.2-3.7-8.2-8.2s3.6-8.2 8.2-8.2c4.5 0 8 3.4 8.2 7.9v.7a8 8 0 0 1-8.2 7.8zm32.7 10.4c-10 0-17.1-7.9-17.1-18.6a18.6 18.6 0 1 1 37.2.1c0 9.9-9.3 18.5-20.1 18.5zm35.7-10.4c-4.3 0-8-3.4-8.2-7.9v-.6c.1-4.5 4-8 8.5-7.9s8 4 7.9 8.5-3.7 7.9-8.2 7.9z"/></svg>