<svg xmlns="http://www.w3.org/2000/svg" xml:space="preserve" id="Layer_1" x="0" y="0" version="1.1" viewBox="0 0 100 100"><style>.openvpn0{fill:#ee5586}</style><path id="svg-ico" d="M50 32.6a17.4 17.4 0 0 0-6.2 33.7l-5.4 28.8c-.4 2.1 1 4.1 3.1 4.4l.6.1H58a3.8 3.8 0 0 0 3.7-3.9v-.5l-5.4-28.9A17.5 17.5 0 0 0 50 32.6z" class="openvpn0"/><path id="svg-ico" d="M50 .4a49.5 49.5 0 0 0-33.1 86.3 3.7 3.7 0 0 0 6.2-2L25 73.9c.2-1.1-.1-2.2-.8-3a33 33 0 1 1 51.4 0c-.7.8-1 2-.8 3l1.9 10.8c.4 1.8 2 3.1 3.8 3 .9 0 1.8-.3 2.5-1A49.4 49.4 0 0 0 50 .4z" class="openvpn0"/></svg>