<svg xmlns="http://www.w3.org/2000/svg" xml:space="preserve" id="Layer_1" x="0" y="0" version="1.1" viewBox="0 0 100 100"><style>.openbsd0{fill:#ee5586}</style><path id="svg-ico" d="M94.8 35.3c-1-1.3-2.8-1.8-4.2-1l-6.2 3.3c-.5-1.6-1.1-3.1-1.8-4.6l6.5-6.5c.6-.6.7-1.5.3-2.2a2 2 0 0 0-2-1L77.6 25a44 44 0 0 0-6-6.2l1.2-4.1a2 2 0 0 0-.7-2.1c-.7-.5-1.6-.5-2.2 0l-3.5 2.6c-5.3-3.1-11.2-5-17.3-5.5l-1.4-4c-.3-1-1.4-1.5-2.4-1.2-.6.2-1 .6-1.2 1.2l-1.4 4c-6.1.5-12 2.3-17.3 5.5L22 12.7c-.7-.5-1.6-.5-2.2 0a2 2 0 0 0-.8 2.1l1.2 4.1a41.6 41.6 0 0 0-14 24.3l-.9-.9a2.8 2.8 0 0 0-4 0 2.8 2.8 0 0 0 0 4L5 50l-3.7 3.7c-1.1 1.2-1 3 .2 4 1.1 1 2.7 1 3.8 0l.9-.9a40 40 0 0 0 14.1 24.3l-1.2 4.1a2 2 0 0 0 .7 2.1c.3.2.7.3 1.1.3s.8-.2 1.2-.4l3.4-2.6c5.3 3.1 11.2 5 17.3 5.5l1.4 4c.3 1 1.4 1.5 2.4 1.2.6-.2 1-.6 1.2-1.2l1.4-4c6.1-.5 12-2.4 17.3-5.5l3.4 2.6c.3.2.7.4 1.1.4s.8-.1 1.1-.3c.7-.5 1-1.3.7-2.1L71.6 81c2.2-1.8 4.2-3.9 6-6.2l9.8 1.7h.3a2 2 0 0 0 1.7-1c.4-.7.2-1.6-.3-2.1l-6.5-6.5c.7-1.5 1.3-3 1.8-4.6l6.2 3.3c1.5.8 3.4.4 4.3-1a25.2 25.2 0 0 0-.1-29.3zM45.9 83.6c-5.1 0-10.1-1.1-14.6-3.3a38.7 38.7 0 0 0 0-60.5 33.6 33.6 0 1 1 14.6 63.8zM34.4 49.3c0 4.5-3.7 8.2-8.2 8.2A8.2 8.2 0 0 1 19 45.4h14.4c.7 1.2 1 2.5 1 3.9z" class="openbsd0"/><path id="svg-ico" d="M57.7 63.4c-.1-.5-.5-1-.9-1.2a2 2 0 0 0-1.5 0L52 64.1c-.8.5-1.1 1.5-.6 2.3l.3.4 4.5 4c.3.3.7.4 1.1.4.9 0 1.7-.7 1.7-1.6v-.4l-1.3-5.8zm.4-34.5c-.6-.4-1.4-.3-1.9.2l-4.5 4c-.7.6-.8 1.6-.2 2.3l.4.3 3.3 1.9.8.2.7-.1c.5-.2.8-.7.9-1.2l1.2-5.9c.3-.7-.1-1.4-.7-1.7zm11.5 19.5-5.7-1.9c-.5-.2-1.1-.1-1.5.2s-.7.8-.7 1.3v3.8c0 .5.3 1 .7 1.3.3.2.6.3 1 .3l.5-.1 5.7-1.9c.9-.3 1.3-1.2 1.1-2.1a2 2 0 0 0-1.1-.9z" class="openbsd0"/></svg>