<svg xmlns="http://www.w3.org/2000/svg" xml:space="preserve" id="Layer_1" x="0" y="0" version="1.1" viewBox="0 0 100 100"><path id="svg-ico" fill="#ee5586" d="M89.8 20.9c-.1-.2-.4-.3-.6-.3l-.7.2-3.9 3.9c-.3.3-.3.7-.1 1.1a42.3 42.3 0 0 1-45.6 64.8l-.3-.1c-1.9-.5-3.7-1.2-5.5-2l-3.9-2 50.7-26.8c2-1.1 3.3-3 3.3-5.2s-1.1-4.1-3.1-5.3l-16.2-9.4 24.9-24.9c2.5-2.5 2-4.8 1.6-6a5 5 0 0 0-4.6-3 6 6 0 0 0-3 .9L20.1 40.1c-2.1 1.1-3.3 3-3.3 5.2s1.1 4.1 3.2 5.3l16.2 9.3-17.8 17.7-.2.1-2.1-2.6a42.5 42.5 0 0 1-7.6-17.3v-.5L8 53.9v-.8L7.9 52l-.1-2a39.5 39.5 0 0 1 1.9-12.3v-.2A42 42 0 0 1 58.3 8.7l.4.1 3.3.8 1.9.6.5.2 1.5.6.2.1h.7L73 7.8c.3-.1.4-.4.4-.7 0-.3-.2-.6-.4-.7a49.5 49.5 0 0 0-61.9 73.9l2.1 2.5-.2.2-1.8 1.8c-2.5 2.5-2 4.8-1.6 6a5 5 0 0 0 4.6 3 7 7 0 0 0 3-.8l4.8-2.5c1 .7 2 1.4 3 1.9a49.3 49.3 0 0 0 64.8-71.5zM16.7 87.1 42 61.8c.7-.7 1.1-1.8 1-2.9-.1-1-.8-2-1.7-2.5L22.7 45.8l-.4-.4.4-.4 60.6-32-25.2 25.1c-.7.7-1.1 1.8-1 2.9.1 1 .8 2 1.7 2.5l18.6 10.7.4.4c0 .1-.1.3-.4.4L16.7 87.1z"/></svg>