<svg xmlns="http://www.w3.org/2000/svg" xml:space="preserve" id="Layer_1" x="0" y="0" version="1.1" viewBox="0 0 100 100"><style>.owncloud0{fill:#ee5586}</style><path id="svg-ico" d="M45.7 68.6a3.3 3.3 0 0 0-2.4-2.4c-11.8-2.6-21-12-23.2-23.9a3.2 3.2 0 0 0-3.8-2.4l-.4.1A23.5 23.5 0 0 0 .6 62a23.8 23.8 0 0 0 24 23.7h24.5a3 3 0 0 0 3.1-3.2c0-.7-.3-1.4-.7-1.9a31.2 31.2 0 0 1-5.8-12zm-4.4-9.5a3.2 3.2 0 0 0 4.3-2.4A30.4 30.4 0 0 1 70 32.6c1.7-.4 2.8-2 2.5-3.8l-.1-.4a23.2 23.2 0 0 0-22.3-14.3 23.2 23.2 0 0 0-8.8 45z" class="owncloud0"/><path id="svg-ico" d="M75.3 38.4a23.7 23.7 0 1 0 .8 47.4 23.7 23.7 0 0 0-.8-47.4z" class="owncloud0"/></svg>