<svg xmlns="http://www.w3.org/2000/svg" xml:space="preserve" id="Layer_1" x="0" y="0" version="1.1" viewBox="0 0 100 100"><path id="svg-ico" fill="#ee5586" d="M91.8 49.3 99.5 39v-.7c-.1-.2-.4-.4-.6-.4H95l-.6.3-6.7 9.2h-2.4V30.5c0-.4-.3-.7-.7-.7h-2.7c-.4 0-.7.3-.7.7v29.6c0 .4.3.7.7.7h2.7c.4 0 .7-.3.7-.7v-8.8h2.3l6.7 9.2c.1.2.3.3.6.3h3.9c.3 0 .5-.1.6-.4v-.7l-7.6-10.4zM24 29.8h2.7c.4 0 .7.3.7.7v29.6c0 .4-.3.7-.7.7H24a.7.7 0 0 1-.7-.7V30.5c0-.4.3-.7.7-.7zm49 18.6-7.5-3.6c-.6-.3-.9-.8-.9-1.5.1-.8.9-1.5 1.7-1.4H75c.2 0 .4-.1.5-.3s.2-.4.1-.6l-.7-2.7c-.1-.3-.3-.5-.7-.5h-7.8c-3-.1-5.6 2.1-6 5.1-.3 2.5 1 4.9 3.2 5.9l7.6 3.6c.6.3.9.9.8 1.5-.2.8-.9 1.4-1.7 1.3h-8.6c-.2 0-.4.1-.5.3-.2.3-.3.5-.2.7l.7 2.7c.1.3.3.5.6.5h7.9c3 .1 5.6-2.1 6-5.1.4-2.4-.9-4.8-3.2-5.9zm-55.1-.9c0-5.3-4.3-9.6-9.6-9.6H5.1c-1.6 0-3.1.5-4.4 1.3-.2.1-.3.3-.3.6v29.7c0 .4.3.7.7.7h2.7c.4 0 .7-.3.7-.7V59.4h3.9c5.3 0 9.6-4.3 9.6-9.6v-2.3h-.1zm-4-.3v2.9c0 2.9-2.4 5.3-5.3 5.3H5.3l-.9-.1V42l.9-.1h3.3c2.9 0 5.3 2.4 5.3 5.3zm3.4 19h17.5c.4 0 .7.3.7.7v2.7c0 .4-.3.7-.7.7H17.3a.7.7 0 0 1-.7-.7v-2.7c0-.4.3-.7.7-.7zm27.4-28.3h-1a9.6 9.6 0 0 0-9.6 9.6v2.4c0 5.3 4.3 9.6 9.6 9.6h6.6c.3 0 .6-.2.7-.5l.7-2.7-.1-.6a.5.5 0 0 0-.5-.3h-7.5a5.3 5.3 0 0 1-5.1-4h15.3c.4 0 .7-.3.7-.7v-3.2a10 10 0 0 0-9.8-9.6zm-6.6 9.3c0-2.9 2.4-5.3 5.3-5.3h1.8c2.9 0 5.3 2.4 5.3 5.3v.1l-12.4-.1z"/></svg>