<svg xmlns="http://www.w3.org/2000/svg" xml:space="preserve" id="Layer_1" x="0" y="0" version="1.1" viewBox="0 0 100 100"><style>.prestashop0{fill:#ee5586}</style><ellipse id="svg-ico" cx="50" cy="50" class="prestashop0" rx="7.9" ry="8.1"/><path id="svg-ico" d="M99.1 76.2a99.7 99.7 0 0 0-4.5-9.3l.2-.4a50 50 0 0 0 2.5-20.3v-.4c0-.4 0-.5-.2-.9l-.5-3.9-.2-1.3-.2-.7-.7-2.3-.7-2.5c-.9-2.3-1.8-4.7-3-6.8A48.4 48.4 0 0 0 35.5 3.6h-.2l-4.7 1.6A47.1 47.1 0 0 0 .8 45.1v.6A49.6 49.6 0 0 0 4 68c.7 1.6 1.4 3.2 2.3 4.8a48.5 48.5 0 0 0 63 21.3c3.8-.5 7.9-1.8 11.7-3.6 4.7-2.2 8.6-5.4 11.5-9.5l5.2-1.6c.7-.2 1.3-.7 1.6-1.4a2 2 0 0 0-.2-1.8zM85.8 54.3h.4c2.3 0 3.9-2.3 3.9-6.3s-1.4-6.3-3.9-6.3-3.9 2.3-3.9 6.3l.2 2.5a75 75 0 0 0-11.3-9.7c2.5-5.9 7.4-9.5 10.6-9.5 3.8 0 7.7 5.7 10.2 15.1.4 4.8 0 9.7-1.1 14.3-1.7-2.1-3.3-4.4-5.1-6.4zM11 70.6c-.7-1.3-1.3-2.5-1.8-3.9a28 28 0 0 1 7.7-21.2c6.5-7.5 15.2-12 24.4-12.6 8.8-.5 17.6 2.5 24.7 8.6v.2a76 76 0 0 1-12.9 34.4L49 74.7c-2.9-1.1-10.6-5-10.6-5s4.5 5.7 9.1 9l3.9 2.2A20 20 0 0 0 51 85a9 9 0 0 0 4.3 7.5c.4.2.5.4.9.5A43.5 43.5 0 0 1 11 70.6zm72 12.7c-1.4 1.1-2.9 2-4.5 2.7-8.6 4.1-17 4.1-20.6 1.8-1.6-1.1-1.8-2.2-1.8-2.9l.2-2.3C61.1 83.5 66 84 71 84h1.1a70 70 0 0 0 10.2-.7h.7zm-3.5-5-8.4.5h-3.4c-.7 0-1.4 0-2.3-.2H65c-2.2-.2-4.3-.5-6.5-.9 6.1-9.1 10-19.5 12-30.5a77.5 77.5 0 0 1 18.6 20.9l.4.7c1.3 2.3 2.5 4.7 3.6 7-4.6 1.1-9.1 2-13.6 2.5z" class="prestashop0"/></svg>