<svg xmlns="http://www.w3.org/2000/svg" xml:space="preserve" id="Layer_1" x="0" y="0" version="1.1" viewBox="0 0 100 100"><style>.ubuntu0{fill:#ee5586}</style><circle id="svg-ico" cx="11.4" cy="50" r="9.1" class="ubuntu0"/><path id="svg-ico" d="M36 83.1C28 77.7 22 69.5 19.6 60c2.9-2.4 4.7-5.9 4.7-10s-1.8-7.6-4.7-10A39.9 39.9 0 0 1 36 16.9l6.7 11.2a26.9 26.9 0 0 0 0 43.8L36 83.1z" class="ubuntu0"/><circle id="XMLID_6_" cx="81.3" cy="9.6" r="9.1" class="ubuntu0"/><path id="svg-ico" d="M40.4 14.4a39.8 39.8 0 0 1 28.2-2.7 13 13 0 0 0 17.3 10 39.5 39.5 0 0 1 11.8 25.8l-13 .2a26.6 26.6 0 0 0-37.9-21.9l-6.4-11.4z" class="ubuntu0"/><circle id="svg-ico" cx="81.4" cy="90.4" r="9.1" class="ubuntu0"/><path id="svg-ico" d="M97.7 52.6a39.5 39.5 0 0 1-11.8 25.8 13 13 0 0 0-17.3 10 39.8 39.8 0 0 1-28.2-2.7l6.4-11.4a26.8 26.8 0 0 0 37.9-21.9l13 .2z" class="ubuntu0"/></svg>