<svg xmlns="http://www.w3.org/2000/svg" xml:space="preserve" id="Layer_1" x="0" y="0" version="1.1" viewBox="0 0 100 100"><path id="svg-ico" fill="#ee5586" d="M99.6 60.3c0-5.3-2.8-10.3-7.6-13.1l-15.6-8.8V19.7c.2-8.3-6.5-15-14.9-15A15 15 0 0 0 50 10a15 15 0 0 0-26.5 9.7v18.7L8 47.3a15.3 15.3 0 0 0-5.7 20.5c2.3 3.9 6.2 6.7 10.6 7.4a15.1 15.1 0 0 0 21.7 18.3l15.6-8.8 15.6 8.8c2.3 1.4 5 1.9 7.6 1.9a15 15 0 0 0 14.1-20.1 15.4 15.4 0 0 0 12.1-15zm-15.1 8c-1.4 0-2.8-.4-4.1-1.1l-17.1-9.9c-1.6-1.1-3.9-.5-5 1.1s-.5 3.9 1.1 5l.2.2 17.1 9.9c3.9 2.1 5.1 7.1 3 11s-7.1 5.1-11 2.8l-17-10.1a3.2 3.2 0 0 0-3.5 0L31 87a8 8 0 0 1-10.8-2.8 8.3 8.3 0 0 1 2.8-11l17.1-9.9c1.8-.9 2.5-3 1.4-4.8-.9-1.8-3-2.5-4.8-1.4l-.2.2-17.1 9.9a8 8 0 0 1-10.8-2.8 8.3 8.3 0 0 1 2.8-11l17.3-9.9a3.6 3.6 0 0 0 1.8-3V19.7c0-4.4 3.5-8 8-8s8 3.5 8 8v19.8c0 1.9 1.6 3.5 3.5 3.5s3.5-1.6 3.5-3.5V19.7a8 8 0 0 1 8-8 8 8 0 0 1 8 8v20.9a4 4 0 0 0 1.8 3.2l17.3 9.9c3.7 2.3 5 7.1 2.8 11-1.5 2-4 3.6-6.9 3.6z"/></svg>