<svg xmlns="http://www.w3.org/2000/svg" xml:space="preserve" id="Layer_1" x="0" y="0" version="1.1" viewBox="0 0 100 100"><path id="svg-ico" fill="#ee5586" d="M50 .4a49.6 49.6 0 1 0 0 99.2A49.6 49.6 0 0 0 50 .4zm0 5.8a44 44 0 0 1 31.5 13.3c-1-.2-1.7-.2-2.7 0a8.1 8.1 0 0 0-6.9 8.6c.2 2.7 1.1 5.3 2.7 7.6 2.1 3.4 4 6.7 1.7 13.7l-8.4 26.3-14.5-44.8h2.7c1.5 0 2.9-1.3 2.9-2.9s-1.3-2.9-2.9-2.9H38.9c-1.5 0-2.9 1.3-2.9 2.9s1.3 2.9 2.9 2.9h3.2l4 12.6-10.4 32.2L21 30.9h2.7c1.5 0 2.9-1.3 2.9-2.9s-1.3-2.9-2.9-2.9H14A44 44 0 0 1 50 6.2zM6.2 50a42 42 0 0 1 4-18.1l18.3 56.2A43.7 43.7 0 0 1 6.2 50zm31 41.9L49.6 54 62 92.3a45.4 45.4 0 0 1-24.8-.4zm33.2-3.2 18.9-58.1a43.8 43.8 0 0 1-18.9 58.1z"/></svg>