<?xml version="1.0" encoding="utf-8"?>
<!-- Generator: Adobe Illustrator 26.1.0, SVG Export Plug-In . SVG Version: 6.00 Build 0)  -->
<svg version="1.1" id="Layer_1" xmlns="http://www.w3.org/2000/svg" xmlns:xlink="http://www.w3.org/1999/xlink" x="0px" y="0px"
	 viewBox="0 0 551 189" style="enable-background:new 0 0 551 189;" xml:space="preserve">
<style type="text/css">
	.st0{fill:#288CD0;}
</style>
<g>
	<path class="st0" d="M262.9,48.8c-0.3-0.2-0.5-0.3-0.8-0.4c-0.3-0.1-0.6-0.2-0.9-0.3c-0.8-0.3-0.9-0.5-0.7-1.2c0.4-2,0.9-4,2-5.8
		c1.8-2.9,4.3-4.5,7.7-4.7c0.9,0,1.7,0,2.5,0.4c1,0.4,1.9,1.1,2.4,2.1c0.5,1,1,2,1.1,3.2c0.2,1,0.4,2,0.6,3.1c0.1,1,0.7,1.7,1.6,2.2
		c0.6,0.3,1.3,0.5,1.9,0.7c2.3,0.5,4.5,0.9,6.8,1.3c0.9,0.2,1.8,0.5,2.7,0.7c0.4,0.1,0.8,0.2,1.3,0.3c0.1-0.4,0.2-0.7,0.3-1
		c0.9-3.6,1.8-7.1,2.8-10.7c1.4-5,2.8-9.9,4.2-14.8c0.3-0.9,0.7-1.6,1.5-2.1c0.9-0.6,1.4-0.3,1.5,0.7c0.1,0.9,0.1,1.8,0,2.6
		c-0.2,2,0.5,3.7,1.8,5.2c2.2,2.5,3.4,5.5,3.8,8.8c0.2,1.1,0.3,2.2,0.3,3.4c0,0.7,0,1.4-0.1,2.1c-0.1,0.7,0.1,1.2,0.7,1.5
		c0.6,0.4,1.2,0.8,1.8,1.2c0.7,0.5,1,1.2,1.1,2c0.1,0.7-0.1,0.9-0.8,0.8c-1.6-0.2-3.2-0.4-4.7-0.8c-2.2-0.5-4.5-0.9-6.7-1.5
		c-1.9-0.5-2.8,0.4-3.1,1.8c-0.1,0.5-0.3,1.1-0.4,1.6c-0.2,0.7-0.1,0.8,0.5,1.2c1.3,0.6,2.6,1.3,3.9,1.9c1.5,0.8,3.1,1.6,4.6,2.4
		c0.7,0.3,1,0.8,1.2,1.6c0.4,1.9,0.5,3.8,0.4,5.7c-0.5,5.5-1.4,10.9-2.4,16.3c-0.2,1.3-0.1,2.5,0.5,3.7c0.6,1.2,0.6,2.4-0.1,3.5
		c-0.5,0.9-1.1,1.7-1.8,2.5c-2,2.2-3.8,4.5-5.6,6.9c-0.9,1.2-1.8,2.4-2.8,3.5c-1.2,1.4-2.7,2.4-4.3,3.4c-1.4,0.9-2.8,1.6-4.5,2
		c-2.2,0.4-4.4,0.4-6.6-0.4c-1.5-0.5-3-1-4.4-1.6c-1.3-0.6-2.7-0.6-4-0.3c-1,0.2-1.9,0-2.6-0.7c-1.3-1.3-2.7-2.5-3.9-3.8
		c-0.7-0.7-1.3-1.5-1.8-2.4c-2.5-4.2-4.2-8.7-5.3-13.4c-0.4-1.7-0.9-3.4-1.3-5c-0.5-2-1-4.1-1.6-6.1c-0.2-0.6-0.5-1.1-1-1.5
		c-0.3-0.3-0.6-0.6-0.9-0.9c-1.1-1.1-1.5-2.4-1.4-3.9c0.1-2.9,0.3-5.8,0.4-8.7c0-0.7,0.3-1.2,0.7-1.7c2.6-3.1,5.7-5.2,9.7-5.7
		C262,49.5,262.3,49.4,262.9,48.8z M273.4,58.5c-1-0.1-1.8,0.1-2.3,1c0,0.1-0.1,0.1-0.2,0.2c-2.7,3.1-4.6,6.7-5.8,10.6
		c-0.2,0.5-0.2,1-0.2,1.5c0.2,2,0.4,4.1,0.8,6c0.6,3.1,1.7,6,3.7,8.5c0.7,0.9,1.4,1.7,2.1,2.5c1.9,2.1,4.3,3.1,7,3
		c3.1-0.1,5.7-1.5,7.2-4.2c2.4-4.1,4.6-8.3,6.9-12.4c0.5-0.8,0.6-1.8,0.3-2.7c-0.2-0.6-0.2-1.2-0.4-1.8c-0.4-1.5-0.7-3.1-1.1-4.6
		c-0.5-1.6-1.4-3-2.7-4.1c-1.8-1.5-3.8-2.4-6-2.7C279.6,59.1,276.5,58.8,273.4,58.5z"/>
	<path class="st0" d="M147.3,102.7c0.6-0.6,1.2-1,1.9-1.3c2.8-1.2,5.5-2.4,8.3-3.4c2.7-0.9,5.3-2,8-3c0.3-0.1,0.5-0.2,0.9-0.4
		c-0.4-0.4-0.8-0.5-1.2-0.5c-0.9,0-1.9,0.1-2.8,0.2c-1.3,0.1-1.4,0.1-1.3-1.2c0.1-0.9,0.3-1.6,0.7-2.4c0.8-1.5,1.5-3.1,2.2-4.7
		c2.1-5.7,4-11.6,5.8-17.4c0.4-1.4,0.9-2.8,1.4-4.1c0.2-0.7,0.4-1.4,0.7-2.1c0.2-0.6,0.5-1.2,0.8-1.8c0.5-1,1.1-1.9,1.6-2.9
		c0.4-0.6,0.9-1,1.6-1c2.9-0.2,5.7-0.5,8.6-0.7c0.3,0,0.7,0,1,0.1c0.7,0.2,1.1,0.8,1.3,1.5c0.4,1.8,0.9,3.6,1.3,5.4
		c1.4,5.5,2.8,11,4.1,16.6c0.2,0.8,0.5,1.6,1,2.3c0.4,0.6,0.5,0.7,1.2,0.5c1.1-0.2,2.1-0.5,3.2-0.8c0.5-0.1,1-0.2,1.6-0.3
		c-0.2,0.5-0.2,0.7-0.3,1c-0.5,1-1.1,2.1-1.6,3.1c-0.2,0.4-0.4,0.7-0.6,1.1c-0.6,0.9-0.5,1.8,0,2.8c3,5.7,6,11.4,9.1,17.1
		c0.9,1.7,1.8,3.5,2.5,5.4c0.1,0.4,0.2,0.9,0.3,1.4c-0.4,0.1-0.7,0.1-1,0.1c-2.6,0.1-5.2,0.2-7.8,0.2c-1.3,0-2.6-0.3-3.8-0.4
		c-0.6-0.1-1.2-0.2-1.9-0.3c-0.7-0.1-0.9-0.3-0.7-1c0.3-0.8,0.2-1.6-0.1-2.3c-1.1-3.2-2.4-6.4-3.9-9.5c-0.2-0.5-0.5-0.9-1-1.3
		c-0.9-0.7-1.8-1.4-2.7-2.1c-0.5-0.4-1-0.5-1.6-0.4c-0.8,0.1-1.6,0.2-2.4,0.5c-3,0.9-6.1,1.7-9,3c-0.8,0.3-1.3,0.8-1.7,1.5
		c-0.2,0.5-0.5,1-0.7,1.5c-0.4,1.4-0.8,2.8-1.2,4.2c-0.3,1.3-0.2,2.6,0,3.8c0.2,1.4,0.1,1.5-1.2,1.8c-3,0.7-6,0.8-9,0.5
		c-1.2-0.1-2.4-0.2-3.5-0.3c-0.2,0-0.4,0-0.7-0.1c-0.3-0.1-0.4-0.2-0.3-0.5c0-0.2,0.1-0.4,0.2-0.6c0.6-2,1.1-3.9,1.7-5.9
		c0.3-0.9,0.1-1.1-0.8-1.2c-2-0.3-4-0.6-6-1C148.9,103.3,148.2,103.1,147.3,102.7z M183.7,86.4c-0.7-0.6-0.6-1.4-0.7-2.1
		c-0.1-0.8-0.1-1.6-0.2-2.5c-0.1-1.7-0.8-3.1-1.5-4.6c-0.3-0.5-0.5-0.5-0.9-0.2c-1.1,0.8-2.1,1.7-2.5,3.1c-0.2,0.5-0.4,0.9-0.6,1.4
		c-0.6,1.6-1.2,3.2-1.3,5c-0.1,1.1-0.4,2.2-1,3.1c-0.1,0.1-0.1,0.3-0.1,0.6c0.4,0,0.8,0.1,1.1,0c1.1-0.3,2.3-0.6,3.4-1.1
		c1.3-0.6,2.6-1.4,3.9-2.2C183.3,86.8,183.5,86.7,183.7,86.4z"/>
	<path class="st0" d="M306,100.8c0.6-1,1.3-1.8,2-2.6c1.8-2,3.9-3.6,6.1-5.1c3.2-2.2,6.4-4.5,9.6-6.7c0.7-0.5,1.4-1,1.8-1.8
		c0.1-0.1,0.1-0.3,0.2-0.5c-0.2-0.1-0.3-0.1-0.4-0.1c-1.2,0-2.3,0.1-3.5,0.1c-0.1,0-0.2,0-0.3,0c-0.8,0-1.1-0.2-1.1-1
		c0-0.9-0.1-1.8,0-2.6c0.1-4-0.1-8.1-0.4-12.1c-0.1-1.4-0.1-2.9-0.2-4.3c-0.1-1.3-0.4-2.5-0.6-3.7c-0.2-0.9-0.1-1.7,0.3-2.5
		c0.3-0.4,0.5-0.9,0.7-1.3c0.2-0.5,0.6-0.7,1.1-0.8c5-0.8,10-0.7,15-0.6c4.1,0.1,8.1,0.2,12.2,0.2c1.5,0,3-0.3,4.5-0.5
		c1.1-0.1,1.3,0,1,1c-0.3,1.7-0.8,3.3-1.1,5c-0.1,0.6-0.3,1.2-0.4,1.9c-0.1,0.7-0.5,1.3-1.1,1.7c-1.3,1-2.7,1.5-4.4,1.6
		c-2,0.1-4,0.1-5.9,0.2c-2.4,0.1-4.8,0.3-7.2,0.5c-0.8,0.1-0.9,0.2-1,0.9c-0.3,1.5-0.5,3.1-0.7,4.6c-0.2,1.2,0.5,2.4,1.7,2.8
		c0.4,0.1,0.8,0.2,1.2,0.1c4-0.4,8-1,11.9-2c0.8-0.2,1.7-0.2,2.6-0.2c0.8,0,1,0.3,0.9,1.1c-0.3,2.3-0.7,4.7-1,7
		c-0.1,0.8-0.3,1.4-0.7,2.1c-0.7,1.1-1.7,1.7-2.9,2.1c-3.5,1.3-7,2.6-10.6,4c-0.2,0.1-0.4,0.2-0.6,0.3c-1,0.4-1.4,1.2-1.4,2.2
		c0,2.2,0,4.5-0.1,6.7c0,3.2,0.3,6.4,0.7,9.6c0.1,0.7,0.5,1.3,0.7,1.9c0.2,0.5,0.5,0.9,0.7,1.3c0.3,0.7,0,1.1-0.7,1.1
		c-1.1,0.1-2.3,0.2-3.5,0.3c-2.4,0.2-4.9,0.2-7.3,0.2c-1,0-2,0-3,0c-1.1,0-1.3-0.2-1.3-1.2c-0.1-2.3,0.1-4.6,1-6.7
		c0.4-1.1,0.4-2.3,0.4-3.4c0-1.1,0-2.3,0-3.4c0-1.1-0.7-1.8-1.4-2.5c-0.1-0.1-0.4-0.1-0.6-0.1c-0.7,0.2-1.5,0.3-2.2,0.6
		c-3.3,1.5-6.5,3.1-9.7,4.7C306.5,101,306.5,101,306,100.8z"/>
	<path class="st0" d="M205,81.8c0.3-0.3,0.5-0.6,0.8-0.8c2.5-1.7,4.9-3.5,7.5-5.2c2.4-1.6,4.6-3.4,6.9-5.1c0.1-0.1,0.2-0.2,0.4-0.4
		c-0.3-0.2-0.5-0.5-0.7-0.6c-0.7-0.3-1-0.9-1.1-1.5c-0.3-1.8-0.5-3.6-0.7-5.4c-0.1-0.9-0.1-1.8-0.2-2.7c-0.1-1.3,0.4-2.5,1-3.6
		c0.1-0.2,0.3-0.4,0.6-0.4c0.3-0.1,0.7-0.2,1-0.1c1.3,0.2,2.6-0.2,3.9-0.2c2.1-0.1,4.1-0.3,6.2-0.3c0.7,0,1.4,0.3,2,0.6
		c0.4,0.1,0.4,0.6,0.3,0.9c-0.1,1-0.3,2-0.4,3c-0.1,0.6-0.1,1.3-0.2,2c0.2-0.1,0.4-0.1,0.5-0.2c1.1-0.9,2.2-1.8,3.3-2.7
		c0.5-0.4,0.9-0.9,1.4-1.3c0.4-0.5,1-0.8,1.7-1c0,0.2,0,0.4,0,0.5c-0.1,0.2-0.2,0.3-0.3,0.5c-2.7,4.7-5.8,9.1-9.1,13.4
		c-0.9,1.1-2,2.1-2.9,3.1c-0.2,0.2-0.4,0.4-0.6,0.7c0.8,0.2,1.4-0.1,1.9-0.3c0.8-0.3,1.4-0.1,2,0.3c0.6,0.4,0.9,0.8,0.8,1.6
		c-0.1,1.7-0.1,3.4-0.1,5c0,1.5,0,3,0,4.5c0,1-0.2,2-0.4,3c-0.3,1.8-0.1,3.6,0.1,5.4c0.2,2.3,0.4,4.7,0.6,7c0,0.1,0,0.3,0,0.4
		c0.1,0.8,0.2,0.9,1,0.8c3.7-0.1,7.3-0.2,11-0.3c2.5-0.1,5.1-0.2,7.6-0.4c0.2,0,0.4,0,0.7,0c0.7,0,0.9,0.1,1.1,0.8
		c0.7,2.8,1.1,5.6,0.7,8.5c0,0,0,0.1,0,0.1c-0.2,1.5-0.2,1.6-1.8,1.8c-1.2,0.2-2.5,0.2-3.7,0.2c-2.4,0-4.9,0-7.3-0.1
		c-1,0-2-0.2-3-0.1c-3.3,0.1-6.7,0.2-10,0.3c-0.5,0-1,0.1-1.6,0.2c-1.7,0.3-3.3,0.1-5,0c-0.4,0-0.5-0.2-0.6-0.6
		c-0.1-0.7-0.1-1.3-0.2-2c-0.5-5.3-0.6-10.5-0.7-15.8c0-0.8-0.1-1.6-0.1-2.5c0-2.7,0-5.4,0-8.2c0-0.4,0-0.7,0-1.1
		c0.1-1.9-0.9-3.1-2.3-4.1c-0.5-0.4-1.1-0.3-1.7-0.1c-2.4,0.8-4.8,1.6-7.1,2.3c-0.5,0.2-1,0.3-1.6,0.5C206,82.2,205.6,82.2,205,81.8
		z"/>
	<path class="st0" d="M365,74c0.2-0.2,0.3-0.5,0.5-0.7c0.9-0.9,2-1.6,3.2-2.1c1.9-0.7,3.8-1.5,5.7-2.3c0.5-0.2,1-0.5,1.4-0.8
		c0.5-0.4,0.4-0.7-0.2-0.8c-0.6-0.2-1.2-0.3-1.9-0.3c-1.1-0.1-2.3,0-3.4,0c-2.3-0.1-4.6-0.3-6.9-0.4c-0.4,0-0.9,0-1.3,0
		c-0.6,0-1.2-0.1-1.6-0.6c-0.5-0.5-0.9-1.2-1.3-1.8c-0.1-0.2-0.1-0.5-0.1-0.8c0.6-2.5,1.2-5.1,1.8-7.6c0.2-0.9,0.4-1,1.4-1
		c1.8,0.1,3.6,0.2,5.3,0.4c3.3,0.4,6.7,0.5,10,0.5c1.9,0,3.7-0.1,5.6-0.2c1.9-0.1,3.8-0.1,5.7-0.2c1.5-0.1,3-0.2,4.4-0.2
		c1.6,0,3.3,0.2,4.9,0.3c0.1,0,0.1,0.1,0.3,0.2c-0.4,0.8-0.7,1.6-1.1,2.3c-0.4,0.7-0.9,1.4-1.4,2.2c0.5,0.6,1.2,0.8,1.7,1.2
		c0.6,0.4,1.2,0.7,1.8,1.1c0.6,0.4,1.2,0.7,1.9,1.1c-0.2,0.2-0.3,0.4-0.5,0.5c-1.2,0.9-2.7,1.2-4.2,1.5c-2,0.4-4.1,0.6-6.1,1
		c-1.7,0.3-3.4,0.7-5.1,1.1c-0.6,0.2-1.2,0.5-1.7,0.8c-0.7,0.3-1,0.9-1,1.7c0,2.2-0.1,4.3-0.2,6.5c-0.1,5.1-0.2,10.3-0.3,15.4
		c0,2.2,0.3,4.4,0.7,6.6c0.1,0.6,0.2,1.2,0.2,1.8c0,2.6,0.1,5.2,0.4,7.8c0.1,1.4,0.2,2.8,0.2,4.2c0,0.6,0,0.7-0.6,0.8
		c-1.1,0.2-2.3,0.3-3.4,0.4c-1.7,0.1-3.5,0.2-5.2,0.3c-0.9,0.1-1.7,0.1-2.5,0.2c-1.3,0.1-1.9-0.4-1.8-1.7c0.2-3.2,0.5-6.4,0.7-9.5
		c0.1-0.9,0.1-1.8,0.2-2.6c0.2-3.6,0.4-7.2,0.5-10.8c0.2-4.7,0.2-9.3,0.3-14c0-1.4,0-1.4-1.4-1.6c-1.6-0.2-3.2,0.1-4.8,0.3
		c-0.3,0-0.6,0.1-1,0.1C365.1,74.1,365.1,74.1,365,74z"/>
	<path class="st0" d="M261.8,13.8c0-1,0.4-1.8,1-2.5c0.2-0.3,0.6-0.3,0.9-0.1c1,0.6,1.7,1.3,2.2,2.4c1.2,3,2.6,6,3.8,9
		c0.2,0.4,0.3,0.8,0.5,1.1c0.2,0.4,0.1,0.7-0.2,1c-1.2,0.9-2.3,1.9-3.5,2.8c-0.8,0.6-1.4,0.4-1.7-0.7c-0.5-2-1-3.9-1.5-5.9
		c-0.5-2.1-0.9-4.2-1.3-6.4C261.9,14.2,261.9,13.9,261.8,13.8z"/>
	<path class="st0" d="M253.7,40.9c0.1-0.3,0.2-0.7,0.4-1c1.4-2.1,2.7-4.1,4.6-5.8c1.1-1,2.3-2,3.4-3c1.2-1,2.7-0.7,3.3,0.8
		c0.3,0.8,0.5,1.6,0.7,2.4c0.1,0.4,0,0.8-0.4,1.1c-1.7,1.5-3.3,3-5,4.4c-0.5,0.4-1.1,0.6-1.7,0.9c-1.2,0.5-2.3,1-3.5,1.5
		C254.3,42.7,253.8,42.3,253.7,40.9z"/>
	<path class="st0" d="M283.8,36.2c-3.5-0.4-6.7-0.6-9.8-1.6c-0.2-0.1-0.4-0.1-0.6-0.2c-0.3-0.1-0.5-0.3-0.4-0.7
		c0.3-1.4,0.6-2.7,0.9-4.1c0.2-0.7,0.8-0.9,1.5-0.7c0.4,0.1,0.7,0.3,1.1,0.5c2.6,1.2,5.2,2.4,7.8,3.5c0.8,0.4,1.2,1,1.5,1.8
		c0.1,0.2,0,0.5-0.1,0.6C285,35.8,284.4,36.2,283.8,36.2z"/>
	<path class="st0" d="M421.8,68.7c-1-0.3-1.9-0.5-2.8-0.8c-1.4-0.5-2.7-0.7-4.2-0.6c-0.7,0.1-1.5,0-2.2,0c-0.4,0-0.8-0.1-1.1-0.2
		c-0.9-0.3-1.1-1-0.4-1.7c0.3-0.3,0.7-0.6,1.1-0.8c1-0.3,2-0.5,3.1-0.6c0.5-0.1,1,0,1.5,0.2c0.8,0.2,1.5,0.5,2.2,0.8
		c0.4,0.2,0.9,0.5,1.1,0.9c0.6,0.8,1.1,1.6,1.6,2.4C421.7,68.3,421.7,68.4,421.8,68.7z"/>
	<path class="st0" d="M128,101.4c1,0.2,1.8,0.3,2.6,0.4c0.9,0.2,1.8,0.3,2.8,0.1c1.1-0.1,2.2,0,3.3,0.3c0.2,0.1,0.4,0.1,0.6,0.2
		c0.5,0.3,0.6,0.8,0.2,1.3c-0.1,0.1-0.2,0.2-0.3,0.3c-2.1,1.2-4.2,1.4-6.5,0.4C129.3,103.9,128.6,102.8,128,101.4z"/>
	<path class="st0" d="M267.1,30.4c0-0.1,0-0.1,0-0.2c0-1.2,1.9-2.8,3-2.6c0.4,0.1,0.7,0.2,0.9,0.6c0.3,0.7,0.5,1.4,0.5,2.1
		c0,0.9-0.4,1.7-1.1,2.2c-0.5,0.4-1.1,0.7-1.7,0.9c-0.5,0.2-0.7,0.1-0.9-0.4C267.5,32.2,267.3,31.3,267.1,30.4
		C267.1,30.4,267.1,30.4,267.1,30.4z"/>
	<path class="st0" d="M414.7,46.1c0.5,0.3,0.8,0.5,1,0.7c0.6,0.5,1.1,1,1.7,1.4c0.5,0.4,0.7,0.8,0.5,1.3c-0.1,0.3-0.1,0.7-0.3,1
		c-0.1,0.4-0.4,0.5-0.7,0.2c-0.6-0.4-1.3-0.9-1.8-1.4c-0.3-0.3-0.5-0.9-0.5-1.3C414.6,47.5,414.7,46.9,414.7,46.1z"/>
	<path class="st0" d="M244.2,45.1c-0.2,1.3-0.3,2.4-0.5,3.5c0,0.2-0.3,0.5-0.5,0.6c-0.4,0.2-0.8,0.4-1.3,0.6
		c-0.1-0.2-0.2-0.4-0.2-0.5c0-0.7,0-1.3,0-2c0-0.7,0.3-1.2,1-1.5c0.2-0.1,0.5-0.3,0.7-0.4C243.7,45.3,243.9,45.2,244.2,45.1z"/>
	<path class="st0" d="M134.6,87.7c0.3,0.1,0.5,0.1,0.7,0.2c0.6,0.3,1.1,0.6,1.6,1c0.5,0.3,0.6,0.8,0.6,1.4c0,0.5-0.3,0.7-0.8,0.6
		c-0.3-0.1-0.6-0.2-0.9-0.3C134.7,90,134.2,89.7,134.6,87.7z"/>
</g>
<g>
	<path class="st0" d="M94.2,156.8c0.7-1,1.5-1.7,2.4-2.2c0.9-0.5,1.8-0.9,2.7-1.2c0.9-0.3,1.8-0.6,2.8-0.9c0.9-0.3,1.8-0.8,2.7-1.4
		c0.5-0.3,1.2-0.7,2.1-1.2c0.9-0.5,1.8-1.1,2.7-1.8c0.9-0.6,1.6-1.3,2.3-1.9c0.6-0.6,1-1.2,1-1.6c0,0,0-0.1-0.1-0.1
		c-0.1,0-0.1,0-0.1-0.1l-0.1-0.1c-0.2-0.1-0.6-0.2-1.1-0.3c-0.5-0.1-0.8-0.2-0.9-0.3c-5.8-0.7-10.4-1.3-14-1.8
		c-3.5-0.5-6.2-1.1-8.1-1.6c-1.9-0.6-3.2-1.3-3.8-2c-0.6-0.8-0.9-1.7-0.9-2.9c0-0.4,0.1-0.9,0.3-1.5c0.2-0.5,0.4-1.1,0.6-1.6
		c0.2-0.5,0.5-1,0.8-1.5c0.3-0.4,0.5-0.8,0.7-1.1c0.7-0.9,1.7-1.7,2.8-2.4c1.2-0.7,2.4-1.3,3.8-1.9c1.3-0.5,2.7-1,4.1-1.4
		c1.4-0.4,2.6-0.8,3.7-1.1c1.3-0.1,2.5-0.4,3.8-0.9c1.3-0.5,2.5-0.9,3.8-1c0.6,0,1.1,0.2,1.5,0.7c0.4,0.5,0.6,1,0.6,1.5
		c0,0.8-0.1,1.3-0.4,1.7c-0.3,0.4-0.7,0.7-1.1,0.9c-0.5,0.2-1,0.4-1.6,0.5c-0.6,0.1-1.2,0.2-1.8,0.4c-0.4,0.1-0.9,0.2-1.5,0.4
		c-0.6,0.2-1.3,0.3-1.9,0.5c-0.6,0.2-1.2,0.3-1.7,0.5c-0.5,0.1-0.8,0.2-0.9,0.3c-1.4,0.6-2.7,1.1-3.9,1.6c-1.2,0.5-2.3,1-3.2,1.6
		c-0.9,0.5-1.6,1.1-2.2,1.7c-0.5,0.6-0.8,1.3-0.7,2v0.1c0.4,0.6,1.5,1.1,3,1.4c1.6,0.3,3.4,0.6,5.6,0.8c2.1,0.2,4.4,0.4,6.7,0.7
		c2.4,0.2,4.5,0.6,6.5,1c2,0.4,3.6,1.1,4.9,1.8c1.3,0.8,2,1.8,2,3.1c0,0.5-0.1,1.1-0.3,1.8c-0.2,0.7-0.5,1.2-0.8,1.5
		c-1.1,1.3-2.5,2.6-4,3.9c-1.5,1.3-3.2,2.6-5,3.7c-1.8,1.1-3.6,2.1-5.6,2.9c-1.9,0.8-3.8,1.2-5.6,1.4c-0.6,0-1.2-0.2-1.8-0.7
		C94.4,158,94.2,157.4,94.2,156.8z"/>
	<path class="st0" d="M149.2,140.1c-0.1,0.8-0.2,1.4-0.3,1.9c-0.1,0.4-0.3,0.9-0.6,1.2c-0.3,0.4-0.7,0.7-1.1,1.1
		c-0.5,0.4-1.2,0.9-2,1.6c-0.9,0.7-1.9,1.6-3.2,2.7c-1.3,1.1-2.8,2.6-4.6,4.4c-0.7,0.7-1.5,1.4-2.2,2.1c-0.8,0.7-1.6,1.4-2.4,1.9
		c-0.8,0.6-1.7,1-2.6,1.4c-0.9,0.4-1.8,0.5-2.8,0.5c-1.9,0-3.3-0.7-4.2-2c-0.9-1.3-1.3-2.8-1.3-4.5c0-1.1,0-2.1,0.1-2.8
		c0.1-0.8,0.2-1.8,0.5-3c-0.5-0.4-0.9-0.8-1.3-1.2c-0.4-0.3-0.5-0.8-0.5-1.4c0-0.5,0.1-0.9,0.4-1.1c0.2-0.2,0.5-0.3,0.9-0.4
		c0.3-0.1,0.7-0.1,1-0.2c0.3-0.1,0.5-0.3,0.7-0.5c0.1-0.3,0.3-0.8,0.5-1.5c0.2-0.7,0.5-1.5,0.8-2.3c0.3-0.8,0.5-1.5,0.8-2.2
		c0.2-0.7,0.4-1.2,0.5-1.4c0.3-0.8,0.7-1.5,1-2.3c0.4-0.8,0.8-1.5,1.3-2.1c0.5-0.6,1.1-1.1,1.8-1.5c0.7-0.4,1.5-0.6,2.5-0.6
		c0.5,0,1.2,0.2,2,0.7c0.8,0.5,1.5,1.1,2.3,1.8c0.7,0.7,1.3,1.4,1.8,2.2c0.5,0.8,0.7,1.4,0.7,2c0,0.7-0.2,1.3-0.5,1.9
		c-0.3,0.6-0.7,1.1-1.2,1.5s-1,0.9-1.5,1.3c-0.5,0.4-1,0.8-1.5,1.1c0,0-0.1,0-0.3,0.1c-0.1,0.1-0.2,0.2-0.3,0.2c0,0-0.1,0.1-0.3,0.3
		c-0.2,0.2-0.3,0.3-0.5,0.5c-0.2,0.2-0.3,0.4-0.5,0.5c-0.2,0.2-0.3,0.3-0.3,0.3c-0.1,0.1-0.4,0.3-0.8,0.6c-0.4,0.3-0.8,0.6-1.2,0.9
		c-0.4,0.3-0.9,0.7-1.2,0.9c-0.4,0.3-0.6,0.5-0.8,0.6l-0.3,0.5c-0.1,0.2-0.2,0.6-0.2,1.2c-0.1,0.6-0.1,1.3-0.2,2.1
		c-0.1,0.8-0.2,1.5-0.2,2.3c-0.1,0.8-0.1,1.4-0.1,1.9c0,0,0,0.1,0.1,0.1c0.1,0.1,0.2,0.1,0.2,0.1c0.4,0,0.7-0.2,1-0.5
		c0.3-0.3,0.7-0.5,1-0.7l10.8-10l2.8-4.2c0.2-0.3,0.7-0.7,1.3-1c0.6-0.4,1.3-0.6,2-0.6c0.7,0,1.3,0.2,1.8,0.6
		C148.9,137.9,149.2,138.8,149.2,140.1z M134.4,134.8c0.2-0.2,0.3-0.4,0.3-0.8c0-0.4-0.2-0.7-0.4-0.9c-0.2-0.3-0.5-0.4-0.8-0.5
		c-0.3-0.1-0.6,0.1-0.9,0.5c-0.1,0.2-0.4,0.5-0.7,1.1c-0.3,0.5-0.7,1.1-1,1.6c-0.3,0.6-0.6,1-0.8,1.4c-0.2,0.4-0.3,0.6-0.1,0.5
		L134.4,134.8z"/>
	<path class="st0" d="M154,156.3c-0.1-1.6-0.2-3.8-0.4-6.5c-0.2-2.7-0.4-5.5-0.7-8.4c-0.2-2.9-0.5-5.7-0.8-8.3
		c-0.3-2.6-0.5-4.6-0.7-6.1c0-0.6,0.3-1,0.8-1.1c0.5-0.2,1.1-0.3,1.5-0.3c0.6,0,1.3,0.2,2,0.5c0.7,0.4,1.1,0.9,1.3,1.5
		c0,0.2,0,0.5,0.1,1c0,0.5,0.1,1,0.1,1.4c0,0.5,0.1,1,0.1,1.4c0,0.5,0.1,0.8,0.1,1c0,0.3,0,0.5,0,0.6s0,0.3,0,0.4
		c0,0.1,0,0.2,0.1,0.4c0,0.1,0.1,0.4,0.2,0.7c0.1-0.1,0.2-0.2,0.3-0.3c0.1-0.1,0.2-0.2,0.2-0.3c0.7-1,1.4-1.9,2.1-2.7
		c0.7-0.8,1.4-1.5,2.1-2.2c0.7-0.7,1.5-1.4,2.4-2.2c0.9-0.8,1.9-1.7,3.1-2.7c0.3-0.2,0.5-0.4,0.6-0.5c0.1-0.1,0.3-0.2,0.4-0.3
		c0.1-0.1,0.2-0.1,0.4-0.1c0.1,0,0.3,0,0.5,0c0.8,0,1.5,0.3,2.3,0.8c0.8,0.5,1.2,1.2,1.2,2.1c0,0.3-0.1,0.6-0.3,1
		c-0.2,0.3-0.5,0.7-0.8,0.9c-0.3,0.3-0.6,0.6-1,0.8c-0.3,0.2-0.6,0.4-0.9,0.5c-1.2,1-2.4,2.2-3.7,3.5c-1.3,1.3-2.5,2.7-3.6,4.3
		c-1.1,1.5-2,3.1-2.8,4.8c-0.7,1.7-1.1,3.3-1.1,5c0,1.5,0.1,3,0.3,4.5c0.2,1.5,0.3,3,0.3,4.5v2.4c-0.4,0.4-0.7,0.7-0.9,0.9
		c-0.3,0.2-0.7,0.3-1.1,0.3c-0.8,0-1.5-0.3-2.2-1C154.7,157.6,154.2,157,154,156.3z"/>
	<path class="st0" d="M182,149.6l-7.4-18c0,0-0.1-0.1-0.1-0.1v-0.3c0-0.4,0.1-0.8,0.4-1c0.2-0.3,0.5-0.5,0.9-0.8c0.1,0,0.3,0,0.5,0
		c0.3,0,0.4,0,0.5,0c0.9,0,1.5,0.1,1.9,0.4c0.4,0.3,0.9,0.6,1.5,1.1c0.2,0.7,0.4,1.4,0.7,2.1c0.3,0.7,0.6,1.6,1.1,2.7
		c0.4,1.1,1,2.5,1.6,4.1c0.7,1.7,1.5,3.8,2.6,6.3l0.3,0.3c0.1-0.2,0.3-0.5,0.4-0.9c0.1-0.4,0.3-1,0.6-1.9c0.3-0.9,0.7-2.2,1.2-3.9
		c0.5-1.7,1.3-4,2.3-6.9c0.4-0.6,0.6-1.3,0.7-2c0.1-0.8,0.3-1.5,0.5-2.2c0.2-0.7,0.5-1.2,0.8-1.7c0.4-0.4,1-0.7,1.8-0.7
		c0.8,0,1.5,0.3,2.2,0.9c0.7,0.6,1.1,1.3,1.1,2.2c0,0.4-0.1,0.8-0.4,1.3c-0.3,0.5-0.5,0.9-0.8,1.2l-8.2,27.3h-0.4
		c-0.2,0-0.4,0-0.8-0.1c-0.3,0-0.7-0.1-1-0.2c-0.4-0.1-0.7-0.2-0.9-0.4c-0.3-0.1-0.4-0.3-0.5-0.5l-3.2-8.2V149.6z"/>
	<path class="st0" d="M229.3,140.1c-0.1,0.8-0.2,1.4-0.3,1.9c-0.1,0.4-0.3,0.9-0.6,1.2c-0.3,0.4-0.7,0.7-1.1,1.1
		c-0.5,0.4-1.2,0.9-2,1.6c-0.9,0.7-1.9,1.6-3.2,2.7c-1.3,1.1-2.8,2.6-4.6,4.4c-0.7,0.7-1.5,1.4-2.2,2.1c-0.8,0.7-1.6,1.4-2.4,1.9
		c-0.8,0.6-1.7,1-2.6,1.4c-0.9,0.4-1.8,0.5-2.8,0.5c-1.9,0-3.3-0.7-4.2-2c-0.9-1.3-1.3-2.8-1.3-4.5c0-1.1,0-2.1,0.1-2.8
		c0.1-0.8,0.2-1.8,0.5-3c-0.5-0.4-0.9-0.8-1.3-1.2c-0.4-0.3-0.5-0.8-0.5-1.4c0-0.5,0.1-0.9,0.4-1.1c0.2-0.2,0.5-0.3,0.9-0.4
		c0.3-0.1,0.7-0.1,1-0.2c0.3-0.1,0.5-0.3,0.7-0.5c0.1-0.3,0.3-0.8,0.5-1.5c0.2-0.7,0.5-1.5,0.8-2.3c0.3-0.8,0.5-1.5,0.8-2.2
		c0.2-0.7,0.4-1.2,0.5-1.4c0.3-0.8,0.7-1.5,1-2.3c0.4-0.8,0.8-1.5,1.3-2.1c0.5-0.6,1.1-1.1,1.8-1.5c0.7-0.4,1.5-0.6,2.5-0.6
		c0.5,0,1.2,0.2,2,0.7c0.8,0.5,1.5,1.1,2.3,1.8c0.7,0.7,1.3,1.4,1.8,2.2c0.5,0.8,0.7,1.4,0.7,2c0,0.7-0.2,1.3-0.5,1.9
		c-0.3,0.6-0.7,1.1-1.2,1.5s-1,0.9-1.5,1.3c-0.5,0.4-1,0.8-1.5,1.1c0,0-0.1,0-0.3,0.1c-0.1,0.1-0.2,0.2-0.3,0.2c0,0-0.1,0.1-0.3,0.3
		c-0.2,0.2-0.3,0.3-0.5,0.5c-0.2,0.2-0.3,0.4-0.5,0.5c-0.2,0.2-0.3,0.3-0.3,0.3c-0.1,0.1-0.4,0.3-0.8,0.6c-0.4,0.3-0.8,0.6-1.2,0.9
		c-0.4,0.3-0.9,0.7-1.2,0.9c-0.4,0.3-0.6,0.5-0.8,0.6l-0.3,0.5c-0.1,0.2-0.2,0.6-0.2,1.2c-0.1,0.6-0.1,1.3-0.2,2.1
		c-0.1,0.8-0.2,1.5-0.2,2.3c-0.1,0.8-0.1,1.4-0.1,1.9c0,0,0,0.1,0.1,0.1c0.1,0.1,0.2,0.1,0.2,0.1c0.4,0,0.7-0.2,1-0.5
		c0.3-0.3,0.7-0.5,1-0.7l10.8-10l2.8-4.2c0.2-0.3,0.7-0.7,1.3-1c0.6-0.4,1.3-0.6,2-0.6c0.7,0,1.3,0.2,1.8,0.6
		C229,137.9,229.3,138.8,229.3,140.1z M214.5,134.8c0.2-0.2,0.3-0.4,0.3-0.8c0-0.4-0.2-0.7-0.4-0.9c-0.2-0.3-0.5-0.4-0.8-0.5
		c-0.3-0.1-0.6,0.1-0.9,0.5c-0.1,0.2-0.4,0.5-0.7,1.1c-0.3,0.5-0.7,1.1-1,1.6c-0.3,0.6-0.6,1-0.8,1.4c-0.2,0.4-0.3,0.6-0.1,0.5
		L214.5,134.8z"/>
	<path class="st0" d="M234.1,156.3c-0.1-1.6-0.2-3.8-0.4-6.5c-0.2-2.7-0.4-5.5-0.7-8.4c-0.2-2.9-0.5-5.7-0.8-8.3
		c-0.3-2.6-0.5-4.6-0.7-6.1c0-0.6,0.3-1,0.8-1.1c0.5-0.2,1.1-0.3,1.5-0.3c0.6,0,1.3,0.2,2,0.5c0.7,0.4,1.1,0.9,1.3,1.5
		c0,0.2,0,0.5,0.1,1c0,0.5,0.1,1,0.1,1.4c0,0.5,0.1,1,0.1,1.4c0,0.5,0.1,0.8,0.1,1c0,0.3,0,0.5,0,0.6s0,0.3,0,0.4
		c0,0.1,0,0.2,0.1,0.4c0,0.1,0.1,0.4,0.2,0.7c0.1-0.1,0.2-0.2,0.3-0.3c0.1-0.1,0.2-0.2,0.2-0.3c0.7-1,1.4-1.9,2.1-2.7
		c0.7-0.8,1.4-1.5,2.1-2.2c0.7-0.7,1.5-1.4,2.4-2.2c0.9-0.8,1.9-1.7,3.1-2.7c0.3-0.2,0.5-0.4,0.6-0.5c0.1-0.1,0.3-0.2,0.4-0.3
		c0.1-0.1,0.2-0.1,0.4-0.1c0.1,0,0.3,0,0.5,0c0.8,0,1.5,0.3,2.3,0.8c0.8,0.5,1.2,1.2,1.2,2.1c0,0.3-0.1,0.6-0.3,1
		c-0.2,0.3-0.5,0.7-0.8,0.9c-0.3,0.3-0.6,0.6-1,0.8c-0.3,0.2-0.6,0.4-0.9,0.5c-1.2,1-2.4,2.2-3.7,3.5c-1.3,1.3-2.5,2.7-3.6,4.3
		c-1.1,1.5-2,3.1-2.8,4.8c-0.7,1.7-1.1,3.3-1.1,5c0,1.5,0.1,3,0.3,4.5c0.2,1.5,0.3,3,0.3,4.5v2.4c-0.4,0.4-0.7,0.7-0.9,0.9
		c-0.3,0.2-0.7,0.3-1.1,0.3c-0.8,0-1.5-0.3-2.2-1C234.8,157.6,234.4,157,234.1,156.3z"/>
	<path class="st0" d="M283.7,126.3c0.1-2.7,0-5.4-0.3-8.1c-0.3-2.7-0.5-5.4-0.5-8c0-0.9,0.2-1.4,0.7-1.6c0.5-0.2,1.1-0.3,1.7-0.3
		c0.9,0,1.6,0.2,2.2,0.7c0.6,0.5,0.9,1.2,1,2.1c0.4,4.9,0.6,9.7,0.7,14.5c0.1,4.8,0.4,9.6,1,14.5c1.3-2.6,2.7-4.7,4.2-6.3
		c1.4-1.7,2.8-2.8,4.1-3.3c1.3-0.5,2.5-0.4,3.6,0.3c1.1,0.7,2,2.2,2.7,4.4c0.7,2.2,1.1,5.1,1.2,8.9c0.1,3.7-0.1,8.4-0.7,14
		c-0.3,0-0.7,0-1.1,0c-0.4,0-0.9,0-1.3,0c-0.4,0-0.8-0.1-1.1-0.3c-0.3-0.1-0.5-0.4-0.5-0.7c0.4-3.4,0.6-6.2,0.6-8.5
		c0-2.3,0-4.2-0.2-5.7c-0.2-1.5-0.4-2.6-0.7-3.4c-0.3-0.8-0.7-1.4-1-1.7c-0.4-0.4-0.7-0.5-1-0.6c-0.3,0-0.6,0-0.8,0
		c-1,0.4-1.9,1.2-2.8,2.6c-0.9,1.4-1.6,3-2.3,4.8c-0.6,1.8-1.1,3.8-1.4,5.8c-0.3,2-0.4,3.9-0.2,5.5c0,0.4-0.1,0.7-0.1,1.1
		c0,0.4-0.1,0.7-0.2,1c-0.1,0.3-0.3,0.6-0.5,0.8c-0.2,0.2-0.6,0.3-1.1,0.3c-0.9,0-1.7-0.2-2.3-0.5c-0.6-0.3-1-0.8-1.3-1.3
		c-0.3-0.5-0.5-1.2-0.5-1.9c-0.1-0.7-0.1-1.5,0-2.2L283.7,126.3z"/>
	<path class="st0" d="M309.1,148.9l2.5-17.3c0.1-0.6,0.3-1,0.8-1.3c0.4-0.3,0.9-0.4,1.4-0.4c1,0,1.8,0.3,2.4,0.8
		c0.6,0.6,1.1,1.2,1.5,2.1h0.1c0.5,0,1-0.1,1.4-0.3c0.4-0.2,1-0.3,1.6-0.3c1.4,0,2.7,0.4,3.7,1.3c1,0.9,1.8,2,2.5,3.3
		c0.6,1.3,1.1,2.7,1.4,4.1c0.3,1.5,0.4,2.8,0.4,3.9c0,1.3-0.3,2.9-1,4.5c-0.7,1.7-1.6,3.2-2.8,4.7c-1.1,1.5-2.4,2.7-3.9,3.7
		c-1.4,1-2.9,1.5-4.4,1.5c-1.3,0-2.5-0.3-3.5-0.9c-1-0.6-1.8-1.4-2.4-2.4c-0.6-1-1-2.1-1.3-3.3c-0.3-1.2-0.4-2.4-0.4-3.6V148.9z
		 M314.7,149.3c0.1,0.4,0.2,1,0.3,1.5c0.1,0.6,0.2,1.1,0.4,1.6c0.2,0.5,0.4,0.8,0.8,1.1c0.3,0.2,0.8,0.3,1.4,0
		c0.6-0.5,1.2-1.1,1.9-1.8c0.7-0.7,1.3-1.4,1.9-2.2c0.6-0.8,1.1-1.6,1.5-2.4c0.4-0.9,0.6-1.8,0.6-2.7c0.2-1.5,0.1-2.9-0.3-4.2
		c-0.4-1.3-1-2.2-1.7-2.8c-0.7-0.6-1.6-0.6-2.5-0.2c-0.9,0.4-1.9,1.6-2.8,3.5c-0.5,1.2-0.9,2.5-1.1,4.1c-0.2,1.5-0.3,3-0.3,4.3
		V149.3z"/>
	<path class="st0" d="M341.8,156.6c0-0.2,0-0.4,0-0.6c0-0.2,0.1-0.4,0.3-0.5c0.5-0.7,1.1-1.4,1.8-2.1c0.7-0.7,1.3-1.5,2-2.2
		c0.6-0.7,1.2-1.5,1.8-2.3c0.5-0.8,1-1.6,1.3-2.4V146l-8.8,1.8h-1c-0.6,0-1.4,0-2.3-0.1c-0.9-0.1-1.8-0.3-2.7-0.6
		c-0.9-0.3-1.6-0.7-2.2-1.2c-0.6-0.5-0.9-1.3-0.9-2.2c0-1,0.6-2.2,1.6-3.4c1-1.3,2.2-2.5,3.6-3.7c1.4-1.2,2.8-2.3,4.2-3.4
		c1.4-1,2.5-1.8,3.4-2.4c0.9-0.5,2.1-1,3.4-1.3c1.3-0.3,2.5-0.5,3.6-0.5c0.9,0,1.7,0.2,2.4,0.5c0.7,0.3,1,1,1,2c0,0.4,0,0.8-0.1,1.1
		c-0.1,0.4-0.3,0.6-0.8,0.7c-1.4-0.1-2.8,0-4,0.3c-1.3,0.3-2.4,0.8-3.6,1.5c-1.1,0.7-2.2,1.5-3.2,2.4c-1,0.9-2,1.9-2.9,2.9
		c-0.3,0.3-0.6,0.8-1,1.3c-0.4,0.6-0.6,0.9-0.6,1v0.1c1.2,0,2.3-0.1,3.5-0.3c1.1-0.2,2.3-0.5,3.4-0.7c1.1-0.2,2.3-0.5,3.4-0.7
		c1.1-0.2,2.3-0.3,3.5-0.3c0.4,0,0.9,0,1.5,0.1c0.5,0.1,1,0.2,1.5,0.4c0.5,0.2,0.9,0.5,1.1,0.9c0.3,0.4,0.4,0.9,0.4,1.4
		c0,0.9-0.2,1.7-0.6,2.5c-0.4,0.8-1.1,1.7-1.9,2.8c-0.8,1.1-1.9,2.4-3.2,4c-1.3,1.6-2.8,3.6-4.5,6.1c-0.1,0.1-0.3,0.2-0.6,0.3
		c-0.3,0-0.6,0.1-0.8,0.1c-0.6,0-1.3-0.3-1.9-0.8C342.1,157.9,341.8,157.3,341.8,156.6z"/>
	<path class="st0" d="M365.8,139.5c-0.6,0-1.2,0.2-1.7,0.5c-0.5,0.3-1.1,0.5-1.8,0.5c-0.1,0-0.3,0-0.7,0c-0.4,0-0.6,0-0.7,0
		c-0.2-0.2-0.4-0.4-0.6-0.5c-0.2-0.1-0.4-0.3-0.7-0.4c-0.2-0.2-0.4-0.3-0.6-0.6c-0.2-0.2-0.2-0.5-0.2-0.9c0-0.7,0.3-1.2,0.8-1.6
		c0.5-0.4,1.2-0.8,1.9-1.1c0.7-0.3,1.4-0.6,2.2-0.9c0.7-0.3,1.3-0.6,1.8-0.9v-3c0-3.3-0.2-6.7-0.5-10c-0.3-3.3-0.5-6.7-0.5-9.9
		c0-0.9,0.2-1.5,0.7-1.8c0.4-0.3,1.1-0.4,1.8-0.4c0.9,0,1.6,0.3,2,0.8c0.4,0.5,0.7,1.1,0.9,1.9c0.2,0.7,0.3,1.5,0.3,2.4
		c0,0.8,0,1.5,0.1,2.1c0,0.6,0,1.6,0.1,3.1c0.1,1.5,0.2,3.1,0.3,4.7c0.1,1.7,0.2,3.2,0.3,4.7c0.1,1.5,0.2,2.5,0.2,3.1
		c0.2,0,0.5-0.2,1-0.4c0.5-0.2,1.1-0.4,1.6-0.6c0.6-0.2,1.1-0.4,1.6-0.6c0.5-0.2,0.9-0.3,1.1-0.4c1.2-0.5,2.4-1,3.6-1.6
		c1.3-0.6,2.5-0.9,3.8-0.9c0.9,0,1.6,0.3,2.1,0.9c0.5,0.6,0.7,1.3,0.7,2.1c0,0.6-0.2,1-0.7,1.3c-0.4,0.3-0.9,0.5-1.4,0.7l-12.3,4.6
		c-0.1,0.1-0.3,0.2-0.4,0.2c-0.1,0.1-0.3,0.2-0.4,0.3v2.2c0,1.6,0,3.2,0.1,4.9c0.1,1.7,0.2,3.3,0.4,4.9c0.2,1.3,0.5,2.7,0.7,4
		c0.3,1.3,0.4,2.6,0.4,4c0,0.4-0.1,0.9-0.4,1.6c-0.3,0.7-0.7,1-1.3,1c-1.2,0-2.2-0.4-3-1.1c-0.8-0.7-1.2-1.7-1.3-2.9
		c-0.2-2.3-0.5-4.9-0.7-7.7c-0.2-2.8-0.5-5.5-0.7-8H365.8z"/>
	<path class="st0" d="M388.4,107.6c0-0.3,0.3-0.6,0.8-0.8c0.5-0.2,0.9-0.4,1.2-0.4c0.7,0,1.4,0.2,2.3,0.6c0.8,0.4,1.2,1,1.2,1.7
		c0,0.8-0.1,1.3-0.3,1.5c-0.2,0.3-0.7,0.4-1.4,0.4c-0.8,0-1.6-0.3-2.5-0.8C388.8,109.2,388.4,108.5,388.4,107.6z M392.2,156.6
		c-0.4-4.5-0.8-8.3-1.1-11.5c-0.3-3.2-0.6-5.9-0.8-8c-0.2-2.2-0.4-3.9-0.6-5.2c-0.2-1.3-0.3-2.2-0.4-2.9c-0.1-0.6-0.2-1.1-0.2-1.3
		c0-0.2-0.1-0.4-0.1-0.4v-0.3c0-0.5,0.2-0.9,0.6-1.2c0.4-0.3,0.9-0.5,1.3-0.5c0.7,0,1.4,0.1,2.2,0.3c0.8,0.2,1.3,0.7,1.6,1.4
		c0.4,2.2,0.7,4.4,0.8,6.7c0.2,2.2,0.3,4.5,0.4,6.7c0.1,2.2,0.3,4.5,0.5,6.7c0.2,2.2,0.6,4.5,1.1,6.7c0,0.1,0,0.3,0.1,0.5
		s0.1,0.6,0.2,0.9c0.1,0.3,0.1,0.6,0.2,0.9c0,0.3,0.1,0.4,0.1,0.5v0.1c0,0,0,0.1,0.1,0.1c0,0.5-0.2,1.1-0.7,1.6
		c-0.5,0.5-1,0.8-1.5,0.7c-0.1,0-0.5-0.1-1-0.2c-0.5-0.1-0.9-0.2-1-0.3c-0.1,0-0.3-0.1-0.5-0.3c-0.2-0.2-0.4-0.3-0.6-0.5
		c-0.2-0.2-0.4-0.4-0.5-0.6C392.1,157,392.1,156.8,392.2,156.6z"/>
	<path class="st0" d="M419.9,156.9c-0.6-0.9-1.2-2.1-1.6-3.7c-0.4-1.6-0.8-3.3-1.2-5c-0.4-1.8-0.7-3.5-1-5.2c-0.3-1.7-0.6-3-1-4
		c-0.3-1-0.7-1.6-1.1-1.7c-0.4-0.1-0.9,0.5-1.4,1.8l-5.9,18c-0.2,0.6-0.5,1.1-0.8,1.3c-0.3,0.2-0.8,0.4-1.5,0.4
		c-0.4,0-0.7-0.1-1.1-0.2c-0.4-0.1-0.8-0.3-1.1-0.5c-0.4-0.2-0.7-0.5-0.9-0.8c-0.2-0.3-0.4-0.7-0.4-1.1c0.1-0.5,0.3-1.5,0.4-3
		c0.1-1.4,0.2-3.1,0.2-5c0-1.9,0.1-3.9,0.1-6c0-2.1,0-4,0-5.9c0-1.8-0.1-3.4-0.1-4.7c0-1.3-0.1-2.2-0.1-2.6c0-0.4,0-0.9,0-1.4
		c0-0.5,0.1-0.9,0.2-1.3c0.1-0.4,0.3-0.7,0.6-1c0.3-0.2,0.8-0.4,1.4-0.4c0.9,0,1.6,0.4,2.4,1.1c0.7,0.7,1.1,1.5,1.1,2.3
		c0,1.2-0.1,2.3-0.2,3.5c-0.1,1.1-0.2,2.3-0.2,3.5c0,0.7,0,1.3,0,1.8c0,0.5,0.1,1.1,0.3,1.8c0.1-0.4,0.4-1,0.7-1.9
		c0.3-0.9,0.7-1.8,1-2.8c0.4-1,0.7-1.9,1-2.8c0.3-0.9,0.5-1.5,0.7-1.9c0.3-0.9,0.8-1.8,1.4-2.6c0.6-0.8,1.5-1.3,2.5-1.4
		c0.7,0,1.3,0.1,1.9,0.5c0.6,0.4,1,0.9,1.4,1.6c0.4,0.7,0.7,1.3,1,2c0.3,0.7,0.5,1.3,0.6,1.8l3.6,16.8l2.8,7.7c0,0,0.1,0.2,0.1,0.4
		c0,0.2,0,0.3,0,0.4c0,0.5-0.1,1.1-0.4,1.6c-0.2,0.5-0.7,0.8-1.3,0.8c-0.8,0-1.5-0.2-2.4-0.6C420.7,158.1,420.2,157.6,419.9,156.9z"
		/>
	<path class="st0" d="M431.9,182.7c-0.2-0.5-0.2-1.1,0-1.7c0.2-0.6,0.6-1,1.2-1.2c1,0.4,2.1,0.7,3.2,0.9c1.1,0.1,2.3,0.2,3.4,0.1
		c1.1-0.1,2.3-0.3,3.4-0.5c1.1-0.3,2.2-0.6,3.2-0.9c1-0.9,1.8-2,2.2-3.3c0.4-1.4,0.6-3.2,0.5-5.6c-0.1-2.4-0.4-5.3-0.9-8.8
		c-0.5-3.5-1.2-7.8-2-13c0-0.1,0-0.3,0-0.6c0-0.3,0-0.5,0-0.8c0-0.2-0.1-0.4-0.2-0.6c-0.1-0.1-0.3-0.1-0.4,0
		c-0.6,1.1-1.3,2.3-2.1,3.7c-0.8,1.3-1.7,2.6-2.7,3.7c-1,1.1-2.1,2.1-3.4,2.9c-1.2,0.8-2.6,1.1-4.1,1.1c-1.3,0-2.5-0.4-3.5-1.2
		c-1-0.8-1.5-1.9-1.5-3.4c0-1.1,0.2-2.5,0.7-4.2c0.5-1.7,1.1-3.5,1.9-5.4c0.8-1.9,1.8-3.8,2.8-5.7c1.1-1.9,2.2-3.6,3.4-5.1
		c1.2-1.5,2.4-2.8,3.6-3.7c1.2-1,2.4-1.4,3.5-1.4c0.4,0,1,0.1,1.8,0.2c0.7,0.2,1.5,0.4,2.2,0.7c0.7,0.3,1.3,0.7,1.8,1.1
		c0.5,0.4,0.8,0.9,0.8,1.4v5.5l4.4,31.8c0,1.8,0,3.5-0.1,5.2c-0.1,1.6-0.4,3.2-0.9,4.5c-0.5,1.4-1.3,2.6-2.5,3.7
		c-1.1,1.1-2.7,2-4.8,2.6c-0.3,0.1-0.8,0.2-1.7,0.3c-0.9,0.1-1.8,0.2-2.9,0.2c-1.1,0-2.3,0-3.5,0c-1.2,0-2.4-0.1-3.4-0.3
		c-1-0.2-1.8-0.4-2.5-0.7C432.1,183.7,431.8,183.2,431.9,182.7z M442.4,133.8c-0.4,0.5-1,1.3-1.8,2.4c-0.7,1.1-1.5,2.3-2.3,3.6
		c-0.8,1.3-1.5,2.7-2.3,4.1c-0.7,1.4-1.3,2.7-1.8,3.9c-0.4,1.2-0.7,2.2-0.8,3.1c-0.1,0.9,0.1,1.4,0.6,1.5c0.9-0.5,2-1.3,3-2.5
		c1.1-1.1,2.1-2.4,3.1-3.8c1-1.4,1.8-2.9,2.6-4.4c0.7-1.5,1.3-2.9,1.5-4.1c0.3-1.2,0.3-2.2,0.1-2.9
		C444,133.9,443.4,133.6,442.4,133.8z"/>
</g>
</svg>
