<svg width="551" height="189" viewBox="0 0 551 189" fill="none" xmlns="http://www.w3.org/2000/svg">
<path d="M23.1588 173.423C18.2169 173.423 14.0488 172.649 10.6543 171.101C7.25991 169.504 4.68913 167.358 2.94199 164.662C1.19486 161.917 0.321289 158.772 0.321289 155.228H12.2268C12.2268 156.625 12.6011 157.923 13.3499 159.121C14.1486 160.319 15.3466 161.293 16.944 162.041C18.5414 162.74 20.613 163.09 23.1588 163.09C25.4551 163.09 27.3769 162.79 28.9244 162.191C30.4718 161.592 31.6449 160.768 32.4436 159.72C33.2423 158.622 33.6416 157.374 33.6416 155.976C33.6416 154.229 32.8929 152.856 31.3953 151.858C29.8978 150.81 27.4768 150.136 24.1322 149.836L20.014 149.462C14.5729 149.013 10.23 147.315 6.98536 144.37C3.74068 141.425 2.11834 137.532 2.11834 132.689C2.11834 129.195 2.94199 126.175 4.58929 123.629C6.28651 121.084 8.63266 119.137 11.6277 117.789C14.6228 116.391 18.167 115.692 22.2603 115.692C26.5533 115.692 30.2222 116.441 33.2673 117.939C36.3622 119.386 38.7333 121.458 40.3806 124.153C42.0279 126.799 42.8515 129.919 42.8515 133.513H30.8712C30.8712 132.165 30.5467 130.942 29.8978 129.844C29.2488 128.696 28.2754 127.773 26.9776 127.074C25.7296 126.375 24.1572 126.025 22.2603 126.025C20.4633 126.025 18.9408 126.325 17.6928 126.924C16.4948 127.523 15.5962 128.347 14.9972 129.395C14.3982 130.393 14.0987 131.491 14.0987 132.689C14.0987 134.237 14.6478 135.585 15.746 136.733C16.8442 137.881 18.6412 138.555 21.1371 138.755L25.3303 139.129C29.3237 139.478 32.843 140.352 35.888 141.75C38.933 143.097 41.3041 144.969 43.0013 147.365C44.7484 149.712 45.622 152.582 45.622 155.976C45.622 159.471 44.6985 162.541 42.8515 165.186C41.0545 167.782 38.4837 169.804 35.1392 171.251C31.7947 172.699 27.8012 173.423 23.1588 173.423Z" fill="#EC7C18"/>
<path d="M70.7053 173.423C67.211 173.423 64.1161 172.824 61.4205 171.626C58.7748 170.428 56.5535 168.83 54.7564 166.833C53.0093 164.787 51.6615 162.516 50.7131 160.02C49.8145 157.474 49.3653 154.878 49.3653 152.232V150.735C49.3653 147.989 49.8145 145.369 50.7131 142.873C51.6615 140.327 53.0093 138.056 54.7564 136.059C56.5036 134.062 58.675 132.49 61.2707 131.342C63.9164 130.144 66.9115 129.545 70.256 129.545C74.6488 129.545 78.3427 130.543 81.3378 132.54C84.3828 134.487 86.704 137.057 88.3014 140.252C89.8988 143.397 90.6975 146.841 90.6975 150.585V154.628H54.382V147.815H83.4344L79.5408 150.96C79.5408 148.514 79.1913 146.417 78.4925 144.67C77.7936 142.923 76.7454 141.6 75.3476 140.701C73.9999 139.753 72.3026 139.279 70.256 139.279C68.1594 139.279 66.3873 139.753 64.9397 140.701C63.4921 141.65 62.3939 143.047 61.6451 144.894C60.8964 146.692 60.522 148.913 60.522 151.559C60.522 154.005 60.8714 156.151 61.5702 157.998C62.2691 159.795 63.3673 161.193 64.8648 162.191C66.3624 163.189 68.3092 163.689 70.7053 163.689C72.9017 163.689 74.6987 163.264 76.0964 162.416C77.4941 161.567 78.4426 160.519 78.9418 159.271H89.9487C89.3497 162.016 88.1766 164.462 86.4295 166.609C84.6823 168.755 82.4859 170.428 79.8403 171.626C77.1946 172.824 74.1496 173.423 70.7053 173.423Z" fill="#EC7C18"/>
<path d="M97.1387 172V130.967H106.648V148.563H106.423C106.423 142.773 107.646 138.305 110.092 135.16C112.588 132.016 116.182 130.443 120.875 130.443H122.447V140.776H119.452C116.157 140.776 113.612 141.675 111.815 143.472C110.018 145.219 109.119 147.765 109.119 151.109V172H97.1387Z" fill="#EC7C18"/>
<path d="M136.264 172L123.984 130.967H136.339L147.87 172H136.264ZM140.008 172V162.041H152.063V172H140.008ZM144.425 172L154.384 130.967H165.915L155.283 172H144.425Z" fill="#EC7C18"/>
<path d="M189.351 173.423C185.856 173.423 182.761 172.824 180.066 171.626C177.42 170.428 175.199 168.83 173.402 166.833C171.655 164.787 170.307 162.516 169.358 160.02C168.46 157.474 168.011 154.878 168.011 152.232V150.735C168.011 147.989 168.46 145.369 169.358 142.873C170.307 140.327 171.655 138.056 173.402 136.059C175.149 134.062 177.32 132.49 179.916 131.342C182.562 130.144 185.557 129.545 188.901 129.545C193.294 129.545 196.988 130.543 199.983 132.54C203.028 134.487 205.349 137.057 206.947 140.252C208.544 143.397 209.343 146.841 209.343 150.585V154.628H173.027V147.815H202.08L198.186 150.96C198.186 148.514 197.837 146.417 197.138 144.67C196.439 142.923 195.391 141.6 193.993 140.701C192.645 139.753 190.948 139.279 188.901 139.279C186.805 139.279 185.033 139.753 183.585 140.701C182.137 141.65 181.039 143.047 180.29 144.894C179.542 146.692 179.167 148.913 179.167 151.559C179.167 154.005 179.517 156.151 180.215 157.998C180.914 159.795 182.013 161.193 183.51 162.191C185.008 163.189 186.954 163.689 189.351 163.689C191.547 163.689 193.344 163.264 194.742 162.416C196.139 161.567 197.088 160.519 197.587 159.271H208.594C207.995 162.016 206.822 164.462 205.075 166.609C203.328 168.755 201.131 170.428 198.486 171.626C195.84 172.824 192.795 173.423 189.351 173.423Z" fill="#EC7C18"/>
<path d="M215.784 172V130.967H225.293V148.563H225.069C225.069 142.773 226.292 138.305 228.738 135.16C231.234 132.016 234.828 130.443 239.52 130.443H241.092V140.776H238.097C234.803 140.776 232.257 141.675 230.46 143.472C228.663 145.219 227.764 147.765 227.764 151.109V172H215.784Z" fill="#EC7C18"/>
<path d="M296.042 172V117.34H308.322V172H296.042ZM260.7 172V117.34H272.98V172H260.7ZM270.808 149.911V139.129H298.213V149.911H270.808Z" fill="#EC7C18"/>
<path d="M338.408 173.423C334.813 173.423 331.619 172.874 328.823 171.775C326.028 170.627 323.657 169.08 321.71 167.133C319.813 165.186 318.365 162.965 317.367 160.469C316.369 157.923 315.87 155.252 315.87 152.457V150.735C315.87 147.89 316.369 145.194 317.367 142.648C318.415 140.052 319.913 137.781 321.86 135.834C323.856 133.888 326.253 132.365 329.048 131.267C331.843 130.119 334.963 129.545 338.408 129.545C341.952 129.545 345.097 130.119 347.842 131.267C350.638 132.365 353.009 133.888 354.955 135.834C356.902 137.781 358.4 140.052 359.448 142.648C360.496 145.194 361.021 147.89 361.021 150.735V152.457C361.021 155.252 360.521 157.923 359.523 160.469C358.525 162.965 357.052 165.186 355.105 167.133C353.208 169.08 350.862 170.627 348.067 171.775C345.271 172.874 342.052 173.423 338.408 173.423ZM338.408 163.314C340.754 163.314 342.701 162.815 344.248 161.817C345.795 160.818 346.969 159.421 347.767 157.624C348.616 155.827 349.04 153.83 349.04 151.633C349.04 149.287 348.616 147.241 347.767 145.493C346.919 143.696 345.696 142.274 344.098 141.225C342.551 140.177 340.654 139.653 338.408 139.653C336.211 139.653 334.314 140.177 332.717 141.225C331.12 142.274 329.897 143.696 329.048 145.493C328.249 147.241 327.85 149.287 327.85 151.633C327.85 153.83 328.249 155.827 329.048 157.624C329.847 159.421 331.045 160.818 332.642 161.817C334.239 162.815 336.161 163.314 338.408 163.314Z" fill="#EC7C18"/>
<path d="M383.458 173.273C377.618 173.273 373.051 172.075 369.756 169.679C366.461 167.283 364.714 163.913 364.515 159.57H375.147C375.347 160.868 376.121 162.041 377.468 163.09C378.866 164.088 380.938 164.587 383.683 164.587C385.78 164.587 387.502 164.238 388.85 163.539C390.247 162.79 390.946 161.742 390.946 160.394C390.946 159.196 390.422 158.248 389.374 157.549C388.325 156.8 386.454 156.276 383.758 155.976L380.538 155.677C375.596 155.178 371.877 153.805 369.382 151.559C366.936 149.312 365.713 146.442 365.713 142.948C365.713 140.052 366.436 137.631 367.884 135.685C369.332 133.738 371.328 132.265 373.874 131.267C376.47 130.268 379.415 129.769 382.71 129.769C388.001 129.769 392.269 130.942 395.514 133.288C398.758 135.585 400.456 138.929 400.605 143.322H389.973C389.773 141.974 389.074 140.851 387.876 139.953C386.678 139.004 384.906 138.53 382.56 138.53C380.713 138.53 379.24 138.879 378.142 139.578C377.044 140.277 376.495 141.225 376.495 142.424C376.495 143.572 376.969 144.445 377.918 145.044C378.866 145.643 380.413 146.068 382.56 146.317L385.78 146.617C390.821 147.166 394.74 148.563 397.535 150.81C400.331 153.056 401.729 156.076 401.729 159.87C401.729 162.615 400.98 165.011 399.482 167.058C397.985 169.055 395.863 170.602 393.118 171.7C390.372 172.749 387.152 173.273 383.458 173.273Z" fill="#EC7C18"/>
<path d="M426.638 172.524C422.494 172.524 419.15 172.025 416.604 171.027C414.058 169.978 412.186 168.256 410.988 165.86C409.84 163.414 409.266 160.119 409.266 155.976V119.885H420.423V156.426C420.423 158.372 420.922 159.87 421.92 160.918C422.969 161.917 424.441 162.416 426.338 162.416H432.403V172.524H426.638ZM403.051 139.728V130.967H432.403V139.728H403.051Z" fill="#EC7C18"/>
<path d="M440.909 172V130.967H452.889V172H440.909ZM435.443 139.803V130.967H452.889V139.803H435.443ZM445.551 126.924C443.305 126.924 441.632 126.35 440.534 125.202C439.486 124.004 438.962 122.506 438.962 120.709C438.962 118.862 439.486 117.365 440.534 116.216C441.632 115.018 443.305 114.419 445.551 114.419C447.797 114.419 449.445 115.018 450.493 116.216C451.591 117.365 452.14 118.862 452.14 120.709C452.14 122.506 451.591 124.004 450.493 125.202C449.445 126.35 447.797 126.924 445.551 126.924Z" fill="#EC7C18"/>
<path d="M462.472 172V130.967H471.981V148.563H471.308C471.308 144.37 471.832 140.876 472.88 138.081C473.978 135.285 475.626 133.189 477.822 131.791C480.018 130.393 482.689 129.694 485.834 129.694H486.358C491.15 129.694 494.794 131.267 497.29 134.412C499.836 137.507 501.109 142.224 501.109 148.563V172H489.128V147.89C489.128 145.693 488.479 143.896 487.182 142.498C485.884 141.101 484.137 140.402 481.94 140.402C479.694 140.402 477.872 141.126 476.474 142.573C475.126 143.971 474.452 145.818 474.452 148.114V172H462.472Z" fill="#EC7C18"/>
<path d="M525.994 188.323C523.997 188.323 521.95 188.248 519.854 188.099C517.757 187.949 515.835 187.749 514.088 187.5V177.391C515.835 177.641 517.757 177.84 519.854 177.99C522 178.19 523.947 178.29 525.694 178.29C528.939 178.29 531.56 177.915 533.556 177.167C535.603 176.418 537.1 175.27 538.049 173.722C538.997 172.225 539.472 170.278 539.472 167.882V159.72L541.643 154.928C541.543 158.572 540.819 161.692 539.472 164.288C538.174 166.883 536.352 168.88 534.006 170.278C531.659 171.626 528.864 172.3 525.619 172.3C522.824 172.3 520.278 171.8 517.982 170.802C515.735 169.754 513.814 168.306 512.216 166.459C510.619 164.612 509.396 162.466 508.547 160.02C507.699 157.524 507.274 154.828 507.274 151.933V150.211C507.274 147.315 507.724 144.62 508.622 142.124C509.521 139.628 510.819 137.457 512.516 135.61C514.213 133.763 516.235 132.34 518.581 131.342C520.927 130.293 523.523 129.769 526.368 129.769C529.663 129.769 532.508 130.493 534.904 131.941C537.35 133.388 539.272 135.51 540.67 138.305C542.067 141.101 542.816 144.47 542.916 148.414L541.269 148.863V130.967H550.778V167.133C550.778 172.175 549.88 176.243 548.082 179.338C546.285 182.433 543.54 184.704 539.846 186.152C536.202 187.599 531.584 188.323 525.994 188.323ZM529.363 162.191C531.21 162.191 532.882 161.792 534.38 160.993C535.877 160.144 537.051 158.946 537.899 157.399C538.798 155.851 539.247 153.98 539.247 151.783V149.612C539.247 147.465 538.773 145.668 537.824 144.221C536.926 142.723 535.728 141.6 534.23 140.851C532.733 140.052 531.135 139.653 529.438 139.653C527.441 139.653 525.669 140.127 524.122 141.076C522.574 142.024 521.376 143.347 520.528 145.044C519.679 146.741 519.255 148.738 519.255 151.034C519.255 153.381 519.679 155.402 520.528 157.099C521.426 158.747 522.624 160.02 524.122 160.918C525.669 161.767 527.416 162.191 529.363 162.191Z" fill="#EC7C18"/>
<path d="M370.2 98.77L377.09 105L517.72 110.34L513.81 70.47H509L513.99 66.56L517.72 3.74001L368.95 2.84999L365.09 7.3L360.94 0L279.26 2.67L277.48 7.3L276.77 0L150.24 5.52L147.75 0.720001L40.8 0L37.78 62.11L41.16 64.96L38.67 68.87L36 107.13L234.6 103.93L241.54 108.2L244.03 104.64L369.84 104.11L370.2 98.77Z" fill="#020100"/>
<path d="M420.44 16.05H390.58V92.19H420.88C438.75 92.19 456.34 76.31 456.34 56.73V51.95C456.34 32.13 440.27 16.05 420.44 16.05ZM439.93 53.62C439.93 58.56 438.01 63.05 434.89 66.39L439.77 74.68L431.13 69.49C428.26 71.28 424.88 72.32 421.25 72.32C418.74 72.32 416.35 71.82 414.17 70.93L411.48 72.08L411.92 69.83C411.31 69.48 410.72 69.09 410.16 68.68L400.03 79.4L406.34 64.9C403.97 61.77 402.56 57.86 402.56 53.63C402.56 51.29 403 49.04 403.78 46.98C402.59 45 401.38 43.02 401.38 43.02H405.86C406.45 42.17 407.1 41.37 407.82 40.63L398.01 26.17L412.78 36.96C415.33 35.66 418.2 34.93 421.26 34.93C423.26 34.93 425.18 35.25 426.99 35.83L430.36 33.58V37.29C432.47 38.47 434.32 40.04 435.83 41.9L443.17 39.64L438.84 47.21C439.54 49.21 439.93 51.37 439.93 53.62Z" fill="white"/>
<path d="M83.2502 17.06H53.7002V91.85H83.6902C101.38 91.85 118.79 76.31 118.79 56.73V51.95C118.78 32.13 102.88 17.06 83.2502 17.06ZM100.33 46.37H106.26L101.58 50.47C101.77 51.55 101.88 52.65 101.88 53.79C101.88 58 100.47 61.89 98.1002 65L101.54 71.31L95.1202 68.1C91.9202 70.74 87.8202 72.32 83.3502 72.32C82.4402 72.32 81.5402 72.25 80.6602 72.12L75.9402 77.37L77.7602 71.46C77.1402 71.26 76.5402 71.04 75.9502 70.78L65.8302 82.09L70.4802 67.11C69.7202 66.37 69.0202 65.57 68.3902 64.71L65.8402 65.91L67.2802 62.98C65.9802 60.7 65.1402 58.13 64.9002 55.38L58.4302 54.46L64.8702 52.62C65.1002 48.96 66.3902 45.58 68.4402 42.8L62.4702 33.57L71.7302 39.36C74.9102 36.79 78.9502 35.26 83.3502 35.26C89.1502 35.26 94.3202 37.92 97.7202 42.09L106.26 38.96L99.6502 44.97C99.8902 45.43 100.12 45.9 100.33 46.37Z" fill="#EC7C18"/>
<path d="M250.44 16.05V92.19H270.35V60.52L295.5 92.19H321.86L288.17 52.44L318.26 16.05H294.23L270.31 46.71V16.05H250.44Z" fill="#EC7C18"/>
<path d="M459.31 16.05V91.85H502.49V74.67H479.18V62.55H501.42V45.03H479.18V33.91H502.49V16.05H459.31Z" fill="white"/>
<path d="M387.25 16.05H366.94V92.19H387.25V16.05Z" fill="white"/>
<path d="M167.1 16.05H187.1V65.11C187.1 80.81 174.37 93.54 158.67 93.54H150.17C134.47 93.54 121.74 80.81 121.74 65.11V16.05H142.25L141.72 63.54C141.64 70.41 147.19 76.01 154.06 76.01C160.8 76.01 166.3 70.6 166.39 63.86L167.1 16.05Z" fill="#EC7C18"/>
<path d="M229.89 74.33C218.73 74.33 209.68 65.28 209.68 54.12C209.68 42.96 218.73 33.91 229.89 33.91C236.92 33.91 243.11 37.5 246.73 42.95V19.54C241.3 16.68 235.11 15.05 228.54 15.05C206.96 15.05 189.46 32.55 189.46 54.13C189.46 75.71 206.96 93.21 228.54 93.21C235.11 93.21 241.3 91.58 246.73 88.72V65.31C243.11 70.74 236.92 74.33 229.89 74.33Z" fill="#EC7C18"/>
<path d="M339.54 63.29C341.91 64.24 343.66 66.38 343.92 68.91C344.02 69.84 343.93 70.87 343.54 71.96C342.54 74.74 339.69 76.09 336.9 76.35C333.65 76.65 330.34 75.78 327.33 74.62C321.13 72.24 318.15 68.27 318.15 68.27L312.76 78.38L324.83 92.19C324.83 92.19 329.6 93.2 335.67 93.2C343.42 93.2 351.81 91.68 357.61 86.14C367.56 76.63 368.21 57.46 355.76 49.92C349.97 46.41 343.29 45.52 337.27 42.65C337.25 42.64 337.24 42.63 337.22 42.63C335.04 41.59 333.72 39.25 334.03 36.86C334.36 34.28 335.99 31.31 341.83 31.6C351.19 32.06 353.76 36.78 353.76 36.78L362.33 21C362.33 21 352.71 15.04 337.94 15.04C314.2 15.04 312.77 38.42 312.77 38.42C312.77 38.42 311.53 52.97 323.95 58.17C330.54 60.92 337.05 62.3 339.54 63.29Z" fill="white"/>
</svg>
