<svg xmlns="http://www.w3.org/2000/svg" xml:space="preserve" id="Layer_1" x="0" y="0" version="1.1" viewBox="0 0 32 32"><style>.sidebarmenu0{fill:#ee5586}</style><path id="svg-ico" d="M22 .4H10A9.6 9.6 0 0 0 .5 9.9V22c0 5.2 4.3 9.5 9.5 9.5h12c5.2 0 9.5-4.3 9.5-9.5V10c0-5.3-4.2-9.6-9.5-9.6zM2.5 22V10c0-3.7 2.8-6.9 6.4-7.4v26.9A7.5 7.5 0 0 1 2.5 22zm27 0c0 4.1-3.4 7.5-7.5 7.5H10.8V2.4H22c4.1 0 7.5 3.4 7.5 7.5V22z" class="sidebarmenu0"/><path id="svg-ico" d="M21.7 11a1 1 0 0 0-1.4 0l-4.1 4c-.2.2-.3.4-.3.7s.1.5.3.7l4 4c.2.2.5.3.7.3s.5-.1.7-.3c.4-.4.4-1 0-1.4l-3.3-3.3 3.4-3.4c.3-.3.3-.9 0-1.3z" class="sidebarmenu0"/></svg>