<svg version="1.1" id="WordPress" xmlns="http://www.w3.org/2000/svg" x="0" y="0" viewBox="0 0 55 55" style="enable-background:new 0 0 55 55" xml:space="preserve"><style>.st1{fill:#3793b5}.st2{fill:#fad8b4}.st3{fill:#f9b28f}.st4{fill:#fcceb6}.st5{fill:#feb01b}.st6{fill:#f79c0b}</style><path d="M18.4 53.2c.1-1.4.2-2.9.2-4.3 0-.2-.3-.2-.3 0-.1 1.4-.2 2.9-.2 4.3 0 .2.3.2.3 0zM36.8 53.2c-.1-1.4-.1-2.9-.2-4.3 0-.2-.3-.2-.3 0 .1 1.4.1 2.9.2 4.3 0 .2.3.2.3 0z"/><path d="M27.8 41.9c2.9 0 4.5-1 5.6-2.3-.4-.1-.9-.1-1.3-.1l-8.4.1s-.6 0-1.4.2c.7.8 2.3 2.1 5.5 2.1z" style="fill:#2c2945"/><path class="st1" d="M27.7 48.1c-5.6 0-9.7-1.8-11.8-3.1-.2 1.1-.4 2.4-.6 3.5 2 1.3 6.2 3.3 12.2 3.3 5.6 0 9.8-2.2 12.1-3.8l-.5-3.4c-2.3 1.6-6.3 3.5-11.4 3.5zM37.1 41.1c-.9-.7-2.1-1.3-3.8-1.6-1 1.3-2.7 2.3-5.6 2.3-3.2 0-4.8-1.2-5.6-2.2-1.3.2-3.1.7-4.4 1.6 1.8 1.6 5 3.3 9.9 3.3 4.4.1 7.5-1.7 9.5-3.4z"/><path class="st2" d="M15.3 48.5c-.3 1.9-.5 3.5-.5 3.5s13.2 5.9 25.4-.1l-.6-3.9c-2.3 1.6-6.4 3.8-12.1 3.8-6 0-10.2-2-12.2-3.3zM39.1 44.7l-.2-1.3s-.5-1.2-1.8-2.3c-2 1.7-5.1 3.5-9.5 3.5-4.9 0-8.1-1.8-9.9-3.3-.8.6-1.5 1.3-1.7 2.3-.1.5-.2 1-.2 1.5 2.1 1.3 6.1 3 11.8 3.1 5.2-.1 9.2-2 11.5-3.5z"/><path class="st3" d="M18.7 23.4c0 1.8-1.4 3.3-3.1 3.3-1.7 0-3.2-1.4-3.2-3.2 0-1.8 1.4-3.3 3.1-3.3 1.8-.1 3.2 1.4 3.2 3.2zM42.6 23.3c0 1.8-1.4 3.3-3.1 3.3-1.7 0-3.2-1.4-3.2-3.2 0-1.8 1.4-3.3 3.1-3.3 1.8 0 3.2 1.4 3.2 3.2z"/><path class="st4" d="M23.6 39.4s1.1 1.3 4.1 1.3c3 0 4.3-1.4 4.3-1.4s-1.1-1-1.8-2.6c-1.7.8-3.6 1.2-5.6 1.3-.2.6-.6 1.1-1 1.4z"/><path class="st3" d="M25.6 34.6s-.1 1.9-.9 3.4c1.9-.1 3.9-.5 5.6-1.3-.3-.6-.5-1.4-.6-2.2 0 0-2.4.6-4.1.1z"/><path d="M13.3 23.5h.1c.3-.4.6-.7 1.1-.7.6-.1 1 .4 1.3.8.1.1.3.1.3-.1 0-.7-.8-1.2-1.4-1.2-.4 0-.8.1-1.1.4-.1.1-.5.7-.4.7 0-.1 0 .1.1.1z"/><path d="M14.4 24.3c.2-.1.4-.3.7-.4.2-.1.5-.1.8-.1.3 0 .3-.4 0-.4s-.6 0-.9.1c-.1.1-.3.2-.4.3-.1.1-.1.2-.2.3-.2.1-.1.2 0 .2zM41.5 23.2c.1 0-.3-.6-.4-.6-.3-.2-.7-.4-1.1-.4-.6 0-1.4.5-1.4 1.2 0 .2.2.2.3.1.3-.5.6-.9 1.3-.8.5 0 .9.3 1.2.7 0 0 .1.1.1 0 .1 0 .1-.2 0-.2z"/><path d="M40.5 24.1c-.1-.1-.1-.2-.2-.3-.1-.1-.3-.2-.4-.3-.3-.2-.6-.1-.9-.1-.3 0-.3.4 0 .4s.6-.1.8.1c.2.1.4.3.7.4v-.2zM18.4 53.2c.1-1.4.2-2.9.2-4.3 0-.2-.3-.2-.3 0-.1 1.4-.2 2.9-.2 4.3 0 .2.3.2.3 0zM36.8 53.2c-.1-1.4-.1-2.9-.2-4.3 0-.2-.3-.2-.3 0 .1 1.4.1 2.9.2 4.3 0 .2.3.2.3 0z"/><path class="st4" d="M20.1 24.8c1.9 2.5 3.2 3.5 5.2 2.8 1.9-.8 2.6-.9 3.6-1 1.2-.1 2 .9 3.1 1.1 1.2.3 2.1-2.3 3.7-3.9 1.4-1.5 2-1.8 3.1-1.7-.1-6.7-2.2-13.8-11.4-13.7-8.1 0-11.2 7-11.4 13.6 1.1.3 2.9 1.1 4.1 2.8z"/><path class="st5" d="M38.4 25.8c.3-1.1.4-2.2.4-3.4v-.3c-1-.1-1.6.2-3.1 1.7-1.6 1.6-2.5 4.2-3.7 3.9-1.2-.3-2-1.2-3.1-1.1-1 .1-1.6.2-3.6 1-1.9.8-3.3-.2-5.2-2.8-1.2-1.7-3-2.5-4.1-2.8v.5c0 5 2.8 9.3 6.7 11.2 6.2.2 11.9-3.1 15.7-7.9z"/><path class="st6" d="M22.7 33.7c1.4.7 3 1.1 4.7 1.1 5.2 0 9.6-3.8 10.9-9-3.7 4.8-9.4 8.1-15.6 7.9z"/><path d="M23.3 22.6c0 .5-.3.9-.7.9-.4 0-.7-.4-.7-.9s.3-.9.7-.9c.4.1.7.5.7.9zM34.1 22.6c0 .5-.3.9-.7.9-.4 0-.7-.4-.7-.9s.3-.9.7-.9c.4.1.7.5.7.9z"/><path class="st5" d="M18.8 14.6c0-.2.1-.4.1-.5h-.1c-.1.1-.1.3 0 .5zM18.7 14.1c0-.1 0-.1 0 0z"/><path class="st5" d="M39.6 9.6c1.8-2.2-2.4-4.8-10.4-4.5-8.1.3-12.1 3.3-12.1 3.3S17 5.7 16 6.1c-.9.4-.1 3.6-.1 3.6s-1.5-2.2-2.1-1.3c-.6 1 1.7 2.7 1.7 2.7-2.7 2.5-1.4 9.4-1.4 9.4.9-.1 2 1.5 2 1.5 1.5-.4 2.5-5.6 2.7-7.4 0-.2-.1-.4-.1-.5 0-.2 0-.1 0 0h.1V14c.1.1.2.1.3.2 7.1.3 14.6-1.2 20.5-4.6z"/><path class="st6" d="M19.1 14.1c3.8 2.1 16.4.8 16.5 1.1.4 1.8 2.3 6.9 3.2 6.9.3-1.4 1.5-2 1.5-2 .4-2.9-.8-7.1-.8-7.1 1.7-1.9.4-3.3.2-3.5-6 3.5-13.5 5-20.6 4.6z"/><path d="M27.4 28c-.1.4.2 1 .5 1.2.3.2 1 .4 1.3.2.1-.1.1-.2 0-.3-.3-.2-.7 0-1-.2-.3-.2-.4-.6-.6-.9 0-.1-.1 0-.2 0zM29.2 25.7c.6-.4 2.1-2.3.8-2.8-1.1-.4-1.4 1.8-2.4-.2-.2-.5 0-1.7 0-2.3 0-.7-.1-2.2.3-2.8.1-.1-.1-.3-.2-.2-.4.3-.4 1.5-.4 1.9-.1 1.2-.3 2.8.1 4 .1.5.2.9.8.9.3 0 .5-.3.8-.4.4-.5.8-.3 1.1.4-.2.5-.5.9-.9 1.3-.2.2-.1.3 0 .2z"/><path class="st5" d="M18.5 20.1s2.4-3 4.1-3.4c.9-.3 1 .3.9.5 0 0 .4.5-.2.9 0 0-.2.5-1 .6-.8.3-4.3 2.2-3.8 1.4zM36.6 20.1s-2.4-3-4.1-3.4c-.9-.3-1 .3-.9.5 0 0-.4.5.2.9 0 0 .2.5 1 .6.8.3 4.2 2.2 3.8 1.4z"/></svg>