<svg version="1.1" id="WordPress" xmlns="http://www.w3.org/2000/svg" x="0" y="0" viewBox="0 0 55 55" style="enable-background:new 0 0 55 55" xml:space="preserve"><style>.st1{fill:#feb01b}.st2{fill:#6b4e45}.st3{fill:#826459}.st4{fill:#2c2945}.st5{fill:#1e1d35}</style><path d="M19.1 53.2c.1-1.3.1-2.7.2-4 0-.2-.3-.2-.3 0-.1 1.3-.1 2.7-.2 4 0 .2.3.2.3 0zM36.2 53.2c0-1.3-.1-2.7-.1-4 0-.2-.3-.2-.3 0 0 1.3.1 2.7.1 4 0 .2.3.2.3 0z"/><path d="M27.9 42.5c2.7 0 4.2-1 5.2-2.2-.4-.1-.8-.1-1.2-.1H24s-.5 0-1.3.2c.7.9 2.2 2.1 5.2 2.1z" style="fill:#e95f33"/><path class="st1" d="m38.9 48.3-.5-3.2-.2-1.3s-.4-1.1-1.7-2.1c-.8-.6-1.9-1.2-3.5-1.5-1 1.3-2.5 2.2-5.2 2.2-3 0-4.5-1.2-5.2-2.1-1.2.2-2.9.6-4.1 1.5-.8.5-1.4 1.2-1.5 2.2-.1.4-.2.9-.2 1.4-.2 1.1-.4 2.2-.5 3.3-.3 1.9-.5 3.3-.5 3.3s12.3 5.6 23.6-.1l-.5-3.6z"/><path class="st2" d="M19.4 25.1c0 1.7-1.3 3.1-2.9 3.1-1.6 0-2.9-1.4-2.9-3.1 0-1.7 1.3-3.1 2.9-3.1 1.6.1 2.9 1.4 2.9 3.1zM41.6 25c0 1.7-1.3 3.1-2.9 3.1-1.6 0-2.9-1.4-2.9-3.1 0-1.7 1.3-3.1 2.9-3.1 1.6.1 2.9 1.4 2.9 3.1z"/><path class="st3" d="M24 40.2s1 1.3 3.8 1.2c2.8 0 4-1.3 4-1.3s-1-.9-1.6-2.4c-1.6.7-3.4 1.1-5.2 1.2-.3.5-.6 1-1 1.3z"/><path class="st2" d="M25.8 35.7s-.1 1.7-.8 3.2c1.8-.1 3.6-.5 5.2-1.2-.3-.6-.5-1.3-.5-2.1-.1 0-2.2.5-3.9.1z"/><path d="M14.5 25.2h.1c.3-.4.6-.6 1.1-.7.6-.1.9.3 1.2.8.1.1.3.1.3-.1 0-.6-.7-1.1-1.3-1.1-.3 0-.7.1-1 .3-.1 0-.4.6-.3.6-.2.1-.2.2-.1.2z"/><path d="M15.5 26c.2-.1.4-.2.6-.4.2-.1.5-.1.8-.1.2 0 .2-.4 0-.4-.3 0-.6 0-.9.1-.1.1-.3.2-.4.3-.1.1-.1.2-.2.3-.1.1 0 .2.1.2zM40.6 25c.1 0-.3-.6-.4-.6-.3-.2-.6-.3-1-.3-.6 0-1.3.5-1.3 1.1 0 .2.2.2.3.1.3-.4.6-.8 1.2-.8.5 0 .8.3 1.1.7h.1V25z"/><path d="M39.6 25.8c-.1-.1-.1-.2-.2-.3-.1-.1-.3-.2-.4-.3-.3-.1-.6-.1-.9-.1-.2 0-.2.4 0 .4.3 0 .5 0 .8.1.2.1.4.3.6.4.1-.1.2-.2.1-.2zM19.1 53.2c.1-1.3.1-2.7.2-4 0-.2-.3-.2-.3 0-.1 1.3-.1 2.7-.2 4 0 .2.3.2.3 0zM36.2 53.2c0-1.3-.1-2.7-.1-4 0-.2-.3-.2-.3 0 0 1.3.1 2.7.1 4 0 .2.3.2.3 0z"/><path class="st3" d="M20.8 26.5c1.7 2.4 3 3.3 4.8 2.6 1.8-.7 2.4-.8 3.3-.9 1.1-.1 1.8.8 2.9 1.1 1.1.2 2-2.2 3.4-3.7 1.3-1.4 1.9-1.7 2.9-1.6-.1-6.4-2.1-13-10.6-13C20 11 17.1 17.5 17 23.8c1 .3 2.6 1.1 3.8 2.7z"/><path class="st4" d="M37.7 27.4c.3-1 .4-2.1.4-3.2v-.3c-1-.1-1.5.2-2.9 1.6-1.5 1.5-2.3 3.9-3.4 3.7-1.1-.2-1.8-1.1-2.9-1.1-.9.1-1.5.2-3.3.9-1.8.7-3-.2-4.8-2.6-1.2-1.6-2.8-2.3-3.8-2.7v.5c0 4.7 2.6 8.7 6.2 10.5 5.7.3 11-2.8 14.5-7.3z"/><path class="st5" d="M23.2 34.8c1.3.7 2.8 1 4.4 1 4.8 0 8.9-3.6 10.1-8.4-3.5 4.5-8.8 7.6-14.5 7.4z"/><path d="M23.7 24.4c0 .4-.3.8-.6.8-.4 0-.6-.4-.6-.8 0-.5.3-.8.6-.8s.6.4.6.8z"/><ellipse cx="33.1" cy="24.4" rx=".6" ry=".8"/><path class="st1" d="M19.5 16.9c0-.2.1-.4.1-.5h-.1v.5zM19.4 16.4c0-.1 0-.1 0 0z"/><path class="st4" d="M38.2 12.1c1.7-2.1-2.1-4.5-9.4-4.2-7.3.3-10.9 3.1-10.9 3.1l-1.1 1.2-.3 1.3c-2.4 2.3-1.3 8.9-1.3 8.9.8-.1 1.8 1.4 1.8 1.4 1.4-.4 2.2-5.3 2.5-7 0-.2-.1-.4-.1-.5 0-.1 0-.1 0 0h.1v-.1c.1 0 .1.1.2.1 6.4.5 13.2-.9 18.5-4.2z"/><path class="st5" d="M19.7 16.4c3.4 2 14.8.8 14.9 1 .3 1.7 2.7 6.5 3.5 6.5.2-1.3.7-1.8.7-1.8.3-2.8-.8-6.7-.8-6.7 1.5-1.8.3-3.1.2-3.3-5.3 3.3-12.1 4.7-18.5 4.3z"/><path d="M27.6 29.5c-.1.4.2.9.4 1.1.3.2.9.3 1.2.2.1-.1.1-.2 0-.3-.3-.2-.6 0-.9-.2-.3-.2-.4-.6-.5-.9-.1 0-.2 0-.2.1zM29.2 27.3c.6-.4 2-2.2.8-2.6-1-.4-1.3 1.7-2.2-.2-.2-.5 0-1.6 0-2.1 0-.7-.1-2.1.2-2.6.1-.1-.1-.3-.2-.2-.4.2-.3 1.4-.4 1.8-.1 1.1-.3 2.7.1 3.8.1.4.2.8.7.9.3 0 .4-.3.7-.4.4-.5.7-.3 1 .4-.2.5-.5.9-.9 1.2 0 0 .1.1.2 0z"/><path class="st4" d="M19.2 22.1s2.2-2.8 3.8-3.2c.8-.3.9.3.8.5 0 0 .4.5-.2.9 0 0-.1.5-.9.6-.7.1-3.9 1.9-3.5 1.2zM36.1 22.1s-2.2-2.8-3.8-3.2c-.8-.3-.9.3-.8.5 0 0-.4.5.2.9 0 0 .1.5.9.6.7.1 3.9 1.9 3.5 1.2z"/><path d="M14.7 17.1s-.8-5.7.7-7C17 8.9 28.1 4.6 34.3 5c3.9-.2 4.6 7.6 4.7 7.3 0-.3-24.3 4.8-24.3 4.8z" style="fill:#bf674f"/><path d="M35.8 13.4c-9.4-.3-18.8 3.3-23 6.7-2.1 1.7-.9 3.3.9 4.3.1-.7.4-1.6 1.2-1.9 1.9-.6 2.4 1.3 2.4 1.3l.2-3.7c5.2-2.8 14.9-5.7 19.5-3.9 1.3.5 1.2 6.4 1.2 6.4s2.4-.6 4.3-1.7c1.5-3.9.8-7.2-6.7-7.5z" style="fill:#cd7659"/><path d="M46.2 13.9c-3.3-5.1-18.7-2-27.2 1S7.7 19.6 8.3 22.3c.6 2.7 5.3 2.9 5.3 2.9s0-.3.1-.6c-1.8-1.1-3-2.6-.9-4.3 4.2-3.4 13.7-7 23-6.7 7.5.2 8.2 3.6 6.6 7.5 2.8-1.7 5.7-4.3 3.8-7.2z" style="fill:#d67b63"/></svg>