<svg version="1.1" id="WordPress" xmlns="http://www.w3.org/2000/svg" x="0" y="0" viewBox="0 0 55 55" style="enable-background:new 0 0 55 55" xml:space="preserve"><style>.st0{fill:#826459}.st1{fill:#fad8b4}.st2{fill:#e95f33}.st3{fill:#6b4e45}.st4{fill:#feb01b}.st5{fill:#1e1d35}</style><path d="M19.8 53.5c.1-1.2.1-2.5.2-3.7 0-.4-.6-.4-.6 0-.1 1.2-.1 2.5-.2 3.7 0 .4.6.4.6 0zM35.5 53.5c0-1.2-.1-2.5-.1-3.7 0-.4-.6-.4-.6 0 0 1.2.1 2.5.1 3.7.1.4.7.4.6 0z"/><path class="st0" d="m31.7 46.9-.1-5.4H31.3l-7.2.1s-.3 0-.8.1h-.1l.2 5.4 8.3-.2zM35.2 51.1l2.7-1-.1-1.1-.4-2.9s-.1-.9-.2-1.2c-.2-.6-.4-1-1.6-2-.7-.5-1.6-1.1-2.9-1.3.3 5.9 2.5 8.9 2.5 8.9v.6zM16.9 50.1c-.2 1.3-.3 2.3-.3 2.3s1.2.5 3.1 1.1v-2.4l-2.8-1zM38.3 52.4l-.3-2.3-2.7 1v2.5c1-.3 2-.7 3-1.2z"/><path class="st0" d="M21.8 42c-.9.2-1.9.6-2.7 1.1-.7.5-1.3 1.1-1.4 2-.1.4-.1.8-.2 1.3-.2 1-.3 2-.5 3 0 .3-.1.5-.1.7l2.7 1v-.8c1.8-2.6 2.1-6.4 2.2-8.3zM19.7 51.1h-.1.1z"/><path class="st1" d="M20.2 49.3c-.2.4-.4.7-.6 1.1v.8h.1-.1v.6c5 1.6 10.5 1.3 15.6-.5v-.2h-.1.1v-.6s-.4-.6-1-1.9c-4.6 1-9.3 1.7-14 .7zM21.4 45.7c.7.1 1.3.2 2 .2l-.1-2.6c-.5 0-1-.1-1.5-.2-.1.8-.2 1.7-.4 2.6z"/><path class="st2" d="M22.9 41.7c-.3.1-.7.1-1.1.3 0 .3 0 .7-.1 1.2.5.1 1 .2 1.5.2l-.1-1.7h-.2zM31.7 45.9v1l-8.4.2v-1.2c-.7-.1-1.3-.1-2-.2-.2 1.2-.6 2.4-1.1 3.6 4.6 1 9.4.3 14-.6-.3-.8-.7-1.7-.9-3-.5.1-1 .2-1.6.2zM32.8 41.7c-.1 0-.2 0-.3-.1-.3 0-.5-.1-.8-.1v1l1.2-.3c-.1-.1-.1-.3-.1-.5z"/><path class="st1" d="m31.7 42.6.1 3.4c.5-.1 1.1-.1 1.6-.2-.2-1-.4-2.1-.5-3.4-.5 0-.9.1-1.2.2z"/><path class="st2" d="M19.6 51.7v1.8c3.5 1 9.5 2 15.5.1v-2.3c-4.9 1.7-10.5 2-15.5.4z"/><path class="st3" d="M19.9 27.6c0 1.6-1.2 2.8-2.7 2.8s-2.7-1.3-2.7-2.8c0-1.6 1.2-2.8 2.7-2.8 1.5 0 2.7 1.3 2.7 2.8zM40.4 27.5c0 1.6-1.2 2.8-2.7 2.8-1.5 0-2.7-1.3-2.7-2.8 0-1.6 1.2-2.8 2.7-2.8 1.5 0 2.7 1.3 2.7 2.8z"/><path class="st0" d="M24.1 41.5s.9 1.2 3.5 1.1c2.5 0 3.7-1.2 3.7-1.2s-.9-.9-1.5-2.3c-1.5.7-3.1 1-4.8 1.1-.2.6-.5 1-.9 1.3z"/><path class="st3" d="M25.8 37.4s-.1 1.6-.8 3c1.7-.1 3.3-.5 4.8-1.1-.2-.6-.4-1.2-.5-1.9 0-.1-2 .4-3.5 0z"/><path d="M15.3 27.8c.2.1.5-.3.7-.4.2-.1.5-.2.8-.1.3.1.4.4.6.6.2.1.5.1.5-.1.2-.7-.7-1.3-1.4-1.3s-1.4.5-1.4 1.2c0-.1.1-.1.1-.2-.1 0-.1.2.1.3z"/><path d="M16.3 28.5c.2 0 .4-.1.6-.2.2-.1.4-.1.6-.1.5 0 .5-.8 0-.8-.3 0-.7 0-1 .2-.2.2-.6.4-.5.7v-.1.1c0 .1.1.2.3.2zM39.4 27.4c0 .1.1.1.1.2 0-.7-.7-1.2-1.4-1.2-.6 0-1.6.6-1.4 1.3.1.2.3.3.5.1.2-.2.3-.4.5-.6.3-.2.6-.1.9 0 .2.1.5.5.7.4.3.1.3-.2.1-.2z"/><path d="M38.6 28.2c.1-.2-.3-.5-.5-.6-.3-.2-.6-.2-1-.2-.5 0-.5.8 0 .8.2 0 .4-.1.6 0 .2.1.4.2.6.2.3.1.4-.1.3-.2zM19.8 53.5c.1-1.2.1-2.5.2-3.7 0-.4-.6-.4-.6 0-.1 1.2-.1 2.5-.2 3.7 0 .4.6.4.6 0zM35.5 53.5c0-1.2-.1-2.5-.1-3.7 0-.4-.6-.4-.6 0 0 1.2.1 2.5.1 3.7.1.4.7.4.6 0z"/><path class="st0" d="M37.1 26.5c-.1-5.1-1.5-10.5-7.2-11.6-1.6 6-5.9 11.1-12.2 11.7v.3c0 4.3 2.4 8 5.7 9.7 5.3.1 10.1-2.7 13.3-6.8.2-.9.4-1.9.4-2.9v-.4z"/><path class="st3" d="M29.9 14.9c-.8-.2-1.6-.2-2.5-.2-6.9 0-9.6 6-9.7 11.8v.1c6.3-.6 10.6-5.7 12.2-11.7zM23.4 36.6c1.2.6 2.6 1 4 .9 4.4 0 8.2-3.3 9.3-7.8-3.2 4.1-8 7-13.3 6.9z"/><path d="M23.8 27c0 .4-.3.8-.6.8s-.6-.3-.6-.8c0-.4.3-.8.6-.8.4 0 .6.4.6.8z"/><ellipse cx="32.5" cy="27" rx=".6" ry=".8"/><path class="st4" d="M20 20c0-.2 0-.3.1-.4H20c-.1.1 0 .2 0 .4zM19.9 19.6c0-.1 0-.2 0 0z"/><path d="M26.9 30.7c-.4.2-.1.9.1 1.2.3.4.8.5 1.3.4.5 0 .5-.8 0-.8-.3 0-.6 0-.8-.3-.1-.1-.3-.6-.6-.5zM28.7 30.5c.7-.4 2.1-2.3.7-2.7-1-.3-1.4 1.3-1.9-.4-.3-1-.1-3 .2-4 .1-.2-.2-.5-.4-.4-.1 0-.2.1-.2.2-.2 1-.3 2-.3 3.1 0 .7-.2 1.9.2 2.5.2.3.4.5.8.4.3 0 .4-.3.7-.4.3-.4.5-.3.7.2-.2.4-.4.7-.7 1.1-.2.2 0 .5.2.4z"/><path class="st3" d="M24.5 30.8c-.2.7-1.3 1-2.5.7-1.2-.3-2.1-1.1-1.9-1.7.2-.7 1.3-1 2.5-.7 1.2.2 2.1 1 1.9 1.7zM34.4 29c.4.6-.2 1.6-1.3 2.2-1.1.6-2.2.7-2.6.1-.4-.6.2-1.6 1.3-2.2 1.1-.7 2.3-.7 2.6-.1z"/><path d="M21.1 25.3c0 .1.5-.5.6-.5.2-.2.4-.5.7-.7.5-.3 1-.6 1.4-.9.2-.1 0-.4-.2-.4-.6.2-1.2.6-1.7 1.1-.4.4-.9.9-1.1 1.4-.1.2.3.3.3.1v-.1zM31.5 22.4s-.1 0 0 0c-.2 0-.3.3-.1.4.5.3.9.6 1.3.9.4.3.8.7 1.2 1.1.2.1.4-.1.3-.3-.5-1-1.7-1.6-2.7-2.1v.4c.2 0 .2-.4 0-.4z"/><path class="st5" d="M38.1 23.7c1.3-2.2 1.3-4.9 0-7.2-4-5.8-12.6-2.7-17.5-.9-1.8.9-4 2.7-4.9 4.5-.7 1.8 0 3.6 1.5 4.7.2 0 .4.1.6.2 0 0 .8-1 .7-2.4v-.2c-.1-1.4 1.5-.8 1.8-2.3V20c.2-1.6 1.6-.3 2.2-1.6 0 0 2.4 2.1 3.8.2 0 0 1.8 1.7 3.1.5.1 0 .1-.1.2-.2.4-.3 1.7 2.2 3.8.8 0 0 0 2.9 1.5 2.5 0 0-.1 2.3 1.9 2.4.6-.2 1-.4 1.3-.9zM17.7 39.3c.7-.4.9-.9.9-.9s1.6 2.5 3.9 1 3.2-.7 3.2-.7l.4-1.4s-3.2-.5-5.2-2.6c-.7-.8-1.2-1.6-1.6-2.3-.4 2.2-1.9 4.6-1.6 6.9z"/><path d="M45.6 29.5s2.8-3.2 1.2-5.5-1.8-1.9-1.8-1.9 1.2-2-1.9-4.2c0 0 1.5-3.9-1.2-6.5s-4.8-2.2-4.8-2.2.1-2.4-1.9-3.2c-2.1-.7-3.3.4-3.3.4S30.3 4.5 27.1 5c-3.2.6-4.4 2.7-4.4 2.7s-2.2-1.3-4.7 0-2.4 3.9-2.4 3.9-4.2.5-5.5 3.2-.8 4.7-.7 4.6-1.7.8-1.4 3.7c.3 2.9 1 3.8 1 3.8s-1.7 1-1.3 3.6c.4 2.6 1.8 2.7 1.8 2.7s-.8 2.3 1 3.9c1.4.9 2.5.7 2.5.7s.2 2 2.5 2c.9 0 1.6-.2 2-.5-.2-2.3 1.2-4.7 1.5-7-.6-1.3-.8-2.2-.8-2.2s-2.7 1-3.8-1.8c-.6-1.6 1.1-3.5 2.5-3.5-1.5-1.1-2.2-2.9-1.5-4.7.9-1.8 3.1-3.6 4.9-4.5 4.9-1.8 13.5-4.9 17.5.9 1.3 2.2 1.3 4.9 0 7.2-.3.4-.7.7-1.2 1h.1c2.1.1 3.2 1.1 3.4 2.8.2 1.7-1.8 3.2-3.8 2.6 0 0-.1.4-.4 1.1 1.3 2.2 3.5 4.5 4.1 6.6 1.3-.9 1-3.2 1-3.2s2 .7 3.8-1.9.8-3.2.8-3.2z" style="fill:#2c2945"/><path class="st5" d="M29.3 37.3s.1 1.1.3 1.5c.2.4 2.4 1.7 4.9.4 2.5-1.3 4.2-.4 5.6-1.2.1 0 .1-.1.2-.1-.6-2.2-2.8-4.4-4.1-6.6-.7 1.5-2.5 4.4-6.9 6z"/></svg>