<svg version="1.1" id="WordPress" xmlns="http://www.w3.org/2000/svg" x="0" y="0" viewBox="0 0 55 55" style="enable-background:new 0 0 55 55" xml:space="preserve"><style>.st1{fill:#549e87}.st2{fill:#f9b28f}.st3{fill:#64ad99}.st4{fill:#fcceb6}.st5{fill:#2c2945}</style><path d="M13.4 19.9s.3 11-1.7 14.4c0 0 1.8 2.1 6.7 2.3 0 0 .8-2.3.8-3.1 0 0 .3 2.9.2 3.3 0 0 10.7 1.1 16.7.2 0 0 0-2.5.4-3.2 0 0 .3 2.5 1 2.9 0 0 3.5.1 5.8-1.2 0 0-1.8-6.6-2-8.7s.5-6.7.5-6.7" style="fill:#1e1d35"/><path class="st1" d="M24.3 36.5s2.9-.7 7.4 0l1.5 2.7-10.3.1 1.4-2.8z"/><path class="st2" d="M18.8 23c0 1.8-1.4 3.3-3.1 3.3-1.7 0-3.2-1.5-3.2-3.3 0-1.8 1.4-3.3 3.1-3.3 1.7 0 3.2 1.4 3.2 3.3zM42.7 22.9c0 1.8-1.4 3.3-3.1 3.3-1.7 0-3.2-1.5-3.2-3.3 0-1.8 1.4-3.3 3.1-3.3 1.8 0 3.2 1.5 3.2 3.3z"/><path class="st1" d="M34.7 41.4c.5-.3 1-.8 1.4-1.2-1-.6-2.3-1-4.1-1.1l-8.4.1s-.7.1-1.7.3c3 3.7 8.5 4.3 12.8 1.9z"/><path class="st3" d="M39 43.2s-.7-1.8-2.9-3c-.4.4-.9.8-1.4 1.2-4.3 2.4-9.8 1.7-12.8-1.9-2.1.4-5.3 1.5-5.7 3.9-.5 3.2-1.3 8.6-1.3 8.6s13.2 6 25.4-.1L39 43.2z"/><path class="st4" d="M23.7 39.2s1.1 1.4 4.1 1.3c3 0 4.3-1.4 4.3-1.4s-1.1-1-1.8-2.6c-1.7.8-3.6 1.2-5.6 1.3-.2.6-.6 1.1-1 1.4z"/><path class="st2" d="M25.7 34.4s-.1 1.9-.9 3.5c1.9-.1 3.9-.5 5.6-1.3-.3-.7-.5-1.4-.6-2.3 0 0-2.4.5-4.1.1z"/><path class="st4" d="M38.8 22c0 6.9-5 12.5-11.3 12.5-6.3 0-11.4-5.5-11.4-12.4s3-14.3 11.3-14.3c9.4 0 11.4 7.3 11.4 14.2z"/><path d="M13.4 23.1h.1c.3-.4.6-.7 1.1-.7.6-.1 1 .4 1.3.9.1.1.3.1.3-.1 0-.7-.8-1.2-1.4-1.2-.4 0-.8.1-1.1.4-.1.1-.5.7-.4.7 0-.2 0 0 .1 0z"/><path d="M14.5 23.9c.2-.1.4-.3.7-.4.2-.1.5-.1.8-.1.3 0 .3-.4 0-.4s-.6 0-.9.1c-.1.1-.3.2-.4.3-.1.1-.1.2-.2.3-.2.1-.1.2 0 .2zM41.5 22.8c.1 0-.3-.6-.4-.7-.3-.2-.7-.4-1.1-.4-.6 0-1.4.5-1.4 1.2 0 .2.2.2.3.1.3-.5.6-.9 1.3-.9.5 0 .9.3 1.2.7 0 0 .1.1.1 0 .1.2.1 0 0 0z"/><path d="M40.5 23.7c-.1-.1-.1-.2-.2-.3-.1-.1-.3-.2-.4-.3-.3-.2-.6-.1-.9-.1-.3 0-.3.4 0 .4s.6-.1.8.1c.2.1.4.3.7.4 0-.1.1-.2 0-.2zM18.5 53.2c.1-1.4.2-2.9.2-4.3 0-.2-.3-.2-.3 0-.1 1.4-.2 2.9-.2 4.3-.1.2.2.2.3 0zM36.8 53.2c-.1-1.4-.1-2.9-.2-4.3 0-.2-.3-.2-.3 0 .1 1.4.1 2.9.2 4.3 0 .2.3.2.3 0z"/><path class="st3" d="M27.7 37.2c-2 0-2.7-.7-3.3-.7-1 0-1.7 1.5-2.1 2.8.5 1.1 2.6 2.1 4.9 2.1 2.2 0 4.3.1 6.2-2.1 0 0-.3-3.3-2.2-2.7-2 .6-1.2.6-3.5.6z"/><ellipse cx="22.6" cy="22.6" rx=".7" ry=".9"/><path d="M33.9 22.7c0 .5-.3.9-.7.9-.4 0-.7-.4-.7-.9s.3-.9.7-.9c.4.1.7.4.7.9zM27.3 26.2c-.1.4.2 1 .5 1.2.3.2 1 .4 1.3.2.1-.1.1-.2 0-.3-.3-.2-.7 0-1-.2-.3-.2-.4-.6-.6-.9 0-.1-.1 0-.2 0zM28.7 25.1c.6.7 1.8-1 1.6-1.6-.1-.5-.5-.8-1-.7-.4 0-.3.3-.7-.1-.3-.3-.3-.4-.3-.7 0-.7 0-1.6.2-2.3.1-.2-.3-.3-.3-.1-.2.6-.2 1.4-.2 2 0 .4-.1 1 .1 1.4.2.3.4.2.7.3.1 0 .3 0 .4-.1.7.5.8.9.4 1.3-.1.2-.6.6-.8.5-.1-.1-.2 0-.1.1zM32.7 18.1v.1c0 .1.1.1.1.1 1.4.1 2.6 1.7 3.1 2.9.1.2.4.2.4 0-.1-.8-.9-1.8-1.5-2.3-.4-.3-.8-.6-1.3-.8-.2-.1-.3-.1-.5-.1-.1 0 0 .2-.1 0-.1.1-.2.1-.2.1zM22.6 18.5c-.7 0-1.4.2-1.9.7-.6.5-1.3 1.3-1.7 2-.1.2.1.4.3.2 1-1.1 1.8-2.4 3.4-2.6.1-.1.1-.3-.1-.3z"/><path class="st5" d="M40 10.8c-1-1.8-2.4-3.4-4.6-4.4-5.6-2.4-9.6-1-11.3-.1C28.5 9.9 34.2 11 40 10.8zM37 18.9c.9.1 1.7.8 1.7.8 1.7-.4 3.1 1 3.1 1-.1-.1.1-1.7-.1-3.9-1.8-.1-3.5-.4-5.3-.9.5 1.2.6 3 .6 3zM22.6 6.8c-4.2-.2-8.3 2.9-9.6 6.1-1.4 3.3.6 7.5.6 7.5 1.7-1.1 2.6-.7 2.6-.7 2.4-1 6-1.5 6-1.5l.4-3.4c.4.7.8 3.4.8 3.4h4c2.6 0 8.6.5 8.6.5l.3-2.8c-5.2-1.6-10.1-4.8-13.7-9.1z"/><path d="M24.1 6.3c-.6.3-.9.6-.9.6h-.5c3.5 4.2 8.4 7.4 13.7 8.9v-.2c0 .1.1.2.1.2 1.7.5 3.5.8 5.3.9-.2-1.8-.6-4-1.7-6-5.9.3-11.6-.8-16-4.4z" style="fill:#343351"/><path class="st2" d="M25.7 26.8c-.2 1-1.6 1.5-3.1 1.1-1.5-.3-2.6-1.4-2.3-2.3.2-1 1.6-1.5 3.1-1.1 1.5.3 2.5 1.3 2.3 2.3zM36.3 25.4c.3.9-.7 2.1-2.1 2.5-1.5.5-2.9.1-3.2-.8-.3-.9.7-2.1 2.1-2.5 1.5-.5 2.9-.1 3.2.8z"/><path d="M22.9 40.1c2.5 1.9 7.6 2.4 9.9 0 .1-.1 0-.3-.2-.2-2.7 1.9-6.7 1.7-9.7.2 0-.2 0-.1 0 0zM23.3 39.7c.3-.8.7-1.5 1-2.3.1-.1-.1-.3-.2-.2-.5.6-.8 1.6-1 2.4-.1.2.1.2.2.1z"/><path d="M24.8 40.3c.1.1.2.1.2 0 0-.8.2-1.6.3-2.4 0-.2-.2-.2-.3-.1-.1.8-.2 1.6-.2 2.5l.1-.1c0-.1-.1 0-.1.1zM26.4 40.5c0 .1.2.1.2 0-.1-.9.1-1.7 0-2.6 0-.1-.2-.2-.3 0-.1.8-.1 1.8.1 2.6.1 0 .1 0 .1-.1s-.1 0-.1.1zM27.8 37.7c0 .4.1.9.1 1.3s0 .8.1 1.2c0 .2.3.1.3 0 0-.8-.1-1.7-.3-2.5l-.1-.1-.1.1c.1-.1 0 0 0 0zM29.8 40.8h.2c0-1 .1-2.2-.3-3.2-.1-.2-.3-.1-.3.1.1 1 .1 2.1.4 3.1 0 .1.2.1.2 0-.1-.1-.2-.1-.2 0zM30.3 37.4c.1.4.3.7.4 1.1.1.4.2.7.3 1.1 0 .1.2.1.2 0-.1-.8-.4-1.6-.7-2.2-.1-.2-.3-.1-.2 0zM31.5 37s.1 0 0 0c.1.1.2.1.2 0h-.2c.2.4.5.7.6 1 .1.3.2.7.3 1.1 0 .1.2.1.2 0 0-.8-.4-1.5-.9-2.2 0-.1-.2-.1-.2.1 0-.1 0-.1 0 0 .1 0 .1-.1.2-.1h-.1c0-.1-.1 0-.1.1z"/></svg>