<svg version="1.1" id="WordPress" xmlns="http://www.w3.org/2000/svg" x="0" y="0" viewBox="0 0 55 55" style="enable-background:new 0 0 55 55" xml:space="preserve"><style>.st1{fill:#f9b28f}.st2{fill:#e95f33}.st3{fill:#fad8b4}.st4{fill:#3793b5}.st5{fill:#f2a381}.st6{fill:#feb01b}.st7{fill:#cd7659}</style><path d="M18.7 53.2c.1-1.4.2-2.9.2-4.3 0-.4-.6-.4-.6 0-.1 1.4-.2 2.9-.2 4.3-.1.4.5.4.6 0zM36.8 53.2c-.1-1.4-.1-2.9-.2-4.3 0-.4-.6-.4-.6 0 .1 1.4.1 2.9.2 4.3 0 .4.6.4.6 0z"/><path d="m25.5 45.5.3 9c1.1.1 2.3.1 3.6 0l.3-8.8c-1.4.1-2.8 0-4.2-.2z" style="fill:#2c2945"/><path class="st1" d="M34 39.6c-.2-.1-.5-.1-.7-.2-.4-.1-.9-.1-1.3-.1l-8.3.1s-.6 0-1.4.2c-.3.1-.6.1-.9.2 1.1 2.6 4.2 4.9 4.2 4.9v.8c1.3.2 2.8.3 4.2.3v-1c0-.1 3.1-2.5 4.2-5.2z"/><path class="st2" d="M25.6 48c-3.5-.3-6.8-1.6-9.4-4-.1.3-.1.6-.2 1l-.3 1.8c2.9 2 6.4 2.8 9.9 2.8V48z"/><path class="st3" d="m25.7 51.4-.1-1.8c-3.5 0-7-.8-9.9-2.8-.1.6-.2 1.1-.3 1.7 0 .3-.1.5-.1.8 3.2 1.5 6.9 2.2 10.4 2.1z"/><path class="st4" d="M15.4 49.2c-.2 1.6-.4 2.7-.4 2.7s4.6 2.1 10.9 2.5l-.1-3.1c-3.6.2-7.3-.5-10.4-2.1zM25.5 44.7s-3-2.3-4.2-4.9c-1.1.3-2.4.7-3.5 1.4-.8.6-1.5 1.3-1.6 2.3 0 .2-.1.3-.1.5 2.6 2.3 6 3.7 9.4 4v-3.3zM29.6 51l-.1 3.6c3.4-.1 7-.9 10.6-2.7l-.6-3.9c-3.1 1.9-6.4 3-9.9 3z"/><path class="st3" d="M39.1 45.8c-2.9 1.9-6.3 3-9.5 3.7V51c3.5 0 6.9-1.1 9.9-2.9l-.4-2.3z"/><path class="st2" d="m39 44.7-.1-.9c-2.5 2.4-5.8 3.7-9.2 4.3l-.1 1.5c3.3-.7 6.7-1.8 9.5-3.7l-.1-1.2z"/><path class="st4" d="M38.8 43.4s-.5-1.2-1.8-2.3c-.7-.6-1.7-1.1-3-1.4-1.1 2.7-4.2 5.1-4.2 5.1l-.1 3.4c3.4-.6 6.7-1.9 9.2-4.3l-.1-.5z"/><path class="st5" d="M18.8 23.3c0 1.8-1.4 3.3-3.1 3.3-1.7 0-3.1-1.4-3.1-3.2 0-1.8 1.4-3.3 3.1-3.3 1.7 0 3.1 1.5 3.1 3.2zM42.4 23.3c0 1.8-1.4 3.3-3.1 3.3-1.7 0-3.1-1.4-3.1-3.2 0-1.8 1.4-3.3 3.1-3.3 1.7-.1 3.1 1.4 3.1 3.2z"/><path class="st1" d="M23.6 39.4s1.1 1.3 4 1.3 4.3-1.4 4.3-1.4-1-1-1.7-2.6c-1.7.8-3.6 1.2-5.5 1.3-.3.6-.6 1-1.1 1.4z"/><path class="st5" d="M25.6 34.6s-.1 1.9-.9 3.4c1.9-.1 3.8-.5 5.5-1.3-.3-.6-.5-1.4-.6-2.2.1 0-2.3.6-4 .1z"/><path d="M13.5 23.6c.3.1.6-.4.8-.5.3-.2.7-.2 1-.1.3.2.4.5.7.7.2.2.5.1.5-.1.1-.8-.8-1.5-1.5-1.5-.8 0-1.5.5-1.5 1.3 0-.1.1-.1.1-.2-.3.1-.3.3-.1.4z"/><path d="M14.6 24.4c.3-.1.5-.2.7-.3.2-.1.5-.1.8-.1.5 0 .5-.8 0-.8-.4 0-.8 0-1.1.2-.2.1-.3.2-.4.4-.1.1-.1.1-.1.2v.1c0 .1 0 .1 0 0-.2.1 0 .3.1.3zM41.3 23.1c0 .1.1.1.1.2 0-.8-.8-1.3-1.6-1.3-.7 0-1.7.7-1.5 1.5 0 .2.4.3.5.1.4-.4.5-.8 1.1-.8.5 0 .8.3 1.1.6 0 0 .1.1.2 0 .3 0 .3-.2.1-.3z"/><path d="M40.4 24c0 .1 0 .1 0 0v-.1c0-.1 0-.1-.1-.2-.1-.2-.3-.3-.5-.4-.3-.2-.7-.2-1.1-.2-.5 0-.5.8 0 .8.3 0 .5-.1.8.1.2.1.5.2.7.3.1 0 .3-.1.2-.3zM18.7 53.2c.1-1.4.2-2.9.2-4.3 0-.4-.6-.4-.6 0-.1 1.4-.2 2.9-.2 4.3-.1.4.5.4.6 0zM36.8 53.2c-.1-1.4-.1-2.9-.2-4.3 0-.4-.6-.4-.6 0 .1 1.4.1 2.9.2 4.3 0 .4.6.4.6 0z"/><path class="st1" d="M38.6 22.1c-.1-6.7-2.2-13.8-11.3-13.7-8 0-11 6.9-11.2 13.6v.5c0 5 2.7 9.3 6.6 11.2 6.1.2 11.7-3.1 15.4-7.9.3-1.1.4-2.2.4-3.4.1-.1.1-.2.1-.3z"/><path class="st5" d="M22.8 33.7c1.4.7 3 1.1 4.6 1.1 5.1 0 9.4-3.8 10.8-9-3.7 4.7-9.3 8-15.4 7.9z"/><path d="M23.3 22.6c0 .5-.3.9-.7.9-.4 0-.7-.4-.7-.9s.3-.9.7-.9c.4 0 .7.4.7.9zM34 22.6c0 .5-.3.9-.7.9s-.7-.4-.7-.9.3-.9.7-.9.7.4.7.9z"/><path class="st6" d="M18.9 14.6c0-.2.1-.4.1-.5h-.1c-.1.1 0 .3 0 .5zM18.8 14.1c0-.1 0-.2 0 0z"/><path d="M26.9 27c-.3.3 0 1 .2 1.3.3.4.9.5 1.4.4.5 0 .5-.8 0-.8-.3 0-.7.1-.9-.2-.2-.2-.2-.6-.5-.8-.1 0-.2 0-.2.1zM28.9 26.6c.7-.4 2.3-2.6.8-3.1-1.1-.3-1.7 1.6-2.2-.5-.3-1.1-.1-3.5.2-4.6.1-.2-.2-.5-.4-.4-.5.2-.5 1.1-.5 1.5-.1 1.4-.3 3.2 0 4.6.1.5.3 1.1.9 1.1.3 0 .5-.2.7-.3.4-.2.4-.5.8-.1s-.2 1.1-.6 1.5c-.1.2.1.4.3.3z"/><path class="st7" d="M18.6 20.1s2.3-3 4.1-3.4c.9-.3 1 .3.9.5 0 0 .4.5-.2.9 0 0-.2.5-1 .6-.8.3-4.2 2.2-3.8 1.4zM36.5 20.1s-2.3-3-4.1-3.4c-.9-.3-1 .3-.9.5 0 0-.4.5.2.9 0 0 .2.5 1 .6.8.3 4.2 2.2 3.8 1.4z"/><path class="st7" d="M22.1 11c6.7 1.1 13.4.4 19.4-1.9-.4-.6-1.3-.7-1.3-.7.7-1.5 1-3.5-1.3-2.8-2.2.6-4.1.1-10.1-.6s-8.3 3.5-8.3 3.5-.2-3.8-1.1-3.2c-1 .6.4 3.2.4 3.2S18.5 6 18.2 6.6s1 2.2 1 2.2c-3.8-.1-5.7 2.9-5.8 5.7-.1 2.8 2.2 5.8 2.2 5.8h.6c2-.5 5.8-8.3 5.8-8.3.1 0 .2.1.3.1 0-.4 0-.7-.2-1.1z"/><path d="M41.5 9.1c-6 2.3-12.7 2.9-19.4 1.9.2.4.2.8.1 1.1 10.1 4.3 14 2.5 14 2.5 0 2.3 2.5 5.7 2.5 5.7.1-.3 1.8 0 1.8 0-.2-.1.4-6.2 1.1-7.6.7-1.4-.1-2.6-.1-2.6.2-.4.2-.7 0-1z" style="fill:#bf674f"/><path class="st2" d="M24.8 37.8s-2.9.9-3.6 1.6c-.7.7.5 4.6 4.4 6.3 0 0 .7-.2-.7-2.3-1.4-2.1-2.2-3.1-1.3-4 1-.8.9-.9 1.2-1.6zM30.6 37.5s3.3 1 3.9 1.7c.6.7-.7 5-4.8 6.5 0 0-.7-.6 1.3-2.7 1.5-1.8 1.5-3.1.7-3.9-.9-.8-.9-1-1.1-1.6z"/></svg>