<svg version="1.1" id="WordPress" xmlns="http://www.w3.org/2000/svg" x="0" y="0" viewBox="0 0 55 55" style="enable-background:new 0 0 55 55" xml:space="preserve"><style>.st0{fill:#f9b28f}.st2{fill:#f2a381}.st3{fill:#feb01b}.st4{fill:#bf674f}.st5{fill:#cd7659}</style><path d="M17.7 53.4c.1-1.4.2-2.9.2-4.3 0-.4-.6-.4-.6 0-.1 1.4-.2 2.9-.2 4.3 0 .3.6.3.6 0zM36 53.4c-.1-1.4-.1-2.9-.2-4.3 0-.4-.6-.4-.6 0 .1 1.4.1 2.9.2 4.3 0 .3.6.3.6 0z"/><path class="st0" d="M31.2 39.4h-.1l-8.4.1s-.4 0-.9.1c1.6 3.5 2.7 7 5.4 9.6 1.4-3.2 3.1-6.4 4-9.8zM14.4 49.5c-.2 1.5-.4 2.6-.4 2.6s1.4.6 3.6 1.3l.1-2.8-3.3-1.1z"/><path d="m38.9 49.5-.2-1.3-.5-3.4-.2-1.4s-.5-1.2-1.8-2.3c-.9-.7-2.1-1.3-3.7-1.6-.4-.1-.8-.1-1.2-.1-.9 3.4-2.6 6.6-4 9.8-2.7-2.7-3.8-6.1-5.4-9.6-.1 0-.3 0-.4.1-1.2.2-3.1.7-4.4 1.6-.8.6-1.5 1.3-1.6 2.3-.1.5-.2 1-.2 1.5-.2 1.1-.4 2.4-.5 3.5 0 .3-.1.6-.1.9l3.3 1.2-.1 2.8c4 1.1 11 2.3 18 .1l-.1-2.9 3.1-1.2z" style="fill:#fad8b4"/><path class="st0" d="m38.9 49.5-3.3 1.2.1 2.9c1.2-.4 2.4-.9 3.6-1.5l-.4-2.6z"/><path class="st2" d="M17.9 23.3c0 1.8-1.4 3.3-3.1 3.3-1.7 0-3.1-1.5-3.1-3.3 0-1.8 1.4-3.3 3.1-3.3 1.7 0 3.1 1.5 3.1 3.3zM41.6 23.2c0 1.8-1.4 3.3-3.1 3.3-1.7 0-3.1-1.5-3.1-3.3 0-1.8 1.4-3.3 3.1-3.3 1.7.1 3.1 1.5 3.1 3.3z"/><path class="st0" d="M22.7 39.5s1.1 1.3 4 1.3c3 0 4.3-1.4 4.3-1.4s-1.1-1-1.7-2.6c-1.7.8-3.6 1.2-5.5 1.3-.2.5-.6 1-1.1 1.4z"/><path class="st2" d="M24.7 34.6s-.1 1.9-.9 3.4c1.9-.1 3.8-.5 5.5-1.3-.3-.7-.5-1.4-.6-2.2.1.1-2.2.6-4 .1z"/><path d="M12.5 23.5c.3.1.6-.4.8-.5.3-.2.7-.2 1-.1.3.2.4.5.7.7.2.2.5.1.5-.1.1-.8-.8-1.5-1.5-1.5-.8 0-1.5.5-1.6 1.3 0-.1.1-.1.1-.2-.1.1-.1.4 0 .4z"/><path d="M13.6 24.3c.3-.1.5-.2.7-.3.2-.1.5-.1.8-.1.5 0 .5-.8 0-.8-.4 0-.8 0-1.1.2-.2.1-.3.2-.4.4-.1.1-.1.1-.1.2v.1c0 .1 0 .1 0 0-.1.2 0 .4.1.3zM40.5 23.1c0 .1.1.1.1.2 0-.8-.8-1.3-1.6-1.3-.7 0-1.7.7-1.5 1.5 0 .2.4.3.5.1.2-.2.3-.5.6-.7.3-.2.8-.2 1.1 0 .2.1.5.6.8.5.2 0 .2-.3 0-.3z"/><path d="M39.6 24c0 .1 0 .1 0 0v-.1c0-.1 0-.1-.1-.2-.1-.2-.3-.3-.5-.4-.3-.2-.7-.2-1.1-.2-.5 0-.5.8 0 .8.3 0 .5-.1.8.1.2.1.5.2.7.3.1 0 .3-.2.2-.3zM17.7 53.4c.1-1.4.2-2.9.2-4.3 0-.4-.6-.4-.6 0-.1 1.4-.2 2.9-.2 4.3 0 .3.6.3.6 0zM36 53.4c-.1-1.4-.1-2.9-.2-4.3 0-.4-.6-.4-.6 0 .1 1.4.1 2.9.2 4.3 0 .3.6.3.6 0z"/><path class="st0" d="M37.8 22.1c-.1-6-1.7-12.2-8.4-13.5-1.8 7-6.8 12.9-14.2 13.6v.4c0 5 2.7 9.3 6.7 11.3 6.1.2 11.8-3.2 15.5-7.9.3-1.1.4-2.2.4-3.4v-.5z"/><path class="st2" d="M29.4 8.5c-.9-.2-1.9-.3-2.9-.3-8 0-11.1 7-11.2 13.7v.2c7.3-.6 12.3-6.6 14.1-13.6zM21.9 33.7c1.4.7 3 1.1 4.7 1.1 5.2 0 9.5-3.8 10.8-9-3.7 4.7-9.4 8.1-15.5 7.9z"/><path d="M22.4 22.6c0 .5-.3.9-.7.9-.4 0-.7-.4-.7-.9s.3-.9.7-.9c.4 0 .7.4.7.9z"/><ellipse cx="32.5" cy="22.6" rx=".7" ry=".9"/><path class="st3" d="M18 14.5c0-.2.1-.4.1-.5H18c-.1.1-.1.3 0 .5zM17.9 14c0-.1 0-.2 0 0z"/><path d="M26 27c-.3.3 0 1 .2 1.3.3.4.9.5 1.4.4.2 0 .4-.1.4-.3v-.2c0-.2-.2-.3-.4-.3-.3 0-.7.1-.9-.2-.2-.3-.2-.6-.5-.8 0 0-.1 0-.2.1zM28.1 26.6c.7-.4 2.3-2.6.8-3.1-1.1-.3-1.7 1.6-2.2-.5-.3-1.1-.1-3.6.2-4.6.1-.2-.2-.5-.4-.4-.5.2-.5 1-.5 1.5-.1 1.4-.3 3.2 0 4.6.1.5.3 1.1.9 1.1.3 0 .5-.2.7-.3.4-.2.4-.5.8-.1.5.5-.2 1.1-.6 1.5-.1.1.1.4.3.3z"/><path class="st4" d="M15.2 44.3s.2-2.5 3.4-3.9c2.1-1.2 4.1-.9 4.1-.9s2-1.1 2-4.8c0 0-6.7-1.2-8.9-8.2h-.1c0 5.9-.2 12-1.4 17.7l.9.1zM37.3 26.3s-1.9 6.6-8.5 8.3c0 0 0 2.8 2.3 4.9 0 0 5 .2 6.8 3.9 1.9 3.7 0 .1 0 .1l.6 4.1s2.5-.4 4.6-1.4c-3.2-5.8-3.6-13-5.2-19.7-.2-.1-.4-.1-.6-.2z"/><path class="st5" d="M42 13.7c-1.5-3.4-3.7-6.3-6.9-7.8-3.4-1.6-6.1-.9-7.5-.3 3.2 4.8 8.6 7.2 14.4 8.1z"/><path d="M43.9 19.1c-.5-1.8-1.1-3.7-1.9-5.4-5.7-1-11.2-3.4-14.3-8.2-.7.3-1 .5-1 .5s-.4-.1-1-.2c2.9 7.5 10.2 13.5 18.2 13.3z" style="fill:#d67b63"/><path class="st5" d="M43.9 19.1c-8 .2-15.4-5.8-18.3-13.2-2.9-.4-11.1-.8-14 7.1-3.5 9.6-3.3 19.7-4.2 23-.9 3.3-2.1 5.6-2.1 5.6l4.6 1.2 1.6-3.8v4.6l2.7.5c1.2-5.8 1.4-11.9 1.4-17.7-.5 0-3.6.2-3.8-2.9-.1-3.3 2.4-3.5 3.3-3.2 0 0 8.6-2.1 11.7-8.6 0 0 4.9 7.3 11 8.6 0 0 3.4-.6 3.5 2.6.1 2.7-2 3.6-3.4 3.4 1.6 6.7 2 13.9 5.2 19.7l1.2-.6-1-5.4 2.5 4.4 3.8-2.4s-3.1-11.4-4.4-17.6c-.3-1.5-.7-3.4-1.3-5.3z"/><path class="st2" d="M23.2 27c-.2.8-1.5 1.2-2.9.8-1.4-.3-2.4-1.2-2.2-2 .2-.8 1.5-1.2 2.9-.8 1.4.3 2.4 1.2 2.2 2zM34.7 24.9c.4.7-.3 1.9-1.5 2.6-1.2.7-2.6.8-3 .1-.4-.7.3-1.9 1.5-2.6 1.3-.7 2.6-.8 3-.1z"/><path d="M19.2 20.8c0-.1.9-.9 1-1.1.6-.6 1.4-.9 2-1.4.2-.1.1-.5-.2-.4-.7.3-1.4.7-2 1.2-.5.4-1 1.1-1.2 1.7-.1.2.2.3.3.1.1 0 .1-.1.1-.1zM31.3 17.3c-.3 0-.3.3-.1.4.5.3 1 .6 1.5 1s1 .9 1.5 1.3c.2.1.5 0 .4-.3-.8-1.1-2.2-1.8-3.3-2.4v.4c.3 0 .3-.4 0-.4z"/></svg>