<svg version="1.1" id="WordPress" xmlns="http://www.w3.org/2000/svg" x="0" y="0" viewBox="0 0 55 55" style="enable-background:new 0 0 55 55" xml:space="preserve"><style>.st2{fill:#f9b28f}.st3{fill:#fcceb6}.st4{fill:#feb01b}.st7{fill:#2c2945}.st8{fill:#3793b5}</style><path d="m19.1 53.4.2-4.1c0-.4-.6-.4-.6 0l-.2 4.1c-.1.4.6.4.6 0zM36.4 53.4l-.1-4.1c0-.4-.6-.4-.6 0l.1 4.1c0 .4.6.4.6 0z"/><path d="m31.7 40.2-7.9.1-1.3.2-2 .5c4.8 3 10.6 2.8 15.5.5-.8-.5-1.7-.9-3-1.1a5 5 0 0 0-1.3-.2z" style="fill:#549e87"/><path d="M20.5 41c-.8.2-1.5.6-2.2 1-.8.5-1.4 1.3-1.6 2.2l-.2 1.4-.5 3.3-.5 3.4s12.5 5.6 23.9-.1l-.5-3.7-.5-3.2-.1-1.3s-.4-1.1-1.7-2.2l-.6-.4a15.9 15.9 0 0 1-15.5-.4z" style="fill:#64ad99"/><path class="st2" d="M19.2 25a3 3 0 0 1-3 3.1c-1.6 0-3-1.4-3-3.1a3 3 0 0 1 3-3.1 3 3 0 0 1 3 3.1zM41.7 24.9a3 3 0 0 1-3 3.1c-1.6 0-3-1.4-3-3.1a3 3 0 0 1 3-3.1 3 3 0 0 1 3 3.1z"/><path class="st3" d="M23.8 40.3s1 1.3 3.8 1.3 4.1-1.3 4.1-1.3-1-.9-1.6-2.5c-1.6.7-3.4 1.1-5.2 1.2-.3.5-.6.9-1.1 1.3z"/><path class="st2" d="M25.7 35.7s-.1 1.8-.9 3.3c1.8-.1 3.6-.5 5.2-1.2-.3-.6-.5-1.3-.5-2.1.1-.1-2.2.4-3.8 0z"/><path d="M14.1 25.2c.3.1.6-.4.8-.5.3-.1.6-.2.9-.1.3.1.4.5.7.7.2.1.5.1.5-.1.2-.8-.8-1.4-1.5-1.4s-1.5.5-1.5 1.3l.1-.2v.3z"/><path d="M15.2 25.9c.3-.1.5-.1.7-.3l.7-.1c.5 0 .5-.8 0-.8-.4 0-.7 0-1 .2-.3.2-.6.4-.5.8v-.1.1c-.2.1 0 .2.1.2zM40.7 24.7s-.1 0 0 0l.1.2c0-.8-.8-1.3-1.5-1.3s-1.6.7-1.5 1.4c.1.2.4.3.5.1.2-.2.3-.5.6-.6a1 1 0 0 1 1 0c.2.1.5.6.8.5v-.3z"/><path d="M39.8 25.6c.1-.3-.3-.5-.5-.7-.3-.2-.7-.2-1-.2-.5 0-.5.8 0 .8.2 0 .5-.1.7.1l.7.3s.2-.2.1-.3zM19.1 53.4l.2-4.1c0-.4-.6-.4-.6 0l-.2 4.1c-.1.4.6.4.6 0zM36.4 53.4l-.1-4.1c0-.4-.6-.4-.6 0l.1 4.1c0 .4.6.4.6 0z"/><path class="st3" d="M38.1 23.8C38 17.4 36 10.6 27.4 10.7c-7.6 0-10.5 6.6-10.7 13v.5c0 4.8 2.6 8.8 6.3 10.7 5.8.2 11.1-3 14.7-7.5.3-1 .4-2.1.4-3.2v-.4z"/><path class="st2" d="M23 34.8c1.4.7 2.9 1 4.4 1 4.9 0 9-3.6 10.3-8.6A18.2 18.2 0 0 1 23 34.8z"/><path d="M23.5 24.2c0 .5-.3.8-.6.8-.4 0-.6-.4-.6-.8 0-.5.3-.8.6-.8s.6.4.6.8z"/><ellipse cx="33" cy="24.2" rx=".6" ry=".8"/><path class="st4" d="m19.3 16.6.1-.5h-.1v.5zM19.2 16.1c0-.1 0-.1 0 0z"/><path d="M27.3 27.6c-.3.3 0 1 .2 1.3.3.4.9.5 1.3.4.5 0 .5-.8 0-.8-.3 0-.6 0-.8-.2-.2-.2-.2-.6-.5-.7h-.2zM29.1 26.9c1 .1 1.9-2.2.9-2.8-.7-.4-1.4.7-1.8.2-.4-.4-.2-2.2-.1-2.7 0-1 .1-2.1.4-3.1.2-.5-.7-.8-.8-.2-.5 1.7-.9 5-.1 6.6.2.4.3.6.8.6l.4-.1c.4-.5.7-.4.8.4l-.5.7c-.2.1-.2.4 0 .4z"/><path d="M35.8 15.2c.1.1.3 4.7 2.2 6.7 0 0 1-.3 1.6 0 0 0-.2-5.9-1.2-7.6-.9-1.7-2.6.9-2.6.9z" style="fill:#1e1d35"/><path d="M29.4 6.8h-4.6a24.6 24.6 0 0 1-10.4 5.7c-.4.6-.7 1.3-.9 1.9a25 25 0 0 0 15.9-7.6z" style="fill:#343351"/><path class="st7" d="M37.7 10.7c1.7-4.2-1.3-5.8-3.6-5.7-1.9.1-1.5 1.6-4.7 1.8a25 25 0 0 1-15.9 7.7c-.9 3.7 1.3 7.8 1.3 7.8.8-.7 2.3-.2 2.3-.2.9-1.5 2.3-6.7 2.3-6.7s6.7 1.1 12 1.4c4.2.3 7.6-1.1 8-4 .3-2.9-1.7-2.1-1.7-2.1zM14.4 12.5c3.9-1.1 7.6-3 10.4-5.7-4.3.3-6.2 1.9-6.2 1.9s.1-2.9-.8-2.9-.6 3.7-.6 3.7-1.3-3-2-2.4 1.1 3.5 1.1 3.5c-.9.6-1.5 1.2-1.9 1.9z"/><path class="st4" d="M27.9 41.1s-2.9-.6-3.6-1.4l.5-.9s-1.2-.3-1.8 1c-.5 1.2 0 1.5.8 2.2.8.7 1.2 1.6 1.9 1.9.6.3 1.9-1.4 2.2-2.8z"/><path class="st4" d="M27.5 41s2.9-.6 3.6-1.4l-.5-.9s1.2-.3 1.8 1 .1 1.5-.7 2.2c-.8.7-1.2 1.6-1.9 1.9-.6.3-2-1.4-2.3-2.8z"/><path class="st7" d="M18.9 21.3c-.1-.1.9-2.7 2.2-2.9.7 0 .7.3.7.3s.9-1 1.4-.3c.2.3-.4.8-.4.8s1-.2.5.6-2.9.4-4.2 1.5M35.9 21.3c.1-.1-.9-2.7-2.2-2.9-.7 0-.7.3-.7.3s-.9-1-1.4-.3c-.2.3.4.8.4.8s-1-.2-.5.6 2.9.4 4.2 1.5"/><path class="st8" d="M22 27.9a8 8 0 0 1-2.7-.4c-1.8-.9-1.4-5.2-1.4-5.4 0-.9 3.6-1.5 5.8-1.6h.5c1.1 0 1.8.2 2.2.7.4.5.4 1 .4 1l-.3 4.2c-.2 1.1-2.6 1.5-4.5 1.5zm2.2-6.9h-.5c-3.2.2-5.2.9-5.4 1.2-.1 1.1-.2 4.2 1.1 4.9.4.2 1.4.4 2.5.4 2.1 0 3.9-.5 4-1.1.3-1.7.3-4.1.3-4.2 0 0 0-.4-.2-.6-.3-.4-.9-.6-1.8-.6zM38.1 22.1c0-.9-3.6-1.5-5.8-1.7h-.5c-1.1 0-1.8.2-2.2.7-.4.5-.4 1-.4 1l.1 2h.5l-.1-2 .2-.6c.3-.4 1-.6 1.9-.6h.5c3.2.2 5.2.9 5.4 1.2.1 1.1.2 4.2-1.1 4.9-.4.2-1.4.4-2.5.4-2.1 0-3.9-.5-4-1.1V26l-.2.4-.1.2c.4 1 2.6 1.3 4.4 1.3a8 8 0 0 0 2.7-.4c1.7-.9 1.2-5.2 1.2-5.4z"/><path class="st8" d="m26.5 24.3-.2-.4c.1 0 1.7-.9 3.4 0l-.2.4c-1.5-.8-3-.1-3 0z"/></svg>