<svg version="1.1" id="WordPress" xmlns="http://www.w3.org/2000/svg" x="0" y="0" viewBox="0 0 55 55" style="enable-background:new 0 0 55 55" xml:space="preserve"><style>.st0{fill:#f9b28f}.st1{fill:#feb01b}.st2{fill:#db4d28}.st5{fill:#e95f33}.st6{fill:#2c2945}</style><path class="st0" d="M17.9 24.2c0 1.7-1.3 3.2-3 3.2s-3-1.4-3-3.2c0-1.7 1.3-3.2 3-3.2s3 1.4 3 3.2zM40.8 24.2c0 1.7-1.3 3.2-3 3.2s-3-1.4-3-3.2c0-1.7 1.3-3.2 3-3.2s3 1.4 3 3.2z"/><path class="st1" d="M22.6 39.8s-6.6.5-7.2 3.9c-.5 3.1-1.3 8.2-1.3 8.2s12.6 5.8 24.3 0l-1.2-8.3s-1.4-3.7-6.6-3.9l-8 .1z"/><path class="st2" d="M28.2 34.4c-.2 0 .7 3.6.3 4-.5.4 3.1.2 4.6.2 1.5 0 3.6.8 4.4-.5.8-1.3-.9-3.7-1-5.4-.1-1.7-.2-3.8-.2-3.8s-6.5 5.5-8.1 5.5z"/><path d="M22.6 39.8s1 1.3 3.9 1.3 4.1-1.3 4.1-1.3-1-1-1.7-2.5c-1.6.7-3.5 1.1-5.3 1.2-.2.4-.6.9-1 1.3z" style="fill:#fccfb6"/><path class="st0" d="M24.5 35.1s-.1 1.8-.9 3.3c1.8-.1 3.7-.5 5.3-1.2-.3-.6-.5-1.4-.5-2.2 0 0-2.1.4-3.9.1z"/><path d="M37.1 23.3c0 6.6-4.9 11.9-10.9 11.9s-10.9-5.3-10.9-11.9 3.1-13.6 11-13.6c8.9 0 10.8 7 10.8 13.6z" style="fill:#fcceb6"/><path class="st0" d="M23.5 27.5c-.3 1.1-1.8 1.6-3.4 1.1-1.6-.4-2.6-1.7-2.3-2.7.3-1.1 1.8-1.6 3.4-1.1 1.6.4 2.6 1.6 2.3 2.7zM35 26.2c.2 1.1-.9 2.2-2.6 2.5-1.6.3-3.1-.4-3.3-1.4-.2-1.1.9-2.2 2.6-2.5 1.6-.4 3.1.3 3.3 1.4z"/><path d="M12.8 24.3c0 .1 0 .1 0 0h.2c.3-.3.6-.6 1.1-.6.6 0 .8.4 1.1.8.1.1.4.1.5-.1.1-.8-.8-1.4-1.5-1.4s-1.4.5-1.5 1.2c0-.1.1-.1.1-.2-.2.1-.2.3 0 .3z"/><path d="M13.9 25.1c.2-.1.5-.2.7-.3.2-.1.5-.1.7-.1.5 0 .5-.7 0-.7-.3 0-.7 0-1 .2-.2.1-.3.2-.4.3-.1.1-.1.3-.2.4-.1.1 0 .3.2.2zM39.7 24s.1.1.1.2c0-.8-.8-1.2-1.5-1.2s-1.6.6-1.5 1.4c0 .2.3.3.5.1.3-.4.5-.8 1.1-.8.5 0 .8.3 1.1.6 0 0 .1.1.2 0 .2 0 .2-.2 0-.3z"/><path d="M38.8 24.9c-.1-.1-.1-.2-.2-.4-.1-.1-.3-.3-.4-.3-.3-.2-.7-.2-1-.2-.5 0-.5.7 0 .7.3 0 .5-.1.7.1.2.1.4.2.7.3.2.1.3-.1.2-.2z"/><path class="st5" d="M15.7 27.2c-1 .3-3.6-.2-3.8-3 .3-3.4 3.6-3.2 3.6-3.2 3.1-2.7 2.9-8.6 2.9-8.6l-.1-1.2s-.9-4.6-1.8-4.3c-.8.3.5 4.3.5 4.3S14.6 8.3 14 9c-.6.7 2.9 2.8 2.9 2.8C11 11 9 15.9 9.5 17.5s2.8 3.4.4 5.4-2.6 4.7-1.7 5.9c.9 1.2 2.6 1.9 2.3 3.9s-1.3 4.2-.3 5.2c.4.4 2.6.7 3.8.7.6 0 .8-2.4.8-2.4.5 0 .1 2.3.7 2.2.4 0 1.1 0 1.8.1 1.3-3.5-1.1-7.5-1.6-11.3z"/><path class="st2" d="M23.3 34.8c-5.5-2-7.3-7.7-7.3-7.7-.1 0-.2.1-.3.1.5 3.8 2.8 7.8 1.7 11.3.6.1 1.2.1 1.6.1 2.9 0 4.5.1 4.6-.1.8-1.1.9-3.4.9-3.4l-1.2-.3z"/><path class="st1" d="M14.6 26.3c-.8 0-1.2.9-1.4 1.6-.2.9 0 1.9.6 2.6 1.1 1.2 2.9 1.8 4.1.5.2-.2-.1-.6-.4-.4-.9.9-2.1.7-3.1 0-1.2-.9-1.6-3.5.1-4.1.2-.1.2-.2.1-.2z"/><path d="M26.2 41.1c0 4.5.1 8.9.1 13.4 0 .3.5.3.5 0 0-4.5-.1-8.9-.1-13.4 0-.4-.5-.4-.5 0zM17.8 53.1c.1-1.4.1-2.8.2-4.1 0-.3-.5-.3-.5 0-.1 1.4-.1 2.8-.2 4.1 0 .4.5.4.5 0zM35.4 53.1c0-1.4-.1-2.8-.1-4.2 0-.3-.6-.3-.5 0 0 1.4.1 2.8.1 4.2 0 .4.5.4.5 0z"/><path class="st5" d="M28 44.6c0 .3-.2.5-.4.5s-.4-.2-.4-.5.2-.5.4-.5.4.2.4.5z"/><ellipse class="st5" cx="27.8" cy="52.6" rx=".4" ry=".5"/><path class="st5" d="M28 48.7c0 .3-.2.5-.4.5s-.4-.2-.4-.5.2-.5.4-.5.4.2.4.5z"/><path class="st6" d="M23.5 38.6s-1.7.3-2.2.9c-.5.7-.2 5 1 5.6 1.2.6 4-4 4-4s2.3 3.1 3.9 3.5c1.5.5 2.2-4.9 1.6-5.5-.6-.5-2.1-.7-2.1-.7l1 1.3s-1.7 1.1-4.4 1.1c-2.4 0-3.5-.8-3.5-.8l.7-1.4z"/><path d="M24.8 26.7c.2.8.8 1.5 1.6 1.7.8.2 1.9.2 2.2-.7.1-.3-.3-.7-.6-.6-.2.1-.3.2-.5.3-.3.1-.7.1-1 0-.5-.1-1-.5-1.3-1-.1-.1-.5 0-.4.3zM26.8 26.3c1-.2 2.3-1.7 1.2-2.5-.3-.2-.4 0-.7-.2-.8-.4-.7-.7-.7-1.6 0-1.4 0-2.8.2-4.2.1-.4-.7-.5-.8-.1-.2 1.2-.2 2.5-.2 3.8 0 .9-.2 2 .3 2.8.1.1.2.2.3.2.9 0 .7.8.2 1.3-.2.3 0 .6.2.5zM18 20.8c.7-.1 1.3-.6 1.9-.9.9-.4 1.7-.7 2.7-.9.3-.1.3-.5.1-.7-.7-.5-2 0-2.6.4-.9.5-1.6.9-2.2 1.7-.1.2-.1.4.1.4zM30.1 18.3c.7.1 1.8.9 2.3 1.3.5.4.9 1.1 1.5 1.4.3.1.6-.1.5-.4-.2-.8-1.1-1.4-1.8-1.8-.6-.4-1.8-1.1-2.6-1-.2 0-.3.4.1.5z"/><ellipse cx="21.1" cy="22.8" rx=".8" ry="1"/><ellipse cx="31.9" cy="22.8" rx=".8" ry="1"/><path class="st6" d="M20.3 28.6c-2.8 0-5.1-2.3-5.1-5.1s2.3-5.1 5.1-5.1 5.1 2.3 5.1 5.1-2.3 5.1-5.1 5.1zm0-9.7c-2.5 0-4.6 2.1-4.6 4.6 0 2.5 2.1 4.6 4.6 4.6 2.5 0 4.6-2.1 4.6-4.6 0-2.5-2.1-4.6-4.6-4.6zM32.8 28.6c-2.8 0-5.1-2.3-5.1-5.1s2.3-5.1 5.1-5.1 5.1 2.3 5.1 5.1-2.3 5.1-5.1 5.1zm0-9.7c-2.5 0-4.6 2.1-4.6 4.6 0 2.5 2.1 4.6 4.6 4.6 2.5 0 4.6-2.1 4.6-4.6 0-2.5-2.1-4.6-4.6-4.6z"/><path class="st6" d="m25.2 23.6-.3-.3s1-1 3-.2l-.1.4c-1.7-.6-2.6.1-2.6.1z"/><path class="st2" d="M25 8c-2.5.2-5 1.2-6.7 2-.1.1-.1.3-.2.4 0 0 .1 1 .3 2.9 0 0 3.8-3.6 9.5-1.9 1.6.4 2.6 1.2 2.7 2.3.9-2.7-1.6-6-5.6-5.7z"/><path class="st5" d="M45.6 28.9c1.1-2 3-4.6.2-8.1-2.7-3.5-3.8-1.5-4.2-6-.3-3.8-2.8-8-7.6-9.3-4.5-1.3-13.3-.8-15.7 4.5 1.7-.8 4.2-1.7 6.7-2 4-.3 6.5 3 5.6 5.7 0 .4 0 .8-.2 1.2-.7 1.8.6 4.3 4.4 7.1 3.3 2.5 1.9 4.1.7 7.7s-1.4 5 1 7c.9.7.7 2.4.7 2.4s2.4-.2 3.5 0c.4.1-.4-2 .1-1.9.4 0 .8 1.9 1.2 1.9 1.3 0 3 .1 4.1-.2 1.1-.3.4-3.9-.1-5.1s-1.1-3.7-.4-4.9z"/><path d="M27.7 54.5c.1-1.4.1-2.8.2-4.1 0-.3-.5-.3-.5 0-.1 1.4-.1 2.8-.2 4.1-.1.3.4.3.5 0z"/><path d="M27.8 54.5c0-1.4-.1-2.8-.1-4.2 0-.3-.6-.3-.5 0 0 1.4.1 2.8.1 4.2 0 .3.6.3.5 0z"/></svg>