<svg version="1.1" id="WordPress" xmlns="http://www.w3.org/2000/svg" x="0" y="0" viewBox="0 0 55 55" style="enable-background:new 0 0 55 55" xml:space="preserve"><style>.st1{fill:#f9b28f}.st3{fill:#f2a381}.st4{fill:#feb01b}.st5{fill:#fad8b4}.st6{fill:#fcd0a7}.st7{fill:#d67b63}</style><path d="M19.7 53.2c.1-1.5.2-2.9.2-4.4 0-.2-.3-.2-.3 0-.1 1.5-.2 2.9-.2 4.4 0 .2.3.2.3 0zM38.2 53.2c-.1-1.5-.1-2.9-.2-4.4 0-.2-.3-.2-.3 0 .1 1.5.1 2.9.2 4.4 0 .2.3.2.3 0z"/><path d="M29.1 41.7c3.2 0 5-1.2 5.9-2.4h-.2c-.4-.1-.8-.1-1.2-.1h-.1l-8.4.1s-.4 0-.9.1c-.1 0-.3 0-.4.1-.3 0-.6.1-.9.2.4.6 2.1 2 6.2 2z" style="fill:#e95f33"/><path class="st1" d="M16.5 49.4c-.2 1.5-.4 2.6-.4 2.6s1.3.6 3.4 1.2l.2-2.6s-1.6-.1-3.2-1.2z"/><path d="M41.3 49.5v-.2L41 48l-.5-3.4-.2-1.4s-.5-1.2-1.8-2.3c-.8-.7-2-1.3-3.6-1.6-.9 1.2-2.7 2.4-5.9 2.4-4.1 0-5.8-1.4-6.4-2.1-1.1.3-2.5.7-3.6 1.4-.8.6-1.5 1.3-1.7 2.3-.1.5-.2 1-.2 1.5-.2 1.2-.4 2.4-.6 3.5 0 .3-.1.6-.1.9v.1c1.6 1 3.3 1.2 3.3 1.2l-.2 2.6c.1 0 .1 0 .2.1 4.1 1.2 11.1 2.4 18.2.1.1 0 .2-.1.3-.1l-.2-2.6s1.6-.1 3.3-1.1z" style="fill:#3793b5"/><path class="st1" d="M41.3 49.5c-1.6 1-3.2 1.2-3.2 1.2l.2 2.7c1.1-.4 2.3-.8 3.4-1.4l-.4-2.5z"/><path class="st3" d="M20 22.9c0 1.8-1.4 3.3-3.2 3.3-1.7 0-3.2-1.5-3.2-3.3 0-1.8 1.4-3.3 3.2-3.3 1.8 0 3.2 1.4 3.2 3.3zM44 22.8c0 1.8-1.4 3.3-3.2 3.3-1.7 0-3.2-1.5-3.2-3.3 0-1.8 1.4-3.3 3.2-3.3 1.8 0 3.2 1.5 3.2 3.3z"/><path class="st1" d="M24.9 39.2s1.1 1.4 4.1 1.3 4.3-1.4 4.3-1.4-1.1-1-1.8-2.6c-1.7.8-3.7 1.2-5.6 1.3-.1.5-.5 1-1 1.4z"/><path class="st3" d="M26.6 34s.2 2.2-.6 3.8c1.9-.1 3.9-.5 5.6-1.3-.3-.7-.5-1.4-.6-2.3.1 0-2.6.3-4.4-.2z"/><path d="M14.6 23h.1c.3-.4.6-.7 1.2-.7.6-.1 1 .4 1.3.9.1.1.3.1.3-.1 0-.7-.8-1.2-1.4-1.2-.4 0-.8.1-1.1.4-.1.1-.5.7-.4.7-.1-.2-.1 0 0 0z"/><path d="M15.7 23.8c.2-.1.5-.3.7-.4.2-.1.5-.1.8-.1.3 0 .3-.4 0-.4s-.6 0-.9.1c-.2.1-.3.2-.4.3-.1.1-.1.2-.2.3-.1.1 0 .2 0 .2zM42.9 22.7c.1 0-.3-.6-.4-.7-.3-.2-.7-.4-1.1-.4-.7 0-1.4.5-1.4 1.2 0 .2.2.2.3.1.3-.5.6-.9 1.3-.9.5 0 .9.3 1.2.7 0 0 .1.1.1 0 .1.2.1 0 0 0z"/><path d="M41.9 23.6c-.1-.1-.1-.2-.2-.3-.1-.1-.3-.2-.4-.3-.3-.2-.6-.1-.9-.1-.3 0-.3.4 0 .4s.6-.1.8.1c.2.1.4.3.7.4v-.2zM19.7 53.2c.1-1.5.2-2.9.2-4.4 0-.2-.3-.2-.3 0-.1 1.5-.2 2.9-.2 4.4 0 .2.3.2.3 0zM38.2 53.2c-.1-1.5-.1-2.9-.2-4.4 0-.2-.3-.2-.3 0 .1 1.5.1 2.9.2 4.4 0 .2.3.2.3 0z"/><path class="st1" d="M40.2 21.6c-.1-6-1.8-12.3-8.5-13.7-1.8 7-6.9 13.1-14.3 13.7v.4c0 5.1 2.8 9.4 6.7 11.4 6.2.2 11.9-3.2 15.7-8 .3-1.1.4-2.3.4-3.4v-.4z"/><path class="st3" d="M31.7 7.9c-.9-.2-1.9-.3-3-.3-8.1 0-11.2 7.1-11.4 13.8v.2C24.8 21 29.9 15 31.7 7.9zM24.1 33.4c1.4.7 3 1.1 4.7 1.1 5.2 0 9.6-3.9 10.9-9.1-3.7 4.8-9.4 8.1-15.6 8z"/><path d="M24.6 22.1c0 .5-.3.9-.7.9-.4 0-.7-.4-.7-.9s.3-.9.7-.9c.4 0 .7.4.7.9zM35.4 22.1c0 .5-.3.9-.7.9s-.7-.4-.7-.9.3-.9.7-.9.7.4.7.9z"/><path class="st4" d="M20.1 13.9c0-.2.1-.4.1-.5h-.1v.5zM20 13.4c0-.1 0-.1 0 0z"/><path d="M28.3 26.7c-.1.4.2 1 .5 1.2.3.2 1 .4 1.3.2.1-.1.1-.2 0-.3-.3-.2-.7 0-1-.2-.3-.2-.4-.7-.6-1-.1 0-.2 0-.2.1zM30.3 26.1c.6-.4 2.2-2.4.8-2.8-1.1-.4-1.4 1.9-2.4-.2-.3-.5 0-1.7 0-2.3 0-.7-.1-2.3.3-2.9.1-.1-.1-.3-.2-.2-.4.3-.4 1.5-.4 1.9-.1 1.2-.3 2.9.1 4.1.1.5.2.9.8 1 .3 0 .5-.3.8-.4.4-.5.8-.3 1.1.5-.2.5-.5.9-.9 1.3-.3-.1-.1.1 0 0z"/><path class="st3" d="M25.4 26.6c-.2.8-1.5 1.2-2.9.8-1.4-.3-2.4-1.2-2.2-2 .2-.8 1.5-1.2 2.9-.8 1.4.3 2.4 1.2 2.2 2zM37 24.5c.4.7-.3 1.9-1.5 2.6-1.3.7-2.6.8-3 .1-.4-.7.3-1.9 1.5-2.6 1.3-.8 2.6-.8 3-.1z"/><path d="M21.3 20.3c.1 0 1-1.1 1.2-1.3.6-.5 1.3-.9 2-1.3.1-.1 0-.3-.1-.2-.7.3-1.4.7-1.9 1.2-.5.4-1 1-1.2 1.6 0 .1 0 .2.1.1-.1 0-.1-.1-.1-.1zM33.5 17.1c.2.2.3-.1.1-.1-.2-.1-.2.1-.1.1 1.1.7 2.1 1.5 3 2.3.1.1.3 0 .2-.1-.8-1-2-1.7-3.1-2.3 0 0 0 .1-.1.1l.1.1c.2 0 .1-.3-.1-.2v.1c0-.1 0-.1 0 0z"/><path class="st5" d="M22.6 44.6s-4.7 1.8-2 5.8c2 3.1 6.1 1.6 7.5 3.8 1.4 2.2 1.5-3.8.2-6.5-1.4-2.6-3.6-4.2-5.7-3.1z"/><path class="st5" d="M12.6 35.3c-.6 1.8-.8 4.4 1.1 6.4 3.4 3.6 9.6 4.2 9.6 4.2s3.3-4.1 2.2-8.1c0-.1-.1-.2-.1-.2-1.1.9-2.3 1.6-3.4 2.1-3.6 1.2-6.4-2.3-9.4-4.4z"/><path class="st6" d="m21.2 33.5-7.5-.6s-.7 1-1.1 2.4c3 2.1 5.8 5.6 9.4 4.3 1.1-.4 2.3-1.1 3.4-2.1-1.2-3.7-4.2-4-4.2-4z"/><path class="st5" d="M31.7 15.1zM37.2 6.1C30.2 3.6 24 5.2 19 9.7c0 0-8 2.2-7.6 7.4.4 5.1 1.1 5.4 1.1 5.4s.1 1.2-.6 3.4-2 4.3.5 7.2c2.4 2.9 7.8 5.5 7.8 5.5s4.2-1.6 4.7-4.8c0 0-3.2-1.3-4.4-3.2s-2-3-2.4-4.7c0 0-3.9.7-4.4-2.5-.3-1.8 1.4-4.3 3.8-3.5 0 0 .7-2 .9-4.3 0 0 .1 2.3 1.2 2.1 1.1-.2.7-3.1.7-3.1s.1 1.2 1.5.8c1.4-.4 1.1-3.3 1.1-3.3l.5.5c-.1-.9-.1-1.8-.3-2.6 1.1 2.6 3.7 4.7 6.3 4.2 1.1-.5 1.1-2.6.5-3.7 2.1 3.2 4.2 7.4 7.9 6.9 2.1 0 2.1-3.2 1.1-5.3.6 1.5 2.1 2.9 3.8 3.5-.3-3.4-1.4-8-5.5-9.5z"/><path class="st6" d="M38.8 12.2c1.1 2.1 1.1 5.3-1.1 5.3-3.7.5-5.8-3.7-7.9-6.9.5 1.1.5 3.2-.5 3.7-2.6.5-5.3-1.6-6.3-4.2.3.8.3 1.7.3 2.6 1.5 1.5 5.9 5.8 7.7 5.5 2.1-.4.9-2.7.7-3v-.1.1c.4.6 3.9 6.6 6.4 6.1 2.6-.6 2.1-1.7 2.1-1.7l2.4.5s.3-1.9.1-4.3c-1.8-.8-3.3-2.1-3.9-3.6z"/><path class="st7" d="M15 29.7c2.2 1.1 3.5 3.2 4.7 5.2.1.1.3 0 .2-.1-.5-1.4-1.4-2.6-2.4-3.7-.4-.4-1.9-2-2.6-1.7.1.1.1.3.1.3z"/><path class="st7" d="M18.8 32.6c0-.8.1-1.6.2-2.4 0-.2-.2-.2-.3-.1-.2.8-.2 1.7-.2 2.5.1.1.2.1.3 0zM17.3 39.3s0 .1.1.1c0-.1.1-.1.1-.2-.1 0-.1 0-.2.1-.1-.1-.1.1 0 .1 2.1.4 3.5 2.6 4.7 4.3.1.2.3 0 .3-.2-.5-1.1-1.3-1.9-2.1-2.8-.8-.9-1.6-1.4-2.8-1.6v.2h.1c.1 0 .2-.1.1-.2 0 0-.1 0-.1-.1-.2.2-.3.2-.2.3z"/><path class="st7" d="M21 41.3c-.2-.2.4-1.6.5-1.9.4-1 .8-1.9 1.4-2.8.1-.2-.2-.3-.3-.2-.6.8-1 1.7-1.3 2.6-.2.7-.7 1.6-.6 2.3 0 .1.1.1.2.1l.1-.1c.1.1.1.1 0 0z"/></svg>