<svg version="1.1" id="WordPress" xmlns="http://www.w3.org/2000/svg" x="0" y="0" viewBox="0 0 55 55" style="enable-background:new 0 0 55 55" xml:space="preserve"><style>.st0{fill:#fcceb6}.st1{fill:#3793b5}.st2{fill:#64ad99}.st3{fill:#f9b28f}.st4{fill:#feb01b}</style><path d="M19.3 53.4c.1-1.4.1-2.8.2-4.1 0-.2-.3-.2-.3 0-.1 1.3-.2 2.7-.2 4.1-.1.1.2.1.3 0zM36.8 53.4c0-1.4-.1-2.8-.1-4.1 0-.2-.3-.2-.3 0 0 1.4.1 2.8.1 4.1 0 .1.3.1.3 0z"/><path class="st0" d="M20.2 41c-.5.2-1.1.5-1.5.8-.8.6-1.4 1.3-1.6 2.2-.1.4-.2.9-.2 1.4-.2 1.1-.4 2.3-.5 3.4-.3 1.9-.5 3.4-.5 3.4s1.3.6 3.3 1.2l.1-3.3c.9-2.4.9-7.1.9-9.1zM39.5 48.4l-.5-3.3-.2-1.3s-.4-1.1-1.7-2.2c-.2-.1-.4-.3-.6-.4-.3-.2-.6-.4-1-.5 0 1.9 0 6.9 1 9.3l.1 3.5c1.2-.4 2.3-.8 3.5-1.4l-.6-3.7z"/><path class="st1" d="M35.6 44.1c-.1-1.4-.1-2.6 0-3.4-.6-.3-1.2-.5-2-.6-.5-.1-.9-.1-1.4-.1l-8 .1s-.5 0-1.3.2c-.6.1-1.3.3-2 .5-.2.1-.4.2-.7.2v2.7c4.9 1.4 10.3 1.5 15.4.4zM36.5 49.9c-.3-.9-.6-2-.7-3.3-5.3 1.6-10.8 2.3-15.9.6-.1 1-.4 2-.7 2.7v.1c5.4 2.2 11.5 1.7 17.3-.1z"/><path class="st2" d="M36.5 49.9c-5.7 1.8-11.9 2.3-17.3.2l-.1 3.2c3.9 1.1 10.6 2.3 17.4.1v-3.5zM35.8 46.6c-.1-.8-.2-1.7-.2-2.5-5.1 1.1-10.4 1-15.4-.4 0 1.1-.1 2.4-.3 3.6 5.1 1.6 10.6.9 15.9-.7z"/><path class="st3" d="M19.6 24.5c0 1.7-1.3 3.1-3 3.2-1.7 0-3-1.4-3-3.1 0-1.7 1.3-3.1 3-3.2 1.6 0 2.9 1.4 3 3.1zM42.4 24.4c0 1.7-1.3 3.1-3 3.2-1.7 0-3-1.4-3-3.1 0-1.7 1.3-3.1 3-3.2 1.6 0 2.9 1.4 3 3.1z"/><path class="st0" d="M24.2 40s1 1.3 3.9 1.3c2.8 0 4.1-1.4 4.1-1.4s-1-.9-1.7-2.5c-1.6.7-3.5 1.1-5.3 1.2-.2.6-.5 1.1-1 1.4z"/><path class="st3" d="M26.1 35.4s-.1 1.8-.9 3.3c1.8-.1 3.7-.5 5.3-1.2-.3-.6-.5-1.4-.5-2.2 0 0-2.2.5-3.9.1z"/><path d="M14.4 24.6h.1c.3-.4.6-.7 1.1-.7.6-.1.9.3 1.2.8.1.1.3.1.3-.1 0-.6-.7-1.1-1.3-1.1-.4 0-.7.1-1 .4-.1.1-.4.6-.4.6-.1 0-.1.1 0 .1z"/><path d="M15.5 25.4c.2-.1.4-.3.6-.4.2-.1.5-.1.8-.1.3 0 .3-.4 0-.4s-.6 0-.9.1c-.1.1-.3.2-.4.3-.1.1-.1.2-.2.3-.1.1 0 .2.1.2zM41.2 24.4c.1 0-.3-.6-.4-.6-.3-.2-.7-.4-1-.4-.6 0-1.3.5-1.3 1.2 0 .2.2.2.3.1.3-.5.6-.9 1.2-.8.5 0 .8.3 1.1.7h.1c.1-.1.1-.2 0-.2z"/><path d="M40.3 25.2c-.1-.1-.1-.2-.2-.3-.1-.1-.3-.2-.4-.3-.3-.1-.6-.1-.9-.1-.3 0-.3.4 0 .4s.5 0 .8.1c.2.1.4.3.6.4.1 0 .2-.1.1-.2zM19.3 53.4c.1-1.4.1-2.8.2-4.1 0-.2-.3-.2-.3 0-.1 1.3-.2 2.7-.2 4.1-.1.1.2.1.3 0zM36.8 53.4c0-1.4-.1-2.8-.1-4.1 0-.2-.3-.2-.3 0 0 1.4.1 2.8.1 4.1 0 .1.3.1.3 0z"/><path class="st0" d="M38.7 23.3C38.6 16.8 36.6 10 27.8 10c-7.7 0-10.7 6.7-10.8 13.1v.5c0 4.8 2.6 8.9 6.4 10.8 5.9.2 11.3-3 14.9-7.6.3-1 .4-2.1.4-3.3v-.2z"/><path class="st3" d="M23.4 34.5c1.4.7 2.9 1.1 4.5 1.1 5 0 9.1-3.7 10.4-8.7-3.6 4.6-9 7.7-14.9 7.6z"/><path d="M23.9 23.8c0 .5-.3.8-.7.8-.4 0-.7-.4-.7-.8 0-.5.3-.8.7-.8.4 0 .7.3.7.8zM34.2 23.8c0 .5-.3.8-.7.8-.4 0-.7-.4-.7-.8 0-.5.3-.8.7-.8.4 0 .7.3.7.8z"/><path class="st4" d="M19.6 16c0-.2.1-.4.1-.5h-.1v.5zM19.6 15.6c0-.2 0-.2 0 0z"/><path d="M27.8 27.3c-.1.4.2.9.5 1.2.3.2.9.4 1.2.2.1-.1.1-.2 0-.3-.3-.2-.7 0-1-.2-.3-.2-.4-.6-.5-.9h-.2zM28.3 19.9c.2 0-.7 4.7.3 5.3.2.1.3.2.6 0s.3-1 1-.5c.3.3-.7 1.3-.9 1.5.1.1.3.1.4.2v-.1c0-.3-.4-.3-.4 0v.1c0 .2.2.3.4.2.5-.4 1.9-2.2.6-2.6-.7-.2-.7.7-1.1.8-.8.3-.5-2.5-.5-2.7v-2.3c0-.1-.1-.1-.1-.1h-.1c-.4 0-.4.2-.2.2z"/><path class="st4" d="M19.9 20.8c-.1-.1 1-2.7 2.2-2.9.7 0 .7.3.7.3s.9-1.1 1.5-.4c.2.3-.4.8-.4.8s1-.2.5.6c-.5.9-3 .4-4.2 1.5M36.5 20.8c.1-.1-1-2.7-2.2-2.9-.7 0-.7.3-.7.3s-.9-1.1-1.5-.4c-.2.3.4.8.4.8s-1-.2-.5.6c.5.9 3 .4 4.2 1.5M40.6 13.9c0 .2-.1.4-.1.6.2 0 .4-.1.6-.1l-.5-.5z"/><path d="M40.5 14.6c-4.6.9-7-3.8-9.4-6.7-2 4.5-8.5 6.5-13.5 5 0 3-.6 6.3-2.5 8.6.3.1.4.1.4.1.9-.5 1.7.2 1.7.2 2.1-.5 3.1-7.8 3.1-7.8s2.4.5 5.6 1.5c3.3 1 6.8-1.8 6.8-1.8s.6 1 1.6 3.4 3.8 1.4 4.1 1.9c.3.5.4 4.3.8 3.3s2.3-.2 2.3-.2c.8-.5 1.3-1.2 1.6-1.9-1.8-1.3-2.9-3.2-2.6-5.6z" style="fill:#f79c0b"/><path class="st4" d="M31.1 7.9c2.4 2.9 4.8 7.6 9.4 6.7 0-.2.1-.4.1-.6l.5.5c-.2.1-.4.1-.6.1-.3 2.4.8 4.3 2.4 5.6 1-2.6-1.2-5.8-1.2-5.8s.9-.3 1.1-2.2-3.1-2.2-3.1-2.2 1.3-2.5-.2-4.2c-1.5-1.8-4.4-.6-8.1 0s-3.6-1-8.8-.9c-5.1.1-7.2 4.8-7.2 4.8s-.5.9-1.7 2.1c-1.2 1.2-2.5 5.1-1.7 7.3.6 1.6 2.2 2.2 3 2.3 2-2.3 2.5-5.6 2.5-8.6 5.1 1.6 11.6-.4 13.6-4.9z"/></svg>