<svg version="1.1" id="WordPress" xmlns="http://www.w3.org/2000/svg" x="0" y="0" viewBox="0 0 55 55" style="enable-background:new 0 0 55 55" xml:space="preserve"><style>.st0{fill:#3793b5}.st1{fill:#fcceb6}.st2{fill:#f9b28f}.st4{fill:#2c2945}.st5{fill:#1e1d35}</style><path d="M18 53.3c.1-1.4.2-2.9.2-4.3 0-.2-.3-.2-.3 0-.1 1.4-.2 2.9-.2 4.3-.1.2.2.2.3 0zM36.3 53.3c-.1-1.4-.1-2.9-.2-4.3 0-.2-.3-.2-.3 0 .1 1.4.1 2.9.2 4.3 0 .2.4.2.3 0z"/><path class="st0" d="M23.2 39.3s-.6 0-1.4.2c-1.3.2-3.1.7-4.4 1.6-.8.6-1.5 1.3-1.7 2.3-.1.5-.2 1-.2 1.5-.2 1.1-.4 2.4-.6 3.5-.3 2-.5 3.6-.5 3.6s5.7 2.6 13 2.6c-.4-5.2.1-10.9-2.7-15.4l-1.5.1z"/><path class="st1" d="M24.6 39.3c1.7 2.7 2.2 6 2.4 9.2.7-3.1 1.7-6.2 2.9-9.3l-5.3.1z"/><path class="st0" d="m39.8 52-.6-4-.5-3.4-.2-1.4s-.5-1.2-1.8-2.3c-.9-.7-2.1-1.3-3.8-1.6-.4-.1-.9-.1-1.3-.1h-1.7c-1.2 3-2.2 6.1-2.9 9.3.1 2.1.2 4.2.3 6.1 3.9.1 8.3-.5 12.5-2.6z"/><path class="st2" d="M18.3 23c0 1.8-1.4 3.3-3.1 3.3-1.7 0-3.2-1.5-3.2-3.3 0-1.8 1.4-3.3 3.1-3.3 1.7 0 3.2 1.5 3.2 3.3zM42.2 22.9c0 1.8-1.4 3.3-3.1 3.3-1.7 0-3.2-1.5-3.2-3.3 0-1.8 1.4-3.3 3.1-3.3 1.8 0 3.2 1.5 3.2 3.3z"/><path class="st1" d="M23.2 39.3s1.1 1.4 4.1 1.3c3 0 4.3-1.4 4.3-1.4s-1.1-1-1.8-2.6c-1.7.8-3.6 1.2-5.6 1.3-.2.5-.6 1-1 1.4z"/><path class="st2" d="M25.2 34.4s-.1 1.9-.9 3.5c1.9-.1 3.9-.5 5.6-1.3-.3-.7-.5-1.4-.6-2.3 0 0-2.4.6-4.1.1z"/><path d="M12.9 23.1h.1c.3-.4.6-.7 1.1-.7.6-.1 1 .4 1.3.9.1.1.3.1.3-.1 0-.7-.8-1.2-1.4-1.2-.4 0-.8.1-1.1.4-.1.1-.5.7-.4.7 0-.1 0 0 .1 0z"/><path d="M14 23.9c.2-.1.4-.3.7-.4.2-.1.5-.1.8-.1.3 0 .3-.4 0-.4s-.6 0-.9.1c-.1.1-.3.2-.4.3-.1.1-.1.2-.2.3-.2.2-.1.3 0 .2zM41 22.9c.1 0-.3-.6-.4-.7-.3-.2-.7-.4-1.1-.4-.6 0-1.4.5-1.4 1.2 0 .2.2.2.3.1.3-.5.6-.9 1.3-.9.5 0 .9.3 1.2.7 0 0 .1.1.1 0 .1.1.1 0 0 0z"/><path d="M40 23.7c-.1-.1-.1-.2-.2-.3-.1-.1-.3-.2-.4-.3-.3-.2-.6-.1-.9-.1-.3 0-.3.4 0 .4s.6-.1.8.1c.2.1.4.3.7.4 0 0 .1-.1 0-.2zM18 53.3c.1-1.4.2-2.9.2-4.3 0-.2-.3-.2-.3 0-.1 1.4-.2 2.9-.2 4.3-.1.2.2.2.3 0zM36.3 53.3c-.1-1.4-.1-2.9-.2-4.3 0-.2-.3-.2-.3 0 .1 1.4.1 2.9.2 4.3 0 .2.4.2.3 0z"/><path class="st1" d="M38.4 21.8C38.3 15 36.2 7.8 27 7.9c-8.1 0-11.2 7-11.3 13.8v.5c0 5.1 2.8 9.4 6.7 11.3 6.2.2 11.8-3.2 15.6-8 .3-1.1.4-2.2.4-3.4v-.3z"/><path class="st2" d="M22.3 33.5c1.4.7 3 1.1 4.7 1.1 5.2 0 9.6-3.9 10.9-9.1-3.7 4.8-9.4 8.1-15.6 8z"/><path d="M22.8 22.3c0 .5-.3.9-.7.9-.4 0-.7-.4-.7-.9s.3-.9.7-.9c.4 0 .7.4.7.9z"/><ellipse cx="33" cy="22.3" rx=".7" ry=".9"/><path d="M18.3 13.6c0-.1 0-.1 0 0z" style="fill:#feb01b"/><path d="M26.5 26.8c-.1.4.2 1 .5 1.2.3.2 1 .4 1.3.2.1-.1.1-.2 0-.3-.3-.2-.7 0-1-.2-.3-.2-.4-.6-.6-1-.1 0-.2 0-.2.1zM28.5 25.7c.6-.4 2.1-2.1.9-2.6-.9-.4-1.8 1.4-2.4 0-.2-.6-.1-1.5-.1-2.1 0-.8-.2-2.3.3-2.9.1-.1-.1-.3-.2-.2-.4.2-.4 1.3-.4 1.8-.1 1.2-.2 2.5.1 3.7.1.4.2.9.8 1 .2 0 .4-.2.6-.3.5-.3.4-.6.9.1.4.7.1.9-.5 1.4-.2 0-.1.1 0 .1z"/><path class="st4" d="M18.3 19.6s1.4-2.4 2.3-2.6c0 0 1.5-1.5 2.4-.8.9.7 0 1.2 0 1.2s.3.3-.5.9c-.9.6-5.3 2.6-4.2 1.3zM35.2 19.6s-1.4-2.4-2.3-2.6c0 0-1.5-1.5-2.4-.8-.9.7 0 1.2 0 1.2s-.3.3.5.9c.9.6 5.3 2.6 4.2 1.3z"/><path class="st4" d="M28.1 10.4c0 1.1 1.1 1.1 1.6 1.6 2.1 1.1 4.2.5 6.3 0 0 2.6 2.6 3.7 4.7 3.7-1.5 2.3.2 3.7 2.3 4.4.1-1.3-.9-2.4-.9-2.4.7-5.7-3.7-5.8-3.7-5.8s1.3-1.9-.8-4.8-7.8-1.3-7.8-1.3c-3.2-3-6.4.7-6.4.7s-3.4-.9-7 1.7-2.5 7-2.5 7-2.4 1.3-2 3.8c.4 2.4 2.8 1.7 2.8 1.7 2-.3 3-3 3-3 2-.4 2.1-1.9 2-2.8-.5-.7-1-1.5-1-2.4 3.1 2.6 6.8.5 9.4-2.1z"/><path class="st5" d="M40.8 15.6c-2.1 0-4.7-1.1-4.7-3.7-2.1.5-4.2 1.1-6.3 0-.5-.5-1.6-.5-1.6-1.6-2.6 2.6-6.3 4.7-9.5 2.1 0 .9.5 1.6 1 2.4-.1-.5-.2-.8-.2-.8 1.1 1.6 3.8.1 3.8.1 3.9 1.2 5.6-.5 5.6-.5 1.5 3.1 7.4 3.5 7.4 3.5 1.2 4.3 3.3 6.4 5.6 4.6.7-.5 1-1.1 1.1-1.7-2.1-.7-3.7-2.1-2.2-4.4zM14.7 26.2s-1.6 2.6.4 3.8 3.2.1 3.2.1-1.7-2.6-2.1-4c0 0-.7.3-1.5.1zM37.9 26s-1 2.6-2 3.8c.6 1 1.3 1.6 2-.5 0 0 2.6-1 2.7-3.6 0 .1-1.3.9-2.7.3z"/><path class="st4" d="m23.9 38.4-.7.8s.9.9 2 1.2c-1 1.2-1.4 3.3-1.8 3.5-.3.2-1.6-1.4-2.4-2.8-.8-1.4 1-2.4 1.6-2.7.8-.3 1.3 0 1.3 0zM30.8 38.4l.7.8s-1 .9-2.1 1.1c1 1.2 1.5 3.4 1.9 3.6.3.2 1.6-1.4 2.4-2.8.8-1.4-1-2.4-1.6-2.7-.7-.3-1.3 0-1.3 0z"/><path d="M29.5 40.5c-1.2-.1-2.5 6-2.6 6.8-.3 2.3-.2 4.8.1 7.1 0 .2.4.3.4 0-.2-2.7-.4-5.7.2-8.3.3-1.5.9-2.9 1.5-4.2.2-.5.6-.9.6-1.5 0-.1-.1-.2-.2-.2-.2 0-.2.3 0 .3z"/><path d="M28.2 54.6c-.4-4.5.2-9.4 1.9-13.6.1-.1-.2-.2-.3-.1-1.8 3.8-2.7 9.6-1.8 13.7.1.1.2.1.2 0zM24.6 41.4c.8 2.2 1.1 4.5 1.8 6.7 0 .1.1 0 .1 0-.1-1.2-.4-2.4-.7-3.6-.2-1-.4-2.2-1.1-3.1.1-.2-.1-.1-.1 0z"/><path d="M24.3 42.1c.2.1.5.1.7.1.2 0 .4 0 .7-.1.2-.1.1-.3-.1-.3-.4.1-.9 0-1.3.1-.1 0-.1.1 0 .2zM28.9 42.3c.5 0 1 .3 1.5 0 .1-.1.1-.3-.1-.3h-.8c-.2 0-.5-.1-.6 0-.1.1-.1.3 0 .3zM30 52.4c0-1.4-.1-2.8-.2-4.1 0-.2-.3-.2-.3 0 0 1.4.1 2.8.3 4.2 0 0 .2 0 .2-.1z"/><path d="M29.6 48.1c.3.3 1.4 0 1.8 0 1-.1 2.1-.1 3.1-.3.1 0 .1-.2 0-.2-.8-.1-1.7 0-2.6.1-.8.1-1.6.4-2.3.4 0 0-.1 0 0 0z"/><path d="M34.4 47.9c-.1.5.1 1 .2 1.5.1.6.2 1.2.4 1.8 0 .1.2.1.2 0 .1-1.1-.4-2.3-.6-3.3-.1-.1-.2-.1-.2 0zM29.8 52.4c.1.3.8.4 1.1.6.6.2 1.1.6 1.7.7.1 0 .1-.1 0-.2-.9-.4-1.9-.8-2.8-1.2.1-.1 0 0 0 .1z"/><path d="M32.7 53.6c.1 0 .2-.1.3-.2.3-.2.6-.5.9-.8.4-.4.9-.8 1.2-1.3 0-.1 0-.2-.1-.1-.2.1-.3.3-.5.5s-.5.4-.7.6l-1.2 1.2.1.1z"/></svg>